%TF.GenerationSoftware,KiCad,Pcbnew,5.1.8*%
%TF.CreationDate,2020-11-30T19:21:11+01:00*%
%TF.ProjectId,lipo-stamp-proto,6c69706f-2d73-4746-916d-702d70726f74,rev?*%
%TF.SameCoordinates,Original*%
%TF.FileFunction,Other,Fab,Top*%
%FSLAX46Y46*%
G04 Gerber Fmt 4.6, Leading zero omitted, Abs format (unit mm)*
G04 Created by KiCad (PCBNEW 5.1.8) date 2020-11-30 19:21:11*
%MOMM*%
%LPD*%
G01*
G04 APERTURE LIST*
%ADD10C,0.100000*%
%ADD11C,0.150000*%
%ADD12C,0.060000*%
%ADD13C,0.080000*%
%ADD14C,0.075000*%
%ADD15C,0.040000*%
%ADD16C,0.015000*%
%ADD17C,0.120000*%
G04 APERTURE END LIST*
D10*
%TO.C,C7*%
X111715500Y-61861500D02*
X111715500Y-63461500D01*
X110915500Y-61861500D02*
X111715500Y-61861500D01*
X110915500Y-63461500D02*
X110915500Y-61861500D01*
X111715500Y-63461500D02*
X110915500Y-63461500D01*
%TO.C,C6*%
X120923000Y-58522000D02*
X120923000Y-60122000D01*
X120123000Y-58522000D02*
X120923000Y-58522000D01*
X120123000Y-60122000D02*
X120123000Y-58522000D01*
X120923000Y-60122000D02*
X120123000Y-60122000D01*
%TO.C,R6*%
X123215000Y-52228500D02*
X123215000Y-51403500D01*
X123215000Y-51403500D02*
X124815000Y-51403500D01*
X124815000Y-51403500D02*
X124815000Y-52228500D01*
X124815000Y-52228500D02*
X123215000Y-52228500D01*
%TO.C,C5*%
X122066000Y-53327500D02*
X121266000Y-53327500D01*
X121266000Y-53327500D02*
X121266000Y-51727500D01*
X121266000Y-51727500D02*
X122066000Y-51727500D01*
X122066000Y-51727500D02*
X122066000Y-53327500D01*
%TO.C,C4*%
X122447000Y-60122000D02*
X121647000Y-60122000D01*
X121647000Y-60122000D02*
X121647000Y-58522000D01*
X121647000Y-58522000D02*
X122447000Y-58522000D01*
X122447000Y-58522000D02*
X122447000Y-60122000D01*
%TO.C,C3*%
X119399000Y-60122000D02*
X118599000Y-60122000D01*
X118599000Y-60122000D02*
X118599000Y-58522000D01*
X118599000Y-58522000D02*
X119399000Y-58522000D01*
X119399000Y-58522000D02*
X119399000Y-60122000D01*
%TO.C,C2*%
X120092000Y-56886000D02*
X120092000Y-55636000D01*
X120092000Y-55636000D02*
X122092000Y-55636000D01*
X122092000Y-55636000D02*
X122092000Y-56886000D01*
X122092000Y-56886000D02*
X120092000Y-56886000D01*
%TO.C,C1*%
X118094000Y-62875000D02*
X118094000Y-64125000D01*
X118094000Y-64125000D02*
X116094000Y-64125000D01*
X116094000Y-64125000D02*
X116094000Y-62875000D01*
X116094000Y-62875000D02*
X118094000Y-62875000D01*
%TO.C,D4*%
X122560000Y-67310000D02*
X122060000Y-67310000D01*
X122560000Y-66910000D02*
X123160000Y-67310000D01*
X122560000Y-67710000D02*
X122560000Y-66910000D01*
X123160000Y-67310000D02*
X122560000Y-67710000D01*
X123160000Y-67310000D02*
X123160000Y-66760000D01*
X123160000Y-67310000D02*
X123160000Y-67860000D01*
X123560000Y-67310000D02*
X123160000Y-67310000D01*
X124210000Y-66410000D02*
X124210000Y-68210000D01*
X121410000Y-66410000D02*
X124210000Y-66410000D01*
X121410000Y-68210000D02*
X121410000Y-66410000D01*
X124210000Y-68210000D02*
X121410000Y-68210000D01*
%TO.C,D3*%
X110620000Y-67310000D02*
X110120000Y-67310000D01*
X110620000Y-66910000D02*
X111220000Y-67310000D01*
X110620000Y-67710000D02*
X110620000Y-66910000D01*
X111220000Y-67310000D02*
X110620000Y-67710000D01*
X111220000Y-67310000D02*
X111220000Y-66760000D01*
X111220000Y-67310000D02*
X111220000Y-67860000D01*
X111620000Y-67310000D02*
X111220000Y-67310000D01*
X112270000Y-66410000D02*
X112270000Y-68210000D01*
X109470000Y-66410000D02*
X112270000Y-66410000D01*
X109470000Y-68210000D02*
X109470000Y-66410000D01*
X112270000Y-68210000D02*
X109470000Y-68210000D01*
%TO.C,U3*%
X114246000Y-51926000D02*
X114896000Y-51276000D01*
X116046000Y-51276000D02*
X114896000Y-51276000D01*
X114246000Y-51926000D02*
X114246000Y-54376000D01*
X116046000Y-54376000D02*
X114246000Y-54376000D01*
X116046000Y-51276000D02*
X116046000Y-54376000D01*
%TO.C,U2*%
X118056000Y-51926000D02*
X118706000Y-51276000D01*
X119856000Y-51276000D02*
X118706000Y-51276000D01*
X118056000Y-51926000D02*
X118056000Y-54376000D01*
X119856000Y-54376000D02*
X118056000Y-54376000D01*
X119856000Y-51276000D02*
X119856000Y-54376000D01*
%TO.C,U1*%
X119961000Y-61777000D02*
X120611000Y-61127000D01*
X121761000Y-61127000D02*
X120611000Y-61127000D01*
X119961000Y-61777000D02*
X119961000Y-64227000D01*
X121761000Y-64227000D02*
X119961000Y-64227000D01*
X121761000Y-61127000D02*
X121761000Y-64227000D01*
%TO.C,R5*%
X122383500Y-54340000D02*
X122383500Y-54880000D01*
X122383500Y-54880000D02*
X121333500Y-54880000D01*
X121333500Y-54880000D02*
X121333500Y-54340000D01*
X121333500Y-54340000D02*
X122383500Y-54340000D01*
%TO.C,R4*%
X111268000Y-65678000D02*
X110728000Y-65678000D01*
X110728000Y-65678000D02*
X110728000Y-64628000D01*
X110728000Y-64628000D02*
X111268000Y-64628000D01*
X111268000Y-64628000D02*
X111268000Y-65678000D01*
%TO.C,R3*%
X110983000Y-53991000D02*
X110983000Y-53451000D01*
X110983000Y-53451000D02*
X112033000Y-53451000D01*
X112033000Y-53451000D02*
X112033000Y-53991000D01*
X112033000Y-53991000D02*
X110983000Y-53991000D01*
%TO.C,R2*%
X118888000Y-56788000D02*
X118348000Y-56788000D01*
X118348000Y-56788000D02*
X118348000Y-55738000D01*
X118348000Y-55738000D02*
X118888000Y-55738000D01*
X118888000Y-55738000D02*
X118888000Y-56788000D01*
%TO.C,R1*%
X114569000Y-62341000D02*
X114569000Y-62881000D01*
X114569000Y-62881000D02*
X113519000Y-62881000D01*
X113519000Y-62881000D02*
X113519000Y-62341000D01*
X113519000Y-62341000D02*
X114569000Y-62341000D01*
%TO.C,Q1*%
X117480000Y-67010000D02*
X119930000Y-67010000D01*
X116910000Y-66460000D02*
X116910000Y-65610000D01*
X117480000Y-67010000D02*
X116910000Y-66460000D01*
X116910000Y-65610000D02*
X119950000Y-65610000D01*
X119950000Y-67010000D02*
X119950000Y-65610000D01*
%TO.C,F1*%
X112189000Y-51270000D02*
X112189000Y-52870000D01*
X112189000Y-52870000D02*
X108989000Y-52870000D01*
X108989000Y-52870000D02*
X108989000Y-51270000D01*
X108989000Y-51270000D02*
X112189000Y-51270000D01*
%TO.C,D2*%
X112439500Y-63868500D02*
X112439500Y-65168500D01*
X112439500Y-65168500D02*
X112739500Y-65468500D01*
X112739500Y-65468500D02*
X113239500Y-65468500D01*
X113239500Y-65468500D02*
X113239500Y-63868500D01*
X113239500Y-63868500D02*
X112439500Y-63868500D01*
%TO.C,D1*%
X113963500Y-63868500D02*
X113963500Y-65168500D01*
X113963500Y-65168500D02*
X114263500Y-65468500D01*
X114263500Y-65468500D02*
X114763500Y-65468500D01*
X114763500Y-65468500D02*
X114763500Y-63868500D01*
X114763500Y-63868500D02*
X113963500Y-63868500D01*
%TD*%
%TO.C,C7*%
D11*
X113197880Y-63256738D02*
X113197880Y-63828166D01*
X113197880Y-63542452D02*
X112197880Y-63542452D01*
X112340738Y-63637690D01*
X112435976Y-63732928D01*
X112483595Y-63828166D01*
X112531214Y-62399595D02*
X113197880Y-62399595D01*
X112531214Y-62828166D02*
X113055023Y-62828166D01*
X113150261Y-62780547D01*
X113197880Y-62685309D01*
X113197880Y-62542452D01*
X113150261Y-62447214D01*
X113102642Y-62399595D01*
X112674071Y-61590071D02*
X112674071Y-61923404D01*
X113197880Y-61923404D02*
X112197880Y-61923404D01*
X112197880Y-61447214D01*
D12*
X111458357Y-62728166D02*
X111477404Y-62747214D01*
X111496452Y-62804357D01*
X111496452Y-62842452D01*
X111477404Y-62899595D01*
X111439309Y-62937690D01*
X111401214Y-62956738D01*
X111325023Y-62975785D01*
X111267880Y-62975785D01*
X111191690Y-62956738D01*
X111153595Y-62937690D01*
X111115500Y-62899595D01*
X111096452Y-62842452D01*
X111096452Y-62804357D01*
X111115500Y-62747214D01*
X111134547Y-62728166D01*
X111096452Y-62594833D02*
X111096452Y-62328166D01*
X111496452Y-62499595D01*
%TO.C,C6*%
D11*
X122405380Y-59917238D02*
X122405380Y-60488666D01*
X122405380Y-60202952D02*
X121405380Y-60202952D01*
X121548238Y-60298190D01*
X121643476Y-60393428D01*
X121691095Y-60488666D01*
X121738714Y-59060095D02*
X122405380Y-59060095D01*
X121738714Y-59488666D02*
X122262523Y-59488666D01*
X122357761Y-59441047D01*
X122405380Y-59345809D01*
X122405380Y-59202952D01*
X122357761Y-59107714D01*
X122310142Y-59060095D01*
X121881571Y-58250571D02*
X121881571Y-58583904D01*
X122405380Y-58583904D02*
X121405380Y-58583904D01*
X121405380Y-58107714D01*
D12*
X120665857Y-59388666D02*
X120684904Y-59407714D01*
X120703952Y-59464857D01*
X120703952Y-59502952D01*
X120684904Y-59560095D01*
X120646809Y-59598190D01*
X120608714Y-59617238D01*
X120532523Y-59636285D01*
X120475380Y-59636285D01*
X120399190Y-59617238D01*
X120361095Y-59598190D01*
X120323000Y-59560095D01*
X120303952Y-59502952D01*
X120303952Y-59464857D01*
X120323000Y-59407714D01*
X120342047Y-59388666D01*
X120303952Y-59045809D02*
X120303952Y-59122000D01*
X120323000Y-59160095D01*
X120342047Y-59179142D01*
X120399190Y-59217238D01*
X120475380Y-59236285D01*
X120627761Y-59236285D01*
X120665857Y-59217238D01*
X120684904Y-59198190D01*
X120703952Y-59160095D01*
X120703952Y-59083904D01*
X120684904Y-59045809D01*
X120665857Y-59026761D01*
X120627761Y-59007714D01*
X120532523Y-59007714D01*
X120494428Y-59026761D01*
X120475380Y-59045809D01*
X120456333Y-59083904D01*
X120456333Y-59160095D01*
X120475380Y-59198190D01*
X120494428Y-59217238D01*
X120532523Y-59236285D01*
%TO.C,R6*%
D11*
X120967380Y-52793619D02*
X121015000Y-52746000D01*
X121110238Y-52698380D01*
X121348333Y-52698380D01*
X121443571Y-52746000D01*
X121491190Y-52793619D01*
X121538809Y-52888857D01*
X121538809Y-52984095D01*
X121491190Y-53126952D01*
X120919761Y-53698380D01*
X121538809Y-53698380D01*
X121967380Y-53603142D02*
X122015000Y-53650761D01*
X121967380Y-53698380D01*
X121919761Y-53650761D01*
X121967380Y-53603142D01*
X121967380Y-53698380D01*
X122348333Y-52698380D02*
X123015000Y-52698380D01*
X122586428Y-53698380D01*
X123395952Y-53698380D02*
X123395952Y-52698380D01*
X123491190Y-53317428D02*
X123776904Y-53698380D01*
X123776904Y-53031714D02*
X123395952Y-53412666D01*
X124395952Y-52698380D02*
X124586428Y-52698380D01*
X124681666Y-52746000D01*
X124776904Y-52841238D01*
X124824523Y-53031714D01*
X124824523Y-53365047D01*
X124776904Y-53555523D01*
X124681666Y-53650761D01*
X124586428Y-53698380D01*
X124395952Y-53698380D01*
X124300714Y-53650761D01*
X124205476Y-53555523D01*
X124157857Y-53365047D01*
X124157857Y-53031714D01*
X124205476Y-52841238D01*
X124300714Y-52746000D01*
X124395952Y-52698380D01*
X125253095Y-53698380D02*
X125253095Y-52698380D01*
X125681666Y-53698380D02*
X125681666Y-53174571D01*
X125634047Y-53079333D01*
X125538809Y-53031714D01*
X125395952Y-53031714D01*
X125300714Y-53079333D01*
X125253095Y-53126952D01*
X126157857Y-53698380D02*
X126157857Y-53031714D01*
X126157857Y-53126952D02*
X126205476Y-53079333D01*
X126300714Y-53031714D01*
X126443571Y-53031714D01*
X126538809Y-53079333D01*
X126586428Y-53174571D01*
X126586428Y-53698380D01*
X126586428Y-53174571D02*
X126634047Y-53079333D01*
X126729285Y-53031714D01*
X126872142Y-53031714D01*
X126967380Y-53079333D01*
X127015000Y-53174571D01*
X127015000Y-53698380D01*
D12*
X123948333Y-51996952D02*
X123815000Y-51806476D01*
X123719761Y-51996952D02*
X123719761Y-51596952D01*
X123872142Y-51596952D01*
X123910238Y-51616000D01*
X123929285Y-51635047D01*
X123948333Y-51673142D01*
X123948333Y-51730285D01*
X123929285Y-51768380D01*
X123910238Y-51787428D01*
X123872142Y-51806476D01*
X123719761Y-51806476D01*
X124291190Y-51596952D02*
X124215000Y-51596952D01*
X124176904Y-51616000D01*
X124157857Y-51635047D01*
X124119761Y-51692190D01*
X124100714Y-51768380D01*
X124100714Y-51920761D01*
X124119761Y-51958857D01*
X124138809Y-51977904D01*
X124176904Y-51996952D01*
X124253095Y-51996952D01*
X124291190Y-51977904D01*
X124310238Y-51958857D01*
X124329285Y-51920761D01*
X124329285Y-51825523D01*
X124310238Y-51787428D01*
X124291190Y-51768380D01*
X124253095Y-51749333D01*
X124176904Y-51749333D01*
X124138809Y-51768380D01*
X124119761Y-51787428D01*
X124100714Y-51825523D01*
%TO.C,C5*%
D11*
X123548380Y-54075119D02*
X123548380Y-54646547D01*
X123548380Y-54360833D02*
X122548380Y-54360833D01*
X122691238Y-54456071D01*
X122786476Y-54551309D01*
X122834095Y-54646547D01*
X122548380Y-53456071D02*
X122548380Y-53360833D01*
X122596000Y-53265595D01*
X122643619Y-53217976D01*
X122738857Y-53170357D01*
X122929333Y-53122738D01*
X123167428Y-53122738D01*
X123357904Y-53170357D01*
X123453142Y-53217976D01*
X123500761Y-53265595D01*
X123548380Y-53360833D01*
X123548380Y-53456071D01*
X123500761Y-53551309D01*
X123453142Y-53598928D01*
X123357904Y-53646547D01*
X123167428Y-53694166D01*
X122929333Y-53694166D01*
X122738857Y-53646547D01*
X122643619Y-53598928D01*
X122596000Y-53551309D01*
X122548380Y-53456071D01*
X122548380Y-52503690D02*
X122548380Y-52408452D01*
X122596000Y-52313214D01*
X122643619Y-52265595D01*
X122738857Y-52217976D01*
X122929333Y-52170357D01*
X123167428Y-52170357D01*
X123357904Y-52217976D01*
X123453142Y-52265595D01*
X123500761Y-52313214D01*
X123548380Y-52408452D01*
X123548380Y-52503690D01*
X123500761Y-52598928D01*
X123453142Y-52646547D01*
X123357904Y-52694166D01*
X123167428Y-52741785D01*
X122929333Y-52741785D01*
X122738857Y-52694166D01*
X122643619Y-52646547D01*
X122596000Y-52598928D01*
X122548380Y-52503690D01*
X122881714Y-51741785D02*
X123548380Y-51741785D01*
X122976952Y-51741785D02*
X122929333Y-51694166D01*
X122881714Y-51598928D01*
X122881714Y-51456071D01*
X122929333Y-51360833D01*
X123024571Y-51313214D01*
X123548380Y-51313214D01*
X123024571Y-50503690D02*
X123024571Y-50837023D01*
X123548380Y-50837023D02*
X122548380Y-50837023D01*
X122548380Y-50360833D01*
D12*
X121808857Y-52594166D02*
X121827904Y-52613214D01*
X121846952Y-52670357D01*
X121846952Y-52708452D01*
X121827904Y-52765595D01*
X121789809Y-52803690D01*
X121751714Y-52822738D01*
X121675523Y-52841785D01*
X121618380Y-52841785D01*
X121542190Y-52822738D01*
X121504095Y-52803690D01*
X121466000Y-52765595D01*
X121446952Y-52708452D01*
X121446952Y-52670357D01*
X121466000Y-52613214D01*
X121485047Y-52594166D01*
X121446952Y-52232261D02*
X121446952Y-52422738D01*
X121637428Y-52441785D01*
X121618380Y-52422738D01*
X121599333Y-52384642D01*
X121599333Y-52289404D01*
X121618380Y-52251309D01*
X121637428Y-52232261D01*
X121675523Y-52213214D01*
X121770761Y-52213214D01*
X121808857Y-52232261D01*
X121827904Y-52251309D01*
X121846952Y-52289404D01*
X121846952Y-52384642D01*
X121827904Y-52422738D01*
X121808857Y-52441785D01*
%TO.C,C4*%
D11*
X123929380Y-59917238D02*
X123929380Y-60488666D01*
X123929380Y-60202952D02*
X122929380Y-60202952D01*
X123072238Y-60298190D01*
X123167476Y-60393428D01*
X123215095Y-60488666D01*
X123262714Y-59060095D02*
X123929380Y-59060095D01*
X123262714Y-59488666D02*
X123786523Y-59488666D01*
X123881761Y-59441047D01*
X123929380Y-59345809D01*
X123929380Y-59202952D01*
X123881761Y-59107714D01*
X123834142Y-59060095D01*
X123405571Y-58250571D02*
X123405571Y-58583904D01*
X123929380Y-58583904D02*
X122929380Y-58583904D01*
X122929380Y-58107714D01*
D12*
X122189857Y-59388666D02*
X122208904Y-59407714D01*
X122227952Y-59464857D01*
X122227952Y-59502952D01*
X122208904Y-59560095D01*
X122170809Y-59598190D01*
X122132714Y-59617238D01*
X122056523Y-59636285D01*
X121999380Y-59636285D01*
X121923190Y-59617238D01*
X121885095Y-59598190D01*
X121847000Y-59560095D01*
X121827952Y-59502952D01*
X121827952Y-59464857D01*
X121847000Y-59407714D01*
X121866047Y-59388666D01*
X121961285Y-59045809D02*
X122227952Y-59045809D01*
X121808904Y-59141047D02*
X122094619Y-59236285D01*
X122094619Y-58988666D01*
%TO.C,C3*%
D11*
X120881380Y-59917238D02*
X120881380Y-60488666D01*
X120881380Y-60202952D02*
X119881380Y-60202952D01*
X120024238Y-60298190D01*
X120119476Y-60393428D01*
X120167095Y-60488666D01*
X120214714Y-59060095D02*
X120881380Y-59060095D01*
X120214714Y-59488666D02*
X120738523Y-59488666D01*
X120833761Y-59441047D01*
X120881380Y-59345809D01*
X120881380Y-59202952D01*
X120833761Y-59107714D01*
X120786142Y-59060095D01*
X120357571Y-58250571D02*
X120357571Y-58583904D01*
X120881380Y-58583904D02*
X119881380Y-58583904D01*
X119881380Y-58107714D01*
D12*
X119141857Y-59388666D02*
X119160904Y-59407714D01*
X119179952Y-59464857D01*
X119179952Y-59502952D01*
X119160904Y-59560095D01*
X119122809Y-59598190D01*
X119084714Y-59617238D01*
X119008523Y-59636285D01*
X118951380Y-59636285D01*
X118875190Y-59617238D01*
X118837095Y-59598190D01*
X118799000Y-59560095D01*
X118779952Y-59502952D01*
X118779952Y-59464857D01*
X118799000Y-59407714D01*
X118818047Y-59388666D01*
X118779952Y-59255333D02*
X118779952Y-59007714D01*
X118932333Y-59141047D01*
X118932333Y-59083904D01*
X118951380Y-59045809D01*
X118970428Y-59026761D01*
X119008523Y-59007714D01*
X119103761Y-59007714D01*
X119141857Y-59026761D01*
X119160904Y-59045809D01*
X119179952Y-59083904D01*
X119179952Y-59198190D01*
X119160904Y-59236285D01*
X119141857Y-59255333D01*
%TO.C,C2*%
D11*
X120020571Y-58393380D02*
X119449142Y-58393380D01*
X119734857Y-58393380D02*
X119734857Y-57393380D01*
X119639619Y-57536238D01*
X119544380Y-57631476D01*
X119449142Y-57679095D01*
X120639619Y-57393380D02*
X120734857Y-57393380D01*
X120830095Y-57441000D01*
X120877714Y-57488619D01*
X120925333Y-57583857D01*
X120972952Y-57774333D01*
X120972952Y-58012428D01*
X120925333Y-58202904D01*
X120877714Y-58298142D01*
X120830095Y-58345761D01*
X120734857Y-58393380D01*
X120639619Y-58393380D01*
X120544380Y-58345761D01*
X120496761Y-58298142D01*
X120449142Y-58202904D01*
X120401523Y-58012428D01*
X120401523Y-57774333D01*
X120449142Y-57583857D01*
X120496761Y-57488619D01*
X120544380Y-57441000D01*
X120639619Y-57393380D01*
X121830095Y-57726714D02*
X121830095Y-58393380D01*
X121401523Y-57726714D02*
X121401523Y-58250523D01*
X121449142Y-58345761D01*
X121544380Y-58393380D01*
X121687238Y-58393380D01*
X121782476Y-58345761D01*
X121830095Y-58298142D01*
X122639619Y-57869571D02*
X122306285Y-57869571D01*
X122306285Y-58393380D02*
X122306285Y-57393380D01*
X122782476Y-57393380D01*
D13*
X121008666Y-56439571D02*
X120984857Y-56463380D01*
X120913428Y-56487190D01*
X120865809Y-56487190D01*
X120794380Y-56463380D01*
X120746761Y-56415761D01*
X120722952Y-56368142D01*
X120699142Y-56272904D01*
X120699142Y-56201476D01*
X120722952Y-56106238D01*
X120746761Y-56058619D01*
X120794380Y-56011000D01*
X120865809Y-55987190D01*
X120913428Y-55987190D01*
X120984857Y-56011000D01*
X121008666Y-56034809D01*
X121199142Y-56034809D02*
X121222952Y-56011000D01*
X121270571Y-55987190D01*
X121389619Y-55987190D01*
X121437238Y-56011000D01*
X121461047Y-56034809D01*
X121484857Y-56082428D01*
X121484857Y-56130047D01*
X121461047Y-56201476D01*
X121175333Y-56487190D01*
X121484857Y-56487190D01*
%TO.C,C1*%
D11*
X116022571Y-62272380D02*
X115451142Y-62272380D01*
X115736857Y-62272380D02*
X115736857Y-61272380D01*
X115641619Y-61415238D01*
X115546380Y-61510476D01*
X115451142Y-61558095D01*
X116641619Y-61272380D02*
X116736857Y-61272380D01*
X116832095Y-61320000D01*
X116879714Y-61367619D01*
X116927333Y-61462857D01*
X116974952Y-61653333D01*
X116974952Y-61891428D01*
X116927333Y-62081904D01*
X116879714Y-62177142D01*
X116832095Y-62224761D01*
X116736857Y-62272380D01*
X116641619Y-62272380D01*
X116546380Y-62224761D01*
X116498761Y-62177142D01*
X116451142Y-62081904D01*
X116403523Y-61891428D01*
X116403523Y-61653333D01*
X116451142Y-61462857D01*
X116498761Y-61367619D01*
X116546380Y-61320000D01*
X116641619Y-61272380D01*
X117832095Y-61605714D02*
X117832095Y-62272380D01*
X117403523Y-61605714D02*
X117403523Y-62129523D01*
X117451142Y-62224761D01*
X117546380Y-62272380D01*
X117689238Y-62272380D01*
X117784476Y-62224761D01*
X117832095Y-62177142D01*
X118641619Y-61748571D02*
X118308285Y-61748571D01*
X118308285Y-62272380D02*
X118308285Y-61272380D01*
X118784476Y-61272380D01*
D13*
X117010666Y-63678571D02*
X116986857Y-63702380D01*
X116915428Y-63726190D01*
X116867809Y-63726190D01*
X116796380Y-63702380D01*
X116748761Y-63654761D01*
X116724952Y-63607142D01*
X116701142Y-63511904D01*
X116701142Y-63440476D01*
X116724952Y-63345238D01*
X116748761Y-63297619D01*
X116796380Y-63250000D01*
X116867809Y-63226190D01*
X116915428Y-63226190D01*
X116986857Y-63250000D01*
X117010666Y-63273809D01*
X117486857Y-63726190D02*
X117201142Y-63726190D01*
X117344000Y-63726190D02*
X117344000Y-63226190D01*
X117296380Y-63297619D01*
X117248761Y-63345238D01*
X117201142Y-63369047D01*
%TO.C,D4*%
D11*
X120405238Y-65138571D02*
X120548095Y-65186190D01*
X120595714Y-65233809D01*
X120643333Y-65329047D01*
X120643333Y-65471904D01*
X120595714Y-65567142D01*
X120548095Y-65614761D01*
X120452857Y-65662380D01*
X120071904Y-65662380D01*
X120071904Y-64662380D01*
X120405238Y-64662380D01*
X120500476Y-64710000D01*
X120548095Y-64757619D01*
X120595714Y-64852857D01*
X120595714Y-64948095D01*
X120548095Y-65043333D01*
X120500476Y-65090952D01*
X120405238Y-65138571D01*
X120071904Y-65138571D01*
X121548095Y-64662380D02*
X121071904Y-64662380D01*
X121024285Y-65138571D01*
X121071904Y-65090952D01*
X121167142Y-65043333D01*
X121405238Y-65043333D01*
X121500476Y-65090952D01*
X121548095Y-65138571D01*
X121595714Y-65233809D01*
X121595714Y-65471904D01*
X121548095Y-65567142D01*
X121500476Y-65614761D01*
X121405238Y-65662380D01*
X121167142Y-65662380D01*
X121071904Y-65614761D01*
X121024285Y-65567142D01*
X122167142Y-65090952D02*
X122071904Y-65043333D01*
X122024285Y-64995714D01*
X121976666Y-64900476D01*
X121976666Y-64852857D01*
X122024285Y-64757619D01*
X122071904Y-64710000D01*
X122167142Y-64662380D01*
X122357619Y-64662380D01*
X122452857Y-64710000D01*
X122500476Y-64757619D01*
X122548095Y-64852857D01*
X122548095Y-64900476D01*
X122500476Y-64995714D01*
X122452857Y-65043333D01*
X122357619Y-65090952D01*
X122167142Y-65090952D01*
X122071904Y-65138571D01*
X122024285Y-65186190D01*
X121976666Y-65281428D01*
X121976666Y-65471904D01*
X122024285Y-65567142D01*
X122071904Y-65614761D01*
X122167142Y-65662380D01*
X122357619Y-65662380D01*
X122452857Y-65614761D01*
X122500476Y-65567142D01*
X122548095Y-65471904D01*
X122548095Y-65281428D01*
X122500476Y-65186190D01*
X122452857Y-65138571D01*
X122357619Y-65090952D01*
X123500476Y-65662380D02*
X122929047Y-65662380D01*
X123214761Y-65662380D02*
X123214761Y-64662380D01*
X123119523Y-64805238D01*
X123024285Y-64900476D01*
X122929047Y-64948095D01*
X123976666Y-65662380D02*
X124167142Y-65662380D01*
X124262380Y-65614761D01*
X124310000Y-65567142D01*
X124405238Y-65424285D01*
X124452857Y-65233809D01*
X124452857Y-64852857D01*
X124405238Y-64757619D01*
X124357619Y-64710000D01*
X124262380Y-64662380D01*
X124071904Y-64662380D01*
X123976666Y-64710000D01*
X123929047Y-64757619D01*
X123881428Y-64852857D01*
X123881428Y-65090952D01*
X123929047Y-65186190D01*
X123976666Y-65233809D01*
X124071904Y-65281428D01*
X124262380Y-65281428D01*
X124357619Y-65233809D01*
X124405238Y-65186190D01*
X124452857Y-65090952D01*
X124786190Y-64662380D02*
X125024285Y-65662380D01*
X125214761Y-64948095D01*
X125405238Y-65662380D01*
X125643333Y-64662380D01*
X122071904Y-69762380D02*
X122071904Y-68762380D01*
X122310000Y-68762380D01*
X122452857Y-68810000D01*
X122548095Y-68905238D01*
X122595714Y-69000476D01*
X122643333Y-69190952D01*
X122643333Y-69333809D01*
X122595714Y-69524285D01*
X122548095Y-69619523D01*
X122452857Y-69714761D01*
X122310000Y-69762380D01*
X122071904Y-69762380D01*
X123500476Y-69095714D02*
X123500476Y-69762380D01*
X123262380Y-68714761D02*
X123024285Y-69429047D01*
X123643333Y-69429047D01*
%TO.C,D3*%
X108465238Y-65138571D02*
X108608095Y-65186190D01*
X108655714Y-65233809D01*
X108703333Y-65329047D01*
X108703333Y-65471904D01*
X108655714Y-65567142D01*
X108608095Y-65614761D01*
X108512857Y-65662380D01*
X108131904Y-65662380D01*
X108131904Y-64662380D01*
X108465238Y-64662380D01*
X108560476Y-64710000D01*
X108608095Y-64757619D01*
X108655714Y-64852857D01*
X108655714Y-64948095D01*
X108608095Y-65043333D01*
X108560476Y-65090952D01*
X108465238Y-65138571D01*
X108131904Y-65138571D01*
X109608095Y-64662380D02*
X109131904Y-64662380D01*
X109084285Y-65138571D01*
X109131904Y-65090952D01*
X109227142Y-65043333D01*
X109465238Y-65043333D01*
X109560476Y-65090952D01*
X109608095Y-65138571D01*
X109655714Y-65233809D01*
X109655714Y-65471904D01*
X109608095Y-65567142D01*
X109560476Y-65614761D01*
X109465238Y-65662380D01*
X109227142Y-65662380D01*
X109131904Y-65614761D01*
X109084285Y-65567142D01*
X110227142Y-65090952D02*
X110131904Y-65043333D01*
X110084285Y-64995714D01*
X110036666Y-64900476D01*
X110036666Y-64852857D01*
X110084285Y-64757619D01*
X110131904Y-64710000D01*
X110227142Y-64662380D01*
X110417619Y-64662380D01*
X110512857Y-64710000D01*
X110560476Y-64757619D01*
X110608095Y-64852857D01*
X110608095Y-64900476D01*
X110560476Y-64995714D01*
X110512857Y-65043333D01*
X110417619Y-65090952D01*
X110227142Y-65090952D01*
X110131904Y-65138571D01*
X110084285Y-65186190D01*
X110036666Y-65281428D01*
X110036666Y-65471904D01*
X110084285Y-65567142D01*
X110131904Y-65614761D01*
X110227142Y-65662380D01*
X110417619Y-65662380D01*
X110512857Y-65614761D01*
X110560476Y-65567142D01*
X110608095Y-65471904D01*
X110608095Y-65281428D01*
X110560476Y-65186190D01*
X110512857Y-65138571D01*
X110417619Y-65090952D01*
X111560476Y-65662380D02*
X110989047Y-65662380D01*
X111274761Y-65662380D02*
X111274761Y-64662380D01*
X111179523Y-64805238D01*
X111084285Y-64900476D01*
X110989047Y-64948095D01*
X112036666Y-65662380D02*
X112227142Y-65662380D01*
X112322380Y-65614761D01*
X112370000Y-65567142D01*
X112465238Y-65424285D01*
X112512857Y-65233809D01*
X112512857Y-64852857D01*
X112465238Y-64757619D01*
X112417619Y-64710000D01*
X112322380Y-64662380D01*
X112131904Y-64662380D01*
X112036666Y-64710000D01*
X111989047Y-64757619D01*
X111941428Y-64852857D01*
X111941428Y-65090952D01*
X111989047Y-65186190D01*
X112036666Y-65233809D01*
X112131904Y-65281428D01*
X112322380Y-65281428D01*
X112417619Y-65233809D01*
X112465238Y-65186190D01*
X112512857Y-65090952D01*
X112846190Y-64662380D02*
X113084285Y-65662380D01*
X113274761Y-64948095D01*
X113465238Y-65662380D01*
X113703333Y-64662380D01*
X110131904Y-69762380D02*
X110131904Y-68762380D01*
X110370000Y-68762380D01*
X110512857Y-68810000D01*
X110608095Y-68905238D01*
X110655714Y-69000476D01*
X110703333Y-69190952D01*
X110703333Y-69333809D01*
X110655714Y-69524285D01*
X110608095Y-69619523D01*
X110512857Y-69714761D01*
X110370000Y-69762380D01*
X110131904Y-69762380D01*
X111036666Y-68762380D02*
X111655714Y-68762380D01*
X111322380Y-69143333D01*
X111465238Y-69143333D01*
X111560476Y-69190952D01*
X111608095Y-69238571D01*
X111655714Y-69333809D01*
X111655714Y-69571904D01*
X111608095Y-69667142D01*
X111560476Y-69714761D01*
X111465238Y-69762380D01*
X111179523Y-69762380D01*
X111084285Y-69714761D01*
X111036666Y-69667142D01*
%TO.C,U3*%
X112907904Y-55654571D02*
X112574571Y-55654571D01*
X112574571Y-56178380D02*
X112574571Y-55178380D01*
X113050761Y-55178380D01*
X113384095Y-56130761D02*
X113526952Y-56178380D01*
X113765047Y-56178380D01*
X113860285Y-56130761D01*
X113907904Y-56083142D01*
X113955523Y-55987904D01*
X113955523Y-55892666D01*
X113907904Y-55797428D01*
X113860285Y-55749809D01*
X113765047Y-55702190D01*
X113574571Y-55654571D01*
X113479333Y-55606952D01*
X113431714Y-55559333D01*
X113384095Y-55464095D01*
X113384095Y-55368857D01*
X113431714Y-55273619D01*
X113479333Y-55226000D01*
X113574571Y-55178380D01*
X113812666Y-55178380D01*
X113955523Y-55226000D01*
X114526952Y-55606952D02*
X114431714Y-55559333D01*
X114384095Y-55511714D01*
X114336476Y-55416476D01*
X114336476Y-55368857D01*
X114384095Y-55273619D01*
X114431714Y-55226000D01*
X114526952Y-55178380D01*
X114717428Y-55178380D01*
X114812666Y-55226000D01*
X114860285Y-55273619D01*
X114907904Y-55368857D01*
X114907904Y-55416476D01*
X114860285Y-55511714D01*
X114812666Y-55559333D01*
X114717428Y-55606952D01*
X114526952Y-55606952D01*
X114431714Y-55654571D01*
X114384095Y-55702190D01*
X114336476Y-55797428D01*
X114336476Y-55987904D01*
X114384095Y-56083142D01*
X114431714Y-56130761D01*
X114526952Y-56178380D01*
X114717428Y-56178380D01*
X114812666Y-56130761D01*
X114860285Y-56083142D01*
X114907904Y-55987904D01*
X114907904Y-55797428D01*
X114860285Y-55702190D01*
X114812666Y-55654571D01*
X114717428Y-55606952D01*
X115288857Y-55273619D02*
X115336476Y-55226000D01*
X115431714Y-55178380D01*
X115669809Y-55178380D01*
X115765047Y-55226000D01*
X115812666Y-55273619D01*
X115860285Y-55368857D01*
X115860285Y-55464095D01*
X115812666Y-55606952D01*
X115241238Y-56178380D01*
X115860285Y-56178380D01*
X116479333Y-55178380D02*
X116574571Y-55178380D01*
X116669809Y-55226000D01*
X116717428Y-55273619D01*
X116765047Y-55368857D01*
X116812666Y-55559333D01*
X116812666Y-55797428D01*
X116765047Y-55987904D01*
X116717428Y-56083142D01*
X116669809Y-56130761D01*
X116574571Y-56178380D01*
X116479333Y-56178380D01*
X116384095Y-56130761D01*
X116336476Y-56083142D01*
X116288857Y-55987904D01*
X116241238Y-55797428D01*
X116241238Y-55559333D01*
X116288857Y-55368857D01*
X116336476Y-55273619D01*
X116384095Y-55226000D01*
X116479333Y-55178380D01*
X117717428Y-55178380D02*
X117241238Y-55178380D01*
X117193619Y-55654571D01*
X117241238Y-55606952D01*
X117336476Y-55559333D01*
X117574571Y-55559333D01*
X117669809Y-55606952D01*
X117717428Y-55654571D01*
X117765047Y-55749809D01*
X117765047Y-55987904D01*
X117717428Y-56083142D01*
X117669809Y-56130761D01*
X117574571Y-56178380D01*
X117336476Y-56178380D01*
X117241238Y-56130761D01*
X117193619Y-56083142D01*
D14*
X114872190Y-53206952D02*
X115276952Y-53206952D01*
X115324571Y-53183142D01*
X115348380Y-53159333D01*
X115372190Y-53111714D01*
X115372190Y-53016476D01*
X115348380Y-52968857D01*
X115324571Y-52945047D01*
X115276952Y-52921238D01*
X114872190Y-52921238D01*
X114872190Y-52730761D02*
X114872190Y-52421238D01*
X115062666Y-52587904D01*
X115062666Y-52516476D01*
X115086476Y-52468857D01*
X115110285Y-52445047D01*
X115157904Y-52421238D01*
X115276952Y-52421238D01*
X115324571Y-52445047D01*
X115348380Y-52468857D01*
X115372190Y-52516476D01*
X115372190Y-52659333D01*
X115348380Y-52706952D01*
X115324571Y-52730761D01*
%TO.C,U2*%
D11*
X114836952Y-55892666D02*
X115313142Y-55892666D01*
X114741714Y-56178380D02*
X115075047Y-55178380D01*
X115408380Y-56178380D01*
X115741714Y-56178380D02*
X115741714Y-55178380D01*
X116122666Y-55178380D01*
X116217904Y-55226000D01*
X116265523Y-55273619D01*
X116313142Y-55368857D01*
X116313142Y-55511714D01*
X116265523Y-55606952D01*
X116217904Y-55654571D01*
X116122666Y-55702190D01*
X115741714Y-55702190D01*
X116789333Y-56178380D02*
X116979809Y-56178380D01*
X117075047Y-56130761D01*
X117122666Y-56083142D01*
X117217904Y-55940285D01*
X117265523Y-55749809D01*
X117265523Y-55368857D01*
X117217904Y-55273619D01*
X117170285Y-55226000D01*
X117075047Y-55178380D01*
X116884571Y-55178380D01*
X116789333Y-55226000D01*
X116741714Y-55273619D01*
X116694095Y-55368857D01*
X116694095Y-55606952D01*
X116741714Y-55702190D01*
X116789333Y-55749809D01*
X116884571Y-55797428D01*
X117075047Y-55797428D01*
X117170285Y-55749809D01*
X117217904Y-55702190D01*
X117265523Y-55606952D01*
X118217904Y-56178380D02*
X117646476Y-56178380D01*
X117932190Y-56178380D02*
X117932190Y-55178380D01*
X117836952Y-55321238D01*
X117741714Y-55416476D01*
X117646476Y-55464095D01*
X118836952Y-55178380D02*
X118932190Y-55178380D01*
X119027428Y-55226000D01*
X119075047Y-55273619D01*
X119122666Y-55368857D01*
X119170285Y-55559333D01*
X119170285Y-55797428D01*
X119122666Y-55987904D01*
X119075047Y-56083142D01*
X119027428Y-56130761D01*
X118932190Y-56178380D01*
X118836952Y-56178380D01*
X118741714Y-56130761D01*
X118694095Y-56083142D01*
X118646476Y-55987904D01*
X118598857Y-55797428D01*
X118598857Y-55559333D01*
X118646476Y-55368857D01*
X118694095Y-55273619D01*
X118741714Y-55226000D01*
X118836952Y-55178380D01*
X120122666Y-56178380D02*
X119551238Y-56178380D01*
X119836952Y-56178380D02*
X119836952Y-55178380D01*
X119741714Y-55321238D01*
X119646476Y-55416476D01*
X119551238Y-55464095D01*
X121122666Y-56083142D02*
X121075047Y-56130761D01*
X120932190Y-56178380D01*
X120836952Y-56178380D01*
X120694095Y-56130761D01*
X120598857Y-56035523D01*
X120551238Y-55940285D01*
X120503619Y-55749809D01*
X120503619Y-55606952D01*
X120551238Y-55416476D01*
X120598857Y-55321238D01*
X120694095Y-55226000D01*
X120836952Y-55178380D01*
X120932190Y-55178380D01*
X121075047Y-55226000D01*
X121122666Y-55273619D01*
X121551238Y-56178380D02*
X121551238Y-55178380D01*
X122122666Y-56178380D02*
X121694095Y-55606952D01*
X122122666Y-55178380D02*
X121551238Y-55749809D01*
X122979809Y-55178380D02*
X122789333Y-55178380D01*
X122694095Y-55226000D01*
X122646476Y-55273619D01*
X122551238Y-55416476D01*
X122503619Y-55606952D01*
X122503619Y-55987904D01*
X122551238Y-56083142D01*
X122598857Y-56130761D01*
X122694095Y-56178380D01*
X122884571Y-56178380D01*
X122979809Y-56130761D01*
X123027428Y-56083142D01*
X123075047Y-55987904D01*
X123075047Y-55749809D01*
X123027428Y-55654571D01*
X122979809Y-55606952D01*
X122884571Y-55559333D01*
X122694095Y-55559333D01*
X122598857Y-55606952D01*
X122551238Y-55654571D01*
X122503619Y-55749809D01*
D14*
X118682190Y-53206952D02*
X119086952Y-53206952D01*
X119134571Y-53183142D01*
X119158380Y-53159333D01*
X119182190Y-53111714D01*
X119182190Y-53016476D01*
X119158380Y-52968857D01*
X119134571Y-52945047D01*
X119086952Y-52921238D01*
X118682190Y-52921238D01*
X118729809Y-52706952D02*
X118706000Y-52683142D01*
X118682190Y-52635523D01*
X118682190Y-52516476D01*
X118706000Y-52468857D01*
X118729809Y-52445047D01*
X118777428Y-52421238D01*
X118825047Y-52421238D01*
X118896476Y-52445047D01*
X119182190Y-52730761D01*
X119182190Y-52421238D01*
%TO.C,U1*%
D11*
X115908619Y-65743666D02*
X116384809Y-65743666D01*
X115813380Y-66029380D02*
X116146714Y-65029380D01*
X116480047Y-66029380D01*
X116813380Y-66029380D02*
X116813380Y-65029380D01*
X117194333Y-65029380D01*
X117289571Y-65077000D01*
X117337190Y-65124619D01*
X117384809Y-65219857D01*
X117384809Y-65362714D01*
X117337190Y-65457952D01*
X117289571Y-65505571D01*
X117194333Y-65553190D01*
X116813380Y-65553190D01*
X117765761Y-65124619D02*
X117813380Y-65077000D01*
X117908619Y-65029380D01*
X118146714Y-65029380D01*
X118241952Y-65077000D01*
X118289571Y-65124619D01*
X118337190Y-65219857D01*
X118337190Y-65315095D01*
X118289571Y-65457952D01*
X117718142Y-66029380D01*
X118337190Y-66029380D01*
X119289571Y-66029380D02*
X118718142Y-66029380D01*
X119003857Y-66029380D02*
X119003857Y-65029380D01*
X118908619Y-65172238D01*
X118813380Y-65267476D01*
X118718142Y-65315095D01*
X120241952Y-66029380D02*
X119670523Y-66029380D01*
X119956238Y-66029380D02*
X119956238Y-65029380D01*
X119861000Y-65172238D01*
X119765761Y-65267476D01*
X119670523Y-65315095D01*
X120622904Y-65124619D02*
X120670523Y-65077000D01*
X120765761Y-65029380D01*
X121003857Y-65029380D01*
X121099095Y-65077000D01*
X121146714Y-65124619D01*
X121194333Y-65219857D01*
X121194333Y-65315095D01*
X121146714Y-65457952D01*
X120575285Y-66029380D01*
X121194333Y-66029380D01*
X121622904Y-66029380D02*
X121622904Y-65029380D01*
X122194333Y-66029380D02*
X121765761Y-65457952D01*
X122194333Y-65029380D02*
X121622904Y-65600809D01*
X122622904Y-65648428D02*
X123384809Y-65648428D01*
X123765761Y-65029380D02*
X124384809Y-65029380D01*
X124051476Y-65410333D01*
X124194333Y-65410333D01*
X124289571Y-65457952D01*
X124337190Y-65505571D01*
X124384809Y-65600809D01*
X124384809Y-65838904D01*
X124337190Y-65934142D01*
X124289571Y-65981761D01*
X124194333Y-66029380D01*
X123908619Y-66029380D01*
X123813380Y-65981761D01*
X123765761Y-65934142D01*
X124813380Y-65934142D02*
X124861000Y-65981761D01*
X124813380Y-66029380D01*
X124765761Y-65981761D01*
X124813380Y-65934142D01*
X124813380Y-66029380D01*
X125194333Y-65029380D02*
X125813380Y-65029380D01*
X125480047Y-65410333D01*
X125622904Y-65410333D01*
X125718142Y-65457952D01*
X125765761Y-65505571D01*
X125813380Y-65600809D01*
X125813380Y-65838904D01*
X125765761Y-65934142D01*
X125718142Y-65981761D01*
X125622904Y-66029380D01*
X125337190Y-66029380D01*
X125241952Y-65981761D01*
X125194333Y-65934142D01*
D14*
X120587190Y-63057952D02*
X120991952Y-63057952D01*
X121039571Y-63034142D01*
X121063380Y-63010333D01*
X121087190Y-62962714D01*
X121087190Y-62867476D01*
X121063380Y-62819857D01*
X121039571Y-62796047D01*
X120991952Y-62772238D01*
X120587190Y-62772238D01*
X121087190Y-62272238D02*
X121087190Y-62557952D01*
X121087190Y-62415095D02*
X120587190Y-62415095D01*
X120658619Y-62462714D01*
X120706238Y-62510333D01*
X120730047Y-62557952D01*
%TO.C,TP10*%
D11*
X121126666Y-52030380D02*
X121698095Y-52030380D01*
X121412380Y-53030380D02*
X121412380Y-52030380D01*
X122412380Y-52982761D02*
X122317142Y-53030380D01*
X122126666Y-53030380D01*
X122031428Y-52982761D01*
X121983809Y-52887523D01*
X121983809Y-52506571D01*
X122031428Y-52411333D01*
X122126666Y-52363714D01*
X122317142Y-52363714D01*
X122412380Y-52411333D01*
X122460000Y-52506571D01*
X122460000Y-52601809D01*
X121983809Y-52697047D01*
X122840952Y-52982761D02*
X122936190Y-53030380D01*
X123126666Y-53030380D01*
X123221904Y-52982761D01*
X123269523Y-52887523D01*
X123269523Y-52839904D01*
X123221904Y-52744666D01*
X123126666Y-52697047D01*
X122983809Y-52697047D01*
X122888571Y-52649428D01*
X122840952Y-52554190D01*
X122840952Y-52506571D01*
X122888571Y-52411333D01*
X122983809Y-52363714D01*
X123126666Y-52363714D01*
X123221904Y-52411333D01*
X123555238Y-52363714D02*
X123936190Y-52363714D01*
X123698095Y-52030380D02*
X123698095Y-52887523D01*
X123745714Y-52982761D01*
X123840952Y-53030380D01*
X123936190Y-53030380D01*
X124269523Y-53030380D02*
X124269523Y-52030380D01*
X124650476Y-52030380D01*
X124745714Y-52078000D01*
X124793333Y-52125619D01*
X124840952Y-52220857D01*
X124840952Y-52363714D01*
X124793333Y-52458952D01*
X124745714Y-52506571D01*
X124650476Y-52554190D01*
X124269523Y-52554190D01*
X125412380Y-53030380D02*
X125317142Y-52982761D01*
X125269523Y-52935142D01*
X125221904Y-52839904D01*
X125221904Y-52554190D01*
X125269523Y-52458952D01*
X125317142Y-52411333D01*
X125412380Y-52363714D01*
X125555238Y-52363714D01*
X125650476Y-52411333D01*
X125698095Y-52458952D01*
X125745714Y-52554190D01*
X125745714Y-52839904D01*
X125698095Y-52935142D01*
X125650476Y-52982761D01*
X125555238Y-53030380D01*
X125412380Y-53030380D01*
X126174285Y-53030380D02*
X126174285Y-52363714D01*
X126174285Y-52030380D02*
X126126666Y-52078000D01*
X126174285Y-52125619D01*
X126221904Y-52078000D01*
X126174285Y-52030380D01*
X126174285Y-52125619D01*
X126650476Y-52363714D02*
X126650476Y-53030380D01*
X126650476Y-52458952D02*
X126698095Y-52411333D01*
X126793333Y-52363714D01*
X126936190Y-52363714D01*
X127031428Y-52411333D01*
X127079047Y-52506571D01*
X127079047Y-53030380D01*
X127412380Y-52363714D02*
X127793333Y-52363714D01*
X127555238Y-52030380D02*
X127555238Y-52887523D01*
X127602857Y-52982761D01*
X127698095Y-53030380D01*
X127793333Y-53030380D01*
%TO.C,TP9*%
X121126666Y-59650380D02*
X121698095Y-59650380D01*
X121412380Y-60650380D02*
X121412380Y-59650380D01*
X122412380Y-60602761D02*
X122317142Y-60650380D01*
X122126666Y-60650380D01*
X122031428Y-60602761D01*
X121983809Y-60507523D01*
X121983809Y-60126571D01*
X122031428Y-60031333D01*
X122126666Y-59983714D01*
X122317142Y-59983714D01*
X122412380Y-60031333D01*
X122460000Y-60126571D01*
X122460000Y-60221809D01*
X121983809Y-60317047D01*
X122840952Y-60602761D02*
X122936190Y-60650380D01*
X123126666Y-60650380D01*
X123221904Y-60602761D01*
X123269523Y-60507523D01*
X123269523Y-60459904D01*
X123221904Y-60364666D01*
X123126666Y-60317047D01*
X122983809Y-60317047D01*
X122888571Y-60269428D01*
X122840952Y-60174190D01*
X122840952Y-60126571D01*
X122888571Y-60031333D01*
X122983809Y-59983714D01*
X123126666Y-59983714D01*
X123221904Y-60031333D01*
X123555238Y-59983714D02*
X123936190Y-59983714D01*
X123698095Y-59650380D02*
X123698095Y-60507523D01*
X123745714Y-60602761D01*
X123840952Y-60650380D01*
X123936190Y-60650380D01*
X124269523Y-60650380D02*
X124269523Y-59650380D01*
X124650476Y-59650380D01*
X124745714Y-59698000D01*
X124793333Y-59745619D01*
X124840952Y-59840857D01*
X124840952Y-59983714D01*
X124793333Y-60078952D01*
X124745714Y-60126571D01*
X124650476Y-60174190D01*
X124269523Y-60174190D01*
X125412380Y-60650380D02*
X125317142Y-60602761D01*
X125269523Y-60555142D01*
X125221904Y-60459904D01*
X125221904Y-60174190D01*
X125269523Y-60078952D01*
X125317142Y-60031333D01*
X125412380Y-59983714D01*
X125555238Y-59983714D01*
X125650476Y-60031333D01*
X125698095Y-60078952D01*
X125745714Y-60174190D01*
X125745714Y-60459904D01*
X125698095Y-60555142D01*
X125650476Y-60602761D01*
X125555238Y-60650380D01*
X125412380Y-60650380D01*
X126174285Y-60650380D02*
X126174285Y-59983714D01*
X126174285Y-59650380D02*
X126126666Y-59698000D01*
X126174285Y-59745619D01*
X126221904Y-59698000D01*
X126174285Y-59650380D01*
X126174285Y-59745619D01*
X126650476Y-59983714D02*
X126650476Y-60650380D01*
X126650476Y-60078952D02*
X126698095Y-60031333D01*
X126793333Y-59983714D01*
X126936190Y-59983714D01*
X127031428Y-60031333D01*
X127079047Y-60126571D01*
X127079047Y-60650380D01*
X127412380Y-59983714D02*
X127793333Y-59983714D01*
X127555238Y-59650380D02*
X127555238Y-60507523D01*
X127602857Y-60602761D01*
X127698095Y-60650380D01*
X127793333Y-60650380D01*
%TO.C,TP8*%
X121126666Y-57110380D02*
X121698095Y-57110380D01*
X121412380Y-58110380D02*
X121412380Y-57110380D01*
X122412380Y-58062761D02*
X122317142Y-58110380D01*
X122126666Y-58110380D01*
X122031428Y-58062761D01*
X121983809Y-57967523D01*
X121983809Y-57586571D01*
X122031428Y-57491333D01*
X122126666Y-57443714D01*
X122317142Y-57443714D01*
X122412380Y-57491333D01*
X122460000Y-57586571D01*
X122460000Y-57681809D01*
X121983809Y-57777047D01*
X122840952Y-58062761D02*
X122936190Y-58110380D01*
X123126666Y-58110380D01*
X123221904Y-58062761D01*
X123269523Y-57967523D01*
X123269523Y-57919904D01*
X123221904Y-57824666D01*
X123126666Y-57777047D01*
X122983809Y-57777047D01*
X122888571Y-57729428D01*
X122840952Y-57634190D01*
X122840952Y-57586571D01*
X122888571Y-57491333D01*
X122983809Y-57443714D01*
X123126666Y-57443714D01*
X123221904Y-57491333D01*
X123555238Y-57443714D02*
X123936190Y-57443714D01*
X123698095Y-57110380D02*
X123698095Y-57967523D01*
X123745714Y-58062761D01*
X123840952Y-58110380D01*
X123936190Y-58110380D01*
X124269523Y-58110380D02*
X124269523Y-57110380D01*
X124650476Y-57110380D01*
X124745714Y-57158000D01*
X124793333Y-57205619D01*
X124840952Y-57300857D01*
X124840952Y-57443714D01*
X124793333Y-57538952D01*
X124745714Y-57586571D01*
X124650476Y-57634190D01*
X124269523Y-57634190D01*
X125412380Y-58110380D02*
X125317142Y-58062761D01*
X125269523Y-58015142D01*
X125221904Y-57919904D01*
X125221904Y-57634190D01*
X125269523Y-57538952D01*
X125317142Y-57491333D01*
X125412380Y-57443714D01*
X125555238Y-57443714D01*
X125650476Y-57491333D01*
X125698095Y-57538952D01*
X125745714Y-57634190D01*
X125745714Y-57919904D01*
X125698095Y-58015142D01*
X125650476Y-58062761D01*
X125555238Y-58110380D01*
X125412380Y-58110380D01*
X126174285Y-58110380D02*
X126174285Y-57443714D01*
X126174285Y-57110380D02*
X126126666Y-57158000D01*
X126174285Y-57205619D01*
X126221904Y-57158000D01*
X126174285Y-57110380D01*
X126174285Y-57205619D01*
X126650476Y-57443714D02*
X126650476Y-58110380D01*
X126650476Y-57538952D02*
X126698095Y-57491333D01*
X126793333Y-57443714D01*
X126936190Y-57443714D01*
X127031428Y-57491333D01*
X127079047Y-57586571D01*
X127079047Y-58110380D01*
X127412380Y-57443714D02*
X127793333Y-57443714D01*
X127555238Y-57110380D02*
X127555238Y-57967523D01*
X127602857Y-58062761D01*
X127698095Y-58110380D01*
X127793333Y-58110380D01*
%TO.C,TP7*%
X121126666Y-54570380D02*
X121698095Y-54570380D01*
X121412380Y-55570380D02*
X121412380Y-54570380D01*
X122412380Y-55522761D02*
X122317142Y-55570380D01*
X122126666Y-55570380D01*
X122031428Y-55522761D01*
X121983809Y-55427523D01*
X121983809Y-55046571D01*
X122031428Y-54951333D01*
X122126666Y-54903714D01*
X122317142Y-54903714D01*
X122412380Y-54951333D01*
X122460000Y-55046571D01*
X122460000Y-55141809D01*
X121983809Y-55237047D01*
X122840952Y-55522761D02*
X122936190Y-55570380D01*
X123126666Y-55570380D01*
X123221904Y-55522761D01*
X123269523Y-55427523D01*
X123269523Y-55379904D01*
X123221904Y-55284666D01*
X123126666Y-55237047D01*
X122983809Y-55237047D01*
X122888571Y-55189428D01*
X122840952Y-55094190D01*
X122840952Y-55046571D01*
X122888571Y-54951333D01*
X122983809Y-54903714D01*
X123126666Y-54903714D01*
X123221904Y-54951333D01*
X123555238Y-54903714D02*
X123936190Y-54903714D01*
X123698095Y-54570380D02*
X123698095Y-55427523D01*
X123745714Y-55522761D01*
X123840952Y-55570380D01*
X123936190Y-55570380D01*
X124269523Y-55570380D02*
X124269523Y-54570380D01*
X124650476Y-54570380D01*
X124745714Y-54618000D01*
X124793333Y-54665619D01*
X124840952Y-54760857D01*
X124840952Y-54903714D01*
X124793333Y-54998952D01*
X124745714Y-55046571D01*
X124650476Y-55094190D01*
X124269523Y-55094190D01*
X125412380Y-55570380D02*
X125317142Y-55522761D01*
X125269523Y-55475142D01*
X125221904Y-55379904D01*
X125221904Y-55094190D01*
X125269523Y-54998952D01*
X125317142Y-54951333D01*
X125412380Y-54903714D01*
X125555238Y-54903714D01*
X125650476Y-54951333D01*
X125698095Y-54998952D01*
X125745714Y-55094190D01*
X125745714Y-55379904D01*
X125698095Y-55475142D01*
X125650476Y-55522761D01*
X125555238Y-55570380D01*
X125412380Y-55570380D01*
X126174285Y-55570380D02*
X126174285Y-54903714D01*
X126174285Y-54570380D02*
X126126666Y-54618000D01*
X126174285Y-54665619D01*
X126221904Y-54618000D01*
X126174285Y-54570380D01*
X126174285Y-54665619D01*
X126650476Y-54903714D02*
X126650476Y-55570380D01*
X126650476Y-54998952D02*
X126698095Y-54951333D01*
X126793333Y-54903714D01*
X126936190Y-54903714D01*
X127031428Y-54951333D01*
X127079047Y-55046571D01*
X127079047Y-55570380D01*
X127412380Y-54903714D02*
X127793333Y-54903714D01*
X127555238Y-54570380D02*
X127555238Y-55427523D01*
X127602857Y-55522761D01*
X127698095Y-55570380D01*
X127793333Y-55570380D01*
%TO.C,TP6*%
X121126666Y-62190380D02*
X121698095Y-62190380D01*
X121412380Y-63190380D02*
X121412380Y-62190380D01*
X122412380Y-63142761D02*
X122317142Y-63190380D01*
X122126666Y-63190380D01*
X122031428Y-63142761D01*
X121983809Y-63047523D01*
X121983809Y-62666571D01*
X122031428Y-62571333D01*
X122126666Y-62523714D01*
X122317142Y-62523714D01*
X122412380Y-62571333D01*
X122460000Y-62666571D01*
X122460000Y-62761809D01*
X121983809Y-62857047D01*
X122840952Y-63142761D02*
X122936190Y-63190380D01*
X123126666Y-63190380D01*
X123221904Y-63142761D01*
X123269523Y-63047523D01*
X123269523Y-62999904D01*
X123221904Y-62904666D01*
X123126666Y-62857047D01*
X122983809Y-62857047D01*
X122888571Y-62809428D01*
X122840952Y-62714190D01*
X122840952Y-62666571D01*
X122888571Y-62571333D01*
X122983809Y-62523714D01*
X123126666Y-62523714D01*
X123221904Y-62571333D01*
X123555238Y-62523714D02*
X123936190Y-62523714D01*
X123698095Y-62190380D02*
X123698095Y-63047523D01*
X123745714Y-63142761D01*
X123840952Y-63190380D01*
X123936190Y-63190380D01*
X124269523Y-63190380D02*
X124269523Y-62190380D01*
X124650476Y-62190380D01*
X124745714Y-62238000D01*
X124793333Y-62285619D01*
X124840952Y-62380857D01*
X124840952Y-62523714D01*
X124793333Y-62618952D01*
X124745714Y-62666571D01*
X124650476Y-62714190D01*
X124269523Y-62714190D01*
X125412380Y-63190380D02*
X125317142Y-63142761D01*
X125269523Y-63095142D01*
X125221904Y-62999904D01*
X125221904Y-62714190D01*
X125269523Y-62618952D01*
X125317142Y-62571333D01*
X125412380Y-62523714D01*
X125555238Y-62523714D01*
X125650476Y-62571333D01*
X125698095Y-62618952D01*
X125745714Y-62714190D01*
X125745714Y-62999904D01*
X125698095Y-63095142D01*
X125650476Y-63142761D01*
X125555238Y-63190380D01*
X125412380Y-63190380D01*
X126174285Y-63190380D02*
X126174285Y-62523714D01*
X126174285Y-62190380D02*
X126126666Y-62238000D01*
X126174285Y-62285619D01*
X126221904Y-62238000D01*
X126174285Y-62190380D01*
X126174285Y-62285619D01*
X126650476Y-62523714D02*
X126650476Y-63190380D01*
X126650476Y-62618952D02*
X126698095Y-62571333D01*
X126793333Y-62523714D01*
X126936190Y-62523714D01*
X127031428Y-62571333D01*
X127079047Y-62666571D01*
X127079047Y-63190380D01*
X127412380Y-62523714D02*
X127793333Y-62523714D01*
X127555238Y-62190380D02*
X127555238Y-63047523D01*
X127602857Y-63142761D01*
X127698095Y-63190380D01*
X127793333Y-63190380D01*
%TO.C,TP5*%
X105886666Y-57110380D02*
X106458095Y-57110380D01*
X106172380Y-58110380D02*
X106172380Y-57110380D01*
X107172380Y-58062761D02*
X107077142Y-58110380D01*
X106886666Y-58110380D01*
X106791428Y-58062761D01*
X106743809Y-57967523D01*
X106743809Y-57586571D01*
X106791428Y-57491333D01*
X106886666Y-57443714D01*
X107077142Y-57443714D01*
X107172380Y-57491333D01*
X107220000Y-57586571D01*
X107220000Y-57681809D01*
X106743809Y-57777047D01*
X107600952Y-58062761D02*
X107696190Y-58110380D01*
X107886666Y-58110380D01*
X107981904Y-58062761D01*
X108029523Y-57967523D01*
X108029523Y-57919904D01*
X107981904Y-57824666D01*
X107886666Y-57777047D01*
X107743809Y-57777047D01*
X107648571Y-57729428D01*
X107600952Y-57634190D01*
X107600952Y-57586571D01*
X107648571Y-57491333D01*
X107743809Y-57443714D01*
X107886666Y-57443714D01*
X107981904Y-57491333D01*
X108315238Y-57443714D02*
X108696190Y-57443714D01*
X108458095Y-57110380D02*
X108458095Y-57967523D01*
X108505714Y-58062761D01*
X108600952Y-58110380D01*
X108696190Y-58110380D01*
X109029523Y-58110380D02*
X109029523Y-57110380D01*
X109410476Y-57110380D01*
X109505714Y-57158000D01*
X109553333Y-57205619D01*
X109600952Y-57300857D01*
X109600952Y-57443714D01*
X109553333Y-57538952D01*
X109505714Y-57586571D01*
X109410476Y-57634190D01*
X109029523Y-57634190D01*
X110172380Y-58110380D02*
X110077142Y-58062761D01*
X110029523Y-58015142D01*
X109981904Y-57919904D01*
X109981904Y-57634190D01*
X110029523Y-57538952D01*
X110077142Y-57491333D01*
X110172380Y-57443714D01*
X110315238Y-57443714D01*
X110410476Y-57491333D01*
X110458095Y-57538952D01*
X110505714Y-57634190D01*
X110505714Y-57919904D01*
X110458095Y-58015142D01*
X110410476Y-58062761D01*
X110315238Y-58110380D01*
X110172380Y-58110380D01*
X110934285Y-58110380D02*
X110934285Y-57443714D01*
X110934285Y-57110380D02*
X110886666Y-57158000D01*
X110934285Y-57205619D01*
X110981904Y-57158000D01*
X110934285Y-57110380D01*
X110934285Y-57205619D01*
X111410476Y-57443714D02*
X111410476Y-58110380D01*
X111410476Y-57538952D02*
X111458095Y-57491333D01*
X111553333Y-57443714D01*
X111696190Y-57443714D01*
X111791428Y-57491333D01*
X111839047Y-57586571D01*
X111839047Y-58110380D01*
X112172380Y-57443714D02*
X112553333Y-57443714D01*
X112315238Y-57110380D02*
X112315238Y-57967523D01*
X112362857Y-58062761D01*
X112458095Y-58110380D01*
X112553333Y-58110380D01*
%TO.C,TP4*%
X105886666Y-62190380D02*
X106458095Y-62190380D01*
X106172380Y-63190380D02*
X106172380Y-62190380D01*
X107172380Y-63142761D02*
X107077142Y-63190380D01*
X106886666Y-63190380D01*
X106791428Y-63142761D01*
X106743809Y-63047523D01*
X106743809Y-62666571D01*
X106791428Y-62571333D01*
X106886666Y-62523714D01*
X107077142Y-62523714D01*
X107172380Y-62571333D01*
X107220000Y-62666571D01*
X107220000Y-62761809D01*
X106743809Y-62857047D01*
X107600952Y-63142761D02*
X107696190Y-63190380D01*
X107886666Y-63190380D01*
X107981904Y-63142761D01*
X108029523Y-63047523D01*
X108029523Y-62999904D01*
X107981904Y-62904666D01*
X107886666Y-62857047D01*
X107743809Y-62857047D01*
X107648571Y-62809428D01*
X107600952Y-62714190D01*
X107600952Y-62666571D01*
X107648571Y-62571333D01*
X107743809Y-62523714D01*
X107886666Y-62523714D01*
X107981904Y-62571333D01*
X108315238Y-62523714D02*
X108696190Y-62523714D01*
X108458095Y-62190380D02*
X108458095Y-63047523D01*
X108505714Y-63142761D01*
X108600952Y-63190380D01*
X108696190Y-63190380D01*
X109029523Y-63190380D02*
X109029523Y-62190380D01*
X109410476Y-62190380D01*
X109505714Y-62238000D01*
X109553333Y-62285619D01*
X109600952Y-62380857D01*
X109600952Y-62523714D01*
X109553333Y-62618952D01*
X109505714Y-62666571D01*
X109410476Y-62714190D01*
X109029523Y-62714190D01*
X110172380Y-63190380D02*
X110077142Y-63142761D01*
X110029523Y-63095142D01*
X109981904Y-62999904D01*
X109981904Y-62714190D01*
X110029523Y-62618952D01*
X110077142Y-62571333D01*
X110172380Y-62523714D01*
X110315238Y-62523714D01*
X110410476Y-62571333D01*
X110458095Y-62618952D01*
X110505714Y-62714190D01*
X110505714Y-62999904D01*
X110458095Y-63095142D01*
X110410476Y-63142761D01*
X110315238Y-63190380D01*
X110172380Y-63190380D01*
X110934285Y-63190380D02*
X110934285Y-62523714D01*
X110934285Y-62190380D02*
X110886666Y-62238000D01*
X110934285Y-62285619D01*
X110981904Y-62238000D01*
X110934285Y-62190380D01*
X110934285Y-62285619D01*
X111410476Y-62523714D02*
X111410476Y-63190380D01*
X111410476Y-62618952D02*
X111458095Y-62571333D01*
X111553333Y-62523714D01*
X111696190Y-62523714D01*
X111791428Y-62571333D01*
X111839047Y-62666571D01*
X111839047Y-63190380D01*
X112172380Y-62523714D02*
X112553333Y-62523714D01*
X112315238Y-62190380D02*
X112315238Y-63047523D01*
X112362857Y-63142761D01*
X112458095Y-63190380D01*
X112553333Y-63190380D01*
%TO.C,TP3*%
X105886666Y-59650380D02*
X106458095Y-59650380D01*
X106172380Y-60650380D02*
X106172380Y-59650380D01*
X107172380Y-60602761D02*
X107077142Y-60650380D01*
X106886666Y-60650380D01*
X106791428Y-60602761D01*
X106743809Y-60507523D01*
X106743809Y-60126571D01*
X106791428Y-60031333D01*
X106886666Y-59983714D01*
X107077142Y-59983714D01*
X107172380Y-60031333D01*
X107220000Y-60126571D01*
X107220000Y-60221809D01*
X106743809Y-60317047D01*
X107600952Y-60602761D02*
X107696190Y-60650380D01*
X107886666Y-60650380D01*
X107981904Y-60602761D01*
X108029523Y-60507523D01*
X108029523Y-60459904D01*
X107981904Y-60364666D01*
X107886666Y-60317047D01*
X107743809Y-60317047D01*
X107648571Y-60269428D01*
X107600952Y-60174190D01*
X107600952Y-60126571D01*
X107648571Y-60031333D01*
X107743809Y-59983714D01*
X107886666Y-59983714D01*
X107981904Y-60031333D01*
X108315238Y-59983714D02*
X108696190Y-59983714D01*
X108458095Y-59650380D02*
X108458095Y-60507523D01*
X108505714Y-60602761D01*
X108600952Y-60650380D01*
X108696190Y-60650380D01*
X109029523Y-60650380D02*
X109029523Y-59650380D01*
X109410476Y-59650380D01*
X109505714Y-59698000D01*
X109553333Y-59745619D01*
X109600952Y-59840857D01*
X109600952Y-59983714D01*
X109553333Y-60078952D01*
X109505714Y-60126571D01*
X109410476Y-60174190D01*
X109029523Y-60174190D01*
X110172380Y-60650380D02*
X110077142Y-60602761D01*
X110029523Y-60555142D01*
X109981904Y-60459904D01*
X109981904Y-60174190D01*
X110029523Y-60078952D01*
X110077142Y-60031333D01*
X110172380Y-59983714D01*
X110315238Y-59983714D01*
X110410476Y-60031333D01*
X110458095Y-60078952D01*
X110505714Y-60174190D01*
X110505714Y-60459904D01*
X110458095Y-60555142D01*
X110410476Y-60602761D01*
X110315238Y-60650380D01*
X110172380Y-60650380D01*
X110934285Y-60650380D02*
X110934285Y-59983714D01*
X110934285Y-59650380D02*
X110886666Y-59698000D01*
X110934285Y-59745619D01*
X110981904Y-59698000D01*
X110934285Y-59650380D01*
X110934285Y-59745619D01*
X111410476Y-59983714D02*
X111410476Y-60650380D01*
X111410476Y-60078952D02*
X111458095Y-60031333D01*
X111553333Y-59983714D01*
X111696190Y-59983714D01*
X111791428Y-60031333D01*
X111839047Y-60126571D01*
X111839047Y-60650380D01*
X112172380Y-59983714D02*
X112553333Y-59983714D01*
X112315238Y-59650380D02*
X112315238Y-60507523D01*
X112362857Y-60602761D01*
X112458095Y-60650380D01*
X112553333Y-60650380D01*
%TO.C,TP2*%
X105886666Y-54570380D02*
X106458095Y-54570380D01*
X106172380Y-55570380D02*
X106172380Y-54570380D01*
X107172380Y-55522761D02*
X107077142Y-55570380D01*
X106886666Y-55570380D01*
X106791428Y-55522761D01*
X106743809Y-55427523D01*
X106743809Y-55046571D01*
X106791428Y-54951333D01*
X106886666Y-54903714D01*
X107077142Y-54903714D01*
X107172380Y-54951333D01*
X107220000Y-55046571D01*
X107220000Y-55141809D01*
X106743809Y-55237047D01*
X107600952Y-55522761D02*
X107696190Y-55570380D01*
X107886666Y-55570380D01*
X107981904Y-55522761D01*
X108029523Y-55427523D01*
X108029523Y-55379904D01*
X107981904Y-55284666D01*
X107886666Y-55237047D01*
X107743809Y-55237047D01*
X107648571Y-55189428D01*
X107600952Y-55094190D01*
X107600952Y-55046571D01*
X107648571Y-54951333D01*
X107743809Y-54903714D01*
X107886666Y-54903714D01*
X107981904Y-54951333D01*
X108315238Y-54903714D02*
X108696190Y-54903714D01*
X108458095Y-54570380D02*
X108458095Y-55427523D01*
X108505714Y-55522761D01*
X108600952Y-55570380D01*
X108696190Y-55570380D01*
X109029523Y-55570380D02*
X109029523Y-54570380D01*
X109410476Y-54570380D01*
X109505714Y-54618000D01*
X109553333Y-54665619D01*
X109600952Y-54760857D01*
X109600952Y-54903714D01*
X109553333Y-54998952D01*
X109505714Y-55046571D01*
X109410476Y-55094190D01*
X109029523Y-55094190D01*
X110172380Y-55570380D02*
X110077142Y-55522761D01*
X110029523Y-55475142D01*
X109981904Y-55379904D01*
X109981904Y-55094190D01*
X110029523Y-54998952D01*
X110077142Y-54951333D01*
X110172380Y-54903714D01*
X110315238Y-54903714D01*
X110410476Y-54951333D01*
X110458095Y-54998952D01*
X110505714Y-55094190D01*
X110505714Y-55379904D01*
X110458095Y-55475142D01*
X110410476Y-55522761D01*
X110315238Y-55570380D01*
X110172380Y-55570380D01*
X110934285Y-55570380D02*
X110934285Y-54903714D01*
X110934285Y-54570380D02*
X110886666Y-54618000D01*
X110934285Y-54665619D01*
X110981904Y-54618000D01*
X110934285Y-54570380D01*
X110934285Y-54665619D01*
X111410476Y-54903714D02*
X111410476Y-55570380D01*
X111410476Y-54998952D02*
X111458095Y-54951333D01*
X111553333Y-54903714D01*
X111696190Y-54903714D01*
X111791428Y-54951333D01*
X111839047Y-55046571D01*
X111839047Y-55570380D01*
X112172380Y-54903714D02*
X112553333Y-54903714D01*
X112315238Y-54570380D02*
X112315238Y-55427523D01*
X112362857Y-55522761D01*
X112458095Y-55570380D01*
X112553333Y-55570380D01*
%TO.C,TP1*%
X105886666Y-52030380D02*
X106458095Y-52030380D01*
X106172380Y-53030380D02*
X106172380Y-52030380D01*
X107172380Y-52982761D02*
X107077142Y-53030380D01*
X106886666Y-53030380D01*
X106791428Y-52982761D01*
X106743809Y-52887523D01*
X106743809Y-52506571D01*
X106791428Y-52411333D01*
X106886666Y-52363714D01*
X107077142Y-52363714D01*
X107172380Y-52411333D01*
X107220000Y-52506571D01*
X107220000Y-52601809D01*
X106743809Y-52697047D01*
X107600952Y-52982761D02*
X107696190Y-53030380D01*
X107886666Y-53030380D01*
X107981904Y-52982761D01*
X108029523Y-52887523D01*
X108029523Y-52839904D01*
X107981904Y-52744666D01*
X107886666Y-52697047D01*
X107743809Y-52697047D01*
X107648571Y-52649428D01*
X107600952Y-52554190D01*
X107600952Y-52506571D01*
X107648571Y-52411333D01*
X107743809Y-52363714D01*
X107886666Y-52363714D01*
X107981904Y-52411333D01*
X108315238Y-52363714D02*
X108696190Y-52363714D01*
X108458095Y-52030380D02*
X108458095Y-52887523D01*
X108505714Y-52982761D01*
X108600952Y-53030380D01*
X108696190Y-53030380D01*
X109029523Y-53030380D02*
X109029523Y-52030380D01*
X109410476Y-52030380D01*
X109505714Y-52078000D01*
X109553333Y-52125619D01*
X109600952Y-52220857D01*
X109600952Y-52363714D01*
X109553333Y-52458952D01*
X109505714Y-52506571D01*
X109410476Y-52554190D01*
X109029523Y-52554190D01*
X110172380Y-53030380D02*
X110077142Y-52982761D01*
X110029523Y-52935142D01*
X109981904Y-52839904D01*
X109981904Y-52554190D01*
X110029523Y-52458952D01*
X110077142Y-52411333D01*
X110172380Y-52363714D01*
X110315238Y-52363714D01*
X110410476Y-52411333D01*
X110458095Y-52458952D01*
X110505714Y-52554190D01*
X110505714Y-52839904D01*
X110458095Y-52935142D01*
X110410476Y-52982761D01*
X110315238Y-53030380D01*
X110172380Y-53030380D01*
X110934285Y-53030380D02*
X110934285Y-52363714D01*
X110934285Y-52030380D02*
X110886666Y-52078000D01*
X110934285Y-52125619D01*
X110981904Y-52078000D01*
X110934285Y-52030380D01*
X110934285Y-52125619D01*
X111410476Y-52363714D02*
X111410476Y-53030380D01*
X111410476Y-52458952D02*
X111458095Y-52411333D01*
X111553333Y-52363714D01*
X111696190Y-52363714D01*
X111791428Y-52411333D01*
X111839047Y-52506571D01*
X111839047Y-53030380D01*
X112172380Y-52363714D02*
X112553333Y-52363714D01*
X112315238Y-52030380D02*
X112315238Y-52887523D01*
X112362857Y-52982761D01*
X112458095Y-53030380D01*
X112553333Y-53030380D01*
%TO.C,R5*%
X120572785Y-52892380D02*
X121191833Y-52892380D01*
X120858500Y-53273333D01*
X121001357Y-53273333D01*
X121096595Y-53320952D01*
X121144214Y-53368571D01*
X121191833Y-53463809D01*
X121191833Y-53701904D01*
X121144214Y-53797142D01*
X121096595Y-53844761D01*
X121001357Y-53892380D01*
X120715642Y-53892380D01*
X120620404Y-53844761D01*
X120572785Y-53797142D01*
X121525166Y-52892380D02*
X122144214Y-52892380D01*
X121810880Y-53273333D01*
X121953738Y-53273333D01*
X122048976Y-53320952D01*
X122096595Y-53368571D01*
X122144214Y-53463809D01*
X122144214Y-53701904D01*
X122096595Y-53797142D01*
X122048976Y-53844761D01*
X121953738Y-53892380D01*
X121668023Y-53892380D01*
X121572785Y-53844761D01*
X121525166Y-53797142D01*
X122763261Y-52892380D02*
X122858500Y-52892380D01*
X122953738Y-52940000D01*
X123001357Y-52987619D01*
X123048976Y-53082857D01*
X123096595Y-53273333D01*
X123096595Y-53511428D01*
X123048976Y-53701904D01*
X123001357Y-53797142D01*
X122953738Y-53844761D01*
X122858500Y-53892380D01*
X122763261Y-53892380D01*
X122668023Y-53844761D01*
X122620404Y-53797142D01*
X122572785Y-53701904D01*
X122525166Y-53511428D01*
X122525166Y-53273333D01*
X122572785Y-53082857D01*
X122620404Y-52987619D01*
X122668023Y-52940000D01*
X122763261Y-52892380D01*
D15*
X121815166Y-54727619D02*
X121728500Y-54603809D01*
X121666595Y-54727619D02*
X121666595Y-54467619D01*
X121765642Y-54467619D01*
X121790404Y-54480000D01*
X121802785Y-54492380D01*
X121815166Y-54517142D01*
X121815166Y-54554285D01*
X121802785Y-54579047D01*
X121790404Y-54591428D01*
X121765642Y-54603809D01*
X121666595Y-54603809D01*
X122050404Y-54467619D02*
X121926595Y-54467619D01*
X121914214Y-54591428D01*
X121926595Y-54579047D01*
X121951357Y-54566666D01*
X122013261Y-54566666D01*
X122038023Y-54579047D01*
X122050404Y-54591428D01*
X122062785Y-54616190D01*
X122062785Y-54678095D01*
X122050404Y-54702857D01*
X122038023Y-54715238D01*
X122013261Y-54727619D01*
X121951357Y-54727619D01*
X121926595Y-54715238D01*
X121914214Y-54702857D01*
%TO.C,R4*%
D11*
X112620380Y-66319666D02*
X112620380Y-66891095D01*
X112620380Y-66605380D02*
X111620380Y-66605380D01*
X111763238Y-66700619D01*
X111858476Y-66795857D01*
X111906095Y-66891095D01*
X111620380Y-65700619D02*
X111620380Y-65605380D01*
X111668000Y-65510142D01*
X111715619Y-65462523D01*
X111810857Y-65414904D01*
X112001333Y-65367285D01*
X112239428Y-65367285D01*
X112429904Y-65414904D01*
X112525142Y-65462523D01*
X112572761Y-65510142D01*
X112620380Y-65605380D01*
X112620380Y-65700619D01*
X112572761Y-65795857D01*
X112525142Y-65843476D01*
X112429904Y-65891095D01*
X112239428Y-65938714D01*
X112001333Y-65938714D01*
X111810857Y-65891095D01*
X111715619Y-65843476D01*
X111668000Y-65795857D01*
X111620380Y-65700619D01*
X111620380Y-64748238D02*
X111620380Y-64653000D01*
X111668000Y-64557761D01*
X111715619Y-64510142D01*
X111810857Y-64462523D01*
X112001333Y-64414904D01*
X112239428Y-64414904D01*
X112429904Y-64462523D01*
X112525142Y-64510142D01*
X112572761Y-64557761D01*
X112620380Y-64653000D01*
X112620380Y-64748238D01*
X112572761Y-64843476D01*
X112525142Y-64891095D01*
X112429904Y-64938714D01*
X112239428Y-64986333D01*
X112001333Y-64986333D01*
X111810857Y-64938714D01*
X111715619Y-64891095D01*
X111668000Y-64843476D01*
X111620380Y-64748238D01*
X112620380Y-63986333D02*
X111620380Y-63986333D01*
X112620380Y-63414904D02*
X112048952Y-63843476D01*
X111620380Y-63414904D02*
X112191809Y-63986333D01*
D15*
X111115619Y-65196333D02*
X110991809Y-65283000D01*
X111115619Y-65344904D02*
X110855619Y-65344904D01*
X110855619Y-65245857D01*
X110868000Y-65221095D01*
X110880380Y-65208714D01*
X110905142Y-65196333D01*
X110942285Y-65196333D01*
X110967047Y-65208714D01*
X110979428Y-65221095D01*
X110991809Y-65245857D01*
X110991809Y-65344904D01*
X110942285Y-64973476D02*
X111115619Y-64973476D01*
X110843238Y-65035380D02*
X111028952Y-65097285D01*
X111028952Y-64936333D01*
%TO.C,R3*%
D11*
X111293714Y-55343380D02*
X110722285Y-55343380D01*
X111008000Y-55343380D02*
X111008000Y-54343380D01*
X110912761Y-54486238D01*
X110817523Y-54581476D01*
X110722285Y-54629095D01*
X111722285Y-55343380D02*
X111722285Y-54343380D01*
X112293714Y-55343380D02*
X111865142Y-54771952D01*
X112293714Y-54343380D02*
X111722285Y-54914809D01*
D15*
X111464666Y-53838619D02*
X111378000Y-53714809D01*
X111316095Y-53838619D02*
X111316095Y-53578619D01*
X111415142Y-53578619D01*
X111439904Y-53591000D01*
X111452285Y-53603380D01*
X111464666Y-53628142D01*
X111464666Y-53665285D01*
X111452285Y-53690047D01*
X111439904Y-53702428D01*
X111415142Y-53714809D01*
X111316095Y-53714809D01*
X111551333Y-53578619D02*
X111712285Y-53578619D01*
X111625619Y-53677666D01*
X111662761Y-53677666D01*
X111687523Y-53690047D01*
X111699904Y-53702428D01*
X111712285Y-53727190D01*
X111712285Y-53789095D01*
X111699904Y-53813857D01*
X111687523Y-53826238D01*
X111662761Y-53838619D01*
X111588476Y-53838619D01*
X111563714Y-53826238D01*
X111551333Y-53813857D01*
%TO.C,R2*%
D11*
X120240380Y-56477285D02*
X120240380Y-57048714D01*
X120240380Y-56763000D02*
X119240380Y-56763000D01*
X119383238Y-56858238D01*
X119478476Y-56953476D01*
X119526095Y-57048714D01*
X120240380Y-56048714D02*
X119240380Y-56048714D01*
X120240380Y-55477285D02*
X119668952Y-55905857D01*
X119240380Y-55477285D02*
X119811809Y-56048714D01*
D15*
X118735619Y-56306333D02*
X118611809Y-56393000D01*
X118735619Y-56454904D02*
X118475619Y-56454904D01*
X118475619Y-56355857D01*
X118488000Y-56331095D01*
X118500380Y-56318714D01*
X118525142Y-56306333D01*
X118562285Y-56306333D01*
X118587047Y-56318714D01*
X118599428Y-56331095D01*
X118611809Y-56355857D01*
X118611809Y-56454904D01*
X118500380Y-56207285D02*
X118488000Y-56194904D01*
X118475619Y-56170142D01*
X118475619Y-56108238D01*
X118488000Y-56083476D01*
X118500380Y-56071095D01*
X118525142Y-56058714D01*
X118549904Y-56058714D01*
X118587047Y-56071095D01*
X118735619Y-56219666D01*
X118735619Y-56058714D01*
%TO.C,R1*%
D11*
X112544000Y-60988619D02*
X112591619Y-60941000D01*
X112686857Y-60893380D01*
X112924952Y-60893380D01*
X113020190Y-60941000D01*
X113067809Y-60988619D01*
X113115428Y-61083857D01*
X113115428Y-61179095D01*
X113067809Y-61321952D01*
X112496380Y-61893380D01*
X113115428Y-61893380D01*
X113544000Y-61798142D02*
X113591619Y-61845761D01*
X113544000Y-61893380D01*
X113496380Y-61845761D01*
X113544000Y-61798142D01*
X113544000Y-61893380D01*
X113972571Y-60988619D02*
X114020190Y-60941000D01*
X114115428Y-60893380D01*
X114353523Y-60893380D01*
X114448761Y-60941000D01*
X114496380Y-60988619D01*
X114544000Y-61083857D01*
X114544000Y-61179095D01*
X114496380Y-61321952D01*
X113924952Y-61893380D01*
X114544000Y-61893380D01*
X114972571Y-61893380D02*
X114972571Y-60893380D01*
X115544000Y-61893380D02*
X115115428Y-61321952D01*
X115544000Y-60893380D02*
X114972571Y-61464809D01*
D15*
X114000666Y-62728619D02*
X113914000Y-62604809D01*
X113852095Y-62728619D02*
X113852095Y-62468619D01*
X113951142Y-62468619D01*
X113975904Y-62481000D01*
X113988285Y-62493380D01*
X114000666Y-62518142D01*
X114000666Y-62555285D01*
X113988285Y-62580047D01*
X113975904Y-62592428D01*
X113951142Y-62604809D01*
X113852095Y-62604809D01*
X114248285Y-62728619D02*
X114099714Y-62728619D01*
X114174000Y-62728619D02*
X114174000Y-62468619D01*
X114149238Y-62505761D01*
X114124476Y-62530523D01*
X114099714Y-62542904D01*
%TO.C,Q1*%
D11*
X121334761Y-73738571D02*
X121382380Y-73595714D01*
X121382380Y-73357619D01*
X121334761Y-73262380D01*
X121287142Y-73214761D01*
X121191904Y-73167142D01*
X121096666Y-73167142D01*
X121001428Y-73214761D01*
X120953809Y-73262380D01*
X120906190Y-73357619D01*
X120858571Y-73548095D01*
X120810952Y-73643333D01*
X120763333Y-73690952D01*
X120668095Y-73738571D01*
X120572857Y-73738571D01*
X120477619Y-73690952D01*
X120430000Y-73643333D01*
X120382380Y-73548095D01*
X120382380Y-73310000D01*
X120430000Y-73167142D01*
X121382380Y-72738571D02*
X120382380Y-72738571D01*
X120477619Y-72310000D02*
X120430000Y-72262380D01*
X120382380Y-72167142D01*
X120382380Y-71929047D01*
X120430000Y-71833809D01*
X120477619Y-71786190D01*
X120572857Y-71738571D01*
X120668095Y-71738571D01*
X120810952Y-71786190D01*
X121382380Y-72357619D01*
X121382380Y-71738571D01*
X120382380Y-71405238D02*
X120382380Y-70786190D01*
X120763333Y-71119523D01*
X120763333Y-70976666D01*
X120810952Y-70881428D01*
X120858571Y-70833809D01*
X120953809Y-70786190D01*
X121191904Y-70786190D01*
X121287142Y-70833809D01*
X121334761Y-70881428D01*
X121382380Y-70976666D01*
X121382380Y-71262380D01*
X121334761Y-71357619D01*
X121287142Y-71405238D01*
X120382380Y-70167142D02*
X120382380Y-70071904D01*
X120430000Y-69976666D01*
X120477619Y-69929047D01*
X120572857Y-69881428D01*
X120763333Y-69833809D01*
X121001428Y-69833809D01*
X121191904Y-69881428D01*
X121287142Y-69929047D01*
X121334761Y-69976666D01*
X121382380Y-70071904D01*
X121382380Y-70167142D01*
X121334761Y-70262380D01*
X121287142Y-70310000D01*
X121191904Y-70357619D01*
X121001428Y-70405238D01*
X120763333Y-70405238D01*
X120572857Y-70357619D01*
X120477619Y-70310000D01*
X120430000Y-70262380D01*
X120382380Y-70167142D01*
X121382380Y-68881428D02*
X121382380Y-69452857D01*
X121382380Y-69167142D02*
X120382380Y-69167142D01*
X120525238Y-69262380D01*
X120620476Y-69357619D01*
X120668095Y-69452857D01*
X121287142Y-67881428D02*
X121334761Y-67929047D01*
X121382380Y-68071904D01*
X121382380Y-68167142D01*
X121334761Y-68310000D01*
X121239523Y-68405238D01*
X121144285Y-68452857D01*
X120953809Y-68500476D01*
X120810952Y-68500476D01*
X120620476Y-68452857D01*
X120525238Y-68405238D01*
X120430000Y-68310000D01*
X120382380Y-68167142D01*
X120382380Y-68071904D01*
X120430000Y-67929047D01*
X120477619Y-67881428D01*
X121382380Y-67452857D02*
X120382380Y-67452857D01*
X120382380Y-67214761D01*
X120430000Y-67071904D01*
X120525238Y-66976666D01*
X120620476Y-66929047D01*
X120810952Y-66881428D01*
X120953809Y-66881428D01*
X121144285Y-66929047D01*
X121239523Y-66976666D01*
X121334761Y-67071904D01*
X121382380Y-67214761D01*
X121382380Y-67452857D01*
X121334761Y-66500476D02*
X121382380Y-66357619D01*
X121382380Y-66119523D01*
X121334761Y-66024285D01*
X121287142Y-65976666D01*
X121191904Y-65929047D01*
X121096666Y-65929047D01*
X121001428Y-65976666D01*
X120953809Y-66024285D01*
X120906190Y-66119523D01*
X120858571Y-66310000D01*
X120810952Y-66405238D01*
X120763333Y-66452857D01*
X120668095Y-66500476D01*
X120572857Y-66500476D01*
X120477619Y-66452857D01*
X120430000Y-66405238D01*
X120382380Y-66310000D01*
X120382380Y-66071904D01*
X120430000Y-65929047D01*
X121001428Y-65500476D02*
X121001428Y-64738571D01*
X120382380Y-64405238D02*
X120382380Y-63833809D01*
X121382380Y-64119523D02*
X120382380Y-64119523D01*
X121382380Y-62976666D02*
X121382380Y-63548095D01*
X121382380Y-63262380D02*
X120382380Y-63262380D01*
X120525238Y-63357619D01*
X120620476Y-63452857D01*
X120668095Y-63548095D01*
X121001428Y-62548095D02*
X121001428Y-61786190D01*
X120430000Y-60786190D02*
X120382380Y-60881428D01*
X120382380Y-61024285D01*
X120430000Y-61167142D01*
X120525238Y-61262380D01*
X120620476Y-61310000D01*
X120810952Y-61357619D01*
X120953809Y-61357619D01*
X121144285Y-61310000D01*
X121239523Y-61262380D01*
X121334761Y-61167142D01*
X121382380Y-61024285D01*
X121382380Y-60929047D01*
X121334761Y-60786190D01*
X121287142Y-60738571D01*
X120953809Y-60738571D01*
X120953809Y-60929047D01*
X120858571Y-60310000D02*
X120858571Y-59976666D01*
X121382380Y-59833809D02*
X121382380Y-60310000D01*
X120382380Y-60310000D01*
X120382380Y-59833809D01*
X120382380Y-59500476D02*
X120382380Y-58881428D01*
X120763333Y-59214761D01*
X120763333Y-59071904D01*
X120810952Y-58976666D01*
X120858571Y-58929047D01*
X120953809Y-58881428D01*
X121191904Y-58881428D01*
X121287142Y-58929047D01*
X121334761Y-58976666D01*
X121382380Y-59071904D01*
X121382380Y-59357619D01*
X121334761Y-59452857D01*
X121287142Y-59500476D01*
D14*
X118382380Y-66583809D02*
X118334761Y-66560000D01*
X118287142Y-66512380D01*
X118215714Y-66440952D01*
X118168095Y-66417142D01*
X118120476Y-66417142D01*
X118144285Y-66536190D02*
X118096666Y-66512380D01*
X118049047Y-66464761D01*
X118025238Y-66369523D01*
X118025238Y-66202857D01*
X118049047Y-66107619D01*
X118096666Y-66060000D01*
X118144285Y-66036190D01*
X118239523Y-66036190D01*
X118287142Y-66060000D01*
X118334761Y-66107619D01*
X118358571Y-66202857D01*
X118358571Y-66369523D01*
X118334761Y-66464761D01*
X118287142Y-66512380D01*
X118239523Y-66536190D01*
X118144285Y-66536190D01*
X118834761Y-66536190D02*
X118549047Y-66536190D01*
X118691904Y-66536190D02*
X118691904Y-66036190D01*
X118644285Y-66107619D01*
X118596666Y-66155238D01*
X118549047Y-66179047D01*
%TO.C,IC1*%
D16*
X114757803Y-60665486D02*
X114757803Y-60215542D01*
X115545205Y-60440514D02*
X114757803Y-60440514D01*
X115545205Y-59953075D02*
X114757803Y-59953075D01*
X114757803Y-59653112D01*
X114795299Y-59578121D01*
X114832794Y-59540626D01*
X114907785Y-59503131D01*
X115020271Y-59503131D01*
X115095261Y-59540626D01*
X115132757Y-59578121D01*
X115170252Y-59653112D01*
X115170252Y-59953075D01*
X115020271Y-58828215D02*
X115545205Y-58828215D01*
X114720308Y-59015691D02*
X115282738Y-59203168D01*
X115282738Y-58715729D01*
X114757803Y-58265785D02*
X114757803Y-58190794D01*
X114795299Y-58115803D01*
X114832794Y-58078308D01*
X114907785Y-58040813D01*
X115057766Y-58003317D01*
X115245243Y-58003317D01*
X115395224Y-58040813D01*
X115470215Y-58078308D01*
X115507710Y-58115803D01*
X115545205Y-58190794D01*
X115545205Y-58265785D01*
X115507710Y-58340775D01*
X115470215Y-58378271D01*
X115395224Y-58415766D01*
X115245243Y-58453261D01*
X115057766Y-58453261D01*
X114907785Y-58415766D01*
X114832794Y-58378271D01*
X114795299Y-58340775D01*
X114757803Y-58265785D01*
X114757803Y-57290906D02*
X114757803Y-57665859D01*
X115132757Y-57703355D01*
X115095261Y-57665859D01*
X115057766Y-57590869D01*
X115057766Y-57403392D01*
X115095261Y-57328401D01*
X115132757Y-57290906D01*
X115207747Y-57253411D01*
X115395224Y-57253411D01*
X115470215Y-57290906D01*
X115507710Y-57328401D01*
X115545205Y-57403392D01*
X115545205Y-57590869D01*
X115507710Y-57665859D01*
X115470215Y-57703355D01*
X114757803Y-56578495D02*
X114757803Y-56728476D01*
X114795299Y-56803467D01*
X114832794Y-56840962D01*
X114945280Y-56915953D01*
X115095261Y-56953448D01*
X115395224Y-56953448D01*
X115470215Y-56915953D01*
X115507710Y-56878457D01*
X115545205Y-56803467D01*
X115545205Y-56653485D01*
X115507710Y-56578495D01*
X115470215Y-56540999D01*
X115395224Y-56503504D01*
X115207747Y-56503504D01*
X115132757Y-56540999D01*
X115095261Y-56578495D01*
X115057766Y-56653485D01*
X115057766Y-56803467D01*
X115095261Y-56878457D01*
X115132757Y-56915953D01*
X115207747Y-56953448D01*
%TO.C,F1*%
D11*
X107398523Y-50075714D02*
X107398523Y-50742380D01*
X107398523Y-50170952D02*
X107446142Y-50123333D01*
X107541380Y-50075714D01*
X107684238Y-50075714D01*
X107779476Y-50123333D01*
X107827095Y-50218571D01*
X107827095Y-50742380D01*
X108255666Y-50694761D02*
X108398523Y-50742380D01*
X108636619Y-50742380D01*
X108731857Y-50694761D01*
X108779476Y-50647142D01*
X108827095Y-50551904D01*
X108827095Y-50456666D01*
X108779476Y-50361428D01*
X108731857Y-50313809D01*
X108636619Y-50266190D01*
X108446142Y-50218571D01*
X108350904Y-50170952D01*
X108303285Y-50123333D01*
X108255666Y-50028095D01*
X108255666Y-49932857D01*
X108303285Y-49837619D01*
X108350904Y-49790000D01*
X108446142Y-49742380D01*
X108684238Y-49742380D01*
X108827095Y-49790000D01*
X109255666Y-50742380D02*
X109255666Y-49742380D01*
X109589000Y-50456666D01*
X109922333Y-49742380D01*
X109922333Y-50742380D01*
X110398523Y-50742380D02*
X110398523Y-49742380D01*
X110636619Y-49742380D01*
X110779476Y-49790000D01*
X110874714Y-49885238D01*
X110922333Y-49980476D01*
X110969952Y-50170952D01*
X110969952Y-50313809D01*
X110922333Y-50504285D01*
X110874714Y-50599523D01*
X110779476Y-50694761D01*
X110636619Y-50742380D01*
X110398523Y-50742380D01*
X111350904Y-49837619D02*
X111398523Y-49790000D01*
X111493761Y-49742380D01*
X111731857Y-49742380D01*
X111827095Y-49790000D01*
X111874714Y-49837619D01*
X111922333Y-49932857D01*
X111922333Y-50028095D01*
X111874714Y-50170952D01*
X111303285Y-50742380D01*
X111922333Y-50742380D01*
X112541380Y-49742380D02*
X112636619Y-49742380D01*
X112731857Y-49790000D01*
X112779476Y-49837619D01*
X112827095Y-49932857D01*
X112874714Y-50123333D01*
X112874714Y-50361428D01*
X112827095Y-50551904D01*
X112779476Y-50647142D01*
X112731857Y-50694761D01*
X112636619Y-50742380D01*
X112541380Y-50742380D01*
X112446142Y-50694761D01*
X112398523Y-50647142D01*
X112350904Y-50551904D01*
X112303285Y-50361428D01*
X112303285Y-50123333D01*
X112350904Y-49932857D01*
X112398523Y-49837619D01*
X112446142Y-49790000D01*
X112541380Y-49742380D01*
X113493761Y-49742380D02*
X113589000Y-49742380D01*
X113684238Y-49790000D01*
X113731857Y-49837619D01*
X113779476Y-49932857D01*
X113827095Y-50123333D01*
X113827095Y-50361428D01*
X113779476Y-50551904D01*
X113731857Y-50647142D01*
X113684238Y-50694761D01*
X113589000Y-50742380D01*
X113493761Y-50742380D01*
X113398523Y-50694761D01*
X113350904Y-50647142D01*
X113303285Y-50551904D01*
X113255666Y-50361428D01*
X113255666Y-50123333D01*
X113303285Y-49932857D01*
X113350904Y-49837619D01*
X113398523Y-49790000D01*
X113493761Y-49742380D01*
D17*
X110322333Y-52012857D02*
X110055666Y-52012857D01*
X110055666Y-52431904D02*
X110055666Y-51631904D01*
X110436619Y-51631904D01*
X111160428Y-52431904D02*
X110703285Y-52431904D01*
X110931857Y-52431904D02*
X110931857Y-51631904D01*
X110855666Y-51746190D01*
X110779476Y-51822380D01*
X110703285Y-51860476D01*
%TO.C,D2*%
D11*
X114721880Y-65311357D02*
X114245690Y-65644690D01*
X114721880Y-65882785D02*
X113721880Y-65882785D01*
X113721880Y-65501833D01*
X113769500Y-65406595D01*
X113817119Y-65358976D01*
X113912357Y-65311357D01*
X114055214Y-65311357D01*
X114150452Y-65358976D01*
X114198071Y-65406595D01*
X114245690Y-65501833D01*
X114245690Y-65882785D01*
X114198071Y-64882785D02*
X114198071Y-64549452D01*
X114721880Y-64406595D02*
X114721880Y-64882785D01*
X113721880Y-64882785D01*
X113721880Y-64406595D01*
X114721880Y-63978023D02*
X113721880Y-63978023D01*
X113721880Y-63739928D01*
X113769500Y-63597071D01*
X113864738Y-63501833D01*
X113959976Y-63454214D01*
X114150452Y-63406595D01*
X114293309Y-63406595D01*
X114483785Y-63454214D01*
X114579023Y-63501833D01*
X114674261Y-63597071D01*
X114721880Y-63739928D01*
X114721880Y-63978023D01*
D12*
X113020452Y-64963738D02*
X112620452Y-64963738D01*
X112620452Y-64868500D01*
X112639500Y-64811357D01*
X112677595Y-64773261D01*
X112715690Y-64754214D01*
X112791880Y-64735166D01*
X112849023Y-64735166D01*
X112925214Y-64754214D01*
X112963309Y-64773261D01*
X113001404Y-64811357D01*
X113020452Y-64868500D01*
X113020452Y-64963738D01*
X112658547Y-64582785D02*
X112639500Y-64563738D01*
X112620452Y-64525642D01*
X112620452Y-64430404D01*
X112639500Y-64392309D01*
X112658547Y-64373261D01*
X112696642Y-64354214D01*
X112734738Y-64354214D01*
X112791880Y-64373261D01*
X113020452Y-64601833D01*
X113020452Y-64354214D01*
%TO.C,D1*%
D11*
X115293500Y-66335166D02*
X115245880Y-66430404D01*
X115245880Y-66573261D01*
X115293500Y-66716119D01*
X115388738Y-66811357D01*
X115483976Y-66858976D01*
X115674452Y-66906595D01*
X115817309Y-66906595D01*
X116007785Y-66858976D01*
X116103023Y-66811357D01*
X116198261Y-66716119D01*
X116245880Y-66573261D01*
X116245880Y-66478023D01*
X116198261Y-66335166D01*
X116150642Y-66287547D01*
X115817309Y-66287547D01*
X115817309Y-66478023D01*
X116245880Y-65287547D02*
X115769690Y-65620880D01*
X116245880Y-65858976D02*
X115245880Y-65858976D01*
X115245880Y-65478023D01*
X115293500Y-65382785D01*
X115341119Y-65335166D01*
X115436357Y-65287547D01*
X115579214Y-65287547D01*
X115674452Y-65335166D01*
X115722071Y-65382785D01*
X115769690Y-65478023D01*
X115769690Y-65858976D01*
X115722071Y-64858976D02*
X115722071Y-64525642D01*
X116245880Y-64382785D02*
X116245880Y-64858976D01*
X115245880Y-64858976D01*
X115245880Y-64382785D01*
X115722071Y-63954214D02*
X115722071Y-63620880D01*
X116245880Y-63478023D02*
X116245880Y-63954214D01*
X115245880Y-63954214D01*
X115245880Y-63478023D01*
X116245880Y-63049452D02*
X115245880Y-63049452D01*
X116245880Y-62478023D01*
X115245880Y-62478023D01*
D12*
X114544452Y-64963738D02*
X114144452Y-64963738D01*
X114144452Y-64868500D01*
X114163500Y-64811357D01*
X114201595Y-64773261D01*
X114239690Y-64754214D01*
X114315880Y-64735166D01*
X114373023Y-64735166D01*
X114449214Y-64754214D01*
X114487309Y-64773261D01*
X114525404Y-64811357D01*
X114544452Y-64868500D01*
X114544452Y-64963738D01*
X114544452Y-64354214D02*
X114544452Y-64582785D01*
X114544452Y-64468500D02*
X114144452Y-64468500D01*
X114201595Y-64506595D01*
X114239690Y-64544690D01*
X114258738Y-64582785D01*
%TD*%
M02*
