%TF.GenerationSoftware,KiCad,Pcbnew,5.1.8*%
%TF.CreationDate,2020-11-30T19:21:11+01:00*%
%TF.ProjectId,lipo-stamp-proto,6c69706f-2d73-4746-916d-702d70726f74,rev?*%
%TF.SameCoordinates,Original*%
%TF.FileFunction,Legend,Top*%
%TF.FilePolarity,Positive*%
%FSLAX46Y46*%
G04 Gerber Fmt 4.6, Leading zero omitted, Abs format (unit mm)*
G04 Created by KiCad (PCBNEW 5.1.8) date 2020-11-30 19:21:11*
%MOMM*%
%LPD*%
G01*
G04 APERTURE LIST*
%ADD10C,0.120000*%
%ADD11C,0.100000*%
%ADD12C,0.127000*%
%ADD13C,0.150000*%
G04 APERTURE END LIST*
D10*
%TO.C,C7*%
X111825500Y-62802080D02*
X111825500Y-62520920D01*
X110805500Y-62802080D02*
X110805500Y-62520920D01*
%TO.C,C6*%
X121033000Y-59462580D02*
X121033000Y-59181420D01*
X120013000Y-59462580D02*
X120013000Y-59181420D01*
%TO.C,R6*%
X123777742Y-51293500D02*
X124252258Y-51293500D01*
X123777742Y-52338500D02*
X124252258Y-52338500D01*
%TO.C,C5*%
X121156000Y-52668080D02*
X121156000Y-52386920D01*
X122176000Y-52668080D02*
X122176000Y-52386920D01*
%TO.C,C4*%
X121537000Y-59462580D02*
X121537000Y-59181420D01*
X122557000Y-59462580D02*
X122557000Y-59181420D01*
%TO.C,C3*%
X118489000Y-59462580D02*
X118489000Y-59181420D01*
X119509000Y-59462580D02*
X119509000Y-59181420D01*
%TO.C,C2*%
X120830748Y-55526000D02*
X121353252Y-55526000D01*
X120830748Y-56996000D02*
X121353252Y-56996000D01*
%TO.C,C1*%
X117355252Y-64235000D02*
X116832748Y-64235000D01*
X117355252Y-62765000D02*
X116832748Y-62765000D01*
%TO.C,D4*%
X125060000Y-68310000D02*
X125060000Y-66310000D01*
X125060000Y-66310000D02*
X121160000Y-66310000D01*
X125060000Y-68310000D02*
X121160000Y-68310000D01*
%TO.C,D3*%
X113120000Y-68310000D02*
X113120000Y-66310000D01*
X113120000Y-66310000D02*
X109220000Y-66310000D01*
X113120000Y-68310000D02*
X109220000Y-68310000D01*
%TO.C,U3*%
X114246000Y-54436000D02*
X116046000Y-54436000D01*
X116046000Y-51216000D02*
X113596000Y-51216000D01*
%TO.C,U2*%
X118056000Y-54436000D02*
X119856000Y-54436000D01*
X119856000Y-51216000D02*
X117406000Y-51216000D01*
%TO.C,U1*%
X119961000Y-64287000D02*
X121761000Y-64287000D01*
X121761000Y-61067000D02*
X119311000Y-61067000D01*
%TO.C,R5*%
X122012141Y-54990000D02*
X121704859Y-54990000D01*
X122012141Y-54230000D02*
X121704859Y-54230000D01*
%TO.C,R4*%
X110618000Y-65306641D02*
X110618000Y-64999359D01*
X111378000Y-65306641D02*
X111378000Y-64999359D01*
%TO.C,R3*%
X111354359Y-53341000D02*
X111661641Y-53341000D01*
X111354359Y-54101000D02*
X111661641Y-54101000D01*
%TO.C,R2*%
X118238000Y-56416641D02*
X118238000Y-56109359D01*
X118998000Y-56416641D02*
X118998000Y-56109359D01*
%TO.C,R1*%
X114197641Y-62991000D02*
X113890359Y-62991000D01*
X114197641Y-62231000D02*
X113890359Y-62231000D01*
%TO.C,Q1*%
X120010000Y-65550000D02*
X119080000Y-65550000D01*
X116850000Y-65550000D02*
X117780000Y-65550000D01*
X116850000Y-65550000D02*
X116850000Y-67710000D01*
X120010000Y-65550000D02*
X120010000Y-67010000D01*
D11*
%TO.C,IC1*%
X113614000Y-60071000D02*
G75*
G03*
X113614000Y-60071000I-203000J0D01*
G01*
D12*
X112989000Y-56642000D02*
X112989000Y-60452000D01*
X117389000Y-56642000D02*
X112989000Y-56642000D01*
X117389000Y-60452000D02*
X117389000Y-56642000D01*
X112989000Y-60452000D02*
X117389000Y-60452000D01*
D10*
%TO.C,F1*%
X111079455Y-52980000D02*
X110098545Y-52980000D01*
X111079455Y-51160000D02*
X110098545Y-51160000D01*
%TO.C,D2*%
X112104500Y-63868500D02*
X112104500Y-66153500D01*
X112104500Y-66153500D02*
X113574500Y-66153500D01*
X113574500Y-66153500D02*
X113574500Y-63868500D01*
%TO.C,D1*%
X113628500Y-63868500D02*
X113628500Y-66153500D01*
X113628500Y-66153500D02*
X115098500Y-66153500D01*
X115098500Y-66153500D02*
X115098500Y-63868500D01*
%TO.C,C6*%
D13*
X119450142Y-59488666D02*
X119497761Y-59536285D01*
X119545380Y-59679142D01*
X119545380Y-59774380D01*
X119497761Y-59917238D01*
X119402523Y-60012476D01*
X119307285Y-60060095D01*
X119116809Y-60107714D01*
X118973952Y-60107714D01*
X118783476Y-60060095D01*
X118688238Y-60012476D01*
X118593000Y-59917238D01*
X118545380Y-59774380D01*
X118545380Y-59679142D01*
X118593000Y-59536285D01*
X118640619Y-59488666D01*
X118545380Y-58631523D02*
X118545380Y-58822000D01*
X118593000Y-58917238D01*
X118640619Y-58964857D01*
X118783476Y-59060095D01*
X118973952Y-59107714D01*
X119354904Y-59107714D01*
X119450142Y-59060095D01*
X119497761Y-59012476D01*
X119545380Y-58917238D01*
X119545380Y-58726761D01*
X119497761Y-58631523D01*
X119450142Y-58583904D01*
X119354904Y-58536285D01*
X119116809Y-58536285D01*
X119021571Y-58583904D01*
X118973952Y-58631523D01*
X118926333Y-58726761D01*
X118926333Y-58917238D01*
X118973952Y-59012476D01*
X119021571Y-59060095D01*
X119116809Y-59107714D01*
%TD*%
M02*
