M48
; DRILL file {KiCad 5.1.8} date Mon Nov 30 19:21:20 2020
; FORMAT={-:-/ absolute / inch / decimal}
; #@! TF.CreationDate,2020-11-30T19:21:20+01:00
; #@! TF.GenerationSoftware,Kicad,Pcbnew,5.1.8
FMAT,2
INCH
T1C0.0079
T2C0.0125
T3C0.0394
%
G90
G05
T1
X4.403Y-2.306
X4.403Y-2.34
X4.423Y-2.37
X4.4425Y-2.27
X4.4425Y-2.305
X4.4425Y-2.34
X4.4625Y-2.37
X4.48Y-2.27
X4.48Y-2.305
X4.48Y-2.34
X4.485Y-2.15
X4.535Y-2.27
X4.535Y-2.34
X4.59Y-2.27
X4.59Y-2.305
X4.59Y-2.34
X4.6275Y-2.27
X4.6275Y-2.305
X4.6275Y-2.34
X4.655Y-2.6375
X4.655Y-2.6725
X4.6625Y-2.3275
X4.666Y-2.27
X4.705Y-2.54
X4.7075Y-2.3975
X4.725Y-2.33
X4.74Y-2.645
X4.74Y-2.6775
X4.775Y-2.33
T2
X4.35Y-2.615
X4.355Y-2.085
X4.39Y-2.15
X4.395Y-2.615
X4.42Y-2.465
X4.445Y-2.105
X4.4725Y-2.6225
X4.5325Y-2.03
X4.535Y-2.113
X4.535Y-2.148
X4.535Y-2.655
X4.56Y-2.455
X4.57Y-2.655
X4.575Y-2.565
X4.62Y-2.595
X4.635Y-2.56
X4.655Y-2.39
X4.655Y-2.43
X4.68Y-2.08
X4.69Y-2.0425
X4.6974Y-2.2626
X4.7Y-2.58
X4.7579Y-2.4079
X4.76Y-2.53
X4.76Y-2.565
X4.805Y-2.655
X4.825Y-2.62
X4.8296Y-2.4696
X4.835Y-2.1075
X4.85Y-2.655
X4.865Y-2.085
T3
X4.9Y-2.45
X4.9Y-2.15
X4.9Y-2.25
X4.9Y-2.35
X4.3Y-2.35
X4.9Y-2.55
X4.3Y-2.15
X4.3Y-2.55
X4.3Y-2.25
X4.3Y-2.45
T0
M30
