%TF.GenerationSoftware,KiCad,Pcbnew,5.1.8*%
%TF.CreationDate,2020-11-29T14:50:24+01:00*%
%TF.ProjectId,lipo-stamp-proto,6c69706f-2d73-4746-916d-702d70726f74,rev?*%
%TF.SameCoordinates,Original*%
%TF.FileFunction,Paste,Top*%
%TF.FilePolarity,Positive*%
%FSLAX46Y46*%
G04 Gerber Fmt 4.6, Leading zero omitted, Abs format (unit mm)*
G04 Created by KiCad (PCBNEW 5.1.8) date 2020-11-29 14:50:24*
%MOMM*%
%LPD*%
G01*
G04 APERTURE LIST*
%ADD10R,0.900000X1.200000*%
%ADD11R,1.060000X0.650000*%
%ADD12R,0.800000X0.900000*%
%ADD13R,3.400000X2.400000*%
%ADD14R,0.700000X1.300000*%
G04 APERTURE END LIST*
%TO.C,R6*%
G36*
G01*
X124440000Y-52091000D02*
X124440000Y-51541000D01*
G75*
G02*
X124640000Y-51341000I200000J0D01*
G01*
X125040000Y-51341000D01*
G75*
G02*
X125240000Y-51541000I0J-200000D01*
G01*
X125240000Y-52091000D01*
G75*
G02*
X125040000Y-52291000I-200000J0D01*
G01*
X124640000Y-52291000D01*
G75*
G02*
X124440000Y-52091000I0J200000D01*
G01*
G37*
G36*
G01*
X122790000Y-52091000D02*
X122790000Y-51541000D01*
G75*
G02*
X122990000Y-51341000I200000J0D01*
G01*
X123390000Y-51341000D01*
G75*
G02*
X123590000Y-51541000I0J-200000D01*
G01*
X123590000Y-52091000D01*
G75*
G02*
X123390000Y-52291000I-200000J0D01*
G01*
X122990000Y-52291000D01*
G75*
G02*
X122790000Y-52091000I0J200000D01*
G01*
G37*
%TD*%
%TO.C,C5*%
G36*
G01*
X121916000Y-52202500D02*
X121416000Y-52202500D01*
G75*
G02*
X121191000Y-51977500I0J225000D01*
G01*
X121191000Y-51527500D01*
G75*
G02*
X121416000Y-51302500I225000J0D01*
G01*
X121916000Y-51302500D01*
G75*
G02*
X122141000Y-51527500I0J-225000D01*
G01*
X122141000Y-51977500D01*
G75*
G02*
X121916000Y-52202500I-225000J0D01*
G01*
G37*
G36*
G01*
X121916000Y-53752500D02*
X121416000Y-53752500D01*
G75*
G02*
X121191000Y-53527500I0J225000D01*
G01*
X121191000Y-53077500D01*
G75*
G02*
X121416000Y-52852500I225000J0D01*
G01*
X121916000Y-52852500D01*
G75*
G02*
X122141000Y-53077500I0J-225000D01*
G01*
X122141000Y-53527500D01*
G75*
G02*
X121916000Y-53752500I-225000J0D01*
G01*
G37*
%TD*%
%TO.C,C4*%
G36*
G01*
X122297000Y-58997000D02*
X121797000Y-58997000D01*
G75*
G02*
X121572000Y-58772000I0J225000D01*
G01*
X121572000Y-58322000D01*
G75*
G02*
X121797000Y-58097000I225000J0D01*
G01*
X122297000Y-58097000D01*
G75*
G02*
X122522000Y-58322000I0J-225000D01*
G01*
X122522000Y-58772000D01*
G75*
G02*
X122297000Y-58997000I-225000J0D01*
G01*
G37*
G36*
G01*
X122297000Y-60547000D02*
X121797000Y-60547000D01*
G75*
G02*
X121572000Y-60322000I0J225000D01*
G01*
X121572000Y-59872000D01*
G75*
G02*
X121797000Y-59647000I225000J0D01*
G01*
X122297000Y-59647000D01*
G75*
G02*
X122522000Y-59872000I0J-225000D01*
G01*
X122522000Y-60322000D01*
G75*
G02*
X122297000Y-60547000I-225000J0D01*
G01*
G37*
%TD*%
%TO.C,C3*%
G36*
G01*
X120773000Y-58997000D02*
X120273000Y-58997000D01*
G75*
G02*
X120048000Y-58772000I0J225000D01*
G01*
X120048000Y-58322000D01*
G75*
G02*
X120273000Y-58097000I225000J0D01*
G01*
X120773000Y-58097000D01*
G75*
G02*
X120998000Y-58322000I0J-225000D01*
G01*
X120998000Y-58772000D01*
G75*
G02*
X120773000Y-58997000I-225000J0D01*
G01*
G37*
G36*
G01*
X120773000Y-60547000D02*
X120273000Y-60547000D01*
G75*
G02*
X120048000Y-60322000I0J225000D01*
G01*
X120048000Y-59872000D01*
G75*
G02*
X120273000Y-59647000I225000J0D01*
G01*
X120773000Y-59647000D01*
G75*
G02*
X120998000Y-59872000I0J-225000D01*
G01*
X120998000Y-60322000D01*
G75*
G02*
X120773000Y-60547000I-225000J0D01*
G01*
G37*
%TD*%
%TO.C,C2*%
G36*
G01*
X121542000Y-56736000D02*
X121542000Y-55786000D01*
G75*
G02*
X121792000Y-55536000I250000J0D01*
G01*
X122292000Y-55536000D01*
G75*
G02*
X122542000Y-55786000I0J-250000D01*
G01*
X122542000Y-56736000D01*
G75*
G02*
X122292000Y-56986000I-250000J0D01*
G01*
X121792000Y-56986000D01*
G75*
G02*
X121542000Y-56736000I0J250000D01*
G01*
G37*
G36*
G01*
X119642000Y-56736000D02*
X119642000Y-55786000D01*
G75*
G02*
X119892000Y-55536000I250000J0D01*
G01*
X120392000Y-55536000D01*
G75*
G02*
X120642000Y-55786000I0J-250000D01*
G01*
X120642000Y-56736000D01*
G75*
G02*
X120392000Y-56986000I-250000J0D01*
G01*
X119892000Y-56986000D01*
G75*
G02*
X119642000Y-56736000I0J250000D01*
G01*
G37*
%TD*%
%TO.C,C1*%
G36*
G01*
X116644000Y-63025000D02*
X116644000Y-63975000D01*
G75*
G02*
X116394000Y-64225000I-250000J0D01*
G01*
X115894000Y-64225000D01*
G75*
G02*
X115644000Y-63975000I0J250000D01*
G01*
X115644000Y-63025000D01*
G75*
G02*
X115894000Y-62775000I250000J0D01*
G01*
X116394000Y-62775000D01*
G75*
G02*
X116644000Y-63025000I0J-250000D01*
G01*
G37*
G36*
G01*
X118544000Y-63025000D02*
X118544000Y-63975000D01*
G75*
G02*
X118294000Y-64225000I-250000J0D01*
G01*
X117794000Y-64225000D01*
G75*
G02*
X117544000Y-63975000I0J250000D01*
G01*
X117544000Y-63025000D01*
G75*
G02*
X117794000Y-62775000I250000J0D01*
G01*
X118294000Y-62775000D01*
G75*
G02*
X118544000Y-63025000I0J-250000D01*
G01*
G37*
%TD*%
D10*
%TO.C,D4*%
X121160000Y-67310000D03*
X124460000Y-67310000D03*
%TD*%
%TO.C,D3*%
X109220000Y-67310000D03*
X112520000Y-67310000D03*
%TD*%
D11*
%TO.C,U3*%
X116246000Y-52826000D03*
X116246000Y-51876000D03*
X116246000Y-53776000D03*
X114046000Y-53776000D03*
X114046000Y-52826000D03*
X114046000Y-51876000D03*
%TD*%
%TO.C,U2*%
X120056000Y-52826000D03*
X120056000Y-51876000D03*
X120056000Y-53776000D03*
X117856000Y-53776000D03*
X117856000Y-52826000D03*
X117856000Y-51876000D03*
%TD*%
%TO.C,U1*%
X121961000Y-61727000D03*
X121961000Y-63627000D03*
X119761000Y-63627000D03*
X119761000Y-62677000D03*
X119761000Y-61727000D03*
%TD*%
%TO.C,R5*%
G36*
G01*
X121618500Y-54425000D02*
X121618500Y-54795000D01*
G75*
G02*
X121483500Y-54930000I-135000J0D01*
G01*
X121213500Y-54930000D01*
G75*
G02*
X121078500Y-54795000I0J135000D01*
G01*
X121078500Y-54425000D01*
G75*
G02*
X121213500Y-54290000I135000J0D01*
G01*
X121483500Y-54290000D01*
G75*
G02*
X121618500Y-54425000I0J-135000D01*
G01*
G37*
G36*
G01*
X122638500Y-54425000D02*
X122638500Y-54795000D01*
G75*
G02*
X122503500Y-54930000I-135000J0D01*
G01*
X122233500Y-54930000D01*
G75*
G02*
X122098500Y-54795000I0J135000D01*
G01*
X122098500Y-54425000D01*
G75*
G02*
X122233500Y-54290000I135000J0D01*
G01*
X122503500Y-54290000D01*
G75*
G02*
X122638500Y-54425000I0J-135000D01*
G01*
G37*
%TD*%
%TO.C,R4*%
G36*
G01*
X111183000Y-64913000D02*
X110813000Y-64913000D01*
G75*
G02*
X110678000Y-64778000I0J135000D01*
G01*
X110678000Y-64508000D01*
G75*
G02*
X110813000Y-64373000I135000J0D01*
G01*
X111183000Y-64373000D01*
G75*
G02*
X111318000Y-64508000I0J-135000D01*
G01*
X111318000Y-64778000D01*
G75*
G02*
X111183000Y-64913000I-135000J0D01*
G01*
G37*
G36*
G01*
X111183000Y-65933000D02*
X110813000Y-65933000D01*
G75*
G02*
X110678000Y-65798000I0J135000D01*
G01*
X110678000Y-65528000D01*
G75*
G02*
X110813000Y-65393000I135000J0D01*
G01*
X111183000Y-65393000D01*
G75*
G02*
X111318000Y-65528000I0J-135000D01*
G01*
X111318000Y-65798000D01*
G75*
G02*
X111183000Y-65933000I-135000J0D01*
G01*
G37*
%TD*%
%TO.C,R3*%
G36*
G01*
X112002000Y-56700000D02*
X112002000Y-56330000D01*
G75*
G02*
X112137000Y-56195000I135000J0D01*
G01*
X112407000Y-56195000D01*
G75*
G02*
X112542000Y-56330000I0J-135000D01*
G01*
X112542000Y-56700000D01*
G75*
G02*
X112407000Y-56835000I-135000J0D01*
G01*
X112137000Y-56835000D01*
G75*
G02*
X112002000Y-56700000I0J135000D01*
G01*
G37*
G36*
G01*
X110982000Y-56700000D02*
X110982000Y-56330000D01*
G75*
G02*
X111117000Y-56195000I135000J0D01*
G01*
X111387000Y-56195000D01*
G75*
G02*
X111522000Y-56330000I0J-135000D01*
G01*
X111522000Y-56700000D01*
G75*
G02*
X111387000Y-56835000I-135000J0D01*
G01*
X111117000Y-56835000D01*
G75*
G02*
X110982000Y-56700000I0J135000D01*
G01*
G37*
%TD*%
%TO.C,R2*%
G36*
G01*
X118803000Y-56023000D02*
X118433000Y-56023000D01*
G75*
G02*
X118298000Y-55888000I0J135000D01*
G01*
X118298000Y-55618000D01*
G75*
G02*
X118433000Y-55483000I135000J0D01*
G01*
X118803000Y-55483000D01*
G75*
G02*
X118938000Y-55618000I0J-135000D01*
G01*
X118938000Y-55888000D01*
G75*
G02*
X118803000Y-56023000I-135000J0D01*
G01*
G37*
G36*
G01*
X118803000Y-57043000D02*
X118433000Y-57043000D01*
G75*
G02*
X118298000Y-56908000I0J135000D01*
G01*
X118298000Y-56638000D01*
G75*
G02*
X118433000Y-56503000I135000J0D01*
G01*
X118803000Y-56503000D01*
G75*
G02*
X118938000Y-56638000I0J-135000D01*
G01*
X118938000Y-56908000D01*
G75*
G02*
X118803000Y-57043000I-135000J0D01*
G01*
G37*
%TD*%
%TO.C,R1*%
G36*
G01*
X113804000Y-62426000D02*
X113804000Y-62796000D01*
G75*
G02*
X113669000Y-62931000I-135000J0D01*
G01*
X113399000Y-62931000D01*
G75*
G02*
X113264000Y-62796000I0J135000D01*
G01*
X113264000Y-62426000D01*
G75*
G02*
X113399000Y-62291000I135000J0D01*
G01*
X113669000Y-62291000D01*
G75*
G02*
X113804000Y-62426000I0J-135000D01*
G01*
G37*
G36*
G01*
X114824000Y-62426000D02*
X114824000Y-62796000D01*
G75*
G02*
X114689000Y-62931000I-135000J0D01*
G01*
X114419000Y-62931000D01*
G75*
G02*
X114284000Y-62796000I0J135000D01*
G01*
X114284000Y-62426000D01*
G75*
G02*
X114419000Y-62291000I135000J0D01*
G01*
X114689000Y-62291000D01*
G75*
G02*
X114824000Y-62426000I0J-135000D01*
G01*
G37*
%TD*%
D12*
%TO.C,Q1*%
X118430000Y-65310000D03*
X119380000Y-67310000D03*
X117480000Y-67310000D03*
%TD*%
D13*
%TO.C,IC1*%
X115189000Y-58547000D03*
D14*
X114554000Y-55797000D03*
X113284000Y-55797000D03*
X115824000Y-55797000D03*
X117094000Y-55797000D03*
X114554000Y-61297000D03*
X113284000Y-61297000D03*
X115824000Y-61297000D03*
X117094000Y-61297000D03*
%TD*%
%TO.C,F1*%
G36*
G01*
X109964000Y-51495000D02*
X109964000Y-52645000D01*
G75*
G02*
X109714000Y-52895000I-250000J0D01*
G01*
X108614000Y-52895000D01*
G75*
G02*
X108364000Y-52645000I0J250000D01*
G01*
X108364000Y-51495000D01*
G75*
G02*
X108614000Y-51245000I250000J0D01*
G01*
X109714000Y-51245000D01*
G75*
G02*
X109964000Y-51495000I0J-250000D01*
G01*
G37*
G36*
G01*
X112814000Y-51495000D02*
X112814000Y-52645000D01*
G75*
G02*
X112564000Y-52895000I-250000J0D01*
G01*
X111464000Y-52895000D01*
G75*
G02*
X111214000Y-52645000I0J250000D01*
G01*
X111214000Y-51495000D01*
G75*
G02*
X111464000Y-51245000I250000J0D01*
G01*
X112564000Y-51245000D01*
G75*
G02*
X112814000Y-51495000I0J-250000D01*
G01*
G37*
%TD*%
%TO.C,D2*%
G36*
G01*
X112524250Y-64318500D02*
X112011750Y-64318500D01*
G75*
G02*
X111793000Y-64099750I0J218750D01*
G01*
X111793000Y-63662250D01*
G75*
G02*
X112011750Y-63443500I218750J0D01*
G01*
X112524250Y-63443500D01*
G75*
G02*
X112743000Y-63662250I0J-218750D01*
G01*
X112743000Y-64099750D01*
G75*
G02*
X112524250Y-64318500I-218750J0D01*
G01*
G37*
G36*
G01*
X112524250Y-65893500D02*
X112011750Y-65893500D01*
G75*
G02*
X111793000Y-65674750I0J218750D01*
G01*
X111793000Y-65237250D01*
G75*
G02*
X112011750Y-65018500I218750J0D01*
G01*
X112524250Y-65018500D01*
G75*
G02*
X112743000Y-65237250I0J-218750D01*
G01*
X112743000Y-65674750D01*
G75*
G02*
X112524250Y-65893500I-218750J0D01*
G01*
G37*
%TD*%
%TO.C,D1*%
G36*
G01*
X114048250Y-64318500D02*
X113535750Y-64318500D01*
G75*
G02*
X113317000Y-64099750I0J218750D01*
G01*
X113317000Y-63662250D01*
G75*
G02*
X113535750Y-63443500I218750J0D01*
G01*
X114048250Y-63443500D01*
G75*
G02*
X114267000Y-63662250I0J-218750D01*
G01*
X114267000Y-64099750D01*
G75*
G02*
X114048250Y-64318500I-218750J0D01*
G01*
G37*
G36*
G01*
X114048250Y-65893500D02*
X113535750Y-65893500D01*
G75*
G02*
X113317000Y-65674750I0J218750D01*
G01*
X113317000Y-65237250D01*
G75*
G02*
X113535750Y-65018500I218750J0D01*
G01*
X114048250Y-65018500D01*
G75*
G02*
X114267000Y-65237250I0J-218750D01*
G01*
X114267000Y-65674750D01*
G75*
G02*
X114048250Y-65893500I-218750J0D01*
G01*
G37*
%TD*%
M02*
