%TF.GenerationSoftware,KiCad,Pcbnew,5.1.8*%
%TF.CreationDate,2020-11-30T19:21:11+01:00*%
%TF.ProjectId,lipo-stamp-proto,6c69706f-2d73-4746-916d-702d70726f74,rev?*%
%TF.SameCoordinates,Original*%
%TF.FileFunction,OtherDrawing,Comment*%
%FSLAX46Y46*%
G04 Gerber Fmt 4.6, Leading zero omitted, Abs format (unit mm)*
G04 Created by KiCad (PCBNEW 5.1.8) date 2020-11-30 19:21:11*
%MOMM*%
%LPD*%
G01*
G04 APERTURE LIST*
%ADD10C,0.150000*%
G04 APERTURE END LIST*
D10*
X113268571Y-47412380D02*
X112697142Y-47412380D01*
X112982857Y-47412380D02*
X112982857Y-46412380D01*
X112887619Y-46555238D01*
X112792380Y-46650476D01*
X112697142Y-46698095D01*
X113601904Y-46412380D02*
X114268571Y-46412380D01*
X113840000Y-47412380D01*
X114649523Y-47317142D02*
X114697142Y-47364761D01*
X114649523Y-47412380D01*
X114601904Y-47364761D01*
X114649523Y-47317142D01*
X114649523Y-47412380D01*
X115030476Y-46412380D02*
X115697142Y-46412380D01*
X115268571Y-47412380D01*
X116220952Y-46840952D02*
X116125714Y-46793333D01*
X116078095Y-46745714D01*
X116030476Y-46650476D01*
X116030476Y-46602857D01*
X116078095Y-46507619D01*
X116125714Y-46460000D01*
X116220952Y-46412380D01*
X116411428Y-46412380D01*
X116506666Y-46460000D01*
X116554285Y-46507619D01*
X116601904Y-46602857D01*
X116601904Y-46650476D01*
X116554285Y-46745714D01*
X116506666Y-46793333D01*
X116411428Y-46840952D01*
X116220952Y-46840952D01*
X116125714Y-46888571D01*
X116078095Y-46936190D01*
X116030476Y-47031428D01*
X116030476Y-47221904D01*
X116078095Y-47317142D01*
X116125714Y-47364761D01*
X116220952Y-47412380D01*
X116411428Y-47412380D01*
X116506666Y-47364761D01*
X116554285Y-47317142D01*
X116601904Y-47221904D01*
X116601904Y-47031428D01*
X116554285Y-46936190D01*
X116506666Y-46888571D01*
X116411428Y-46840952D01*
X117220952Y-46412380D02*
X117316190Y-46412380D01*
X117411428Y-46460000D01*
X117459047Y-46507619D01*
X117506666Y-46602857D01*
X117554285Y-46793333D01*
X117554285Y-47031428D01*
X117506666Y-47221904D01*
X117459047Y-47317142D01*
X117411428Y-47364761D01*
X117316190Y-47412380D01*
X117220952Y-47412380D01*
X117125714Y-47364761D01*
X117078095Y-47317142D01*
X117030476Y-47221904D01*
X116982857Y-47031428D01*
X116982857Y-46793333D01*
X117030476Y-46602857D01*
X117078095Y-46507619D01*
X117125714Y-46460000D01*
X117220952Y-46412380D01*
X118744761Y-47412380D02*
X118744761Y-46745714D01*
X118744761Y-46840952D02*
X118792380Y-46793333D01*
X118887619Y-46745714D01*
X119030476Y-46745714D01*
X119125714Y-46793333D01*
X119173333Y-46888571D01*
X119173333Y-47412380D01*
X119173333Y-46888571D02*
X119220952Y-46793333D01*
X119316190Y-46745714D01*
X119459047Y-46745714D01*
X119554285Y-46793333D01*
X119601904Y-46888571D01*
X119601904Y-47412380D01*
X120078095Y-47412380D02*
X120078095Y-46745714D01*
X120078095Y-46840952D02*
X120125714Y-46793333D01*
X120220952Y-46745714D01*
X120363809Y-46745714D01*
X120459047Y-46793333D01*
X120506666Y-46888571D01*
X120506666Y-47412380D01*
X120506666Y-46888571D02*
X120554285Y-46793333D01*
X120649523Y-46745714D01*
X120792380Y-46745714D01*
X120887619Y-46793333D01*
X120935238Y-46888571D01*
X120935238Y-47412380D01*
X107950000Y-48260000D02*
X125730000Y-48260000D01*
X107950000Y-50800000D02*
X107950000Y-47673579D01*
X125730000Y-50800000D02*
X125730000Y-47673579D01*
X125730000Y-48260000D02*
X124603496Y-48846421D01*
X125730000Y-48260000D02*
X124603496Y-47673579D01*
X107950000Y-48260000D02*
X109076504Y-48846421D01*
X107950000Y-48260000D02*
X109076504Y-47673579D01*
X103657619Y-56118571D02*
X103657619Y-55547142D01*
X103657619Y-55832857D02*
X104657619Y-55832857D01*
X104514761Y-55737619D01*
X104419523Y-55642380D01*
X104371904Y-55547142D01*
X104657619Y-56451904D02*
X104657619Y-57118571D01*
X103657619Y-56690000D01*
X103752857Y-57499523D02*
X103705238Y-57547142D01*
X103657619Y-57499523D01*
X103705238Y-57451904D01*
X103752857Y-57499523D01*
X103657619Y-57499523D01*
X104657619Y-57880476D02*
X104657619Y-58547142D01*
X103657619Y-58118571D01*
X104229047Y-59070952D02*
X104276666Y-58975714D01*
X104324285Y-58928095D01*
X104419523Y-58880476D01*
X104467142Y-58880476D01*
X104562380Y-58928095D01*
X104610000Y-58975714D01*
X104657619Y-59070952D01*
X104657619Y-59261428D01*
X104610000Y-59356666D01*
X104562380Y-59404285D01*
X104467142Y-59451904D01*
X104419523Y-59451904D01*
X104324285Y-59404285D01*
X104276666Y-59356666D01*
X104229047Y-59261428D01*
X104229047Y-59070952D01*
X104181428Y-58975714D01*
X104133809Y-58928095D01*
X104038571Y-58880476D01*
X103848095Y-58880476D01*
X103752857Y-58928095D01*
X103705238Y-58975714D01*
X103657619Y-59070952D01*
X103657619Y-59261428D01*
X103705238Y-59356666D01*
X103752857Y-59404285D01*
X103848095Y-59451904D01*
X104038571Y-59451904D01*
X104133809Y-59404285D01*
X104181428Y-59356666D01*
X104229047Y-59261428D01*
X104657619Y-60070952D02*
X104657619Y-60166190D01*
X104610000Y-60261428D01*
X104562380Y-60309047D01*
X104467142Y-60356666D01*
X104276666Y-60404285D01*
X104038571Y-60404285D01*
X103848095Y-60356666D01*
X103752857Y-60309047D01*
X103705238Y-60261428D01*
X103657619Y-60166190D01*
X103657619Y-60070952D01*
X103705238Y-59975714D01*
X103752857Y-59928095D01*
X103848095Y-59880476D01*
X104038571Y-59832857D01*
X104276666Y-59832857D01*
X104467142Y-59880476D01*
X104562380Y-59928095D01*
X104610000Y-59975714D01*
X104657619Y-60070952D01*
X103657619Y-61594761D02*
X104324285Y-61594761D01*
X104229047Y-61594761D02*
X104276666Y-61642380D01*
X104324285Y-61737619D01*
X104324285Y-61880476D01*
X104276666Y-61975714D01*
X104181428Y-62023333D01*
X103657619Y-62023333D01*
X104181428Y-62023333D02*
X104276666Y-62070952D01*
X104324285Y-62166190D01*
X104324285Y-62309047D01*
X104276666Y-62404285D01*
X104181428Y-62451904D01*
X103657619Y-62451904D01*
X103657619Y-62928095D02*
X104324285Y-62928095D01*
X104229047Y-62928095D02*
X104276666Y-62975714D01*
X104324285Y-63070952D01*
X104324285Y-63213809D01*
X104276666Y-63309047D01*
X104181428Y-63356666D01*
X103657619Y-63356666D01*
X104181428Y-63356666D02*
X104276666Y-63404285D01*
X104324285Y-63499523D01*
X104324285Y-63642380D01*
X104276666Y-63737619D01*
X104181428Y-63785238D01*
X103657619Y-63785238D01*
X105410000Y-50800000D02*
X105410000Y-68580000D01*
X107950000Y-50800000D02*
X104823579Y-50800000D01*
X107950000Y-68580000D02*
X104823579Y-68580000D01*
X105410000Y-68580000D02*
X104823579Y-67453496D01*
X105410000Y-68580000D02*
X105996421Y-67453496D01*
X105410000Y-50800000D02*
X104823579Y-51926504D01*
X105410000Y-50800000D02*
X105996421Y-51926504D01*
M02*
