%TF.GenerationSoftware,KiCad,Pcbnew,5.1.8*%
%TF.CreationDate,2020-11-29T14:14:59+01:00*%
%TF.ProjectId,lipo-stamp-proto,6c69706f-2d73-4746-916d-702d70726f74,rev?*%
%TF.SameCoordinates,Original*%
%TF.FileFunction,Legend,Top*%
%TF.FilePolarity,Positive*%
%FSLAX46Y46*%
G04 Gerber Fmt 4.6, Leading zero omitted, Abs format (unit mm)*
G04 Created by KiCad (PCBNEW 5.1.8) date 2020-11-29 14:14:59*
%MOMM*%
%LPD*%
G01*
G04 APERTURE LIST*
%ADD10C,0.120000*%
%ADD11C,0.100000*%
%ADD12C,0.127000*%
%ADD13C,0.150000*%
%ADD14C,0.015000*%
G04 APERTURE END LIST*
D10*
%TO.C,C5*%
X121156000Y-52668080D02*
X121156000Y-52386920D01*
X122176000Y-52668080D02*
X122176000Y-52386920D01*
%TO.C,C4*%
X121537000Y-59462580D02*
X121537000Y-59181420D01*
X122557000Y-59462580D02*
X122557000Y-59181420D01*
%TO.C,C3*%
X120013000Y-59462580D02*
X120013000Y-59181420D01*
X121033000Y-59462580D02*
X121033000Y-59181420D01*
%TO.C,C2*%
X120830748Y-55526000D02*
X121353252Y-55526000D01*
X120830748Y-56996000D02*
X121353252Y-56996000D01*
%TO.C,C1*%
X117355252Y-64235000D02*
X116832748Y-64235000D01*
X117355252Y-62765000D02*
X116832748Y-62765000D01*
%TO.C,D4*%
X125060000Y-68310000D02*
X125060000Y-66310000D01*
X125060000Y-66310000D02*
X121160000Y-66310000D01*
X125060000Y-68310000D02*
X121160000Y-68310000D01*
%TO.C,D3*%
X113120000Y-68310000D02*
X113120000Y-66310000D01*
X113120000Y-66310000D02*
X109220000Y-66310000D01*
X113120000Y-68310000D02*
X109220000Y-68310000D01*
%TO.C,U3*%
X114246000Y-54436000D02*
X116046000Y-54436000D01*
X116046000Y-51216000D02*
X113596000Y-51216000D01*
%TO.C,U2*%
X118056000Y-54436000D02*
X119856000Y-54436000D01*
X119856000Y-51216000D02*
X117406000Y-51216000D01*
%TO.C,U1*%
X119961000Y-64287000D02*
X121761000Y-64287000D01*
X121761000Y-61067000D02*
X119311000Y-61067000D01*
%TO.C,R6*%
X123990859Y-52134500D02*
X124298141Y-52134500D01*
X123990859Y-52894500D02*
X124298141Y-52894500D01*
%TO.C,R5*%
X122012141Y-54990000D02*
X121704859Y-54990000D01*
X122012141Y-54230000D02*
X121704859Y-54230000D01*
%TO.C,R4*%
X110618000Y-65306641D02*
X110618000Y-64999359D01*
X111378000Y-65306641D02*
X111378000Y-64999359D01*
%TO.C,R3*%
X111608359Y-56135000D02*
X111915641Y-56135000D01*
X111608359Y-56895000D02*
X111915641Y-56895000D01*
%TO.C,R2*%
X118238000Y-56416641D02*
X118238000Y-56109359D01*
X118998000Y-56416641D02*
X118998000Y-56109359D01*
%TO.C,R1*%
X114197641Y-62991000D02*
X113890359Y-62991000D01*
X114197641Y-62231000D02*
X113890359Y-62231000D01*
%TO.C,Q1*%
X120010000Y-65550000D02*
X119080000Y-65550000D01*
X116850000Y-65550000D02*
X117780000Y-65550000D01*
X116850000Y-65550000D02*
X116850000Y-67710000D01*
X120010000Y-65550000D02*
X120010000Y-67010000D01*
D11*
%TO.C,IC1*%
X113614000Y-60071000D02*
G75*
G03*
X113614000Y-60071000I-203000J0D01*
G01*
D12*
X112989000Y-56642000D02*
X112989000Y-60452000D01*
X117389000Y-56642000D02*
X112989000Y-56642000D01*
X117389000Y-60452000D02*
X117389000Y-56642000D01*
X112989000Y-60452000D02*
X117389000Y-60452000D01*
D10*
%TO.C,F1*%
X111079455Y-52980000D02*
X110098545Y-52980000D01*
X111079455Y-51160000D02*
X110098545Y-51160000D01*
%TO.C,D2*%
X111533000Y-63868500D02*
X111533000Y-66153500D01*
X111533000Y-66153500D02*
X113003000Y-66153500D01*
X113003000Y-66153500D02*
X113003000Y-63868500D01*
%TO.C,D1*%
X113057000Y-63868500D02*
X113057000Y-66153500D01*
X113057000Y-66153500D02*
X114527000Y-66153500D01*
X114527000Y-66153500D02*
X114527000Y-63868500D01*
%TO.C,C5*%
D13*
X120974142Y-39232166D02*
X121021761Y-39279785D01*
X121069380Y-39422642D01*
X121069380Y-39517880D01*
X121021761Y-39660738D01*
X120926523Y-39755976D01*
X120831285Y-39803595D01*
X120640809Y-39851214D01*
X120497952Y-39851214D01*
X120307476Y-39803595D01*
X120212238Y-39755976D01*
X120117000Y-39660738D01*
X120069380Y-39517880D01*
X120069380Y-39422642D01*
X120117000Y-39279785D01*
X120164619Y-39232166D01*
X120069380Y-38327404D02*
X120069380Y-38803595D01*
X120545571Y-38851214D01*
X120497952Y-38803595D01*
X120450333Y-38708357D01*
X120450333Y-38470261D01*
X120497952Y-38375023D01*
X120545571Y-38327404D01*
X120640809Y-38279785D01*
X120878904Y-38279785D01*
X120974142Y-38327404D01*
X121021761Y-38375023D01*
X121069380Y-38470261D01*
X121069380Y-38708357D01*
X121021761Y-38803595D01*
X120974142Y-38851214D01*
%TO.C,C4*%
X140278142Y-61139666D02*
X140325761Y-61187285D01*
X140373380Y-61330142D01*
X140373380Y-61425380D01*
X140325761Y-61568238D01*
X140230523Y-61663476D01*
X140135285Y-61711095D01*
X139944809Y-61758714D01*
X139801952Y-61758714D01*
X139611476Y-61711095D01*
X139516238Y-61663476D01*
X139421000Y-61568238D01*
X139373380Y-61425380D01*
X139373380Y-61330142D01*
X139421000Y-61187285D01*
X139468619Y-61139666D01*
X139706714Y-60282523D02*
X140373380Y-60282523D01*
X139325761Y-60520619D02*
X140040047Y-60758714D01*
X140040047Y-60139666D01*
%TO.C,C3*%
X138754142Y-61139666D02*
X138801761Y-61187285D01*
X138849380Y-61330142D01*
X138849380Y-61425380D01*
X138801761Y-61568238D01*
X138706523Y-61663476D01*
X138611285Y-61711095D01*
X138420809Y-61758714D01*
X138277952Y-61758714D01*
X138087476Y-61711095D01*
X137992238Y-61663476D01*
X137897000Y-61568238D01*
X137849380Y-61425380D01*
X137849380Y-61330142D01*
X137897000Y-61187285D01*
X137944619Y-61139666D01*
X137849380Y-60806333D02*
X137849380Y-60187285D01*
X138230333Y-60520619D01*
X138230333Y-60377761D01*
X138277952Y-60282523D01*
X138325571Y-60234904D01*
X138420809Y-60187285D01*
X138658904Y-60187285D01*
X138754142Y-60234904D01*
X138801761Y-60282523D01*
X138849380Y-60377761D01*
X138849380Y-60663476D01*
X138801761Y-60758714D01*
X138754142Y-60806333D01*
%TO.C,C2*%
X121306333Y-41476142D02*
X121258714Y-41523761D01*
X121115857Y-41571380D01*
X121020619Y-41571380D01*
X120877761Y-41523761D01*
X120782523Y-41428523D01*
X120734904Y-41333285D01*
X120687285Y-41142809D01*
X120687285Y-40999952D01*
X120734904Y-40809476D01*
X120782523Y-40714238D01*
X120877761Y-40619000D01*
X121020619Y-40571380D01*
X121115857Y-40571380D01*
X121258714Y-40619000D01*
X121306333Y-40666619D01*
X121687285Y-40666619D02*
X121734904Y-40619000D01*
X121830142Y-40571380D01*
X122068238Y-40571380D01*
X122163476Y-40619000D01*
X122211095Y-40666619D01*
X122258714Y-40761857D01*
X122258714Y-40857095D01*
X122211095Y-40999952D01*
X121639666Y-41571380D01*
X122258714Y-41571380D01*
%TO.C,C1*%
X117308333Y-77983142D02*
X117260714Y-78030761D01*
X117117857Y-78078380D01*
X117022619Y-78078380D01*
X116879761Y-78030761D01*
X116784523Y-77935523D01*
X116736904Y-77840285D01*
X116689285Y-77649809D01*
X116689285Y-77506952D01*
X116736904Y-77316476D01*
X116784523Y-77221238D01*
X116879761Y-77126000D01*
X117022619Y-77078380D01*
X117117857Y-77078380D01*
X117260714Y-77126000D01*
X117308333Y-77173619D01*
X118260714Y-78078380D02*
X117689285Y-78078380D01*
X117975000Y-78078380D02*
X117975000Y-77078380D01*
X117879761Y-77221238D01*
X117784523Y-77316476D01*
X117689285Y-77364095D01*
%TO.C,D4*%
X122452904Y-82208380D02*
X122452904Y-81208380D01*
X122691000Y-81208380D01*
X122833857Y-81256000D01*
X122929095Y-81351238D01*
X122976714Y-81446476D01*
X123024333Y-81636952D01*
X123024333Y-81779809D01*
X122976714Y-81970285D01*
X122929095Y-82065523D01*
X122833857Y-82160761D01*
X122691000Y-82208380D01*
X122452904Y-82208380D01*
X123881476Y-81541714D02*
X123881476Y-82208380D01*
X123643380Y-81160761D02*
X123405285Y-81875047D01*
X124024333Y-81875047D01*
%TO.C,D3*%
X113752404Y-80906880D02*
X113752404Y-79906880D01*
X113990500Y-79906880D01*
X114133357Y-79954500D01*
X114228595Y-80049738D01*
X114276214Y-80144976D01*
X114323833Y-80335452D01*
X114323833Y-80478309D01*
X114276214Y-80668785D01*
X114228595Y-80764023D01*
X114133357Y-80859261D01*
X113990500Y-80906880D01*
X113752404Y-80906880D01*
X114657166Y-79906880D02*
X115276214Y-79906880D01*
X114942880Y-80287833D01*
X115085738Y-80287833D01*
X115180976Y-80335452D01*
X115228595Y-80383071D01*
X115276214Y-80478309D01*
X115276214Y-80716404D01*
X115228595Y-80811642D01*
X115180976Y-80859261D01*
X115085738Y-80906880D01*
X114800023Y-80906880D01*
X114704785Y-80859261D01*
X114657166Y-80811642D01*
%TO.C,U3*%
X114765095Y-35916380D02*
X114765095Y-36725904D01*
X114812714Y-36821142D01*
X114860333Y-36868761D01*
X114955571Y-36916380D01*
X115146047Y-36916380D01*
X115241285Y-36868761D01*
X115288904Y-36821142D01*
X115336523Y-36725904D01*
X115336523Y-35916380D01*
X115717476Y-35916380D02*
X116336523Y-35916380D01*
X116003190Y-36297333D01*
X116146047Y-36297333D01*
X116241285Y-36344952D01*
X116288904Y-36392571D01*
X116336523Y-36487809D01*
X116336523Y-36725904D01*
X116288904Y-36821142D01*
X116241285Y-36868761D01*
X116146047Y-36916380D01*
X115860333Y-36916380D01*
X115765095Y-36868761D01*
X115717476Y-36821142D01*
%TO.C,U2*%
X118575095Y-35916380D02*
X118575095Y-36725904D01*
X118622714Y-36821142D01*
X118670333Y-36868761D01*
X118765571Y-36916380D01*
X118956047Y-36916380D01*
X119051285Y-36868761D01*
X119098904Y-36821142D01*
X119146523Y-36725904D01*
X119146523Y-35916380D01*
X119575095Y-36011619D02*
X119622714Y-35964000D01*
X119717952Y-35916380D01*
X119956047Y-35916380D01*
X120051285Y-35964000D01*
X120098904Y-36011619D01*
X120146523Y-36106857D01*
X120146523Y-36202095D01*
X120098904Y-36344952D01*
X119527476Y-36916380D01*
X120146523Y-36916380D01*
%TO.C,U1*%
X139403095Y-60880380D02*
X139403095Y-61689904D01*
X139450714Y-61785142D01*
X139498333Y-61832761D01*
X139593571Y-61880380D01*
X139784047Y-61880380D01*
X139879285Y-61832761D01*
X139926904Y-61785142D01*
X139974523Y-61689904D01*
X139974523Y-60880380D01*
X140974523Y-61880380D02*
X140403095Y-61880380D01*
X140688809Y-61880380D02*
X140688809Y-60880380D01*
X140593571Y-61023238D01*
X140498333Y-61118476D01*
X140403095Y-61166095D01*
%TO.C,TP10*%
X133008904Y-54062380D02*
X133580333Y-54062380D01*
X133294619Y-55062380D02*
X133294619Y-54062380D01*
X133913666Y-55062380D02*
X133913666Y-54062380D01*
X134294619Y-54062380D01*
X134389857Y-54110000D01*
X134437476Y-54157619D01*
X134485095Y-54252857D01*
X134485095Y-54395714D01*
X134437476Y-54490952D01*
X134389857Y-54538571D01*
X134294619Y-54586190D01*
X133913666Y-54586190D01*
X135437476Y-55062380D02*
X134866047Y-55062380D01*
X135151761Y-55062380D02*
X135151761Y-54062380D01*
X135056523Y-54205238D01*
X134961285Y-54300476D01*
X134866047Y-54348095D01*
X136056523Y-54062380D02*
X136151761Y-54062380D01*
X136247000Y-54110000D01*
X136294619Y-54157619D01*
X136342238Y-54252857D01*
X136389857Y-54443333D01*
X136389857Y-54681428D01*
X136342238Y-54871904D01*
X136294619Y-54967142D01*
X136247000Y-55014761D01*
X136151761Y-55062380D01*
X136056523Y-55062380D01*
X135961285Y-55014761D01*
X135913666Y-54967142D01*
X135866047Y-54871904D01*
X135818428Y-54681428D01*
X135818428Y-54443333D01*
X135866047Y-54252857D01*
X135913666Y-54157619D01*
X135961285Y-54110000D01*
X136056523Y-54062380D01*
%TO.C,TP9*%
X133485095Y-61682380D02*
X134056523Y-61682380D01*
X133770809Y-62682380D02*
X133770809Y-61682380D01*
X134389857Y-62682380D02*
X134389857Y-61682380D01*
X134770809Y-61682380D01*
X134866047Y-61730000D01*
X134913666Y-61777619D01*
X134961285Y-61872857D01*
X134961285Y-62015714D01*
X134913666Y-62110952D01*
X134866047Y-62158571D01*
X134770809Y-62206190D01*
X134389857Y-62206190D01*
X135437476Y-62682380D02*
X135627952Y-62682380D01*
X135723190Y-62634761D01*
X135770809Y-62587142D01*
X135866047Y-62444285D01*
X135913666Y-62253809D01*
X135913666Y-61872857D01*
X135866047Y-61777619D01*
X135818428Y-61730000D01*
X135723190Y-61682380D01*
X135532714Y-61682380D01*
X135437476Y-61730000D01*
X135389857Y-61777619D01*
X135342238Y-61872857D01*
X135342238Y-62110952D01*
X135389857Y-62206190D01*
X135437476Y-62253809D01*
X135532714Y-62301428D01*
X135723190Y-62301428D01*
X135818428Y-62253809D01*
X135866047Y-62206190D01*
X135913666Y-62110952D01*
%TO.C,TP8*%
X133485095Y-59142380D02*
X134056523Y-59142380D01*
X133770809Y-60142380D02*
X133770809Y-59142380D01*
X134389857Y-60142380D02*
X134389857Y-59142380D01*
X134770809Y-59142380D01*
X134866047Y-59190000D01*
X134913666Y-59237619D01*
X134961285Y-59332857D01*
X134961285Y-59475714D01*
X134913666Y-59570952D01*
X134866047Y-59618571D01*
X134770809Y-59666190D01*
X134389857Y-59666190D01*
X135532714Y-59570952D02*
X135437476Y-59523333D01*
X135389857Y-59475714D01*
X135342238Y-59380476D01*
X135342238Y-59332857D01*
X135389857Y-59237619D01*
X135437476Y-59190000D01*
X135532714Y-59142380D01*
X135723190Y-59142380D01*
X135818428Y-59190000D01*
X135866047Y-59237619D01*
X135913666Y-59332857D01*
X135913666Y-59380476D01*
X135866047Y-59475714D01*
X135818428Y-59523333D01*
X135723190Y-59570952D01*
X135532714Y-59570952D01*
X135437476Y-59618571D01*
X135389857Y-59666190D01*
X135342238Y-59761428D01*
X135342238Y-59951904D01*
X135389857Y-60047142D01*
X135437476Y-60094761D01*
X135532714Y-60142380D01*
X135723190Y-60142380D01*
X135818428Y-60094761D01*
X135866047Y-60047142D01*
X135913666Y-59951904D01*
X135913666Y-59761428D01*
X135866047Y-59666190D01*
X135818428Y-59618571D01*
X135723190Y-59570952D01*
%TO.C,TP7*%
X133485095Y-56602380D02*
X134056523Y-56602380D01*
X133770809Y-57602380D02*
X133770809Y-56602380D01*
X134389857Y-57602380D02*
X134389857Y-56602380D01*
X134770809Y-56602380D01*
X134866047Y-56650000D01*
X134913666Y-56697619D01*
X134961285Y-56792857D01*
X134961285Y-56935714D01*
X134913666Y-57030952D01*
X134866047Y-57078571D01*
X134770809Y-57126190D01*
X134389857Y-57126190D01*
X135294619Y-56602380D02*
X135961285Y-56602380D01*
X135532714Y-57602380D01*
%TO.C,TP6*%
X133485095Y-64222380D02*
X134056523Y-64222380D01*
X133770809Y-65222380D02*
X133770809Y-64222380D01*
X134389857Y-65222380D02*
X134389857Y-64222380D01*
X134770809Y-64222380D01*
X134866047Y-64270000D01*
X134913666Y-64317619D01*
X134961285Y-64412857D01*
X134961285Y-64555714D01*
X134913666Y-64650952D01*
X134866047Y-64698571D01*
X134770809Y-64746190D01*
X134389857Y-64746190D01*
X135818428Y-64222380D02*
X135627952Y-64222380D01*
X135532714Y-64270000D01*
X135485095Y-64317619D01*
X135389857Y-64460476D01*
X135342238Y-64650952D01*
X135342238Y-65031904D01*
X135389857Y-65127142D01*
X135437476Y-65174761D01*
X135532714Y-65222380D01*
X135723190Y-65222380D01*
X135818428Y-65174761D01*
X135866047Y-65127142D01*
X135913666Y-65031904D01*
X135913666Y-64793809D01*
X135866047Y-64698571D01*
X135818428Y-64650952D01*
X135723190Y-64603333D01*
X135532714Y-64603333D01*
X135437476Y-64650952D01*
X135389857Y-64698571D01*
X135342238Y-64793809D01*
%TO.C,TP5*%
X95258095Y-60412380D02*
X95829523Y-60412380D01*
X95543809Y-61412380D02*
X95543809Y-60412380D01*
X96162857Y-61412380D02*
X96162857Y-60412380D01*
X96543809Y-60412380D01*
X96639047Y-60460000D01*
X96686666Y-60507619D01*
X96734285Y-60602857D01*
X96734285Y-60745714D01*
X96686666Y-60840952D01*
X96639047Y-60888571D01*
X96543809Y-60936190D01*
X96162857Y-60936190D01*
X97639047Y-60412380D02*
X97162857Y-60412380D01*
X97115238Y-60888571D01*
X97162857Y-60840952D01*
X97258095Y-60793333D01*
X97496190Y-60793333D01*
X97591428Y-60840952D01*
X97639047Y-60888571D01*
X97686666Y-60983809D01*
X97686666Y-61221904D01*
X97639047Y-61317142D01*
X97591428Y-61364761D01*
X97496190Y-61412380D01*
X97258095Y-61412380D01*
X97162857Y-61364761D01*
X97115238Y-61317142D01*
%TO.C,TP4*%
X95258095Y-65492380D02*
X95829523Y-65492380D01*
X95543809Y-66492380D02*
X95543809Y-65492380D01*
X96162857Y-66492380D02*
X96162857Y-65492380D01*
X96543809Y-65492380D01*
X96639047Y-65540000D01*
X96686666Y-65587619D01*
X96734285Y-65682857D01*
X96734285Y-65825714D01*
X96686666Y-65920952D01*
X96639047Y-65968571D01*
X96543809Y-66016190D01*
X96162857Y-66016190D01*
X97591428Y-65825714D02*
X97591428Y-66492380D01*
X97353333Y-65444761D02*
X97115238Y-66159047D01*
X97734285Y-66159047D01*
%TO.C,TP3*%
X95258095Y-62952380D02*
X95829523Y-62952380D01*
X95543809Y-63952380D02*
X95543809Y-62952380D01*
X96162857Y-63952380D02*
X96162857Y-62952380D01*
X96543809Y-62952380D01*
X96639047Y-63000000D01*
X96686666Y-63047619D01*
X96734285Y-63142857D01*
X96734285Y-63285714D01*
X96686666Y-63380952D01*
X96639047Y-63428571D01*
X96543809Y-63476190D01*
X96162857Y-63476190D01*
X97067619Y-62952380D02*
X97686666Y-62952380D01*
X97353333Y-63333333D01*
X97496190Y-63333333D01*
X97591428Y-63380952D01*
X97639047Y-63428571D01*
X97686666Y-63523809D01*
X97686666Y-63761904D01*
X97639047Y-63857142D01*
X97591428Y-63904761D01*
X97496190Y-63952380D01*
X97210476Y-63952380D01*
X97115238Y-63904761D01*
X97067619Y-63857142D01*
%TO.C,TP2*%
X95258095Y-57872380D02*
X95829523Y-57872380D01*
X95543809Y-58872380D02*
X95543809Y-57872380D01*
X96162857Y-58872380D02*
X96162857Y-57872380D01*
X96543809Y-57872380D01*
X96639047Y-57920000D01*
X96686666Y-57967619D01*
X96734285Y-58062857D01*
X96734285Y-58205714D01*
X96686666Y-58300952D01*
X96639047Y-58348571D01*
X96543809Y-58396190D01*
X96162857Y-58396190D01*
X97115238Y-57967619D02*
X97162857Y-57920000D01*
X97258095Y-57872380D01*
X97496190Y-57872380D01*
X97591428Y-57920000D01*
X97639047Y-57967619D01*
X97686666Y-58062857D01*
X97686666Y-58158095D01*
X97639047Y-58300952D01*
X97067619Y-58872380D01*
X97686666Y-58872380D01*
%TO.C,TP1*%
X95258095Y-55332380D02*
X95829523Y-55332380D01*
X95543809Y-56332380D02*
X95543809Y-55332380D01*
X96162857Y-56332380D02*
X96162857Y-55332380D01*
X96543809Y-55332380D01*
X96639047Y-55380000D01*
X96686666Y-55427619D01*
X96734285Y-55522857D01*
X96734285Y-55665714D01*
X96686666Y-55760952D01*
X96639047Y-55808571D01*
X96543809Y-55856190D01*
X96162857Y-55856190D01*
X97686666Y-56332380D02*
X97115238Y-56332380D01*
X97400952Y-56332380D02*
X97400952Y-55332380D01*
X97305714Y-55475238D01*
X97210476Y-55570476D01*
X97115238Y-55618095D01*
%TO.C,R6*%
X124358833Y-38334880D02*
X124025500Y-37858690D01*
X123787404Y-38334880D02*
X123787404Y-37334880D01*
X124168357Y-37334880D01*
X124263595Y-37382500D01*
X124311214Y-37430119D01*
X124358833Y-37525357D01*
X124358833Y-37668214D01*
X124311214Y-37763452D01*
X124263595Y-37811071D01*
X124168357Y-37858690D01*
X123787404Y-37858690D01*
X125215976Y-37334880D02*
X125025500Y-37334880D01*
X124930261Y-37382500D01*
X124882642Y-37430119D01*
X124787404Y-37572976D01*
X124739785Y-37763452D01*
X124739785Y-38144404D01*
X124787404Y-38239642D01*
X124835023Y-38287261D01*
X124930261Y-38334880D01*
X125120738Y-38334880D01*
X125215976Y-38287261D01*
X125263595Y-38239642D01*
X125311214Y-38144404D01*
X125311214Y-37906309D01*
X125263595Y-37811071D01*
X125215976Y-37763452D01*
X125120738Y-37715833D01*
X124930261Y-37715833D01*
X124835023Y-37763452D01*
X124787404Y-37811071D01*
X124739785Y-37906309D01*
%TO.C,R5*%
X122072833Y-42770380D02*
X121739500Y-42294190D01*
X121501404Y-42770380D02*
X121501404Y-41770380D01*
X121882357Y-41770380D01*
X121977595Y-41818000D01*
X122025214Y-41865619D01*
X122072833Y-41960857D01*
X122072833Y-42103714D01*
X122025214Y-42198952D01*
X121977595Y-42246571D01*
X121882357Y-42294190D01*
X121501404Y-42294190D01*
X122977595Y-41770380D02*
X122501404Y-41770380D01*
X122453785Y-42246571D01*
X122501404Y-42198952D01*
X122596642Y-42151333D01*
X122834738Y-42151333D01*
X122929976Y-42198952D01*
X122977595Y-42246571D01*
X123025214Y-42341809D01*
X123025214Y-42579904D01*
X122977595Y-42675142D01*
X122929976Y-42722761D01*
X122834738Y-42770380D01*
X122596642Y-42770380D01*
X122501404Y-42722761D01*
X122453785Y-42675142D01*
%TO.C,R4*%
X110661380Y-77765666D02*
X110185190Y-78099000D01*
X110661380Y-78337095D02*
X109661380Y-78337095D01*
X109661380Y-77956142D01*
X109709000Y-77860904D01*
X109756619Y-77813285D01*
X109851857Y-77765666D01*
X109994714Y-77765666D01*
X110089952Y-77813285D01*
X110137571Y-77860904D01*
X110185190Y-77956142D01*
X110185190Y-78337095D01*
X109994714Y-76908523D02*
X110661380Y-76908523D01*
X109613761Y-77146619D02*
X110328047Y-77384714D01*
X110328047Y-76765666D01*
%TO.C,R3*%
X100038333Y-53511380D02*
X99705000Y-53035190D01*
X99466904Y-53511380D02*
X99466904Y-52511380D01*
X99847857Y-52511380D01*
X99943095Y-52559000D01*
X99990714Y-52606619D01*
X100038333Y-52701857D01*
X100038333Y-52844714D01*
X99990714Y-52939952D01*
X99943095Y-52987571D01*
X99847857Y-53035190D01*
X99466904Y-53035190D01*
X100371666Y-52511380D02*
X100990714Y-52511380D01*
X100657380Y-52892333D01*
X100800238Y-52892333D01*
X100895476Y-52939952D01*
X100943095Y-52987571D01*
X100990714Y-53082809D01*
X100990714Y-53320904D01*
X100943095Y-53416142D01*
X100895476Y-53463761D01*
X100800238Y-53511380D01*
X100514523Y-53511380D01*
X100419285Y-53463761D01*
X100371666Y-53416142D01*
%TO.C,R2*%
X140152380Y-56808666D02*
X139676190Y-57142000D01*
X140152380Y-57380095D02*
X139152380Y-57380095D01*
X139152380Y-56999142D01*
X139200000Y-56903904D01*
X139247619Y-56856285D01*
X139342857Y-56808666D01*
X139485714Y-56808666D01*
X139580952Y-56856285D01*
X139628571Y-56903904D01*
X139676190Y-56999142D01*
X139676190Y-57380095D01*
X139247619Y-56427714D02*
X139200000Y-56380095D01*
X139152380Y-56284857D01*
X139152380Y-56046761D01*
X139200000Y-55951523D01*
X139247619Y-55903904D01*
X139342857Y-55856285D01*
X139438095Y-55856285D01*
X139580952Y-55903904D01*
X140152380Y-56475333D01*
X140152380Y-55856285D01*
%TO.C,R1*%
X114258333Y-76679380D02*
X113925000Y-76203190D01*
X113686904Y-76679380D02*
X113686904Y-75679380D01*
X114067857Y-75679380D01*
X114163095Y-75727000D01*
X114210714Y-75774619D01*
X114258333Y-75869857D01*
X114258333Y-76012714D01*
X114210714Y-76107952D01*
X114163095Y-76155571D01*
X114067857Y-76203190D01*
X113686904Y-76203190D01*
X115210714Y-76679380D02*
X114639285Y-76679380D01*
X114925000Y-76679380D02*
X114925000Y-75679380D01*
X114829761Y-75822238D01*
X114734523Y-75917476D01*
X114639285Y-75965095D01*
%TO.C,Q1*%
X116858619Y-78851238D02*
X116811000Y-78946476D01*
X116715761Y-79041714D01*
X116572904Y-79184571D01*
X116525285Y-79279809D01*
X116525285Y-79375047D01*
X116763380Y-79327428D02*
X116715761Y-79422666D01*
X116620523Y-79517904D01*
X116430047Y-79565523D01*
X116096714Y-79565523D01*
X115906238Y-79517904D01*
X115811000Y-79422666D01*
X115763380Y-79327428D01*
X115763380Y-79136952D01*
X115811000Y-79041714D01*
X115906238Y-78946476D01*
X116096714Y-78898857D01*
X116430047Y-78898857D01*
X116620523Y-78946476D01*
X116715761Y-79041714D01*
X116763380Y-79136952D01*
X116763380Y-79327428D01*
X116763380Y-77946476D02*
X116763380Y-78517904D01*
X116763380Y-78232190D02*
X115763380Y-78232190D01*
X115906238Y-78327428D01*
X116001476Y-78422666D01*
X116049095Y-78517904D01*
%TO.C,IC1*%
D14*
X92400508Y-59142466D02*
X91400225Y-59142466D01*
X92305243Y-58094551D02*
X92352876Y-58142183D01*
X92400508Y-58285081D01*
X92400508Y-58380346D01*
X92352876Y-58523243D01*
X92257611Y-58618508D01*
X92162346Y-58666141D01*
X91971816Y-58713774D01*
X91828918Y-58713774D01*
X91638388Y-58666141D01*
X91543123Y-58618508D01*
X91447858Y-58523243D01*
X91400225Y-58380346D01*
X91400225Y-58285081D01*
X91447858Y-58142183D01*
X91495491Y-58094551D01*
X92400508Y-57141900D02*
X92400508Y-57713491D01*
X92400508Y-57427695D02*
X91400225Y-57427695D01*
X91543123Y-57522960D01*
X91638388Y-57618225D01*
X91686021Y-57713491D01*
%TO.C,F1*%
D13*
X98698666Y-51492571D02*
X98365333Y-51492571D01*
X98365333Y-52016380D02*
X98365333Y-51016380D01*
X98841523Y-51016380D01*
X99746285Y-52016380D02*
X99174857Y-52016380D01*
X99460571Y-52016380D02*
X99460571Y-51016380D01*
X99365333Y-51159238D01*
X99270095Y-51254476D01*
X99174857Y-51302095D01*
%TO.C,D2*%
X111671380Y-77852595D02*
X110671380Y-77852595D01*
X110671380Y-77614500D01*
X110719000Y-77471642D01*
X110814238Y-77376404D01*
X110909476Y-77328785D01*
X111099952Y-77281166D01*
X111242809Y-77281166D01*
X111433285Y-77328785D01*
X111528523Y-77376404D01*
X111623761Y-77471642D01*
X111671380Y-77614500D01*
X111671380Y-77852595D01*
X110766619Y-76900214D02*
X110719000Y-76852595D01*
X110671380Y-76757357D01*
X110671380Y-76519261D01*
X110719000Y-76424023D01*
X110766619Y-76376404D01*
X110861857Y-76328785D01*
X110957095Y-76328785D01*
X111099952Y-76376404D01*
X111671380Y-76947833D01*
X111671380Y-76328785D01*
%TO.C,D1*%
X113195380Y-77852595D02*
X112195380Y-77852595D01*
X112195380Y-77614500D01*
X112243000Y-77471642D01*
X112338238Y-77376404D01*
X112433476Y-77328785D01*
X112623952Y-77281166D01*
X112766809Y-77281166D01*
X112957285Y-77328785D01*
X113052523Y-77376404D01*
X113147761Y-77471642D01*
X113195380Y-77614500D01*
X113195380Y-77852595D01*
X113195380Y-76328785D02*
X113195380Y-76900214D01*
X113195380Y-76614500D02*
X112195380Y-76614500D01*
X112338238Y-76709738D01*
X112433476Y-76804976D01*
X112481095Y-76900214D01*
%TD*%
M02*
