%TF.GenerationSoftware,KiCad,Pcbnew,5.1.8*%
%TF.CreationDate,2020-11-30T19:21:11+01:00*%
%TF.ProjectId,lipo-stamp-proto,6c69706f-2d73-4746-916d-702d70726f74,rev?*%
%TF.SameCoordinates,Original*%
%TF.FileFunction,Other,User*%
%FSLAX46Y46*%
G04 Gerber Fmt 4.6, Leading zero omitted, Abs format (unit mm)*
G04 Created by KiCad (PCBNEW 5.1.8) date 2020-11-30 19:21:11*
%MOMM*%
%LPD*%
G01*
G04 APERTURE LIST*
%ADD10C,0.050000*%
G04 APERTURE END LIST*
D10*
%TO.C,C7*%
X112045500Y-61181500D02*
X112045500Y-64141500D01*
X110585500Y-61181500D02*
X112045500Y-61181500D01*
X110585500Y-64141500D02*
X110585500Y-61181500D01*
X112045500Y-64141500D02*
X110585500Y-64141500D01*
%TO.C,C6*%
X121253000Y-57842000D02*
X121253000Y-60802000D01*
X119793000Y-57842000D02*
X121253000Y-57842000D01*
X119793000Y-60802000D02*
X119793000Y-57842000D01*
X121253000Y-60802000D02*
X119793000Y-60802000D01*
%TO.C,R6*%
X122535000Y-52546000D02*
X122535000Y-51086000D01*
X122535000Y-51086000D02*
X125495000Y-51086000D01*
X125495000Y-51086000D02*
X125495000Y-52546000D01*
X125495000Y-52546000D02*
X122535000Y-52546000D01*
%TO.C,C5*%
X122396000Y-54007500D02*
X120936000Y-54007500D01*
X120936000Y-54007500D02*
X120936000Y-51047500D01*
X120936000Y-51047500D02*
X122396000Y-51047500D01*
X122396000Y-51047500D02*
X122396000Y-54007500D01*
%TO.C,C4*%
X122777000Y-60802000D02*
X121317000Y-60802000D01*
X121317000Y-60802000D02*
X121317000Y-57842000D01*
X121317000Y-57842000D02*
X122777000Y-57842000D01*
X122777000Y-57842000D02*
X122777000Y-60802000D01*
%TO.C,C3*%
X119729000Y-60802000D02*
X118269000Y-60802000D01*
X118269000Y-60802000D02*
X118269000Y-57842000D01*
X118269000Y-57842000D02*
X119729000Y-57842000D01*
X119729000Y-57842000D02*
X119729000Y-60802000D01*
%TO.C,C2*%
X119392000Y-57241000D02*
X119392000Y-55281000D01*
X119392000Y-55281000D02*
X122792000Y-55281000D01*
X122792000Y-55281000D02*
X122792000Y-57241000D01*
X122792000Y-57241000D02*
X119392000Y-57241000D01*
%TO.C,C1*%
X118794000Y-62520000D02*
X118794000Y-64480000D01*
X118794000Y-64480000D02*
X115394000Y-64480000D01*
X115394000Y-64480000D02*
X115394000Y-62520000D01*
X115394000Y-62520000D02*
X118794000Y-62520000D01*
%TO.C,D4*%
X125160000Y-68460000D02*
X120460000Y-68460000D01*
X120460000Y-68460000D02*
X120460000Y-66160000D01*
X120460000Y-66160000D02*
X125160000Y-66160000D01*
X125160000Y-68460000D02*
X125160000Y-66160000D01*
%TO.C,D3*%
X113220000Y-68460000D02*
X108520000Y-68460000D01*
X108520000Y-68460000D02*
X108520000Y-66160000D01*
X108520000Y-66160000D02*
X113220000Y-66160000D01*
X113220000Y-68460000D02*
X113220000Y-66160000D01*
%TO.C,U3*%
X117046000Y-51026000D02*
X113246000Y-51026000D01*
X117046000Y-54626000D02*
X117046000Y-51026000D01*
X113246000Y-54626000D02*
X117046000Y-54626000D01*
X113246000Y-51026000D02*
X113246000Y-54626000D01*
%TO.C,U2*%
X120856000Y-51026000D02*
X117056000Y-51026000D01*
X120856000Y-54626000D02*
X120856000Y-51026000D01*
X117056000Y-54626000D02*
X120856000Y-54626000D01*
X117056000Y-51026000D02*
X117056000Y-54626000D01*
%TO.C,U1*%
X118961000Y-60877000D02*
X122761000Y-60877000D01*
X122761000Y-60877000D02*
X122761000Y-64477000D01*
X122761000Y-64477000D02*
X118961000Y-64477000D01*
X118961000Y-64477000D02*
X118961000Y-60877000D01*
%TO.C,R5*%
X122788500Y-54140000D02*
X122788500Y-55080000D01*
X122788500Y-55080000D02*
X120928500Y-55080000D01*
X120928500Y-55080000D02*
X120928500Y-54140000D01*
X120928500Y-54140000D02*
X122788500Y-54140000D01*
%TO.C,R4*%
X111468000Y-66083000D02*
X110528000Y-66083000D01*
X110528000Y-66083000D02*
X110528000Y-64223000D01*
X110528000Y-64223000D02*
X111468000Y-64223000D01*
X111468000Y-64223000D02*
X111468000Y-66083000D01*
%TO.C,R3*%
X110578000Y-54191000D02*
X110578000Y-53251000D01*
X110578000Y-53251000D02*
X112438000Y-53251000D01*
X112438000Y-53251000D02*
X112438000Y-54191000D01*
X112438000Y-54191000D02*
X110578000Y-54191000D01*
%TO.C,R2*%
X119088000Y-57193000D02*
X118148000Y-57193000D01*
X118148000Y-57193000D02*
X118148000Y-55333000D01*
X118148000Y-55333000D02*
X119088000Y-55333000D01*
X119088000Y-55333000D02*
X119088000Y-57193000D01*
%TO.C,R1*%
X114974000Y-62141000D02*
X114974000Y-63081000D01*
X114974000Y-63081000D02*
X113114000Y-63081000D01*
X113114000Y-63081000D02*
X113114000Y-62141000D01*
X113114000Y-62141000D02*
X114974000Y-62141000D01*
%TO.C,Q1*%
X116680000Y-68010000D02*
X116680000Y-64610000D01*
X116680000Y-64610000D02*
X120180000Y-64610000D01*
X120180000Y-64610000D02*
X120180000Y-68010000D01*
X120180000Y-68010000D02*
X116680000Y-68010000D01*
%TO.C,F1*%
X113069000Y-50990000D02*
X113069000Y-53150000D01*
X113069000Y-53150000D02*
X108109000Y-53150000D01*
X108109000Y-53150000D02*
X108109000Y-50990000D01*
X108109000Y-50990000D02*
X113069000Y-50990000D01*
%TO.C,D2*%
X113569500Y-66148500D02*
X112109500Y-66148500D01*
X112109500Y-66148500D02*
X112109500Y-63188500D01*
X112109500Y-63188500D02*
X113569500Y-63188500D01*
X113569500Y-63188500D02*
X113569500Y-66148500D01*
%TO.C,D1*%
X115093500Y-66148500D02*
X113633500Y-66148500D01*
X113633500Y-66148500D02*
X113633500Y-63188500D01*
X113633500Y-63188500D02*
X115093500Y-63188500D01*
X115093500Y-63188500D02*
X115093500Y-66148500D01*
%TD*%
M02*
