M48
; DRILL file {KiCad 5.1.8} date Sun Nov 29 14:50:36 2020
; FORMAT={-:-/ absolute / inch / decimal}
; #@! TF.CreationDate,2020-11-29T14:50:36+01:00
; #@! TF.GenerationSoftware,Kicad,Pcbnew,5.1.8
FMAT,2
INCH
T1C0.0079
T2C0.0125
T3C0.0250
T4C0.0394
%
G90
G05
T1
X4.4425Y-2.27
X4.4425Y-2.305
X4.4425Y-2.34
X4.48Y-2.27
X4.48Y-2.305
X4.48Y-2.34
X4.485Y-2.15
X4.535Y-2.27
X4.535Y-2.34
X4.59Y-2.27
X4.59Y-2.305
X4.59Y-2.34
X4.6275Y-2.27
X4.6275Y-2.305
X4.6275Y-2.34
X4.705Y-2.54
T2
X4.365Y-2.645
X4.375Y-2.165
X4.38Y-2.3
X4.395Y-2.615
X4.42Y-2.465
X4.46Y-2.61
X4.5325Y-2.03
X4.68Y-2.08
X4.69Y-2.0425
X4.705Y-2.3
X4.835Y-2.1075
X4.865Y-2.085
T3
X4.41Y-2.13
X4.485Y-2.65
X4.57Y-2.65
X4.575Y-2.565
X4.69Y-2.385
X4.76Y-2.55
X4.83Y-2.65
T4
X4.3Y-2.25
X4.3Y-2.45
X4.9Y-2.45
X4.9Y-2.55
X4.9Y-2.35
X4.3Y-2.15
X4.3Y-2.55
X4.9Y-2.25
X4.3Y-2.35
X4.9Y-2.15
T0
M30
