%TF.GenerationSoftware,KiCad,Pcbnew,5.1.8*%
%TF.CreationDate,2020-11-29T14:50:24+01:00*%
%TF.ProjectId,lipo-stamp-proto,6c69706f-2d73-4746-916d-702d70726f74,rev?*%
%TF.SameCoordinates,Original*%
%TF.FileFunction,Copper,L1,Top*%
%TF.FilePolarity,Positive*%
%FSLAX46Y46*%
G04 Gerber Fmt 4.6, Leading zero omitted, Abs format (unit mm)*
G04 Created by KiCad (PCBNEW 5.1.8) date 2020-11-29 14:50:24*
%MOMM*%
%LPD*%
G01*
G04 APERTURE LIST*
%TA.AperFunction,SMDPad,CuDef*%
%ADD10R,0.900000X1.200000*%
%TD*%
%TA.AperFunction,SMDPad,CuDef*%
%ADD11R,1.060000X0.650000*%
%TD*%
%TA.AperFunction,SMDPad,CuDef*%
%ADD12R,0.800000X0.900000*%
%TD*%
%TA.AperFunction,SMDPad,CuDef*%
%ADD13R,3.400000X2.400000*%
%TD*%
%TA.AperFunction,SMDPad,CuDef*%
%ADD14R,0.700000X1.300000*%
%TD*%
%TA.AperFunction,ViaPad*%
%ADD15C,0.450000*%
%TD*%
%TA.AperFunction,ViaPad*%
%ADD16C,1.270000*%
%TD*%
%TA.AperFunction,ViaPad*%
%ADD17C,0.635000*%
%TD*%
%TA.AperFunction,Conductor*%
%ADD18C,0.635000*%
%TD*%
%TA.AperFunction,Conductor*%
%ADD19C,0.317500*%
%TD*%
%TA.AperFunction,Conductor*%
%ADD20C,0.250000*%
%TD*%
%TA.AperFunction,Conductor*%
%ADD21C,0.100000*%
%TD*%
%TA.AperFunction,Conductor*%
%ADD22C,0.254000*%
%TD*%
G04 APERTURE END LIST*
%TO.P,R6,2*%
%TO.N,GND*%
%TA.AperFunction,SMDPad,CuDef*%
G36*
G01*
X124440000Y-52091000D02*
X124440000Y-51541000D01*
G75*
G02*
X124640000Y-51341000I200000J0D01*
G01*
X125040000Y-51341000D01*
G75*
G02*
X125240000Y-51541000I0J-200000D01*
G01*
X125240000Y-52091000D01*
G75*
G02*
X125040000Y-52291000I-200000J0D01*
G01*
X124640000Y-52291000D01*
G75*
G02*
X124440000Y-52091000I0J200000D01*
G01*
G37*
%TD.AperFunction*%
%TO.P,R6,1*%
%TO.N,Net-(R6-Pad1)*%
%TA.AperFunction,SMDPad,CuDef*%
G36*
G01*
X122790000Y-52091000D02*
X122790000Y-51541000D01*
G75*
G02*
X122990000Y-51341000I200000J0D01*
G01*
X123390000Y-51341000D01*
G75*
G02*
X123590000Y-51541000I0J-200000D01*
G01*
X123590000Y-52091000D01*
G75*
G02*
X123390000Y-52291000I-200000J0D01*
G01*
X122990000Y-52291000D01*
G75*
G02*
X122790000Y-52091000I0J200000D01*
G01*
G37*
%TD.AperFunction*%
%TD*%
%TO.P,C5,2*%
%TO.N,/-BATT*%
%TA.AperFunction,SMDPad,CuDef*%
G36*
G01*
X121916000Y-52202500D02*
X121416000Y-52202500D01*
G75*
G02*
X121191000Y-51977500I0J225000D01*
G01*
X121191000Y-51527500D01*
G75*
G02*
X121416000Y-51302500I225000J0D01*
G01*
X121916000Y-51302500D01*
G75*
G02*
X122141000Y-51527500I0J-225000D01*
G01*
X122141000Y-51977500D01*
G75*
G02*
X121916000Y-52202500I-225000J0D01*
G01*
G37*
%TD.AperFunction*%
%TO.P,C5,1*%
%TO.N,Net-(C5-Pad1)*%
%TA.AperFunction,SMDPad,CuDef*%
G36*
G01*
X121916000Y-53752500D02*
X121416000Y-53752500D01*
G75*
G02*
X121191000Y-53527500I0J225000D01*
G01*
X121191000Y-53077500D01*
G75*
G02*
X121416000Y-52852500I225000J0D01*
G01*
X121916000Y-52852500D01*
G75*
G02*
X122141000Y-53077500I0J-225000D01*
G01*
X122141000Y-53527500D01*
G75*
G02*
X121916000Y-53752500I-225000J0D01*
G01*
G37*
%TD.AperFunction*%
%TD*%
%TO.P,C4,2*%
%TO.N,GND*%
%TA.AperFunction,SMDPad,CuDef*%
G36*
G01*
X122297000Y-58997000D02*
X121797000Y-58997000D01*
G75*
G02*
X121572000Y-58772000I0J225000D01*
G01*
X121572000Y-58322000D01*
G75*
G02*
X121797000Y-58097000I225000J0D01*
G01*
X122297000Y-58097000D01*
G75*
G02*
X122522000Y-58322000I0J-225000D01*
G01*
X122522000Y-58772000D01*
G75*
G02*
X122297000Y-58997000I-225000J0D01*
G01*
G37*
%TD.AperFunction*%
%TO.P,C4,1*%
%TO.N,/+3v3*%
%TA.AperFunction,SMDPad,CuDef*%
G36*
G01*
X122297000Y-60547000D02*
X121797000Y-60547000D01*
G75*
G02*
X121572000Y-60322000I0J225000D01*
G01*
X121572000Y-59872000D01*
G75*
G02*
X121797000Y-59647000I225000J0D01*
G01*
X122297000Y-59647000D01*
G75*
G02*
X122522000Y-59872000I0J-225000D01*
G01*
X122522000Y-60322000D01*
G75*
G02*
X122297000Y-60547000I-225000J0D01*
G01*
G37*
%TD.AperFunction*%
%TD*%
%TO.P,C3,2*%
%TO.N,GND*%
%TA.AperFunction,SMDPad,CuDef*%
G36*
G01*
X120773000Y-58997000D02*
X120273000Y-58997000D01*
G75*
G02*
X120048000Y-58772000I0J225000D01*
G01*
X120048000Y-58322000D01*
G75*
G02*
X120273000Y-58097000I225000J0D01*
G01*
X120773000Y-58097000D01*
G75*
G02*
X120998000Y-58322000I0J-225000D01*
G01*
X120998000Y-58772000D01*
G75*
G02*
X120773000Y-58997000I-225000J0D01*
G01*
G37*
%TD.AperFunction*%
%TO.P,C3,1*%
%TO.N,/VMAX*%
%TA.AperFunction,SMDPad,CuDef*%
G36*
G01*
X120773000Y-60547000D02*
X120273000Y-60547000D01*
G75*
G02*
X120048000Y-60322000I0J225000D01*
G01*
X120048000Y-59872000D01*
G75*
G02*
X120273000Y-59647000I225000J0D01*
G01*
X120773000Y-59647000D01*
G75*
G02*
X120998000Y-59872000I0J-225000D01*
G01*
X120998000Y-60322000D01*
G75*
G02*
X120773000Y-60547000I-225000J0D01*
G01*
G37*
%TD.AperFunction*%
%TD*%
%TO.P,C2,2*%
%TO.N,GND*%
%TA.AperFunction,SMDPad,CuDef*%
G36*
G01*
X121542000Y-56736000D02*
X121542000Y-55786000D01*
G75*
G02*
X121792000Y-55536000I250000J0D01*
G01*
X122292000Y-55536000D01*
G75*
G02*
X122542000Y-55786000I0J-250000D01*
G01*
X122542000Y-56736000D01*
G75*
G02*
X122292000Y-56986000I-250000J0D01*
G01*
X121792000Y-56986000D01*
G75*
G02*
X121542000Y-56736000I0J250000D01*
G01*
G37*
%TD.AperFunction*%
%TO.P,C2,1*%
%TO.N,/+BATT*%
%TA.AperFunction,SMDPad,CuDef*%
G36*
G01*
X119642000Y-56736000D02*
X119642000Y-55786000D01*
G75*
G02*
X119892000Y-55536000I250000J0D01*
G01*
X120392000Y-55536000D01*
G75*
G02*
X120642000Y-55786000I0J-250000D01*
G01*
X120642000Y-56736000D01*
G75*
G02*
X120392000Y-56986000I-250000J0D01*
G01*
X119892000Y-56986000D01*
G75*
G02*
X119642000Y-56736000I0J250000D01*
G01*
G37*
%TD.AperFunction*%
%TD*%
%TO.P,C1,2*%
%TO.N,GND*%
%TA.AperFunction,SMDPad,CuDef*%
G36*
G01*
X116644000Y-63025000D02*
X116644000Y-63975000D01*
G75*
G02*
X116394000Y-64225000I-250000J0D01*
G01*
X115894000Y-64225000D01*
G75*
G02*
X115644000Y-63975000I0J250000D01*
G01*
X115644000Y-63025000D01*
G75*
G02*
X115894000Y-62775000I250000J0D01*
G01*
X116394000Y-62775000D01*
G75*
G02*
X116644000Y-63025000I0J-250000D01*
G01*
G37*
%TD.AperFunction*%
%TO.P,C1,1*%
%TO.N,Net-(C1-Pad1)*%
%TA.AperFunction,SMDPad,CuDef*%
G36*
G01*
X118544000Y-63025000D02*
X118544000Y-63975000D01*
G75*
G02*
X118294000Y-64225000I-250000J0D01*
G01*
X117794000Y-64225000D01*
G75*
G02*
X117544000Y-63975000I0J250000D01*
G01*
X117544000Y-63025000D01*
G75*
G02*
X117794000Y-62775000I250000J0D01*
G01*
X118294000Y-62775000D01*
G75*
G02*
X118544000Y-63025000I0J-250000D01*
G01*
G37*
%TD.AperFunction*%
%TD*%
D10*
%TO.P,D4,2*%
%TO.N,/+CHARGE*%
X121160000Y-67310000D03*
%TO.P,D4,1*%
%TO.N,/VMAX*%
X124460000Y-67310000D03*
%TD*%
%TO.P,D3,2*%
%TO.N,/+CHARGE*%
X109220000Y-67310000D03*
%TO.P,D3,1*%
%TO.N,Net-(C1-Pad1)*%
X112520000Y-67310000D03*
%TD*%
D11*
%TO.P,U3,5*%
%TO.N,Net-(U3-Pad2)*%
X116246000Y-52826000D03*
%TO.P,U3,6*%
%TO.N,Net-(U2-Pad1)*%
X116246000Y-51876000D03*
%TO.P,U3,4*%
%TO.N,Net-(U2-Pad3)*%
X116246000Y-53776000D03*
%TO.P,U3,3*%
%TO.N,GND*%
X114046000Y-53776000D03*
%TO.P,U3,2*%
%TO.N,Net-(U3-Pad2)*%
X114046000Y-52826000D03*
%TO.P,U3,1*%
%TO.N,/-BATT*%
X114046000Y-51876000D03*
%TD*%
%TO.P,U2,5*%
%TO.N,Net-(C5-Pad1)*%
X120056000Y-52826000D03*
%TO.P,U2,6*%
%TO.N,/-BATT*%
X120056000Y-51876000D03*
%TO.P,U2,4*%
%TO.N,Net-(U2-Pad4)*%
X120056000Y-53776000D03*
%TO.P,U2,3*%
%TO.N,Net-(U2-Pad3)*%
X117856000Y-53776000D03*
%TO.P,U2,2*%
%TO.N,Net-(R6-Pad1)*%
X117856000Y-52826000D03*
%TO.P,U2,1*%
%TO.N,Net-(U2-Pad1)*%
X117856000Y-51876000D03*
%TD*%
%TO.P,U1,5*%
%TO.N,/+3v3*%
X121961000Y-61727000D03*
%TO.P,U1,4*%
%TO.N,Net-(U1-Pad4)*%
X121961000Y-63627000D03*
%TO.P,U1,3*%
%TO.N,/3v3_EN*%
X119761000Y-63627000D03*
%TO.P,U1,2*%
%TO.N,GND*%
X119761000Y-62677000D03*
%TO.P,U1,1*%
%TO.N,/VMAX*%
X119761000Y-61727000D03*
%TD*%
%TO.P,TP10,1*%
%TO.N,GND*%
%TA.AperFunction,ComponentPad*%
G36*
G01*
X123460000Y-55110000D02*
X123460000Y-54110000D01*
G75*
G02*
X123960000Y-53610000I500000J0D01*
G01*
X124960000Y-53610000D01*
G75*
G02*
X125460000Y-54110000I0J-500000D01*
G01*
X125460000Y-55110000D01*
G75*
G02*
X124960000Y-55610000I-500000J0D01*
G01*
X123960000Y-55610000D01*
G75*
G02*
X123460000Y-55110000I0J500000D01*
G01*
G37*
%TD.AperFunction*%
%TD*%
%TO.P,TP9,1*%
%TO.N,/STAT*%
%TA.AperFunction,ComponentPad*%
G36*
G01*
X123460000Y-62730000D02*
X123460000Y-61730000D01*
G75*
G02*
X123960000Y-61230000I500000J0D01*
G01*
X124960000Y-61230000D01*
G75*
G02*
X125460000Y-61730000I0J-500000D01*
G01*
X125460000Y-62730000D01*
G75*
G02*
X124960000Y-63230000I-500000J0D01*
G01*
X123960000Y-63230000D01*
G75*
G02*
X123460000Y-62730000I0J500000D01*
G01*
G37*
%TD.AperFunction*%
%TD*%
%TO.P,TP8,1*%
%TO.N,/+3v3*%
%TA.AperFunction,ComponentPad*%
G36*
G01*
X123460000Y-60190000D02*
X123460000Y-59190000D01*
G75*
G02*
X123960000Y-58690000I500000J0D01*
G01*
X124960000Y-58690000D01*
G75*
G02*
X125460000Y-59190000I0J-500000D01*
G01*
X125460000Y-60190000D01*
G75*
G02*
X124960000Y-60690000I-500000J0D01*
G01*
X123960000Y-60690000D01*
G75*
G02*
X123460000Y-60190000I0J500000D01*
G01*
G37*
%TD.AperFunction*%
%TD*%
%TO.P,TP7,1*%
%TO.N,/+BATT*%
%TA.AperFunction,ComponentPad*%
G36*
G01*
X123460000Y-57650000D02*
X123460000Y-56650000D01*
G75*
G02*
X123960000Y-56150000I500000J0D01*
G01*
X124960000Y-56150000D01*
G75*
G02*
X125460000Y-56650000I0J-500000D01*
G01*
X125460000Y-57650000D01*
G75*
G02*
X124960000Y-58150000I-500000J0D01*
G01*
X123960000Y-58150000D01*
G75*
G02*
X123460000Y-57650000I0J500000D01*
G01*
G37*
%TD.AperFunction*%
%TD*%
%TO.P,TP6,1*%
%TO.N,/VMAX*%
%TA.AperFunction,ComponentPad*%
G36*
G01*
X123460000Y-65270000D02*
X123460000Y-64270000D01*
G75*
G02*
X123960000Y-63770000I500000J0D01*
G01*
X124960000Y-63770000D01*
G75*
G02*
X125460000Y-64270000I0J-500000D01*
G01*
X125460000Y-65270000D01*
G75*
G02*
X124960000Y-65770000I-500000J0D01*
G01*
X123960000Y-65770000D01*
G75*
G02*
X123460000Y-65270000I0J500000D01*
G01*
G37*
%TD.AperFunction*%
%TD*%
%TO.P,TP5,1*%
%TO.N,/3v3_EN*%
%TA.AperFunction,ComponentPad*%
G36*
G01*
X108220000Y-60190000D02*
X108220000Y-59190000D01*
G75*
G02*
X108720000Y-58690000I500000J0D01*
G01*
X109720000Y-58690000D01*
G75*
G02*
X110220000Y-59190000I0J-500000D01*
G01*
X110220000Y-60190000D01*
G75*
G02*
X109720000Y-60690000I-500000J0D01*
G01*
X108720000Y-60690000D01*
G75*
G02*
X108220000Y-60190000I0J500000D01*
G01*
G37*
%TD.AperFunction*%
%TD*%
%TO.P,TP4,1*%
%TO.N,/+CHARGE*%
%TA.AperFunction,ComponentPad*%
G36*
G01*
X108220000Y-65270000D02*
X108220000Y-64270000D01*
G75*
G02*
X108720000Y-63770000I500000J0D01*
G01*
X109720000Y-63770000D01*
G75*
G02*
X110220000Y-64270000I0J-500000D01*
G01*
X110220000Y-65270000D01*
G75*
G02*
X109720000Y-65770000I-500000J0D01*
G01*
X108720000Y-65770000D01*
G75*
G02*
X108220000Y-65270000I0J500000D01*
G01*
G37*
%TD.AperFunction*%
%TD*%
%TO.P,TP3,1*%
%TO.N,GND*%
%TA.AperFunction,ComponentPad*%
G36*
G01*
X108220000Y-62730000D02*
X108220000Y-61730000D01*
G75*
G02*
X108720000Y-61230000I500000J0D01*
G01*
X109720000Y-61230000D01*
G75*
G02*
X110220000Y-61730000I0J-500000D01*
G01*
X110220000Y-62730000D01*
G75*
G02*
X109720000Y-63230000I-500000J0D01*
G01*
X108720000Y-63230000D01*
G75*
G02*
X108220000Y-62730000I0J500000D01*
G01*
G37*
%TD.AperFunction*%
%TD*%
%TO.P,TP2,1*%
%TO.N,/+BATT*%
%TA.AperFunction,ComponentPad*%
G36*
G01*
X108220000Y-57650000D02*
X108220000Y-56650000D01*
G75*
G02*
X108720000Y-56150000I500000J0D01*
G01*
X109720000Y-56150000D01*
G75*
G02*
X110220000Y-56650000I0J-500000D01*
G01*
X110220000Y-57650000D01*
G75*
G02*
X109720000Y-58150000I-500000J0D01*
G01*
X108720000Y-58150000D01*
G75*
G02*
X108220000Y-57650000I0J500000D01*
G01*
G37*
%TD.AperFunction*%
%TD*%
%TO.P,TP1,1*%
%TO.N,/-BATT_RAW*%
%TA.AperFunction,ComponentPad*%
G36*
G01*
X108220000Y-55110000D02*
X108220000Y-54110000D01*
G75*
G02*
X108720000Y-53610000I500000J0D01*
G01*
X109720000Y-53610000D01*
G75*
G02*
X110220000Y-54110000I0J-500000D01*
G01*
X110220000Y-55110000D01*
G75*
G02*
X109720000Y-55610000I-500000J0D01*
G01*
X108720000Y-55610000D01*
G75*
G02*
X108220000Y-55110000I0J500000D01*
G01*
G37*
%TD.AperFunction*%
%TD*%
%TO.P,R5,2*%
%TO.N,Net-(C5-Pad1)*%
%TA.AperFunction,SMDPad,CuDef*%
G36*
G01*
X121618500Y-54425000D02*
X121618500Y-54795000D01*
G75*
G02*
X121483500Y-54930000I-135000J0D01*
G01*
X121213500Y-54930000D01*
G75*
G02*
X121078500Y-54795000I0J135000D01*
G01*
X121078500Y-54425000D01*
G75*
G02*
X121213500Y-54290000I135000J0D01*
G01*
X121483500Y-54290000D01*
G75*
G02*
X121618500Y-54425000I0J-135000D01*
G01*
G37*
%TD.AperFunction*%
%TO.P,R5,1*%
%TO.N,/+BATT*%
%TA.AperFunction,SMDPad,CuDef*%
G36*
G01*
X122638500Y-54425000D02*
X122638500Y-54795000D01*
G75*
G02*
X122503500Y-54930000I-135000J0D01*
G01*
X122233500Y-54930000D01*
G75*
G02*
X122098500Y-54795000I0J135000D01*
G01*
X122098500Y-54425000D01*
G75*
G02*
X122233500Y-54290000I135000J0D01*
G01*
X122503500Y-54290000D01*
G75*
G02*
X122638500Y-54425000I0J-135000D01*
G01*
G37*
%TD.AperFunction*%
%TD*%
%TO.P,R4,2*%
%TO.N,/+CHARGE*%
%TA.AperFunction,SMDPad,CuDef*%
G36*
G01*
X111183000Y-64913000D02*
X110813000Y-64913000D01*
G75*
G02*
X110678000Y-64778000I0J135000D01*
G01*
X110678000Y-64508000D01*
G75*
G02*
X110813000Y-64373000I135000J0D01*
G01*
X111183000Y-64373000D01*
G75*
G02*
X111318000Y-64508000I0J-135000D01*
G01*
X111318000Y-64778000D01*
G75*
G02*
X111183000Y-64913000I-135000J0D01*
G01*
G37*
%TD.AperFunction*%
%TO.P,R4,1*%
%TO.N,GND*%
%TA.AperFunction,SMDPad,CuDef*%
G36*
G01*
X111183000Y-65933000D02*
X110813000Y-65933000D01*
G75*
G02*
X110678000Y-65798000I0J135000D01*
G01*
X110678000Y-65528000D01*
G75*
G02*
X110813000Y-65393000I135000J0D01*
G01*
X111183000Y-65393000D01*
G75*
G02*
X111318000Y-65528000I0J-135000D01*
G01*
X111318000Y-65798000D01*
G75*
G02*
X111183000Y-65933000I-135000J0D01*
G01*
G37*
%TD.AperFunction*%
%TD*%
%TO.P,R3,2*%
%TO.N,/STAT*%
%TA.AperFunction,SMDPad,CuDef*%
G36*
G01*
X112002000Y-56700000D02*
X112002000Y-56330000D01*
G75*
G02*
X112137000Y-56195000I135000J0D01*
G01*
X112407000Y-56195000D01*
G75*
G02*
X112542000Y-56330000I0J-135000D01*
G01*
X112542000Y-56700000D01*
G75*
G02*
X112407000Y-56835000I-135000J0D01*
G01*
X112137000Y-56835000D01*
G75*
G02*
X112002000Y-56700000I0J135000D01*
G01*
G37*
%TD.AperFunction*%
%TO.P,R3,1*%
%TO.N,Net-(D2-Pad1)*%
%TA.AperFunction,SMDPad,CuDef*%
G36*
G01*
X110982000Y-56700000D02*
X110982000Y-56330000D01*
G75*
G02*
X111117000Y-56195000I135000J0D01*
G01*
X111387000Y-56195000D01*
G75*
G02*
X111522000Y-56330000I0J-135000D01*
G01*
X111522000Y-56700000D01*
G75*
G02*
X111387000Y-56835000I-135000J0D01*
G01*
X111117000Y-56835000D01*
G75*
G02*
X110982000Y-56700000I0J135000D01*
G01*
G37*
%TD.AperFunction*%
%TD*%
%TO.P,R2,2*%
%TO.N,/charge-controller/~STDBY*%
%TA.AperFunction,SMDPad,CuDef*%
G36*
G01*
X118803000Y-56023000D02*
X118433000Y-56023000D01*
G75*
G02*
X118298000Y-55888000I0J135000D01*
G01*
X118298000Y-55618000D01*
G75*
G02*
X118433000Y-55483000I135000J0D01*
G01*
X118803000Y-55483000D01*
G75*
G02*
X118938000Y-55618000I0J-135000D01*
G01*
X118938000Y-55888000D01*
G75*
G02*
X118803000Y-56023000I-135000J0D01*
G01*
G37*
%TD.AperFunction*%
%TO.P,R2,1*%
%TO.N,Net-(D1-Pad1)*%
%TA.AperFunction,SMDPad,CuDef*%
G36*
G01*
X118803000Y-57043000D02*
X118433000Y-57043000D01*
G75*
G02*
X118298000Y-56908000I0J135000D01*
G01*
X118298000Y-56638000D01*
G75*
G02*
X118433000Y-56503000I135000J0D01*
G01*
X118803000Y-56503000D01*
G75*
G02*
X118938000Y-56638000I0J-135000D01*
G01*
X118938000Y-56908000D01*
G75*
G02*
X118803000Y-57043000I-135000J0D01*
G01*
G37*
%TD.AperFunction*%
%TD*%
%TO.P,R1,2*%
%TO.N,GND*%
%TA.AperFunction,SMDPad,CuDef*%
G36*
G01*
X113804000Y-62426000D02*
X113804000Y-62796000D01*
G75*
G02*
X113669000Y-62931000I-135000J0D01*
G01*
X113399000Y-62931000D01*
G75*
G02*
X113264000Y-62796000I0J135000D01*
G01*
X113264000Y-62426000D01*
G75*
G02*
X113399000Y-62291000I135000J0D01*
G01*
X113669000Y-62291000D01*
G75*
G02*
X113804000Y-62426000I0J-135000D01*
G01*
G37*
%TD.AperFunction*%
%TO.P,R1,1*%
%TO.N,/charge-controller/PROG*%
%TA.AperFunction,SMDPad,CuDef*%
G36*
G01*
X114824000Y-62426000D02*
X114824000Y-62796000D01*
G75*
G02*
X114689000Y-62931000I-135000J0D01*
G01*
X114419000Y-62931000D01*
G75*
G02*
X114284000Y-62796000I0J135000D01*
G01*
X114284000Y-62426000D01*
G75*
G02*
X114419000Y-62291000I135000J0D01*
G01*
X114689000Y-62291000D01*
G75*
G02*
X114824000Y-62426000I0J-135000D01*
G01*
G37*
%TD.AperFunction*%
%TD*%
D12*
%TO.P,Q1,3*%
%TO.N,/+BATT*%
X118430000Y-65310000D03*
%TO.P,Q1,2*%
%TO.N,/VMAX*%
X119380000Y-67310000D03*
%TO.P,Q1,1*%
%TO.N,/+CHARGE*%
X117480000Y-67310000D03*
%TD*%
D13*
%TO.P,IC1,3*%
%TO.N,GND*%
X115189000Y-58547000D03*
D14*
%TO.P,IC1,7*%
%TO.N,/STAT*%
X114554000Y-55797000D03*
%TO.P,IC1,8*%
%TO.N,Net-(C1-Pad1)*%
X113284000Y-55797000D03*
%TO.P,IC1,6*%
%TO.N,/charge-controller/~STDBY*%
X115824000Y-55797000D03*
%TO.P,IC1,5*%
%TO.N,/+BATT*%
X117094000Y-55797000D03*
%TO.P,IC1,2*%
%TO.N,/charge-controller/PROG*%
X114554000Y-61297000D03*
%TO.P,IC1,1*%
%TO.N,GND*%
X113284000Y-61297000D03*
%TO.P,IC1,3*%
X115824000Y-61297000D03*
%TO.P,IC1,4*%
%TO.N,Net-(C1-Pad1)*%
X117094000Y-61297000D03*
%TD*%
%TO.P,F1,2*%
%TO.N,/-BATT_RAW*%
%TA.AperFunction,SMDPad,CuDef*%
G36*
G01*
X109964000Y-51495000D02*
X109964000Y-52645000D01*
G75*
G02*
X109714000Y-52895000I-250000J0D01*
G01*
X108614000Y-52895000D01*
G75*
G02*
X108364000Y-52645000I0J250000D01*
G01*
X108364000Y-51495000D01*
G75*
G02*
X108614000Y-51245000I250000J0D01*
G01*
X109714000Y-51245000D01*
G75*
G02*
X109964000Y-51495000I0J-250000D01*
G01*
G37*
%TD.AperFunction*%
%TO.P,F1,1*%
%TO.N,/-BATT*%
%TA.AperFunction,SMDPad,CuDef*%
G36*
G01*
X112814000Y-51495000D02*
X112814000Y-52645000D01*
G75*
G02*
X112564000Y-52895000I-250000J0D01*
G01*
X111464000Y-52895000D01*
G75*
G02*
X111214000Y-52645000I0J250000D01*
G01*
X111214000Y-51495000D01*
G75*
G02*
X111464000Y-51245000I250000J0D01*
G01*
X112564000Y-51245000D01*
G75*
G02*
X112814000Y-51495000I0J-250000D01*
G01*
G37*
%TD.AperFunction*%
%TD*%
%TO.P,D2,2*%
%TO.N,Net-(C1-Pad1)*%
%TA.AperFunction,SMDPad,CuDef*%
G36*
G01*
X112524250Y-64318500D02*
X112011750Y-64318500D01*
G75*
G02*
X111793000Y-64099750I0J218750D01*
G01*
X111793000Y-63662250D01*
G75*
G02*
X112011750Y-63443500I218750J0D01*
G01*
X112524250Y-63443500D01*
G75*
G02*
X112743000Y-63662250I0J-218750D01*
G01*
X112743000Y-64099750D01*
G75*
G02*
X112524250Y-64318500I-218750J0D01*
G01*
G37*
%TD.AperFunction*%
%TO.P,D2,1*%
%TO.N,Net-(D2-Pad1)*%
%TA.AperFunction,SMDPad,CuDef*%
G36*
G01*
X112524250Y-65893500D02*
X112011750Y-65893500D01*
G75*
G02*
X111793000Y-65674750I0J218750D01*
G01*
X111793000Y-65237250D01*
G75*
G02*
X112011750Y-65018500I218750J0D01*
G01*
X112524250Y-65018500D01*
G75*
G02*
X112743000Y-65237250I0J-218750D01*
G01*
X112743000Y-65674750D01*
G75*
G02*
X112524250Y-65893500I-218750J0D01*
G01*
G37*
%TD.AperFunction*%
%TD*%
%TO.P,D1,2*%
%TO.N,Net-(C1-Pad1)*%
%TA.AperFunction,SMDPad,CuDef*%
G36*
G01*
X114048250Y-64318500D02*
X113535750Y-64318500D01*
G75*
G02*
X113317000Y-64099750I0J218750D01*
G01*
X113317000Y-63662250D01*
G75*
G02*
X113535750Y-63443500I218750J0D01*
G01*
X114048250Y-63443500D01*
G75*
G02*
X114267000Y-63662250I0J-218750D01*
G01*
X114267000Y-64099750D01*
G75*
G02*
X114048250Y-64318500I-218750J0D01*
G01*
G37*
%TD.AperFunction*%
%TO.P,D1,1*%
%TO.N,Net-(D1-Pad1)*%
%TA.AperFunction,SMDPad,CuDef*%
G36*
G01*
X114048250Y-65893500D02*
X113535750Y-65893500D01*
G75*
G02*
X113317000Y-65674750I0J218750D01*
G01*
X113317000Y-65237250D01*
G75*
G02*
X113535750Y-65018500I218750J0D01*
G01*
X114048250Y-65018500D01*
G75*
G02*
X114267000Y-65237250I0J-218750D01*
G01*
X114267000Y-65674750D01*
G75*
G02*
X114048250Y-65893500I-218750J0D01*
G01*
G37*
%TD.AperFunction*%
%TD*%
D15*
%TO.N,GND*%
X116586000Y-58547000D03*
X113792000Y-58547000D03*
X115189000Y-59436000D03*
X115189000Y-57658000D03*
X116586000Y-59436000D03*
X113792000Y-57658000D03*
X116586000Y-57658000D03*
X113792000Y-59436000D03*
D16*
X112014000Y-54102000D03*
D17*
X110871000Y-67183000D03*
D15*
X117538500Y-57658000D03*
X117538500Y-58547000D03*
X117538500Y-59436000D03*
X112839500Y-59436000D03*
X112839500Y-58547000D03*
X112839500Y-57658000D03*
D16*
%TO.N,Net-(C1-Pad1)*%
X113919000Y-67310000D03*
X116205000Y-65151000D03*
D17*
X111125000Y-54990988D03*
D16*
%TO.N,/+BATT*%
X120904000Y-64770000D03*
D17*
X122809000Y-53530500D03*
%TO.N,/-BATT*%
X115125500Y-51562000D03*
X119126000Y-51879500D03*
%TO.N,Net-(D1-Pad1)*%
X113284000Y-66294000D03*
X112268000Y-62611000D03*
X119507000Y-58420000D03*
%TO.N,Net-(D2-Pad1)*%
X111252000Y-58420000D03*
X111633000Y-66421000D03*
D16*
%TO.N,/+CHARGE*%
X122682000Y-67310000D03*
X116078000Y-67310010D03*
%TO.N,/VMAX*%
X119126000Y-60579000D03*
D15*
%TO.N,/STAT*%
X113919000Y-54610000D03*
D17*
%TO.N,Net-(R6-Pad1)*%
X118872000Y-52832000D03*
X123571000Y-52959000D03*
D15*
%TO.N,/3v3_EN*%
X119507000Y-64516000D03*
%TD*%
D18*
%TO.N,GND*%
X114046000Y-53776000D02*
X112340000Y-53776000D01*
X112340000Y-53776000D02*
X112014000Y-54102000D01*
D19*
X110998000Y-65663000D02*
X110871000Y-65790000D01*
X110871000Y-65790000D02*
X110871000Y-67183000D01*
D18*
%TO.N,Net-(C1-Pad1)*%
X112520000Y-67310000D02*
X113919000Y-67310000D01*
X116393000Y-65151000D02*
X118044000Y-63500000D01*
X116205000Y-65151000D02*
X116393000Y-65151000D01*
X117094000Y-62550000D02*
X118044000Y-63500000D01*
X117094000Y-61297000D02*
X117094000Y-62550000D01*
D19*
X115062000Y-65151000D02*
X113792000Y-63881000D01*
X116205000Y-65151000D02*
X115062000Y-65151000D01*
X113792000Y-63881000D02*
X112268000Y-63881000D01*
X113284000Y-55797000D02*
X111931012Y-55797000D01*
X111931012Y-55797000D02*
X111125000Y-54990988D01*
D18*
%TO.N,/+BATT*%
X120364000Y-65310000D02*
X120904000Y-64770000D01*
X118430000Y-65310000D02*
X120364000Y-65310000D01*
X121384510Y-57503510D02*
X120142000Y-56261000D01*
X124106490Y-57503510D02*
X121384510Y-57503510D01*
X124460000Y-57150000D02*
X124106490Y-57503510D01*
X117925510Y-54965490D02*
X117094000Y-55797000D01*
X119571490Y-54965490D02*
X117925510Y-54965490D01*
X120142000Y-55536000D02*
X119571490Y-54965490D01*
X120142000Y-56261000D02*
X120142000Y-55536000D01*
X122809000Y-54169500D02*
X122809000Y-53530500D01*
X122368500Y-54610000D02*
X122809000Y-54169500D01*
%TO.N,/-BATT*%
X112208000Y-51876000D02*
X112014000Y-52070000D01*
X114046000Y-51876000D02*
X112208000Y-51876000D01*
D19*
X114811500Y-51876000D02*
X115125500Y-51562000D01*
X114046000Y-51876000D02*
X114811500Y-51876000D01*
X120052500Y-51879500D02*
X120056000Y-51876000D01*
X119126000Y-51879500D02*
X120052500Y-51879500D01*
D18*
X121542500Y-51876000D02*
X121666000Y-51752500D01*
X120056000Y-51876000D02*
X121542500Y-51876000D01*
%TO.N,Net-(C5-Pad1)*%
X121189500Y-52826000D02*
X121666000Y-53302500D01*
X120056000Y-52826000D02*
X121189500Y-52826000D01*
X121348500Y-53620000D02*
X121348500Y-54610000D01*
X121666000Y-53302500D02*
X121348500Y-53620000D01*
D19*
%TO.N,Net-(D1-Pad1)*%
X113792000Y-65786000D02*
X113284000Y-66294000D01*
X113792000Y-65456000D02*
X113792000Y-65786000D01*
X119507000Y-57662000D02*
X118618000Y-56773000D01*
X119507000Y-58420000D02*
X119507000Y-57662000D01*
%TO.N,Net-(D2-Pad1)*%
X111252000Y-56515000D02*
X111252000Y-58420000D01*
X111633000Y-66091000D02*
X112268000Y-65456000D01*
X111633000Y-66421000D02*
X111633000Y-66091000D01*
D18*
%TO.N,/+CHARGE*%
X109220000Y-64770000D02*
X109220000Y-67310000D01*
X122682000Y-67310000D02*
X121160000Y-67310000D01*
X117480000Y-67310000D02*
X116078010Y-67310000D01*
X116078010Y-67310000D02*
X116078000Y-67310010D01*
D19*
X109347000Y-64643000D02*
X109220000Y-64770000D01*
X110998000Y-64643000D02*
X109347000Y-64643000D01*
D18*
%TO.N,/VMAX*%
X124460000Y-67310000D02*
X124460000Y-64770000D01*
X122809000Y-64770000D02*
X124460000Y-64770000D01*
X121386501Y-66192499D02*
X122809000Y-64770000D01*
X119760999Y-61213999D02*
X119126000Y-60579000D01*
X120523000Y-60097000D02*
X119608000Y-60097000D01*
X119608000Y-60097000D02*
X119126000Y-60579000D01*
X119761000Y-61727000D02*
X119760999Y-61213999D01*
X119380000Y-67108498D02*
X119380000Y-67310000D01*
X120295999Y-66192499D02*
X119380000Y-67108498D01*
X121386501Y-66192499D02*
X120295999Y-66192499D01*
%TO.N,/-BATT_RAW*%
X109220000Y-52126000D02*
X109164000Y-52070000D01*
X109220000Y-54610000D02*
X109220000Y-52126000D01*
D19*
%TO.N,/STAT*%
X112562751Y-56805751D02*
X112272000Y-56515000D01*
X114512749Y-56805751D02*
X112562751Y-56805751D01*
X114554000Y-56764500D02*
X114512749Y-56805751D01*
X114554000Y-55797000D02*
X114554000Y-56764500D01*
X114554000Y-55245000D02*
X113919000Y-54610000D01*
X114554000Y-55797000D02*
X114554000Y-55245000D01*
%TO.N,/charge-controller/~STDBY*%
X115824000Y-56764500D02*
X115824000Y-55797000D01*
X115865251Y-56805751D02*
X115824000Y-56764500D01*
X117731001Y-56805751D02*
X115865251Y-56805751D01*
X117939240Y-56597512D02*
X117731001Y-56805751D01*
X117939240Y-56431760D02*
X117939240Y-56597512D01*
X118618000Y-55753000D02*
X117939240Y-56431760D01*
%TO.N,/charge-controller/PROG*%
X114554000Y-61297000D02*
X114554000Y-62611000D01*
%TO.N,Net-(R6-Pad1)*%
X117862000Y-52832000D02*
X117856000Y-52826000D01*
X118872000Y-52832000D02*
X117862000Y-52832000D01*
X123571000Y-52959000D02*
X123190000Y-52578000D01*
X123190000Y-52578000D02*
X123190000Y-51816000D01*
%TO.N,/3v3_EN*%
X119507000Y-63881000D02*
X119761000Y-63627000D01*
X119507000Y-64516000D02*
X119507000Y-63881000D01*
D18*
%TO.N,/+3v3*%
X121961000Y-60183000D02*
X122047000Y-60097000D01*
X121961000Y-61727000D02*
X121961000Y-60183000D01*
X122454000Y-59690000D02*
X122047000Y-60097000D01*
X124460000Y-59690000D02*
X122454000Y-59690000D01*
%TO.N,Net-(U2-Pad3)*%
X116246000Y-53776000D02*
X117856000Y-53776000D01*
%TO.N,Net-(U2-Pad1)*%
X116246000Y-51876000D02*
X117856000Y-51876000D01*
%TO.N,Net-(U3-Pad2)*%
X114046000Y-52826000D02*
X116246000Y-52826000D01*
%TD*%
D20*
%TO.N,GND*%
X111466428Y-65237250D02*
X111466428Y-65573447D01*
X111307740Y-65732135D01*
X111289283Y-65747282D01*
X111238011Y-65809758D01*
X111228832Y-65820943D01*
X111183911Y-65904982D01*
X111178768Y-65921937D01*
X111159321Y-65986046D01*
X111133937Y-66011430D01*
X111063624Y-66116662D01*
X111015191Y-66233590D01*
X110990500Y-66357719D01*
X110990500Y-66484281D01*
X111015191Y-66608410D01*
X111063624Y-66725338D01*
X111133937Y-66830570D01*
X111223430Y-66920063D01*
X111328662Y-66990376D01*
X111445590Y-67038809D01*
X111569719Y-67063500D01*
X111696281Y-67063500D01*
X111743428Y-67054122D01*
X111743428Y-67910000D01*
X111749703Y-67973711D01*
X111768287Y-68034974D01*
X111798465Y-68091434D01*
X111839079Y-68140921D01*
X111888566Y-68181535D01*
X111924983Y-68201000D01*
X109815017Y-68201000D01*
X109851434Y-68181535D01*
X109900921Y-68140921D01*
X109941535Y-68091434D01*
X109971713Y-68034974D01*
X109990297Y-67973711D01*
X109996572Y-67910000D01*
X109996572Y-66710000D01*
X109990297Y-66646289D01*
X109971713Y-66585026D01*
X109941535Y-66528566D01*
X109900921Y-66479079D01*
X109862500Y-66447547D01*
X109862500Y-66082537D01*
X109881256Y-66080690D01*
X110036315Y-66033653D01*
X110179219Y-65957270D01*
X110304475Y-65854475D01*
X110407270Y-65729219D01*
X110483653Y-65586315D01*
X110530690Y-65431256D01*
X110546572Y-65270000D01*
X110546572Y-65153583D01*
X110556564Y-65161783D01*
X110636364Y-65204437D01*
X110722952Y-65230703D01*
X110813000Y-65239572D01*
X111183000Y-65239572D01*
X111273048Y-65230703D01*
X111359636Y-65204437D01*
X111439436Y-65161783D01*
X111476888Y-65131047D01*
X111466428Y-65237250D01*
%TA.AperFunction,Conductor*%
D21*
G36*
X111466428Y-65237250D02*
G01*
X111466428Y-65573447D01*
X111307740Y-65732135D01*
X111289283Y-65747282D01*
X111238011Y-65809758D01*
X111228832Y-65820943D01*
X111183911Y-65904982D01*
X111178768Y-65921937D01*
X111159321Y-65986046D01*
X111133937Y-66011430D01*
X111063624Y-66116662D01*
X111015191Y-66233590D01*
X110990500Y-66357719D01*
X110990500Y-66484281D01*
X111015191Y-66608410D01*
X111063624Y-66725338D01*
X111133937Y-66830570D01*
X111223430Y-66920063D01*
X111328662Y-66990376D01*
X111445590Y-67038809D01*
X111569719Y-67063500D01*
X111696281Y-67063500D01*
X111743428Y-67054122D01*
X111743428Y-67910000D01*
X111749703Y-67973711D01*
X111768287Y-68034974D01*
X111798465Y-68091434D01*
X111839079Y-68140921D01*
X111888566Y-68181535D01*
X111924983Y-68201000D01*
X109815017Y-68201000D01*
X109851434Y-68181535D01*
X109900921Y-68140921D01*
X109941535Y-68091434D01*
X109971713Y-68034974D01*
X109990297Y-67973711D01*
X109996572Y-67910000D01*
X109996572Y-66710000D01*
X109990297Y-66646289D01*
X109971713Y-66585026D01*
X109941535Y-66528566D01*
X109900921Y-66479079D01*
X109862500Y-66447547D01*
X109862500Y-66082537D01*
X109881256Y-66080690D01*
X110036315Y-66033653D01*
X110179219Y-65957270D01*
X110304475Y-65854475D01*
X110407270Y-65729219D01*
X110483653Y-65586315D01*
X110530690Y-65431256D01*
X110546572Y-65270000D01*
X110546572Y-65153583D01*
X110556564Y-65161783D01*
X110636364Y-65204437D01*
X110722952Y-65230703D01*
X110813000Y-65239572D01*
X111183000Y-65239572D01*
X111273048Y-65230703D01*
X111359636Y-65204437D01*
X111439436Y-65161783D01*
X111476888Y-65131047D01*
X111466428Y-65237250D01*
G37*
%TD.AperFunction*%
D20*
X110555624Y-55295326D02*
X110625937Y-55400558D01*
X110715430Y-55490051D01*
X110820662Y-55560364D01*
X110937590Y-55608797D01*
X111061719Y-55633488D01*
X111083375Y-55633488D01*
X111318315Y-55868428D01*
X111117000Y-55868428D01*
X111026952Y-55877297D01*
X110940364Y-55903563D01*
X110860564Y-55946217D01*
X110790619Y-56003619D01*
X110733217Y-56073564D01*
X110690563Y-56153364D01*
X110664297Y-56239952D01*
X110655428Y-56330000D01*
X110655428Y-56700000D01*
X110664297Y-56790048D01*
X110690563Y-56876636D01*
X110733217Y-56956436D01*
X110768250Y-56999124D01*
X110768251Y-57995116D01*
X110752937Y-58010430D01*
X110682624Y-58115662D01*
X110634191Y-58232590D01*
X110609500Y-58356719D01*
X110609500Y-58483281D01*
X110634191Y-58607410D01*
X110682624Y-58724338D01*
X110752937Y-58829570D01*
X110842430Y-58919063D01*
X110947662Y-58989376D01*
X111064590Y-59037809D01*
X111188719Y-59062500D01*
X111315281Y-59062500D01*
X111439410Y-59037809D01*
X111556338Y-58989376D01*
X111661570Y-58919063D01*
X111751063Y-58829570D01*
X111821376Y-58724338D01*
X111869809Y-58607410D01*
X111894500Y-58483281D01*
X111894500Y-58356719D01*
X111869809Y-58232590D01*
X111821376Y-58115662D01*
X111751063Y-58010430D01*
X111735750Y-57995117D01*
X111735750Y-56999124D01*
X111762000Y-56967138D01*
X111810619Y-57026381D01*
X111880564Y-57083783D01*
X111960364Y-57126437D01*
X112046952Y-57152703D01*
X112137000Y-57161572D01*
X112233781Y-57161572D01*
X112292694Y-57209920D01*
X112376732Y-57254840D01*
X112467920Y-57282501D01*
X112538992Y-57289501D01*
X112538994Y-57289501D01*
X112562750Y-57291841D01*
X112586506Y-57289501D01*
X114488993Y-57289501D01*
X114512749Y-57291841D01*
X114536505Y-57289501D01*
X114536508Y-57289501D01*
X114607580Y-57282501D01*
X114698768Y-57254840D01*
X114782806Y-57209920D01*
X114856467Y-57149469D01*
X114871619Y-57131006D01*
X114879255Y-57123370D01*
X114897718Y-57108218D01*
X114958169Y-57034557D01*
X115003089Y-56950519D01*
X115030750Y-56859331D01*
X115037750Y-56788259D01*
X115037750Y-56788256D01*
X115040090Y-56764500D01*
X115038057Y-56743858D01*
X115085434Y-56718535D01*
X115134921Y-56677921D01*
X115175535Y-56628434D01*
X115189000Y-56603242D01*
X115202465Y-56628434D01*
X115243079Y-56677921D01*
X115292566Y-56718535D01*
X115339943Y-56743858D01*
X115337910Y-56764500D01*
X115340250Y-56788256D01*
X115340250Y-56788258D01*
X115347250Y-56859330D01*
X115374911Y-56950518D01*
X115419831Y-57034557D01*
X115480282Y-57108218D01*
X115498745Y-57123370D01*
X115506381Y-57131006D01*
X115521533Y-57149469D01*
X115595194Y-57209920D01*
X115679232Y-57254840D01*
X115770420Y-57282501D01*
X115841492Y-57289501D01*
X115841495Y-57289501D01*
X115865251Y-57291841D01*
X115889007Y-57289501D01*
X117707245Y-57289501D01*
X117731001Y-57291841D01*
X117754757Y-57289501D01*
X117754760Y-57289501D01*
X117825832Y-57282501D01*
X117917020Y-57254840D01*
X118001058Y-57209920D01*
X118052141Y-57167998D01*
X118106619Y-57234381D01*
X118176564Y-57291783D01*
X118256364Y-57334437D01*
X118342952Y-57360703D01*
X118433000Y-57369572D01*
X118530447Y-57369572D01*
X119023251Y-57862377D01*
X119023251Y-57995116D01*
X119007937Y-58010430D01*
X118937624Y-58115662D01*
X118889191Y-58232590D01*
X118864500Y-58356719D01*
X118864500Y-58483281D01*
X118889191Y-58607410D01*
X118937624Y-58724338D01*
X119007937Y-58829570D01*
X119097430Y-58919063D01*
X119202662Y-58989376D01*
X119319590Y-59037809D01*
X119443719Y-59062500D01*
X119570281Y-59062500D01*
X119694410Y-59037809D01*
X119811338Y-58989376D01*
X119916570Y-58919063D01*
X120006063Y-58829570D01*
X120076376Y-58724338D01*
X120124809Y-58607410D01*
X120149500Y-58483281D01*
X120149500Y-58356719D01*
X120124809Y-58232590D01*
X120076376Y-58115662D01*
X120006063Y-58010430D01*
X119990750Y-57995117D01*
X119990750Y-57685756D01*
X119993090Y-57662000D01*
X119989885Y-57629460D01*
X119983750Y-57567169D01*
X119956089Y-57475981D01*
X119911169Y-57391943D01*
X119850718Y-57318282D01*
X119837181Y-57307173D01*
X119892000Y-57312572D01*
X120284941Y-57312572D01*
X120907878Y-57935510D01*
X120927996Y-57960024D01*
X121025829Y-58040313D01*
X121137447Y-58099974D01*
X121258558Y-58136713D01*
X121352953Y-58146010D01*
X121352963Y-58146010D01*
X121384509Y-58149117D01*
X121416055Y-58146010D01*
X123302924Y-58146010D01*
X123375525Y-58234475D01*
X123500781Y-58337270D01*
X123643685Y-58413653D01*
X123664608Y-58420000D01*
X123643685Y-58426347D01*
X123500781Y-58502730D01*
X123375525Y-58605525D01*
X123272730Y-58730781D01*
X123196347Y-58873685D01*
X123149310Y-59028744D01*
X123147463Y-59047500D01*
X122485554Y-59047500D01*
X122454000Y-59044392D01*
X122422446Y-59047500D01*
X122422443Y-59047500D01*
X122328048Y-59056797D01*
X122206937Y-59093536D01*
X122095319Y-59153197D01*
X121997486Y-59233486D01*
X121977363Y-59258006D01*
X121914941Y-59320428D01*
X121797000Y-59320428D01*
X121689394Y-59331026D01*
X121585923Y-59362414D01*
X121490563Y-59413385D01*
X121406980Y-59481980D01*
X121338385Y-59565563D01*
X121287414Y-59660923D01*
X121285000Y-59668881D01*
X121282586Y-59660923D01*
X121231615Y-59565563D01*
X121163020Y-59481980D01*
X121079437Y-59413385D01*
X120984077Y-59362414D01*
X120880606Y-59331026D01*
X120773000Y-59320428D01*
X120273000Y-59320428D01*
X120165394Y-59331026D01*
X120061923Y-59362414D01*
X119966563Y-59413385D01*
X119916464Y-59454500D01*
X119639554Y-59454500D01*
X119608000Y-59451392D01*
X119576446Y-59454500D01*
X119576443Y-59454500D01*
X119482048Y-59463797D01*
X119360937Y-59500536D01*
X119249319Y-59560197D01*
X119177667Y-59619000D01*
X119031448Y-59619000D01*
X118845978Y-59655892D01*
X118671269Y-59728259D01*
X118514036Y-59833319D01*
X118380319Y-59967036D01*
X118275259Y-60124269D01*
X118202892Y-60298978D01*
X118166000Y-60484448D01*
X118166000Y-60673552D01*
X118202892Y-60859022D01*
X118275259Y-61033731D01*
X118380319Y-61190964D01*
X118514036Y-61324681D01*
X118671269Y-61429741D01*
X118845978Y-61502108D01*
X118904428Y-61513734D01*
X118904428Y-62052000D01*
X118910703Y-62115711D01*
X118929287Y-62176974D01*
X118959465Y-62233434D01*
X119000079Y-62282921D01*
X119049566Y-62323535D01*
X119106026Y-62353713D01*
X119167289Y-62372297D01*
X119231000Y-62378572D01*
X120291000Y-62378572D01*
X120354711Y-62372297D01*
X120415974Y-62353713D01*
X120472434Y-62323535D01*
X120521921Y-62282921D01*
X120562535Y-62233434D01*
X120592713Y-62176974D01*
X120611297Y-62115711D01*
X120617572Y-62052000D01*
X120617572Y-61402000D01*
X120611297Y-61338289D01*
X120592713Y-61277026D01*
X120562535Y-61220566D01*
X120521921Y-61171079D01*
X120472434Y-61130465D01*
X120415974Y-61100287D01*
X120394773Y-61093856D01*
X120394201Y-61088047D01*
X120384368Y-61055630D01*
X120357462Y-60966935D01*
X120342167Y-60938320D01*
X120307559Y-60873572D01*
X120773000Y-60873572D01*
X120880606Y-60862974D01*
X120984077Y-60831586D01*
X121079437Y-60780615D01*
X121163020Y-60712020D01*
X121231615Y-60628437D01*
X121282586Y-60533077D01*
X121285000Y-60525119D01*
X121287414Y-60533077D01*
X121318501Y-60591236D01*
X121318500Y-61096503D01*
X121306026Y-61100287D01*
X121249566Y-61130465D01*
X121200079Y-61171079D01*
X121159465Y-61220566D01*
X121129287Y-61277026D01*
X121110703Y-61338289D01*
X121104428Y-61402000D01*
X121104428Y-62052000D01*
X121110703Y-62115711D01*
X121129287Y-62176974D01*
X121159465Y-62233434D01*
X121200079Y-62282921D01*
X121249566Y-62323535D01*
X121306026Y-62353713D01*
X121367289Y-62372297D01*
X121431000Y-62378572D01*
X122491000Y-62378572D01*
X122554711Y-62372297D01*
X122615974Y-62353713D01*
X122672434Y-62323535D01*
X122721921Y-62282921D01*
X122762535Y-62233434D01*
X122792713Y-62176974D01*
X122811297Y-62115711D01*
X122817572Y-62052000D01*
X122817572Y-61402000D01*
X122811297Y-61338289D01*
X122792713Y-61277026D01*
X122762535Y-61220566D01*
X122721921Y-61171079D01*
X122672434Y-61130465D01*
X122615974Y-61100287D01*
X122603500Y-61096503D01*
X122603500Y-60780563D01*
X122687020Y-60712020D01*
X122755615Y-60628437D01*
X122806586Y-60533077D01*
X122837974Y-60429606D01*
X122847538Y-60332500D01*
X123147463Y-60332500D01*
X123149310Y-60351256D01*
X123196347Y-60506315D01*
X123272730Y-60649219D01*
X123375525Y-60774475D01*
X123500781Y-60877270D01*
X123643685Y-60953653D01*
X123664608Y-60960000D01*
X123643685Y-60966347D01*
X123500781Y-61042730D01*
X123375525Y-61145525D01*
X123272730Y-61270781D01*
X123196347Y-61413685D01*
X123149310Y-61568744D01*
X123133428Y-61730000D01*
X123133428Y-62730000D01*
X123149310Y-62891256D01*
X123196347Y-63046315D01*
X123272730Y-63189219D01*
X123375525Y-63314475D01*
X123500781Y-63417270D01*
X123643685Y-63493653D01*
X123664608Y-63500000D01*
X123643685Y-63506347D01*
X123500781Y-63582730D01*
X123375525Y-63685525D01*
X123272730Y-63810781D01*
X123196347Y-63953685D01*
X123149310Y-64108744D01*
X123147463Y-64127500D01*
X122840553Y-64127500D01*
X122808999Y-64124392D01*
X122777445Y-64127500D01*
X122777443Y-64127500D01*
X122765055Y-64128720D01*
X122792713Y-64076974D01*
X122811297Y-64015711D01*
X122817572Y-63952000D01*
X122817572Y-63302000D01*
X122811297Y-63238289D01*
X122792713Y-63177026D01*
X122762535Y-63120566D01*
X122721921Y-63071079D01*
X122672434Y-63030465D01*
X122615974Y-63000287D01*
X122554711Y-62981703D01*
X122491000Y-62975428D01*
X121431000Y-62975428D01*
X121367289Y-62981703D01*
X121306026Y-63000287D01*
X121249566Y-63030465D01*
X121200079Y-63071079D01*
X121159465Y-63120566D01*
X121129287Y-63177026D01*
X121110703Y-63238289D01*
X121104428Y-63302000D01*
X121104428Y-63746500D01*
X120617572Y-63746500D01*
X120617572Y-63302000D01*
X120611297Y-63238289D01*
X120592713Y-63177026D01*
X120562535Y-63120566D01*
X120521921Y-63071079D01*
X120472434Y-63030465D01*
X120415974Y-63000287D01*
X120354711Y-62981703D01*
X120291000Y-62975428D01*
X119231000Y-62975428D01*
X119167289Y-62981703D01*
X119106026Y-63000287D01*
X119049566Y-63030465D01*
X119000079Y-63071079D01*
X118959465Y-63120566D01*
X118929287Y-63177026D01*
X118910703Y-63238289D01*
X118904428Y-63302000D01*
X118904428Y-63746500D01*
X118870572Y-63746500D01*
X118870572Y-63025000D01*
X118859493Y-62912516D01*
X118826683Y-62804355D01*
X118773402Y-62704674D01*
X118701698Y-62617302D01*
X118614326Y-62545598D01*
X118514645Y-62492317D01*
X118406484Y-62459507D01*
X118294000Y-62448428D01*
X117901059Y-62448428D01*
X117736500Y-62283869D01*
X117736500Y-62089211D01*
X117745713Y-62071974D01*
X117764297Y-62010711D01*
X117770572Y-61947000D01*
X117770572Y-60647000D01*
X117764297Y-60583289D01*
X117745713Y-60522026D01*
X117715535Y-60465566D01*
X117674921Y-60416079D01*
X117625434Y-60375465D01*
X117568974Y-60345287D01*
X117507711Y-60326703D01*
X117444000Y-60320428D01*
X116744000Y-60320428D01*
X116680289Y-60326703D01*
X116619026Y-60345287D01*
X116562566Y-60375465D01*
X116513079Y-60416079D01*
X116472465Y-60465566D01*
X116442287Y-60522026D01*
X116423703Y-60583289D01*
X116417428Y-60647000D01*
X116417428Y-61947000D01*
X116423703Y-62010711D01*
X116442287Y-62071974D01*
X116451501Y-62089212D01*
X116451501Y-62518437D01*
X116448392Y-62550000D01*
X116456741Y-62634759D01*
X116460798Y-62675952D01*
X116497215Y-62796000D01*
X116497537Y-62797063D01*
X116542433Y-62881057D01*
X116557198Y-62908681D01*
X116637487Y-63006514D01*
X116662001Y-63026632D01*
X117135368Y-63500000D01*
X116888868Y-63746500D01*
X116649500Y-63746500D01*
X116586096Y-63752745D01*
X116525128Y-63771239D01*
X116468940Y-63801272D01*
X116419690Y-63841690D01*
X116379272Y-63890940D01*
X116349239Y-63947128D01*
X116330745Y-64008096D01*
X116324500Y-64071500D01*
X116324500Y-64195962D01*
X116299552Y-64191000D01*
X116110448Y-64191000D01*
X115924978Y-64227892D01*
X115750269Y-64300259D01*
X115593036Y-64405319D01*
X115459319Y-64539036D01*
X115373649Y-64667250D01*
X115262375Y-64667250D01*
X114593572Y-63998447D01*
X114593572Y-63662250D01*
X114583094Y-63555863D01*
X114552062Y-63453564D01*
X114501669Y-63359285D01*
X114433851Y-63276649D01*
X114409461Y-63256632D01*
X114419000Y-63257572D01*
X114689000Y-63257572D01*
X114779048Y-63248703D01*
X114865636Y-63222437D01*
X114945436Y-63179783D01*
X115015381Y-63122381D01*
X115072783Y-63052436D01*
X115115437Y-62972636D01*
X115141703Y-62886048D01*
X115150572Y-62796000D01*
X115150572Y-62426000D01*
X115141703Y-62335952D01*
X115115437Y-62249364D01*
X115094835Y-62210820D01*
X115134921Y-62177921D01*
X115175535Y-62128434D01*
X115205713Y-62071974D01*
X115224297Y-62010711D01*
X115230572Y-61947000D01*
X115230572Y-60647000D01*
X115224297Y-60583289D01*
X115205713Y-60522026D01*
X115175535Y-60465566D01*
X115134921Y-60416079D01*
X115085434Y-60375465D01*
X115028974Y-60345287D01*
X114967711Y-60326703D01*
X114904000Y-60320428D01*
X114204000Y-60320428D01*
X114140289Y-60326703D01*
X114079026Y-60345287D01*
X114022566Y-60375465D01*
X113973079Y-60416079D01*
X113932465Y-60465566D01*
X113902287Y-60522026D01*
X113883703Y-60583289D01*
X113877428Y-60647000D01*
X113877428Y-61947000D01*
X113883703Y-62010711D01*
X113902287Y-62071974D01*
X113932465Y-62128434D01*
X113973079Y-62177921D01*
X114013165Y-62210820D01*
X113992563Y-62249364D01*
X113966297Y-62335952D01*
X113957428Y-62426000D01*
X113957428Y-62796000D01*
X113966297Y-62886048D01*
X113992563Y-62972636D01*
X114035217Y-63052436D01*
X114091652Y-63121203D01*
X114048250Y-63116928D01*
X113535750Y-63116928D01*
X113429363Y-63127406D01*
X113327064Y-63158438D01*
X113232785Y-63208831D01*
X113150149Y-63276649D01*
X113082331Y-63359285D01*
X113062038Y-63397250D01*
X112997962Y-63397250D01*
X112977669Y-63359285D01*
X112909851Y-63276649D01*
X112827215Y-63208831D01*
X112732936Y-63158438D01*
X112645064Y-63131782D01*
X112677570Y-63110063D01*
X112767063Y-63020570D01*
X112837376Y-62915338D01*
X112885809Y-62798410D01*
X112910500Y-62674281D01*
X112910500Y-62547719D01*
X112885809Y-62423590D01*
X112837376Y-62306662D01*
X112767063Y-62201430D01*
X112677570Y-62111937D01*
X112572338Y-62041624D01*
X112455410Y-61993191D01*
X112331281Y-61968500D01*
X112204719Y-61968500D01*
X112080590Y-61993191D01*
X111963662Y-62041624D01*
X111858430Y-62111937D01*
X111768937Y-62201430D01*
X111698624Y-62306662D01*
X111650191Y-62423590D01*
X111625500Y-62547719D01*
X111625500Y-62674281D01*
X111650191Y-62798410D01*
X111698624Y-62915338D01*
X111768937Y-63020570D01*
X111858430Y-63110063D01*
X111890936Y-63131782D01*
X111803064Y-63158438D01*
X111708785Y-63208831D01*
X111626149Y-63276649D01*
X111558331Y-63359285D01*
X111507938Y-63453564D01*
X111476906Y-63555863D01*
X111466428Y-63662250D01*
X111466428Y-64099750D01*
X111471423Y-64150468D01*
X111439436Y-64124217D01*
X111359636Y-64081563D01*
X111273048Y-64055297D01*
X111183000Y-64046428D01*
X110813000Y-64046428D01*
X110722952Y-64055297D01*
X110636364Y-64081563D01*
X110556564Y-64124217D01*
X110534035Y-64142706D01*
X110530690Y-64108744D01*
X110483653Y-63953685D01*
X110407270Y-63810781D01*
X110304475Y-63685525D01*
X110179219Y-63582730D01*
X110036315Y-63506347D01*
X109881256Y-63459310D01*
X109720000Y-63443428D01*
X108720000Y-63443428D01*
X108558744Y-63459310D01*
X108403685Y-63506347D01*
X108329000Y-63546266D01*
X108329000Y-60913734D01*
X108403685Y-60953653D01*
X108558744Y-61000690D01*
X108720000Y-61016572D01*
X109720000Y-61016572D01*
X109881256Y-61000690D01*
X110036315Y-60953653D01*
X110179219Y-60877270D01*
X110304475Y-60774475D01*
X110407270Y-60649219D01*
X110483653Y-60506315D01*
X110530690Y-60351256D01*
X110546572Y-60190000D01*
X110546572Y-59190000D01*
X110530690Y-59028744D01*
X110483653Y-58873685D01*
X110407270Y-58730781D01*
X110304475Y-58605525D01*
X110179219Y-58502730D01*
X110036315Y-58426347D01*
X110015392Y-58420000D01*
X110036315Y-58413653D01*
X110179219Y-58337270D01*
X110304475Y-58234475D01*
X110407270Y-58109219D01*
X110483653Y-57966315D01*
X110530690Y-57811256D01*
X110546572Y-57650000D01*
X110546572Y-56650000D01*
X110530690Y-56488744D01*
X110483653Y-56333685D01*
X110407270Y-56190781D01*
X110304475Y-56065525D01*
X110179219Y-55962730D01*
X110036315Y-55886347D01*
X110015392Y-55880000D01*
X110036315Y-55873653D01*
X110179219Y-55797270D01*
X110304475Y-55694475D01*
X110407270Y-55569219D01*
X110483653Y-55426315D01*
X110530690Y-55271256D01*
X110533565Y-55242070D01*
X110555624Y-55295326D01*
%TA.AperFunction,Conductor*%
D21*
G36*
X110555624Y-55295326D02*
G01*
X110625937Y-55400558D01*
X110715430Y-55490051D01*
X110820662Y-55560364D01*
X110937590Y-55608797D01*
X111061719Y-55633488D01*
X111083375Y-55633488D01*
X111318315Y-55868428D01*
X111117000Y-55868428D01*
X111026952Y-55877297D01*
X110940364Y-55903563D01*
X110860564Y-55946217D01*
X110790619Y-56003619D01*
X110733217Y-56073564D01*
X110690563Y-56153364D01*
X110664297Y-56239952D01*
X110655428Y-56330000D01*
X110655428Y-56700000D01*
X110664297Y-56790048D01*
X110690563Y-56876636D01*
X110733217Y-56956436D01*
X110768250Y-56999124D01*
X110768251Y-57995116D01*
X110752937Y-58010430D01*
X110682624Y-58115662D01*
X110634191Y-58232590D01*
X110609500Y-58356719D01*
X110609500Y-58483281D01*
X110634191Y-58607410D01*
X110682624Y-58724338D01*
X110752937Y-58829570D01*
X110842430Y-58919063D01*
X110947662Y-58989376D01*
X111064590Y-59037809D01*
X111188719Y-59062500D01*
X111315281Y-59062500D01*
X111439410Y-59037809D01*
X111556338Y-58989376D01*
X111661570Y-58919063D01*
X111751063Y-58829570D01*
X111821376Y-58724338D01*
X111869809Y-58607410D01*
X111894500Y-58483281D01*
X111894500Y-58356719D01*
X111869809Y-58232590D01*
X111821376Y-58115662D01*
X111751063Y-58010430D01*
X111735750Y-57995117D01*
X111735750Y-56999124D01*
X111762000Y-56967138D01*
X111810619Y-57026381D01*
X111880564Y-57083783D01*
X111960364Y-57126437D01*
X112046952Y-57152703D01*
X112137000Y-57161572D01*
X112233781Y-57161572D01*
X112292694Y-57209920D01*
X112376732Y-57254840D01*
X112467920Y-57282501D01*
X112538992Y-57289501D01*
X112538994Y-57289501D01*
X112562750Y-57291841D01*
X112586506Y-57289501D01*
X114488993Y-57289501D01*
X114512749Y-57291841D01*
X114536505Y-57289501D01*
X114536508Y-57289501D01*
X114607580Y-57282501D01*
X114698768Y-57254840D01*
X114782806Y-57209920D01*
X114856467Y-57149469D01*
X114871619Y-57131006D01*
X114879255Y-57123370D01*
X114897718Y-57108218D01*
X114958169Y-57034557D01*
X115003089Y-56950519D01*
X115030750Y-56859331D01*
X115037750Y-56788259D01*
X115037750Y-56788256D01*
X115040090Y-56764500D01*
X115038057Y-56743858D01*
X115085434Y-56718535D01*
X115134921Y-56677921D01*
X115175535Y-56628434D01*
X115189000Y-56603242D01*
X115202465Y-56628434D01*
X115243079Y-56677921D01*
X115292566Y-56718535D01*
X115339943Y-56743858D01*
X115337910Y-56764500D01*
X115340250Y-56788256D01*
X115340250Y-56788258D01*
X115347250Y-56859330D01*
X115374911Y-56950518D01*
X115419831Y-57034557D01*
X115480282Y-57108218D01*
X115498745Y-57123370D01*
X115506381Y-57131006D01*
X115521533Y-57149469D01*
X115595194Y-57209920D01*
X115679232Y-57254840D01*
X115770420Y-57282501D01*
X115841492Y-57289501D01*
X115841495Y-57289501D01*
X115865251Y-57291841D01*
X115889007Y-57289501D01*
X117707245Y-57289501D01*
X117731001Y-57291841D01*
X117754757Y-57289501D01*
X117754760Y-57289501D01*
X117825832Y-57282501D01*
X117917020Y-57254840D01*
X118001058Y-57209920D01*
X118052141Y-57167998D01*
X118106619Y-57234381D01*
X118176564Y-57291783D01*
X118256364Y-57334437D01*
X118342952Y-57360703D01*
X118433000Y-57369572D01*
X118530447Y-57369572D01*
X119023251Y-57862377D01*
X119023251Y-57995116D01*
X119007937Y-58010430D01*
X118937624Y-58115662D01*
X118889191Y-58232590D01*
X118864500Y-58356719D01*
X118864500Y-58483281D01*
X118889191Y-58607410D01*
X118937624Y-58724338D01*
X119007937Y-58829570D01*
X119097430Y-58919063D01*
X119202662Y-58989376D01*
X119319590Y-59037809D01*
X119443719Y-59062500D01*
X119570281Y-59062500D01*
X119694410Y-59037809D01*
X119811338Y-58989376D01*
X119916570Y-58919063D01*
X120006063Y-58829570D01*
X120076376Y-58724338D01*
X120124809Y-58607410D01*
X120149500Y-58483281D01*
X120149500Y-58356719D01*
X120124809Y-58232590D01*
X120076376Y-58115662D01*
X120006063Y-58010430D01*
X119990750Y-57995117D01*
X119990750Y-57685756D01*
X119993090Y-57662000D01*
X119989885Y-57629460D01*
X119983750Y-57567169D01*
X119956089Y-57475981D01*
X119911169Y-57391943D01*
X119850718Y-57318282D01*
X119837181Y-57307173D01*
X119892000Y-57312572D01*
X120284941Y-57312572D01*
X120907878Y-57935510D01*
X120927996Y-57960024D01*
X121025829Y-58040313D01*
X121137447Y-58099974D01*
X121258558Y-58136713D01*
X121352953Y-58146010D01*
X121352963Y-58146010D01*
X121384509Y-58149117D01*
X121416055Y-58146010D01*
X123302924Y-58146010D01*
X123375525Y-58234475D01*
X123500781Y-58337270D01*
X123643685Y-58413653D01*
X123664608Y-58420000D01*
X123643685Y-58426347D01*
X123500781Y-58502730D01*
X123375525Y-58605525D01*
X123272730Y-58730781D01*
X123196347Y-58873685D01*
X123149310Y-59028744D01*
X123147463Y-59047500D01*
X122485554Y-59047500D01*
X122454000Y-59044392D01*
X122422446Y-59047500D01*
X122422443Y-59047500D01*
X122328048Y-59056797D01*
X122206937Y-59093536D01*
X122095319Y-59153197D01*
X121997486Y-59233486D01*
X121977363Y-59258006D01*
X121914941Y-59320428D01*
X121797000Y-59320428D01*
X121689394Y-59331026D01*
X121585923Y-59362414D01*
X121490563Y-59413385D01*
X121406980Y-59481980D01*
X121338385Y-59565563D01*
X121287414Y-59660923D01*
X121285000Y-59668881D01*
X121282586Y-59660923D01*
X121231615Y-59565563D01*
X121163020Y-59481980D01*
X121079437Y-59413385D01*
X120984077Y-59362414D01*
X120880606Y-59331026D01*
X120773000Y-59320428D01*
X120273000Y-59320428D01*
X120165394Y-59331026D01*
X120061923Y-59362414D01*
X119966563Y-59413385D01*
X119916464Y-59454500D01*
X119639554Y-59454500D01*
X119608000Y-59451392D01*
X119576446Y-59454500D01*
X119576443Y-59454500D01*
X119482048Y-59463797D01*
X119360937Y-59500536D01*
X119249319Y-59560197D01*
X119177667Y-59619000D01*
X119031448Y-59619000D01*
X118845978Y-59655892D01*
X118671269Y-59728259D01*
X118514036Y-59833319D01*
X118380319Y-59967036D01*
X118275259Y-60124269D01*
X118202892Y-60298978D01*
X118166000Y-60484448D01*
X118166000Y-60673552D01*
X118202892Y-60859022D01*
X118275259Y-61033731D01*
X118380319Y-61190964D01*
X118514036Y-61324681D01*
X118671269Y-61429741D01*
X118845978Y-61502108D01*
X118904428Y-61513734D01*
X118904428Y-62052000D01*
X118910703Y-62115711D01*
X118929287Y-62176974D01*
X118959465Y-62233434D01*
X119000079Y-62282921D01*
X119049566Y-62323535D01*
X119106026Y-62353713D01*
X119167289Y-62372297D01*
X119231000Y-62378572D01*
X120291000Y-62378572D01*
X120354711Y-62372297D01*
X120415974Y-62353713D01*
X120472434Y-62323535D01*
X120521921Y-62282921D01*
X120562535Y-62233434D01*
X120592713Y-62176974D01*
X120611297Y-62115711D01*
X120617572Y-62052000D01*
X120617572Y-61402000D01*
X120611297Y-61338289D01*
X120592713Y-61277026D01*
X120562535Y-61220566D01*
X120521921Y-61171079D01*
X120472434Y-61130465D01*
X120415974Y-61100287D01*
X120394773Y-61093856D01*
X120394201Y-61088047D01*
X120384368Y-61055630D01*
X120357462Y-60966935D01*
X120342167Y-60938320D01*
X120307559Y-60873572D01*
X120773000Y-60873572D01*
X120880606Y-60862974D01*
X120984077Y-60831586D01*
X121079437Y-60780615D01*
X121163020Y-60712020D01*
X121231615Y-60628437D01*
X121282586Y-60533077D01*
X121285000Y-60525119D01*
X121287414Y-60533077D01*
X121318501Y-60591236D01*
X121318500Y-61096503D01*
X121306026Y-61100287D01*
X121249566Y-61130465D01*
X121200079Y-61171079D01*
X121159465Y-61220566D01*
X121129287Y-61277026D01*
X121110703Y-61338289D01*
X121104428Y-61402000D01*
X121104428Y-62052000D01*
X121110703Y-62115711D01*
X121129287Y-62176974D01*
X121159465Y-62233434D01*
X121200079Y-62282921D01*
X121249566Y-62323535D01*
X121306026Y-62353713D01*
X121367289Y-62372297D01*
X121431000Y-62378572D01*
X122491000Y-62378572D01*
X122554711Y-62372297D01*
X122615974Y-62353713D01*
X122672434Y-62323535D01*
X122721921Y-62282921D01*
X122762535Y-62233434D01*
X122792713Y-62176974D01*
X122811297Y-62115711D01*
X122817572Y-62052000D01*
X122817572Y-61402000D01*
X122811297Y-61338289D01*
X122792713Y-61277026D01*
X122762535Y-61220566D01*
X122721921Y-61171079D01*
X122672434Y-61130465D01*
X122615974Y-61100287D01*
X122603500Y-61096503D01*
X122603500Y-60780563D01*
X122687020Y-60712020D01*
X122755615Y-60628437D01*
X122806586Y-60533077D01*
X122837974Y-60429606D01*
X122847538Y-60332500D01*
X123147463Y-60332500D01*
X123149310Y-60351256D01*
X123196347Y-60506315D01*
X123272730Y-60649219D01*
X123375525Y-60774475D01*
X123500781Y-60877270D01*
X123643685Y-60953653D01*
X123664608Y-60960000D01*
X123643685Y-60966347D01*
X123500781Y-61042730D01*
X123375525Y-61145525D01*
X123272730Y-61270781D01*
X123196347Y-61413685D01*
X123149310Y-61568744D01*
X123133428Y-61730000D01*
X123133428Y-62730000D01*
X123149310Y-62891256D01*
X123196347Y-63046315D01*
X123272730Y-63189219D01*
X123375525Y-63314475D01*
X123500781Y-63417270D01*
X123643685Y-63493653D01*
X123664608Y-63500000D01*
X123643685Y-63506347D01*
X123500781Y-63582730D01*
X123375525Y-63685525D01*
X123272730Y-63810781D01*
X123196347Y-63953685D01*
X123149310Y-64108744D01*
X123147463Y-64127500D01*
X122840553Y-64127500D01*
X122808999Y-64124392D01*
X122777445Y-64127500D01*
X122777443Y-64127500D01*
X122765055Y-64128720D01*
X122792713Y-64076974D01*
X122811297Y-64015711D01*
X122817572Y-63952000D01*
X122817572Y-63302000D01*
X122811297Y-63238289D01*
X122792713Y-63177026D01*
X122762535Y-63120566D01*
X122721921Y-63071079D01*
X122672434Y-63030465D01*
X122615974Y-63000287D01*
X122554711Y-62981703D01*
X122491000Y-62975428D01*
X121431000Y-62975428D01*
X121367289Y-62981703D01*
X121306026Y-63000287D01*
X121249566Y-63030465D01*
X121200079Y-63071079D01*
X121159465Y-63120566D01*
X121129287Y-63177026D01*
X121110703Y-63238289D01*
X121104428Y-63302000D01*
X121104428Y-63746500D01*
X120617572Y-63746500D01*
X120617572Y-63302000D01*
X120611297Y-63238289D01*
X120592713Y-63177026D01*
X120562535Y-63120566D01*
X120521921Y-63071079D01*
X120472434Y-63030465D01*
X120415974Y-63000287D01*
X120354711Y-62981703D01*
X120291000Y-62975428D01*
X119231000Y-62975428D01*
X119167289Y-62981703D01*
X119106026Y-63000287D01*
X119049566Y-63030465D01*
X119000079Y-63071079D01*
X118959465Y-63120566D01*
X118929287Y-63177026D01*
X118910703Y-63238289D01*
X118904428Y-63302000D01*
X118904428Y-63746500D01*
X118870572Y-63746500D01*
X118870572Y-63025000D01*
X118859493Y-62912516D01*
X118826683Y-62804355D01*
X118773402Y-62704674D01*
X118701698Y-62617302D01*
X118614326Y-62545598D01*
X118514645Y-62492317D01*
X118406484Y-62459507D01*
X118294000Y-62448428D01*
X117901059Y-62448428D01*
X117736500Y-62283869D01*
X117736500Y-62089211D01*
X117745713Y-62071974D01*
X117764297Y-62010711D01*
X117770572Y-61947000D01*
X117770572Y-60647000D01*
X117764297Y-60583289D01*
X117745713Y-60522026D01*
X117715535Y-60465566D01*
X117674921Y-60416079D01*
X117625434Y-60375465D01*
X117568974Y-60345287D01*
X117507711Y-60326703D01*
X117444000Y-60320428D01*
X116744000Y-60320428D01*
X116680289Y-60326703D01*
X116619026Y-60345287D01*
X116562566Y-60375465D01*
X116513079Y-60416079D01*
X116472465Y-60465566D01*
X116442287Y-60522026D01*
X116423703Y-60583289D01*
X116417428Y-60647000D01*
X116417428Y-61947000D01*
X116423703Y-62010711D01*
X116442287Y-62071974D01*
X116451501Y-62089212D01*
X116451501Y-62518437D01*
X116448392Y-62550000D01*
X116456741Y-62634759D01*
X116460798Y-62675952D01*
X116497215Y-62796000D01*
X116497537Y-62797063D01*
X116542433Y-62881057D01*
X116557198Y-62908681D01*
X116637487Y-63006514D01*
X116662001Y-63026632D01*
X117135368Y-63500000D01*
X116888868Y-63746500D01*
X116649500Y-63746500D01*
X116586096Y-63752745D01*
X116525128Y-63771239D01*
X116468940Y-63801272D01*
X116419690Y-63841690D01*
X116379272Y-63890940D01*
X116349239Y-63947128D01*
X116330745Y-64008096D01*
X116324500Y-64071500D01*
X116324500Y-64195962D01*
X116299552Y-64191000D01*
X116110448Y-64191000D01*
X115924978Y-64227892D01*
X115750269Y-64300259D01*
X115593036Y-64405319D01*
X115459319Y-64539036D01*
X115373649Y-64667250D01*
X115262375Y-64667250D01*
X114593572Y-63998447D01*
X114593572Y-63662250D01*
X114583094Y-63555863D01*
X114552062Y-63453564D01*
X114501669Y-63359285D01*
X114433851Y-63276649D01*
X114409461Y-63256632D01*
X114419000Y-63257572D01*
X114689000Y-63257572D01*
X114779048Y-63248703D01*
X114865636Y-63222437D01*
X114945436Y-63179783D01*
X115015381Y-63122381D01*
X115072783Y-63052436D01*
X115115437Y-62972636D01*
X115141703Y-62886048D01*
X115150572Y-62796000D01*
X115150572Y-62426000D01*
X115141703Y-62335952D01*
X115115437Y-62249364D01*
X115094835Y-62210820D01*
X115134921Y-62177921D01*
X115175535Y-62128434D01*
X115205713Y-62071974D01*
X115224297Y-62010711D01*
X115230572Y-61947000D01*
X115230572Y-60647000D01*
X115224297Y-60583289D01*
X115205713Y-60522026D01*
X115175535Y-60465566D01*
X115134921Y-60416079D01*
X115085434Y-60375465D01*
X115028974Y-60345287D01*
X114967711Y-60326703D01*
X114904000Y-60320428D01*
X114204000Y-60320428D01*
X114140289Y-60326703D01*
X114079026Y-60345287D01*
X114022566Y-60375465D01*
X113973079Y-60416079D01*
X113932465Y-60465566D01*
X113902287Y-60522026D01*
X113883703Y-60583289D01*
X113877428Y-60647000D01*
X113877428Y-61947000D01*
X113883703Y-62010711D01*
X113902287Y-62071974D01*
X113932465Y-62128434D01*
X113973079Y-62177921D01*
X114013165Y-62210820D01*
X113992563Y-62249364D01*
X113966297Y-62335952D01*
X113957428Y-62426000D01*
X113957428Y-62796000D01*
X113966297Y-62886048D01*
X113992563Y-62972636D01*
X114035217Y-63052436D01*
X114091652Y-63121203D01*
X114048250Y-63116928D01*
X113535750Y-63116928D01*
X113429363Y-63127406D01*
X113327064Y-63158438D01*
X113232785Y-63208831D01*
X113150149Y-63276649D01*
X113082331Y-63359285D01*
X113062038Y-63397250D01*
X112997962Y-63397250D01*
X112977669Y-63359285D01*
X112909851Y-63276649D01*
X112827215Y-63208831D01*
X112732936Y-63158438D01*
X112645064Y-63131782D01*
X112677570Y-63110063D01*
X112767063Y-63020570D01*
X112837376Y-62915338D01*
X112885809Y-62798410D01*
X112910500Y-62674281D01*
X112910500Y-62547719D01*
X112885809Y-62423590D01*
X112837376Y-62306662D01*
X112767063Y-62201430D01*
X112677570Y-62111937D01*
X112572338Y-62041624D01*
X112455410Y-61993191D01*
X112331281Y-61968500D01*
X112204719Y-61968500D01*
X112080590Y-61993191D01*
X111963662Y-62041624D01*
X111858430Y-62111937D01*
X111768937Y-62201430D01*
X111698624Y-62306662D01*
X111650191Y-62423590D01*
X111625500Y-62547719D01*
X111625500Y-62674281D01*
X111650191Y-62798410D01*
X111698624Y-62915338D01*
X111768937Y-63020570D01*
X111858430Y-63110063D01*
X111890936Y-63131782D01*
X111803064Y-63158438D01*
X111708785Y-63208831D01*
X111626149Y-63276649D01*
X111558331Y-63359285D01*
X111507938Y-63453564D01*
X111476906Y-63555863D01*
X111466428Y-63662250D01*
X111466428Y-64099750D01*
X111471423Y-64150468D01*
X111439436Y-64124217D01*
X111359636Y-64081563D01*
X111273048Y-64055297D01*
X111183000Y-64046428D01*
X110813000Y-64046428D01*
X110722952Y-64055297D01*
X110636364Y-64081563D01*
X110556564Y-64124217D01*
X110534035Y-64142706D01*
X110530690Y-64108744D01*
X110483653Y-63953685D01*
X110407270Y-63810781D01*
X110304475Y-63685525D01*
X110179219Y-63582730D01*
X110036315Y-63506347D01*
X109881256Y-63459310D01*
X109720000Y-63443428D01*
X108720000Y-63443428D01*
X108558744Y-63459310D01*
X108403685Y-63506347D01*
X108329000Y-63546266D01*
X108329000Y-60913734D01*
X108403685Y-60953653D01*
X108558744Y-61000690D01*
X108720000Y-61016572D01*
X109720000Y-61016572D01*
X109881256Y-61000690D01*
X110036315Y-60953653D01*
X110179219Y-60877270D01*
X110304475Y-60774475D01*
X110407270Y-60649219D01*
X110483653Y-60506315D01*
X110530690Y-60351256D01*
X110546572Y-60190000D01*
X110546572Y-59190000D01*
X110530690Y-59028744D01*
X110483653Y-58873685D01*
X110407270Y-58730781D01*
X110304475Y-58605525D01*
X110179219Y-58502730D01*
X110036315Y-58426347D01*
X110015392Y-58420000D01*
X110036315Y-58413653D01*
X110179219Y-58337270D01*
X110304475Y-58234475D01*
X110407270Y-58109219D01*
X110483653Y-57966315D01*
X110530690Y-57811256D01*
X110546572Y-57650000D01*
X110546572Y-56650000D01*
X110530690Y-56488744D01*
X110483653Y-56333685D01*
X110407270Y-56190781D01*
X110304475Y-56065525D01*
X110179219Y-55962730D01*
X110036315Y-55886347D01*
X110015392Y-55880000D01*
X110036315Y-55873653D01*
X110179219Y-55797270D01*
X110304475Y-55694475D01*
X110407270Y-55569219D01*
X110483653Y-55426315D01*
X110530690Y-55271256D01*
X110533565Y-55242070D01*
X110555624Y-55295326D01*
G37*
%TD.AperFunction*%
D20*
X125351000Y-55926267D02*
X125276315Y-55886347D01*
X125121256Y-55839310D01*
X124960000Y-55823428D01*
X123960000Y-55823428D01*
X123798744Y-55839310D01*
X123643685Y-55886347D01*
X123500781Y-55962730D01*
X123375525Y-56065525D01*
X123272730Y-56190781D01*
X123196347Y-56333685D01*
X123149310Y-56488744D01*
X123133428Y-56650000D01*
X123133428Y-56861010D01*
X121650642Y-56861010D01*
X120968572Y-56178941D01*
X120968572Y-55786000D01*
X120957493Y-55673516D01*
X120924683Y-55565355D01*
X120871402Y-55465674D01*
X120799698Y-55378302D01*
X120754261Y-55341013D01*
X120738464Y-55288937D01*
X120678803Y-55177319D01*
X120598514Y-55079486D01*
X120574000Y-55059368D01*
X120048126Y-54533495D01*
X120028004Y-54508976D01*
X119930171Y-54428687D01*
X119928085Y-54427572D01*
X120586000Y-54427572D01*
X120649711Y-54421297D01*
X120706001Y-54404222D01*
X120706001Y-54641557D01*
X120715298Y-54735952D01*
X120752037Y-54857063D01*
X120759397Y-54870832D01*
X120760797Y-54885048D01*
X120787063Y-54971636D01*
X120829717Y-55051436D01*
X120887119Y-55121381D01*
X120957064Y-55178783D01*
X121036864Y-55221437D01*
X121123452Y-55247703D01*
X121213500Y-55256572D01*
X121483500Y-55256572D01*
X121573548Y-55247703D01*
X121660136Y-55221437D01*
X121739936Y-55178783D01*
X121809881Y-55121381D01*
X121858500Y-55062138D01*
X121907119Y-55121381D01*
X121977064Y-55178783D01*
X122056864Y-55221437D01*
X122143452Y-55247703D01*
X122233500Y-55256572D01*
X122503500Y-55256572D01*
X122593548Y-55247703D01*
X122680136Y-55221437D01*
X122759936Y-55178783D01*
X122829881Y-55121381D01*
X122887283Y-55051436D01*
X122929937Y-54971636D01*
X122936225Y-54950906D01*
X123241001Y-54646131D01*
X123265514Y-54626014D01*
X123345803Y-54528181D01*
X123405464Y-54416563D01*
X123442203Y-54295452D01*
X123451500Y-54201057D01*
X123451500Y-54201055D01*
X123454608Y-54169501D01*
X123451500Y-54137947D01*
X123451500Y-53590317D01*
X123507719Y-53601500D01*
X123634281Y-53601500D01*
X123758410Y-53576809D01*
X123875338Y-53528376D01*
X123980570Y-53458063D01*
X124070063Y-53368570D01*
X124140376Y-53263338D01*
X124188809Y-53146410D01*
X124213500Y-53022281D01*
X124213500Y-52895719D01*
X124188809Y-52771590D01*
X124140376Y-52654662D01*
X124070063Y-52549430D01*
X123980570Y-52459937D01*
X123875338Y-52389624D01*
X123833782Y-52372411D01*
X123876489Y-52292510D01*
X123906454Y-52193729D01*
X123916572Y-52091000D01*
X123916572Y-51541000D01*
X123906454Y-51438271D01*
X123876489Y-51339490D01*
X123827829Y-51248452D01*
X123770831Y-51179000D01*
X125351000Y-51179000D01*
X125351000Y-55926267D01*
%TA.AperFunction,Conductor*%
D21*
G36*
X125351000Y-55926267D02*
G01*
X125276315Y-55886347D01*
X125121256Y-55839310D01*
X124960000Y-55823428D01*
X123960000Y-55823428D01*
X123798744Y-55839310D01*
X123643685Y-55886347D01*
X123500781Y-55962730D01*
X123375525Y-56065525D01*
X123272730Y-56190781D01*
X123196347Y-56333685D01*
X123149310Y-56488744D01*
X123133428Y-56650000D01*
X123133428Y-56861010D01*
X121650642Y-56861010D01*
X120968572Y-56178941D01*
X120968572Y-55786000D01*
X120957493Y-55673516D01*
X120924683Y-55565355D01*
X120871402Y-55465674D01*
X120799698Y-55378302D01*
X120754261Y-55341013D01*
X120738464Y-55288937D01*
X120678803Y-55177319D01*
X120598514Y-55079486D01*
X120574000Y-55059368D01*
X120048126Y-54533495D01*
X120028004Y-54508976D01*
X119930171Y-54428687D01*
X119928085Y-54427572D01*
X120586000Y-54427572D01*
X120649711Y-54421297D01*
X120706001Y-54404222D01*
X120706001Y-54641557D01*
X120715298Y-54735952D01*
X120752037Y-54857063D01*
X120759397Y-54870832D01*
X120760797Y-54885048D01*
X120787063Y-54971636D01*
X120829717Y-55051436D01*
X120887119Y-55121381D01*
X120957064Y-55178783D01*
X121036864Y-55221437D01*
X121123452Y-55247703D01*
X121213500Y-55256572D01*
X121483500Y-55256572D01*
X121573548Y-55247703D01*
X121660136Y-55221437D01*
X121739936Y-55178783D01*
X121809881Y-55121381D01*
X121858500Y-55062138D01*
X121907119Y-55121381D01*
X121977064Y-55178783D01*
X122056864Y-55221437D01*
X122143452Y-55247703D01*
X122233500Y-55256572D01*
X122503500Y-55256572D01*
X122593548Y-55247703D01*
X122680136Y-55221437D01*
X122759936Y-55178783D01*
X122829881Y-55121381D01*
X122887283Y-55051436D01*
X122929937Y-54971636D01*
X122936225Y-54950906D01*
X123241001Y-54646131D01*
X123265514Y-54626014D01*
X123345803Y-54528181D01*
X123405464Y-54416563D01*
X123442203Y-54295452D01*
X123451500Y-54201057D01*
X123451500Y-54201055D01*
X123454608Y-54169501D01*
X123451500Y-54137947D01*
X123451500Y-53590317D01*
X123507719Y-53601500D01*
X123634281Y-53601500D01*
X123758410Y-53576809D01*
X123875338Y-53528376D01*
X123980570Y-53458063D01*
X124070063Y-53368570D01*
X124140376Y-53263338D01*
X124188809Y-53146410D01*
X124213500Y-53022281D01*
X124213500Y-52895719D01*
X124188809Y-52771590D01*
X124140376Y-52654662D01*
X124070063Y-52549430D01*
X123980570Y-52459937D01*
X123875338Y-52389624D01*
X123833782Y-52372411D01*
X123876489Y-52292510D01*
X123906454Y-52193729D01*
X123916572Y-52091000D01*
X123916572Y-51541000D01*
X123906454Y-51438271D01*
X123876489Y-51339490D01*
X123827829Y-51248452D01*
X123770831Y-51179000D01*
X125351000Y-51179000D01*
X125351000Y-55926267D01*
G37*
%TD.AperFunction*%
D20*
X110931317Y-51274355D02*
X110898507Y-51382516D01*
X110887428Y-51495000D01*
X110887428Y-52645000D01*
X110898507Y-52757484D01*
X110931317Y-52865645D01*
X110984598Y-52965326D01*
X111056302Y-53052698D01*
X111143674Y-53124402D01*
X111243355Y-53177683D01*
X111351516Y-53210493D01*
X111464000Y-53221572D01*
X112564000Y-53221572D01*
X112676484Y-53210493D01*
X112784645Y-53177683D01*
X112884326Y-53124402D01*
X112971698Y-53052698D01*
X113043402Y-52965326D01*
X113096683Y-52865645D01*
X113129493Y-52757484D01*
X113140572Y-52645000D01*
X113140572Y-52518500D01*
X113189428Y-52518500D01*
X113189428Y-53151000D01*
X113195703Y-53214711D01*
X113214287Y-53275974D01*
X113244465Y-53332434D01*
X113285079Y-53381921D01*
X113334566Y-53422535D01*
X113391026Y-53452713D01*
X113452289Y-53471297D01*
X113516000Y-53477572D01*
X114576000Y-53477572D01*
X114639711Y-53471297D01*
X114648931Y-53468500D01*
X115389428Y-53468500D01*
X115389428Y-54101000D01*
X115395703Y-54164711D01*
X115414287Y-54225974D01*
X115444465Y-54282434D01*
X115485079Y-54331921D01*
X115534566Y-54372535D01*
X115591026Y-54402713D01*
X115652289Y-54421297D01*
X115716000Y-54427572D01*
X116776000Y-54427572D01*
X116839711Y-54421297D01*
X116848931Y-54418500D01*
X117253069Y-54418500D01*
X117262289Y-54421297D01*
X117326000Y-54427572D01*
X117568915Y-54427572D01*
X117566829Y-54428687D01*
X117468996Y-54508976D01*
X117448878Y-54533490D01*
X117161940Y-54820428D01*
X116744000Y-54820428D01*
X116680289Y-54826703D01*
X116619026Y-54845287D01*
X116562566Y-54875465D01*
X116513079Y-54916079D01*
X116472465Y-54965566D01*
X116459000Y-54990758D01*
X116445535Y-54965566D01*
X116404921Y-54916079D01*
X116355434Y-54875465D01*
X116298974Y-54845287D01*
X116237711Y-54826703D01*
X116174000Y-54820428D01*
X115474000Y-54820428D01*
X115410289Y-54826703D01*
X115349026Y-54845287D01*
X115292566Y-54875465D01*
X115243079Y-54916079D01*
X115202465Y-54965566D01*
X115189000Y-54990758D01*
X115175535Y-54965566D01*
X115134921Y-54916079D01*
X115085434Y-54875465D01*
X115028974Y-54845287D01*
X114967711Y-54826703D01*
X114904000Y-54820428D01*
X114813554Y-54820428D01*
X114449147Y-54456022D01*
X114447864Y-54449571D01*
X114406403Y-54349477D01*
X114346213Y-54259396D01*
X114269604Y-54182787D01*
X114179523Y-54122597D01*
X114079429Y-54081136D01*
X113973170Y-54060000D01*
X113864830Y-54060000D01*
X113758571Y-54081136D01*
X113658477Y-54122597D01*
X113568396Y-54182787D01*
X113491787Y-54259396D01*
X113431597Y-54349477D01*
X113390136Y-54449571D01*
X113369000Y-54555830D01*
X113369000Y-54664170D01*
X113390136Y-54770429D01*
X113410847Y-54820428D01*
X112934000Y-54820428D01*
X112870289Y-54826703D01*
X112809026Y-54845287D01*
X112752566Y-54875465D01*
X112703079Y-54916079D01*
X112662465Y-54965566D01*
X112632287Y-55022026D01*
X112613703Y-55083289D01*
X112607428Y-55147000D01*
X112607428Y-55313250D01*
X112131387Y-55313250D01*
X111767500Y-54949363D01*
X111767500Y-54927707D01*
X111742809Y-54803578D01*
X111694376Y-54686650D01*
X111624063Y-54581418D01*
X111534570Y-54491925D01*
X111429338Y-54421612D01*
X111312410Y-54373179D01*
X111188281Y-54348488D01*
X111061719Y-54348488D01*
X110937590Y-54373179D01*
X110820662Y-54421612D01*
X110715430Y-54491925D01*
X110625937Y-54581418D01*
X110555624Y-54686650D01*
X110546572Y-54708504D01*
X110546572Y-54110000D01*
X110530690Y-53948744D01*
X110483653Y-53793685D01*
X110407270Y-53650781D01*
X110304475Y-53525525D01*
X110179219Y-53422730D01*
X110036315Y-53346347D01*
X109881256Y-53299310D01*
X109862500Y-53297463D01*
X109862500Y-53199568D01*
X109934645Y-53177683D01*
X110034326Y-53124402D01*
X110121698Y-53052698D01*
X110193402Y-52965326D01*
X110246683Y-52865645D01*
X110279493Y-52757484D01*
X110290572Y-52645000D01*
X110290572Y-51495000D01*
X110279493Y-51382516D01*
X110246683Y-51274355D01*
X110195714Y-51179000D01*
X110982286Y-51179000D01*
X110931317Y-51274355D01*
%TA.AperFunction,Conductor*%
D21*
G36*
X110931317Y-51274355D02*
G01*
X110898507Y-51382516D01*
X110887428Y-51495000D01*
X110887428Y-52645000D01*
X110898507Y-52757484D01*
X110931317Y-52865645D01*
X110984598Y-52965326D01*
X111056302Y-53052698D01*
X111143674Y-53124402D01*
X111243355Y-53177683D01*
X111351516Y-53210493D01*
X111464000Y-53221572D01*
X112564000Y-53221572D01*
X112676484Y-53210493D01*
X112784645Y-53177683D01*
X112884326Y-53124402D01*
X112971698Y-53052698D01*
X113043402Y-52965326D01*
X113096683Y-52865645D01*
X113129493Y-52757484D01*
X113140572Y-52645000D01*
X113140572Y-52518500D01*
X113189428Y-52518500D01*
X113189428Y-53151000D01*
X113195703Y-53214711D01*
X113214287Y-53275974D01*
X113244465Y-53332434D01*
X113285079Y-53381921D01*
X113334566Y-53422535D01*
X113391026Y-53452713D01*
X113452289Y-53471297D01*
X113516000Y-53477572D01*
X114576000Y-53477572D01*
X114639711Y-53471297D01*
X114648931Y-53468500D01*
X115389428Y-53468500D01*
X115389428Y-54101000D01*
X115395703Y-54164711D01*
X115414287Y-54225974D01*
X115444465Y-54282434D01*
X115485079Y-54331921D01*
X115534566Y-54372535D01*
X115591026Y-54402713D01*
X115652289Y-54421297D01*
X115716000Y-54427572D01*
X116776000Y-54427572D01*
X116839711Y-54421297D01*
X116848931Y-54418500D01*
X117253069Y-54418500D01*
X117262289Y-54421297D01*
X117326000Y-54427572D01*
X117568915Y-54427572D01*
X117566829Y-54428687D01*
X117468996Y-54508976D01*
X117448878Y-54533490D01*
X117161940Y-54820428D01*
X116744000Y-54820428D01*
X116680289Y-54826703D01*
X116619026Y-54845287D01*
X116562566Y-54875465D01*
X116513079Y-54916079D01*
X116472465Y-54965566D01*
X116459000Y-54990758D01*
X116445535Y-54965566D01*
X116404921Y-54916079D01*
X116355434Y-54875465D01*
X116298974Y-54845287D01*
X116237711Y-54826703D01*
X116174000Y-54820428D01*
X115474000Y-54820428D01*
X115410289Y-54826703D01*
X115349026Y-54845287D01*
X115292566Y-54875465D01*
X115243079Y-54916079D01*
X115202465Y-54965566D01*
X115189000Y-54990758D01*
X115175535Y-54965566D01*
X115134921Y-54916079D01*
X115085434Y-54875465D01*
X115028974Y-54845287D01*
X114967711Y-54826703D01*
X114904000Y-54820428D01*
X114813554Y-54820428D01*
X114449147Y-54456022D01*
X114447864Y-54449571D01*
X114406403Y-54349477D01*
X114346213Y-54259396D01*
X114269604Y-54182787D01*
X114179523Y-54122597D01*
X114079429Y-54081136D01*
X113973170Y-54060000D01*
X113864830Y-54060000D01*
X113758571Y-54081136D01*
X113658477Y-54122597D01*
X113568396Y-54182787D01*
X113491787Y-54259396D01*
X113431597Y-54349477D01*
X113390136Y-54449571D01*
X113369000Y-54555830D01*
X113369000Y-54664170D01*
X113390136Y-54770429D01*
X113410847Y-54820428D01*
X112934000Y-54820428D01*
X112870289Y-54826703D01*
X112809026Y-54845287D01*
X112752566Y-54875465D01*
X112703079Y-54916079D01*
X112662465Y-54965566D01*
X112632287Y-55022026D01*
X112613703Y-55083289D01*
X112607428Y-55147000D01*
X112607428Y-55313250D01*
X112131387Y-55313250D01*
X111767500Y-54949363D01*
X111767500Y-54927707D01*
X111742809Y-54803578D01*
X111694376Y-54686650D01*
X111624063Y-54581418D01*
X111534570Y-54491925D01*
X111429338Y-54421612D01*
X111312410Y-54373179D01*
X111188281Y-54348488D01*
X111061719Y-54348488D01*
X110937590Y-54373179D01*
X110820662Y-54421612D01*
X110715430Y-54491925D01*
X110625937Y-54581418D01*
X110555624Y-54686650D01*
X110546572Y-54708504D01*
X110546572Y-54110000D01*
X110530690Y-53948744D01*
X110483653Y-53793685D01*
X110407270Y-53650781D01*
X110304475Y-53525525D01*
X110179219Y-53422730D01*
X110036315Y-53346347D01*
X109881256Y-53299310D01*
X109862500Y-53297463D01*
X109862500Y-53199568D01*
X109934645Y-53177683D01*
X110034326Y-53124402D01*
X110121698Y-53052698D01*
X110193402Y-52965326D01*
X110246683Y-52865645D01*
X110279493Y-52757484D01*
X110290572Y-52645000D01*
X110290572Y-51495000D01*
X110279493Y-51382516D01*
X110246683Y-51274355D01*
X110195714Y-51179000D01*
X110982286Y-51179000D01*
X110931317Y-51274355D01*
G37*
%TD.AperFunction*%
%TD*%
D22*
%TO.N,/+BATT*%
X119021250Y-64202885D02*
X119021250Y-64249402D01*
X119017824Y-64254530D01*
X118976213Y-64354988D01*
X118955000Y-64461633D01*
X118955000Y-64570367D01*
X118976213Y-64677012D01*
X119017824Y-64777470D01*
X119078234Y-64867880D01*
X119155120Y-64944766D01*
X119245530Y-65005176D01*
X119345988Y-65046787D01*
X119452633Y-65068000D01*
X119561367Y-65068000D01*
X119668012Y-65046787D01*
X119768470Y-65005176D01*
X119858880Y-64944766D01*
X119935766Y-64867880D01*
X119996176Y-64777470D01*
X120037787Y-64677012D01*
X120059000Y-64570367D01*
X120059000Y-64461633D01*
X120037787Y-64354988D01*
X120006967Y-64280582D01*
X120291000Y-64280582D01*
X120355103Y-64274268D01*
X120416743Y-64255570D01*
X120473550Y-64225206D01*
X120506092Y-64198500D01*
X121215908Y-64198500D01*
X121248450Y-64225206D01*
X121305257Y-64255570D01*
X121366897Y-64274268D01*
X121431000Y-64280582D01*
X121539000Y-64280582D01*
X121539000Y-65128540D01*
X121119541Y-65547999D01*
X120327648Y-65547999D01*
X120295998Y-65544882D01*
X120264349Y-65547999D01*
X120264342Y-65547999D01*
X120182215Y-65556088D01*
X120169654Y-65557325D01*
X120048166Y-65594178D01*
X119936202Y-65654024D01*
X119838064Y-65734564D01*
X119817885Y-65759152D01*
X119045620Y-66531418D01*
X118980000Y-66531418D01*
X118915897Y-66537732D01*
X118882047Y-66548000D01*
X117977953Y-66548000D01*
X117944103Y-66537732D01*
X117880000Y-66531418D01*
X117080000Y-66531418D01*
X117015897Y-66537732D01*
X116982047Y-66548000D01*
X116776500Y-66548000D01*
X116776500Y-65926123D01*
X116818239Y-65898234D01*
X116952234Y-65764239D01*
X117057514Y-65606678D01*
X117130031Y-65431605D01*
X117156395Y-65299065D01*
X117901879Y-64553582D01*
X118294000Y-64553582D01*
X118406876Y-64542465D01*
X118515414Y-64509540D01*
X118615443Y-64456073D01*
X118703119Y-64384119D01*
X118775073Y-64296443D01*
X118827425Y-64198500D01*
X119015907Y-64198500D01*
X119021250Y-64202885D01*
%TA.AperFunction,Conductor*%
D21*
G36*
X119021250Y-64202885D02*
G01*
X119021250Y-64249402D01*
X119017824Y-64254530D01*
X118976213Y-64354988D01*
X118955000Y-64461633D01*
X118955000Y-64570367D01*
X118976213Y-64677012D01*
X119017824Y-64777470D01*
X119078234Y-64867880D01*
X119155120Y-64944766D01*
X119245530Y-65005176D01*
X119345988Y-65046787D01*
X119452633Y-65068000D01*
X119561367Y-65068000D01*
X119668012Y-65046787D01*
X119768470Y-65005176D01*
X119858880Y-64944766D01*
X119935766Y-64867880D01*
X119996176Y-64777470D01*
X120037787Y-64677012D01*
X120059000Y-64570367D01*
X120059000Y-64461633D01*
X120037787Y-64354988D01*
X120006967Y-64280582D01*
X120291000Y-64280582D01*
X120355103Y-64274268D01*
X120416743Y-64255570D01*
X120473550Y-64225206D01*
X120506092Y-64198500D01*
X121215908Y-64198500D01*
X121248450Y-64225206D01*
X121305257Y-64255570D01*
X121366897Y-64274268D01*
X121431000Y-64280582D01*
X121539000Y-64280582D01*
X121539000Y-65128540D01*
X121119541Y-65547999D01*
X120327648Y-65547999D01*
X120295998Y-65544882D01*
X120264349Y-65547999D01*
X120264342Y-65547999D01*
X120182215Y-65556088D01*
X120169654Y-65557325D01*
X120048166Y-65594178D01*
X119936202Y-65654024D01*
X119838064Y-65734564D01*
X119817885Y-65759152D01*
X119045620Y-66531418D01*
X118980000Y-66531418D01*
X118915897Y-66537732D01*
X118882047Y-66548000D01*
X117977953Y-66548000D01*
X117944103Y-66537732D01*
X117880000Y-66531418D01*
X117080000Y-66531418D01*
X117015897Y-66537732D01*
X116982047Y-66548000D01*
X116776500Y-66548000D01*
X116776500Y-65926123D01*
X116818239Y-65898234D01*
X116952234Y-65764239D01*
X117057514Y-65606678D01*
X117130031Y-65431605D01*
X117156395Y-65299065D01*
X117901879Y-64553582D01*
X118294000Y-64553582D01*
X118406876Y-64542465D01*
X118515414Y-64509540D01*
X118615443Y-64456073D01*
X118703119Y-64384119D01*
X118775073Y-64296443D01*
X118827425Y-64198500D01*
X119015907Y-64198500D01*
X119021250Y-64202885D01*
G37*
%TD.AperFunction*%
%TD*%
M02*
