%TF.GenerationSoftware,KiCad,Pcbnew,5.1.8*%
%TF.CreationDate,2020-11-29T14:14:59+01:00*%
%TF.ProjectId,lipo-stamp-proto,6c69706f-2d73-4746-916d-702d70726f74,rev?*%
%TF.SameCoordinates,Original*%
%TF.FileFunction,Copper,L4,Bot*%
%TF.FilePolarity,Positive*%
%FSLAX46Y46*%
G04 Gerber Fmt 4.6, Leading zero omitted, Abs format (unit mm)*
G04 Created by KiCad (PCBNEW 5.1.8) date 2020-11-29 14:14:59*
%MOMM*%
%LPD*%
G01*
G04 APERTURE LIST*
%TA.AperFunction,ViaPad*%
%ADD10C,0.450000*%
%TD*%
%TA.AperFunction,ViaPad*%
%ADD11C,1.270000*%
%TD*%
%TA.AperFunction,ViaPad*%
%ADD12C,0.635000*%
%TD*%
%TA.AperFunction,Conductor*%
%ADD13C,0.254000*%
%TD*%
%TA.AperFunction,Conductor*%
%ADD14C,0.100000*%
%TD*%
G04 APERTURE END LIST*
%TO.P,TP10,1*%
%TO.N,GND*%
%TA.AperFunction,ComponentPad*%
G36*
G01*
X123460000Y-55110000D02*
X123460000Y-54110000D01*
G75*
G02*
X123960000Y-53610000I500000J0D01*
G01*
X124960000Y-53610000D01*
G75*
G02*
X125460000Y-54110000I0J-500000D01*
G01*
X125460000Y-55110000D01*
G75*
G02*
X124960000Y-55610000I-500000J0D01*
G01*
X123960000Y-55610000D01*
G75*
G02*
X123460000Y-55110000I0J500000D01*
G01*
G37*
%TD.AperFunction*%
%TD*%
%TO.P,TP9,1*%
%TO.N,/STAT*%
%TA.AperFunction,ComponentPad*%
G36*
G01*
X123460000Y-62730000D02*
X123460000Y-61730000D01*
G75*
G02*
X123960000Y-61230000I500000J0D01*
G01*
X124960000Y-61230000D01*
G75*
G02*
X125460000Y-61730000I0J-500000D01*
G01*
X125460000Y-62730000D01*
G75*
G02*
X124960000Y-63230000I-500000J0D01*
G01*
X123960000Y-63230000D01*
G75*
G02*
X123460000Y-62730000I0J500000D01*
G01*
G37*
%TD.AperFunction*%
%TD*%
%TO.P,TP8,1*%
%TO.N,/+3v3*%
%TA.AperFunction,ComponentPad*%
G36*
G01*
X123460000Y-60190000D02*
X123460000Y-59190000D01*
G75*
G02*
X123960000Y-58690000I500000J0D01*
G01*
X124960000Y-58690000D01*
G75*
G02*
X125460000Y-59190000I0J-500000D01*
G01*
X125460000Y-60190000D01*
G75*
G02*
X124960000Y-60690000I-500000J0D01*
G01*
X123960000Y-60690000D01*
G75*
G02*
X123460000Y-60190000I0J500000D01*
G01*
G37*
%TD.AperFunction*%
%TD*%
%TO.P,TP7,1*%
%TO.N,/+BATT*%
%TA.AperFunction,ComponentPad*%
G36*
G01*
X123460000Y-57650000D02*
X123460000Y-56650000D01*
G75*
G02*
X123960000Y-56150000I500000J0D01*
G01*
X124960000Y-56150000D01*
G75*
G02*
X125460000Y-56650000I0J-500000D01*
G01*
X125460000Y-57650000D01*
G75*
G02*
X124960000Y-58150000I-500000J0D01*
G01*
X123960000Y-58150000D01*
G75*
G02*
X123460000Y-57650000I0J500000D01*
G01*
G37*
%TD.AperFunction*%
%TD*%
%TO.P,TP6,1*%
%TO.N,/VMAX*%
%TA.AperFunction,ComponentPad*%
G36*
G01*
X123460000Y-65270000D02*
X123460000Y-64270000D01*
G75*
G02*
X123960000Y-63770000I500000J0D01*
G01*
X124960000Y-63770000D01*
G75*
G02*
X125460000Y-64270000I0J-500000D01*
G01*
X125460000Y-65270000D01*
G75*
G02*
X124960000Y-65770000I-500000J0D01*
G01*
X123960000Y-65770000D01*
G75*
G02*
X123460000Y-65270000I0J500000D01*
G01*
G37*
%TD.AperFunction*%
%TD*%
%TO.P,TP5,1*%
%TO.N,/3v3_EN*%
%TA.AperFunction,ComponentPad*%
G36*
G01*
X108220000Y-60190000D02*
X108220000Y-59190000D01*
G75*
G02*
X108720000Y-58690000I500000J0D01*
G01*
X109720000Y-58690000D01*
G75*
G02*
X110220000Y-59190000I0J-500000D01*
G01*
X110220000Y-60190000D01*
G75*
G02*
X109720000Y-60690000I-500000J0D01*
G01*
X108720000Y-60690000D01*
G75*
G02*
X108220000Y-60190000I0J500000D01*
G01*
G37*
%TD.AperFunction*%
%TD*%
%TO.P,TP4,1*%
%TO.N,/+CHARGE*%
%TA.AperFunction,ComponentPad*%
G36*
G01*
X108220000Y-65270000D02*
X108220000Y-64270000D01*
G75*
G02*
X108720000Y-63770000I500000J0D01*
G01*
X109720000Y-63770000D01*
G75*
G02*
X110220000Y-64270000I0J-500000D01*
G01*
X110220000Y-65270000D01*
G75*
G02*
X109720000Y-65770000I-500000J0D01*
G01*
X108720000Y-65770000D01*
G75*
G02*
X108220000Y-65270000I0J500000D01*
G01*
G37*
%TD.AperFunction*%
%TD*%
%TO.P,TP3,1*%
%TO.N,GND*%
%TA.AperFunction,ComponentPad*%
G36*
G01*
X108220000Y-62730000D02*
X108220000Y-61730000D01*
G75*
G02*
X108720000Y-61230000I500000J0D01*
G01*
X109720000Y-61230000D01*
G75*
G02*
X110220000Y-61730000I0J-500000D01*
G01*
X110220000Y-62730000D01*
G75*
G02*
X109720000Y-63230000I-500000J0D01*
G01*
X108720000Y-63230000D01*
G75*
G02*
X108220000Y-62730000I0J500000D01*
G01*
G37*
%TD.AperFunction*%
%TD*%
%TO.P,TP2,1*%
%TO.N,/+BATT*%
%TA.AperFunction,ComponentPad*%
G36*
G01*
X108220000Y-57650000D02*
X108220000Y-56650000D01*
G75*
G02*
X108720000Y-56150000I500000J0D01*
G01*
X109720000Y-56150000D01*
G75*
G02*
X110220000Y-56650000I0J-500000D01*
G01*
X110220000Y-57650000D01*
G75*
G02*
X109720000Y-58150000I-500000J0D01*
G01*
X108720000Y-58150000D01*
G75*
G02*
X108220000Y-57650000I0J500000D01*
G01*
G37*
%TD.AperFunction*%
%TD*%
%TO.P,TP1,1*%
%TO.N,/-BATT_RAW*%
%TA.AperFunction,ComponentPad*%
G36*
G01*
X108220000Y-55110000D02*
X108220000Y-54110000D01*
G75*
G02*
X108720000Y-53610000I500000J0D01*
G01*
X109720000Y-53610000D01*
G75*
G02*
X110220000Y-54110000I0J-500000D01*
G01*
X110220000Y-55110000D01*
G75*
G02*
X109720000Y-55610000I-500000J0D01*
G01*
X108720000Y-55610000D01*
G75*
G02*
X108220000Y-55110000I0J500000D01*
G01*
G37*
%TD.AperFunction*%
%TD*%
D10*
%TO.N,GND*%
X116586000Y-58547000D03*
X113792000Y-58547000D03*
X115189000Y-59436000D03*
X115189000Y-57658000D03*
X116586000Y-59436000D03*
X113792000Y-57658000D03*
X116586000Y-57658000D03*
X113792000Y-59436000D03*
D11*
X112014000Y-54102000D03*
D12*
X110871000Y-67183000D03*
D10*
X117538500Y-57658000D03*
X117538500Y-58547000D03*
X117538500Y-59436000D03*
X112839500Y-59436000D03*
X112839500Y-58547000D03*
X112839500Y-57658000D03*
D11*
%TO.N,Net-(C1-Pad1)*%
X113919000Y-67310000D03*
X116205000Y-65151000D03*
D12*
X111125000Y-54990988D03*
D11*
%TO.N,/+BATT*%
X120904000Y-64770000D03*
D12*
X122809000Y-53530500D03*
%TO.N,/-BATT*%
X115125500Y-51562000D03*
X119126000Y-51879500D03*
%TO.N,Net-(D1-Pad1)*%
X113284000Y-66294000D03*
X112268000Y-62611000D03*
X119507000Y-58420000D03*
%TO.N,Net-(D2-Pad1)*%
X111252000Y-58420000D03*
X111633000Y-66421000D03*
D11*
%TO.N,/+CHARGE*%
X122682000Y-67310000D03*
X116078000Y-67310010D03*
%TO.N,/VMAX*%
X119126000Y-60579000D03*
D10*
%TO.N,/STAT*%
X113919000Y-54610000D03*
D12*
%TO.N,Net-(R6-Pad1)*%
X118872000Y-52832000D03*
X122809000Y-52514500D03*
D10*
%TO.N,/3v3_EN*%
X119507000Y-64516000D03*
%TD*%
D13*
%TO.N,GND*%
X114409611Y-51344837D02*
X114381000Y-51488673D01*
X114381000Y-51635327D01*
X114409611Y-51779163D01*
X114465733Y-51914653D01*
X114547209Y-52036591D01*
X114650909Y-52140291D01*
X114772847Y-52221767D01*
X114908337Y-52277889D01*
X115052173Y-52306500D01*
X115198827Y-52306500D01*
X115342663Y-52277889D01*
X115478153Y-52221767D01*
X115600091Y-52140291D01*
X115703791Y-52036591D01*
X115785267Y-51914653D01*
X115841389Y-51779163D01*
X115870000Y-51635327D01*
X115870000Y-51488673D01*
X115841389Y-51344837D01*
X115802935Y-51252000D01*
X118725056Y-51252000D01*
X118651409Y-51301209D01*
X118547709Y-51404909D01*
X118466233Y-51526847D01*
X118410111Y-51662337D01*
X118381500Y-51806173D01*
X118381500Y-51952827D01*
X118410111Y-52096663D01*
X118458307Y-52213018D01*
X118397409Y-52253709D01*
X118293709Y-52357409D01*
X118212233Y-52479347D01*
X118156111Y-52614837D01*
X118127500Y-52758673D01*
X118127500Y-52905327D01*
X118156111Y-53049163D01*
X118212233Y-53184653D01*
X118293709Y-53306591D01*
X118397409Y-53410291D01*
X118519347Y-53491767D01*
X118654837Y-53547889D01*
X118798673Y-53576500D01*
X118945327Y-53576500D01*
X119089163Y-53547889D01*
X119224653Y-53491767D01*
X119346591Y-53410291D01*
X119450291Y-53306591D01*
X119531767Y-53184653D01*
X119587889Y-53049163D01*
X119616500Y-52905327D01*
X119616500Y-52758673D01*
X119587889Y-52614837D01*
X119539693Y-52498482D01*
X119600591Y-52457791D01*
X119617209Y-52441173D01*
X122064500Y-52441173D01*
X122064500Y-52587827D01*
X122093111Y-52731663D01*
X122149233Y-52867153D01*
X122230709Y-52989091D01*
X122264118Y-53022500D01*
X122230709Y-53055909D01*
X122149233Y-53177847D01*
X122093111Y-53313337D01*
X122064500Y-53457173D01*
X122064500Y-53603827D01*
X122093111Y-53747663D01*
X122149233Y-53883153D01*
X122230709Y-54005091D01*
X122334409Y-54108791D01*
X122456347Y-54190267D01*
X122591837Y-54246389D01*
X122735673Y-54275000D01*
X122882327Y-54275000D01*
X123026163Y-54246389D01*
X123161653Y-54190267D01*
X123283591Y-54108791D01*
X123387291Y-54005091D01*
X123468767Y-53883153D01*
X123524889Y-53747663D01*
X123553500Y-53603827D01*
X123553500Y-53457173D01*
X123524889Y-53313337D01*
X123468767Y-53177847D01*
X123387291Y-53055909D01*
X123353882Y-53022500D01*
X123387291Y-52989091D01*
X123468767Y-52867153D01*
X123524889Y-52731663D01*
X123553500Y-52587827D01*
X123553500Y-52441173D01*
X123524889Y-52297337D01*
X123468767Y-52161847D01*
X123387291Y-52039909D01*
X123283591Y-51936209D01*
X123161653Y-51854733D01*
X123026163Y-51798611D01*
X122882327Y-51770000D01*
X122735673Y-51770000D01*
X122591837Y-51798611D01*
X122456347Y-51854733D01*
X122334409Y-51936209D01*
X122230709Y-52039909D01*
X122149233Y-52161847D01*
X122093111Y-52297337D01*
X122064500Y-52441173D01*
X119617209Y-52441173D01*
X119704291Y-52354091D01*
X119785767Y-52232153D01*
X119841889Y-52096663D01*
X119870500Y-51952827D01*
X119870500Y-51806173D01*
X119841889Y-51662337D01*
X119785767Y-51526847D01*
X119704291Y-51404909D01*
X119600591Y-51301209D01*
X119526944Y-51252000D01*
X125278001Y-51252000D01*
X125278001Y-55780268D01*
X125141252Y-55738786D01*
X124960000Y-55720934D01*
X123960000Y-55720934D01*
X123778748Y-55738786D01*
X123604462Y-55791655D01*
X123443839Y-55877510D01*
X123303051Y-55993051D01*
X123187510Y-56133839D01*
X123101655Y-56294462D01*
X123048786Y-56468748D01*
X123030934Y-56650000D01*
X123030934Y-57650000D01*
X123048786Y-57831252D01*
X123101655Y-58005538D01*
X123187510Y-58166161D01*
X123303051Y-58306949D01*
X123440805Y-58420000D01*
X123303051Y-58533051D01*
X123187510Y-58673839D01*
X123101655Y-58834462D01*
X123048786Y-59008748D01*
X123030934Y-59190000D01*
X123030934Y-60190000D01*
X123048786Y-60371252D01*
X123101655Y-60545538D01*
X123187510Y-60706161D01*
X123303051Y-60846949D01*
X123440805Y-60960000D01*
X123303051Y-61073051D01*
X123187510Y-61213839D01*
X123101655Y-61374462D01*
X123048786Y-61548748D01*
X123030934Y-61730000D01*
X123030934Y-62730000D01*
X123048786Y-62911252D01*
X123101655Y-63085538D01*
X123187510Y-63246161D01*
X123303051Y-63386949D01*
X123440805Y-63500000D01*
X123303051Y-63613051D01*
X123187510Y-63753839D01*
X123101655Y-63914462D01*
X123048786Y-64088748D01*
X123030934Y-64270000D01*
X123030934Y-65270000D01*
X123048786Y-65451252D01*
X123101655Y-65625538D01*
X123187510Y-65786161D01*
X123303051Y-65926949D01*
X123443839Y-66042490D01*
X123604462Y-66128345D01*
X123778748Y-66181214D01*
X123960000Y-66199066D01*
X124960000Y-66199066D01*
X125141252Y-66181214D01*
X125278000Y-66139732D01*
X125278000Y-68128000D01*
X123365896Y-68128000D01*
X123506910Y-67986986D01*
X123623133Y-67813046D01*
X123703188Y-67619774D01*
X123744000Y-67414598D01*
X123744000Y-67205402D01*
X123703188Y-67000226D01*
X123623133Y-66806954D01*
X123506910Y-66633014D01*
X123358986Y-66485090D01*
X123185046Y-66368867D01*
X122991774Y-66288812D01*
X122786598Y-66248000D01*
X122577402Y-66248000D01*
X122372226Y-66288812D01*
X122178954Y-66368867D01*
X122005014Y-66485090D01*
X121857090Y-66633014D01*
X121740867Y-66806954D01*
X121660812Y-67000226D01*
X121620000Y-67205402D01*
X121620000Y-67414598D01*
X121660812Y-67619774D01*
X121740867Y-67813046D01*
X121857090Y-67986986D01*
X121998104Y-68128000D01*
X116761906Y-68128000D01*
X116902910Y-67986996D01*
X117019133Y-67813056D01*
X117099188Y-67619784D01*
X117140000Y-67414608D01*
X117140000Y-67205412D01*
X117099188Y-67000236D01*
X117019133Y-66806964D01*
X116902910Y-66633024D01*
X116754986Y-66485100D01*
X116581046Y-66368877D01*
X116387774Y-66288822D01*
X116182598Y-66248010D01*
X115973402Y-66248010D01*
X115768226Y-66288822D01*
X115574954Y-66368877D01*
X115401014Y-66485100D01*
X115253090Y-66633024D01*
X115136867Y-66806964D01*
X115056812Y-67000236D01*
X115016000Y-67205412D01*
X115016000Y-67414608D01*
X115056812Y-67619784D01*
X115136867Y-67813056D01*
X115253090Y-67986996D01*
X115394094Y-68128000D01*
X114602896Y-68128000D01*
X114743910Y-67986986D01*
X114860133Y-67813046D01*
X114940188Y-67619774D01*
X114981000Y-67414598D01*
X114981000Y-67205402D01*
X114940188Y-67000226D01*
X114860133Y-66806954D01*
X114743910Y-66633014D01*
X114595986Y-66485090D01*
X114422046Y-66368867D01*
X114228774Y-66288812D01*
X114028500Y-66248975D01*
X114028500Y-66220673D01*
X113999889Y-66076837D01*
X113943767Y-65941347D01*
X113862291Y-65819409D01*
X113758591Y-65715709D01*
X113636653Y-65634233D01*
X113501163Y-65578111D01*
X113357327Y-65549500D01*
X113210673Y-65549500D01*
X113066837Y-65578111D01*
X112931347Y-65634233D01*
X112809409Y-65715709D01*
X112705709Y-65819409D01*
X112624233Y-65941347D01*
X112568111Y-66076837D01*
X112539500Y-66220673D01*
X112539500Y-66367327D01*
X112568111Y-66511163D01*
X112624233Y-66646653D01*
X112705709Y-66768591D01*
X112809409Y-66872291D01*
X112920154Y-66946288D01*
X112897812Y-67000226D01*
X112857000Y-67205402D01*
X112857000Y-67414598D01*
X112897812Y-67619774D01*
X112977867Y-67813046D01*
X113094090Y-67986986D01*
X113235104Y-68128000D01*
X108402000Y-68128000D01*
X108402000Y-66347673D01*
X110888500Y-66347673D01*
X110888500Y-66494327D01*
X110917111Y-66638163D01*
X110973233Y-66773653D01*
X111054709Y-66895591D01*
X111158409Y-66999291D01*
X111280347Y-67080767D01*
X111415837Y-67136889D01*
X111559673Y-67165500D01*
X111706327Y-67165500D01*
X111850163Y-67136889D01*
X111985653Y-67080767D01*
X112107591Y-66999291D01*
X112211291Y-66895591D01*
X112292767Y-66773653D01*
X112348889Y-66638163D01*
X112377500Y-66494327D01*
X112377500Y-66347673D01*
X112348889Y-66203837D01*
X112292767Y-66068347D01*
X112211291Y-65946409D01*
X112107591Y-65842709D01*
X111985653Y-65761233D01*
X111850163Y-65705111D01*
X111706327Y-65676500D01*
X111559673Y-65676500D01*
X111415837Y-65705111D01*
X111280347Y-65761233D01*
X111158409Y-65842709D01*
X111054709Y-65946409D01*
X110973233Y-66068347D01*
X110917111Y-66203837D01*
X110888500Y-66347673D01*
X108402000Y-66347673D01*
X108402000Y-66139732D01*
X108538748Y-66181214D01*
X108720000Y-66199066D01*
X109720000Y-66199066D01*
X109901252Y-66181214D01*
X110075538Y-66128345D01*
X110236161Y-66042490D01*
X110376949Y-65926949D01*
X110492490Y-65786161D01*
X110578345Y-65625538D01*
X110631214Y-65451252D01*
X110649066Y-65270000D01*
X110649066Y-65046402D01*
X115143000Y-65046402D01*
X115143000Y-65255598D01*
X115183812Y-65460774D01*
X115263867Y-65654046D01*
X115380090Y-65827986D01*
X115528014Y-65975910D01*
X115701954Y-66092133D01*
X115895226Y-66172188D01*
X116100402Y-66213000D01*
X116309598Y-66213000D01*
X116514774Y-66172188D01*
X116708046Y-66092133D01*
X116881986Y-65975910D01*
X117029910Y-65827986D01*
X117146133Y-65654046D01*
X117226188Y-65460774D01*
X117267000Y-65255598D01*
X117267000Y-65046402D01*
X117226188Y-64841226D01*
X117146133Y-64647954D01*
X117029910Y-64474014D01*
X117007680Y-64451784D01*
X118855000Y-64451784D01*
X118855000Y-64580216D01*
X118880056Y-64706181D01*
X118929205Y-64824838D01*
X119000558Y-64931626D01*
X119091374Y-65022442D01*
X119198162Y-65093795D01*
X119316819Y-65142944D01*
X119442784Y-65168000D01*
X119571216Y-65168000D01*
X119697181Y-65142944D01*
X119815838Y-65093795D01*
X119877417Y-65052650D01*
X119882812Y-65079774D01*
X119962867Y-65273046D01*
X120079090Y-65446986D01*
X120227014Y-65594910D01*
X120400954Y-65711133D01*
X120594226Y-65791188D01*
X120799402Y-65832000D01*
X121008598Y-65832000D01*
X121213774Y-65791188D01*
X121407046Y-65711133D01*
X121580986Y-65594910D01*
X121728910Y-65446986D01*
X121845133Y-65273046D01*
X121925188Y-65079774D01*
X121966000Y-64874598D01*
X121966000Y-64665402D01*
X121925188Y-64460226D01*
X121845133Y-64266954D01*
X121728910Y-64093014D01*
X121580986Y-63945090D01*
X121407046Y-63828867D01*
X121213774Y-63748812D01*
X121008598Y-63708000D01*
X120799402Y-63708000D01*
X120594226Y-63748812D01*
X120400954Y-63828867D01*
X120227014Y-63945090D01*
X120079090Y-64093014D01*
X120043807Y-64145819D01*
X120013442Y-64100374D01*
X119922626Y-64009558D01*
X119815838Y-63938205D01*
X119697181Y-63889056D01*
X119571216Y-63864000D01*
X119442784Y-63864000D01*
X119316819Y-63889056D01*
X119198162Y-63938205D01*
X119091374Y-64009558D01*
X119000558Y-64100374D01*
X118929205Y-64207162D01*
X118880056Y-64325819D01*
X118855000Y-64451784D01*
X117007680Y-64451784D01*
X116881986Y-64326090D01*
X116708046Y-64209867D01*
X116514774Y-64129812D01*
X116309598Y-64089000D01*
X116100402Y-64089000D01*
X115895226Y-64129812D01*
X115701954Y-64209867D01*
X115528014Y-64326090D01*
X115380090Y-64474014D01*
X115263867Y-64647954D01*
X115183812Y-64841226D01*
X115143000Y-65046402D01*
X110649066Y-65046402D01*
X110649066Y-64270000D01*
X110631214Y-64088748D01*
X110578345Y-63914462D01*
X110492490Y-63753839D01*
X110376949Y-63613051D01*
X110236161Y-63497510D01*
X110075538Y-63411655D01*
X109901252Y-63358786D01*
X109720000Y-63340934D01*
X108720000Y-63340934D01*
X108538748Y-63358786D01*
X108402000Y-63400268D01*
X108402000Y-62537673D01*
X111523500Y-62537673D01*
X111523500Y-62684327D01*
X111552111Y-62828163D01*
X111608233Y-62963653D01*
X111689709Y-63085591D01*
X111793409Y-63189291D01*
X111915347Y-63270767D01*
X112050837Y-63326889D01*
X112194673Y-63355500D01*
X112341327Y-63355500D01*
X112485163Y-63326889D01*
X112620653Y-63270767D01*
X112742591Y-63189291D01*
X112846291Y-63085591D01*
X112927767Y-62963653D01*
X112983889Y-62828163D01*
X113012500Y-62684327D01*
X113012500Y-62537673D01*
X112983889Y-62393837D01*
X112927767Y-62258347D01*
X112846291Y-62136409D01*
X112742591Y-62032709D01*
X112620653Y-61951233D01*
X112485163Y-61895111D01*
X112341327Y-61866500D01*
X112194673Y-61866500D01*
X112050837Y-61895111D01*
X111915347Y-61951233D01*
X111793409Y-62032709D01*
X111689709Y-62136409D01*
X111608233Y-62258347D01*
X111552111Y-62393837D01*
X111523500Y-62537673D01*
X108402000Y-62537673D01*
X108402000Y-61059732D01*
X108538748Y-61101214D01*
X108720000Y-61119066D01*
X109720000Y-61119066D01*
X109901252Y-61101214D01*
X110075538Y-61048345D01*
X110236161Y-60962490D01*
X110376949Y-60846949D01*
X110492490Y-60706161D01*
X110578345Y-60545538D01*
X110599923Y-60474402D01*
X118064000Y-60474402D01*
X118064000Y-60683598D01*
X118104812Y-60888774D01*
X118184867Y-61082046D01*
X118301090Y-61255986D01*
X118449014Y-61403910D01*
X118622954Y-61520133D01*
X118816226Y-61600188D01*
X119021402Y-61641000D01*
X119230598Y-61641000D01*
X119435774Y-61600188D01*
X119629046Y-61520133D01*
X119802986Y-61403910D01*
X119950910Y-61255986D01*
X120067133Y-61082046D01*
X120147188Y-60888774D01*
X120188000Y-60683598D01*
X120188000Y-60474402D01*
X120147188Y-60269226D01*
X120067133Y-60075954D01*
X119950910Y-59902014D01*
X119802986Y-59754090D01*
X119629046Y-59637867D01*
X119435774Y-59557812D01*
X119230598Y-59517000D01*
X119021402Y-59517000D01*
X118816226Y-59557812D01*
X118622954Y-59637867D01*
X118449014Y-59754090D01*
X118301090Y-59902014D01*
X118184867Y-60075954D01*
X118104812Y-60269226D01*
X118064000Y-60474402D01*
X110599923Y-60474402D01*
X110631214Y-60371252D01*
X110649066Y-60190000D01*
X110649066Y-59190000D01*
X110631214Y-59008748D01*
X110578345Y-58834462D01*
X110492490Y-58673839D01*
X110376949Y-58533051D01*
X110239195Y-58420000D01*
X110328544Y-58346673D01*
X110507500Y-58346673D01*
X110507500Y-58493327D01*
X110536111Y-58637163D01*
X110592233Y-58772653D01*
X110673709Y-58894591D01*
X110777409Y-58998291D01*
X110899347Y-59079767D01*
X111034837Y-59135889D01*
X111178673Y-59164500D01*
X111325327Y-59164500D01*
X111469163Y-59135889D01*
X111604653Y-59079767D01*
X111726591Y-58998291D01*
X111830291Y-58894591D01*
X111911767Y-58772653D01*
X111967889Y-58637163D01*
X111996500Y-58493327D01*
X111996500Y-58346673D01*
X118762500Y-58346673D01*
X118762500Y-58493327D01*
X118791111Y-58637163D01*
X118847233Y-58772653D01*
X118928709Y-58894591D01*
X119032409Y-58998291D01*
X119154347Y-59079767D01*
X119289837Y-59135889D01*
X119433673Y-59164500D01*
X119580327Y-59164500D01*
X119724163Y-59135889D01*
X119859653Y-59079767D01*
X119981591Y-58998291D01*
X120085291Y-58894591D01*
X120166767Y-58772653D01*
X120222889Y-58637163D01*
X120251500Y-58493327D01*
X120251500Y-58346673D01*
X120222889Y-58202837D01*
X120166767Y-58067347D01*
X120085291Y-57945409D01*
X119981591Y-57841709D01*
X119859653Y-57760233D01*
X119724163Y-57704111D01*
X119580327Y-57675500D01*
X119433673Y-57675500D01*
X119289837Y-57704111D01*
X119154347Y-57760233D01*
X119032409Y-57841709D01*
X118928709Y-57945409D01*
X118847233Y-58067347D01*
X118791111Y-58202837D01*
X118762500Y-58346673D01*
X111996500Y-58346673D01*
X111967889Y-58202837D01*
X111911767Y-58067347D01*
X111830291Y-57945409D01*
X111726591Y-57841709D01*
X111604653Y-57760233D01*
X111469163Y-57704111D01*
X111325327Y-57675500D01*
X111178673Y-57675500D01*
X111034837Y-57704111D01*
X110899347Y-57760233D01*
X110777409Y-57841709D01*
X110673709Y-57945409D01*
X110592233Y-58067347D01*
X110536111Y-58202837D01*
X110507500Y-58346673D01*
X110328544Y-58346673D01*
X110376949Y-58306949D01*
X110492490Y-58166161D01*
X110578345Y-58005538D01*
X110631214Y-57831252D01*
X110649066Y-57650000D01*
X110649066Y-56650000D01*
X110631214Y-56468748D01*
X110578345Y-56294462D01*
X110492490Y-56133839D01*
X110376949Y-55993051D01*
X110239195Y-55880000D01*
X110376949Y-55766949D01*
X110492490Y-55626161D01*
X110567311Y-55486181D01*
X110650409Y-55569279D01*
X110772347Y-55650755D01*
X110907837Y-55706877D01*
X111051673Y-55735488D01*
X111198327Y-55735488D01*
X111342163Y-55706877D01*
X111477653Y-55650755D01*
X111599591Y-55569279D01*
X111703291Y-55465579D01*
X111784767Y-55343641D01*
X111840889Y-55208151D01*
X111869500Y-55064315D01*
X111869500Y-54917661D01*
X111840889Y-54773825D01*
X111784767Y-54638335D01*
X111722927Y-54545784D01*
X113267000Y-54545784D01*
X113267000Y-54674216D01*
X113292056Y-54800181D01*
X113341205Y-54918838D01*
X113412558Y-55025626D01*
X113503374Y-55116442D01*
X113610162Y-55187795D01*
X113728819Y-55236944D01*
X113854784Y-55262000D01*
X113983216Y-55262000D01*
X114109181Y-55236944D01*
X114227838Y-55187795D01*
X114334626Y-55116442D01*
X114425442Y-55025626D01*
X114496795Y-54918838D01*
X114545944Y-54800181D01*
X114571000Y-54674216D01*
X114571000Y-54545784D01*
X114545944Y-54419819D01*
X114496795Y-54301162D01*
X114425442Y-54194374D01*
X114334626Y-54103558D01*
X114227838Y-54032205D01*
X114109181Y-53983056D01*
X113983216Y-53958000D01*
X113854784Y-53958000D01*
X113728819Y-53983056D01*
X113610162Y-54032205D01*
X113503374Y-54103558D01*
X113412558Y-54194374D01*
X113341205Y-54301162D01*
X113292056Y-54419819D01*
X113267000Y-54545784D01*
X111722927Y-54545784D01*
X111703291Y-54516397D01*
X111599591Y-54412697D01*
X111477653Y-54331221D01*
X111342163Y-54275099D01*
X111198327Y-54246488D01*
X111051673Y-54246488D01*
X110907837Y-54275099D01*
X110772347Y-54331221D01*
X110650409Y-54412697D01*
X110649066Y-54414040D01*
X110649066Y-54110000D01*
X110631214Y-53928748D01*
X110578345Y-53754462D01*
X110492490Y-53593839D01*
X110376949Y-53453051D01*
X110236161Y-53337510D01*
X110075538Y-53251655D01*
X109901252Y-53198786D01*
X109720000Y-53180934D01*
X108720000Y-53180934D01*
X108538748Y-53198786D01*
X108402000Y-53240268D01*
X108402000Y-51252000D01*
X114448065Y-51252000D01*
X114409611Y-51344837D01*
%TA.AperFunction,Conductor*%
D14*
G36*
X114409611Y-51344837D02*
G01*
X114381000Y-51488673D01*
X114381000Y-51635327D01*
X114409611Y-51779163D01*
X114465733Y-51914653D01*
X114547209Y-52036591D01*
X114650909Y-52140291D01*
X114772847Y-52221767D01*
X114908337Y-52277889D01*
X115052173Y-52306500D01*
X115198827Y-52306500D01*
X115342663Y-52277889D01*
X115478153Y-52221767D01*
X115600091Y-52140291D01*
X115703791Y-52036591D01*
X115785267Y-51914653D01*
X115841389Y-51779163D01*
X115870000Y-51635327D01*
X115870000Y-51488673D01*
X115841389Y-51344837D01*
X115802935Y-51252000D01*
X118725056Y-51252000D01*
X118651409Y-51301209D01*
X118547709Y-51404909D01*
X118466233Y-51526847D01*
X118410111Y-51662337D01*
X118381500Y-51806173D01*
X118381500Y-51952827D01*
X118410111Y-52096663D01*
X118458307Y-52213018D01*
X118397409Y-52253709D01*
X118293709Y-52357409D01*
X118212233Y-52479347D01*
X118156111Y-52614837D01*
X118127500Y-52758673D01*
X118127500Y-52905327D01*
X118156111Y-53049163D01*
X118212233Y-53184653D01*
X118293709Y-53306591D01*
X118397409Y-53410291D01*
X118519347Y-53491767D01*
X118654837Y-53547889D01*
X118798673Y-53576500D01*
X118945327Y-53576500D01*
X119089163Y-53547889D01*
X119224653Y-53491767D01*
X119346591Y-53410291D01*
X119450291Y-53306591D01*
X119531767Y-53184653D01*
X119587889Y-53049163D01*
X119616500Y-52905327D01*
X119616500Y-52758673D01*
X119587889Y-52614837D01*
X119539693Y-52498482D01*
X119600591Y-52457791D01*
X119617209Y-52441173D01*
X122064500Y-52441173D01*
X122064500Y-52587827D01*
X122093111Y-52731663D01*
X122149233Y-52867153D01*
X122230709Y-52989091D01*
X122264118Y-53022500D01*
X122230709Y-53055909D01*
X122149233Y-53177847D01*
X122093111Y-53313337D01*
X122064500Y-53457173D01*
X122064500Y-53603827D01*
X122093111Y-53747663D01*
X122149233Y-53883153D01*
X122230709Y-54005091D01*
X122334409Y-54108791D01*
X122456347Y-54190267D01*
X122591837Y-54246389D01*
X122735673Y-54275000D01*
X122882327Y-54275000D01*
X123026163Y-54246389D01*
X123161653Y-54190267D01*
X123283591Y-54108791D01*
X123387291Y-54005091D01*
X123468767Y-53883153D01*
X123524889Y-53747663D01*
X123553500Y-53603827D01*
X123553500Y-53457173D01*
X123524889Y-53313337D01*
X123468767Y-53177847D01*
X123387291Y-53055909D01*
X123353882Y-53022500D01*
X123387291Y-52989091D01*
X123468767Y-52867153D01*
X123524889Y-52731663D01*
X123553500Y-52587827D01*
X123553500Y-52441173D01*
X123524889Y-52297337D01*
X123468767Y-52161847D01*
X123387291Y-52039909D01*
X123283591Y-51936209D01*
X123161653Y-51854733D01*
X123026163Y-51798611D01*
X122882327Y-51770000D01*
X122735673Y-51770000D01*
X122591837Y-51798611D01*
X122456347Y-51854733D01*
X122334409Y-51936209D01*
X122230709Y-52039909D01*
X122149233Y-52161847D01*
X122093111Y-52297337D01*
X122064500Y-52441173D01*
X119617209Y-52441173D01*
X119704291Y-52354091D01*
X119785767Y-52232153D01*
X119841889Y-52096663D01*
X119870500Y-51952827D01*
X119870500Y-51806173D01*
X119841889Y-51662337D01*
X119785767Y-51526847D01*
X119704291Y-51404909D01*
X119600591Y-51301209D01*
X119526944Y-51252000D01*
X125278001Y-51252000D01*
X125278001Y-55780268D01*
X125141252Y-55738786D01*
X124960000Y-55720934D01*
X123960000Y-55720934D01*
X123778748Y-55738786D01*
X123604462Y-55791655D01*
X123443839Y-55877510D01*
X123303051Y-55993051D01*
X123187510Y-56133839D01*
X123101655Y-56294462D01*
X123048786Y-56468748D01*
X123030934Y-56650000D01*
X123030934Y-57650000D01*
X123048786Y-57831252D01*
X123101655Y-58005538D01*
X123187510Y-58166161D01*
X123303051Y-58306949D01*
X123440805Y-58420000D01*
X123303051Y-58533051D01*
X123187510Y-58673839D01*
X123101655Y-58834462D01*
X123048786Y-59008748D01*
X123030934Y-59190000D01*
X123030934Y-60190000D01*
X123048786Y-60371252D01*
X123101655Y-60545538D01*
X123187510Y-60706161D01*
X123303051Y-60846949D01*
X123440805Y-60960000D01*
X123303051Y-61073051D01*
X123187510Y-61213839D01*
X123101655Y-61374462D01*
X123048786Y-61548748D01*
X123030934Y-61730000D01*
X123030934Y-62730000D01*
X123048786Y-62911252D01*
X123101655Y-63085538D01*
X123187510Y-63246161D01*
X123303051Y-63386949D01*
X123440805Y-63500000D01*
X123303051Y-63613051D01*
X123187510Y-63753839D01*
X123101655Y-63914462D01*
X123048786Y-64088748D01*
X123030934Y-64270000D01*
X123030934Y-65270000D01*
X123048786Y-65451252D01*
X123101655Y-65625538D01*
X123187510Y-65786161D01*
X123303051Y-65926949D01*
X123443839Y-66042490D01*
X123604462Y-66128345D01*
X123778748Y-66181214D01*
X123960000Y-66199066D01*
X124960000Y-66199066D01*
X125141252Y-66181214D01*
X125278000Y-66139732D01*
X125278000Y-68128000D01*
X123365896Y-68128000D01*
X123506910Y-67986986D01*
X123623133Y-67813046D01*
X123703188Y-67619774D01*
X123744000Y-67414598D01*
X123744000Y-67205402D01*
X123703188Y-67000226D01*
X123623133Y-66806954D01*
X123506910Y-66633014D01*
X123358986Y-66485090D01*
X123185046Y-66368867D01*
X122991774Y-66288812D01*
X122786598Y-66248000D01*
X122577402Y-66248000D01*
X122372226Y-66288812D01*
X122178954Y-66368867D01*
X122005014Y-66485090D01*
X121857090Y-66633014D01*
X121740867Y-66806954D01*
X121660812Y-67000226D01*
X121620000Y-67205402D01*
X121620000Y-67414598D01*
X121660812Y-67619774D01*
X121740867Y-67813046D01*
X121857090Y-67986986D01*
X121998104Y-68128000D01*
X116761906Y-68128000D01*
X116902910Y-67986996D01*
X117019133Y-67813056D01*
X117099188Y-67619784D01*
X117140000Y-67414608D01*
X117140000Y-67205412D01*
X117099188Y-67000236D01*
X117019133Y-66806964D01*
X116902910Y-66633024D01*
X116754986Y-66485100D01*
X116581046Y-66368877D01*
X116387774Y-66288822D01*
X116182598Y-66248010D01*
X115973402Y-66248010D01*
X115768226Y-66288822D01*
X115574954Y-66368877D01*
X115401014Y-66485100D01*
X115253090Y-66633024D01*
X115136867Y-66806964D01*
X115056812Y-67000236D01*
X115016000Y-67205412D01*
X115016000Y-67414608D01*
X115056812Y-67619784D01*
X115136867Y-67813056D01*
X115253090Y-67986996D01*
X115394094Y-68128000D01*
X114602896Y-68128000D01*
X114743910Y-67986986D01*
X114860133Y-67813046D01*
X114940188Y-67619774D01*
X114981000Y-67414598D01*
X114981000Y-67205402D01*
X114940188Y-67000226D01*
X114860133Y-66806954D01*
X114743910Y-66633014D01*
X114595986Y-66485090D01*
X114422046Y-66368867D01*
X114228774Y-66288812D01*
X114028500Y-66248975D01*
X114028500Y-66220673D01*
X113999889Y-66076837D01*
X113943767Y-65941347D01*
X113862291Y-65819409D01*
X113758591Y-65715709D01*
X113636653Y-65634233D01*
X113501163Y-65578111D01*
X113357327Y-65549500D01*
X113210673Y-65549500D01*
X113066837Y-65578111D01*
X112931347Y-65634233D01*
X112809409Y-65715709D01*
X112705709Y-65819409D01*
X112624233Y-65941347D01*
X112568111Y-66076837D01*
X112539500Y-66220673D01*
X112539500Y-66367327D01*
X112568111Y-66511163D01*
X112624233Y-66646653D01*
X112705709Y-66768591D01*
X112809409Y-66872291D01*
X112920154Y-66946288D01*
X112897812Y-67000226D01*
X112857000Y-67205402D01*
X112857000Y-67414598D01*
X112897812Y-67619774D01*
X112977867Y-67813046D01*
X113094090Y-67986986D01*
X113235104Y-68128000D01*
X108402000Y-68128000D01*
X108402000Y-66347673D01*
X110888500Y-66347673D01*
X110888500Y-66494327D01*
X110917111Y-66638163D01*
X110973233Y-66773653D01*
X111054709Y-66895591D01*
X111158409Y-66999291D01*
X111280347Y-67080767D01*
X111415837Y-67136889D01*
X111559673Y-67165500D01*
X111706327Y-67165500D01*
X111850163Y-67136889D01*
X111985653Y-67080767D01*
X112107591Y-66999291D01*
X112211291Y-66895591D01*
X112292767Y-66773653D01*
X112348889Y-66638163D01*
X112377500Y-66494327D01*
X112377500Y-66347673D01*
X112348889Y-66203837D01*
X112292767Y-66068347D01*
X112211291Y-65946409D01*
X112107591Y-65842709D01*
X111985653Y-65761233D01*
X111850163Y-65705111D01*
X111706327Y-65676500D01*
X111559673Y-65676500D01*
X111415837Y-65705111D01*
X111280347Y-65761233D01*
X111158409Y-65842709D01*
X111054709Y-65946409D01*
X110973233Y-66068347D01*
X110917111Y-66203837D01*
X110888500Y-66347673D01*
X108402000Y-66347673D01*
X108402000Y-66139732D01*
X108538748Y-66181214D01*
X108720000Y-66199066D01*
X109720000Y-66199066D01*
X109901252Y-66181214D01*
X110075538Y-66128345D01*
X110236161Y-66042490D01*
X110376949Y-65926949D01*
X110492490Y-65786161D01*
X110578345Y-65625538D01*
X110631214Y-65451252D01*
X110649066Y-65270000D01*
X110649066Y-65046402D01*
X115143000Y-65046402D01*
X115143000Y-65255598D01*
X115183812Y-65460774D01*
X115263867Y-65654046D01*
X115380090Y-65827986D01*
X115528014Y-65975910D01*
X115701954Y-66092133D01*
X115895226Y-66172188D01*
X116100402Y-66213000D01*
X116309598Y-66213000D01*
X116514774Y-66172188D01*
X116708046Y-66092133D01*
X116881986Y-65975910D01*
X117029910Y-65827986D01*
X117146133Y-65654046D01*
X117226188Y-65460774D01*
X117267000Y-65255598D01*
X117267000Y-65046402D01*
X117226188Y-64841226D01*
X117146133Y-64647954D01*
X117029910Y-64474014D01*
X117007680Y-64451784D01*
X118855000Y-64451784D01*
X118855000Y-64580216D01*
X118880056Y-64706181D01*
X118929205Y-64824838D01*
X119000558Y-64931626D01*
X119091374Y-65022442D01*
X119198162Y-65093795D01*
X119316819Y-65142944D01*
X119442784Y-65168000D01*
X119571216Y-65168000D01*
X119697181Y-65142944D01*
X119815838Y-65093795D01*
X119877417Y-65052650D01*
X119882812Y-65079774D01*
X119962867Y-65273046D01*
X120079090Y-65446986D01*
X120227014Y-65594910D01*
X120400954Y-65711133D01*
X120594226Y-65791188D01*
X120799402Y-65832000D01*
X121008598Y-65832000D01*
X121213774Y-65791188D01*
X121407046Y-65711133D01*
X121580986Y-65594910D01*
X121728910Y-65446986D01*
X121845133Y-65273046D01*
X121925188Y-65079774D01*
X121966000Y-64874598D01*
X121966000Y-64665402D01*
X121925188Y-64460226D01*
X121845133Y-64266954D01*
X121728910Y-64093014D01*
X121580986Y-63945090D01*
X121407046Y-63828867D01*
X121213774Y-63748812D01*
X121008598Y-63708000D01*
X120799402Y-63708000D01*
X120594226Y-63748812D01*
X120400954Y-63828867D01*
X120227014Y-63945090D01*
X120079090Y-64093014D01*
X120043807Y-64145819D01*
X120013442Y-64100374D01*
X119922626Y-64009558D01*
X119815838Y-63938205D01*
X119697181Y-63889056D01*
X119571216Y-63864000D01*
X119442784Y-63864000D01*
X119316819Y-63889056D01*
X119198162Y-63938205D01*
X119091374Y-64009558D01*
X119000558Y-64100374D01*
X118929205Y-64207162D01*
X118880056Y-64325819D01*
X118855000Y-64451784D01*
X117007680Y-64451784D01*
X116881986Y-64326090D01*
X116708046Y-64209867D01*
X116514774Y-64129812D01*
X116309598Y-64089000D01*
X116100402Y-64089000D01*
X115895226Y-64129812D01*
X115701954Y-64209867D01*
X115528014Y-64326090D01*
X115380090Y-64474014D01*
X115263867Y-64647954D01*
X115183812Y-64841226D01*
X115143000Y-65046402D01*
X110649066Y-65046402D01*
X110649066Y-64270000D01*
X110631214Y-64088748D01*
X110578345Y-63914462D01*
X110492490Y-63753839D01*
X110376949Y-63613051D01*
X110236161Y-63497510D01*
X110075538Y-63411655D01*
X109901252Y-63358786D01*
X109720000Y-63340934D01*
X108720000Y-63340934D01*
X108538748Y-63358786D01*
X108402000Y-63400268D01*
X108402000Y-62537673D01*
X111523500Y-62537673D01*
X111523500Y-62684327D01*
X111552111Y-62828163D01*
X111608233Y-62963653D01*
X111689709Y-63085591D01*
X111793409Y-63189291D01*
X111915347Y-63270767D01*
X112050837Y-63326889D01*
X112194673Y-63355500D01*
X112341327Y-63355500D01*
X112485163Y-63326889D01*
X112620653Y-63270767D01*
X112742591Y-63189291D01*
X112846291Y-63085591D01*
X112927767Y-62963653D01*
X112983889Y-62828163D01*
X113012500Y-62684327D01*
X113012500Y-62537673D01*
X112983889Y-62393837D01*
X112927767Y-62258347D01*
X112846291Y-62136409D01*
X112742591Y-62032709D01*
X112620653Y-61951233D01*
X112485163Y-61895111D01*
X112341327Y-61866500D01*
X112194673Y-61866500D01*
X112050837Y-61895111D01*
X111915347Y-61951233D01*
X111793409Y-62032709D01*
X111689709Y-62136409D01*
X111608233Y-62258347D01*
X111552111Y-62393837D01*
X111523500Y-62537673D01*
X108402000Y-62537673D01*
X108402000Y-61059732D01*
X108538748Y-61101214D01*
X108720000Y-61119066D01*
X109720000Y-61119066D01*
X109901252Y-61101214D01*
X110075538Y-61048345D01*
X110236161Y-60962490D01*
X110376949Y-60846949D01*
X110492490Y-60706161D01*
X110578345Y-60545538D01*
X110599923Y-60474402D01*
X118064000Y-60474402D01*
X118064000Y-60683598D01*
X118104812Y-60888774D01*
X118184867Y-61082046D01*
X118301090Y-61255986D01*
X118449014Y-61403910D01*
X118622954Y-61520133D01*
X118816226Y-61600188D01*
X119021402Y-61641000D01*
X119230598Y-61641000D01*
X119435774Y-61600188D01*
X119629046Y-61520133D01*
X119802986Y-61403910D01*
X119950910Y-61255986D01*
X120067133Y-61082046D01*
X120147188Y-60888774D01*
X120188000Y-60683598D01*
X120188000Y-60474402D01*
X120147188Y-60269226D01*
X120067133Y-60075954D01*
X119950910Y-59902014D01*
X119802986Y-59754090D01*
X119629046Y-59637867D01*
X119435774Y-59557812D01*
X119230598Y-59517000D01*
X119021402Y-59517000D01*
X118816226Y-59557812D01*
X118622954Y-59637867D01*
X118449014Y-59754090D01*
X118301090Y-59902014D01*
X118184867Y-60075954D01*
X118104812Y-60269226D01*
X118064000Y-60474402D01*
X110599923Y-60474402D01*
X110631214Y-60371252D01*
X110649066Y-60190000D01*
X110649066Y-59190000D01*
X110631214Y-59008748D01*
X110578345Y-58834462D01*
X110492490Y-58673839D01*
X110376949Y-58533051D01*
X110239195Y-58420000D01*
X110328544Y-58346673D01*
X110507500Y-58346673D01*
X110507500Y-58493327D01*
X110536111Y-58637163D01*
X110592233Y-58772653D01*
X110673709Y-58894591D01*
X110777409Y-58998291D01*
X110899347Y-59079767D01*
X111034837Y-59135889D01*
X111178673Y-59164500D01*
X111325327Y-59164500D01*
X111469163Y-59135889D01*
X111604653Y-59079767D01*
X111726591Y-58998291D01*
X111830291Y-58894591D01*
X111911767Y-58772653D01*
X111967889Y-58637163D01*
X111996500Y-58493327D01*
X111996500Y-58346673D01*
X118762500Y-58346673D01*
X118762500Y-58493327D01*
X118791111Y-58637163D01*
X118847233Y-58772653D01*
X118928709Y-58894591D01*
X119032409Y-58998291D01*
X119154347Y-59079767D01*
X119289837Y-59135889D01*
X119433673Y-59164500D01*
X119580327Y-59164500D01*
X119724163Y-59135889D01*
X119859653Y-59079767D01*
X119981591Y-58998291D01*
X120085291Y-58894591D01*
X120166767Y-58772653D01*
X120222889Y-58637163D01*
X120251500Y-58493327D01*
X120251500Y-58346673D01*
X120222889Y-58202837D01*
X120166767Y-58067347D01*
X120085291Y-57945409D01*
X119981591Y-57841709D01*
X119859653Y-57760233D01*
X119724163Y-57704111D01*
X119580327Y-57675500D01*
X119433673Y-57675500D01*
X119289837Y-57704111D01*
X119154347Y-57760233D01*
X119032409Y-57841709D01*
X118928709Y-57945409D01*
X118847233Y-58067347D01*
X118791111Y-58202837D01*
X118762500Y-58346673D01*
X111996500Y-58346673D01*
X111967889Y-58202837D01*
X111911767Y-58067347D01*
X111830291Y-57945409D01*
X111726591Y-57841709D01*
X111604653Y-57760233D01*
X111469163Y-57704111D01*
X111325327Y-57675500D01*
X111178673Y-57675500D01*
X111034837Y-57704111D01*
X110899347Y-57760233D01*
X110777409Y-57841709D01*
X110673709Y-57945409D01*
X110592233Y-58067347D01*
X110536111Y-58202837D01*
X110507500Y-58346673D01*
X110328544Y-58346673D01*
X110376949Y-58306949D01*
X110492490Y-58166161D01*
X110578345Y-58005538D01*
X110631214Y-57831252D01*
X110649066Y-57650000D01*
X110649066Y-56650000D01*
X110631214Y-56468748D01*
X110578345Y-56294462D01*
X110492490Y-56133839D01*
X110376949Y-55993051D01*
X110239195Y-55880000D01*
X110376949Y-55766949D01*
X110492490Y-55626161D01*
X110567311Y-55486181D01*
X110650409Y-55569279D01*
X110772347Y-55650755D01*
X110907837Y-55706877D01*
X111051673Y-55735488D01*
X111198327Y-55735488D01*
X111342163Y-55706877D01*
X111477653Y-55650755D01*
X111599591Y-55569279D01*
X111703291Y-55465579D01*
X111784767Y-55343641D01*
X111840889Y-55208151D01*
X111869500Y-55064315D01*
X111869500Y-54917661D01*
X111840889Y-54773825D01*
X111784767Y-54638335D01*
X111722927Y-54545784D01*
X113267000Y-54545784D01*
X113267000Y-54674216D01*
X113292056Y-54800181D01*
X113341205Y-54918838D01*
X113412558Y-55025626D01*
X113503374Y-55116442D01*
X113610162Y-55187795D01*
X113728819Y-55236944D01*
X113854784Y-55262000D01*
X113983216Y-55262000D01*
X114109181Y-55236944D01*
X114227838Y-55187795D01*
X114334626Y-55116442D01*
X114425442Y-55025626D01*
X114496795Y-54918838D01*
X114545944Y-54800181D01*
X114571000Y-54674216D01*
X114571000Y-54545784D01*
X114545944Y-54419819D01*
X114496795Y-54301162D01*
X114425442Y-54194374D01*
X114334626Y-54103558D01*
X114227838Y-54032205D01*
X114109181Y-53983056D01*
X113983216Y-53958000D01*
X113854784Y-53958000D01*
X113728819Y-53983056D01*
X113610162Y-54032205D01*
X113503374Y-54103558D01*
X113412558Y-54194374D01*
X113341205Y-54301162D01*
X113292056Y-54419819D01*
X113267000Y-54545784D01*
X111722927Y-54545784D01*
X111703291Y-54516397D01*
X111599591Y-54412697D01*
X111477653Y-54331221D01*
X111342163Y-54275099D01*
X111198327Y-54246488D01*
X111051673Y-54246488D01*
X110907837Y-54275099D01*
X110772347Y-54331221D01*
X110650409Y-54412697D01*
X110649066Y-54414040D01*
X110649066Y-54110000D01*
X110631214Y-53928748D01*
X110578345Y-53754462D01*
X110492490Y-53593839D01*
X110376949Y-53453051D01*
X110236161Y-53337510D01*
X110075538Y-53251655D01*
X109901252Y-53198786D01*
X109720000Y-53180934D01*
X108720000Y-53180934D01*
X108538748Y-53198786D01*
X108402000Y-53240268D01*
X108402000Y-51252000D01*
X114448065Y-51252000D01*
X114409611Y-51344837D01*
G37*
%TD.AperFunction*%
%TD*%
M02*
