%TF.GenerationSoftware,KiCad,Pcbnew,5.1.8*%
%TF.CreationDate,2020-11-30T19:21:11+01:00*%
%TF.ProjectId,lipo-stamp-proto,6c69706f-2d73-4746-916d-702d70726f74,rev?*%
%TF.SameCoordinates,Original*%
%TF.FileFunction,Copper,L3,Inr*%
%TF.FilePolarity,Positive*%
%FSLAX46Y46*%
G04 Gerber Fmt 4.6, Leading zero omitted, Abs format (unit mm)*
G04 Created by KiCad (PCBNEW 5.1.8) date 2020-11-30 19:21:11*
%MOMM*%
%LPD*%
G01*
G04 APERTURE LIST*
%TA.AperFunction,ViaPad*%
%ADD10C,0.450000*%
%TD*%
%TA.AperFunction,ViaPad*%
%ADD11C,0.635000*%
%TD*%
%TA.AperFunction,Conductor*%
%ADD12C,1.270000*%
%TD*%
%TA.AperFunction,Conductor*%
%ADD13C,0.317500*%
%TD*%
%TA.AperFunction,Conductor*%
%ADD14C,0.250000*%
%TD*%
%TA.AperFunction,Conductor*%
%ADD15C,0.254000*%
%TD*%
%TA.AperFunction,Conductor*%
%ADD16C,0.100000*%
%TD*%
G04 APERTURE END LIST*
%TO.N,GND*%
%TO.C,TP10*%
%TA.AperFunction,ComponentPad*%
G36*
G01*
X123460000Y-55110000D02*
X123460000Y-54110000D01*
G75*
G02*
X123960000Y-53610000I500000J0D01*
G01*
X124960000Y-53610000D01*
G75*
G02*
X125460000Y-54110000I0J-500000D01*
G01*
X125460000Y-55110000D01*
G75*
G02*
X124960000Y-55610000I-500000J0D01*
G01*
X123960000Y-55610000D01*
G75*
G02*
X123460000Y-55110000I0J500000D01*
G01*
G37*
%TD.AperFunction*%
%TD*%
%TO.N,/STAT*%
%TO.C,TP9*%
%TA.AperFunction,ComponentPad*%
G36*
G01*
X123460000Y-62730000D02*
X123460000Y-61730000D01*
G75*
G02*
X123960000Y-61230000I500000J0D01*
G01*
X124960000Y-61230000D01*
G75*
G02*
X125460000Y-61730000I0J-500000D01*
G01*
X125460000Y-62730000D01*
G75*
G02*
X124960000Y-63230000I-500000J0D01*
G01*
X123960000Y-63230000D01*
G75*
G02*
X123460000Y-62730000I0J500000D01*
G01*
G37*
%TD.AperFunction*%
%TD*%
%TO.N,/+3v3*%
%TO.C,TP8*%
%TA.AperFunction,ComponentPad*%
G36*
G01*
X123460000Y-60190000D02*
X123460000Y-59190000D01*
G75*
G02*
X123960000Y-58690000I500000J0D01*
G01*
X124960000Y-58690000D01*
G75*
G02*
X125460000Y-59190000I0J-500000D01*
G01*
X125460000Y-60190000D01*
G75*
G02*
X124960000Y-60690000I-500000J0D01*
G01*
X123960000Y-60690000D01*
G75*
G02*
X123460000Y-60190000I0J500000D01*
G01*
G37*
%TD.AperFunction*%
%TD*%
%TO.N,/+BATT*%
%TO.C,TP7*%
%TA.AperFunction,ComponentPad*%
G36*
G01*
X123460000Y-57650000D02*
X123460000Y-56650000D01*
G75*
G02*
X123960000Y-56150000I500000J0D01*
G01*
X124960000Y-56150000D01*
G75*
G02*
X125460000Y-56650000I0J-500000D01*
G01*
X125460000Y-57650000D01*
G75*
G02*
X124960000Y-58150000I-500000J0D01*
G01*
X123960000Y-58150000D01*
G75*
G02*
X123460000Y-57650000I0J500000D01*
G01*
G37*
%TD.AperFunction*%
%TD*%
%TO.N,/VMAX*%
%TO.C,TP6*%
%TA.AperFunction,ComponentPad*%
G36*
G01*
X123460000Y-65270000D02*
X123460000Y-64270000D01*
G75*
G02*
X123960000Y-63770000I500000J0D01*
G01*
X124960000Y-63770000D01*
G75*
G02*
X125460000Y-64270000I0J-500000D01*
G01*
X125460000Y-65270000D01*
G75*
G02*
X124960000Y-65770000I-500000J0D01*
G01*
X123960000Y-65770000D01*
G75*
G02*
X123460000Y-65270000I0J500000D01*
G01*
G37*
%TD.AperFunction*%
%TD*%
%TO.N,/3v3_EN*%
%TO.C,TP5*%
%TA.AperFunction,ComponentPad*%
G36*
G01*
X108220000Y-60190000D02*
X108220000Y-59190000D01*
G75*
G02*
X108720000Y-58690000I500000J0D01*
G01*
X109720000Y-58690000D01*
G75*
G02*
X110220000Y-59190000I0J-500000D01*
G01*
X110220000Y-60190000D01*
G75*
G02*
X109720000Y-60690000I-500000J0D01*
G01*
X108720000Y-60690000D01*
G75*
G02*
X108220000Y-60190000I0J500000D01*
G01*
G37*
%TD.AperFunction*%
%TD*%
%TO.N,/+CHARGE*%
%TO.C,TP4*%
%TA.AperFunction,ComponentPad*%
G36*
G01*
X108220000Y-65270000D02*
X108220000Y-64270000D01*
G75*
G02*
X108720000Y-63770000I500000J0D01*
G01*
X109720000Y-63770000D01*
G75*
G02*
X110220000Y-64270000I0J-500000D01*
G01*
X110220000Y-65270000D01*
G75*
G02*
X109720000Y-65770000I-500000J0D01*
G01*
X108720000Y-65770000D01*
G75*
G02*
X108220000Y-65270000I0J500000D01*
G01*
G37*
%TD.AperFunction*%
%TD*%
%TO.N,GND*%
%TO.C,TP3*%
%TA.AperFunction,ComponentPad*%
G36*
G01*
X108220000Y-62730000D02*
X108220000Y-61730000D01*
G75*
G02*
X108720000Y-61230000I500000J0D01*
G01*
X109720000Y-61230000D01*
G75*
G02*
X110220000Y-61730000I0J-500000D01*
G01*
X110220000Y-62730000D01*
G75*
G02*
X109720000Y-63230000I-500000J0D01*
G01*
X108720000Y-63230000D01*
G75*
G02*
X108220000Y-62730000I0J500000D01*
G01*
G37*
%TD.AperFunction*%
%TD*%
%TO.N,/+BATT*%
%TO.C,TP2*%
%TA.AperFunction,ComponentPad*%
G36*
G01*
X108220000Y-57650000D02*
X108220000Y-56650000D01*
G75*
G02*
X108720000Y-56150000I500000J0D01*
G01*
X109720000Y-56150000D01*
G75*
G02*
X110220000Y-56650000I0J-500000D01*
G01*
X110220000Y-57650000D01*
G75*
G02*
X109720000Y-58150000I-500000J0D01*
G01*
X108720000Y-58150000D01*
G75*
G02*
X108220000Y-57650000I0J500000D01*
G01*
G37*
%TD.AperFunction*%
%TD*%
%TO.N,/-BATT_RAW*%
%TO.C,TP1*%
%TA.AperFunction,ComponentPad*%
G36*
G01*
X108220000Y-55110000D02*
X108220000Y-54110000D01*
G75*
G02*
X108720000Y-53610000I500000J0D01*
G01*
X109720000Y-53610000D01*
G75*
G02*
X110220000Y-54110000I0J-500000D01*
G01*
X110220000Y-55110000D01*
G75*
G02*
X109720000Y-55610000I-500000J0D01*
G01*
X108720000Y-55610000D01*
G75*
G02*
X108220000Y-55110000I0J500000D01*
G01*
G37*
%TD.AperFunction*%
%TD*%
D10*
%TO.N,GND*%
X116586000Y-58547000D03*
X113792000Y-58547000D03*
X115189000Y-59436000D03*
X115189000Y-57658000D03*
X116586000Y-59436000D03*
X113792000Y-57658000D03*
X116586000Y-57658000D03*
X113792000Y-59436000D03*
D11*
X110490000Y-66421000D03*
D10*
X117538500Y-57658000D03*
X117538500Y-58547000D03*
X117538500Y-59436000D03*
X112839500Y-59436000D03*
X112839500Y-58547000D03*
X118516400Y-57658000D03*
X111836200Y-59436000D03*
X111836200Y-58572400D03*
X112344200Y-60198000D03*
D11*
X115189000Y-53670200D03*
X115189000Y-54559200D03*
X111506000Y-54610000D03*
X120851052Y-61161052D03*
X122671448Y-62727448D03*
X115824000Y-62357000D03*
D10*
X113347500Y-60198000D03*
X118427500Y-59118500D03*
X120015000Y-59182000D03*
X121285000Y-59182000D03*
D11*
%TO.N,Net-(C1-Pad1)*%
X116205000Y-65151000D03*
D10*
X112839500Y-57658000D03*
D11*
%TO.N,/+BATT*%
X122809000Y-53530500D03*
X117348000Y-65913000D03*
X120904000Y-64262000D03*
X120904000Y-65151000D03*
X119380000Y-65532000D03*
X117729000Y-65024000D03*
%TO.N,/-BATT*%
X115125500Y-51562000D03*
X119126000Y-51879500D03*
%TO.N,Net-(D1-Pad1)*%
X112268000Y-62611000D03*
X119314551Y-57469551D03*
X113601500Y-66611488D03*
%TO.N,Net-(D2-Pad1)*%
X111633000Y-66421000D03*
X110617000Y-52959000D03*
%TO.N,/+CHARGE*%
X122555000Y-66548000D03*
X116078000Y-67437000D03*
X123190000Y-67437000D03*
X122047000Y-67437000D03*
D10*
X118237000Y-67881500D03*
X118237000Y-66992500D03*
X120396000Y-68008500D03*
X120396000Y-67183000D03*
D11*
X115189283Y-67437135D03*
%TO.N,/VMAX*%
X118237000Y-60706000D03*
X118237000Y-61722000D03*
D10*
X119570500Y-60896500D03*
D11*
%TO.N,/STAT*%
X112903000Y-53467000D03*
D10*
X113919000Y-54610000D03*
D11*
%TO.N,Net-(R6-Pad1)*%
X118872000Y-52832000D03*
X123571000Y-52959000D03*
D10*
%TO.N,/3v3_EN*%
X119507000Y-64516000D03*
%TD*%
D12*
%TO.N,/+BATT*%
X123952000Y-57150000D02*
X124460000Y-57150000D01*
X121518947Y-63647053D02*
X120904000Y-64262000D01*
X122624990Y-57985010D02*
X122624990Y-61068204D01*
X121518947Y-62174247D02*
X121518947Y-63647053D01*
X122624990Y-61068204D02*
X121518947Y-62174247D01*
X123460000Y-57150000D02*
X122624990Y-57985010D01*
X124460000Y-57150000D02*
X123460000Y-57150000D01*
D13*
%TO.N,Net-(D1-Pad1)*%
X119314551Y-59476049D02*
X119314551Y-57469551D01*
X118770849Y-60019751D02*
X119314551Y-59476049D01*
X114859249Y-60019751D02*
X118770849Y-60019751D01*
X112268000Y-62611000D02*
X114859249Y-60019751D01*
D14*
%TO.N,/3v3_EN*%
X109220000Y-59690000D02*
X109601000Y-59690000D01*
X109601000Y-59690000D02*
X110744000Y-60833000D01*
X110744000Y-60833000D02*
X110744000Y-62230000D01*
X110744000Y-62230000D02*
X112141000Y-63627000D01*
D13*
X118618000Y-63627000D02*
X119507000Y-64516000D01*
X112141000Y-63627000D02*
X118618000Y-63627000D01*
%TD*%
D15*
%TO.N,/+BATT*%
X121793000Y-66167000D02*
X116840000Y-66167000D01*
X116840000Y-65540720D01*
X116864767Y-65503653D01*
X116920889Y-65368163D01*
X116949500Y-65224327D01*
X116949500Y-65077673D01*
X116920889Y-64933837D01*
X116864767Y-64798347D01*
X116840000Y-64761280D01*
X116840000Y-64212750D01*
X118375376Y-64212750D01*
X118888011Y-64725385D01*
X118929205Y-64824838D01*
X119000558Y-64931626D01*
X119091374Y-65022442D01*
X119198162Y-65093795D01*
X119316819Y-65142944D01*
X119442784Y-65168000D01*
X119571216Y-65168000D01*
X119697181Y-65142944D01*
X119815838Y-65093795D01*
X119922626Y-65022442D01*
X120013442Y-64931626D01*
X120084795Y-64824838D01*
X120133944Y-64706181D01*
X120159000Y-64580216D01*
X120159000Y-64451784D01*
X120133944Y-64325819D01*
X120084795Y-64207162D01*
X120013442Y-64100374D01*
X119922626Y-64009558D01*
X119815838Y-63938205D01*
X119716385Y-63897011D01*
X119065374Y-63246000D01*
X121793000Y-63246000D01*
X121793000Y-66167000D01*
%TA.AperFunction,Conductor*%
D16*
G36*
X121793000Y-66167000D02*
G01*
X116840000Y-66167000D01*
X116840000Y-65540720D01*
X116864767Y-65503653D01*
X116920889Y-65368163D01*
X116949500Y-65224327D01*
X116949500Y-65077673D01*
X116920889Y-64933837D01*
X116864767Y-64798347D01*
X116840000Y-64761280D01*
X116840000Y-64212750D01*
X118375376Y-64212750D01*
X118888011Y-64725385D01*
X118929205Y-64824838D01*
X119000558Y-64931626D01*
X119091374Y-65022442D01*
X119198162Y-65093795D01*
X119316819Y-65142944D01*
X119442784Y-65168000D01*
X119571216Y-65168000D01*
X119697181Y-65142944D01*
X119815838Y-65093795D01*
X119922626Y-65022442D01*
X120013442Y-64931626D01*
X120084795Y-64824838D01*
X120133944Y-64706181D01*
X120159000Y-64580216D01*
X120159000Y-64451784D01*
X120133944Y-64325819D01*
X120084795Y-64207162D01*
X120013442Y-64100374D01*
X119922626Y-64009558D01*
X119815838Y-63938205D01*
X119716385Y-63897011D01*
X119065374Y-63246000D01*
X121793000Y-63246000D01*
X121793000Y-66167000D01*
G37*
%TD.AperFunction*%
%TD*%
D15*
%TO.N,/+CHARGE*%
X110363000Y-65687176D02*
X110272837Y-65705111D01*
X110137347Y-65761233D01*
X110015409Y-65842709D01*
X109911709Y-65946409D01*
X109830233Y-66068347D01*
X109774111Y-66203837D01*
X109745500Y-66347673D01*
X109745500Y-66494327D01*
X109774111Y-66638163D01*
X109830233Y-66773653D01*
X109911709Y-66895591D01*
X110015409Y-66999291D01*
X110137347Y-67080767D01*
X110272837Y-67136889D01*
X110416673Y-67165500D01*
X110563327Y-67165500D01*
X110707163Y-67136889D01*
X110842653Y-67080767D01*
X110964591Y-66999291D01*
X111061500Y-66902382D01*
X111158409Y-66999291D01*
X111280347Y-67080767D01*
X111415837Y-67136889D01*
X111559673Y-67165500D01*
X111706327Y-67165500D01*
X111850163Y-67136889D01*
X111985653Y-67080767D01*
X112107591Y-66999291D01*
X112211291Y-66895591D01*
X112292767Y-66773653D01*
X112348889Y-66638163D01*
X112377500Y-66494327D01*
X112377500Y-66347673D01*
X112348889Y-66203837D01*
X112333631Y-66167000D01*
X113003095Y-66167000D01*
X112941733Y-66258835D01*
X112885611Y-66394325D01*
X112857000Y-66538161D01*
X112857000Y-66684815D01*
X112885611Y-66828651D01*
X112941733Y-66964141D01*
X113023209Y-67086079D01*
X113126909Y-67189779D01*
X113248847Y-67271255D01*
X113384337Y-67327377D01*
X113528173Y-67355988D01*
X113674827Y-67355988D01*
X113818663Y-67327377D01*
X113954153Y-67271255D01*
X114076091Y-67189779D01*
X114179791Y-67086079D01*
X114261267Y-66964141D01*
X114317389Y-66828651D01*
X114346000Y-66684815D01*
X114346000Y-66538161D01*
X114317389Y-66394325D01*
X114261267Y-66258835D01*
X114199905Y-66167000D01*
X116286000Y-66167000D01*
X116286000Y-66294000D01*
X116294205Y-66377304D01*
X116318503Y-66457406D01*
X116357962Y-66531228D01*
X116411065Y-66595935D01*
X116475772Y-66649038D01*
X116549594Y-66688497D01*
X116629696Y-66712795D01*
X116713000Y-66721000D01*
X121920000Y-66721000D01*
X122003304Y-66712795D01*
X122083406Y-66688497D01*
X122157228Y-66649038D01*
X122221935Y-66595935D01*
X122275038Y-66531228D01*
X122314497Y-66457406D01*
X122338795Y-66377304D01*
X122347000Y-66294000D01*
X122347000Y-66167000D01*
X123731891Y-66167000D01*
X123778748Y-66181214D01*
X123960000Y-66199066D01*
X124960000Y-66199066D01*
X125141252Y-66181214D01*
X125188109Y-66167000D01*
X125278000Y-66167000D01*
X125278000Y-68128000D01*
X108402000Y-68128000D01*
X108402000Y-63754000D01*
X110363000Y-63754000D01*
X110363000Y-65687176D01*
%TA.AperFunction,Conductor*%
D16*
G36*
X110363000Y-65687176D02*
G01*
X110272837Y-65705111D01*
X110137347Y-65761233D01*
X110015409Y-65842709D01*
X109911709Y-65946409D01*
X109830233Y-66068347D01*
X109774111Y-66203837D01*
X109745500Y-66347673D01*
X109745500Y-66494327D01*
X109774111Y-66638163D01*
X109830233Y-66773653D01*
X109911709Y-66895591D01*
X110015409Y-66999291D01*
X110137347Y-67080767D01*
X110272837Y-67136889D01*
X110416673Y-67165500D01*
X110563327Y-67165500D01*
X110707163Y-67136889D01*
X110842653Y-67080767D01*
X110964591Y-66999291D01*
X111061500Y-66902382D01*
X111158409Y-66999291D01*
X111280347Y-67080767D01*
X111415837Y-67136889D01*
X111559673Y-67165500D01*
X111706327Y-67165500D01*
X111850163Y-67136889D01*
X111985653Y-67080767D01*
X112107591Y-66999291D01*
X112211291Y-66895591D01*
X112292767Y-66773653D01*
X112348889Y-66638163D01*
X112377500Y-66494327D01*
X112377500Y-66347673D01*
X112348889Y-66203837D01*
X112333631Y-66167000D01*
X113003095Y-66167000D01*
X112941733Y-66258835D01*
X112885611Y-66394325D01*
X112857000Y-66538161D01*
X112857000Y-66684815D01*
X112885611Y-66828651D01*
X112941733Y-66964141D01*
X113023209Y-67086079D01*
X113126909Y-67189779D01*
X113248847Y-67271255D01*
X113384337Y-67327377D01*
X113528173Y-67355988D01*
X113674827Y-67355988D01*
X113818663Y-67327377D01*
X113954153Y-67271255D01*
X114076091Y-67189779D01*
X114179791Y-67086079D01*
X114261267Y-66964141D01*
X114317389Y-66828651D01*
X114346000Y-66684815D01*
X114346000Y-66538161D01*
X114317389Y-66394325D01*
X114261267Y-66258835D01*
X114199905Y-66167000D01*
X116286000Y-66167000D01*
X116286000Y-66294000D01*
X116294205Y-66377304D01*
X116318503Y-66457406D01*
X116357962Y-66531228D01*
X116411065Y-66595935D01*
X116475772Y-66649038D01*
X116549594Y-66688497D01*
X116629696Y-66712795D01*
X116713000Y-66721000D01*
X121920000Y-66721000D01*
X122003304Y-66712795D01*
X122083406Y-66688497D01*
X122157228Y-66649038D01*
X122221935Y-66595935D01*
X122275038Y-66531228D01*
X122314497Y-66457406D01*
X122338795Y-66377304D01*
X122347000Y-66294000D01*
X122347000Y-66167000D01*
X123731891Y-66167000D01*
X123778748Y-66181214D01*
X123960000Y-66199066D01*
X124960000Y-66199066D01*
X125141252Y-66181214D01*
X125188109Y-66167000D01*
X125278000Y-66167000D01*
X125278000Y-68128000D01*
X108402000Y-68128000D01*
X108402000Y-63754000D01*
X110363000Y-63754000D01*
X110363000Y-65687176D01*
G37*
%TD.AperFunction*%
%TD*%
D15*
%TO.N,/+BATT*%
X114554352Y-51256715D02*
X114505768Y-51374006D01*
X114481000Y-51498522D01*
X114481000Y-51625478D01*
X114505768Y-51749994D01*
X114554352Y-51867285D01*
X114624885Y-51972845D01*
X114714655Y-52062615D01*
X114820215Y-52133148D01*
X114937506Y-52181732D01*
X115062022Y-52206500D01*
X115188978Y-52206500D01*
X115313494Y-52181732D01*
X115430785Y-52133148D01*
X115536345Y-52062615D01*
X115626115Y-51972845D01*
X115696648Y-51867285D01*
X115745232Y-51749994D01*
X115770000Y-51625478D01*
X115770000Y-51498522D01*
X115745232Y-51374006D01*
X115696648Y-51256715D01*
X115646057Y-51181000D01*
X125349000Y-51181000D01*
X125349000Y-53382930D01*
X125277085Y-53344490D01*
X125121648Y-53297339D01*
X124960000Y-53281418D01*
X124130700Y-53281418D01*
X124142148Y-53264285D01*
X124190732Y-53146994D01*
X124215500Y-53022478D01*
X124215500Y-52895522D01*
X124190732Y-52771006D01*
X124142148Y-52653715D01*
X124071615Y-52548155D01*
X123981845Y-52458385D01*
X123876285Y-52387852D01*
X123758994Y-52339268D01*
X123634478Y-52314500D01*
X123507522Y-52314500D01*
X123383006Y-52339268D01*
X123265715Y-52387852D01*
X123160155Y-52458385D01*
X123070385Y-52548155D01*
X122999852Y-52653715D01*
X122951268Y-52771006D01*
X122926500Y-52895522D01*
X122926500Y-53022478D01*
X122951268Y-53146994D01*
X122999852Y-53264285D01*
X123070385Y-53369845D01*
X123160155Y-53459615D01*
X123265715Y-53530148D01*
X123342904Y-53562121D01*
X123271059Y-53649665D01*
X123194490Y-53792915D01*
X123147339Y-53948352D01*
X123131418Y-54110000D01*
X123131418Y-55110000D01*
X123147339Y-55271648D01*
X123194490Y-55427085D01*
X123271059Y-55570335D01*
X123374104Y-55695896D01*
X123499665Y-55798941D01*
X123642915Y-55875510D01*
X123798352Y-55922661D01*
X123960000Y-55938582D01*
X124960000Y-55938582D01*
X125121648Y-55922661D01*
X125277085Y-55875510D01*
X125349000Y-55837070D01*
X125349000Y-58293000D01*
X119800301Y-58293000D01*
X119800301Y-57895261D01*
X119815166Y-57880396D01*
X119885699Y-57774836D01*
X119934283Y-57657545D01*
X119959051Y-57533029D01*
X119959051Y-57406073D01*
X119934283Y-57281557D01*
X119885699Y-57164266D01*
X119815166Y-57058706D01*
X119725396Y-56968936D01*
X119619836Y-56898403D01*
X119502545Y-56849819D01*
X119378029Y-56825051D01*
X119251073Y-56825051D01*
X119126557Y-56849819D01*
X119009266Y-56898403D01*
X118903706Y-56968936D01*
X118813936Y-57058706D01*
X118748489Y-57156654D01*
X118677412Y-57127213D01*
X118570767Y-57106000D01*
X118462033Y-57106000D01*
X118355388Y-57127213D01*
X118254930Y-57168824D01*
X118164520Y-57229234D01*
X118087634Y-57306120D01*
X118027450Y-57396192D01*
X117967266Y-57306120D01*
X117890380Y-57229234D01*
X117799970Y-57168824D01*
X117699512Y-57127213D01*
X117592867Y-57106000D01*
X117484133Y-57106000D01*
X117377488Y-57127213D01*
X117277030Y-57168824D01*
X117186620Y-57229234D01*
X117109734Y-57306120D01*
X117062250Y-57377185D01*
X117014766Y-57306120D01*
X116937880Y-57229234D01*
X116847470Y-57168824D01*
X116747012Y-57127213D01*
X116640367Y-57106000D01*
X116531633Y-57106000D01*
X116424988Y-57127213D01*
X116324530Y-57168824D01*
X116234120Y-57229234D01*
X116157234Y-57306120D01*
X116096824Y-57396530D01*
X116055213Y-57496988D01*
X116034000Y-57603633D01*
X116034000Y-57712367D01*
X116055213Y-57819012D01*
X116096824Y-57919470D01*
X116157234Y-58009880D01*
X116234120Y-58086766D01*
X116257668Y-58102500D01*
X116234120Y-58118234D01*
X116157234Y-58195120D01*
X116096824Y-58285530D01*
X116093730Y-58293000D01*
X114284270Y-58293000D01*
X114281176Y-58285530D01*
X114220766Y-58195120D01*
X114143880Y-58118234D01*
X114120332Y-58102500D01*
X114143880Y-58086766D01*
X114220766Y-58009880D01*
X114281176Y-57919470D01*
X114322787Y-57819012D01*
X114344000Y-57712367D01*
X114344000Y-57603633D01*
X114637000Y-57603633D01*
X114637000Y-57712367D01*
X114658213Y-57819012D01*
X114699824Y-57919470D01*
X114760234Y-58009880D01*
X114837120Y-58086766D01*
X114927530Y-58147176D01*
X115027988Y-58188787D01*
X115134633Y-58210000D01*
X115243367Y-58210000D01*
X115350012Y-58188787D01*
X115450470Y-58147176D01*
X115540880Y-58086766D01*
X115617766Y-58009880D01*
X115678176Y-57919470D01*
X115719787Y-57819012D01*
X115741000Y-57712367D01*
X115741000Y-57603633D01*
X115719787Y-57496988D01*
X115678176Y-57396530D01*
X115617766Y-57306120D01*
X115540880Y-57229234D01*
X115450470Y-57168824D01*
X115350012Y-57127213D01*
X115243367Y-57106000D01*
X115134633Y-57106000D01*
X115027988Y-57127213D01*
X114927530Y-57168824D01*
X114837120Y-57229234D01*
X114760234Y-57306120D01*
X114699824Y-57396530D01*
X114658213Y-57496988D01*
X114637000Y-57603633D01*
X114344000Y-57603633D01*
X114322787Y-57496988D01*
X114281176Y-57396530D01*
X114220766Y-57306120D01*
X114143880Y-57229234D01*
X114053470Y-57168824D01*
X113953012Y-57127213D01*
X113846367Y-57106000D01*
X113737633Y-57106000D01*
X113630988Y-57127213D01*
X113530530Y-57168824D01*
X113440120Y-57229234D01*
X113363234Y-57306120D01*
X113315750Y-57377185D01*
X113268266Y-57306120D01*
X113191380Y-57229234D01*
X113100970Y-57168824D01*
X113000512Y-57127213D01*
X112893867Y-57106000D01*
X112785133Y-57106000D01*
X112678488Y-57127213D01*
X112578030Y-57168824D01*
X112487620Y-57229234D01*
X112410734Y-57306120D01*
X112350324Y-57396530D01*
X112308713Y-57496988D01*
X112287500Y-57603633D01*
X112287500Y-57712367D01*
X112308713Y-57819012D01*
X112350324Y-57919470D01*
X112410734Y-58009880D01*
X112487620Y-58086766D01*
X112511168Y-58102500D01*
X112487620Y-58118234D01*
X112410734Y-58195120D01*
X112350324Y-58285530D01*
X112347230Y-58293000D01*
X112313396Y-58293000D01*
X112264966Y-58220520D01*
X112188080Y-58143634D01*
X112097670Y-58083224D01*
X111997212Y-58041613D01*
X111890567Y-58020400D01*
X111781833Y-58020400D01*
X111675188Y-58041613D01*
X111574730Y-58083224D01*
X111484320Y-58143634D01*
X111407434Y-58220520D01*
X111359004Y-58293000D01*
X108331000Y-58293000D01*
X108331000Y-55837071D01*
X108402915Y-55875510D01*
X108558352Y-55922661D01*
X108720000Y-55938582D01*
X109720000Y-55938582D01*
X109881648Y-55922661D01*
X110037085Y-55875510D01*
X110180335Y-55798941D01*
X110305896Y-55695896D01*
X110408941Y-55570335D01*
X110485510Y-55427085D01*
X110532661Y-55271648D01*
X110548582Y-55110000D01*
X110548582Y-54546522D01*
X110861500Y-54546522D01*
X110861500Y-54673478D01*
X110886268Y-54797994D01*
X110934852Y-54915285D01*
X111005385Y-55020845D01*
X111095155Y-55110615D01*
X111200715Y-55181148D01*
X111318006Y-55229732D01*
X111442522Y-55254500D01*
X111569478Y-55254500D01*
X111693994Y-55229732D01*
X111811285Y-55181148D01*
X111916845Y-55110615D01*
X112006615Y-55020845D01*
X112077148Y-54915285D01*
X112125732Y-54797994D01*
X112150500Y-54673478D01*
X112150500Y-54555633D01*
X113367000Y-54555633D01*
X113367000Y-54664367D01*
X113388213Y-54771012D01*
X113429824Y-54871470D01*
X113490234Y-54961880D01*
X113567120Y-55038766D01*
X113657530Y-55099176D01*
X113757988Y-55140787D01*
X113864633Y-55162000D01*
X113973367Y-55162000D01*
X114080012Y-55140787D01*
X114180470Y-55099176D01*
X114270880Y-55038766D01*
X114347766Y-54961880D01*
X114408176Y-54871470D01*
X114449787Y-54771012D01*
X114471000Y-54664367D01*
X114471000Y-54555633D01*
X114449787Y-54448988D01*
X114408176Y-54348530D01*
X114347766Y-54258120D01*
X114270880Y-54181234D01*
X114180470Y-54120824D01*
X114080012Y-54079213D01*
X113973367Y-54058000D01*
X113864633Y-54058000D01*
X113757988Y-54079213D01*
X113657530Y-54120824D01*
X113567120Y-54181234D01*
X113490234Y-54258120D01*
X113429824Y-54348530D01*
X113388213Y-54448988D01*
X113367000Y-54555633D01*
X112150500Y-54555633D01*
X112150500Y-54546522D01*
X112125732Y-54422006D01*
X112077148Y-54304715D01*
X112006615Y-54199155D01*
X111916845Y-54109385D01*
X111811285Y-54038852D01*
X111693994Y-53990268D01*
X111569478Y-53965500D01*
X111442522Y-53965500D01*
X111318006Y-53990268D01*
X111200715Y-54038852D01*
X111095155Y-54109385D01*
X111005385Y-54199155D01*
X110934852Y-54304715D01*
X110886268Y-54422006D01*
X110861500Y-54546522D01*
X110548582Y-54546522D01*
X110548582Y-54110000D01*
X110532661Y-53948352D01*
X110485510Y-53792915D01*
X110408941Y-53649665D01*
X110309813Y-53528877D01*
X110311715Y-53530148D01*
X110429006Y-53578732D01*
X110553522Y-53603500D01*
X110680478Y-53603500D01*
X110804994Y-53578732D01*
X110922285Y-53530148D01*
X111027845Y-53459615D01*
X111083938Y-53403522D01*
X112258500Y-53403522D01*
X112258500Y-53530478D01*
X112283268Y-53654994D01*
X112331852Y-53772285D01*
X112402385Y-53877845D01*
X112492155Y-53967615D01*
X112597715Y-54038148D01*
X112715006Y-54086732D01*
X112839522Y-54111500D01*
X112966478Y-54111500D01*
X113090994Y-54086732D01*
X113208285Y-54038148D01*
X113313845Y-53967615D01*
X113403615Y-53877845D01*
X113474148Y-53772285D01*
X113522732Y-53654994D01*
X113532333Y-53606722D01*
X114544500Y-53606722D01*
X114544500Y-53733678D01*
X114569268Y-53858194D01*
X114617852Y-53975485D01*
X114688385Y-54081045D01*
X114722040Y-54114700D01*
X114688385Y-54148355D01*
X114617852Y-54253915D01*
X114569268Y-54371206D01*
X114544500Y-54495722D01*
X114544500Y-54622678D01*
X114569268Y-54747194D01*
X114617852Y-54864485D01*
X114688385Y-54970045D01*
X114778155Y-55059815D01*
X114883715Y-55130348D01*
X115001006Y-55178932D01*
X115125522Y-55203700D01*
X115252478Y-55203700D01*
X115376994Y-55178932D01*
X115494285Y-55130348D01*
X115599845Y-55059815D01*
X115689615Y-54970045D01*
X115760148Y-54864485D01*
X115808732Y-54747194D01*
X115833500Y-54622678D01*
X115833500Y-54495722D01*
X115808732Y-54371206D01*
X115760148Y-54253915D01*
X115689615Y-54148355D01*
X115655960Y-54114700D01*
X115689615Y-54081045D01*
X115760148Y-53975485D01*
X115808732Y-53858194D01*
X115833500Y-53733678D01*
X115833500Y-53606722D01*
X115808732Y-53482206D01*
X115760148Y-53364915D01*
X115689615Y-53259355D01*
X115599845Y-53169585D01*
X115494285Y-53099052D01*
X115376994Y-53050468D01*
X115252478Y-53025700D01*
X115125522Y-53025700D01*
X115001006Y-53050468D01*
X114883715Y-53099052D01*
X114778155Y-53169585D01*
X114688385Y-53259355D01*
X114617852Y-53364915D01*
X114569268Y-53482206D01*
X114544500Y-53606722D01*
X113532333Y-53606722D01*
X113547500Y-53530478D01*
X113547500Y-53403522D01*
X113522732Y-53279006D01*
X113474148Y-53161715D01*
X113403615Y-53056155D01*
X113313845Y-52966385D01*
X113208285Y-52895852D01*
X113090994Y-52847268D01*
X112966478Y-52822500D01*
X112839522Y-52822500D01*
X112715006Y-52847268D01*
X112597715Y-52895852D01*
X112492155Y-52966385D01*
X112402385Y-53056155D01*
X112331852Y-53161715D01*
X112283268Y-53279006D01*
X112258500Y-53403522D01*
X111083938Y-53403522D01*
X111117615Y-53369845D01*
X111188148Y-53264285D01*
X111236732Y-53146994D01*
X111261500Y-53022478D01*
X111261500Y-52895522D01*
X111236732Y-52771006D01*
X111235704Y-52768522D01*
X118227500Y-52768522D01*
X118227500Y-52895478D01*
X118252268Y-53019994D01*
X118300852Y-53137285D01*
X118371385Y-53242845D01*
X118461155Y-53332615D01*
X118566715Y-53403148D01*
X118684006Y-53451732D01*
X118808522Y-53476500D01*
X118935478Y-53476500D01*
X119059994Y-53451732D01*
X119177285Y-53403148D01*
X119282845Y-53332615D01*
X119372615Y-53242845D01*
X119443148Y-53137285D01*
X119491732Y-53019994D01*
X119516500Y-52895478D01*
X119516500Y-52768522D01*
X119491732Y-52644006D01*
X119443148Y-52526715D01*
X119400768Y-52463289D01*
X119431285Y-52450648D01*
X119536845Y-52380115D01*
X119626615Y-52290345D01*
X119697148Y-52184785D01*
X119745732Y-52067494D01*
X119770500Y-51942978D01*
X119770500Y-51816022D01*
X119745732Y-51691506D01*
X119697148Y-51574215D01*
X119626615Y-51468655D01*
X119536845Y-51378885D01*
X119431285Y-51308352D01*
X119313994Y-51259768D01*
X119189478Y-51235000D01*
X119062522Y-51235000D01*
X118938006Y-51259768D01*
X118820715Y-51308352D01*
X118715155Y-51378885D01*
X118625385Y-51468655D01*
X118554852Y-51574215D01*
X118506268Y-51691506D01*
X118481500Y-51816022D01*
X118481500Y-51942978D01*
X118506268Y-52067494D01*
X118554852Y-52184785D01*
X118597232Y-52248211D01*
X118566715Y-52260852D01*
X118461155Y-52331385D01*
X118371385Y-52421155D01*
X118300852Y-52526715D01*
X118252268Y-52644006D01*
X118227500Y-52768522D01*
X111235704Y-52768522D01*
X111188148Y-52653715D01*
X111117615Y-52548155D01*
X111027845Y-52458385D01*
X110922285Y-52387852D01*
X110804994Y-52339268D01*
X110680478Y-52314500D01*
X110553522Y-52314500D01*
X110429006Y-52339268D01*
X110311715Y-52387852D01*
X110206155Y-52458385D01*
X110116385Y-52548155D01*
X110045852Y-52653715D01*
X109997268Y-52771006D01*
X109972500Y-52895522D01*
X109972500Y-53022478D01*
X109997268Y-53146994D01*
X110045852Y-53264285D01*
X110116385Y-53369845D01*
X110152974Y-53406434D01*
X110037085Y-53344490D01*
X109881648Y-53297339D01*
X109720000Y-53281418D01*
X108720000Y-53281418D01*
X108558352Y-53297339D01*
X108402915Y-53344490D01*
X108331000Y-53382929D01*
X108331000Y-51181000D01*
X114604943Y-51181000D01*
X114554352Y-51256715D01*
%TA.AperFunction,Conductor*%
D16*
G36*
X114554352Y-51256715D02*
G01*
X114505768Y-51374006D01*
X114481000Y-51498522D01*
X114481000Y-51625478D01*
X114505768Y-51749994D01*
X114554352Y-51867285D01*
X114624885Y-51972845D01*
X114714655Y-52062615D01*
X114820215Y-52133148D01*
X114937506Y-52181732D01*
X115062022Y-52206500D01*
X115188978Y-52206500D01*
X115313494Y-52181732D01*
X115430785Y-52133148D01*
X115536345Y-52062615D01*
X115626115Y-51972845D01*
X115696648Y-51867285D01*
X115745232Y-51749994D01*
X115770000Y-51625478D01*
X115770000Y-51498522D01*
X115745232Y-51374006D01*
X115696648Y-51256715D01*
X115646057Y-51181000D01*
X125349000Y-51181000D01*
X125349000Y-53382930D01*
X125277085Y-53344490D01*
X125121648Y-53297339D01*
X124960000Y-53281418D01*
X124130700Y-53281418D01*
X124142148Y-53264285D01*
X124190732Y-53146994D01*
X124215500Y-53022478D01*
X124215500Y-52895522D01*
X124190732Y-52771006D01*
X124142148Y-52653715D01*
X124071615Y-52548155D01*
X123981845Y-52458385D01*
X123876285Y-52387852D01*
X123758994Y-52339268D01*
X123634478Y-52314500D01*
X123507522Y-52314500D01*
X123383006Y-52339268D01*
X123265715Y-52387852D01*
X123160155Y-52458385D01*
X123070385Y-52548155D01*
X122999852Y-52653715D01*
X122951268Y-52771006D01*
X122926500Y-52895522D01*
X122926500Y-53022478D01*
X122951268Y-53146994D01*
X122999852Y-53264285D01*
X123070385Y-53369845D01*
X123160155Y-53459615D01*
X123265715Y-53530148D01*
X123342904Y-53562121D01*
X123271059Y-53649665D01*
X123194490Y-53792915D01*
X123147339Y-53948352D01*
X123131418Y-54110000D01*
X123131418Y-55110000D01*
X123147339Y-55271648D01*
X123194490Y-55427085D01*
X123271059Y-55570335D01*
X123374104Y-55695896D01*
X123499665Y-55798941D01*
X123642915Y-55875510D01*
X123798352Y-55922661D01*
X123960000Y-55938582D01*
X124960000Y-55938582D01*
X125121648Y-55922661D01*
X125277085Y-55875510D01*
X125349000Y-55837070D01*
X125349000Y-58293000D01*
X119800301Y-58293000D01*
X119800301Y-57895261D01*
X119815166Y-57880396D01*
X119885699Y-57774836D01*
X119934283Y-57657545D01*
X119959051Y-57533029D01*
X119959051Y-57406073D01*
X119934283Y-57281557D01*
X119885699Y-57164266D01*
X119815166Y-57058706D01*
X119725396Y-56968936D01*
X119619836Y-56898403D01*
X119502545Y-56849819D01*
X119378029Y-56825051D01*
X119251073Y-56825051D01*
X119126557Y-56849819D01*
X119009266Y-56898403D01*
X118903706Y-56968936D01*
X118813936Y-57058706D01*
X118748489Y-57156654D01*
X118677412Y-57127213D01*
X118570767Y-57106000D01*
X118462033Y-57106000D01*
X118355388Y-57127213D01*
X118254930Y-57168824D01*
X118164520Y-57229234D01*
X118087634Y-57306120D01*
X118027450Y-57396192D01*
X117967266Y-57306120D01*
X117890380Y-57229234D01*
X117799970Y-57168824D01*
X117699512Y-57127213D01*
X117592867Y-57106000D01*
X117484133Y-57106000D01*
X117377488Y-57127213D01*
X117277030Y-57168824D01*
X117186620Y-57229234D01*
X117109734Y-57306120D01*
X117062250Y-57377185D01*
X117014766Y-57306120D01*
X116937880Y-57229234D01*
X116847470Y-57168824D01*
X116747012Y-57127213D01*
X116640367Y-57106000D01*
X116531633Y-57106000D01*
X116424988Y-57127213D01*
X116324530Y-57168824D01*
X116234120Y-57229234D01*
X116157234Y-57306120D01*
X116096824Y-57396530D01*
X116055213Y-57496988D01*
X116034000Y-57603633D01*
X116034000Y-57712367D01*
X116055213Y-57819012D01*
X116096824Y-57919470D01*
X116157234Y-58009880D01*
X116234120Y-58086766D01*
X116257668Y-58102500D01*
X116234120Y-58118234D01*
X116157234Y-58195120D01*
X116096824Y-58285530D01*
X116093730Y-58293000D01*
X114284270Y-58293000D01*
X114281176Y-58285530D01*
X114220766Y-58195120D01*
X114143880Y-58118234D01*
X114120332Y-58102500D01*
X114143880Y-58086766D01*
X114220766Y-58009880D01*
X114281176Y-57919470D01*
X114322787Y-57819012D01*
X114344000Y-57712367D01*
X114344000Y-57603633D01*
X114637000Y-57603633D01*
X114637000Y-57712367D01*
X114658213Y-57819012D01*
X114699824Y-57919470D01*
X114760234Y-58009880D01*
X114837120Y-58086766D01*
X114927530Y-58147176D01*
X115027988Y-58188787D01*
X115134633Y-58210000D01*
X115243367Y-58210000D01*
X115350012Y-58188787D01*
X115450470Y-58147176D01*
X115540880Y-58086766D01*
X115617766Y-58009880D01*
X115678176Y-57919470D01*
X115719787Y-57819012D01*
X115741000Y-57712367D01*
X115741000Y-57603633D01*
X115719787Y-57496988D01*
X115678176Y-57396530D01*
X115617766Y-57306120D01*
X115540880Y-57229234D01*
X115450470Y-57168824D01*
X115350012Y-57127213D01*
X115243367Y-57106000D01*
X115134633Y-57106000D01*
X115027988Y-57127213D01*
X114927530Y-57168824D01*
X114837120Y-57229234D01*
X114760234Y-57306120D01*
X114699824Y-57396530D01*
X114658213Y-57496988D01*
X114637000Y-57603633D01*
X114344000Y-57603633D01*
X114322787Y-57496988D01*
X114281176Y-57396530D01*
X114220766Y-57306120D01*
X114143880Y-57229234D01*
X114053470Y-57168824D01*
X113953012Y-57127213D01*
X113846367Y-57106000D01*
X113737633Y-57106000D01*
X113630988Y-57127213D01*
X113530530Y-57168824D01*
X113440120Y-57229234D01*
X113363234Y-57306120D01*
X113315750Y-57377185D01*
X113268266Y-57306120D01*
X113191380Y-57229234D01*
X113100970Y-57168824D01*
X113000512Y-57127213D01*
X112893867Y-57106000D01*
X112785133Y-57106000D01*
X112678488Y-57127213D01*
X112578030Y-57168824D01*
X112487620Y-57229234D01*
X112410734Y-57306120D01*
X112350324Y-57396530D01*
X112308713Y-57496988D01*
X112287500Y-57603633D01*
X112287500Y-57712367D01*
X112308713Y-57819012D01*
X112350324Y-57919470D01*
X112410734Y-58009880D01*
X112487620Y-58086766D01*
X112511168Y-58102500D01*
X112487620Y-58118234D01*
X112410734Y-58195120D01*
X112350324Y-58285530D01*
X112347230Y-58293000D01*
X112313396Y-58293000D01*
X112264966Y-58220520D01*
X112188080Y-58143634D01*
X112097670Y-58083224D01*
X111997212Y-58041613D01*
X111890567Y-58020400D01*
X111781833Y-58020400D01*
X111675188Y-58041613D01*
X111574730Y-58083224D01*
X111484320Y-58143634D01*
X111407434Y-58220520D01*
X111359004Y-58293000D01*
X108331000Y-58293000D01*
X108331000Y-55837071D01*
X108402915Y-55875510D01*
X108558352Y-55922661D01*
X108720000Y-55938582D01*
X109720000Y-55938582D01*
X109881648Y-55922661D01*
X110037085Y-55875510D01*
X110180335Y-55798941D01*
X110305896Y-55695896D01*
X110408941Y-55570335D01*
X110485510Y-55427085D01*
X110532661Y-55271648D01*
X110548582Y-55110000D01*
X110548582Y-54546522D01*
X110861500Y-54546522D01*
X110861500Y-54673478D01*
X110886268Y-54797994D01*
X110934852Y-54915285D01*
X111005385Y-55020845D01*
X111095155Y-55110615D01*
X111200715Y-55181148D01*
X111318006Y-55229732D01*
X111442522Y-55254500D01*
X111569478Y-55254500D01*
X111693994Y-55229732D01*
X111811285Y-55181148D01*
X111916845Y-55110615D01*
X112006615Y-55020845D01*
X112077148Y-54915285D01*
X112125732Y-54797994D01*
X112150500Y-54673478D01*
X112150500Y-54555633D01*
X113367000Y-54555633D01*
X113367000Y-54664367D01*
X113388213Y-54771012D01*
X113429824Y-54871470D01*
X113490234Y-54961880D01*
X113567120Y-55038766D01*
X113657530Y-55099176D01*
X113757988Y-55140787D01*
X113864633Y-55162000D01*
X113973367Y-55162000D01*
X114080012Y-55140787D01*
X114180470Y-55099176D01*
X114270880Y-55038766D01*
X114347766Y-54961880D01*
X114408176Y-54871470D01*
X114449787Y-54771012D01*
X114471000Y-54664367D01*
X114471000Y-54555633D01*
X114449787Y-54448988D01*
X114408176Y-54348530D01*
X114347766Y-54258120D01*
X114270880Y-54181234D01*
X114180470Y-54120824D01*
X114080012Y-54079213D01*
X113973367Y-54058000D01*
X113864633Y-54058000D01*
X113757988Y-54079213D01*
X113657530Y-54120824D01*
X113567120Y-54181234D01*
X113490234Y-54258120D01*
X113429824Y-54348530D01*
X113388213Y-54448988D01*
X113367000Y-54555633D01*
X112150500Y-54555633D01*
X112150500Y-54546522D01*
X112125732Y-54422006D01*
X112077148Y-54304715D01*
X112006615Y-54199155D01*
X111916845Y-54109385D01*
X111811285Y-54038852D01*
X111693994Y-53990268D01*
X111569478Y-53965500D01*
X111442522Y-53965500D01*
X111318006Y-53990268D01*
X111200715Y-54038852D01*
X111095155Y-54109385D01*
X111005385Y-54199155D01*
X110934852Y-54304715D01*
X110886268Y-54422006D01*
X110861500Y-54546522D01*
X110548582Y-54546522D01*
X110548582Y-54110000D01*
X110532661Y-53948352D01*
X110485510Y-53792915D01*
X110408941Y-53649665D01*
X110309813Y-53528877D01*
X110311715Y-53530148D01*
X110429006Y-53578732D01*
X110553522Y-53603500D01*
X110680478Y-53603500D01*
X110804994Y-53578732D01*
X110922285Y-53530148D01*
X111027845Y-53459615D01*
X111083938Y-53403522D01*
X112258500Y-53403522D01*
X112258500Y-53530478D01*
X112283268Y-53654994D01*
X112331852Y-53772285D01*
X112402385Y-53877845D01*
X112492155Y-53967615D01*
X112597715Y-54038148D01*
X112715006Y-54086732D01*
X112839522Y-54111500D01*
X112966478Y-54111500D01*
X113090994Y-54086732D01*
X113208285Y-54038148D01*
X113313845Y-53967615D01*
X113403615Y-53877845D01*
X113474148Y-53772285D01*
X113522732Y-53654994D01*
X113532333Y-53606722D01*
X114544500Y-53606722D01*
X114544500Y-53733678D01*
X114569268Y-53858194D01*
X114617852Y-53975485D01*
X114688385Y-54081045D01*
X114722040Y-54114700D01*
X114688385Y-54148355D01*
X114617852Y-54253915D01*
X114569268Y-54371206D01*
X114544500Y-54495722D01*
X114544500Y-54622678D01*
X114569268Y-54747194D01*
X114617852Y-54864485D01*
X114688385Y-54970045D01*
X114778155Y-55059815D01*
X114883715Y-55130348D01*
X115001006Y-55178932D01*
X115125522Y-55203700D01*
X115252478Y-55203700D01*
X115376994Y-55178932D01*
X115494285Y-55130348D01*
X115599845Y-55059815D01*
X115689615Y-54970045D01*
X115760148Y-54864485D01*
X115808732Y-54747194D01*
X115833500Y-54622678D01*
X115833500Y-54495722D01*
X115808732Y-54371206D01*
X115760148Y-54253915D01*
X115689615Y-54148355D01*
X115655960Y-54114700D01*
X115689615Y-54081045D01*
X115760148Y-53975485D01*
X115808732Y-53858194D01*
X115833500Y-53733678D01*
X115833500Y-53606722D01*
X115808732Y-53482206D01*
X115760148Y-53364915D01*
X115689615Y-53259355D01*
X115599845Y-53169585D01*
X115494285Y-53099052D01*
X115376994Y-53050468D01*
X115252478Y-53025700D01*
X115125522Y-53025700D01*
X115001006Y-53050468D01*
X114883715Y-53099052D01*
X114778155Y-53169585D01*
X114688385Y-53259355D01*
X114617852Y-53364915D01*
X114569268Y-53482206D01*
X114544500Y-53606722D01*
X113532333Y-53606722D01*
X113547500Y-53530478D01*
X113547500Y-53403522D01*
X113522732Y-53279006D01*
X113474148Y-53161715D01*
X113403615Y-53056155D01*
X113313845Y-52966385D01*
X113208285Y-52895852D01*
X113090994Y-52847268D01*
X112966478Y-52822500D01*
X112839522Y-52822500D01*
X112715006Y-52847268D01*
X112597715Y-52895852D01*
X112492155Y-52966385D01*
X112402385Y-53056155D01*
X112331852Y-53161715D01*
X112283268Y-53279006D01*
X112258500Y-53403522D01*
X111083938Y-53403522D01*
X111117615Y-53369845D01*
X111188148Y-53264285D01*
X111236732Y-53146994D01*
X111261500Y-53022478D01*
X111261500Y-52895522D01*
X111236732Y-52771006D01*
X111235704Y-52768522D01*
X118227500Y-52768522D01*
X118227500Y-52895478D01*
X118252268Y-53019994D01*
X118300852Y-53137285D01*
X118371385Y-53242845D01*
X118461155Y-53332615D01*
X118566715Y-53403148D01*
X118684006Y-53451732D01*
X118808522Y-53476500D01*
X118935478Y-53476500D01*
X119059994Y-53451732D01*
X119177285Y-53403148D01*
X119282845Y-53332615D01*
X119372615Y-53242845D01*
X119443148Y-53137285D01*
X119491732Y-53019994D01*
X119516500Y-52895478D01*
X119516500Y-52768522D01*
X119491732Y-52644006D01*
X119443148Y-52526715D01*
X119400768Y-52463289D01*
X119431285Y-52450648D01*
X119536845Y-52380115D01*
X119626615Y-52290345D01*
X119697148Y-52184785D01*
X119745732Y-52067494D01*
X119770500Y-51942978D01*
X119770500Y-51816022D01*
X119745732Y-51691506D01*
X119697148Y-51574215D01*
X119626615Y-51468655D01*
X119536845Y-51378885D01*
X119431285Y-51308352D01*
X119313994Y-51259768D01*
X119189478Y-51235000D01*
X119062522Y-51235000D01*
X118938006Y-51259768D01*
X118820715Y-51308352D01*
X118715155Y-51378885D01*
X118625385Y-51468655D01*
X118554852Y-51574215D01*
X118506268Y-51691506D01*
X118481500Y-51816022D01*
X118481500Y-51942978D01*
X118506268Y-52067494D01*
X118554852Y-52184785D01*
X118597232Y-52248211D01*
X118566715Y-52260852D01*
X118461155Y-52331385D01*
X118371385Y-52421155D01*
X118300852Y-52526715D01*
X118252268Y-52644006D01*
X118227500Y-52768522D01*
X111235704Y-52768522D01*
X111188148Y-52653715D01*
X111117615Y-52548155D01*
X111027845Y-52458385D01*
X110922285Y-52387852D01*
X110804994Y-52339268D01*
X110680478Y-52314500D01*
X110553522Y-52314500D01*
X110429006Y-52339268D01*
X110311715Y-52387852D01*
X110206155Y-52458385D01*
X110116385Y-52548155D01*
X110045852Y-52653715D01*
X109997268Y-52771006D01*
X109972500Y-52895522D01*
X109972500Y-53022478D01*
X109997268Y-53146994D01*
X110045852Y-53264285D01*
X110116385Y-53369845D01*
X110152974Y-53406434D01*
X110037085Y-53344490D01*
X109881648Y-53297339D01*
X109720000Y-53281418D01*
X108720000Y-53281418D01*
X108558352Y-53297339D01*
X108402915Y-53344490D01*
X108331000Y-53382929D01*
X108331000Y-51181000D01*
X114604943Y-51181000D01*
X114554352Y-51256715D01*
G37*
%TD.AperFunction*%
%TD*%
M02*
