%TF.GenerationSoftware,KiCad,Pcbnew,5.1.8*%
%TF.CreationDate,2020-11-29T15:40:31+01:00*%
%TF.ProjectId,panel,70616e65-6c2e-46b6-9963-61645f706362,rev?*%
%TF.SameCoordinates,Original*%
%TF.FileFunction,Other,User*%
%FSLAX46Y46*%
G04 Gerber Fmt 4.6, Leading zero omitted, Abs format (unit mm)*
G04 Created by KiCad (PCBNEW 5.1.8) date 2020-11-29 15:40:31*
%MOMM*%
%LPD*%
G01*
G04 APERTURE LIST*
%ADD10C,0.050000*%
G04 APERTURE END LIST*
D10*
%TO.C,D1*%
X109912016Y-118688516D02*
X108452016Y-118688516D01*
X108452016Y-118688516D02*
X108452016Y-115728516D01*
X108452016Y-115728516D02*
X109912016Y-115728516D01*
X109912016Y-115728516D02*
X109912016Y-118688516D01*
%TO.C,D2*%
X108388016Y-118688516D02*
X106928016Y-118688516D01*
X106928016Y-118688516D02*
X106928016Y-115728516D01*
X106928016Y-115728516D02*
X108388016Y-115728516D01*
X108388016Y-115728516D02*
X108388016Y-118688516D01*
%TO.C,F1*%
X108459016Y-103530016D02*
X108459016Y-105690016D01*
X108459016Y-105690016D02*
X103499016Y-105690016D01*
X103499016Y-105690016D02*
X103499016Y-103530016D01*
X103499016Y-103530016D02*
X108459016Y-103530016D01*
%TO.C,Q1*%
X112070016Y-120550016D02*
X112070016Y-117150016D01*
X112070016Y-117150016D02*
X115570016Y-117150016D01*
X115570016Y-117150016D02*
X115570016Y-120550016D01*
X115570016Y-120550016D02*
X112070016Y-120550016D01*
%TO.C,R1*%
X110364016Y-114681016D02*
X110364016Y-115621016D01*
X110364016Y-115621016D02*
X108504016Y-115621016D01*
X108504016Y-115621016D02*
X108504016Y-114681016D01*
X108504016Y-114681016D02*
X110364016Y-114681016D01*
%TO.C,R2*%
X114478016Y-109733016D02*
X113538016Y-109733016D01*
X113538016Y-109733016D02*
X113538016Y-107873016D01*
X113538016Y-107873016D02*
X114478016Y-107873016D01*
X114478016Y-107873016D02*
X114478016Y-109733016D01*
%TO.C,R3*%
X106222016Y-109525016D02*
X106222016Y-108585016D01*
X106222016Y-108585016D02*
X108082016Y-108585016D01*
X108082016Y-108585016D02*
X108082016Y-109525016D01*
X108082016Y-109525016D02*
X106222016Y-109525016D01*
%TO.C,R4*%
X106858016Y-118623016D02*
X105918016Y-118623016D01*
X105918016Y-118623016D02*
X105918016Y-116763016D01*
X105918016Y-116763016D02*
X106858016Y-116763016D01*
X106858016Y-116763016D02*
X106858016Y-118623016D01*
%TO.C,R5*%
X118178516Y-106680016D02*
X118178516Y-107620016D01*
X118178516Y-107620016D02*
X116318516Y-107620016D01*
X116318516Y-107620016D02*
X116318516Y-106680016D01*
X116318516Y-106680016D02*
X118178516Y-106680016D01*
%TO.C,U1*%
X114351016Y-113417016D02*
X118151016Y-113417016D01*
X118151016Y-113417016D02*
X118151016Y-117017016D01*
X118151016Y-117017016D02*
X114351016Y-117017016D01*
X114351016Y-117017016D02*
X114351016Y-113417016D01*
%TO.C,U2*%
X116246016Y-103566016D02*
X112446016Y-103566016D01*
X116246016Y-107166016D02*
X116246016Y-103566016D01*
X112446016Y-107166016D02*
X116246016Y-107166016D01*
X112446016Y-103566016D02*
X112446016Y-107166016D01*
%TO.C,U3*%
X112436016Y-103566016D02*
X108636016Y-103566016D01*
X112436016Y-107166016D02*
X112436016Y-103566016D01*
X108636016Y-107166016D02*
X112436016Y-107166016D01*
X108636016Y-103566016D02*
X108636016Y-107166016D01*
%TO.C,D3*%
X108610016Y-121000016D02*
X103910016Y-121000016D01*
X103910016Y-121000016D02*
X103910016Y-118700016D01*
X103910016Y-118700016D02*
X108610016Y-118700016D01*
X108610016Y-121000016D02*
X108610016Y-118700016D01*
%TO.C,D4*%
X120550016Y-121000016D02*
X115850016Y-121000016D01*
X115850016Y-121000016D02*
X115850016Y-118700016D01*
X115850016Y-118700016D02*
X120550016Y-118700016D01*
X120550016Y-121000016D02*
X120550016Y-118700016D01*
%TO.C,C1*%
X114184016Y-115060016D02*
X114184016Y-117020016D01*
X114184016Y-117020016D02*
X110784016Y-117020016D01*
X110784016Y-117020016D02*
X110784016Y-115060016D01*
X110784016Y-115060016D02*
X114184016Y-115060016D01*
%TO.C,C2*%
X114782016Y-109781016D02*
X114782016Y-107821016D01*
X114782016Y-107821016D02*
X118182016Y-107821016D01*
X118182016Y-107821016D02*
X118182016Y-109781016D01*
X118182016Y-109781016D02*
X114782016Y-109781016D01*
%TO.C,C3*%
X116643016Y-113342016D02*
X115183016Y-113342016D01*
X115183016Y-113342016D02*
X115183016Y-110382016D01*
X115183016Y-110382016D02*
X116643016Y-110382016D01*
X116643016Y-110382016D02*
X116643016Y-113342016D01*
%TO.C,C4*%
X118167016Y-113342016D02*
X116707016Y-113342016D01*
X116707016Y-113342016D02*
X116707016Y-110382016D01*
X116707016Y-110382016D02*
X118167016Y-110382016D01*
X118167016Y-110382016D02*
X118167016Y-113342016D01*
%TO.C,C5*%
X117786016Y-106547516D02*
X116326016Y-106547516D01*
X116326016Y-106547516D02*
X116326016Y-103587516D01*
X116326016Y-103587516D02*
X117786016Y-103587516D01*
X117786016Y-103587516D02*
X117786016Y-106547516D01*
%TO.C,R6*%
X117925016Y-105086016D02*
X117925016Y-103626016D01*
X117925016Y-103626016D02*
X120885016Y-103626016D01*
X120885016Y-103626016D02*
X120885016Y-105086016D01*
X120885016Y-105086016D02*
X117925016Y-105086016D01*
%TO.C,D1*%
X92132011Y-118688516D02*
X90672011Y-118688516D01*
X90672011Y-118688516D02*
X90672011Y-115728516D01*
X90672011Y-115728516D02*
X92132011Y-115728516D01*
X92132011Y-115728516D02*
X92132011Y-118688516D01*
%TO.C,D2*%
X90608011Y-118688516D02*
X89148011Y-118688516D01*
X89148011Y-118688516D02*
X89148011Y-115728516D01*
X89148011Y-115728516D02*
X90608011Y-115728516D01*
X90608011Y-115728516D02*
X90608011Y-118688516D01*
%TO.C,F1*%
X90679011Y-103530016D02*
X90679011Y-105690016D01*
X90679011Y-105690016D02*
X85719011Y-105690016D01*
X85719011Y-105690016D02*
X85719011Y-103530016D01*
X85719011Y-103530016D02*
X90679011Y-103530016D01*
%TO.C,Q1*%
X94290011Y-120550016D02*
X94290011Y-117150016D01*
X94290011Y-117150016D02*
X97790011Y-117150016D01*
X97790011Y-117150016D02*
X97790011Y-120550016D01*
X97790011Y-120550016D02*
X94290011Y-120550016D01*
%TO.C,R1*%
X92584011Y-114681016D02*
X92584011Y-115621016D01*
X92584011Y-115621016D02*
X90724011Y-115621016D01*
X90724011Y-115621016D02*
X90724011Y-114681016D01*
X90724011Y-114681016D02*
X92584011Y-114681016D01*
%TO.C,R2*%
X96698011Y-109733016D02*
X95758011Y-109733016D01*
X95758011Y-109733016D02*
X95758011Y-107873016D01*
X95758011Y-107873016D02*
X96698011Y-107873016D01*
X96698011Y-107873016D02*
X96698011Y-109733016D01*
%TO.C,R3*%
X88442011Y-109525016D02*
X88442011Y-108585016D01*
X88442011Y-108585016D02*
X90302011Y-108585016D01*
X90302011Y-108585016D02*
X90302011Y-109525016D01*
X90302011Y-109525016D02*
X88442011Y-109525016D01*
%TO.C,R4*%
X89078011Y-118623016D02*
X88138011Y-118623016D01*
X88138011Y-118623016D02*
X88138011Y-116763016D01*
X88138011Y-116763016D02*
X89078011Y-116763016D01*
X89078011Y-116763016D02*
X89078011Y-118623016D01*
%TO.C,R5*%
X100398511Y-106680016D02*
X100398511Y-107620016D01*
X100398511Y-107620016D02*
X98538511Y-107620016D01*
X98538511Y-107620016D02*
X98538511Y-106680016D01*
X98538511Y-106680016D02*
X100398511Y-106680016D01*
%TO.C,U1*%
X96571011Y-113417016D02*
X100371011Y-113417016D01*
X100371011Y-113417016D02*
X100371011Y-117017016D01*
X100371011Y-117017016D02*
X96571011Y-117017016D01*
X96571011Y-117017016D02*
X96571011Y-113417016D01*
%TO.C,U2*%
X98466011Y-103566016D02*
X94666011Y-103566016D01*
X98466011Y-107166016D02*
X98466011Y-103566016D01*
X94666011Y-107166016D02*
X98466011Y-107166016D01*
X94666011Y-103566016D02*
X94666011Y-107166016D01*
%TO.C,U3*%
X94656011Y-103566016D02*
X90856011Y-103566016D01*
X94656011Y-107166016D02*
X94656011Y-103566016D01*
X90856011Y-107166016D02*
X94656011Y-107166016D01*
X90856011Y-103566016D02*
X90856011Y-107166016D01*
%TO.C,D3*%
X90830011Y-121000016D02*
X86130011Y-121000016D01*
X86130011Y-121000016D02*
X86130011Y-118700016D01*
X86130011Y-118700016D02*
X90830011Y-118700016D01*
X90830011Y-121000016D02*
X90830011Y-118700016D01*
%TO.C,D4*%
X102770011Y-121000016D02*
X98070011Y-121000016D01*
X98070011Y-121000016D02*
X98070011Y-118700016D01*
X98070011Y-118700016D02*
X102770011Y-118700016D01*
X102770011Y-121000016D02*
X102770011Y-118700016D01*
%TO.C,C1*%
X96404011Y-115060016D02*
X96404011Y-117020016D01*
X96404011Y-117020016D02*
X93004011Y-117020016D01*
X93004011Y-117020016D02*
X93004011Y-115060016D01*
X93004011Y-115060016D02*
X96404011Y-115060016D01*
%TO.C,C2*%
X97002011Y-109781016D02*
X97002011Y-107821016D01*
X97002011Y-107821016D02*
X100402011Y-107821016D01*
X100402011Y-107821016D02*
X100402011Y-109781016D01*
X100402011Y-109781016D02*
X97002011Y-109781016D01*
%TO.C,C3*%
X98863011Y-113342016D02*
X97403011Y-113342016D01*
X97403011Y-113342016D02*
X97403011Y-110382016D01*
X97403011Y-110382016D02*
X98863011Y-110382016D01*
X98863011Y-110382016D02*
X98863011Y-113342016D01*
%TO.C,C4*%
X100387011Y-113342016D02*
X98927011Y-113342016D01*
X98927011Y-113342016D02*
X98927011Y-110382016D01*
X98927011Y-110382016D02*
X100387011Y-110382016D01*
X100387011Y-110382016D02*
X100387011Y-113342016D01*
%TO.C,C5*%
X100006011Y-106547516D02*
X98546011Y-106547516D01*
X98546011Y-106547516D02*
X98546011Y-103587516D01*
X98546011Y-103587516D02*
X100006011Y-103587516D01*
X100006011Y-103587516D02*
X100006011Y-106547516D01*
%TO.C,R6*%
X100145011Y-105086016D02*
X100145011Y-103626016D01*
X100145011Y-103626016D02*
X103105011Y-103626016D01*
X103105011Y-103626016D02*
X103105011Y-105086016D01*
X103105011Y-105086016D02*
X100145011Y-105086016D01*
%TO.C,D1*%
X74352006Y-118688516D02*
X72892006Y-118688516D01*
X72892006Y-118688516D02*
X72892006Y-115728516D01*
X72892006Y-115728516D02*
X74352006Y-115728516D01*
X74352006Y-115728516D02*
X74352006Y-118688516D01*
%TO.C,D2*%
X72828006Y-118688516D02*
X71368006Y-118688516D01*
X71368006Y-118688516D02*
X71368006Y-115728516D01*
X71368006Y-115728516D02*
X72828006Y-115728516D01*
X72828006Y-115728516D02*
X72828006Y-118688516D01*
%TO.C,F1*%
X72899006Y-103530016D02*
X72899006Y-105690016D01*
X72899006Y-105690016D02*
X67939006Y-105690016D01*
X67939006Y-105690016D02*
X67939006Y-103530016D01*
X67939006Y-103530016D02*
X72899006Y-103530016D01*
%TO.C,Q1*%
X76510006Y-120550016D02*
X76510006Y-117150016D01*
X76510006Y-117150016D02*
X80010006Y-117150016D01*
X80010006Y-117150016D02*
X80010006Y-120550016D01*
X80010006Y-120550016D02*
X76510006Y-120550016D01*
%TO.C,R1*%
X74804006Y-114681016D02*
X74804006Y-115621016D01*
X74804006Y-115621016D02*
X72944006Y-115621016D01*
X72944006Y-115621016D02*
X72944006Y-114681016D01*
X72944006Y-114681016D02*
X74804006Y-114681016D01*
%TO.C,R2*%
X78918006Y-109733016D02*
X77978006Y-109733016D01*
X77978006Y-109733016D02*
X77978006Y-107873016D01*
X77978006Y-107873016D02*
X78918006Y-107873016D01*
X78918006Y-107873016D02*
X78918006Y-109733016D01*
%TO.C,R3*%
X70662006Y-109525016D02*
X70662006Y-108585016D01*
X70662006Y-108585016D02*
X72522006Y-108585016D01*
X72522006Y-108585016D02*
X72522006Y-109525016D01*
X72522006Y-109525016D02*
X70662006Y-109525016D01*
%TO.C,R4*%
X71298006Y-118623016D02*
X70358006Y-118623016D01*
X70358006Y-118623016D02*
X70358006Y-116763016D01*
X70358006Y-116763016D02*
X71298006Y-116763016D01*
X71298006Y-116763016D02*
X71298006Y-118623016D01*
%TO.C,R5*%
X82618506Y-106680016D02*
X82618506Y-107620016D01*
X82618506Y-107620016D02*
X80758506Y-107620016D01*
X80758506Y-107620016D02*
X80758506Y-106680016D01*
X80758506Y-106680016D02*
X82618506Y-106680016D01*
%TO.C,U1*%
X78791006Y-113417016D02*
X82591006Y-113417016D01*
X82591006Y-113417016D02*
X82591006Y-117017016D01*
X82591006Y-117017016D02*
X78791006Y-117017016D01*
X78791006Y-117017016D02*
X78791006Y-113417016D01*
%TO.C,U2*%
X80686006Y-103566016D02*
X76886006Y-103566016D01*
X80686006Y-107166016D02*
X80686006Y-103566016D01*
X76886006Y-107166016D02*
X80686006Y-107166016D01*
X76886006Y-103566016D02*
X76886006Y-107166016D01*
%TO.C,U3*%
X76876006Y-103566016D02*
X73076006Y-103566016D01*
X76876006Y-107166016D02*
X76876006Y-103566016D01*
X73076006Y-107166016D02*
X76876006Y-107166016D01*
X73076006Y-103566016D02*
X73076006Y-107166016D01*
%TO.C,D3*%
X73050006Y-121000016D02*
X68350006Y-121000016D01*
X68350006Y-121000016D02*
X68350006Y-118700016D01*
X68350006Y-118700016D02*
X73050006Y-118700016D01*
X73050006Y-121000016D02*
X73050006Y-118700016D01*
%TO.C,D4*%
X84990006Y-121000016D02*
X80290006Y-121000016D01*
X80290006Y-121000016D02*
X80290006Y-118700016D01*
X80290006Y-118700016D02*
X84990006Y-118700016D01*
X84990006Y-121000016D02*
X84990006Y-118700016D01*
%TO.C,C1*%
X78624006Y-115060016D02*
X78624006Y-117020016D01*
X78624006Y-117020016D02*
X75224006Y-117020016D01*
X75224006Y-117020016D02*
X75224006Y-115060016D01*
X75224006Y-115060016D02*
X78624006Y-115060016D01*
%TO.C,C2*%
X79222006Y-109781016D02*
X79222006Y-107821016D01*
X79222006Y-107821016D02*
X82622006Y-107821016D01*
X82622006Y-107821016D02*
X82622006Y-109781016D01*
X82622006Y-109781016D02*
X79222006Y-109781016D01*
%TO.C,C3*%
X81083006Y-113342016D02*
X79623006Y-113342016D01*
X79623006Y-113342016D02*
X79623006Y-110382016D01*
X79623006Y-110382016D02*
X81083006Y-110382016D01*
X81083006Y-110382016D02*
X81083006Y-113342016D01*
%TO.C,C4*%
X82607006Y-113342016D02*
X81147006Y-113342016D01*
X81147006Y-113342016D02*
X81147006Y-110382016D01*
X81147006Y-110382016D02*
X82607006Y-110382016D01*
X82607006Y-110382016D02*
X82607006Y-113342016D01*
%TO.C,C5*%
X82226006Y-106547516D02*
X80766006Y-106547516D01*
X80766006Y-106547516D02*
X80766006Y-103587516D01*
X80766006Y-103587516D02*
X82226006Y-103587516D01*
X82226006Y-103587516D02*
X82226006Y-106547516D01*
%TO.C,R6*%
X82365006Y-105086016D02*
X82365006Y-103626016D01*
X82365006Y-103626016D02*
X85325006Y-103626016D01*
X85325006Y-103626016D02*
X85325006Y-105086016D01*
X85325006Y-105086016D02*
X82365006Y-105086016D01*
%TO.C,D1*%
X56572001Y-118688516D02*
X55112001Y-118688516D01*
X55112001Y-118688516D02*
X55112001Y-115728516D01*
X55112001Y-115728516D02*
X56572001Y-115728516D01*
X56572001Y-115728516D02*
X56572001Y-118688516D01*
%TO.C,D2*%
X55048001Y-118688516D02*
X53588001Y-118688516D01*
X53588001Y-118688516D02*
X53588001Y-115728516D01*
X53588001Y-115728516D02*
X55048001Y-115728516D01*
X55048001Y-115728516D02*
X55048001Y-118688516D01*
%TO.C,F1*%
X55119001Y-103530016D02*
X55119001Y-105690016D01*
X55119001Y-105690016D02*
X50159001Y-105690016D01*
X50159001Y-105690016D02*
X50159001Y-103530016D01*
X50159001Y-103530016D02*
X55119001Y-103530016D01*
%TO.C,Q1*%
X58730001Y-120550016D02*
X58730001Y-117150016D01*
X58730001Y-117150016D02*
X62230001Y-117150016D01*
X62230001Y-117150016D02*
X62230001Y-120550016D01*
X62230001Y-120550016D02*
X58730001Y-120550016D01*
%TO.C,R1*%
X57024001Y-114681016D02*
X57024001Y-115621016D01*
X57024001Y-115621016D02*
X55164001Y-115621016D01*
X55164001Y-115621016D02*
X55164001Y-114681016D01*
X55164001Y-114681016D02*
X57024001Y-114681016D01*
%TO.C,R2*%
X61138001Y-109733016D02*
X60198001Y-109733016D01*
X60198001Y-109733016D02*
X60198001Y-107873016D01*
X60198001Y-107873016D02*
X61138001Y-107873016D01*
X61138001Y-107873016D02*
X61138001Y-109733016D01*
%TO.C,R3*%
X52882001Y-109525016D02*
X52882001Y-108585016D01*
X52882001Y-108585016D02*
X54742001Y-108585016D01*
X54742001Y-108585016D02*
X54742001Y-109525016D01*
X54742001Y-109525016D02*
X52882001Y-109525016D01*
%TO.C,R4*%
X53518001Y-118623016D02*
X52578001Y-118623016D01*
X52578001Y-118623016D02*
X52578001Y-116763016D01*
X52578001Y-116763016D02*
X53518001Y-116763016D01*
X53518001Y-116763016D02*
X53518001Y-118623016D01*
%TO.C,R5*%
X64838501Y-106680016D02*
X64838501Y-107620016D01*
X64838501Y-107620016D02*
X62978501Y-107620016D01*
X62978501Y-107620016D02*
X62978501Y-106680016D01*
X62978501Y-106680016D02*
X64838501Y-106680016D01*
%TO.C,U1*%
X61011001Y-113417016D02*
X64811001Y-113417016D01*
X64811001Y-113417016D02*
X64811001Y-117017016D01*
X64811001Y-117017016D02*
X61011001Y-117017016D01*
X61011001Y-117017016D02*
X61011001Y-113417016D01*
%TO.C,U2*%
X62906001Y-103566016D02*
X59106001Y-103566016D01*
X62906001Y-107166016D02*
X62906001Y-103566016D01*
X59106001Y-107166016D02*
X62906001Y-107166016D01*
X59106001Y-103566016D02*
X59106001Y-107166016D01*
%TO.C,U3*%
X59096001Y-103566016D02*
X55296001Y-103566016D01*
X59096001Y-107166016D02*
X59096001Y-103566016D01*
X55296001Y-107166016D02*
X59096001Y-107166016D01*
X55296001Y-103566016D02*
X55296001Y-107166016D01*
%TO.C,D3*%
X55270001Y-121000016D02*
X50570001Y-121000016D01*
X50570001Y-121000016D02*
X50570001Y-118700016D01*
X50570001Y-118700016D02*
X55270001Y-118700016D01*
X55270001Y-121000016D02*
X55270001Y-118700016D01*
%TO.C,D4*%
X67210001Y-121000016D02*
X62510001Y-121000016D01*
X62510001Y-121000016D02*
X62510001Y-118700016D01*
X62510001Y-118700016D02*
X67210001Y-118700016D01*
X67210001Y-121000016D02*
X67210001Y-118700016D01*
%TO.C,C1*%
X60844001Y-115060016D02*
X60844001Y-117020016D01*
X60844001Y-117020016D02*
X57444001Y-117020016D01*
X57444001Y-117020016D02*
X57444001Y-115060016D01*
X57444001Y-115060016D02*
X60844001Y-115060016D01*
%TO.C,C2*%
X61442001Y-109781016D02*
X61442001Y-107821016D01*
X61442001Y-107821016D02*
X64842001Y-107821016D01*
X64842001Y-107821016D02*
X64842001Y-109781016D01*
X64842001Y-109781016D02*
X61442001Y-109781016D01*
%TO.C,C3*%
X63303001Y-113342016D02*
X61843001Y-113342016D01*
X61843001Y-113342016D02*
X61843001Y-110382016D01*
X61843001Y-110382016D02*
X63303001Y-110382016D01*
X63303001Y-110382016D02*
X63303001Y-113342016D01*
%TO.C,C4*%
X64827001Y-113342016D02*
X63367001Y-113342016D01*
X63367001Y-113342016D02*
X63367001Y-110382016D01*
X63367001Y-110382016D02*
X64827001Y-110382016D01*
X64827001Y-110382016D02*
X64827001Y-113342016D01*
%TO.C,C5*%
X64446001Y-106547516D02*
X62986001Y-106547516D01*
X62986001Y-106547516D02*
X62986001Y-103587516D01*
X62986001Y-103587516D02*
X64446001Y-103587516D01*
X64446001Y-103587516D02*
X64446001Y-106547516D01*
%TO.C,R6*%
X64585001Y-105086016D02*
X64585001Y-103626016D01*
X64585001Y-103626016D02*
X67545001Y-103626016D01*
X67545001Y-103626016D02*
X67545001Y-105086016D01*
X67545001Y-105086016D02*
X64585001Y-105086016D01*
%TO.C,D1*%
X109912016Y-100908511D02*
X108452016Y-100908511D01*
X108452016Y-100908511D02*
X108452016Y-97948511D01*
X108452016Y-97948511D02*
X109912016Y-97948511D01*
X109912016Y-97948511D02*
X109912016Y-100908511D01*
%TO.C,D2*%
X108388016Y-100908511D02*
X106928016Y-100908511D01*
X106928016Y-100908511D02*
X106928016Y-97948511D01*
X106928016Y-97948511D02*
X108388016Y-97948511D01*
X108388016Y-97948511D02*
X108388016Y-100908511D01*
%TO.C,F1*%
X108459016Y-85750011D02*
X108459016Y-87910011D01*
X108459016Y-87910011D02*
X103499016Y-87910011D01*
X103499016Y-87910011D02*
X103499016Y-85750011D01*
X103499016Y-85750011D02*
X108459016Y-85750011D01*
%TO.C,Q1*%
X112070016Y-102770011D02*
X112070016Y-99370011D01*
X112070016Y-99370011D02*
X115570016Y-99370011D01*
X115570016Y-99370011D02*
X115570016Y-102770011D01*
X115570016Y-102770011D02*
X112070016Y-102770011D01*
%TO.C,R1*%
X110364016Y-96901011D02*
X110364016Y-97841011D01*
X110364016Y-97841011D02*
X108504016Y-97841011D01*
X108504016Y-97841011D02*
X108504016Y-96901011D01*
X108504016Y-96901011D02*
X110364016Y-96901011D01*
%TO.C,R2*%
X114478016Y-91953011D02*
X113538016Y-91953011D01*
X113538016Y-91953011D02*
X113538016Y-90093011D01*
X113538016Y-90093011D02*
X114478016Y-90093011D01*
X114478016Y-90093011D02*
X114478016Y-91953011D01*
%TO.C,R3*%
X106222016Y-91745011D02*
X106222016Y-90805011D01*
X106222016Y-90805011D02*
X108082016Y-90805011D01*
X108082016Y-90805011D02*
X108082016Y-91745011D01*
X108082016Y-91745011D02*
X106222016Y-91745011D01*
%TO.C,R4*%
X106858016Y-100843011D02*
X105918016Y-100843011D01*
X105918016Y-100843011D02*
X105918016Y-98983011D01*
X105918016Y-98983011D02*
X106858016Y-98983011D01*
X106858016Y-98983011D02*
X106858016Y-100843011D01*
%TO.C,R5*%
X118178516Y-88900011D02*
X118178516Y-89840011D01*
X118178516Y-89840011D02*
X116318516Y-89840011D01*
X116318516Y-89840011D02*
X116318516Y-88900011D01*
X116318516Y-88900011D02*
X118178516Y-88900011D01*
%TO.C,U1*%
X114351016Y-95637011D02*
X118151016Y-95637011D01*
X118151016Y-95637011D02*
X118151016Y-99237011D01*
X118151016Y-99237011D02*
X114351016Y-99237011D01*
X114351016Y-99237011D02*
X114351016Y-95637011D01*
%TO.C,U2*%
X116246016Y-85786011D02*
X112446016Y-85786011D01*
X116246016Y-89386011D02*
X116246016Y-85786011D01*
X112446016Y-89386011D02*
X116246016Y-89386011D01*
X112446016Y-85786011D02*
X112446016Y-89386011D01*
%TO.C,U3*%
X112436016Y-85786011D02*
X108636016Y-85786011D01*
X112436016Y-89386011D02*
X112436016Y-85786011D01*
X108636016Y-89386011D02*
X112436016Y-89386011D01*
X108636016Y-85786011D02*
X108636016Y-89386011D01*
%TO.C,D3*%
X108610016Y-103220011D02*
X103910016Y-103220011D01*
X103910016Y-103220011D02*
X103910016Y-100920011D01*
X103910016Y-100920011D02*
X108610016Y-100920011D01*
X108610016Y-103220011D02*
X108610016Y-100920011D01*
%TO.C,D4*%
X120550016Y-103220011D02*
X115850016Y-103220011D01*
X115850016Y-103220011D02*
X115850016Y-100920011D01*
X115850016Y-100920011D02*
X120550016Y-100920011D01*
X120550016Y-103220011D02*
X120550016Y-100920011D01*
%TO.C,C1*%
X114184016Y-97280011D02*
X114184016Y-99240011D01*
X114184016Y-99240011D02*
X110784016Y-99240011D01*
X110784016Y-99240011D02*
X110784016Y-97280011D01*
X110784016Y-97280011D02*
X114184016Y-97280011D01*
%TO.C,C2*%
X114782016Y-92001011D02*
X114782016Y-90041011D01*
X114782016Y-90041011D02*
X118182016Y-90041011D01*
X118182016Y-90041011D02*
X118182016Y-92001011D01*
X118182016Y-92001011D02*
X114782016Y-92001011D01*
%TO.C,C3*%
X116643016Y-95562011D02*
X115183016Y-95562011D01*
X115183016Y-95562011D02*
X115183016Y-92602011D01*
X115183016Y-92602011D02*
X116643016Y-92602011D01*
X116643016Y-92602011D02*
X116643016Y-95562011D01*
%TO.C,C4*%
X118167016Y-95562011D02*
X116707016Y-95562011D01*
X116707016Y-95562011D02*
X116707016Y-92602011D01*
X116707016Y-92602011D02*
X118167016Y-92602011D01*
X118167016Y-92602011D02*
X118167016Y-95562011D01*
%TO.C,C5*%
X117786016Y-88767511D02*
X116326016Y-88767511D01*
X116326016Y-88767511D02*
X116326016Y-85807511D01*
X116326016Y-85807511D02*
X117786016Y-85807511D01*
X117786016Y-85807511D02*
X117786016Y-88767511D01*
%TO.C,R6*%
X117925016Y-87306011D02*
X117925016Y-85846011D01*
X117925016Y-85846011D02*
X120885016Y-85846011D01*
X120885016Y-85846011D02*
X120885016Y-87306011D01*
X120885016Y-87306011D02*
X117925016Y-87306011D01*
%TO.C,D1*%
X92132011Y-100908511D02*
X90672011Y-100908511D01*
X90672011Y-100908511D02*
X90672011Y-97948511D01*
X90672011Y-97948511D02*
X92132011Y-97948511D01*
X92132011Y-97948511D02*
X92132011Y-100908511D01*
%TO.C,D2*%
X90608011Y-100908511D02*
X89148011Y-100908511D01*
X89148011Y-100908511D02*
X89148011Y-97948511D01*
X89148011Y-97948511D02*
X90608011Y-97948511D01*
X90608011Y-97948511D02*
X90608011Y-100908511D01*
%TO.C,F1*%
X90679011Y-85750011D02*
X90679011Y-87910011D01*
X90679011Y-87910011D02*
X85719011Y-87910011D01*
X85719011Y-87910011D02*
X85719011Y-85750011D01*
X85719011Y-85750011D02*
X90679011Y-85750011D01*
%TO.C,Q1*%
X94290011Y-102770011D02*
X94290011Y-99370011D01*
X94290011Y-99370011D02*
X97790011Y-99370011D01*
X97790011Y-99370011D02*
X97790011Y-102770011D01*
X97790011Y-102770011D02*
X94290011Y-102770011D01*
%TO.C,R1*%
X92584011Y-96901011D02*
X92584011Y-97841011D01*
X92584011Y-97841011D02*
X90724011Y-97841011D01*
X90724011Y-97841011D02*
X90724011Y-96901011D01*
X90724011Y-96901011D02*
X92584011Y-96901011D01*
%TO.C,R2*%
X96698011Y-91953011D02*
X95758011Y-91953011D01*
X95758011Y-91953011D02*
X95758011Y-90093011D01*
X95758011Y-90093011D02*
X96698011Y-90093011D01*
X96698011Y-90093011D02*
X96698011Y-91953011D01*
%TO.C,R3*%
X88442011Y-91745011D02*
X88442011Y-90805011D01*
X88442011Y-90805011D02*
X90302011Y-90805011D01*
X90302011Y-90805011D02*
X90302011Y-91745011D01*
X90302011Y-91745011D02*
X88442011Y-91745011D01*
%TO.C,R4*%
X89078011Y-100843011D02*
X88138011Y-100843011D01*
X88138011Y-100843011D02*
X88138011Y-98983011D01*
X88138011Y-98983011D02*
X89078011Y-98983011D01*
X89078011Y-98983011D02*
X89078011Y-100843011D01*
%TO.C,R5*%
X100398511Y-88900011D02*
X100398511Y-89840011D01*
X100398511Y-89840011D02*
X98538511Y-89840011D01*
X98538511Y-89840011D02*
X98538511Y-88900011D01*
X98538511Y-88900011D02*
X100398511Y-88900011D01*
%TO.C,U1*%
X96571011Y-95637011D02*
X100371011Y-95637011D01*
X100371011Y-95637011D02*
X100371011Y-99237011D01*
X100371011Y-99237011D02*
X96571011Y-99237011D01*
X96571011Y-99237011D02*
X96571011Y-95637011D01*
%TO.C,U2*%
X98466011Y-85786011D02*
X94666011Y-85786011D01*
X98466011Y-89386011D02*
X98466011Y-85786011D01*
X94666011Y-89386011D02*
X98466011Y-89386011D01*
X94666011Y-85786011D02*
X94666011Y-89386011D01*
%TO.C,U3*%
X94656011Y-85786011D02*
X90856011Y-85786011D01*
X94656011Y-89386011D02*
X94656011Y-85786011D01*
X90856011Y-89386011D02*
X94656011Y-89386011D01*
X90856011Y-85786011D02*
X90856011Y-89386011D01*
%TO.C,D3*%
X90830011Y-103220011D02*
X86130011Y-103220011D01*
X86130011Y-103220011D02*
X86130011Y-100920011D01*
X86130011Y-100920011D02*
X90830011Y-100920011D01*
X90830011Y-103220011D02*
X90830011Y-100920011D01*
%TO.C,D4*%
X102770011Y-103220011D02*
X98070011Y-103220011D01*
X98070011Y-103220011D02*
X98070011Y-100920011D01*
X98070011Y-100920011D02*
X102770011Y-100920011D01*
X102770011Y-103220011D02*
X102770011Y-100920011D01*
%TO.C,C1*%
X96404011Y-97280011D02*
X96404011Y-99240011D01*
X96404011Y-99240011D02*
X93004011Y-99240011D01*
X93004011Y-99240011D02*
X93004011Y-97280011D01*
X93004011Y-97280011D02*
X96404011Y-97280011D01*
%TO.C,C2*%
X97002011Y-92001011D02*
X97002011Y-90041011D01*
X97002011Y-90041011D02*
X100402011Y-90041011D01*
X100402011Y-90041011D02*
X100402011Y-92001011D01*
X100402011Y-92001011D02*
X97002011Y-92001011D01*
%TO.C,C3*%
X98863011Y-95562011D02*
X97403011Y-95562011D01*
X97403011Y-95562011D02*
X97403011Y-92602011D01*
X97403011Y-92602011D02*
X98863011Y-92602011D01*
X98863011Y-92602011D02*
X98863011Y-95562011D01*
%TO.C,C4*%
X100387011Y-95562011D02*
X98927011Y-95562011D01*
X98927011Y-95562011D02*
X98927011Y-92602011D01*
X98927011Y-92602011D02*
X100387011Y-92602011D01*
X100387011Y-92602011D02*
X100387011Y-95562011D01*
%TO.C,C5*%
X100006011Y-88767511D02*
X98546011Y-88767511D01*
X98546011Y-88767511D02*
X98546011Y-85807511D01*
X98546011Y-85807511D02*
X100006011Y-85807511D01*
X100006011Y-85807511D02*
X100006011Y-88767511D01*
%TO.C,R6*%
X100145011Y-87306011D02*
X100145011Y-85846011D01*
X100145011Y-85846011D02*
X103105011Y-85846011D01*
X103105011Y-85846011D02*
X103105011Y-87306011D01*
X103105011Y-87306011D02*
X100145011Y-87306011D01*
%TO.C,D1*%
X74352006Y-100908511D02*
X72892006Y-100908511D01*
X72892006Y-100908511D02*
X72892006Y-97948511D01*
X72892006Y-97948511D02*
X74352006Y-97948511D01*
X74352006Y-97948511D02*
X74352006Y-100908511D01*
%TO.C,D2*%
X72828006Y-100908511D02*
X71368006Y-100908511D01*
X71368006Y-100908511D02*
X71368006Y-97948511D01*
X71368006Y-97948511D02*
X72828006Y-97948511D01*
X72828006Y-97948511D02*
X72828006Y-100908511D01*
%TO.C,F1*%
X72899006Y-85750011D02*
X72899006Y-87910011D01*
X72899006Y-87910011D02*
X67939006Y-87910011D01*
X67939006Y-87910011D02*
X67939006Y-85750011D01*
X67939006Y-85750011D02*
X72899006Y-85750011D01*
%TO.C,Q1*%
X76510006Y-102770011D02*
X76510006Y-99370011D01*
X76510006Y-99370011D02*
X80010006Y-99370011D01*
X80010006Y-99370011D02*
X80010006Y-102770011D01*
X80010006Y-102770011D02*
X76510006Y-102770011D01*
%TO.C,R1*%
X74804006Y-96901011D02*
X74804006Y-97841011D01*
X74804006Y-97841011D02*
X72944006Y-97841011D01*
X72944006Y-97841011D02*
X72944006Y-96901011D01*
X72944006Y-96901011D02*
X74804006Y-96901011D01*
%TO.C,R2*%
X78918006Y-91953011D02*
X77978006Y-91953011D01*
X77978006Y-91953011D02*
X77978006Y-90093011D01*
X77978006Y-90093011D02*
X78918006Y-90093011D01*
X78918006Y-90093011D02*
X78918006Y-91953011D01*
%TO.C,R3*%
X70662006Y-91745011D02*
X70662006Y-90805011D01*
X70662006Y-90805011D02*
X72522006Y-90805011D01*
X72522006Y-90805011D02*
X72522006Y-91745011D01*
X72522006Y-91745011D02*
X70662006Y-91745011D01*
%TO.C,R4*%
X71298006Y-100843011D02*
X70358006Y-100843011D01*
X70358006Y-100843011D02*
X70358006Y-98983011D01*
X70358006Y-98983011D02*
X71298006Y-98983011D01*
X71298006Y-98983011D02*
X71298006Y-100843011D01*
%TO.C,R5*%
X82618506Y-88900011D02*
X82618506Y-89840011D01*
X82618506Y-89840011D02*
X80758506Y-89840011D01*
X80758506Y-89840011D02*
X80758506Y-88900011D01*
X80758506Y-88900011D02*
X82618506Y-88900011D01*
%TO.C,U1*%
X78791006Y-95637011D02*
X82591006Y-95637011D01*
X82591006Y-95637011D02*
X82591006Y-99237011D01*
X82591006Y-99237011D02*
X78791006Y-99237011D01*
X78791006Y-99237011D02*
X78791006Y-95637011D01*
%TO.C,U2*%
X80686006Y-85786011D02*
X76886006Y-85786011D01*
X80686006Y-89386011D02*
X80686006Y-85786011D01*
X76886006Y-89386011D02*
X80686006Y-89386011D01*
X76886006Y-85786011D02*
X76886006Y-89386011D01*
%TO.C,U3*%
X76876006Y-85786011D02*
X73076006Y-85786011D01*
X76876006Y-89386011D02*
X76876006Y-85786011D01*
X73076006Y-89386011D02*
X76876006Y-89386011D01*
X73076006Y-85786011D02*
X73076006Y-89386011D01*
%TO.C,D3*%
X73050006Y-103220011D02*
X68350006Y-103220011D01*
X68350006Y-103220011D02*
X68350006Y-100920011D01*
X68350006Y-100920011D02*
X73050006Y-100920011D01*
X73050006Y-103220011D02*
X73050006Y-100920011D01*
%TO.C,D4*%
X84990006Y-103220011D02*
X80290006Y-103220011D01*
X80290006Y-103220011D02*
X80290006Y-100920011D01*
X80290006Y-100920011D02*
X84990006Y-100920011D01*
X84990006Y-103220011D02*
X84990006Y-100920011D01*
%TO.C,C1*%
X78624006Y-97280011D02*
X78624006Y-99240011D01*
X78624006Y-99240011D02*
X75224006Y-99240011D01*
X75224006Y-99240011D02*
X75224006Y-97280011D01*
X75224006Y-97280011D02*
X78624006Y-97280011D01*
%TO.C,C2*%
X79222006Y-92001011D02*
X79222006Y-90041011D01*
X79222006Y-90041011D02*
X82622006Y-90041011D01*
X82622006Y-90041011D02*
X82622006Y-92001011D01*
X82622006Y-92001011D02*
X79222006Y-92001011D01*
%TO.C,C3*%
X81083006Y-95562011D02*
X79623006Y-95562011D01*
X79623006Y-95562011D02*
X79623006Y-92602011D01*
X79623006Y-92602011D02*
X81083006Y-92602011D01*
X81083006Y-92602011D02*
X81083006Y-95562011D01*
%TO.C,C4*%
X82607006Y-95562011D02*
X81147006Y-95562011D01*
X81147006Y-95562011D02*
X81147006Y-92602011D01*
X81147006Y-92602011D02*
X82607006Y-92602011D01*
X82607006Y-92602011D02*
X82607006Y-95562011D01*
%TO.C,C5*%
X82226006Y-88767511D02*
X80766006Y-88767511D01*
X80766006Y-88767511D02*
X80766006Y-85807511D01*
X80766006Y-85807511D02*
X82226006Y-85807511D01*
X82226006Y-85807511D02*
X82226006Y-88767511D01*
%TO.C,R6*%
X82365006Y-87306011D02*
X82365006Y-85846011D01*
X82365006Y-85846011D02*
X85325006Y-85846011D01*
X85325006Y-85846011D02*
X85325006Y-87306011D01*
X85325006Y-87306011D02*
X82365006Y-87306011D01*
%TO.C,D1*%
X56572001Y-100908511D02*
X55112001Y-100908511D01*
X55112001Y-100908511D02*
X55112001Y-97948511D01*
X55112001Y-97948511D02*
X56572001Y-97948511D01*
X56572001Y-97948511D02*
X56572001Y-100908511D01*
%TO.C,D2*%
X55048001Y-100908511D02*
X53588001Y-100908511D01*
X53588001Y-100908511D02*
X53588001Y-97948511D01*
X53588001Y-97948511D02*
X55048001Y-97948511D01*
X55048001Y-97948511D02*
X55048001Y-100908511D01*
%TO.C,F1*%
X55119001Y-85750011D02*
X55119001Y-87910011D01*
X55119001Y-87910011D02*
X50159001Y-87910011D01*
X50159001Y-87910011D02*
X50159001Y-85750011D01*
X50159001Y-85750011D02*
X55119001Y-85750011D01*
%TO.C,Q1*%
X58730001Y-102770011D02*
X58730001Y-99370011D01*
X58730001Y-99370011D02*
X62230001Y-99370011D01*
X62230001Y-99370011D02*
X62230001Y-102770011D01*
X62230001Y-102770011D02*
X58730001Y-102770011D01*
%TO.C,R1*%
X57024001Y-96901011D02*
X57024001Y-97841011D01*
X57024001Y-97841011D02*
X55164001Y-97841011D01*
X55164001Y-97841011D02*
X55164001Y-96901011D01*
X55164001Y-96901011D02*
X57024001Y-96901011D01*
%TO.C,R2*%
X61138001Y-91953011D02*
X60198001Y-91953011D01*
X60198001Y-91953011D02*
X60198001Y-90093011D01*
X60198001Y-90093011D02*
X61138001Y-90093011D01*
X61138001Y-90093011D02*
X61138001Y-91953011D01*
%TO.C,R3*%
X52882001Y-91745011D02*
X52882001Y-90805011D01*
X52882001Y-90805011D02*
X54742001Y-90805011D01*
X54742001Y-90805011D02*
X54742001Y-91745011D01*
X54742001Y-91745011D02*
X52882001Y-91745011D01*
%TO.C,R4*%
X53518001Y-100843011D02*
X52578001Y-100843011D01*
X52578001Y-100843011D02*
X52578001Y-98983011D01*
X52578001Y-98983011D02*
X53518001Y-98983011D01*
X53518001Y-98983011D02*
X53518001Y-100843011D01*
%TO.C,R5*%
X64838501Y-88900011D02*
X64838501Y-89840011D01*
X64838501Y-89840011D02*
X62978501Y-89840011D01*
X62978501Y-89840011D02*
X62978501Y-88900011D01*
X62978501Y-88900011D02*
X64838501Y-88900011D01*
%TO.C,U1*%
X61011001Y-95637011D02*
X64811001Y-95637011D01*
X64811001Y-95637011D02*
X64811001Y-99237011D01*
X64811001Y-99237011D02*
X61011001Y-99237011D01*
X61011001Y-99237011D02*
X61011001Y-95637011D01*
%TO.C,U2*%
X62906001Y-85786011D02*
X59106001Y-85786011D01*
X62906001Y-89386011D02*
X62906001Y-85786011D01*
X59106001Y-89386011D02*
X62906001Y-89386011D01*
X59106001Y-85786011D02*
X59106001Y-89386011D01*
%TO.C,U3*%
X59096001Y-85786011D02*
X55296001Y-85786011D01*
X59096001Y-89386011D02*
X59096001Y-85786011D01*
X55296001Y-89386011D02*
X59096001Y-89386011D01*
X55296001Y-85786011D02*
X55296001Y-89386011D01*
%TO.C,D3*%
X55270001Y-103220011D02*
X50570001Y-103220011D01*
X50570001Y-103220011D02*
X50570001Y-100920011D01*
X50570001Y-100920011D02*
X55270001Y-100920011D01*
X55270001Y-103220011D02*
X55270001Y-100920011D01*
%TO.C,D4*%
X67210001Y-103220011D02*
X62510001Y-103220011D01*
X62510001Y-103220011D02*
X62510001Y-100920011D01*
X62510001Y-100920011D02*
X67210001Y-100920011D01*
X67210001Y-103220011D02*
X67210001Y-100920011D01*
%TO.C,C1*%
X60844001Y-97280011D02*
X60844001Y-99240011D01*
X60844001Y-99240011D02*
X57444001Y-99240011D01*
X57444001Y-99240011D02*
X57444001Y-97280011D01*
X57444001Y-97280011D02*
X60844001Y-97280011D01*
%TO.C,C2*%
X61442001Y-92001011D02*
X61442001Y-90041011D01*
X61442001Y-90041011D02*
X64842001Y-90041011D01*
X64842001Y-90041011D02*
X64842001Y-92001011D01*
X64842001Y-92001011D02*
X61442001Y-92001011D01*
%TO.C,C3*%
X63303001Y-95562011D02*
X61843001Y-95562011D01*
X61843001Y-95562011D02*
X61843001Y-92602011D01*
X61843001Y-92602011D02*
X63303001Y-92602011D01*
X63303001Y-92602011D02*
X63303001Y-95562011D01*
%TO.C,C4*%
X64827001Y-95562011D02*
X63367001Y-95562011D01*
X63367001Y-95562011D02*
X63367001Y-92602011D01*
X63367001Y-92602011D02*
X64827001Y-92602011D01*
X64827001Y-92602011D02*
X64827001Y-95562011D01*
%TO.C,C5*%
X64446001Y-88767511D02*
X62986001Y-88767511D01*
X62986001Y-88767511D02*
X62986001Y-85807511D01*
X62986001Y-85807511D02*
X64446001Y-85807511D01*
X64446001Y-85807511D02*
X64446001Y-88767511D01*
%TO.C,R6*%
X64585001Y-87306011D02*
X64585001Y-85846011D01*
X64585001Y-85846011D02*
X67545001Y-85846011D01*
X67545001Y-85846011D02*
X67545001Y-87306011D01*
X67545001Y-87306011D02*
X64585001Y-87306011D01*
%TO.C,D1*%
X109912016Y-83128506D02*
X108452016Y-83128506D01*
X108452016Y-83128506D02*
X108452016Y-80168506D01*
X108452016Y-80168506D02*
X109912016Y-80168506D01*
X109912016Y-80168506D02*
X109912016Y-83128506D01*
%TO.C,D2*%
X108388016Y-83128506D02*
X106928016Y-83128506D01*
X106928016Y-83128506D02*
X106928016Y-80168506D01*
X106928016Y-80168506D02*
X108388016Y-80168506D01*
X108388016Y-80168506D02*
X108388016Y-83128506D01*
%TO.C,F1*%
X108459016Y-67970006D02*
X108459016Y-70130006D01*
X108459016Y-70130006D02*
X103499016Y-70130006D01*
X103499016Y-70130006D02*
X103499016Y-67970006D01*
X103499016Y-67970006D02*
X108459016Y-67970006D01*
%TO.C,Q1*%
X112070016Y-84990006D02*
X112070016Y-81590006D01*
X112070016Y-81590006D02*
X115570016Y-81590006D01*
X115570016Y-81590006D02*
X115570016Y-84990006D01*
X115570016Y-84990006D02*
X112070016Y-84990006D01*
%TO.C,R1*%
X110364016Y-79121006D02*
X110364016Y-80061006D01*
X110364016Y-80061006D02*
X108504016Y-80061006D01*
X108504016Y-80061006D02*
X108504016Y-79121006D01*
X108504016Y-79121006D02*
X110364016Y-79121006D01*
%TO.C,R2*%
X114478016Y-74173006D02*
X113538016Y-74173006D01*
X113538016Y-74173006D02*
X113538016Y-72313006D01*
X113538016Y-72313006D02*
X114478016Y-72313006D01*
X114478016Y-72313006D02*
X114478016Y-74173006D01*
%TO.C,R3*%
X106222016Y-73965006D02*
X106222016Y-73025006D01*
X106222016Y-73025006D02*
X108082016Y-73025006D01*
X108082016Y-73025006D02*
X108082016Y-73965006D01*
X108082016Y-73965006D02*
X106222016Y-73965006D01*
%TO.C,R4*%
X106858016Y-83063006D02*
X105918016Y-83063006D01*
X105918016Y-83063006D02*
X105918016Y-81203006D01*
X105918016Y-81203006D02*
X106858016Y-81203006D01*
X106858016Y-81203006D02*
X106858016Y-83063006D01*
%TO.C,R5*%
X118178516Y-71120006D02*
X118178516Y-72060006D01*
X118178516Y-72060006D02*
X116318516Y-72060006D01*
X116318516Y-72060006D02*
X116318516Y-71120006D01*
X116318516Y-71120006D02*
X118178516Y-71120006D01*
%TO.C,U1*%
X114351016Y-77857006D02*
X118151016Y-77857006D01*
X118151016Y-77857006D02*
X118151016Y-81457006D01*
X118151016Y-81457006D02*
X114351016Y-81457006D01*
X114351016Y-81457006D02*
X114351016Y-77857006D01*
%TO.C,U2*%
X116246016Y-68006006D02*
X112446016Y-68006006D01*
X116246016Y-71606006D02*
X116246016Y-68006006D01*
X112446016Y-71606006D02*
X116246016Y-71606006D01*
X112446016Y-68006006D02*
X112446016Y-71606006D01*
%TO.C,U3*%
X112436016Y-68006006D02*
X108636016Y-68006006D01*
X112436016Y-71606006D02*
X112436016Y-68006006D01*
X108636016Y-71606006D02*
X112436016Y-71606006D01*
X108636016Y-68006006D02*
X108636016Y-71606006D01*
%TO.C,D3*%
X108610016Y-85440006D02*
X103910016Y-85440006D01*
X103910016Y-85440006D02*
X103910016Y-83140006D01*
X103910016Y-83140006D02*
X108610016Y-83140006D01*
X108610016Y-85440006D02*
X108610016Y-83140006D01*
%TO.C,D4*%
X120550016Y-85440006D02*
X115850016Y-85440006D01*
X115850016Y-85440006D02*
X115850016Y-83140006D01*
X115850016Y-83140006D02*
X120550016Y-83140006D01*
X120550016Y-85440006D02*
X120550016Y-83140006D01*
%TO.C,C1*%
X114184016Y-79500006D02*
X114184016Y-81460006D01*
X114184016Y-81460006D02*
X110784016Y-81460006D01*
X110784016Y-81460006D02*
X110784016Y-79500006D01*
X110784016Y-79500006D02*
X114184016Y-79500006D01*
%TO.C,C2*%
X114782016Y-74221006D02*
X114782016Y-72261006D01*
X114782016Y-72261006D02*
X118182016Y-72261006D01*
X118182016Y-72261006D02*
X118182016Y-74221006D01*
X118182016Y-74221006D02*
X114782016Y-74221006D01*
%TO.C,C3*%
X116643016Y-77782006D02*
X115183016Y-77782006D01*
X115183016Y-77782006D02*
X115183016Y-74822006D01*
X115183016Y-74822006D02*
X116643016Y-74822006D01*
X116643016Y-74822006D02*
X116643016Y-77782006D01*
%TO.C,C4*%
X118167016Y-77782006D02*
X116707016Y-77782006D01*
X116707016Y-77782006D02*
X116707016Y-74822006D01*
X116707016Y-74822006D02*
X118167016Y-74822006D01*
X118167016Y-74822006D02*
X118167016Y-77782006D01*
%TO.C,C5*%
X117786016Y-70987506D02*
X116326016Y-70987506D01*
X116326016Y-70987506D02*
X116326016Y-68027506D01*
X116326016Y-68027506D02*
X117786016Y-68027506D01*
X117786016Y-68027506D02*
X117786016Y-70987506D01*
%TO.C,R6*%
X117925016Y-69526006D02*
X117925016Y-68066006D01*
X117925016Y-68066006D02*
X120885016Y-68066006D01*
X120885016Y-68066006D02*
X120885016Y-69526006D01*
X120885016Y-69526006D02*
X117925016Y-69526006D01*
%TO.C,D1*%
X92132011Y-83128506D02*
X90672011Y-83128506D01*
X90672011Y-83128506D02*
X90672011Y-80168506D01*
X90672011Y-80168506D02*
X92132011Y-80168506D01*
X92132011Y-80168506D02*
X92132011Y-83128506D01*
%TO.C,D2*%
X90608011Y-83128506D02*
X89148011Y-83128506D01*
X89148011Y-83128506D02*
X89148011Y-80168506D01*
X89148011Y-80168506D02*
X90608011Y-80168506D01*
X90608011Y-80168506D02*
X90608011Y-83128506D01*
%TO.C,F1*%
X90679011Y-67970006D02*
X90679011Y-70130006D01*
X90679011Y-70130006D02*
X85719011Y-70130006D01*
X85719011Y-70130006D02*
X85719011Y-67970006D01*
X85719011Y-67970006D02*
X90679011Y-67970006D01*
%TO.C,Q1*%
X94290011Y-84990006D02*
X94290011Y-81590006D01*
X94290011Y-81590006D02*
X97790011Y-81590006D01*
X97790011Y-81590006D02*
X97790011Y-84990006D01*
X97790011Y-84990006D02*
X94290011Y-84990006D01*
%TO.C,R1*%
X92584011Y-79121006D02*
X92584011Y-80061006D01*
X92584011Y-80061006D02*
X90724011Y-80061006D01*
X90724011Y-80061006D02*
X90724011Y-79121006D01*
X90724011Y-79121006D02*
X92584011Y-79121006D01*
%TO.C,R2*%
X96698011Y-74173006D02*
X95758011Y-74173006D01*
X95758011Y-74173006D02*
X95758011Y-72313006D01*
X95758011Y-72313006D02*
X96698011Y-72313006D01*
X96698011Y-72313006D02*
X96698011Y-74173006D01*
%TO.C,R3*%
X88442011Y-73965006D02*
X88442011Y-73025006D01*
X88442011Y-73025006D02*
X90302011Y-73025006D01*
X90302011Y-73025006D02*
X90302011Y-73965006D01*
X90302011Y-73965006D02*
X88442011Y-73965006D01*
%TO.C,R4*%
X89078011Y-83063006D02*
X88138011Y-83063006D01*
X88138011Y-83063006D02*
X88138011Y-81203006D01*
X88138011Y-81203006D02*
X89078011Y-81203006D01*
X89078011Y-81203006D02*
X89078011Y-83063006D01*
%TO.C,R5*%
X100398511Y-71120006D02*
X100398511Y-72060006D01*
X100398511Y-72060006D02*
X98538511Y-72060006D01*
X98538511Y-72060006D02*
X98538511Y-71120006D01*
X98538511Y-71120006D02*
X100398511Y-71120006D01*
%TO.C,U1*%
X96571011Y-77857006D02*
X100371011Y-77857006D01*
X100371011Y-77857006D02*
X100371011Y-81457006D01*
X100371011Y-81457006D02*
X96571011Y-81457006D01*
X96571011Y-81457006D02*
X96571011Y-77857006D01*
%TO.C,U2*%
X98466011Y-68006006D02*
X94666011Y-68006006D01*
X98466011Y-71606006D02*
X98466011Y-68006006D01*
X94666011Y-71606006D02*
X98466011Y-71606006D01*
X94666011Y-68006006D02*
X94666011Y-71606006D01*
%TO.C,U3*%
X94656011Y-68006006D02*
X90856011Y-68006006D01*
X94656011Y-71606006D02*
X94656011Y-68006006D01*
X90856011Y-71606006D02*
X94656011Y-71606006D01*
X90856011Y-68006006D02*
X90856011Y-71606006D01*
%TO.C,D3*%
X90830011Y-85440006D02*
X86130011Y-85440006D01*
X86130011Y-85440006D02*
X86130011Y-83140006D01*
X86130011Y-83140006D02*
X90830011Y-83140006D01*
X90830011Y-85440006D02*
X90830011Y-83140006D01*
%TO.C,D4*%
X102770011Y-85440006D02*
X98070011Y-85440006D01*
X98070011Y-85440006D02*
X98070011Y-83140006D01*
X98070011Y-83140006D02*
X102770011Y-83140006D01*
X102770011Y-85440006D02*
X102770011Y-83140006D01*
%TO.C,C1*%
X96404011Y-79500006D02*
X96404011Y-81460006D01*
X96404011Y-81460006D02*
X93004011Y-81460006D01*
X93004011Y-81460006D02*
X93004011Y-79500006D01*
X93004011Y-79500006D02*
X96404011Y-79500006D01*
%TO.C,C2*%
X97002011Y-74221006D02*
X97002011Y-72261006D01*
X97002011Y-72261006D02*
X100402011Y-72261006D01*
X100402011Y-72261006D02*
X100402011Y-74221006D01*
X100402011Y-74221006D02*
X97002011Y-74221006D01*
%TO.C,C3*%
X98863011Y-77782006D02*
X97403011Y-77782006D01*
X97403011Y-77782006D02*
X97403011Y-74822006D01*
X97403011Y-74822006D02*
X98863011Y-74822006D01*
X98863011Y-74822006D02*
X98863011Y-77782006D01*
%TO.C,C4*%
X100387011Y-77782006D02*
X98927011Y-77782006D01*
X98927011Y-77782006D02*
X98927011Y-74822006D01*
X98927011Y-74822006D02*
X100387011Y-74822006D01*
X100387011Y-74822006D02*
X100387011Y-77782006D01*
%TO.C,C5*%
X100006011Y-70987506D02*
X98546011Y-70987506D01*
X98546011Y-70987506D02*
X98546011Y-68027506D01*
X98546011Y-68027506D02*
X100006011Y-68027506D01*
X100006011Y-68027506D02*
X100006011Y-70987506D01*
%TO.C,R6*%
X100145011Y-69526006D02*
X100145011Y-68066006D01*
X100145011Y-68066006D02*
X103105011Y-68066006D01*
X103105011Y-68066006D02*
X103105011Y-69526006D01*
X103105011Y-69526006D02*
X100145011Y-69526006D01*
%TO.C,D1*%
X74352006Y-83128506D02*
X72892006Y-83128506D01*
X72892006Y-83128506D02*
X72892006Y-80168506D01*
X72892006Y-80168506D02*
X74352006Y-80168506D01*
X74352006Y-80168506D02*
X74352006Y-83128506D01*
%TO.C,D2*%
X72828006Y-83128506D02*
X71368006Y-83128506D01*
X71368006Y-83128506D02*
X71368006Y-80168506D01*
X71368006Y-80168506D02*
X72828006Y-80168506D01*
X72828006Y-80168506D02*
X72828006Y-83128506D01*
%TO.C,F1*%
X72899006Y-67970006D02*
X72899006Y-70130006D01*
X72899006Y-70130006D02*
X67939006Y-70130006D01*
X67939006Y-70130006D02*
X67939006Y-67970006D01*
X67939006Y-67970006D02*
X72899006Y-67970006D01*
%TO.C,Q1*%
X76510006Y-84990006D02*
X76510006Y-81590006D01*
X76510006Y-81590006D02*
X80010006Y-81590006D01*
X80010006Y-81590006D02*
X80010006Y-84990006D01*
X80010006Y-84990006D02*
X76510006Y-84990006D01*
%TO.C,R1*%
X74804006Y-79121006D02*
X74804006Y-80061006D01*
X74804006Y-80061006D02*
X72944006Y-80061006D01*
X72944006Y-80061006D02*
X72944006Y-79121006D01*
X72944006Y-79121006D02*
X74804006Y-79121006D01*
%TO.C,R2*%
X78918006Y-74173006D02*
X77978006Y-74173006D01*
X77978006Y-74173006D02*
X77978006Y-72313006D01*
X77978006Y-72313006D02*
X78918006Y-72313006D01*
X78918006Y-72313006D02*
X78918006Y-74173006D01*
%TO.C,R3*%
X70662006Y-73965006D02*
X70662006Y-73025006D01*
X70662006Y-73025006D02*
X72522006Y-73025006D01*
X72522006Y-73025006D02*
X72522006Y-73965006D01*
X72522006Y-73965006D02*
X70662006Y-73965006D01*
%TO.C,R4*%
X71298006Y-83063006D02*
X70358006Y-83063006D01*
X70358006Y-83063006D02*
X70358006Y-81203006D01*
X70358006Y-81203006D02*
X71298006Y-81203006D01*
X71298006Y-81203006D02*
X71298006Y-83063006D01*
%TO.C,R5*%
X82618506Y-71120006D02*
X82618506Y-72060006D01*
X82618506Y-72060006D02*
X80758506Y-72060006D01*
X80758506Y-72060006D02*
X80758506Y-71120006D01*
X80758506Y-71120006D02*
X82618506Y-71120006D01*
%TO.C,U1*%
X78791006Y-77857006D02*
X82591006Y-77857006D01*
X82591006Y-77857006D02*
X82591006Y-81457006D01*
X82591006Y-81457006D02*
X78791006Y-81457006D01*
X78791006Y-81457006D02*
X78791006Y-77857006D01*
%TO.C,U2*%
X80686006Y-68006006D02*
X76886006Y-68006006D01*
X80686006Y-71606006D02*
X80686006Y-68006006D01*
X76886006Y-71606006D02*
X80686006Y-71606006D01*
X76886006Y-68006006D02*
X76886006Y-71606006D01*
%TO.C,U3*%
X76876006Y-68006006D02*
X73076006Y-68006006D01*
X76876006Y-71606006D02*
X76876006Y-68006006D01*
X73076006Y-71606006D02*
X76876006Y-71606006D01*
X73076006Y-68006006D02*
X73076006Y-71606006D01*
%TO.C,D3*%
X73050006Y-85440006D02*
X68350006Y-85440006D01*
X68350006Y-85440006D02*
X68350006Y-83140006D01*
X68350006Y-83140006D02*
X73050006Y-83140006D01*
X73050006Y-85440006D02*
X73050006Y-83140006D01*
%TO.C,D4*%
X84990006Y-85440006D02*
X80290006Y-85440006D01*
X80290006Y-85440006D02*
X80290006Y-83140006D01*
X80290006Y-83140006D02*
X84990006Y-83140006D01*
X84990006Y-85440006D02*
X84990006Y-83140006D01*
%TO.C,C1*%
X78624006Y-79500006D02*
X78624006Y-81460006D01*
X78624006Y-81460006D02*
X75224006Y-81460006D01*
X75224006Y-81460006D02*
X75224006Y-79500006D01*
X75224006Y-79500006D02*
X78624006Y-79500006D01*
%TO.C,C2*%
X79222006Y-74221006D02*
X79222006Y-72261006D01*
X79222006Y-72261006D02*
X82622006Y-72261006D01*
X82622006Y-72261006D02*
X82622006Y-74221006D01*
X82622006Y-74221006D02*
X79222006Y-74221006D01*
%TO.C,C3*%
X81083006Y-77782006D02*
X79623006Y-77782006D01*
X79623006Y-77782006D02*
X79623006Y-74822006D01*
X79623006Y-74822006D02*
X81083006Y-74822006D01*
X81083006Y-74822006D02*
X81083006Y-77782006D01*
%TO.C,C4*%
X82607006Y-77782006D02*
X81147006Y-77782006D01*
X81147006Y-77782006D02*
X81147006Y-74822006D01*
X81147006Y-74822006D02*
X82607006Y-74822006D01*
X82607006Y-74822006D02*
X82607006Y-77782006D01*
%TO.C,C5*%
X82226006Y-70987506D02*
X80766006Y-70987506D01*
X80766006Y-70987506D02*
X80766006Y-68027506D01*
X80766006Y-68027506D02*
X82226006Y-68027506D01*
X82226006Y-68027506D02*
X82226006Y-70987506D01*
%TO.C,R6*%
X82365006Y-69526006D02*
X82365006Y-68066006D01*
X82365006Y-68066006D02*
X85325006Y-68066006D01*
X85325006Y-68066006D02*
X85325006Y-69526006D01*
X85325006Y-69526006D02*
X82365006Y-69526006D01*
%TO.C,D1*%
X56572001Y-83128506D02*
X55112001Y-83128506D01*
X55112001Y-83128506D02*
X55112001Y-80168506D01*
X55112001Y-80168506D02*
X56572001Y-80168506D01*
X56572001Y-80168506D02*
X56572001Y-83128506D01*
%TO.C,D2*%
X55048001Y-83128506D02*
X53588001Y-83128506D01*
X53588001Y-83128506D02*
X53588001Y-80168506D01*
X53588001Y-80168506D02*
X55048001Y-80168506D01*
X55048001Y-80168506D02*
X55048001Y-83128506D01*
%TO.C,F1*%
X55119001Y-67970006D02*
X55119001Y-70130006D01*
X55119001Y-70130006D02*
X50159001Y-70130006D01*
X50159001Y-70130006D02*
X50159001Y-67970006D01*
X50159001Y-67970006D02*
X55119001Y-67970006D01*
%TO.C,Q1*%
X58730001Y-84990006D02*
X58730001Y-81590006D01*
X58730001Y-81590006D02*
X62230001Y-81590006D01*
X62230001Y-81590006D02*
X62230001Y-84990006D01*
X62230001Y-84990006D02*
X58730001Y-84990006D01*
%TO.C,R1*%
X57024001Y-79121006D02*
X57024001Y-80061006D01*
X57024001Y-80061006D02*
X55164001Y-80061006D01*
X55164001Y-80061006D02*
X55164001Y-79121006D01*
X55164001Y-79121006D02*
X57024001Y-79121006D01*
%TO.C,R2*%
X61138001Y-74173006D02*
X60198001Y-74173006D01*
X60198001Y-74173006D02*
X60198001Y-72313006D01*
X60198001Y-72313006D02*
X61138001Y-72313006D01*
X61138001Y-72313006D02*
X61138001Y-74173006D01*
%TO.C,R3*%
X52882001Y-73965006D02*
X52882001Y-73025006D01*
X52882001Y-73025006D02*
X54742001Y-73025006D01*
X54742001Y-73025006D02*
X54742001Y-73965006D01*
X54742001Y-73965006D02*
X52882001Y-73965006D01*
%TO.C,R4*%
X53518001Y-83063006D02*
X52578001Y-83063006D01*
X52578001Y-83063006D02*
X52578001Y-81203006D01*
X52578001Y-81203006D02*
X53518001Y-81203006D01*
X53518001Y-81203006D02*
X53518001Y-83063006D01*
%TO.C,R5*%
X64838501Y-71120006D02*
X64838501Y-72060006D01*
X64838501Y-72060006D02*
X62978501Y-72060006D01*
X62978501Y-72060006D02*
X62978501Y-71120006D01*
X62978501Y-71120006D02*
X64838501Y-71120006D01*
%TO.C,U1*%
X61011001Y-77857006D02*
X64811001Y-77857006D01*
X64811001Y-77857006D02*
X64811001Y-81457006D01*
X64811001Y-81457006D02*
X61011001Y-81457006D01*
X61011001Y-81457006D02*
X61011001Y-77857006D01*
%TO.C,U2*%
X62906001Y-68006006D02*
X59106001Y-68006006D01*
X62906001Y-71606006D02*
X62906001Y-68006006D01*
X59106001Y-71606006D02*
X62906001Y-71606006D01*
X59106001Y-68006006D02*
X59106001Y-71606006D01*
%TO.C,U3*%
X59096001Y-68006006D02*
X55296001Y-68006006D01*
X59096001Y-71606006D02*
X59096001Y-68006006D01*
X55296001Y-71606006D02*
X59096001Y-71606006D01*
X55296001Y-68006006D02*
X55296001Y-71606006D01*
%TO.C,D3*%
X55270001Y-85440006D02*
X50570001Y-85440006D01*
X50570001Y-85440006D02*
X50570001Y-83140006D01*
X50570001Y-83140006D02*
X55270001Y-83140006D01*
X55270001Y-85440006D02*
X55270001Y-83140006D01*
%TO.C,D4*%
X67210001Y-85440006D02*
X62510001Y-85440006D01*
X62510001Y-85440006D02*
X62510001Y-83140006D01*
X62510001Y-83140006D02*
X67210001Y-83140006D01*
X67210001Y-85440006D02*
X67210001Y-83140006D01*
%TO.C,C1*%
X60844001Y-79500006D02*
X60844001Y-81460006D01*
X60844001Y-81460006D02*
X57444001Y-81460006D01*
X57444001Y-81460006D02*
X57444001Y-79500006D01*
X57444001Y-79500006D02*
X60844001Y-79500006D01*
%TO.C,C2*%
X61442001Y-74221006D02*
X61442001Y-72261006D01*
X61442001Y-72261006D02*
X64842001Y-72261006D01*
X64842001Y-72261006D02*
X64842001Y-74221006D01*
X64842001Y-74221006D02*
X61442001Y-74221006D01*
%TO.C,C3*%
X63303001Y-77782006D02*
X61843001Y-77782006D01*
X61843001Y-77782006D02*
X61843001Y-74822006D01*
X61843001Y-74822006D02*
X63303001Y-74822006D01*
X63303001Y-74822006D02*
X63303001Y-77782006D01*
%TO.C,C4*%
X64827001Y-77782006D02*
X63367001Y-77782006D01*
X63367001Y-77782006D02*
X63367001Y-74822006D01*
X63367001Y-74822006D02*
X64827001Y-74822006D01*
X64827001Y-74822006D02*
X64827001Y-77782006D01*
%TO.C,C5*%
X64446001Y-70987506D02*
X62986001Y-70987506D01*
X62986001Y-70987506D02*
X62986001Y-68027506D01*
X62986001Y-68027506D02*
X64446001Y-68027506D01*
X64446001Y-68027506D02*
X64446001Y-70987506D01*
%TO.C,R6*%
X64585001Y-69526006D02*
X64585001Y-68066006D01*
X64585001Y-68066006D02*
X67545001Y-68066006D01*
X67545001Y-68066006D02*
X67545001Y-69526006D01*
X67545001Y-69526006D02*
X64585001Y-69526006D01*
%TO.C,D1*%
X109912016Y-65348501D02*
X108452016Y-65348501D01*
X108452016Y-65348501D02*
X108452016Y-62388501D01*
X108452016Y-62388501D02*
X109912016Y-62388501D01*
X109912016Y-62388501D02*
X109912016Y-65348501D01*
%TO.C,D2*%
X108388016Y-65348501D02*
X106928016Y-65348501D01*
X106928016Y-65348501D02*
X106928016Y-62388501D01*
X106928016Y-62388501D02*
X108388016Y-62388501D01*
X108388016Y-62388501D02*
X108388016Y-65348501D01*
%TO.C,F1*%
X108459016Y-50190001D02*
X108459016Y-52350001D01*
X108459016Y-52350001D02*
X103499016Y-52350001D01*
X103499016Y-52350001D02*
X103499016Y-50190001D01*
X103499016Y-50190001D02*
X108459016Y-50190001D01*
%TO.C,Q1*%
X112070016Y-67210001D02*
X112070016Y-63810001D01*
X112070016Y-63810001D02*
X115570016Y-63810001D01*
X115570016Y-63810001D02*
X115570016Y-67210001D01*
X115570016Y-67210001D02*
X112070016Y-67210001D01*
%TO.C,R1*%
X110364016Y-61341001D02*
X110364016Y-62281001D01*
X110364016Y-62281001D02*
X108504016Y-62281001D01*
X108504016Y-62281001D02*
X108504016Y-61341001D01*
X108504016Y-61341001D02*
X110364016Y-61341001D01*
%TO.C,R2*%
X114478016Y-56393001D02*
X113538016Y-56393001D01*
X113538016Y-56393001D02*
X113538016Y-54533001D01*
X113538016Y-54533001D02*
X114478016Y-54533001D01*
X114478016Y-54533001D02*
X114478016Y-56393001D01*
%TO.C,R3*%
X106222016Y-56185001D02*
X106222016Y-55245001D01*
X106222016Y-55245001D02*
X108082016Y-55245001D01*
X108082016Y-55245001D02*
X108082016Y-56185001D01*
X108082016Y-56185001D02*
X106222016Y-56185001D01*
%TO.C,R4*%
X106858016Y-65283001D02*
X105918016Y-65283001D01*
X105918016Y-65283001D02*
X105918016Y-63423001D01*
X105918016Y-63423001D02*
X106858016Y-63423001D01*
X106858016Y-63423001D02*
X106858016Y-65283001D01*
%TO.C,R5*%
X118178516Y-53340001D02*
X118178516Y-54280001D01*
X118178516Y-54280001D02*
X116318516Y-54280001D01*
X116318516Y-54280001D02*
X116318516Y-53340001D01*
X116318516Y-53340001D02*
X118178516Y-53340001D01*
%TO.C,U1*%
X114351016Y-60077001D02*
X118151016Y-60077001D01*
X118151016Y-60077001D02*
X118151016Y-63677001D01*
X118151016Y-63677001D02*
X114351016Y-63677001D01*
X114351016Y-63677001D02*
X114351016Y-60077001D01*
%TO.C,U2*%
X116246016Y-50226001D02*
X112446016Y-50226001D01*
X116246016Y-53826001D02*
X116246016Y-50226001D01*
X112446016Y-53826001D02*
X116246016Y-53826001D01*
X112446016Y-50226001D02*
X112446016Y-53826001D01*
%TO.C,U3*%
X112436016Y-50226001D02*
X108636016Y-50226001D01*
X112436016Y-53826001D02*
X112436016Y-50226001D01*
X108636016Y-53826001D02*
X112436016Y-53826001D01*
X108636016Y-50226001D02*
X108636016Y-53826001D01*
%TO.C,D3*%
X108610016Y-67660001D02*
X103910016Y-67660001D01*
X103910016Y-67660001D02*
X103910016Y-65360001D01*
X103910016Y-65360001D02*
X108610016Y-65360001D01*
X108610016Y-67660001D02*
X108610016Y-65360001D01*
%TO.C,D4*%
X120550016Y-67660001D02*
X115850016Y-67660001D01*
X115850016Y-67660001D02*
X115850016Y-65360001D01*
X115850016Y-65360001D02*
X120550016Y-65360001D01*
X120550016Y-67660001D02*
X120550016Y-65360001D01*
%TO.C,C1*%
X114184016Y-61720001D02*
X114184016Y-63680001D01*
X114184016Y-63680001D02*
X110784016Y-63680001D01*
X110784016Y-63680001D02*
X110784016Y-61720001D01*
X110784016Y-61720001D02*
X114184016Y-61720001D01*
%TO.C,C2*%
X114782016Y-56441001D02*
X114782016Y-54481001D01*
X114782016Y-54481001D02*
X118182016Y-54481001D01*
X118182016Y-54481001D02*
X118182016Y-56441001D01*
X118182016Y-56441001D02*
X114782016Y-56441001D01*
%TO.C,C3*%
X116643016Y-60002001D02*
X115183016Y-60002001D01*
X115183016Y-60002001D02*
X115183016Y-57042001D01*
X115183016Y-57042001D02*
X116643016Y-57042001D01*
X116643016Y-57042001D02*
X116643016Y-60002001D01*
%TO.C,C4*%
X118167016Y-60002001D02*
X116707016Y-60002001D01*
X116707016Y-60002001D02*
X116707016Y-57042001D01*
X116707016Y-57042001D02*
X118167016Y-57042001D01*
X118167016Y-57042001D02*
X118167016Y-60002001D01*
%TO.C,C5*%
X117786016Y-53207501D02*
X116326016Y-53207501D01*
X116326016Y-53207501D02*
X116326016Y-50247501D01*
X116326016Y-50247501D02*
X117786016Y-50247501D01*
X117786016Y-50247501D02*
X117786016Y-53207501D01*
%TO.C,R6*%
X117925016Y-51746001D02*
X117925016Y-50286001D01*
X117925016Y-50286001D02*
X120885016Y-50286001D01*
X120885016Y-50286001D02*
X120885016Y-51746001D01*
X120885016Y-51746001D02*
X117925016Y-51746001D01*
%TO.C,D1*%
X92132011Y-65348501D02*
X90672011Y-65348501D01*
X90672011Y-65348501D02*
X90672011Y-62388501D01*
X90672011Y-62388501D02*
X92132011Y-62388501D01*
X92132011Y-62388501D02*
X92132011Y-65348501D01*
%TO.C,D2*%
X90608011Y-65348501D02*
X89148011Y-65348501D01*
X89148011Y-65348501D02*
X89148011Y-62388501D01*
X89148011Y-62388501D02*
X90608011Y-62388501D01*
X90608011Y-62388501D02*
X90608011Y-65348501D01*
%TO.C,F1*%
X90679011Y-50190001D02*
X90679011Y-52350001D01*
X90679011Y-52350001D02*
X85719011Y-52350001D01*
X85719011Y-52350001D02*
X85719011Y-50190001D01*
X85719011Y-50190001D02*
X90679011Y-50190001D01*
%TO.C,Q1*%
X94290011Y-67210001D02*
X94290011Y-63810001D01*
X94290011Y-63810001D02*
X97790011Y-63810001D01*
X97790011Y-63810001D02*
X97790011Y-67210001D01*
X97790011Y-67210001D02*
X94290011Y-67210001D01*
%TO.C,R1*%
X92584011Y-61341001D02*
X92584011Y-62281001D01*
X92584011Y-62281001D02*
X90724011Y-62281001D01*
X90724011Y-62281001D02*
X90724011Y-61341001D01*
X90724011Y-61341001D02*
X92584011Y-61341001D01*
%TO.C,R2*%
X96698011Y-56393001D02*
X95758011Y-56393001D01*
X95758011Y-56393001D02*
X95758011Y-54533001D01*
X95758011Y-54533001D02*
X96698011Y-54533001D01*
X96698011Y-54533001D02*
X96698011Y-56393001D01*
%TO.C,R3*%
X88442011Y-56185001D02*
X88442011Y-55245001D01*
X88442011Y-55245001D02*
X90302011Y-55245001D01*
X90302011Y-55245001D02*
X90302011Y-56185001D01*
X90302011Y-56185001D02*
X88442011Y-56185001D01*
%TO.C,R4*%
X89078011Y-65283001D02*
X88138011Y-65283001D01*
X88138011Y-65283001D02*
X88138011Y-63423001D01*
X88138011Y-63423001D02*
X89078011Y-63423001D01*
X89078011Y-63423001D02*
X89078011Y-65283001D01*
%TO.C,R5*%
X100398511Y-53340001D02*
X100398511Y-54280001D01*
X100398511Y-54280001D02*
X98538511Y-54280001D01*
X98538511Y-54280001D02*
X98538511Y-53340001D01*
X98538511Y-53340001D02*
X100398511Y-53340001D01*
%TO.C,U1*%
X96571011Y-60077001D02*
X100371011Y-60077001D01*
X100371011Y-60077001D02*
X100371011Y-63677001D01*
X100371011Y-63677001D02*
X96571011Y-63677001D01*
X96571011Y-63677001D02*
X96571011Y-60077001D01*
%TO.C,U2*%
X98466011Y-50226001D02*
X94666011Y-50226001D01*
X98466011Y-53826001D02*
X98466011Y-50226001D01*
X94666011Y-53826001D02*
X98466011Y-53826001D01*
X94666011Y-50226001D02*
X94666011Y-53826001D01*
%TO.C,U3*%
X94656011Y-50226001D02*
X90856011Y-50226001D01*
X94656011Y-53826001D02*
X94656011Y-50226001D01*
X90856011Y-53826001D02*
X94656011Y-53826001D01*
X90856011Y-50226001D02*
X90856011Y-53826001D01*
%TO.C,D3*%
X90830011Y-67660001D02*
X86130011Y-67660001D01*
X86130011Y-67660001D02*
X86130011Y-65360001D01*
X86130011Y-65360001D02*
X90830011Y-65360001D01*
X90830011Y-67660001D02*
X90830011Y-65360001D01*
%TO.C,D4*%
X102770011Y-67660001D02*
X98070011Y-67660001D01*
X98070011Y-67660001D02*
X98070011Y-65360001D01*
X98070011Y-65360001D02*
X102770011Y-65360001D01*
X102770011Y-67660001D02*
X102770011Y-65360001D01*
%TO.C,C1*%
X96404011Y-61720001D02*
X96404011Y-63680001D01*
X96404011Y-63680001D02*
X93004011Y-63680001D01*
X93004011Y-63680001D02*
X93004011Y-61720001D01*
X93004011Y-61720001D02*
X96404011Y-61720001D01*
%TO.C,C2*%
X97002011Y-56441001D02*
X97002011Y-54481001D01*
X97002011Y-54481001D02*
X100402011Y-54481001D01*
X100402011Y-54481001D02*
X100402011Y-56441001D01*
X100402011Y-56441001D02*
X97002011Y-56441001D01*
%TO.C,C3*%
X98863011Y-60002001D02*
X97403011Y-60002001D01*
X97403011Y-60002001D02*
X97403011Y-57042001D01*
X97403011Y-57042001D02*
X98863011Y-57042001D01*
X98863011Y-57042001D02*
X98863011Y-60002001D01*
%TO.C,C4*%
X100387011Y-60002001D02*
X98927011Y-60002001D01*
X98927011Y-60002001D02*
X98927011Y-57042001D01*
X98927011Y-57042001D02*
X100387011Y-57042001D01*
X100387011Y-57042001D02*
X100387011Y-60002001D01*
%TO.C,C5*%
X100006011Y-53207501D02*
X98546011Y-53207501D01*
X98546011Y-53207501D02*
X98546011Y-50247501D01*
X98546011Y-50247501D02*
X100006011Y-50247501D01*
X100006011Y-50247501D02*
X100006011Y-53207501D01*
%TO.C,R6*%
X100145011Y-51746001D02*
X100145011Y-50286001D01*
X100145011Y-50286001D02*
X103105011Y-50286001D01*
X103105011Y-50286001D02*
X103105011Y-51746001D01*
X103105011Y-51746001D02*
X100145011Y-51746001D01*
%TO.C,D1*%
X74352006Y-65348501D02*
X72892006Y-65348501D01*
X72892006Y-65348501D02*
X72892006Y-62388501D01*
X72892006Y-62388501D02*
X74352006Y-62388501D01*
X74352006Y-62388501D02*
X74352006Y-65348501D01*
%TO.C,D2*%
X72828006Y-65348501D02*
X71368006Y-65348501D01*
X71368006Y-65348501D02*
X71368006Y-62388501D01*
X71368006Y-62388501D02*
X72828006Y-62388501D01*
X72828006Y-62388501D02*
X72828006Y-65348501D01*
%TO.C,F1*%
X72899006Y-50190001D02*
X72899006Y-52350001D01*
X72899006Y-52350001D02*
X67939006Y-52350001D01*
X67939006Y-52350001D02*
X67939006Y-50190001D01*
X67939006Y-50190001D02*
X72899006Y-50190001D01*
%TO.C,Q1*%
X76510006Y-67210001D02*
X76510006Y-63810001D01*
X76510006Y-63810001D02*
X80010006Y-63810001D01*
X80010006Y-63810001D02*
X80010006Y-67210001D01*
X80010006Y-67210001D02*
X76510006Y-67210001D01*
%TO.C,R1*%
X74804006Y-61341001D02*
X74804006Y-62281001D01*
X74804006Y-62281001D02*
X72944006Y-62281001D01*
X72944006Y-62281001D02*
X72944006Y-61341001D01*
X72944006Y-61341001D02*
X74804006Y-61341001D01*
%TO.C,R2*%
X78918006Y-56393001D02*
X77978006Y-56393001D01*
X77978006Y-56393001D02*
X77978006Y-54533001D01*
X77978006Y-54533001D02*
X78918006Y-54533001D01*
X78918006Y-54533001D02*
X78918006Y-56393001D01*
%TO.C,R3*%
X70662006Y-56185001D02*
X70662006Y-55245001D01*
X70662006Y-55245001D02*
X72522006Y-55245001D01*
X72522006Y-55245001D02*
X72522006Y-56185001D01*
X72522006Y-56185001D02*
X70662006Y-56185001D01*
%TO.C,R4*%
X71298006Y-65283001D02*
X70358006Y-65283001D01*
X70358006Y-65283001D02*
X70358006Y-63423001D01*
X70358006Y-63423001D02*
X71298006Y-63423001D01*
X71298006Y-63423001D02*
X71298006Y-65283001D01*
%TO.C,R5*%
X82618506Y-53340001D02*
X82618506Y-54280001D01*
X82618506Y-54280001D02*
X80758506Y-54280001D01*
X80758506Y-54280001D02*
X80758506Y-53340001D01*
X80758506Y-53340001D02*
X82618506Y-53340001D01*
%TO.C,U1*%
X78791006Y-60077001D02*
X82591006Y-60077001D01*
X82591006Y-60077001D02*
X82591006Y-63677001D01*
X82591006Y-63677001D02*
X78791006Y-63677001D01*
X78791006Y-63677001D02*
X78791006Y-60077001D01*
%TO.C,U2*%
X80686006Y-50226001D02*
X76886006Y-50226001D01*
X80686006Y-53826001D02*
X80686006Y-50226001D01*
X76886006Y-53826001D02*
X80686006Y-53826001D01*
X76886006Y-50226001D02*
X76886006Y-53826001D01*
%TO.C,U3*%
X76876006Y-50226001D02*
X73076006Y-50226001D01*
X76876006Y-53826001D02*
X76876006Y-50226001D01*
X73076006Y-53826001D02*
X76876006Y-53826001D01*
X73076006Y-50226001D02*
X73076006Y-53826001D01*
%TO.C,D3*%
X73050006Y-67660001D02*
X68350006Y-67660001D01*
X68350006Y-67660001D02*
X68350006Y-65360001D01*
X68350006Y-65360001D02*
X73050006Y-65360001D01*
X73050006Y-67660001D02*
X73050006Y-65360001D01*
%TO.C,D4*%
X84990006Y-67660001D02*
X80290006Y-67660001D01*
X80290006Y-67660001D02*
X80290006Y-65360001D01*
X80290006Y-65360001D02*
X84990006Y-65360001D01*
X84990006Y-67660001D02*
X84990006Y-65360001D01*
%TO.C,C1*%
X78624006Y-61720001D02*
X78624006Y-63680001D01*
X78624006Y-63680001D02*
X75224006Y-63680001D01*
X75224006Y-63680001D02*
X75224006Y-61720001D01*
X75224006Y-61720001D02*
X78624006Y-61720001D01*
%TO.C,C2*%
X79222006Y-56441001D02*
X79222006Y-54481001D01*
X79222006Y-54481001D02*
X82622006Y-54481001D01*
X82622006Y-54481001D02*
X82622006Y-56441001D01*
X82622006Y-56441001D02*
X79222006Y-56441001D01*
%TO.C,C3*%
X81083006Y-60002001D02*
X79623006Y-60002001D01*
X79623006Y-60002001D02*
X79623006Y-57042001D01*
X79623006Y-57042001D02*
X81083006Y-57042001D01*
X81083006Y-57042001D02*
X81083006Y-60002001D01*
%TO.C,C4*%
X82607006Y-60002001D02*
X81147006Y-60002001D01*
X81147006Y-60002001D02*
X81147006Y-57042001D01*
X81147006Y-57042001D02*
X82607006Y-57042001D01*
X82607006Y-57042001D02*
X82607006Y-60002001D01*
%TO.C,C5*%
X82226006Y-53207501D02*
X80766006Y-53207501D01*
X80766006Y-53207501D02*
X80766006Y-50247501D01*
X80766006Y-50247501D02*
X82226006Y-50247501D01*
X82226006Y-50247501D02*
X82226006Y-53207501D01*
%TO.C,R6*%
X82365006Y-51746001D02*
X82365006Y-50286001D01*
X82365006Y-50286001D02*
X85325006Y-50286001D01*
X85325006Y-50286001D02*
X85325006Y-51746001D01*
X85325006Y-51746001D02*
X82365006Y-51746001D01*
%TO.C,D1*%
X56572001Y-65348501D02*
X55112001Y-65348501D01*
X55112001Y-65348501D02*
X55112001Y-62388501D01*
X55112001Y-62388501D02*
X56572001Y-62388501D01*
X56572001Y-62388501D02*
X56572001Y-65348501D01*
%TO.C,D2*%
X55048001Y-65348501D02*
X53588001Y-65348501D01*
X53588001Y-65348501D02*
X53588001Y-62388501D01*
X53588001Y-62388501D02*
X55048001Y-62388501D01*
X55048001Y-62388501D02*
X55048001Y-65348501D01*
%TO.C,F1*%
X55119001Y-50190001D02*
X55119001Y-52350001D01*
X55119001Y-52350001D02*
X50159001Y-52350001D01*
X50159001Y-52350001D02*
X50159001Y-50190001D01*
X50159001Y-50190001D02*
X55119001Y-50190001D01*
%TO.C,Q1*%
X58730001Y-67210001D02*
X58730001Y-63810001D01*
X58730001Y-63810001D02*
X62230001Y-63810001D01*
X62230001Y-63810001D02*
X62230001Y-67210001D01*
X62230001Y-67210001D02*
X58730001Y-67210001D01*
%TO.C,R1*%
X57024001Y-61341001D02*
X57024001Y-62281001D01*
X57024001Y-62281001D02*
X55164001Y-62281001D01*
X55164001Y-62281001D02*
X55164001Y-61341001D01*
X55164001Y-61341001D02*
X57024001Y-61341001D01*
%TO.C,R2*%
X61138001Y-56393001D02*
X60198001Y-56393001D01*
X60198001Y-56393001D02*
X60198001Y-54533001D01*
X60198001Y-54533001D02*
X61138001Y-54533001D01*
X61138001Y-54533001D02*
X61138001Y-56393001D01*
%TO.C,R3*%
X52882001Y-56185001D02*
X52882001Y-55245001D01*
X52882001Y-55245001D02*
X54742001Y-55245001D01*
X54742001Y-55245001D02*
X54742001Y-56185001D01*
X54742001Y-56185001D02*
X52882001Y-56185001D01*
%TO.C,R4*%
X53518001Y-65283001D02*
X52578001Y-65283001D01*
X52578001Y-65283001D02*
X52578001Y-63423001D01*
X52578001Y-63423001D02*
X53518001Y-63423001D01*
X53518001Y-63423001D02*
X53518001Y-65283001D01*
%TO.C,R5*%
X64838501Y-53340001D02*
X64838501Y-54280001D01*
X64838501Y-54280001D02*
X62978501Y-54280001D01*
X62978501Y-54280001D02*
X62978501Y-53340001D01*
X62978501Y-53340001D02*
X64838501Y-53340001D01*
%TO.C,U1*%
X61011001Y-60077001D02*
X64811001Y-60077001D01*
X64811001Y-60077001D02*
X64811001Y-63677001D01*
X64811001Y-63677001D02*
X61011001Y-63677001D01*
X61011001Y-63677001D02*
X61011001Y-60077001D01*
%TO.C,U2*%
X62906001Y-50226001D02*
X59106001Y-50226001D01*
X62906001Y-53826001D02*
X62906001Y-50226001D01*
X59106001Y-53826001D02*
X62906001Y-53826001D01*
X59106001Y-50226001D02*
X59106001Y-53826001D01*
%TO.C,U3*%
X59096001Y-50226001D02*
X55296001Y-50226001D01*
X59096001Y-53826001D02*
X59096001Y-50226001D01*
X55296001Y-53826001D02*
X59096001Y-53826001D01*
X55296001Y-50226001D02*
X55296001Y-53826001D01*
%TO.C,D3*%
X55270001Y-67660001D02*
X50570001Y-67660001D01*
X50570001Y-67660001D02*
X50570001Y-65360001D01*
X50570001Y-65360001D02*
X55270001Y-65360001D01*
X55270001Y-67660001D02*
X55270001Y-65360001D01*
%TO.C,D4*%
X67210001Y-67660001D02*
X62510001Y-67660001D01*
X62510001Y-67660001D02*
X62510001Y-65360001D01*
X62510001Y-65360001D02*
X67210001Y-65360001D01*
X67210001Y-67660001D02*
X67210001Y-65360001D01*
%TO.C,C1*%
X60844001Y-61720001D02*
X60844001Y-63680001D01*
X60844001Y-63680001D02*
X57444001Y-63680001D01*
X57444001Y-63680001D02*
X57444001Y-61720001D01*
X57444001Y-61720001D02*
X60844001Y-61720001D01*
%TO.C,C2*%
X61442001Y-56441001D02*
X61442001Y-54481001D01*
X61442001Y-54481001D02*
X64842001Y-54481001D01*
X64842001Y-54481001D02*
X64842001Y-56441001D01*
X64842001Y-56441001D02*
X61442001Y-56441001D01*
%TO.C,C3*%
X63303001Y-60002001D02*
X61843001Y-60002001D01*
X61843001Y-60002001D02*
X61843001Y-57042001D01*
X61843001Y-57042001D02*
X63303001Y-57042001D01*
X63303001Y-57042001D02*
X63303001Y-60002001D01*
%TO.C,C4*%
X64827001Y-60002001D02*
X63367001Y-60002001D01*
X63367001Y-60002001D02*
X63367001Y-57042001D01*
X63367001Y-57042001D02*
X64827001Y-57042001D01*
X64827001Y-57042001D02*
X64827001Y-60002001D01*
%TO.C,C5*%
X64446001Y-53207501D02*
X62986001Y-53207501D01*
X62986001Y-53207501D02*
X62986001Y-50247501D01*
X62986001Y-50247501D02*
X64446001Y-50247501D01*
X64446001Y-50247501D02*
X64446001Y-53207501D01*
%TO.C,R6*%
X64585001Y-51746001D02*
X64585001Y-50286001D01*
X64585001Y-50286001D02*
X67545001Y-50286001D01*
X67545001Y-50286001D02*
X67545001Y-51746001D01*
X67545001Y-51746001D02*
X64585001Y-51746001D01*
%TD*%
M02*
