%TF.GenerationSoftware,KiCad,Pcbnew,5.1.8*%
%TF.CreationDate,2020-11-30T01:30:04+01:00*%
%TF.ProjectId,panel2,70616e65-6c32-42e6-9b69-6361645f7063,rev?*%
%TF.SameCoordinates,Original*%
%TF.FileFunction,Copper,L2,Inr*%
%TF.FilePolarity,Positive*%
%FSLAX46Y46*%
G04 Gerber Fmt 4.6, Leading zero omitted, Abs format (unit mm)*
G04 Created by KiCad (PCBNEW 5.1.8) date 2020-11-30 01:30:04*
%MOMM*%
%LPD*%
G01*
G04 APERTURE LIST*
%TA.AperFunction,ViaPad*%
%ADD10C,1.270000*%
%TD*%
%TA.AperFunction,ViaPad*%
%ADD11C,0.635000*%
%TD*%
%TA.AperFunction,ViaPad*%
%ADD12C,0.450000*%
%TD*%
%TA.AperFunction,ViaPad*%
%ADD13C,0.762000*%
%TD*%
%TA.AperFunction,Conductor*%
%ADD14C,1.270000*%
%TD*%
%TA.AperFunction,Conductor*%
%ADD15C,0.317500*%
%TD*%
G04 APERTURE END LIST*
%TO.N,Board_16-/-BATT_RAW*%
%TO.C,TP1*%
%TA.AperFunction,ComponentPad*%
G36*
G01*
X112610016Y-116650016D02*
X112610016Y-115650016D01*
G75*
G02*
X113110016Y-115150016I500000J0D01*
G01*
X114110016Y-115150016D01*
G75*
G02*
X114610016Y-115650016I0J-500000D01*
G01*
X114610016Y-116650016D01*
G75*
G02*
X114110016Y-117150016I-500000J0D01*
G01*
X113110016Y-117150016D01*
G75*
G02*
X112610016Y-116650016I0J500000D01*
G01*
G37*
%TD.AperFunction*%
%TD*%
%TO.N,Board_16-/+BATT*%
%TO.C,TP2*%
%TA.AperFunction,ComponentPad*%
G36*
G01*
X112610016Y-119190016D02*
X112610016Y-118190016D01*
G75*
G02*
X113110016Y-117690016I500000J0D01*
G01*
X114110016Y-117690016D01*
G75*
G02*
X114610016Y-118190016I0J-500000D01*
G01*
X114610016Y-119190016D01*
G75*
G02*
X114110016Y-119690016I-500000J0D01*
G01*
X113110016Y-119690016D01*
G75*
G02*
X112610016Y-119190016I0J500000D01*
G01*
G37*
%TD.AperFunction*%
%TD*%
%TO.N,Board_16-GND*%
%TO.C,TP3*%
%TA.AperFunction,ComponentPad*%
G36*
G01*
X112610016Y-124270016D02*
X112610016Y-123270016D01*
G75*
G02*
X113110016Y-122770016I500000J0D01*
G01*
X114110016Y-122770016D01*
G75*
G02*
X114610016Y-123270016I0J-500000D01*
G01*
X114610016Y-124270016D01*
G75*
G02*
X114110016Y-124770016I-500000J0D01*
G01*
X113110016Y-124770016D01*
G75*
G02*
X112610016Y-124270016I0J500000D01*
G01*
G37*
%TD.AperFunction*%
%TD*%
%TO.N,Board_16-/+CHARGE*%
%TO.C,TP4*%
%TA.AperFunction,ComponentPad*%
G36*
G01*
X112610016Y-126810016D02*
X112610016Y-125810016D01*
G75*
G02*
X113110016Y-125310016I500000J0D01*
G01*
X114110016Y-125310016D01*
G75*
G02*
X114610016Y-125810016I0J-500000D01*
G01*
X114610016Y-126810016D01*
G75*
G02*
X114110016Y-127310016I-500000J0D01*
G01*
X113110016Y-127310016D01*
G75*
G02*
X112610016Y-126810016I0J500000D01*
G01*
G37*
%TD.AperFunction*%
%TD*%
%TO.N,Board_16-/3v3_EN*%
%TO.C,TP5*%
%TA.AperFunction,ComponentPad*%
G36*
G01*
X112610016Y-121730016D02*
X112610016Y-120730016D01*
G75*
G02*
X113110016Y-120230016I500000J0D01*
G01*
X114110016Y-120230016D01*
G75*
G02*
X114610016Y-120730016I0J-500000D01*
G01*
X114610016Y-121730016D01*
G75*
G02*
X114110016Y-122230016I-500000J0D01*
G01*
X113110016Y-122230016D01*
G75*
G02*
X112610016Y-121730016I0J500000D01*
G01*
G37*
%TD.AperFunction*%
%TD*%
%TO.N,Board_16-/VMAX*%
%TO.C,TP6*%
%TA.AperFunction,ComponentPad*%
G36*
G01*
X127850016Y-126810016D02*
X127850016Y-125810016D01*
G75*
G02*
X128350016Y-125310016I500000J0D01*
G01*
X129350016Y-125310016D01*
G75*
G02*
X129850016Y-125810016I0J-500000D01*
G01*
X129850016Y-126810016D01*
G75*
G02*
X129350016Y-127310016I-500000J0D01*
G01*
X128350016Y-127310016D01*
G75*
G02*
X127850016Y-126810016I0J500000D01*
G01*
G37*
%TD.AperFunction*%
%TD*%
%TO.N,Board_16-/+BATT*%
%TO.C,TP7*%
%TA.AperFunction,ComponentPad*%
G36*
G01*
X127850016Y-119190016D02*
X127850016Y-118190016D01*
G75*
G02*
X128350016Y-117690016I500000J0D01*
G01*
X129350016Y-117690016D01*
G75*
G02*
X129850016Y-118190016I0J-500000D01*
G01*
X129850016Y-119190016D01*
G75*
G02*
X129350016Y-119690016I-500000J0D01*
G01*
X128350016Y-119690016D01*
G75*
G02*
X127850016Y-119190016I0J500000D01*
G01*
G37*
%TD.AperFunction*%
%TD*%
%TO.N,Board_16-/+3v3*%
%TO.C,TP8*%
%TA.AperFunction,ComponentPad*%
G36*
G01*
X127850016Y-121730016D02*
X127850016Y-120730016D01*
G75*
G02*
X128350016Y-120230016I500000J0D01*
G01*
X129350016Y-120230016D01*
G75*
G02*
X129850016Y-120730016I0J-500000D01*
G01*
X129850016Y-121730016D01*
G75*
G02*
X129350016Y-122230016I-500000J0D01*
G01*
X128350016Y-122230016D01*
G75*
G02*
X127850016Y-121730016I0J500000D01*
G01*
G37*
%TD.AperFunction*%
%TD*%
%TO.N,Board_16-/STAT*%
%TO.C,TP9*%
%TA.AperFunction,ComponentPad*%
G36*
G01*
X127850016Y-124270016D02*
X127850016Y-123270016D01*
G75*
G02*
X128350016Y-122770016I500000J0D01*
G01*
X129350016Y-122770016D01*
G75*
G02*
X129850016Y-123270016I0J-500000D01*
G01*
X129850016Y-124270016D01*
G75*
G02*
X129350016Y-124770016I-500000J0D01*
G01*
X128350016Y-124770016D01*
G75*
G02*
X127850016Y-124270016I0J500000D01*
G01*
G37*
%TD.AperFunction*%
%TD*%
%TO.N,Board_16-GND*%
%TO.C,TP10*%
%TA.AperFunction,ComponentPad*%
G36*
G01*
X127850016Y-116650016D02*
X127850016Y-115650016D01*
G75*
G02*
X128350016Y-115150016I500000J0D01*
G01*
X129350016Y-115150016D01*
G75*
G02*
X129850016Y-115650016I0J-500000D01*
G01*
X129850016Y-116650016D01*
G75*
G02*
X129350016Y-117150016I-500000J0D01*
G01*
X128350016Y-117150016D01*
G75*
G02*
X127850016Y-116650016I0J500000D01*
G01*
G37*
%TD.AperFunction*%
%TD*%
%TO.N,Board_15-/-BATT_RAW*%
%TO.C,TP1*%
%TA.AperFunction,ComponentPad*%
G36*
G01*
X91830011Y-116650016D02*
X91830011Y-115650016D01*
G75*
G02*
X92330011Y-115150016I500000J0D01*
G01*
X93330011Y-115150016D01*
G75*
G02*
X93830011Y-115650016I0J-500000D01*
G01*
X93830011Y-116650016D01*
G75*
G02*
X93330011Y-117150016I-500000J0D01*
G01*
X92330011Y-117150016D01*
G75*
G02*
X91830011Y-116650016I0J500000D01*
G01*
G37*
%TD.AperFunction*%
%TD*%
%TO.N,Board_15-/+BATT*%
%TO.C,TP2*%
%TA.AperFunction,ComponentPad*%
G36*
G01*
X91830011Y-119190016D02*
X91830011Y-118190016D01*
G75*
G02*
X92330011Y-117690016I500000J0D01*
G01*
X93330011Y-117690016D01*
G75*
G02*
X93830011Y-118190016I0J-500000D01*
G01*
X93830011Y-119190016D01*
G75*
G02*
X93330011Y-119690016I-500000J0D01*
G01*
X92330011Y-119690016D01*
G75*
G02*
X91830011Y-119190016I0J500000D01*
G01*
G37*
%TD.AperFunction*%
%TD*%
%TO.N,Board_15-GND*%
%TO.C,TP3*%
%TA.AperFunction,ComponentPad*%
G36*
G01*
X91830011Y-124270016D02*
X91830011Y-123270016D01*
G75*
G02*
X92330011Y-122770016I500000J0D01*
G01*
X93330011Y-122770016D01*
G75*
G02*
X93830011Y-123270016I0J-500000D01*
G01*
X93830011Y-124270016D01*
G75*
G02*
X93330011Y-124770016I-500000J0D01*
G01*
X92330011Y-124770016D01*
G75*
G02*
X91830011Y-124270016I0J500000D01*
G01*
G37*
%TD.AperFunction*%
%TD*%
%TO.N,Board_15-/+CHARGE*%
%TO.C,TP4*%
%TA.AperFunction,ComponentPad*%
G36*
G01*
X91830011Y-126810016D02*
X91830011Y-125810016D01*
G75*
G02*
X92330011Y-125310016I500000J0D01*
G01*
X93330011Y-125310016D01*
G75*
G02*
X93830011Y-125810016I0J-500000D01*
G01*
X93830011Y-126810016D01*
G75*
G02*
X93330011Y-127310016I-500000J0D01*
G01*
X92330011Y-127310016D01*
G75*
G02*
X91830011Y-126810016I0J500000D01*
G01*
G37*
%TD.AperFunction*%
%TD*%
%TO.N,Board_15-/3v3_EN*%
%TO.C,TP5*%
%TA.AperFunction,ComponentPad*%
G36*
G01*
X91830011Y-121730016D02*
X91830011Y-120730016D01*
G75*
G02*
X92330011Y-120230016I500000J0D01*
G01*
X93330011Y-120230016D01*
G75*
G02*
X93830011Y-120730016I0J-500000D01*
G01*
X93830011Y-121730016D01*
G75*
G02*
X93330011Y-122230016I-500000J0D01*
G01*
X92330011Y-122230016D01*
G75*
G02*
X91830011Y-121730016I0J500000D01*
G01*
G37*
%TD.AperFunction*%
%TD*%
%TO.N,Board_15-/VMAX*%
%TO.C,TP6*%
%TA.AperFunction,ComponentPad*%
G36*
G01*
X107070011Y-126810016D02*
X107070011Y-125810016D01*
G75*
G02*
X107570011Y-125310016I500000J0D01*
G01*
X108570011Y-125310016D01*
G75*
G02*
X109070011Y-125810016I0J-500000D01*
G01*
X109070011Y-126810016D01*
G75*
G02*
X108570011Y-127310016I-500000J0D01*
G01*
X107570011Y-127310016D01*
G75*
G02*
X107070011Y-126810016I0J500000D01*
G01*
G37*
%TD.AperFunction*%
%TD*%
%TO.N,Board_15-/+BATT*%
%TO.C,TP7*%
%TA.AperFunction,ComponentPad*%
G36*
G01*
X107070011Y-119190016D02*
X107070011Y-118190016D01*
G75*
G02*
X107570011Y-117690016I500000J0D01*
G01*
X108570011Y-117690016D01*
G75*
G02*
X109070011Y-118190016I0J-500000D01*
G01*
X109070011Y-119190016D01*
G75*
G02*
X108570011Y-119690016I-500000J0D01*
G01*
X107570011Y-119690016D01*
G75*
G02*
X107070011Y-119190016I0J500000D01*
G01*
G37*
%TD.AperFunction*%
%TD*%
%TO.N,Board_15-/+3v3*%
%TO.C,TP8*%
%TA.AperFunction,ComponentPad*%
G36*
G01*
X107070011Y-121730016D02*
X107070011Y-120730016D01*
G75*
G02*
X107570011Y-120230016I500000J0D01*
G01*
X108570011Y-120230016D01*
G75*
G02*
X109070011Y-120730016I0J-500000D01*
G01*
X109070011Y-121730016D01*
G75*
G02*
X108570011Y-122230016I-500000J0D01*
G01*
X107570011Y-122230016D01*
G75*
G02*
X107070011Y-121730016I0J500000D01*
G01*
G37*
%TD.AperFunction*%
%TD*%
%TO.N,Board_15-/STAT*%
%TO.C,TP9*%
%TA.AperFunction,ComponentPad*%
G36*
G01*
X107070011Y-124270016D02*
X107070011Y-123270016D01*
G75*
G02*
X107570011Y-122770016I500000J0D01*
G01*
X108570011Y-122770016D01*
G75*
G02*
X109070011Y-123270016I0J-500000D01*
G01*
X109070011Y-124270016D01*
G75*
G02*
X108570011Y-124770016I-500000J0D01*
G01*
X107570011Y-124770016D01*
G75*
G02*
X107070011Y-124270016I0J500000D01*
G01*
G37*
%TD.AperFunction*%
%TD*%
%TO.N,Board_15-GND*%
%TO.C,TP10*%
%TA.AperFunction,ComponentPad*%
G36*
G01*
X107070011Y-116650016D02*
X107070011Y-115650016D01*
G75*
G02*
X107570011Y-115150016I500000J0D01*
G01*
X108570011Y-115150016D01*
G75*
G02*
X109070011Y-115650016I0J-500000D01*
G01*
X109070011Y-116650016D01*
G75*
G02*
X108570011Y-117150016I-500000J0D01*
G01*
X107570011Y-117150016D01*
G75*
G02*
X107070011Y-116650016I0J500000D01*
G01*
G37*
%TD.AperFunction*%
%TD*%
%TO.N,Board_14-/-BATT_RAW*%
%TO.C,TP1*%
%TA.AperFunction,ComponentPad*%
G36*
G01*
X71050006Y-116650016D02*
X71050006Y-115650016D01*
G75*
G02*
X71550006Y-115150016I500000J0D01*
G01*
X72550006Y-115150016D01*
G75*
G02*
X73050006Y-115650016I0J-500000D01*
G01*
X73050006Y-116650016D01*
G75*
G02*
X72550006Y-117150016I-500000J0D01*
G01*
X71550006Y-117150016D01*
G75*
G02*
X71050006Y-116650016I0J500000D01*
G01*
G37*
%TD.AperFunction*%
%TD*%
%TO.N,Board_14-/+BATT*%
%TO.C,TP2*%
%TA.AperFunction,ComponentPad*%
G36*
G01*
X71050006Y-119190016D02*
X71050006Y-118190016D01*
G75*
G02*
X71550006Y-117690016I500000J0D01*
G01*
X72550006Y-117690016D01*
G75*
G02*
X73050006Y-118190016I0J-500000D01*
G01*
X73050006Y-119190016D01*
G75*
G02*
X72550006Y-119690016I-500000J0D01*
G01*
X71550006Y-119690016D01*
G75*
G02*
X71050006Y-119190016I0J500000D01*
G01*
G37*
%TD.AperFunction*%
%TD*%
%TO.N,Board_14-GND*%
%TO.C,TP3*%
%TA.AperFunction,ComponentPad*%
G36*
G01*
X71050006Y-124270016D02*
X71050006Y-123270016D01*
G75*
G02*
X71550006Y-122770016I500000J0D01*
G01*
X72550006Y-122770016D01*
G75*
G02*
X73050006Y-123270016I0J-500000D01*
G01*
X73050006Y-124270016D01*
G75*
G02*
X72550006Y-124770016I-500000J0D01*
G01*
X71550006Y-124770016D01*
G75*
G02*
X71050006Y-124270016I0J500000D01*
G01*
G37*
%TD.AperFunction*%
%TD*%
%TO.N,Board_14-/+CHARGE*%
%TO.C,TP4*%
%TA.AperFunction,ComponentPad*%
G36*
G01*
X71050006Y-126810016D02*
X71050006Y-125810016D01*
G75*
G02*
X71550006Y-125310016I500000J0D01*
G01*
X72550006Y-125310016D01*
G75*
G02*
X73050006Y-125810016I0J-500000D01*
G01*
X73050006Y-126810016D01*
G75*
G02*
X72550006Y-127310016I-500000J0D01*
G01*
X71550006Y-127310016D01*
G75*
G02*
X71050006Y-126810016I0J500000D01*
G01*
G37*
%TD.AperFunction*%
%TD*%
%TO.N,Board_14-/3v3_EN*%
%TO.C,TP5*%
%TA.AperFunction,ComponentPad*%
G36*
G01*
X71050006Y-121730016D02*
X71050006Y-120730016D01*
G75*
G02*
X71550006Y-120230016I500000J0D01*
G01*
X72550006Y-120230016D01*
G75*
G02*
X73050006Y-120730016I0J-500000D01*
G01*
X73050006Y-121730016D01*
G75*
G02*
X72550006Y-122230016I-500000J0D01*
G01*
X71550006Y-122230016D01*
G75*
G02*
X71050006Y-121730016I0J500000D01*
G01*
G37*
%TD.AperFunction*%
%TD*%
%TO.N,Board_14-/VMAX*%
%TO.C,TP6*%
%TA.AperFunction,ComponentPad*%
G36*
G01*
X86290006Y-126810016D02*
X86290006Y-125810016D01*
G75*
G02*
X86790006Y-125310016I500000J0D01*
G01*
X87790006Y-125310016D01*
G75*
G02*
X88290006Y-125810016I0J-500000D01*
G01*
X88290006Y-126810016D01*
G75*
G02*
X87790006Y-127310016I-500000J0D01*
G01*
X86790006Y-127310016D01*
G75*
G02*
X86290006Y-126810016I0J500000D01*
G01*
G37*
%TD.AperFunction*%
%TD*%
%TO.N,Board_14-/+BATT*%
%TO.C,TP7*%
%TA.AperFunction,ComponentPad*%
G36*
G01*
X86290006Y-119190016D02*
X86290006Y-118190016D01*
G75*
G02*
X86790006Y-117690016I500000J0D01*
G01*
X87790006Y-117690016D01*
G75*
G02*
X88290006Y-118190016I0J-500000D01*
G01*
X88290006Y-119190016D01*
G75*
G02*
X87790006Y-119690016I-500000J0D01*
G01*
X86790006Y-119690016D01*
G75*
G02*
X86290006Y-119190016I0J500000D01*
G01*
G37*
%TD.AperFunction*%
%TD*%
%TO.N,Board_14-/+3v3*%
%TO.C,TP8*%
%TA.AperFunction,ComponentPad*%
G36*
G01*
X86290006Y-121730016D02*
X86290006Y-120730016D01*
G75*
G02*
X86790006Y-120230016I500000J0D01*
G01*
X87790006Y-120230016D01*
G75*
G02*
X88290006Y-120730016I0J-500000D01*
G01*
X88290006Y-121730016D01*
G75*
G02*
X87790006Y-122230016I-500000J0D01*
G01*
X86790006Y-122230016D01*
G75*
G02*
X86290006Y-121730016I0J500000D01*
G01*
G37*
%TD.AperFunction*%
%TD*%
%TO.N,Board_14-/STAT*%
%TO.C,TP9*%
%TA.AperFunction,ComponentPad*%
G36*
G01*
X86290006Y-124270016D02*
X86290006Y-123270016D01*
G75*
G02*
X86790006Y-122770016I500000J0D01*
G01*
X87790006Y-122770016D01*
G75*
G02*
X88290006Y-123270016I0J-500000D01*
G01*
X88290006Y-124270016D01*
G75*
G02*
X87790006Y-124770016I-500000J0D01*
G01*
X86790006Y-124770016D01*
G75*
G02*
X86290006Y-124270016I0J500000D01*
G01*
G37*
%TD.AperFunction*%
%TD*%
%TO.N,Board_14-GND*%
%TO.C,TP10*%
%TA.AperFunction,ComponentPad*%
G36*
G01*
X86290006Y-116650016D02*
X86290006Y-115650016D01*
G75*
G02*
X86790006Y-115150016I500000J0D01*
G01*
X87790006Y-115150016D01*
G75*
G02*
X88290006Y-115650016I0J-500000D01*
G01*
X88290006Y-116650016D01*
G75*
G02*
X87790006Y-117150016I-500000J0D01*
G01*
X86790006Y-117150016D01*
G75*
G02*
X86290006Y-116650016I0J500000D01*
G01*
G37*
%TD.AperFunction*%
%TD*%
%TO.N,Board_13-/-BATT_RAW*%
%TO.C,TP1*%
%TA.AperFunction,ComponentPad*%
G36*
G01*
X50270001Y-116650016D02*
X50270001Y-115650016D01*
G75*
G02*
X50770001Y-115150016I500000J0D01*
G01*
X51770001Y-115150016D01*
G75*
G02*
X52270001Y-115650016I0J-500000D01*
G01*
X52270001Y-116650016D01*
G75*
G02*
X51770001Y-117150016I-500000J0D01*
G01*
X50770001Y-117150016D01*
G75*
G02*
X50270001Y-116650016I0J500000D01*
G01*
G37*
%TD.AperFunction*%
%TD*%
%TO.N,Board_13-/+BATT*%
%TO.C,TP2*%
%TA.AperFunction,ComponentPad*%
G36*
G01*
X50270001Y-119190016D02*
X50270001Y-118190016D01*
G75*
G02*
X50770001Y-117690016I500000J0D01*
G01*
X51770001Y-117690016D01*
G75*
G02*
X52270001Y-118190016I0J-500000D01*
G01*
X52270001Y-119190016D01*
G75*
G02*
X51770001Y-119690016I-500000J0D01*
G01*
X50770001Y-119690016D01*
G75*
G02*
X50270001Y-119190016I0J500000D01*
G01*
G37*
%TD.AperFunction*%
%TD*%
%TO.N,Board_13-GND*%
%TO.C,TP3*%
%TA.AperFunction,ComponentPad*%
G36*
G01*
X50270001Y-124270016D02*
X50270001Y-123270016D01*
G75*
G02*
X50770001Y-122770016I500000J0D01*
G01*
X51770001Y-122770016D01*
G75*
G02*
X52270001Y-123270016I0J-500000D01*
G01*
X52270001Y-124270016D01*
G75*
G02*
X51770001Y-124770016I-500000J0D01*
G01*
X50770001Y-124770016D01*
G75*
G02*
X50270001Y-124270016I0J500000D01*
G01*
G37*
%TD.AperFunction*%
%TD*%
%TO.N,Board_13-/+CHARGE*%
%TO.C,TP4*%
%TA.AperFunction,ComponentPad*%
G36*
G01*
X50270001Y-126810016D02*
X50270001Y-125810016D01*
G75*
G02*
X50770001Y-125310016I500000J0D01*
G01*
X51770001Y-125310016D01*
G75*
G02*
X52270001Y-125810016I0J-500000D01*
G01*
X52270001Y-126810016D01*
G75*
G02*
X51770001Y-127310016I-500000J0D01*
G01*
X50770001Y-127310016D01*
G75*
G02*
X50270001Y-126810016I0J500000D01*
G01*
G37*
%TD.AperFunction*%
%TD*%
%TO.N,Board_13-/3v3_EN*%
%TO.C,TP5*%
%TA.AperFunction,ComponentPad*%
G36*
G01*
X50270001Y-121730016D02*
X50270001Y-120730016D01*
G75*
G02*
X50770001Y-120230016I500000J0D01*
G01*
X51770001Y-120230016D01*
G75*
G02*
X52270001Y-120730016I0J-500000D01*
G01*
X52270001Y-121730016D01*
G75*
G02*
X51770001Y-122230016I-500000J0D01*
G01*
X50770001Y-122230016D01*
G75*
G02*
X50270001Y-121730016I0J500000D01*
G01*
G37*
%TD.AperFunction*%
%TD*%
%TO.N,Board_13-/VMAX*%
%TO.C,TP6*%
%TA.AperFunction,ComponentPad*%
G36*
G01*
X65510001Y-126810016D02*
X65510001Y-125810016D01*
G75*
G02*
X66010001Y-125310016I500000J0D01*
G01*
X67010001Y-125310016D01*
G75*
G02*
X67510001Y-125810016I0J-500000D01*
G01*
X67510001Y-126810016D01*
G75*
G02*
X67010001Y-127310016I-500000J0D01*
G01*
X66010001Y-127310016D01*
G75*
G02*
X65510001Y-126810016I0J500000D01*
G01*
G37*
%TD.AperFunction*%
%TD*%
%TO.N,Board_13-/+BATT*%
%TO.C,TP7*%
%TA.AperFunction,ComponentPad*%
G36*
G01*
X65510001Y-119190016D02*
X65510001Y-118190016D01*
G75*
G02*
X66010001Y-117690016I500000J0D01*
G01*
X67010001Y-117690016D01*
G75*
G02*
X67510001Y-118190016I0J-500000D01*
G01*
X67510001Y-119190016D01*
G75*
G02*
X67010001Y-119690016I-500000J0D01*
G01*
X66010001Y-119690016D01*
G75*
G02*
X65510001Y-119190016I0J500000D01*
G01*
G37*
%TD.AperFunction*%
%TD*%
%TO.N,Board_13-/+3v3*%
%TO.C,TP8*%
%TA.AperFunction,ComponentPad*%
G36*
G01*
X65510001Y-121730016D02*
X65510001Y-120730016D01*
G75*
G02*
X66010001Y-120230016I500000J0D01*
G01*
X67010001Y-120230016D01*
G75*
G02*
X67510001Y-120730016I0J-500000D01*
G01*
X67510001Y-121730016D01*
G75*
G02*
X67010001Y-122230016I-500000J0D01*
G01*
X66010001Y-122230016D01*
G75*
G02*
X65510001Y-121730016I0J500000D01*
G01*
G37*
%TD.AperFunction*%
%TD*%
%TO.N,Board_13-/STAT*%
%TO.C,TP9*%
%TA.AperFunction,ComponentPad*%
G36*
G01*
X65510001Y-124270016D02*
X65510001Y-123270016D01*
G75*
G02*
X66010001Y-122770016I500000J0D01*
G01*
X67010001Y-122770016D01*
G75*
G02*
X67510001Y-123270016I0J-500000D01*
G01*
X67510001Y-124270016D01*
G75*
G02*
X67010001Y-124770016I-500000J0D01*
G01*
X66010001Y-124770016D01*
G75*
G02*
X65510001Y-124270016I0J500000D01*
G01*
G37*
%TD.AperFunction*%
%TD*%
%TO.N,Board_13-GND*%
%TO.C,TP10*%
%TA.AperFunction,ComponentPad*%
G36*
G01*
X65510001Y-116650016D02*
X65510001Y-115650016D01*
G75*
G02*
X66010001Y-115150016I500000J0D01*
G01*
X67010001Y-115150016D01*
G75*
G02*
X67510001Y-115650016I0J-500000D01*
G01*
X67510001Y-116650016D01*
G75*
G02*
X67010001Y-117150016I-500000J0D01*
G01*
X66010001Y-117150016D01*
G75*
G02*
X65510001Y-116650016I0J500000D01*
G01*
G37*
%TD.AperFunction*%
%TD*%
%TO.N,Board_12-/-BATT_RAW*%
%TO.C,TP1*%
%TA.AperFunction,ComponentPad*%
G36*
G01*
X112610016Y-95870011D02*
X112610016Y-94870011D01*
G75*
G02*
X113110016Y-94370011I500000J0D01*
G01*
X114110016Y-94370011D01*
G75*
G02*
X114610016Y-94870011I0J-500000D01*
G01*
X114610016Y-95870011D01*
G75*
G02*
X114110016Y-96370011I-500000J0D01*
G01*
X113110016Y-96370011D01*
G75*
G02*
X112610016Y-95870011I0J500000D01*
G01*
G37*
%TD.AperFunction*%
%TD*%
%TO.N,Board_12-/+BATT*%
%TO.C,TP2*%
%TA.AperFunction,ComponentPad*%
G36*
G01*
X112610016Y-98410011D02*
X112610016Y-97410011D01*
G75*
G02*
X113110016Y-96910011I500000J0D01*
G01*
X114110016Y-96910011D01*
G75*
G02*
X114610016Y-97410011I0J-500000D01*
G01*
X114610016Y-98410011D01*
G75*
G02*
X114110016Y-98910011I-500000J0D01*
G01*
X113110016Y-98910011D01*
G75*
G02*
X112610016Y-98410011I0J500000D01*
G01*
G37*
%TD.AperFunction*%
%TD*%
%TO.N,Board_12-GND*%
%TO.C,TP3*%
%TA.AperFunction,ComponentPad*%
G36*
G01*
X112610016Y-103490011D02*
X112610016Y-102490011D01*
G75*
G02*
X113110016Y-101990011I500000J0D01*
G01*
X114110016Y-101990011D01*
G75*
G02*
X114610016Y-102490011I0J-500000D01*
G01*
X114610016Y-103490011D01*
G75*
G02*
X114110016Y-103990011I-500000J0D01*
G01*
X113110016Y-103990011D01*
G75*
G02*
X112610016Y-103490011I0J500000D01*
G01*
G37*
%TD.AperFunction*%
%TD*%
%TO.N,Board_12-/+CHARGE*%
%TO.C,TP4*%
%TA.AperFunction,ComponentPad*%
G36*
G01*
X112610016Y-106030011D02*
X112610016Y-105030011D01*
G75*
G02*
X113110016Y-104530011I500000J0D01*
G01*
X114110016Y-104530011D01*
G75*
G02*
X114610016Y-105030011I0J-500000D01*
G01*
X114610016Y-106030011D01*
G75*
G02*
X114110016Y-106530011I-500000J0D01*
G01*
X113110016Y-106530011D01*
G75*
G02*
X112610016Y-106030011I0J500000D01*
G01*
G37*
%TD.AperFunction*%
%TD*%
%TO.N,Board_12-/3v3_EN*%
%TO.C,TP5*%
%TA.AperFunction,ComponentPad*%
G36*
G01*
X112610016Y-100950011D02*
X112610016Y-99950011D01*
G75*
G02*
X113110016Y-99450011I500000J0D01*
G01*
X114110016Y-99450011D01*
G75*
G02*
X114610016Y-99950011I0J-500000D01*
G01*
X114610016Y-100950011D01*
G75*
G02*
X114110016Y-101450011I-500000J0D01*
G01*
X113110016Y-101450011D01*
G75*
G02*
X112610016Y-100950011I0J500000D01*
G01*
G37*
%TD.AperFunction*%
%TD*%
%TO.N,Board_12-/VMAX*%
%TO.C,TP6*%
%TA.AperFunction,ComponentPad*%
G36*
G01*
X127850016Y-106030011D02*
X127850016Y-105030011D01*
G75*
G02*
X128350016Y-104530011I500000J0D01*
G01*
X129350016Y-104530011D01*
G75*
G02*
X129850016Y-105030011I0J-500000D01*
G01*
X129850016Y-106030011D01*
G75*
G02*
X129350016Y-106530011I-500000J0D01*
G01*
X128350016Y-106530011D01*
G75*
G02*
X127850016Y-106030011I0J500000D01*
G01*
G37*
%TD.AperFunction*%
%TD*%
%TO.N,Board_12-/+BATT*%
%TO.C,TP7*%
%TA.AperFunction,ComponentPad*%
G36*
G01*
X127850016Y-98410011D02*
X127850016Y-97410011D01*
G75*
G02*
X128350016Y-96910011I500000J0D01*
G01*
X129350016Y-96910011D01*
G75*
G02*
X129850016Y-97410011I0J-500000D01*
G01*
X129850016Y-98410011D01*
G75*
G02*
X129350016Y-98910011I-500000J0D01*
G01*
X128350016Y-98910011D01*
G75*
G02*
X127850016Y-98410011I0J500000D01*
G01*
G37*
%TD.AperFunction*%
%TD*%
%TO.N,Board_12-/+3v3*%
%TO.C,TP8*%
%TA.AperFunction,ComponentPad*%
G36*
G01*
X127850016Y-100950011D02*
X127850016Y-99950011D01*
G75*
G02*
X128350016Y-99450011I500000J0D01*
G01*
X129350016Y-99450011D01*
G75*
G02*
X129850016Y-99950011I0J-500000D01*
G01*
X129850016Y-100950011D01*
G75*
G02*
X129350016Y-101450011I-500000J0D01*
G01*
X128350016Y-101450011D01*
G75*
G02*
X127850016Y-100950011I0J500000D01*
G01*
G37*
%TD.AperFunction*%
%TD*%
%TO.N,Board_12-/STAT*%
%TO.C,TP9*%
%TA.AperFunction,ComponentPad*%
G36*
G01*
X127850016Y-103490011D02*
X127850016Y-102490011D01*
G75*
G02*
X128350016Y-101990011I500000J0D01*
G01*
X129350016Y-101990011D01*
G75*
G02*
X129850016Y-102490011I0J-500000D01*
G01*
X129850016Y-103490011D01*
G75*
G02*
X129350016Y-103990011I-500000J0D01*
G01*
X128350016Y-103990011D01*
G75*
G02*
X127850016Y-103490011I0J500000D01*
G01*
G37*
%TD.AperFunction*%
%TD*%
%TO.N,Board_12-GND*%
%TO.C,TP10*%
%TA.AperFunction,ComponentPad*%
G36*
G01*
X127850016Y-95870011D02*
X127850016Y-94870011D01*
G75*
G02*
X128350016Y-94370011I500000J0D01*
G01*
X129350016Y-94370011D01*
G75*
G02*
X129850016Y-94870011I0J-500000D01*
G01*
X129850016Y-95870011D01*
G75*
G02*
X129350016Y-96370011I-500000J0D01*
G01*
X128350016Y-96370011D01*
G75*
G02*
X127850016Y-95870011I0J500000D01*
G01*
G37*
%TD.AperFunction*%
%TD*%
%TO.N,Board_11-/-BATT_RAW*%
%TO.C,TP1*%
%TA.AperFunction,ComponentPad*%
G36*
G01*
X91830011Y-95870011D02*
X91830011Y-94870011D01*
G75*
G02*
X92330011Y-94370011I500000J0D01*
G01*
X93330011Y-94370011D01*
G75*
G02*
X93830011Y-94870011I0J-500000D01*
G01*
X93830011Y-95870011D01*
G75*
G02*
X93330011Y-96370011I-500000J0D01*
G01*
X92330011Y-96370011D01*
G75*
G02*
X91830011Y-95870011I0J500000D01*
G01*
G37*
%TD.AperFunction*%
%TD*%
%TO.N,Board_11-/+BATT*%
%TO.C,TP2*%
%TA.AperFunction,ComponentPad*%
G36*
G01*
X91830011Y-98410011D02*
X91830011Y-97410011D01*
G75*
G02*
X92330011Y-96910011I500000J0D01*
G01*
X93330011Y-96910011D01*
G75*
G02*
X93830011Y-97410011I0J-500000D01*
G01*
X93830011Y-98410011D01*
G75*
G02*
X93330011Y-98910011I-500000J0D01*
G01*
X92330011Y-98910011D01*
G75*
G02*
X91830011Y-98410011I0J500000D01*
G01*
G37*
%TD.AperFunction*%
%TD*%
%TO.N,Board_11-GND*%
%TO.C,TP3*%
%TA.AperFunction,ComponentPad*%
G36*
G01*
X91830011Y-103490011D02*
X91830011Y-102490011D01*
G75*
G02*
X92330011Y-101990011I500000J0D01*
G01*
X93330011Y-101990011D01*
G75*
G02*
X93830011Y-102490011I0J-500000D01*
G01*
X93830011Y-103490011D01*
G75*
G02*
X93330011Y-103990011I-500000J0D01*
G01*
X92330011Y-103990011D01*
G75*
G02*
X91830011Y-103490011I0J500000D01*
G01*
G37*
%TD.AperFunction*%
%TD*%
%TO.N,Board_11-/+CHARGE*%
%TO.C,TP4*%
%TA.AperFunction,ComponentPad*%
G36*
G01*
X91830011Y-106030011D02*
X91830011Y-105030011D01*
G75*
G02*
X92330011Y-104530011I500000J0D01*
G01*
X93330011Y-104530011D01*
G75*
G02*
X93830011Y-105030011I0J-500000D01*
G01*
X93830011Y-106030011D01*
G75*
G02*
X93330011Y-106530011I-500000J0D01*
G01*
X92330011Y-106530011D01*
G75*
G02*
X91830011Y-106030011I0J500000D01*
G01*
G37*
%TD.AperFunction*%
%TD*%
%TO.N,Board_11-/3v3_EN*%
%TO.C,TP5*%
%TA.AperFunction,ComponentPad*%
G36*
G01*
X91830011Y-100950011D02*
X91830011Y-99950011D01*
G75*
G02*
X92330011Y-99450011I500000J0D01*
G01*
X93330011Y-99450011D01*
G75*
G02*
X93830011Y-99950011I0J-500000D01*
G01*
X93830011Y-100950011D01*
G75*
G02*
X93330011Y-101450011I-500000J0D01*
G01*
X92330011Y-101450011D01*
G75*
G02*
X91830011Y-100950011I0J500000D01*
G01*
G37*
%TD.AperFunction*%
%TD*%
%TO.N,Board_11-/VMAX*%
%TO.C,TP6*%
%TA.AperFunction,ComponentPad*%
G36*
G01*
X107070011Y-106030011D02*
X107070011Y-105030011D01*
G75*
G02*
X107570011Y-104530011I500000J0D01*
G01*
X108570011Y-104530011D01*
G75*
G02*
X109070011Y-105030011I0J-500000D01*
G01*
X109070011Y-106030011D01*
G75*
G02*
X108570011Y-106530011I-500000J0D01*
G01*
X107570011Y-106530011D01*
G75*
G02*
X107070011Y-106030011I0J500000D01*
G01*
G37*
%TD.AperFunction*%
%TD*%
%TO.N,Board_11-/+BATT*%
%TO.C,TP7*%
%TA.AperFunction,ComponentPad*%
G36*
G01*
X107070011Y-98410011D02*
X107070011Y-97410011D01*
G75*
G02*
X107570011Y-96910011I500000J0D01*
G01*
X108570011Y-96910011D01*
G75*
G02*
X109070011Y-97410011I0J-500000D01*
G01*
X109070011Y-98410011D01*
G75*
G02*
X108570011Y-98910011I-500000J0D01*
G01*
X107570011Y-98910011D01*
G75*
G02*
X107070011Y-98410011I0J500000D01*
G01*
G37*
%TD.AperFunction*%
%TD*%
%TO.N,Board_11-/+3v3*%
%TO.C,TP8*%
%TA.AperFunction,ComponentPad*%
G36*
G01*
X107070011Y-100950011D02*
X107070011Y-99950011D01*
G75*
G02*
X107570011Y-99450011I500000J0D01*
G01*
X108570011Y-99450011D01*
G75*
G02*
X109070011Y-99950011I0J-500000D01*
G01*
X109070011Y-100950011D01*
G75*
G02*
X108570011Y-101450011I-500000J0D01*
G01*
X107570011Y-101450011D01*
G75*
G02*
X107070011Y-100950011I0J500000D01*
G01*
G37*
%TD.AperFunction*%
%TD*%
%TO.N,Board_11-/STAT*%
%TO.C,TP9*%
%TA.AperFunction,ComponentPad*%
G36*
G01*
X107070011Y-103490011D02*
X107070011Y-102490011D01*
G75*
G02*
X107570011Y-101990011I500000J0D01*
G01*
X108570011Y-101990011D01*
G75*
G02*
X109070011Y-102490011I0J-500000D01*
G01*
X109070011Y-103490011D01*
G75*
G02*
X108570011Y-103990011I-500000J0D01*
G01*
X107570011Y-103990011D01*
G75*
G02*
X107070011Y-103490011I0J500000D01*
G01*
G37*
%TD.AperFunction*%
%TD*%
%TO.N,Board_11-GND*%
%TO.C,TP10*%
%TA.AperFunction,ComponentPad*%
G36*
G01*
X107070011Y-95870011D02*
X107070011Y-94870011D01*
G75*
G02*
X107570011Y-94370011I500000J0D01*
G01*
X108570011Y-94370011D01*
G75*
G02*
X109070011Y-94870011I0J-500000D01*
G01*
X109070011Y-95870011D01*
G75*
G02*
X108570011Y-96370011I-500000J0D01*
G01*
X107570011Y-96370011D01*
G75*
G02*
X107070011Y-95870011I0J500000D01*
G01*
G37*
%TD.AperFunction*%
%TD*%
%TO.N,Board_10-/-BATT_RAW*%
%TO.C,TP1*%
%TA.AperFunction,ComponentPad*%
G36*
G01*
X71050006Y-95870011D02*
X71050006Y-94870011D01*
G75*
G02*
X71550006Y-94370011I500000J0D01*
G01*
X72550006Y-94370011D01*
G75*
G02*
X73050006Y-94870011I0J-500000D01*
G01*
X73050006Y-95870011D01*
G75*
G02*
X72550006Y-96370011I-500000J0D01*
G01*
X71550006Y-96370011D01*
G75*
G02*
X71050006Y-95870011I0J500000D01*
G01*
G37*
%TD.AperFunction*%
%TD*%
%TO.N,Board_10-/+BATT*%
%TO.C,TP2*%
%TA.AperFunction,ComponentPad*%
G36*
G01*
X71050006Y-98410011D02*
X71050006Y-97410011D01*
G75*
G02*
X71550006Y-96910011I500000J0D01*
G01*
X72550006Y-96910011D01*
G75*
G02*
X73050006Y-97410011I0J-500000D01*
G01*
X73050006Y-98410011D01*
G75*
G02*
X72550006Y-98910011I-500000J0D01*
G01*
X71550006Y-98910011D01*
G75*
G02*
X71050006Y-98410011I0J500000D01*
G01*
G37*
%TD.AperFunction*%
%TD*%
%TO.N,Board_10-GND*%
%TO.C,TP3*%
%TA.AperFunction,ComponentPad*%
G36*
G01*
X71050006Y-103490011D02*
X71050006Y-102490011D01*
G75*
G02*
X71550006Y-101990011I500000J0D01*
G01*
X72550006Y-101990011D01*
G75*
G02*
X73050006Y-102490011I0J-500000D01*
G01*
X73050006Y-103490011D01*
G75*
G02*
X72550006Y-103990011I-500000J0D01*
G01*
X71550006Y-103990011D01*
G75*
G02*
X71050006Y-103490011I0J500000D01*
G01*
G37*
%TD.AperFunction*%
%TD*%
%TO.N,Board_10-/+CHARGE*%
%TO.C,TP4*%
%TA.AperFunction,ComponentPad*%
G36*
G01*
X71050006Y-106030011D02*
X71050006Y-105030011D01*
G75*
G02*
X71550006Y-104530011I500000J0D01*
G01*
X72550006Y-104530011D01*
G75*
G02*
X73050006Y-105030011I0J-500000D01*
G01*
X73050006Y-106030011D01*
G75*
G02*
X72550006Y-106530011I-500000J0D01*
G01*
X71550006Y-106530011D01*
G75*
G02*
X71050006Y-106030011I0J500000D01*
G01*
G37*
%TD.AperFunction*%
%TD*%
%TO.N,Board_10-/3v3_EN*%
%TO.C,TP5*%
%TA.AperFunction,ComponentPad*%
G36*
G01*
X71050006Y-100950011D02*
X71050006Y-99950011D01*
G75*
G02*
X71550006Y-99450011I500000J0D01*
G01*
X72550006Y-99450011D01*
G75*
G02*
X73050006Y-99950011I0J-500000D01*
G01*
X73050006Y-100950011D01*
G75*
G02*
X72550006Y-101450011I-500000J0D01*
G01*
X71550006Y-101450011D01*
G75*
G02*
X71050006Y-100950011I0J500000D01*
G01*
G37*
%TD.AperFunction*%
%TD*%
%TO.N,Board_10-/VMAX*%
%TO.C,TP6*%
%TA.AperFunction,ComponentPad*%
G36*
G01*
X86290006Y-106030011D02*
X86290006Y-105030011D01*
G75*
G02*
X86790006Y-104530011I500000J0D01*
G01*
X87790006Y-104530011D01*
G75*
G02*
X88290006Y-105030011I0J-500000D01*
G01*
X88290006Y-106030011D01*
G75*
G02*
X87790006Y-106530011I-500000J0D01*
G01*
X86790006Y-106530011D01*
G75*
G02*
X86290006Y-106030011I0J500000D01*
G01*
G37*
%TD.AperFunction*%
%TD*%
%TO.N,Board_10-/+BATT*%
%TO.C,TP7*%
%TA.AperFunction,ComponentPad*%
G36*
G01*
X86290006Y-98410011D02*
X86290006Y-97410011D01*
G75*
G02*
X86790006Y-96910011I500000J0D01*
G01*
X87790006Y-96910011D01*
G75*
G02*
X88290006Y-97410011I0J-500000D01*
G01*
X88290006Y-98410011D01*
G75*
G02*
X87790006Y-98910011I-500000J0D01*
G01*
X86790006Y-98910011D01*
G75*
G02*
X86290006Y-98410011I0J500000D01*
G01*
G37*
%TD.AperFunction*%
%TD*%
%TO.N,Board_10-/+3v3*%
%TO.C,TP8*%
%TA.AperFunction,ComponentPad*%
G36*
G01*
X86290006Y-100950011D02*
X86290006Y-99950011D01*
G75*
G02*
X86790006Y-99450011I500000J0D01*
G01*
X87790006Y-99450011D01*
G75*
G02*
X88290006Y-99950011I0J-500000D01*
G01*
X88290006Y-100950011D01*
G75*
G02*
X87790006Y-101450011I-500000J0D01*
G01*
X86790006Y-101450011D01*
G75*
G02*
X86290006Y-100950011I0J500000D01*
G01*
G37*
%TD.AperFunction*%
%TD*%
%TO.N,Board_10-/STAT*%
%TO.C,TP9*%
%TA.AperFunction,ComponentPad*%
G36*
G01*
X86290006Y-103490011D02*
X86290006Y-102490011D01*
G75*
G02*
X86790006Y-101990011I500000J0D01*
G01*
X87790006Y-101990011D01*
G75*
G02*
X88290006Y-102490011I0J-500000D01*
G01*
X88290006Y-103490011D01*
G75*
G02*
X87790006Y-103990011I-500000J0D01*
G01*
X86790006Y-103990011D01*
G75*
G02*
X86290006Y-103490011I0J500000D01*
G01*
G37*
%TD.AperFunction*%
%TD*%
%TO.N,Board_10-GND*%
%TO.C,TP10*%
%TA.AperFunction,ComponentPad*%
G36*
G01*
X86290006Y-95870011D02*
X86290006Y-94870011D01*
G75*
G02*
X86790006Y-94370011I500000J0D01*
G01*
X87790006Y-94370011D01*
G75*
G02*
X88290006Y-94870011I0J-500000D01*
G01*
X88290006Y-95870011D01*
G75*
G02*
X87790006Y-96370011I-500000J0D01*
G01*
X86790006Y-96370011D01*
G75*
G02*
X86290006Y-95870011I0J500000D01*
G01*
G37*
%TD.AperFunction*%
%TD*%
%TO.N,Board_9-/-BATT_RAW*%
%TO.C,TP1*%
%TA.AperFunction,ComponentPad*%
G36*
G01*
X50270001Y-95870011D02*
X50270001Y-94870011D01*
G75*
G02*
X50770001Y-94370011I500000J0D01*
G01*
X51770001Y-94370011D01*
G75*
G02*
X52270001Y-94870011I0J-500000D01*
G01*
X52270001Y-95870011D01*
G75*
G02*
X51770001Y-96370011I-500000J0D01*
G01*
X50770001Y-96370011D01*
G75*
G02*
X50270001Y-95870011I0J500000D01*
G01*
G37*
%TD.AperFunction*%
%TD*%
%TO.N,Board_9-/+BATT*%
%TO.C,TP2*%
%TA.AperFunction,ComponentPad*%
G36*
G01*
X50270001Y-98410011D02*
X50270001Y-97410011D01*
G75*
G02*
X50770001Y-96910011I500000J0D01*
G01*
X51770001Y-96910011D01*
G75*
G02*
X52270001Y-97410011I0J-500000D01*
G01*
X52270001Y-98410011D01*
G75*
G02*
X51770001Y-98910011I-500000J0D01*
G01*
X50770001Y-98910011D01*
G75*
G02*
X50270001Y-98410011I0J500000D01*
G01*
G37*
%TD.AperFunction*%
%TD*%
%TO.N,Board_9-GND*%
%TO.C,TP3*%
%TA.AperFunction,ComponentPad*%
G36*
G01*
X50270001Y-103490011D02*
X50270001Y-102490011D01*
G75*
G02*
X50770001Y-101990011I500000J0D01*
G01*
X51770001Y-101990011D01*
G75*
G02*
X52270001Y-102490011I0J-500000D01*
G01*
X52270001Y-103490011D01*
G75*
G02*
X51770001Y-103990011I-500000J0D01*
G01*
X50770001Y-103990011D01*
G75*
G02*
X50270001Y-103490011I0J500000D01*
G01*
G37*
%TD.AperFunction*%
%TD*%
%TO.N,Board_9-/+CHARGE*%
%TO.C,TP4*%
%TA.AperFunction,ComponentPad*%
G36*
G01*
X50270001Y-106030011D02*
X50270001Y-105030011D01*
G75*
G02*
X50770001Y-104530011I500000J0D01*
G01*
X51770001Y-104530011D01*
G75*
G02*
X52270001Y-105030011I0J-500000D01*
G01*
X52270001Y-106030011D01*
G75*
G02*
X51770001Y-106530011I-500000J0D01*
G01*
X50770001Y-106530011D01*
G75*
G02*
X50270001Y-106030011I0J500000D01*
G01*
G37*
%TD.AperFunction*%
%TD*%
%TO.N,Board_9-/3v3_EN*%
%TO.C,TP5*%
%TA.AperFunction,ComponentPad*%
G36*
G01*
X50270001Y-100950011D02*
X50270001Y-99950011D01*
G75*
G02*
X50770001Y-99450011I500000J0D01*
G01*
X51770001Y-99450011D01*
G75*
G02*
X52270001Y-99950011I0J-500000D01*
G01*
X52270001Y-100950011D01*
G75*
G02*
X51770001Y-101450011I-500000J0D01*
G01*
X50770001Y-101450011D01*
G75*
G02*
X50270001Y-100950011I0J500000D01*
G01*
G37*
%TD.AperFunction*%
%TD*%
%TO.N,Board_9-/VMAX*%
%TO.C,TP6*%
%TA.AperFunction,ComponentPad*%
G36*
G01*
X65510001Y-106030011D02*
X65510001Y-105030011D01*
G75*
G02*
X66010001Y-104530011I500000J0D01*
G01*
X67010001Y-104530011D01*
G75*
G02*
X67510001Y-105030011I0J-500000D01*
G01*
X67510001Y-106030011D01*
G75*
G02*
X67010001Y-106530011I-500000J0D01*
G01*
X66010001Y-106530011D01*
G75*
G02*
X65510001Y-106030011I0J500000D01*
G01*
G37*
%TD.AperFunction*%
%TD*%
%TO.N,Board_9-/+BATT*%
%TO.C,TP7*%
%TA.AperFunction,ComponentPad*%
G36*
G01*
X65510001Y-98410011D02*
X65510001Y-97410011D01*
G75*
G02*
X66010001Y-96910011I500000J0D01*
G01*
X67010001Y-96910011D01*
G75*
G02*
X67510001Y-97410011I0J-500000D01*
G01*
X67510001Y-98410011D01*
G75*
G02*
X67010001Y-98910011I-500000J0D01*
G01*
X66010001Y-98910011D01*
G75*
G02*
X65510001Y-98410011I0J500000D01*
G01*
G37*
%TD.AperFunction*%
%TD*%
%TO.N,Board_9-/+3v3*%
%TO.C,TP8*%
%TA.AperFunction,ComponentPad*%
G36*
G01*
X65510001Y-100950011D02*
X65510001Y-99950011D01*
G75*
G02*
X66010001Y-99450011I500000J0D01*
G01*
X67010001Y-99450011D01*
G75*
G02*
X67510001Y-99950011I0J-500000D01*
G01*
X67510001Y-100950011D01*
G75*
G02*
X67010001Y-101450011I-500000J0D01*
G01*
X66010001Y-101450011D01*
G75*
G02*
X65510001Y-100950011I0J500000D01*
G01*
G37*
%TD.AperFunction*%
%TD*%
%TO.N,Board_9-/STAT*%
%TO.C,TP9*%
%TA.AperFunction,ComponentPad*%
G36*
G01*
X65510001Y-103490011D02*
X65510001Y-102490011D01*
G75*
G02*
X66010001Y-101990011I500000J0D01*
G01*
X67010001Y-101990011D01*
G75*
G02*
X67510001Y-102490011I0J-500000D01*
G01*
X67510001Y-103490011D01*
G75*
G02*
X67010001Y-103990011I-500000J0D01*
G01*
X66010001Y-103990011D01*
G75*
G02*
X65510001Y-103490011I0J500000D01*
G01*
G37*
%TD.AperFunction*%
%TD*%
%TO.N,Board_9-GND*%
%TO.C,TP10*%
%TA.AperFunction,ComponentPad*%
G36*
G01*
X65510001Y-95870011D02*
X65510001Y-94870011D01*
G75*
G02*
X66010001Y-94370011I500000J0D01*
G01*
X67010001Y-94370011D01*
G75*
G02*
X67510001Y-94870011I0J-500000D01*
G01*
X67510001Y-95870011D01*
G75*
G02*
X67010001Y-96370011I-500000J0D01*
G01*
X66010001Y-96370011D01*
G75*
G02*
X65510001Y-95870011I0J500000D01*
G01*
G37*
%TD.AperFunction*%
%TD*%
%TO.N,Board_8-/-BATT_RAW*%
%TO.C,TP1*%
%TA.AperFunction,ComponentPad*%
G36*
G01*
X112610016Y-75090006D02*
X112610016Y-74090006D01*
G75*
G02*
X113110016Y-73590006I500000J0D01*
G01*
X114110016Y-73590006D01*
G75*
G02*
X114610016Y-74090006I0J-500000D01*
G01*
X114610016Y-75090006D01*
G75*
G02*
X114110016Y-75590006I-500000J0D01*
G01*
X113110016Y-75590006D01*
G75*
G02*
X112610016Y-75090006I0J500000D01*
G01*
G37*
%TD.AperFunction*%
%TD*%
%TO.N,Board_8-/+BATT*%
%TO.C,TP2*%
%TA.AperFunction,ComponentPad*%
G36*
G01*
X112610016Y-77630006D02*
X112610016Y-76630006D01*
G75*
G02*
X113110016Y-76130006I500000J0D01*
G01*
X114110016Y-76130006D01*
G75*
G02*
X114610016Y-76630006I0J-500000D01*
G01*
X114610016Y-77630006D01*
G75*
G02*
X114110016Y-78130006I-500000J0D01*
G01*
X113110016Y-78130006D01*
G75*
G02*
X112610016Y-77630006I0J500000D01*
G01*
G37*
%TD.AperFunction*%
%TD*%
%TO.N,Board_8-GND*%
%TO.C,TP3*%
%TA.AperFunction,ComponentPad*%
G36*
G01*
X112610016Y-82710006D02*
X112610016Y-81710006D01*
G75*
G02*
X113110016Y-81210006I500000J0D01*
G01*
X114110016Y-81210006D01*
G75*
G02*
X114610016Y-81710006I0J-500000D01*
G01*
X114610016Y-82710006D01*
G75*
G02*
X114110016Y-83210006I-500000J0D01*
G01*
X113110016Y-83210006D01*
G75*
G02*
X112610016Y-82710006I0J500000D01*
G01*
G37*
%TD.AperFunction*%
%TD*%
%TO.N,Board_8-/+CHARGE*%
%TO.C,TP4*%
%TA.AperFunction,ComponentPad*%
G36*
G01*
X112610016Y-85250006D02*
X112610016Y-84250006D01*
G75*
G02*
X113110016Y-83750006I500000J0D01*
G01*
X114110016Y-83750006D01*
G75*
G02*
X114610016Y-84250006I0J-500000D01*
G01*
X114610016Y-85250006D01*
G75*
G02*
X114110016Y-85750006I-500000J0D01*
G01*
X113110016Y-85750006D01*
G75*
G02*
X112610016Y-85250006I0J500000D01*
G01*
G37*
%TD.AperFunction*%
%TD*%
%TO.N,Board_8-/3v3_EN*%
%TO.C,TP5*%
%TA.AperFunction,ComponentPad*%
G36*
G01*
X112610016Y-80170006D02*
X112610016Y-79170006D01*
G75*
G02*
X113110016Y-78670006I500000J0D01*
G01*
X114110016Y-78670006D01*
G75*
G02*
X114610016Y-79170006I0J-500000D01*
G01*
X114610016Y-80170006D01*
G75*
G02*
X114110016Y-80670006I-500000J0D01*
G01*
X113110016Y-80670006D01*
G75*
G02*
X112610016Y-80170006I0J500000D01*
G01*
G37*
%TD.AperFunction*%
%TD*%
%TO.N,Board_8-/VMAX*%
%TO.C,TP6*%
%TA.AperFunction,ComponentPad*%
G36*
G01*
X127850016Y-85250006D02*
X127850016Y-84250006D01*
G75*
G02*
X128350016Y-83750006I500000J0D01*
G01*
X129350016Y-83750006D01*
G75*
G02*
X129850016Y-84250006I0J-500000D01*
G01*
X129850016Y-85250006D01*
G75*
G02*
X129350016Y-85750006I-500000J0D01*
G01*
X128350016Y-85750006D01*
G75*
G02*
X127850016Y-85250006I0J500000D01*
G01*
G37*
%TD.AperFunction*%
%TD*%
%TO.N,Board_8-/+BATT*%
%TO.C,TP7*%
%TA.AperFunction,ComponentPad*%
G36*
G01*
X127850016Y-77630006D02*
X127850016Y-76630006D01*
G75*
G02*
X128350016Y-76130006I500000J0D01*
G01*
X129350016Y-76130006D01*
G75*
G02*
X129850016Y-76630006I0J-500000D01*
G01*
X129850016Y-77630006D01*
G75*
G02*
X129350016Y-78130006I-500000J0D01*
G01*
X128350016Y-78130006D01*
G75*
G02*
X127850016Y-77630006I0J500000D01*
G01*
G37*
%TD.AperFunction*%
%TD*%
%TO.N,Board_8-/+3v3*%
%TO.C,TP8*%
%TA.AperFunction,ComponentPad*%
G36*
G01*
X127850016Y-80170006D02*
X127850016Y-79170006D01*
G75*
G02*
X128350016Y-78670006I500000J0D01*
G01*
X129350016Y-78670006D01*
G75*
G02*
X129850016Y-79170006I0J-500000D01*
G01*
X129850016Y-80170006D01*
G75*
G02*
X129350016Y-80670006I-500000J0D01*
G01*
X128350016Y-80670006D01*
G75*
G02*
X127850016Y-80170006I0J500000D01*
G01*
G37*
%TD.AperFunction*%
%TD*%
%TO.N,Board_8-/STAT*%
%TO.C,TP9*%
%TA.AperFunction,ComponentPad*%
G36*
G01*
X127850016Y-82710006D02*
X127850016Y-81710006D01*
G75*
G02*
X128350016Y-81210006I500000J0D01*
G01*
X129350016Y-81210006D01*
G75*
G02*
X129850016Y-81710006I0J-500000D01*
G01*
X129850016Y-82710006D01*
G75*
G02*
X129350016Y-83210006I-500000J0D01*
G01*
X128350016Y-83210006D01*
G75*
G02*
X127850016Y-82710006I0J500000D01*
G01*
G37*
%TD.AperFunction*%
%TD*%
%TO.N,Board_8-GND*%
%TO.C,TP10*%
%TA.AperFunction,ComponentPad*%
G36*
G01*
X127850016Y-75090006D02*
X127850016Y-74090006D01*
G75*
G02*
X128350016Y-73590006I500000J0D01*
G01*
X129350016Y-73590006D01*
G75*
G02*
X129850016Y-74090006I0J-500000D01*
G01*
X129850016Y-75090006D01*
G75*
G02*
X129350016Y-75590006I-500000J0D01*
G01*
X128350016Y-75590006D01*
G75*
G02*
X127850016Y-75090006I0J500000D01*
G01*
G37*
%TD.AperFunction*%
%TD*%
%TO.N,Board_7-/-BATT_RAW*%
%TO.C,TP1*%
%TA.AperFunction,ComponentPad*%
G36*
G01*
X91830011Y-75090006D02*
X91830011Y-74090006D01*
G75*
G02*
X92330011Y-73590006I500000J0D01*
G01*
X93330011Y-73590006D01*
G75*
G02*
X93830011Y-74090006I0J-500000D01*
G01*
X93830011Y-75090006D01*
G75*
G02*
X93330011Y-75590006I-500000J0D01*
G01*
X92330011Y-75590006D01*
G75*
G02*
X91830011Y-75090006I0J500000D01*
G01*
G37*
%TD.AperFunction*%
%TD*%
%TO.N,Board_7-/+BATT*%
%TO.C,TP2*%
%TA.AperFunction,ComponentPad*%
G36*
G01*
X91830011Y-77630006D02*
X91830011Y-76630006D01*
G75*
G02*
X92330011Y-76130006I500000J0D01*
G01*
X93330011Y-76130006D01*
G75*
G02*
X93830011Y-76630006I0J-500000D01*
G01*
X93830011Y-77630006D01*
G75*
G02*
X93330011Y-78130006I-500000J0D01*
G01*
X92330011Y-78130006D01*
G75*
G02*
X91830011Y-77630006I0J500000D01*
G01*
G37*
%TD.AperFunction*%
%TD*%
%TO.N,Board_7-GND*%
%TO.C,TP3*%
%TA.AperFunction,ComponentPad*%
G36*
G01*
X91830011Y-82710006D02*
X91830011Y-81710006D01*
G75*
G02*
X92330011Y-81210006I500000J0D01*
G01*
X93330011Y-81210006D01*
G75*
G02*
X93830011Y-81710006I0J-500000D01*
G01*
X93830011Y-82710006D01*
G75*
G02*
X93330011Y-83210006I-500000J0D01*
G01*
X92330011Y-83210006D01*
G75*
G02*
X91830011Y-82710006I0J500000D01*
G01*
G37*
%TD.AperFunction*%
%TD*%
%TO.N,Board_7-/+CHARGE*%
%TO.C,TP4*%
%TA.AperFunction,ComponentPad*%
G36*
G01*
X91830011Y-85250006D02*
X91830011Y-84250006D01*
G75*
G02*
X92330011Y-83750006I500000J0D01*
G01*
X93330011Y-83750006D01*
G75*
G02*
X93830011Y-84250006I0J-500000D01*
G01*
X93830011Y-85250006D01*
G75*
G02*
X93330011Y-85750006I-500000J0D01*
G01*
X92330011Y-85750006D01*
G75*
G02*
X91830011Y-85250006I0J500000D01*
G01*
G37*
%TD.AperFunction*%
%TD*%
%TO.N,Board_7-/3v3_EN*%
%TO.C,TP5*%
%TA.AperFunction,ComponentPad*%
G36*
G01*
X91830011Y-80170006D02*
X91830011Y-79170006D01*
G75*
G02*
X92330011Y-78670006I500000J0D01*
G01*
X93330011Y-78670006D01*
G75*
G02*
X93830011Y-79170006I0J-500000D01*
G01*
X93830011Y-80170006D01*
G75*
G02*
X93330011Y-80670006I-500000J0D01*
G01*
X92330011Y-80670006D01*
G75*
G02*
X91830011Y-80170006I0J500000D01*
G01*
G37*
%TD.AperFunction*%
%TD*%
%TO.N,Board_7-/VMAX*%
%TO.C,TP6*%
%TA.AperFunction,ComponentPad*%
G36*
G01*
X107070011Y-85250006D02*
X107070011Y-84250006D01*
G75*
G02*
X107570011Y-83750006I500000J0D01*
G01*
X108570011Y-83750006D01*
G75*
G02*
X109070011Y-84250006I0J-500000D01*
G01*
X109070011Y-85250006D01*
G75*
G02*
X108570011Y-85750006I-500000J0D01*
G01*
X107570011Y-85750006D01*
G75*
G02*
X107070011Y-85250006I0J500000D01*
G01*
G37*
%TD.AperFunction*%
%TD*%
%TO.N,Board_7-/+BATT*%
%TO.C,TP7*%
%TA.AperFunction,ComponentPad*%
G36*
G01*
X107070011Y-77630006D02*
X107070011Y-76630006D01*
G75*
G02*
X107570011Y-76130006I500000J0D01*
G01*
X108570011Y-76130006D01*
G75*
G02*
X109070011Y-76630006I0J-500000D01*
G01*
X109070011Y-77630006D01*
G75*
G02*
X108570011Y-78130006I-500000J0D01*
G01*
X107570011Y-78130006D01*
G75*
G02*
X107070011Y-77630006I0J500000D01*
G01*
G37*
%TD.AperFunction*%
%TD*%
%TO.N,Board_7-/+3v3*%
%TO.C,TP8*%
%TA.AperFunction,ComponentPad*%
G36*
G01*
X107070011Y-80170006D02*
X107070011Y-79170006D01*
G75*
G02*
X107570011Y-78670006I500000J0D01*
G01*
X108570011Y-78670006D01*
G75*
G02*
X109070011Y-79170006I0J-500000D01*
G01*
X109070011Y-80170006D01*
G75*
G02*
X108570011Y-80670006I-500000J0D01*
G01*
X107570011Y-80670006D01*
G75*
G02*
X107070011Y-80170006I0J500000D01*
G01*
G37*
%TD.AperFunction*%
%TD*%
%TO.N,Board_7-/STAT*%
%TO.C,TP9*%
%TA.AperFunction,ComponentPad*%
G36*
G01*
X107070011Y-82710006D02*
X107070011Y-81710006D01*
G75*
G02*
X107570011Y-81210006I500000J0D01*
G01*
X108570011Y-81210006D01*
G75*
G02*
X109070011Y-81710006I0J-500000D01*
G01*
X109070011Y-82710006D01*
G75*
G02*
X108570011Y-83210006I-500000J0D01*
G01*
X107570011Y-83210006D01*
G75*
G02*
X107070011Y-82710006I0J500000D01*
G01*
G37*
%TD.AperFunction*%
%TD*%
%TO.N,Board_7-GND*%
%TO.C,TP10*%
%TA.AperFunction,ComponentPad*%
G36*
G01*
X107070011Y-75090006D02*
X107070011Y-74090006D01*
G75*
G02*
X107570011Y-73590006I500000J0D01*
G01*
X108570011Y-73590006D01*
G75*
G02*
X109070011Y-74090006I0J-500000D01*
G01*
X109070011Y-75090006D01*
G75*
G02*
X108570011Y-75590006I-500000J0D01*
G01*
X107570011Y-75590006D01*
G75*
G02*
X107070011Y-75090006I0J500000D01*
G01*
G37*
%TD.AperFunction*%
%TD*%
%TO.N,Board_6-/-BATT_RAW*%
%TO.C,TP1*%
%TA.AperFunction,ComponentPad*%
G36*
G01*
X71050006Y-75090006D02*
X71050006Y-74090006D01*
G75*
G02*
X71550006Y-73590006I500000J0D01*
G01*
X72550006Y-73590006D01*
G75*
G02*
X73050006Y-74090006I0J-500000D01*
G01*
X73050006Y-75090006D01*
G75*
G02*
X72550006Y-75590006I-500000J0D01*
G01*
X71550006Y-75590006D01*
G75*
G02*
X71050006Y-75090006I0J500000D01*
G01*
G37*
%TD.AperFunction*%
%TD*%
%TO.N,Board_6-/+BATT*%
%TO.C,TP2*%
%TA.AperFunction,ComponentPad*%
G36*
G01*
X71050006Y-77630006D02*
X71050006Y-76630006D01*
G75*
G02*
X71550006Y-76130006I500000J0D01*
G01*
X72550006Y-76130006D01*
G75*
G02*
X73050006Y-76630006I0J-500000D01*
G01*
X73050006Y-77630006D01*
G75*
G02*
X72550006Y-78130006I-500000J0D01*
G01*
X71550006Y-78130006D01*
G75*
G02*
X71050006Y-77630006I0J500000D01*
G01*
G37*
%TD.AperFunction*%
%TD*%
%TO.N,Board_6-GND*%
%TO.C,TP3*%
%TA.AperFunction,ComponentPad*%
G36*
G01*
X71050006Y-82710006D02*
X71050006Y-81710006D01*
G75*
G02*
X71550006Y-81210006I500000J0D01*
G01*
X72550006Y-81210006D01*
G75*
G02*
X73050006Y-81710006I0J-500000D01*
G01*
X73050006Y-82710006D01*
G75*
G02*
X72550006Y-83210006I-500000J0D01*
G01*
X71550006Y-83210006D01*
G75*
G02*
X71050006Y-82710006I0J500000D01*
G01*
G37*
%TD.AperFunction*%
%TD*%
%TO.N,Board_6-/+CHARGE*%
%TO.C,TP4*%
%TA.AperFunction,ComponentPad*%
G36*
G01*
X71050006Y-85250006D02*
X71050006Y-84250006D01*
G75*
G02*
X71550006Y-83750006I500000J0D01*
G01*
X72550006Y-83750006D01*
G75*
G02*
X73050006Y-84250006I0J-500000D01*
G01*
X73050006Y-85250006D01*
G75*
G02*
X72550006Y-85750006I-500000J0D01*
G01*
X71550006Y-85750006D01*
G75*
G02*
X71050006Y-85250006I0J500000D01*
G01*
G37*
%TD.AperFunction*%
%TD*%
%TO.N,Board_6-/3v3_EN*%
%TO.C,TP5*%
%TA.AperFunction,ComponentPad*%
G36*
G01*
X71050006Y-80170006D02*
X71050006Y-79170006D01*
G75*
G02*
X71550006Y-78670006I500000J0D01*
G01*
X72550006Y-78670006D01*
G75*
G02*
X73050006Y-79170006I0J-500000D01*
G01*
X73050006Y-80170006D01*
G75*
G02*
X72550006Y-80670006I-500000J0D01*
G01*
X71550006Y-80670006D01*
G75*
G02*
X71050006Y-80170006I0J500000D01*
G01*
G37*
%TD.AperFunction*%
%TD*%
%TO.N,Board_6-/VMAX*%
%TO.C,TP6*%
%TA.AperFunction,ComponentPad*%
G36*
G01*
X86290006Y-85250006D02*
X86290006Y-84250006D01*
G75*
G02*
X86790006Y-83750006I500000J0D01*
G01*
X87790006Y-83750006D01*
G75*
G02*
X88290006Y-84250006I0J-500000D01*
G01*
X88290006Y-85250006D01*
G75*
G02*
X87790006Y-85750006I-500000J0D01*
G01*
X86790006Y-85750006D01*
G75*
G02*
X86290006Y-85250006I0J500000D01*
G01*
G37*
%TD.AperFunction*%
%TD*%
%TO.N,Board_6-/+BATT*%
%TO.C,TP7*%
%TA.AperFunction,ComponentPad*%
G36*
G01*
X86290006Y-77630006D02*
X86290006Y-76630006D01*
G75*
G02*
X86790006Y-76130006I500000J0D01*
G01*
X87790006Y-76130006D01*
G75*
G02*
X88290006Y-76630006I0J-500000D01*
G01*
X88290006Y-77630006D01*
G75*
G02*
X87790006Y-78130006I-500000J0D01*
G01*
X86790006Y-78130006D01*
G75*
G02*
X86290006Y-77630006I0J500000D01*
G01*
G37*
%TD.AperFunction*%
%TD*%
%TO.N,Board_6-/+3v3*%
%TO.C,TP8*%
%TA.AperFunction,ComponentPad*%
G36*
G01*
X86290006Y-80170006D02*
X86290006Y-79170006D01*
G75*
G02*
X86790006Y-78670006I500000J0D01*
G01*
X87790006Y-78670006D01*
G75*
G02*
X88290006Y-79170006I0J-500000D01*
G01*
X88290006Y-80170006D01*
G75*
G02*
X87790006Y-80670006I-500000J0D01*
G01*
X86790006Y-80670006D01*
G75*
G02*
X86290006Y-80170006I0J500000D01*
G01*
G37*
%TD.AperFunction*%
%TD*%
%TO.N,Board_6-/STAT*%
%TO.C,TP9*%
%TA.AperFunction,ComponentPad*%
G36*
G01*
X86290006Y-82710006D02*
X86290006Y-81710006D01*
G75*
G02*
X86790006Y-81210006I500000J0D01*
G01*
X87790006Y-81210006D01*
G75*
G02*
X88290006Y-81710006I0J-500000D01*
G01*
X88290006Y-82710006D01*
G75*
G02*
X87790006Y-83210006I-500000J0D01*
G01*
X86790006Y-83210006D01*
G75*
G02*
X86290006Y-82710006I0J500000D01*
G01*
G37*
%TD.AperFunction*%
%TD*%
%TO.N,Board_6-GND*%
%TO.C,TP10*%
%TA.AperFunction,ComponentPad*%
G36*
G01*
X86290006Y-75090006D02*
X86290006Y-74090006D01*
G75*
G02*
X86790006Y-73590006I500000J0D01*
G01*
X87790006Y-73590006D01*
G75*
G02*
X88290006Y-74090006I0J-500000D01*
G01*
X88290006Y-75090006D01*
G75*
G02*
X87790006Y-75590006I-500000J0D01*
G01*
X86790006Y-75590006D01*
G75*
G02*
X86290006Y-75090006I0J500000D01*
G01*
G37*
%TD.AperFunction*%
%TD*%
%TO.N,Board_5-/-BATT_RAW*%
%TO.C,TP1*%
%TA.AperFunction,ComponentPad*%
G36*
G01*
X50270001Y-75090006D02*
X50270001Y-74090006D01*
G75*
G02*
X50770001Y-73590006I500000J0D01*
G01*
X51770001Y-73590006D01*
G75*
G02*
X52270001Y-74090006I0J-500000D01*
G01*
X52270001Y-75090006D01*
G75*
G02*
X51770001Y-75590006I-500000J0D01*
G01*
X50770001Y-75590006D01*
G75*
G02*
X50270001Y-75090006I0J500000D01*
G01*
G37*
%TD.AperFunction*%
%TD*%
%TO.N,Board_5-/+BATT*%
%TO.C,TP2*%
%TA.AperFunction,ComponentPad*%
G36*
G01*
X50270001Y-77630006D02*
X50270001Y-76630006D01*
G75*
G02*
X50770001Y-76130006I500000J0D01*
G01*
X51770001Y-76130006D01*
G75*
G02*
X52270001Y-76630006I0J-500000D01*
G01*
X52270001Y-77630006D01*
G75*
G02*
X51770001Y-78130006I-500000J0D01*
G01*
X50770001Y-78130006D01*
G75*
G02*
X50270001Y-77630006I0J500000D01*
G01*
G37*
%TD.AperFunction*%
%TD*%
%TO.N,Board_5-GND*%
%TO.C,TP3*%
%TA.AperFunction,ComponentPad*%
G36*
G01*
X50270001Y-82710006D02*
X50270001Y-81710006D01*
G75*
G02*
X50770001Y-81210006I500000J0D01*
G01*
X51770001Y-81210006D01*
G75*
G02*
X52270001Y-81710006I0J-500000D01*
G01*
X52270001Y-82710006D01*
G75*
G02*
X51770001Y-83210006I-500000J0D01*
G01*
X50770001Y-83210006D01*
G75*
G02*
X50270001Y-82710006I0J500000D01*
G01*
G37*
%TD.AperFunction*%
%TD*%
%TO.N,Board_5-/+CHARGE*%
%TO.C,TP4*%
%TA.AperFunction,ComponentPad*%
G36*
G01*
X50270001Y-85250006D02*
X50270001Y-84250006D01*
G75*
G02*
X50770001Y-83750006I500000J0D01*
G01*
X51770001Y-83750006D01*
G75*
G02*
X52270001Y-84250006I0J-500000D01*
G01*
X52270001Y-85250006D01*
G75*
G02*
X51770001Y-85750006I-500000J0D01*
G01*
X50770001Y-85750006D01*
G75*
G02*
X50270001Y-85250006I0J500000D01*
G01*
G37*
%TD.AperFunction*%
%TD*%
%TO.N,Board_5-/3v3_EN*%
%TO.C,TP5*%
%TA.AperFunction,ComponentPad*%
G36*
G01*
X50270001Y-80170006D02*
X50270001Y-79170006D01*
G75*
G02*
X50770001Y-78670006I500000J0D01*
G01*
X51770001Y-78670006D01*
G75*
G02*
X52270001Y-79170006I0J-500000D01*
G01*
X52270001Y-80170006D01*
G75*
G02*
X51770001Y-80670006I-500000J0D01*
G01*
X50770001Y-80670006D01*
G75*
G02*
X50270001Y-80170006I0J500000D01*
G01*
G37*
%TD.AperFunction*%
%TD*%
%TO.N,Board_5-/VMAX*%
%TO.C,TP6*%
%TA.AperFunction,ComponentPad*%
G36*
G01*
X65510001Y-85250006D02*
X65510001Y-84250006D01*
G75*
G02*
X66010001Y-83750006I500000J0D01*
G01*
X67010001Y-83750006D01*
G75*
G02*
X67510001Y-84250006I0J-500000D01*
G01*
X67510001Y-85250006D01*
G75*
G02*
X67010001Y-85750006I-500000J0D01*
G01*
X66010001Y-85750006D01*
G75*
G02*
X65510001Y-85250006I0J500000D01*
G01*
G37*
%TD.AperFunction*%
%TD*%
%TO.N,Board_5-/+BATT*%
%TO.C,TP7*%
%TA.AperFunction,ComponentPad*%
G36*
G01*
X65510001Y-77630006D02*
X65510001Y-76630006D01*
G75*
G02*
X66010001Y-76130006I500000J0D01*
G01*
X67010001Y-76130006D01*
G75*
G02*
X67510001Y-76630006I0J-500000D01*
G01*
X67510001Y-77630006D01*
G75*
G02*
X67010001Y-78130006I-500000J0D01*
G01*
X66010001Y-78130006D01*
G75*
G02*
X65510001Y-77630006I0J500000D01*
G01*
G37*
%TD.AperFunction*%
%TD*%
%TO.N,Board_5-/+3v3*%
%TO.C,TP8*%
%TA.AperFunction,ComponentPad*%
G36*
G01*
X65510001Y-80170006D02*
X65510001Y-79170006D01*
G75*
G02*
X66010001Y-78670006I500000J0D01*
G01*
X67010001Y-78670006D01*
G75*
G02*
X67510001Y-79170006I0J-500000D01*
G01*
X67510001Y-80170006D01*
G75*
G02*
X67010001Y-80670006I-500000J0D01*
G01*
X66010001Y-80670006D01*
G75*
G02*
X65510001Y-80170006I0J500000D01*
G01*
G37*
%TD.AperFunction*%
%TD*%
%TO.N,Board_5-/STAT*%
%TO.C,TP9*%
%TA.AperFunction,ComponentPad*%
G36*
G01*
X65510001Y-82710006D02*
X65510001Y-81710006D01*
G75*
G02*
X66010001Y-81210006I500000J0D01*
G01*
X67010001Y-81210006D01*
G75*
G02*
X67510001Y-81710006I0J-500000D01*
G01*
X67510001Y-82710006D01*
G75*
G02*
X67010001Y-83210006I-500000J0D01*
G01*
X66010001Y-83210006D01*
G75*
G02*
X65510001Y-82710006I0J500000D01*
G01*
G37*
%TD.AperFunction*%
%TD*%
%TO.N,Board_5-GND*%
%TO.C,TP10*%
%TA.AperFunction,ComponentPad*%
G36*
G01*
X65510001Y-75090006D02*
X65510001Y-74090006D01*
G75*
G02*
X66010001Y-73590006I500000J0D01*
G01*
X67010001Y-73590006D01*
G75*
G02*
X67510001Y-74090006I0J-500000D01*
G01*
X67510001Y-75090006D01*
G75*
G02*
X67010001Y-75590006I-500000J0D01*
G01*
X66010001Y-75590006D01*
G75*
G02*
X65510001Y-75090006I0J500000D01*
G01*
G37*
%TD.AperFunction*%
%TD*%
%TO.N,Board_4-/-BATT_RAW*%
%TO.C,TP1*%
%TA.AperFunction,ComponentPad*%
G36*
G01*
X112610016Y-54310001D02*
X112610016Y-53310001D01*
G75*
G02*
X113110016Y-52810001I500000J0D01*
G01*
X114110016Y-52810001D01*
G75*
G02*
X114610016Y-53310001I0J-500000D01*
G01*
X114610016Y-54310001D01*
G75*
G02*
X114110016Y-54810001I-500000J0D01*
G01*
X113110016Y-54810001D01*
G75*
G02*
X112610016Y-54310001I0J500000D01*
G01*
G37*
%TD.AperFunction*%
%TD*%
%TO.N,Board_4-/+BATT*%
%TO.C,TP2*%
%TA.AperFunction,ComponentPad*%
G36*
G01*
X112610016Y-56850001D02*
X112610016Y-55850001D01*
G75*
G02*
X113110016Y-55350001I500000J0D01*
G01*
X114110016Y-55350001D01*
G75*
G02*
X114610016Y-55850001I0J-500000D01*
G01*
X114610016Y-56850001D01*
G75*
G02*
X114110016Y-57350001I-500000J0D01*
G01*
X113110016Y-57350001D01*
G75*
G02*
X112610016Y-56850001I0J500000D01*
G01*
G37*
%TD.AperFunction*%
%TD*%
%TO.N,Board_4-GND*%
%TO.C,TP3*%
%TA.AperFunction,ComponentPad*%
G36*
G01*
X112610016Y-61930001D02*
X112610016Y-60930001D01*
G75*
G02*
X113110016Y-60430001I500000J0D01*
G01*
X114110016Y-60430001D01*
G75*
G02*
X114610016Y-60930001I0J-500000D01*
G01*
X114610016Y-61930001D01*
G75*
G02*
X114110016Y-62430001I-500000J0D01*
G01*
X113110016Y-62430001D01*
G75*
G02*
X112610016Y-61930001I0J500000D01*
G01*
G37*
%TD.AperFunction*%
%TD*%
%TO.N,Board_4-/+CHARGE*%
%TO.C,TP4*%
%TA.AperFunction,ComponentPad*%
G36*
G01*
X112610016Y-64470001D02*
X112610016Y-63470001D01*
G75*
G02*
X113110016Y-62970001I500000J0D01*
G01*
X114110016Y-62970001D01*
G75*
G02*
X114610016Y-63470001I0J-500000D01*
G01*
X114610016Y-64470001D01*
G75*
G02*
X114110016Y-64970001I-500000J0D01*
G01*
X113110016Y-64970001D01*
G75*
G02*
X112610016Y-64470001I0J500000D01*
G01*
G37*
%TD.AperFunction*%
%TD*%
%TO.N,Board_4-/3v3_EN*%
%TO.C,TP5*%
%TA.AperFunction,ComponentPad*%
G36*
G01*
X112610016Y-59390001D02*
X112610016Y-58390001D01*
G75*
G02*
X113110016Y-57890001I500000J0D01*
G01*
X114110016Y-57890001D01*
G75*
G02*
X114610016Y-58390001I0J-500000D01*
G01*
X114610016Y-59390001D01*
G75*
G02*
X114110016Y-59890001I-500000J0D01*
G01*
X113110016Y-59890001D01*
G75*
G02*
X112610016Y-59390001I0J500000D01*
G01*
G37*
%TD.AperFunction*%
%TD*%
%TO.N,Board_4-/VMAX*%
%TO.C,TP6*%
%TA.AperFunction,ComponentPad*%
G36*
G01*
X127850016Y-64470001D02*
X127850016Y-63470001D01*
G75*
G02*
X128350016Y-62970001I500000J0D01*
G01*
X129350016Y-62970001D01*
G75*
G02*
X129850016Y-63470001I0J-500000D01*
G01*
X129850016Y-64470001D01*
G75*
G02*
X129350016Y-64970001I-500000J0D01*
G01*
X128350016Y-64970001D01*
G75*
G02*
X127850016Y-64470001I0J500000D01*
G01*
G37*
%TD.AperFunction*%
%TD*%
%TO.N,Board_4-/+BATT*%
%TO.C,TP7*%
%TA.AperFunction,ComponentPad*%
G36*
G01*
X127850016Y-56850001D02*
X127850016Y-55850001D01*
G75*
G02*
X128350016Y-55350001I500000J0D01*
G01*
X129350016Y-55350001D01*
G75*
G02*
X129850016Y-55850001I0J-500000D01*
G01*
X129850016Y-56850001D01*
G75*
G02*
X129350016Y-57350001I-500000J0D01*
G01*
X128350016Y-57350001D01*
G75*
G02*
X127850016Y-56850001I0J500000D01*
G01*
G37*
%TD.AperFunction*%
%TD*%
%TO.N,Board_4-/+3v3*%
%TO.C,TP8*%
%TA.AperFunction,ComponentPad*%
G36*
G01*
X127850016Y-59390001D02*
X127850016Y-58390001D01*
G75*
G02*
X128350016Y-57890001I500000J0D01*
G01*
X129350016Y-57890001D01*
G75*
G02*
X129850016Y-58390001I0J-500000D01*
G01*
X129850016Y-59390001D01*
G75*
G02*
X129350016Y-59890001I-500000J0D01*
G01*
X128350016Y-59890001D01*
G75*
G02*
X127850016Y-59390001I0J500000D01*
G01*
G37*
%TD.AperFunction*%
%TD*%
%TO.N,Board_4-/STAT*%
%TO.C,TP9*%
%TA.AperFunction,ComponentPad*%
G36*
G01*
X127850016Y-61930001D02*
X127850016Y-60930001D01*
G75*
G02*
X128350016Y-60430001I500000J0D01*
G01*
X129350016Y-60430001D01*
G75*
G02*
X129850016Y-60930001I0J-500000D01*
G01*
X129850016Y-61930001D01*
G75*
G02*
X129350016Y-62430001I-500000J0D01*
G01*
X128350016Y-62430001D01*
G75*
G02*
X127850016Y-61930001I0J500000D01*
G01*
G37*
%TD.AperFunction*%
%TD*%
%TO.N,Board_4-GND*%
%TO.C,TP10*%
%TA.AperFunction,ComponentPad*%
G36*
G01*
X127850016Y-54310001D02*
X127850016Y-53310001D01*
G75*
G02*
X128350016Y-52810001I500000J0D01*
G01*
X129350016Y-52810001D01*
G75*
G02*
X129850016Y-53310001I0J-500000D01*
G01*
X129850016Y-54310001D01*
G75*
G02*
X129350016Y-54810001I-500000J0D01*
G01*
X128350016Y-54810001D01*
G75*
G02*
X127850016Y-54310001I0J500000D01*
G01*
G37*
%TD.AperFunction*%
%TD*%
%TO.N,Board_3-/-BATT_RAW*%
%TO.C,TP1*%
%TA.AperFunction,ComponentPad*%
G36*
G01*
X91830011Y-54310001D02*
X91830011Y-53310001D01*
G75*
G02*
X92330011Y-52810001I500000J0D01*
G01*
X93330011Y-52810001D01*
G75*
G02*
X93830011Y-53310001I0J-500000D01*
G01*
X93830011Y-54310001D01*
G75*
G02*
X93330011Y-54810001I-500000J0D01*
G01*
X92330011Y-54810001D01*
G75*
G02*
X91830011Y-54310001I0J500000D01*
G01*
G37*
%TD.AperFunction*%
%TD*%
%TO.N,Board_3-/+BATT*%
%TO.C,TP2*%
%TA.AperFunction,ComponentPad*%
G36*
G01*
X91830011Y-56850001D02*
X91830011Y-55850001D01*
G75*
G02*
X92330011Y-55350001I500000J0D01*
G01*
X93330011Y-55350001D01*
G75*
G02*
X93830011Y-55850001I0J-500000D01*
G01*
X93830011Y-56850001D01*
G75*
G02*
X93330011Y-57350001I-500000J0D01*
G01*
X92330011Y-57350001D01*
G75*
G02*
X91830011Y-56850001I0J500000D01*
G01*
G37*
%TD.AperFunction*%
%TD*%
%TO.N,Board_3-GND*%
%TO.C,TP3*%
%TA.AperFunction,ComponentPad*%
G36*
G01*
X91830011Y-61930001D02*
X91830011Y-60930001D01*
G75*
G02*
X92330011Y-60430001I500000J0D01*
G01*
X93330011Y-60430001D01*
G75*
G02*
X93830011Y-60930001I0J-500000D01*
G01*
X93830011Y-61930001D01*
G75*
G02*
X93330011Y-62430001I-500000J0D01*
G01*
X92330011Y-62430001D01*
G75*
G02*
X91830011Y-61930001I0J500000D01*
G01*
G37*
%TD.AperFunction*%
%TD*%
%TO.N,Board_3-/+CHARGE*%
%TO.C,TP4*%
%TA.AperFunction,ComponentPad*%
G36*
G01*
X91830011Y-64470001D02*
X91830011Y-63470001D01*
G75*
G02*
X92330011Y-62970001I500000J0D01*
G01*
X93330011Y-62970001D01*
G75*
G02*
X93830011Y-63470001I0J-500000D01*
G01*
X93830011Y-64470001D01*
G75*
G02*
X93330011Y-64970001I-500000J0D01*
G01*
X92330011Y-64970001D01*
G75*
G02*
X91830011Y-64470001I0J500000D01*
G01*
G37*
%TD.AperFunction*%
%TD*%
%TO.N,Board_3-/3v3_EN*%
%TO.C,TP5*%
%TA.AperFunction,ComponentPad*%
G36*
G01*
X91830011Y-59390001D02*
X91830011Y-58390001D01*
G75*
G02*
X92330011Y-57890001I500000J0D01*
G01*
X93330011Y-57890001D01*
G75*
G02*
X93830011Y-58390001I0J-500000D01*
G01*
X93830011Y-59390001D01*
G75*
G02*
X93330011Y-59890001I-500000J0D01*
G01*
X92330011Y-59890001D01*
G75*
G02*
X91830011Y-59390001I0J500000D01*
G01*
G37*
%TD.AperFunction*%
%TD*%
%TO.N,Board_3-/VMAX*%
%TO.C,TP6*%
%TA.AperFunction,ComponentPad*%
G36*
G01*
X107070011Y-64470001D02*
X107070011Y-63470001D01*
G75*
G02*
X107570011Y-62970001I500000J0D01*
G01*
X108570011Y-62970001D01*
G75*
G02*
X109070011Y-63470001I0J-500000D01*
G01*
X109070011Y-64470001D01*
G75*
G02*
X108570011Y-64970001I-500000J0D01*
G01*
X107570011Y-64970001D01*
G75*
G02*
X107070011Y-64470001I0J500000D01*
G01*
G37*
%TD.AperFunction*%
%TD*%
%TO.N,Board_3-/+BATT*%
%TO.C,TP7*%
%TA.AperFunction,ComponentPad*%
G36*
G01*
X107070011Y-56850001D02*
X107070011Y-55850001D01*
G75*
G02*
X107570011Y-55350001I500000J0D01*
G01*
X108570011Y-55350001D01*
G75*
G02*
X109070011Y-55850001I0J-500000D01*
G01*
X109070011Y-56850001D01*
G75*
G02*
X108570011Y-57350001I-500000J0D01*
G01*
X107570011Y-57350001D01*
G75*
G02*
X107070011Y-56850001I0J500000D01*
G01*
G37*
%TD.AperFunction*%
%TD*%
%TO.N,Board_3-/+3v3*%
%TO.C,TP8*%
%TA.AperFunction,ComponentPad*%
G36*
G01*
X107070011Y-59390001D02*
X107070011Y-58390001D01*
G75*
G02*
X107570011Y-57890001I500000J0D01*
G01*
X108570011Y-57890001D01*
G75*
G02*
X109070011Y-58390001I0J-500000D01*
G01*
X109070011Y-59390001D01*
G75*
G02*
X108570011Y-59890001I-500000J0D01*
G01*
X107570011Y-59890001D01*
G75*
G02*
X107070011Y-59390001I0J500000D01*
G01*
G37*
%TD.AperFunction*%
%TD*%
%TO.N,Board_3-/STAT*%
%TO.C,TP9*%
%TA.AperFunction,ComponentPad*%
G36*
G01*
X107070011Y-61930001D02*
X107070011Y-60930001D01*
G75*
G02*
X107570011Y-60430001I500000J0D01*
G01*
X108570011Y-60430001D01*
G75*
G02*
X109070011Y-60930001I0J-500000D01*
G01*
X109070011Y-61930001D01*
G75*
G02*
X108570011Y-62430001I-500000J0D01*
G01*
X107570011Y-62430001D01*
G75*
G02*
X107070011Y-61930001I0J500000D01*
G01*
G37*
%TD.AperFunction*%
%TD*%
%TO.N,Board_3-GND*%
%TO.C,TP10*%
%TA.AperFunction,ComponentPad*%
G36*
G01*
X107070011Y-54310001D02*
X107070011Y-53310001D01*
G75*
G02*
X107570011Y-52810001I500000J0D01*
G01*
X108570011Y-52810001D01*
G75*
G02*
X109070011Y-53310001I0J-500000D01*
G01*
X109070011Y-54310001D01*
G75*
G02*
X108570011Y-54810001I-500000J0D01*
G01*
X107570011Y-54810001D01*
G75*
G02*
X107070011Y-54310001I0J500000D01*
G01*
G37*
%TD.AperFunction*%
%TD*%
%TO.N,Board_2-/-BATT_RAW*%
%TO.C,TP1*%
%TA.AperFunction,ComponentPad*%
G36*
G01*
X71050006Y-54310001D02*
X71050006Y-53310001D01*
G75*
G02*
X71550006Y-52810001I500000J0D01*
G01*
X72550006Y-52810001D01*
G75*
G02*
X73050006Y-53310001I0J-500000D01*
G01*
X73050006Y-54310001D01*
G75*
G02*
X72550006Y-54810001I-500000J0D01*
G01*
X71550006Y-54810001D01*
G75*
G02*
X71050006Y-54310001I0J500000D01*
G01*
G37*
%TD.AperFunction*%
%TD*%
%TO.N,Board_2-/+BATT*%
%TO.C,TP2*%
%TA.AperFunction,ComponentPad*%
G36*
G01*
X71050006Y-56850001D02*
X71050006Y-55850001D01*
G75*
G02*
X71550006Y-55350001I500000J0D01*
G01*
X72550006Y-55350001D01*
G75*
G02*
X73050006Y-55850001I0J-500000D01*
G01*
X73050006Y-56850001D01*
G75*
G02*
X72550006Y-57350001I-500000J0D01*
G01*
X71550006Y-57350001D01*
G75*
G02*
X71050006Y-56850001I0J500000D01*
G01*
G37*
%TD.AperFunction*%
%TD*%
%TO.N,Board_2-GND*%
%TO.C,TP3*%
%TA.AperFunction,ComponentPad*%
G36*
G01*
X71050006Y-61930001D02*
X71050006Y-60930001D01*
G75*
G02*
X71550006Y-60430001I500000J0D01*
G01*
X72550006Y-60430001D01*
G75*
G02*
X73050006Y-60930001I0J-500000D01*
G01*
X73050006Y-61930001D01*
G75*
G02*
X72550006Y-62430001I-500000J0D01*
G01*
X71550006Y-62430001D01*
G75*
G02*
X71050006Y-61930001I0J500000D01*
G01*
G37*
%TD.AperFunction*%
%TD*%
%TO.N,Board_2-/+CHARGE*%
%TO.C,TP4*%
%TA.AperFunction,ComponentPad*%
G36*
G01*
X71050006Y-64470001D02*
X71050006Y-63470001D01*
G75*
G02*
X71550006Y-62970001I500000J0D01*
G01*
X72550006Y-62970001D01*
G75*
G02*
X73050006Y-63470001I0J-500000D01*
G01*
X73050006Y-64470001D01*
G75*
G02*
X72550006Y-64970001I-500000J0D01*
G01*
X71550006Y-64970001D01*
G75*
G02*
X71050006Y-64470001I0J500000D01*
G01*
G37*
%TD.AperFunction*%
%TD*%
%TO.N,Board_2-/3v3_EN*%
%TO.C,TP5*%
%TA.AperFunction,ComponentPad*%
G36*
G01*
X71050006Y-59390001D02*
X71050006Y-58390001D01*
G75*
G02*
X71550006Y-57890001I500000J0D01*
G01*
X72550006Y-57890001D01*
G75*
G02*
X73050006Y-58390001I0J-500000D01*
G01*
X73050006Y-59390001D01*
G75*
G02*
X72550006Y-59890001I-500000J0D01*
G01*
X71550006Y-59890001D01*
G75*
G02*
X71050006Y-59390001I0J500000D01*
G01*
G37*
%TD.AperFunction*%
%TD*%
%TO.N,Board_2-/VMAX*%
%TO.C,TP6*%
%TA.AperFunction,ComponentPad*%
G36*
G01*
X86290006Y-64470001D02*
X86290006Y-63470001D01*
G75*
G02*
X86790006Y-62970001I500000J0D01*
G01*
X87790006Y-62970001D01*
G75*
G02*
X88290006Y-63470001I0J-500000D01*
G01*
X88290006Y-64470001D01*
G75*
G02*
X87790006Y-64970001I-500000J0D01*
G01*
X86790006Y-64970001D01*
G75*
G02*
X86290006Y-64470001I0J500000D01*
G01*
G37*
%TD.AperFunction*%
%TD*%
%TO.N,Board_2-/+BATT*%
%TO.C,TP7*%
%TA.AperFunction,ComponentPad*%
G36*
G01*
X86290006Y-56850001D02*
X86290006Y-55850001D01*
G75*
G02*
X86790006Y-55350001I500000J0D01*
G01*
X87790006Y-55350001D01*
G75*
G02*
X88290006Y-55850001I0J-500000D01*
G01*
X88290006Y-56850001D01*
G75*
G02*
X87790006Y-57350001I-500000J0D01*
G01*
X86790006Y-57350001D01*
G75*
G02*
X86290006Y-56850001I0J500000D01*
G01*
G37*
%TD.AperFunction*%
%TD*%
%TO.N,Board_2-/+3v3*%
%TO.C,TP8*%
%TA.AperFunction,ComponentPad*%
G36*
G01*
X86290006Y-59390001D02*
X86290006Y-58390001D01*
G75*
G02*
X86790006Y-57890001I500000J0D01*
G01*
X87790006Y-57890001D01*
G75*
G02*
X88290006Y-58390001I0J-500000D01*
G01*
X88290006Y-59390001D01*
G75*
G02*
X87790006Y-59890001I-500000J0D01*
G01*
X86790006Y-59890001D01*
G75*
G02*
X86290006Y-59390001I0J500000D01*
G01*
G37*
%TD.AperFunction*%
%TD*%
%TO.N,Board_2-/STAT*%
%TO.C,TP9*%
%TA.AperFunction,ComponentPad*%
G36*
G01*
X86290006Y-61930001D02*
X86290006Y-60930001D01*
G75*
G02*
X86790006Y-60430001I500000J0D01*
G01*
X87790006Y-60430001D01*
G75*
G02*
X88290006Y-60930001I0J-500000D01*
G01*
X88290006Y-61930001D01*
G75*
G02*
X87790006Y-62430001I-500000J0D01*
G01*
X86790006Y-62430001D01*
G75*
G02*
X86290006Y-61930001I0J500000D01*
G01*
G37*
%TD.AperFunction*%
%TD*%
%TO.N,Board_2-GND*%
%TO.C,TP10*%
%TA.AperFunction,ComponentPad*%
G36*
G01*
X86290006Y-54310001D02*
X86290006Y-53310001D01*
G75*
G02*
X86790006Y-52810001I500000J0D01*
G01*
X87790006Y-52810001D01*
G75*
G02*
X88290006Y-53310001I0J-500000D01*
G01*
X88290006Y-54310001D01*
G75*
G02*
X87790006Y-54810001I-500000J0D01*
G01*
X86790006Y-54810001D01*
G75*
G02*
X86290006Y-54310001I0J500000D01*
G01*
G37*
%TD.AperFunction*%
%TD*%
%TO.N,Board_1-/-BATT_RAW*%
%TO.C,TP1*%
%TA.AperFunction,ComponentPad*%
G36*
G01*
X50270001Y-54310001D02*
X50270001Y-53310001D01*
G75*
G02*
X50770001Y-52810001I500000J0D01*
G01*
X51770001Y-52810001D01*
G75*
G02*
X52270001Y-53310001I0J-500000D01*
G01*
X52270001Y-54310001D01*
G75*
G02*
X51770001Y-54810001I-500000J0D01*
G01*
X50770001Y-54810001D01*
G75*
G02*
X50270001Y-54310001I0J500000D01*
G01*
G37*
%TD.AperFunction*%
%TD*%
%TO.N,Board_1-/+BATT*%
%TO.C,TP2*%
%TA.AperFunction,ComponentPad*%
G36*
G01*
X50270001Y-56850001D02*
X50270001Y-55850001D01*
G75*
G02*
X50770001Y-55350001I500000J0D01*
G01*
X51770001Y-55350001D01*
G75*
G02*
X52270001Y-55850001I0J-500000D01*
G01*
X52270001Y-56850001D01*
G75*
G02*
X51770001Y-57350001I-500000J0D01*
G01*
X50770001Y-57350001D01*
G75*
G02*
X50270001Y-56850001I0J500000D01*
G01*
G37*
%TD.AperFunction*%
%TD*%
%TO.N,Board_1-GND*%
%TO.C,TP3*%
%TA.AperFunction,ComponentPad*%
G36*
G01*
X50270001Y-61930001D02*
X50270001Y-60930001D01*
G75*
G02*
X50770001Y-60430001I500000J0D01*
G01*
X51770001Y-60430001D01*
G75*
G02*
X52270001Y-60930001I0J-500000D01*
G01*
X52270001Y-61930001D01*
G75*
G02*
X51770001Y-62430001I-500000J0D01*
G01*
X50770001Y-62430001D01*
G75*
G02*
X50270001Y-61930001I0J500000D01*
G01*
G37*
%TD.AperFunction*%
%TD*%
%TO.N,Board_1-/+CHARGE*%
%TO.C,TP4*%
%TA.AperFunction,ComponentPad*%
G36*
G01*
X50270001Y-64470001D02*
X50270001Y-63470001D01*
G75*
G02*
X50770001Y-62970001I500000J0D01*
G01*
X51770001Y-62970001D01*
G75*
G02*
X52270001Y-63470001I0J-500000D01*
G01*
X52270001Y-64470001D01*
G75*
G02*
X51770001Y-64970001I-500000J0D01*
G01*
X50770001Y-64970001D01*
G75*
G02*
X50270001Y-64470001I0J500000D01*
G01*
G37*
%TD.AperFunction*%
%TD*%
%TO.N,Board_1-/3v3_EN*%
%TO.C,TP5*%
%TA.AperFunction,ComponentPad*%
G36*
G01*
X50270001Y-59390001D02*
X50270001Y-58390001D01*
G75*
G02*
X50770001Y-57890001I500000J0D01*
G01*
X51770001Y-57890001D01*
G75*
G02*
X52270001Y-58390001I0J-500000D01*
G01*
X52270001Y-59390001D01*
G75*
G02*
X51770001Y-59890001I-500000J0D01*
G01*
X50770001Y-59890001D01*
G75*
G02*
X50270001Y-59390001I0J500000D01*
G01*
G37*
%TD.AperFunction*%
%TD*%
%TO.N,Board_1-/VMAX*%
%TO.C,TP6*%
%TA.AperFunction,ComponentPad*%
G36*
G01*
X65510001Y-64470001D02*
X65510001Y-63470001D01*
G75*
G02*
X66010001Y-62970001I500000J0D01*
G01*
X67010001Y-62970001D01*
G75*
G02*
X67510001Y-63470001I0J-500000D01*
G01*
X67510001Y-64470001D01*
G75*
G02*
X67010001Y-64970001I-500000J0D01*
G01*
X66010001Y-64970001D01*
G75*
G02*
X65510001Y-64470001I0J500000D01*
G01*
G37*
%TD.AperFunction*%
%TD*%
%TO.N,Board_1-/+BATT*%
%TO.C,TP7*%
%TA.AperFunction,ComponentPad*%
G36*
G01*
X65510001Y-56850001D02*
X65510001Y-55850001D01*
G75*
G02*
X66010001Y-55350001I500000J0D01*
G01*
X67010001Y-55350001D01*
G75*
G02*
X67510001Y-55850001I0J-500000D01*
G01*
X67510001Y-56850001D01*
G75*
G02*
X67010001Y-57350001I-500000J0D01*
G01*
X66010001Y-57350001D01*
G75*
G02*
X65510001Y-56850001I0J500000D01*
G01*
G37*
%TD.AperFunction*%
%TD*%
%TO.N,Board_1-/+3v3*%
%TO.C,TP8*%
%TA.AperFunction,ComponentPad*%
G36*
G01*
X65510001Y-59390001D02*
X65510001Y-58390001D01*
G75*
G02*
X66010001Y-57890001I500000J0D01*
G01*
X67010001Y-57890001D01*
G75*
G02*
X67510001Y-58390001I0J-500000D01*
G01*
X67510001Y-59390001D01*
G75*
G02*
X67010001Y-59890001I-500000J0D01*
G01*
X66010001Y-59890001D01*
G75*
G02*
X65510001Y-59390001I0J500000D01*
G01*
G37*
%TD.AperFunction*%
%TD*%
%TO.N,Board_1-/STAT*%
%TO.C,TP9*%
%TA.AperFunction,ComponentPad*%
G36*
G01*
X65510001Y-61930001D02*
X65510001Y-60930001D01*
G75*
G02*
X66010001Y-60430001I500000J0D01*
G01*
X67010001Y-60430001D01*
G75*
G02*
X67510001Y-60930001I0J-500000D01*
G01*
X67510001Y-61930001D01*
G75*
G02*
X67010001Y-62430001I-500000J0D01*
G01*
X66010001Y-62430001D01*
G75*
G02*
X65510001Y-61930001I0J500000D01*
G01*
G37*
%TD.AperFunction*%
%TD*%
%TO.N,Board_1-GND*%
%TO.C,TP10*%
%TA.AperFunction,ComponentPad*%
G36*
G01*
X65510001Y-54310001D02*
X65510001Y-53310001D01*
G75*
G02*
X66010001Y-52810001I500000J0D01*
G01*
X67010001Y-52810001D01*
G75*
G02*
X67510001Y-53310001I0J-500000D01*
G01*
X67510001Y-54310001D01*
G75*
G02*
X67010001Y-54810001I-500000J0D01*
G01*
X66010001Y-54810001D01*
G75*
G02*
X65510001Y-54310001I0J500000D01*
G01*
G37*
%TD.AperFunction*%
%TD*%
D10*
%TO.N,Board_1-/+BATT*%
X62954001Y-63970001D03*
D11*
X64859001Y-52730501D03*
D10*
%TO.N,Board_1-/+CHARGE*%
X64732001Y-66510001D03*
X58128001Y-66510011D03*
D11*
%TO.N,Board_1-/-BATT*%
X57175501Y-50762001D03*
X61176001Y-51079501D03*
D12*
%TO.N,Board_1-/3v3_EN*%
X61557001Y-63716001D03*
%TO.N,Board_1-/STAT*%
X55969001Y-53810001D03*
D11*
X54953001Y-52667001D03*
D10*
%TO.N,Board_1-/VMAX*%
X60329057Y-61049001D03*
D12*
%TO.N,Board_1-GND*%
X58636001Y-57747001D03*
X55842001Y-57747001D03*
X57239001Y-58636001D03*
X57239001Y-56858001D03*
X58636001Y-58636001D03*
X55842001Y-56858001D03*
X58636001Y-56858001D03*
X55842001Y-58636001D03*
D11*
X52921001Y-66383001D03*
D12*
X59588501Y-56858001D03*
X59588501Y-57747001D03*
X59588501Y-58636001D03*
X54889501Y-58636001D03*
X54889501Y-57747001D03*
X54889501Y-56858001D03*
D11*
X57112001Y-52921001D03*
D13*
X64732001Y-61874501D03*
D12*
X60566401Y-56858001D03*
X60566401Y-57747001D03*
X60566401Y-58636001D03*
X53886201Y-58636001D03*
X53886201Y-57772401D03*
X53886201Y-56858001D03*
X54889501Y-59652001D03*
D10*
%TO.N,Board_1-Net-(C1-Pad1)*%
X55969001Y-66510001D03*
X58255001Y-64351001D03*
D11*
X55080001Y-53683001D03*
%TO.N,Board_1-Net-(D1-Pad1)*%
X55334001Y-65494001D03*
X54318001Y-61811001D03*
X61364552Y-56669552D03*
%TO.N,Board_1-Net-(D2-Pad1)*%
X53683001Y-65621001D03*
X52667001Y-52159001D03*
%TO.N,Board_1-Net-(R6-Pad1)*%
X60922001Y-52032001D03*
X65621001Y-52159001D03*
D10*
%TO.N,Board_2-/+BATT*%
X83734006Y-63970001D03*
D11*
X85639006Y-52730501D03*
D10*
%TO.N,Board_2-/+CHARGE*%
X85512006Y-66510001D03*
X78908006Y-66510011D03*
D11*
%TO.N,Board_2-/-BATT*%
X77955506Y-50762001D03*
X81956006Y-51079501D03*
D12*
%TO.N,Board_2-/3v3_EN*%
X82337006Y-63716001D03*
%TO.N,Board_2-/STAT*%
X76749006Y-53810001D03*
D11*
X75733006Y-52667001D03*
D10*
%TO.N,Board_2-/VMAX*%
X81109062Y-61049001D03*
D12*
%TO.N,Board_2-GND*%
X79416006Y-57747001D03*
X76622006Y-57747001D03*
X78019006Y-58636001D03*
X78019006Y-56858001D03*
X79416006Y-58636001D03*
X76622006Y-56858001D03*
X79416006Y-56858001D03*
X76622006Y-58636001D03*
D11*
X73701006Y-66383001D03*
D12*
X80368506Y-56858001D03*
X80368506Y-57747001D03*
X80368506Y-58636001D03*
X75669506Y-58636001D03*
X75669506Y-57747001D03*
X75669506Y-56858001D03*
D11*
X77892006Y-52921001D03*
D13*
X85512006Y-61874501D03*
D12*
X81346406Y-56858001D03*
X81346406Y-57747001D03*
X81346406Y-58636001D03*
X74666206Y-58636001D03*
X74666206Y-57772401D03*
X74666206Y-56858001D03*
X75669506Y-59652001D03*
D10*
%TO.N,Board_2-Net-(C1-Pad1)*%
X76749006Y-66510001D03*
X79035006Y-64351001D03*
D11*
X75860006Y-53683001D03*
%TO.N,Board_2-Net-(D1-Pad1)*%
X76114006Y-65494001D03*
X75098006Y-61811001D03*
X82144557Y-56669552D03*
%TO.N,Board_2-Net-(D2-Pad1)*%
X74463006Y-65621001D03*
X73447006Y-52159001D03*
%TO.N,Board_2-Net-(R6-Pad1)*%
X81702006Y-52032001D03*
X86401006Y-52159001D03*
D10*
%TO.N,Board_3-/+BATT*%
X104514011Y-63970001D03*
D11*
X106419011Y-52730501D03*
D10*
%TO.N,Board_3-/+CHARGE*%
X106292011Y-66510001D03*
X99688011Y-66510011D03*
D11*
%TO.N,Board_3-/-BATT*%
X98735511Y-50762001D03*
X102736011Y-51079501D03*
D12*
%TO.N,Board_3-/3v3_EN*%
X103117011Y-63716001D03*
%TO.N,Board_3-/STAT*%
X97529011Y-53810001D03*
D11*
X96513011Y-52667001D03*
D10*
%TO.N,Board_3-/VMAX*%
X101889067Y-61049001D03*
D12*
%TO.N,Board_3-GND*%
X100196011Y-57747001D03*
X97402011Y-57747001D03*
X98799011Y-58636001D03*
X98799011Y-56858001D03*
X100196011Y-58636001D03*
X97402011Y-56858001D03*
X100196011Y-56858001D03*
X97402011Y-58636001D03*
D11*
X94481011Y-66383001D03*
D12*
X101148511Y-56858001D03*
X101148511Y-57747001D03*
X101148511Y-58636001D03*
X96449511Y-58636001D03*
X96449511Y-57747001D03*
X96449511Y-56858001D03*
D11*
X98672011Y-52921001D03*
D13*
X106292011Y-61874501D03*
D12*
X102126411Y-56858001D03*
X102126411Y-57747001D03*
X102126411Y-58636001D03*
X95446211Y-58636001D03*
X95446211Y-57772401D03*
X95446211Y-56858001D03*
X96449511Y-59652001D03*
D10*
%TO.N,Board_3-Net-(C1-Pad1)*%
X97529011Y-66510001D03*
X99815011Y-64351001D03*
D11*
X96640011Y-53683001D03*
%TO.N,Board_3-Net-(D1-Pad1)*%
X96894011Y-65494001D03*
X95878011Y-61811001D03*
X102924562Y-56669552D03*
%TO.N,Board_3-Net-(D2-Pad1)*%
X95243011Y-65621001D03*
X94227011Y-52159001D03*
%TO.N,Board_3-Net-(R6-Pad1)*%
X102482011Y-52032001D03*
X107181011Y-52159001D03*
D10*
%TO.N,Board_4-/+BATT*%
X125294016Y-63970001D03*
D11*
X127199016Y-52730501D03*
D10*
%TO.N,Board_4-/+CHARGE*%
X127072016Y-66510001D03*
X120468016Y-66510011D03*
D11*
%TO.N,Board_4-/-BATT*%
X119515516Y-50762001D03*
X123516016Y-51079501D03*
D12*
%TO.N,Board_4-/3v3_EN*%
X123897016Y-63716001D03*
%TO.N,Board_4-/STAT*%
X118309016Y-53810001D03*
D11*
X117293016Y-52667001D03*
D10*
%TO.N,Board_4-/VMAX*%
X122669072Y-61049001D03*
D12*
%TO.N,Board_4-GND*%
X120976016Y-57747001D03*
X118182016Y-57747001D03*
X119579016Y-58636001D03*
X119579016Y-56858001D03*
X120976016Y-58636001D03*
X118182016Y-56858001D03*
X120976016Y-56858001D03*
X118182016Y-58636001D03*
D11*
X115261016Y-66383001D03*
D12*
X121928516Y-56858001D03*
X121928516Y-57747001D03*
X121928516Y-58636001D03*
X117229516Y-58636001D03*
X117229516Y-57747001D03*
X117229516Y-56858001D03*
D11*
X119452016Y-52921001D03*
D13*
X127072016Y-61874501D03*
D12*
X122906416Y-56858001D03*
X122906416Y-57747001D03*
X122906416Y-58636001D03*
X116226216Y-58636001D03*
X116226216Y-57772401D03*
X116226216Y-56858001D03*
X117229516Y-59652001D03*
D10*
%TO.N,Board_4-Net-(C1-Pad1)*%
X118309016Y-66510001D03*
X120595016Y-64351001D03*
D11*
X117420016Y-53683001D03*
%TO.N,Board_4-Net-(D1-Pad1)*%
X117674016Y-65494001D03*
X116658016Y-61811001D03*
X123704567Y-56669552D03*
%TO.N,Board_4-Net-(D2-Pad1)*%
X116023016Y-65621001D03*
X115007016Y-52159001D03*
%TO.N,Board_4-Net-(R6-Pad1)*%
X123262016Y-52032001D03*
X127961016Y-52159001D03*
D10*
%TO.N,Board_5-/+BATT*%
X62954001Y-84750006D03*
D11*
X64859001Y-73510506D03*
D10*
%TO.N,Board_5-/+CHARGE*%
X64732001Y-87290006D03*
X58128001Y-87290016D03*
D11*
%TO.N,Board_5-/-BATT*%
X57175501Y-71542006D03*
X61176001Y-71859506D03*
D12*
%TO.N,Board_5-/3v3_EN*%
X61557001Y-84496006D03*
%TO.N,Board_5-/STAT*%
X55969001Y-74590006D03*
D11*
X54953001Y-73447006D03*
D10*
%TO.N,Board_5-/VMAX*%
X60329057Y-81829006D03*
D12*
%TO.N,Board_5-GND*%
X58636001Y-78527006D03*
X55842001Y-78527006D03*
X57239001Y-79416006D03*
X57239001Y-77638006D03*
X58636001Y-79416006D03*
X55842001Y-77638006D03*
X58636001Y-77638006D03*
X55842001Y-79416006D03*
D11*
X52921001Y-87163006D03*
D12*
X59588501Y-77638006D03*
X59588501Y-78527006D03*
X59588501Y-79416006D03*
X54889501Y-79416006D03*
X54889501Y-78527006D03*
X54889501Y-77638006D03*
D11*
X57112001Y-73701006D03*
D13*
X64732001Y-82654506D03*
D12*
X60566401Y-77638006D03*
X60566401Y-78527006D03*
X60566401Y-79416006D03*
X53886201Y-79416006D03*
X53886201Y-78552406D03*
X53886201Y-77638006D03*
X54889501Y-80432006D03*
D10*
%TO.N,Board_5-Net-(C1-Pad1)*%
X55969001Y-87290006D03*
X58255001Y-85131006D03*
D11*
X55080001Y-74463006D03*
%TO.N,Board_5-Net-(D1-Pad1)*%
X55334001Y-86274006D03*
X54318001Y-82591006D03*
X61364552Y-77449557D03*
%TO.N,Board_5-Net-(D2-Pad1)*%
X53683001Y-86401006D03*
X52667001Y-72939006D03*
%TO.N,Board_5-Net-(R6-Pad1)*%
X60922001Y-72812006D03*
X65621001Y-72939006D03*
D10*
%TO.N,Board_6-/+BATT*%
X83734006Y-84750006D03*
D11*
X85639006Y-73510506D03*
D10*
%TO.N,Board_6-/+CHARGE*%
X85512006Y-87290006D03*
X78908006Y-87290016D03*
D11*
%TO.N,Board_6-/-BATT*%
X77955506Y-71542006D03*
X81956006Y-71859506D03*
D12*
%TO.N,Board_6-/3v3_EN*%
X82337006Y-84496006D03*
%TO.N,Board_6-/STAT*%
X76749006Y-74590006D03*
D11*
X75733006Y-73447006D03*
D10*
%TO.N,Board_6-/VMAX*%
X81109062Y-81829006D03*
D12*
%TO.N,Board_6-GND*%
X79416006Y-78527006D03*
X76622006Y-78527006D03*
X78019006Y-79416006D03*
X78019006Y-77638006D03*
X79416006Y-79416006D03*
X76622006Y-77638006D03*
X79416006Y-77638006D03*
X76622006Y-79416006D03*
D11*
X73701006Y-87163006D03*
D12*
X80368506Y-77638006D03*
X80368506Y-78527006D03*
X80368506Y-79416006D03*
X75669506Y-79416006D03*
X75669506Y-78527006D03*
X75669506Y-77638006D03*
D11*
X77892006Y-73701006D03*
D13*
X85512006Y-82654506D03*
D12*
X81346406Y-77638006D03*
X81346406Y-78527006D03*
X81346406Y-79416006D03*
X74666206Y-79416006D03*
X74666206Y-78552406D03*
X74666206Y-77638006D03*
X75669506Y-80432006D03*
D10*
%TO.N,Board_6-Net-(C1-Pad1)*%
X76749006Y-87290006D03*
X79035006Y-85131006D03*
D11*
X75860006Y-74463006D03*
%TO.N,Board_6-Net-(D1-Pad1)*%
X76114006Y-86274006D03*
X75098006Y-82591006D03*
X82144557Y-77449557D03*
%TO.N,Board_6-Net-(D2-Pad1)*%
X74463006Y-86401006D03*
X73447006Y-72939006D03*
%TO.N,Board_6-Net-(R6-Pad1)*%
X81702006Y-72812006D03*
X86401006Y-72939006D03*
D10*
%TO.N,Board_7-/+BATT*%
X104514011Y-84750006D03*
D11*
X106419011Y-73510506D03*
D10*
%TO.N,Board_7-/+CHARGE*%
X106292011Y-87290006D03*
X99688011Y-87290016D03*
D11*
%TO.N,Board_7-/-BATT*%
X98735511Y-71542006D03*
X102736011Y-71859506D03*
D12*
%TO.N,Board_7-/3v3_EN*%
X103117011Y-84496006D03*
%TO.N,Board_7-/STAT*%
X97529011Y-74590006D03*
D11*
X96513011Y-73447006D03*
D10*
%TO.N,Board_7-/VMAX*%
X101889067Y-81829006D03*
D12*
%TO.N,Board_7-GND*%
X100196011Y-78527006D03*
X97402011Y-78527006D03*
X98799011Y-79416006D03*
X98799011Y-77638006D03*
X100196011Y-79416006D03*
X97402011Y-77638006D03*
X100196011Y-77638006D03*
X97402011Y-79416006D03*
D11*
X94481011Y-87163006D03*
D12*
X101148511Y-77638006D03*
X101148511Y-78527006D03*
X101148511Y-79416006D03*
X96449511Y-79416006D03*
X96449511Y-78527006D03*
X96449511Y-77638006D03*
D11*
X98672011Y-73701006D03*
D13*
X106292011Y-82654506D03*
D12*
X102126411Y-77638006D03*
X102126411Y-78527006D03*
X102126411Y-79416006D03*
X95446211Y-79416006D03*
X95446211Y-78552406D03*
X95446211Y-77638006D03*
X96449511Y-80432006D03*
D10*
%TO.N,Board_7-Net-(C1-Pad1)*%
X97529011Y-87290006D03*
X99815011Y-85131006D03*
D11*
X96640011Y-74463006D03*
%TO.N,Board_7-Net-(D1-Pad1)*%
X96894011Y-86274006D03*
X95878011Y-82591006D03*
X102924562Y-77449557D03*
%TO.N,Board_7-Net-(D2-Pad1)*%
X95243011Y-86401006D03*
X94227011Y-72939006D03*
%TO.N,Board_7-Net-(R6-Pad1)*%
X102482011Y-72812006D03*
X107181011Y-72939006D03*
D10*
%TO.N,Board_8-/+BATT*%
X125294016Y-84750006D03*
D11*
X127199016Y-73510506D03*
D10*
%TO.N,Board_8-/+CHARGE*%
X127072016Y-87290006D03*
X120468016Y-87290016D03*
D11*
%TO.N,Board_8-/-BATT*%
X119515516Y-71542006D03*
X123516016Y-71859506D03*
D12*
%TO.N,Board_8-/3v3_EN*%
X123897016Y-84496006D03*
%TO.N,Board_8-/STAT*%
X118309016Y-74590006D03*
D11*
X117293016Y-73447006D03*
D10*
%TO.N,Board_8-/VMAX*%
X122669072Y-81829006D03*
D12*
%TO.N,Board_8-GND*%
X120976016Y-78527006D03*
X118182016Y-78527006D03*
X119579016Y-79416006D03*
X119579016Y-77638006D03*
X120976016Y-79416006D03*
X118182016Y-77638006D03*
X120976016Y-77638006D03*
X118182016Y-79416006D03*
D11*
X115261016Y-87163006D03*
D12*
X121928516Y-77638006D03*
X121928516Y-78527006D03*
X121928516Y-79416006D03*
X117229516Y-79416006D03*
X117229516Y-78527006D03*
X117229516Y-77638006D03*
D11*
X119452016Y-73701006D03*
D13*
X127072016Y-82654506D03*
D12*
X122906416Y-77638006D03*
X122906416Y-78527006D03*
X122906416Y-79416006D03*
X116226216Y-79416006D03*
X116226216Y-78552406D03*
X116226216Y-77638006D03*
X117229516Y-80432006D03*
D10*
%TO.N,Board_8-Net-(C1-Pad1)*%
X118309016Y-87290006D03*
X120595016Y-85131006D03*
D11*
X117420016Y-74463006D03*
%TO.N,Board_8-Net-(D1-Pad1)*%
X117674016Y-86274006D03*
X116658016Y-82591006D03*
X123704567Y-77449557D03*
%TO.N,Board_8-Net-(D2-Pad1)*%
X116023016Y-86401006D03*
X115007016Y-72939006D03*
%TO.N,Board_8-Net-(R6-Pad1)*%
X123262016Y-72812006D03*
X127961016Y-72939006D03*
D10*
%TO.N,Board_9-/+BATT*%
X62954001Y-105530011D03*
D11*
X64859001Y-94290511D03*
D10*
%TO.N,Board_9-/+CHARGE*%
X64732001Y-108070011D03*
X58128001Y-108070021D03*
D11*
%TO.N,Board_9-/-BATT*%
X57175501Y-92322011D03*
X61176001Y-92639511D03*
D12*
%TO.N,Board_9-/3v3_EN*%
X61557001Y-105276011D03*
%TO.N,Board_9-/STAT*%
X55969001Y-95370011D03*
D11*
X54953001Y-94227011D03*
D10*
%TO.N,Board_9-/VMAX*%
X60329057Y-102609011D03*
D12*
%TO.N,Board_9-GND*%
X58636001Y-99307011D03*
X55842001Y-99307011D03*
X57239001Y-100196011D03*
X57239001Y-98418011D03*
X58636001Y-100196011D03*
X55842001Y-98418011D03*
X58636001Y-98418011D03*
X55842001Y-100196011D03*
D11*
X52921001Y-107943011D03*
D12*
X59588501Y-98418011D03*
X59588501Y-99307011D03*
X59588501Y-100196011D03*
X54889501Y-100196011D03*
X54889501Y-99307011D03*
X54889501Y-98418011D03*
D11*
X57112001Y-94481011D03*
D13*
X64732001Y-103434511D03*
D12*
X60566401Y-98418011D03*
X60566401Y-99307011D03*
X60566401Y-100196011D03*
X53886201Y-100196011D03*
X53886201Y-99332411D03*
X53886201Y-98418011D03*
X54889501Y-101212011D03*
D10*
%TO.N,Board_9-Net-(C1-Pad1)*%
X55969001Y-108070011D03*
X58255001Y-105911011D03*
D11*
X55080001Y-95243011D03*
%TO.N,Board_9-Net-(D1-Pad1)*%
X55334001Y-107054011D03*
X54318001Y-103371011D03*
X61364552Y-98229562D03*
%TO.N,Board_9-Net-(D2-Pad1)*%
X53683001Y-107181011D03*
X52667001Y-93719011D03*
%TO.N,Board_9-Net-(R6-Pad1)*%
X60922001Y-93592011D03*
X65621001Y-93719011D03*
D10*
%TO.N,Board_10-/+BATT*%
X83734006Y-105530011D03*
D11*
X85639006Y-94290511D03*
D10*
%TO.N,Board_10-/+CHARGE*%
X85512006Y-108070011D03*
X78908006Y-108070021D03*
D11*
%TO.N,Board_10-/-BATT*%
X77955506Y-92322011D03*
X81956006Y-92639511D03*
D12*
%TO.N,Board_10-/3v3_EN*%
X82337006Y-105276011D03*
%TO.N,Board_10-/STAT*%
X76749006Y-95370011D03*
D11*
X75733006Y-94227011D03*
D10*
%TO.N,Board_10-/VMAX*%
X81109062Y-102609011D03*
D12*
%TO.N,Board_10-GND*%
X79416006Y-99307011D03*
X76622006Y-99307011D03*
X78019006Y-100196011D03*
X78019006Y-98418011D03*
X79416006Y-100196011D03*
X76622006Y-98418011D03*
X79416006Y-98418011D03*
X76622006Y-100196011D03*
D11*
X73701006Y-107943011D03*
D12*
X80368506Y-98418011D03*
X80368506Y-99307011D03*
X80368506Y-100196011D03*
X75669506Y-100196011D03*
X75669506Y-99307011D03*
X75669506Y-98418011D03*
D11*
X77892006Y-94481011D03*
D13*
X85512006Y-103434511D03*
D12*
X81346406Y-98418011D03*
X81346406Y-99307011D03*
X81346406Y-100196011D03*
X74666206Y-100196011D03*
X74666206Y-99332411D03*
X74666206Y-98418011D03*
X75669506Y-101212011D03*
D10*
%TO.N,Board_10-Net-(C1-Pad1)*%
X76749006Y-108070011D03*
X79035006Y-105911011D03*
D11*
X75860006Y-95243011D03*
%TO.N,Board_10-Net-(D1-Pad1)*%
X76114006Y-107054011D03*
X75098006Y-103371011D03*
X82144557Y-98229562D03*
%TO.N,Board_10-Net-(D2-Pad1)*%
X74463006Y-107181011D03*
X73447006Y-93719011D03*
%TO.N,Board_10-Net-(R6-Pad1)*%
X81702006Y-93592011D03*
X86401006Y-93719011D03*
D10*
%TO.N,Board_11-/+BATT*%
X104514011Y-105530011D03*
D11*
X106419011Y-94290511D03*
D10*
%TO.N,Board_11-/+CHARGE*%
X106292011Y-108070011D03*
X99688011Y-108070021D03*
D11*
%TO.N,Board_11-/-BATT*%
X98735511Y-92322011D03*
X102736011Y-92639511D03*
D12*
%TO.N,Board_11-/3v3_EN*%
X103117011Y-105276011D03*
%TO.N,Board_11-/STAT*%
X97529011Y-95370011D03*
D11*
X96513011Y-94227011D03*
D10*
%TO.N,Board_11-/VMAX*%
X101889067Y-102609011D03*
D12*
%TO.N,Board_11-GND*%
X100196011Y-99307011D03*
X97402011Y-99307011D03*
X98799011Y-100196011D03*
X98799011Y-98418011D03*
X100196011Y-100196011D03*
X97402011Y-98418011D03*
X100196011Y-98418011D03*
X97402011Y-100196011D03*
D11*
X94481011Y-107943011D03*
D12*
X101148511Y-98418011D03*
X101148511Y-99307011D03*
X101148511Y-100196011D03*
X96449511Y-100196011D03*
X96449511Y-99307011D03*
X96449511Y-98418011D03*
D11*
X98672011Y-94481011D03*
D13*
X106292011Y-103434511D03*
D12*
X102126411Y-98418011D03*
X102126411Y-99307011D03*
X102126411Y-100196011D03*
X95446211Y-100196011D03*
X95446211Y-99332411D03*
X95446211Y-98418011D03*
X96449511Y-101212011D03*
D10*
%TO.N,Board_11-Net-(C1-Pad1)*%
X97529011Y-108070011D03*
X99815011Y-105911011D03*
D11*
X96640011Y-95243011D03*
%TO.N,Board_11-Net-(D1-Pad1)*%
X96894011Y-107054011D03*
X95878011Y-103371011D03*
X102924562Y-98229562D03*
%TO.N,Board_11-Net-(D2-Pad1)*%
X95243011Y-107181011D03*
X94227011Y-93719011D03*
%TO.N,Board_11-Net-(R6-Pad1)*%
X102482011Y-93592011D03*
X107181011Y-93719011D03*
D10*
%TO.N,Board_12-/+BATT*%
X125294016Y-105530011D03*
D11*
X127199016Y-94290511D03*
D10*
%TO.N,Board_12-/+CHARGE*%
X127072016Y-108070011D03*
X120468016Y-108070021D03*
D11*
%TO.N,Board_12-/-BATT*%
X119515516Y-92322011D03*
X123516016Y-92639511D03*
D12*
%TO.N,Board_12-/3v3_EN*%
X123897016Y-105276011D03*
%TO.N,Board_12-/STAT*%
X118309016Y-95370011D03*
D11*
X117293016Y-94227011D03*
D10*
%TO.N,Board_12-/VMAX*%
X122669072Y-102609011D03*
D12*
%TO.N,Board_12-GND*%
X120976016Y-99307011D03*
X118182016Y-99307011D03*
X119579016Y-100196011D03*
X119579016Y-98418011D03*
X120976016Y-100196011D03*
X118182016Y-98418011D03*
X120976016Y-98418011D03*
X118182016Y-100196011D03*
D11*
X115261016Y-107943011D03*
D12*
X121928516Y-98418011D03*
X121928516Y-99307011D03*
X121928516Y-100196011D03*
X117229516Y-100196011D03*
X117229516Y-99307011D03*
X117229516Y-98418011D03*
D11*
X119452016Y-94481011D03*
D13*
X127072016Y-103434511D03*
D12*
X122906416Y-98418011D03*
X122906416Y-99307011D03*
X122906416Y-100196011D03*
X116226216Y-100196011D03*
X116226216Y-99332411D03*
X116226216Y-98418011D03*
X117229516Y-101212011D03*
D10*
%TO.N,Board_12-Net-(C1-Pad1)*%
X118309016Y-108070011D03*
X120595016Y-105911011D03*
D11*
X117420016Y-95243011D03*
%TO.N,Board_12-Net-(D1-Pad1)*%
X117674016Y-107054011D03*
X116658016Y-103371011D03*
X123704567Y-98229562D03*
%TO.N,Board_12-Net-(D2-Pad1)*%
X116023016Y-107181011D03*
X115007016Y-93719011D03*
%TO.N,Board_12-Net-(R6-Pad1)*%
X123262016Y-93592011D03*
X127961016Y-93719011D03*
D10*
%TO.N,Board_13-/+BATT*%
X62954001Y-126310016D03*
D11*
X64859001Y-115070516D03*
D10*
%TO.N,Board_13-/+CHARGE*%
X64732001Y-128850016D03*
X58128001Y-128850026D03*
D11*
%TO.N,Board_13-/-BATT*%
X57175501Y-113102016D03*
X61176001Y-113419516D03*
D12*
%TO.N,Board_13-/3v3_EN*%
X61557001Y-126056016D03*
%TO.N,Board_13-/STAT*%
X55969001Y-116150016D03*
D11*
X54953001Y-115007016D03*
D10*
%TO.N,Board_13-/VMAX*%
X60329057Y-123389016D03*
D12*
%TO.N,Board_13-GND*%
X58636001Y-120087016D03*
X55842001Y-120087016D03*
X57239001Y-120976016D03*
X57239001Y-119198016D03*
X58636001Y-120976016D03*
X55842001Y-119198016D03*
X58636001Y-119198016D03*
X55842001Y-120976016D03*
D11*
X52921001Y-128723016D03*
D12*
X59588501Y-119198016D03*
X59588501Y-120087016D03*
X59588501Y-120976016D03*
X54889501Y-120976016D03*
X54889501Y-120087016D03*
X54889501Y-119198016D03*
D11*
X57112001Y-115261016D03*
D13*
X64732001Y-124214516D03*
D12*
X60566401Y-119198016D03*
X60566401Y-120087016D03*
X60566401Y-120976016D03*
X53886201Y-120976016D03*
X53886201Y-120112416D03*
X53886201Y-119198016D03*
X54889501Y-121992016D03*
D10*
%TO.N,Board_13-Net-(C1-Pad1)*%
X55969001Y-128850016D03*
X58255001Y-126691016D03*
D11*
X55080001Y-116023016D03*
%TO.N,Board_13-Net-(D1-Pad1)*%
X55334001Y-127834016D03*
X54318001Y-124151016D03*
X61364552Y-119009567D03*
%TO.N,Board_13-Net-(D2-Pad1)*%
X53683001Y-127961016D03*
X52667001Y-114499016D03*
%TO.N,Board_13-Net-(R6-Pad1)*%
X60922001Y-114372016D03*
X65621001Y-114499016D03*
D10*
%TO.N,Board_14-/+BATT*%
X83734006Y-126310016D03*
D11*
X85639006Y-115070516D03*
D10*
%TO.N,Board_14-/+CHARGE*%
X85512006Y-128850016D03*
X78908006Y-128850026D03*
D11*
%TO.N,Board_14-/-BATT*%
X77955506Y-113102016D03*
X81956006Y-113419516D03*
D12*
%TO.N,Board_14-/3v3_EN*%
X82337006Y-126056016D03*
%TO.N,Board_14-/STAT*%
X76749006Y-116150016D03*
D11*
X75733006Y-115007016D03*
D10*
%TO.N,Board_14-/VMAX*%
X81109062Y-123389016D03*
D12*
%TO.N,Board_14-GND*%
X79416006Y-120087016D03*
X76622006Y-120087016D03*
X78019006Y-120976016D03*
X78019006Y-119198016D03*
X79416006Y-120976016D03*
X76622006Y-119198016D03*
X79416006Y-119198016D03*
X76622006Y-120976016D03*
D11*
X73701006Y-128723016D03*
D12*
X80368506Y-119198016D03*
X80368506Y-120087016D03*
X80368506Y-120976016D03*
X75669506Y-120976016D03*
X75669506Y-120087016D03*
X75669506Y-119198016D03*
D11*
X77892006Y-115261016D03*
D13*
X85512006Y-124214516D03*
D12*
X81346406Y-119198016D03*
X81346406Y-120087016D03*
X81346406Y-120976016D03*
X74666206Y-120976016D03*
X74666206Y-120112416D03*
X74666206Y-119198016D03*
X75669506Y-121992016D03*
D10*
%TO.N,Board_14-Net-(C1-Pad1)*%
X76749006Y-128850016D03*
X79035006Y-126691016D03*
D11*
X75860006Y-116023016D03*
%TO.N,Board_14-Net-(D1-Pad1)*%
X76114006Y-127834016D03*
X75098006Y-124151016D03*
X82144557Y-119009567D03*
%TO.N,Board_14-Net-(D2-Pad1)*%
X74463006Y-127961016D03*
X73447006Y-114499016D03*
%TO.N,Board_14-Net-(R6-Pad1)*%
X81702006Y-114372016D03*
X86401006Y-114499016D03*
D10*
%TO.N,Board_15-/+BATT*%
X104514011Y-126310016D03*
D11*
X106419011Y-115070516D03*
D10*
%TO.N,Board_15-/+CHARGE*%
X106292011Y-128850016D03*
X99688011Y-128850026D03*
D11*
%TO.N,Board_15-/-BATT*%
X98735511Y-113102016D03*
X102736011Y-113419516D03*
D12*
%TO.N,Board_15-/3v3_EN*%
X103117011Y-126056016D03*
%TO.N,Board_15-/STAT*%
X97529011Y-116150016D03*
D11*
X96513011Y-115007016D03*
D10*
%TO.N,Board_15-/VMAX*%
X101889067Y-123389016D03*
D12*
%TO.N,Board_15-GND*%
X100196011Y-120087016D03*
X97402011Y-120087016D03*
X98799011Y-120976016D03*
X98799011Y-119198016D03*
X100196011Y-120976016D03*
X97402011Y-119198016D03*
X100196011Y-119198016D03*
X97402011Y-120976016D03*
D11*
X94481011Y-128723016D03*
D12*
X101148511Y-119198016D03*
X101148511Y-120087016D03*
X101148511Y-120976016D03*
X96449511Y-120976016D03*
X96449511Y-120087016D03*
X96449511Y-119198016D03*
D11*
X98672011Y-115261016D03*
D13*
X106292011Y-124214516D03*
D12*
X102126411Y-119198016D03*
X102126411Y-120087016D03*
X102126411Y-120976016D03*
X95446211Y-120976016D03*
X95446211Y-120112416D03*
X95446211Y-119198016D03*
X96449511Y-121992016D03*
D10*
%TO.N,Board_15-Net-(C1-Pad1)*%
X97529011Y-128850016D03*
X99815011Y-126691016D03*
D11*
X96640011Y-116023016D03*
%TO.N,Board_15-Net-(D1-Pad1)*%
X96894011Y-127834016D03*
X95878011Y-124151016D03*
X102924562Y-119009567D03*
%TO.N,Board_15-Net-(D2-Pad1)*%
X95243011Y-127961016D03*
X94227011Y-114499016D03*
%TO.N,Board_15-Net-(R6-Pad1)*%
X102482011Y-114372016D03*
X107181011Y-114499016D03*
D10*
%TO.N,Board_16-/+BATT*%
X125294016Y-126310016D03*
D11*
X127199016Y-115070516D03*
D10*
%TO.N,Board_16-/+CHARGE*%
X127072016Y-128850016D03*
X120468016Y-128850026D03*
D11*
%TO.N,Board_16-/-BATT*%
X119515516Y-113102016D03*
X123516016Y-113419516D03*
D12*
%TO.N,Board_16-/3v3_EN*%
X123897016Y-126056016D03*
%TO.N,Board_16-/STAT*%
X118309016Y-116150016D03*
D11*
X117293016Y-115007016D03*
D10*
%TO.N,Board_16-/VMAX*%
X122669072Y-123389016D03*
D12*
%TO.N,Board_16-GND*%
X120976016Y-120087016D03*
X118182016Y-120087016D03*
X119579016Y-120976016D03*
X119579016Y-119198016D03*
X120976016Y-120976016D03*
X118182016Y-119198016D03*
X120976016Y-119198016D03*
X118182016Y-120976016D03*
D11*
X115261016Y-128723016D03*
D12*
X121928516Y-119198016D03*
X121928516Y-120087016D03*
X121928516Y-120976016D03*
X117229516Y-120976016D03*
X117229516Y-120087016D03*
X117229516Y-119198016D03*
D11*
X119452016Y-115261016D03*
D13*
X127072016Y-124214516D03*
D12*
X122906416Y-119198016D03*
X122906416Y-120087016D03*
X122906416Y-120976016D03*
X116226216Y-120976016D03*
X116226216Y-120112416D03*
X116226216Y-119198016D03*
X117229516Y-121992016D03*
D10*
%TO.N,Board_16-Net-(C1-Pad1)*%
X118309016Y-128850016D03*
X120595016Y-126691016D03*
D11*
X117420016Y-116023016D03*
%TO.N,Board_16-Net-(D1-Pad1)*%
X117674016Y-127834016D03*
X116658016Y-124151016D03*
X123704567Y-119009567D03*
%TO.N,Board_16-Net-(D2-Pad1)*%
X116023016Y-127961016D03*
X115007016Y-114499016D03*
%TO.N,Board_16-Net-(R6-Pad1)*%
X123262016Y-114372016D03*
X127961016Y-114499016D03*
%TD*%
D14*
%TO.N,Board_1-/+CHARGE*%
X64732001Y-66510001D02*
X58128011Y-66510001D01*
X58128011Y-66510001D02*
X58128001Y-66510011D01*
D15*
%TO.N,Board_1-/-BATT*%
X57175501Y-50762001D02*
X57493001Y-51079501D01*
X57493001Y-51079501D02*
X61176001Y-51079501D01*
%TO.N,Board_1-/STAT*%
X55969001Y-53810001D02*
X55969001Y-53302001D01*
X55334001Y-52667001D02*
X54953001Y-52667001D01*
X55969001Y-53302001D02*
X55334001Y-52667001D01*
X55969001Y-53810001D02*
X59505853Y-53810001D01*
X59505853Y-53810001D02*
X62167752Y-56471900D01*
X62167752Y-56471900D02*
X62167752Y-57087752D01*
X62167752Y-57087752D02*
X66510001Y-61430001D01*
D14*
%TO.N,Board_1-/VMAX*%
X65037038Y-63970001D02*
X62116038Y-61049001D01*
X66510001Y-63970001D02*
X65037038Y-63970001D01*
X62116038Y-61049001D02*
X60329057Y-61049001D01*
%TO.N,Board_1-Net-(C1-Pad1)*%
X55969001Y-66510001D02*
X58128001Y-64351001D01*
X58128001Y-64351001D02*
X58255001Y-64351001D01*
D15*
X54064001Y-53683001D02*
X55080001Y-53683001D01*
X53302001Y-54445001D02*
X54064001Y-53683001D01*
X53302001Y-60541001D02*
X53302001Y-54445001D01*
X53810001Y-61049001D02*
X53302001Y-60541001D01*
X54953001Y-61049001D02*
X53810001Y-61049001D01*
X58255001Y-64351001D02*
X54953001Y-61049001D01*
%TO.N,Board_1-Net-(D1-Pad1)*%
X55334001Y-62827001D02*
X54318001Y-61811001D01*
X55334001Y-65494001D02*
X55334001Y-62827001D01*
%TO.N,Board_1-Net-(D2-Pad1)*%
X53683001Y-65621001D02*
X52667001Y-64605001D01*
X52667001Y-64605001D02*
X52667001Y-57620001D01*
X52667001Y-57620001D02*
X52667001Y-54318001D01*
X52667001Y-54318001D02*
X52667001Y-52159001D01*
%TO.N,Board_1-Net-(R6-Pad1)*%
X60922001Y-52032001D02*
X63842999Y-52032001D01*
X63842999Y-52032001D02*
X64541501Y-52032001D01*
X65494001Y-52032001D02*
X65621001Y-52159001D01*
X64541501Y-52032001D02*
X65494001Y-52032001D01*
D14*
%TO.N,Board_2-/+CHARGE*%
X85512006Y-66510001D02*
X78908016Y-66510001D01*
X78908016Y-66510001D02*
X78908006Y-66510011D01*
D15*
%TO.N,Board_2-/-BATT*%
X77955506Y-50762001D02*
X78273006Y-51079501D01*
X78273006Y-51079501D02*
X81956006Y-51079501D01*
%TO.N,Board_2-/STAT*%
X76749006Y-53810001D02*
X76749006Y-53302001D01*
X76114006Y-52667001D02*
X75733006Y-52667001D01*
X76749006Y-53302001D02*
X76114006Y-52667001D01*
X76749006Y-53810001D02*
X80285858Y-53810001D01*
X80285858Y-53810001D02*
X82947757Y-56471900D01*
X82947757Y-56471900D02*
X82947757Y-57087752D01*
X82947757Y-57087752D02*
X87290006Y-61430001D01*
D14*
%TO.N,Board_2-/VMAX*%
X85817043Y-63970001D02*
X82896043Y-61049001D01*
X87290006Y-63970001D02*
X85817043Y-63970001D01*
X82896043Y-61049001D02*
X81109062Y-61049001D01*
%TO.N,Board_2-Net-(C1-Pad1)*%
X76749006Y-66510001D02*
X78908006Y-64351001D01*
X78908006Y-64351001D02*
X79035006Y-64351001D01*
D15*
X74844006Y-53683001D02*
X75860006Y-53683001D01*
X74082006Y-54445001D02*
X74844006Y-53683001D01*
X74082006Y-60541001D02*
X74082006Y-54445001D01*
X74590006Y-61049001D02*
X74082006Y-60541001D01*
X75733006Y-61049001D02*
X74590006Y-61049001D01*
X79035006Y-64351001D02*
X75733006Y-61049001D01*
%TO.N,Board_2-Net-(D1-Pad1)*%
X76114006Y-62827001D02*
X75098006Y-61811001D01*
X76114006Y-65494001D02*
X76114006Y-62827001D01*
%TO.N,Board_2-Net-(D2-Pad1)*%
X74463006Y-65621001D02*
X73447006Y-64605001D01*
X73447006Y-64605001D02*
X73447006Y-57620001D01*
X73447006Y-57620001D02*
X73447006Y-54318001D01*
X73447006Y-54318001D02*
X73447006Y-52159001D01*
%TO.N,Board_2-Net-(R6-Pad1)*%
X81702006Y-52032001D02*
X84623004Y-52032001D01*
X84623004Y-52032001D02*
X85321506Y-52032001D01*
X86274006Y-52032001D02*
X86401006Y-52159001D01*
X85321506Y-52032001D02*
X86274006Y-52032001D01*
D14*
%TO.N,Board_3-/+CHARGE*%
X106292011Y-66510001D02*
X99688021Y-66510001D01*
X99688021Y-66510001D02*
X99688011Y-66510011D01*
D15*
%TO.N,Board_3-/-BATT*%
X98735511Y-50762001D02*
X99053011Y-51079501D01*
X99053011Y-51079501D02*
X102736011Y-51079501D01*
%TO.N,Board_3-/STAT*%
X97529011Y-53810001D02*
X97529011Y-53302001D01*
X96894011Y-52667001D02*
X96513011Y-52667001D01*
X97529011Y-53302001D02*
X96894011Y-52667001D01*
X97529011Y-53810001D02*
X101065863Y-53810001D01*
X101065863Y-53810001D02*
X103727762Y-56471900D01*
X103727762Y-56471900D02*
X103727762Y-57087752D01*
X103727762Y-57087752D02*
X108070011Y-61430001D01*
D14*
%TO.N,Board_3-/VMAX*%
X106597048Y-63970001D02*
X103676048Y-61049001D01*
X108070011Y-63970001D02*
X106597048Y-63970001D01*
X103676048Y-61049001D02*
X101889067Y-61049001D01*
%TO.N,Board_3-Net-(C1-Pad1)*%
X97529011Y-66510001D02*
X99688011Y-64351001D01*
X99688011Y-64351001D02*
X99815011Y-64351001D01*
D15*
X95624011Y-53683001D02*
X96640011Y-53683001D01*
X94862011Y-54445001D02*
X95624011Y-53683001D01*
X94862011Y-60541001D02*
X94862011Y-54445001D01*
X95370011Y-61049001D02*
X94862011Y-60541001D01*
X96513011Y-61049001D02*
X95370011Y-61049001D01*
X99815011Y-64351001D02*
X96513011Y-61049001D01*
%TO.N,Board_3-Net-(D1-Pad1)*%
X96894011Y-62827001D02*
X95878011Y-61811001D01*
X96894011Y-65494001D02*
X96894011Y-62827001D01*
%TO.N,Board_3-Net-(D2-Pad1)*%
X95243011Y-65621001D02*
X94227011Y-64605001D01*
X94227011Y-64605001D02*
X94227011Y-57620001D01*
X94227011Y-57620001D02*
X94227011Y-54318001D01*
X94227011Y-54318001D02*
X94227011Y-52159001D01*
%TO.N,Board_3-Net-(R6-Pad1)*%
X102482011Y-52032001D02*
X105403009Y-52032001D01*
X105403009Y-52032001D02*
X106101511Y-52032001D01*
X107054011Y-52032001D02*
X107181011Y-52159001D01*
X106101511Y-52032001D02*
X107054011Y-52032001D01*
D14*
%TO.N,Board_4-/+CHARGE*%
X127072016Y-66510001D02*
X120468026Y-66510001D01*
X120468026Y-66510001D02*
X120468016Y-66510011D01*
D15*
%TO.N,Board_4-/-BATT*%
X119515516Y-50762001D02*
X119833016Y-51079501D01*
X119833016Y-51079501D02*
X123516016Y-51079501D01*
%TO.N,Board_4-/STAT*%
X118309016Y-53810001D02*
X118309016Y-53302001D01*
X117674016Y-52667001D02*
X117293016Y-52667001D01*
X118309016Y-53302001D02*
X117674016Y-52667001D01*
X118309016Y-53810001D02*
X121845868Y-53810001D01*
X121845868Y-53810001D02*
X124507767Y-56471900D01*
X124507767Y-56471900D02*
X124507767Y-57087752D01*
X124507767Y-57087752D02*
X128850016Y-61430001D01*
D14*
%TO.N,Board_4-/VMAX*%
X127377053Y-63970001D02*
X124456053Y-61049001D01*
X128850016Y-63970001D02*
X127377053Y-63970001D01*
X124456053Y-61049001D02*
X122669072Y-61049001D01*
%TO.N,Board_4-Net-(C1-Pad1)*%
X118309016Y-66510001D02*
X120468016Y-64351001D01*
X120468016Y-64351001D02*
X120595016Y-64351001D01*
D15*
X116404016Y-53683001D02*
X117420016Y-53683001D01*
X115642016Y-54445001D02*
X116404016Y-53683001D01*
X115642016Y-60541001D02*
X115642016Y-54445001D01*
X116150016Y-61049001D02*
X115642016Y-60541001D01*
X117293016Y-61049001D02*
X116150016Y-61049001D01*
X120595016Y-64351001D02*
X117293016Y-61049001D01*
%TO.N,Board_4-Net-(D1-Pad1)*%
X117674016Y-62827001D02*
X116658016Y-61811001D01*
X117674016Y-65494001D02*
X117674016Y-62827001D01*
%TO.N,Board_4-Net-(D2-Pad1)*%
X116023016Y-65621001D02*
X115007016Y-64605001D01*
X115007016Y-64605001D02*
X115007016Y-57620001D01*
X115007016Y-57620001D02*
X115007016Y-54318001D01*
X115007016Y-54318001D02*
X115007016Y-52159001D01*
%TO.N,Board_4-Net-(R6-Pad1)*%
X123262016Y-52032001D02*
X126183014Y-52032001D01*
X126183014Y-52032001D02*
X126881516Y-52032001D01*
X127834016Y-52032001D02*
X127961016Y-52159001D01*
X126881516Y-52032001D02*
X127834016Y-52032001D01*
D14*
%TO.N,Board_5-/+CHARGE*%
X64732001Y-87290006D02*
X58128011Y-87290006D01*
X58128011Y-87290006D02*
X58128001Y-87290016D01*
D15*
%TO.N,Board_5-/-BATT*%
X57175501Y-71542006D02*
X57493001Y-71859506D01*
X57493001Y-71859506D02*
X61176001Y-71859506D01*
%TO.N,Board_5-/STAT*%
X55969001Y-74590006D02*
X55969001Y-74082006D01*
X55334001Y-73447006D02*
X54953001Y-73447006D01*
X55969001Y-74082006D02*
X55334001Y-73447006D01*
X55969001Y-74590006D02*
X59505853Y-74590006D01*
X59505853Y-74590006D02*
X62167752Y-77251905D01*
X62167752Y-77251905D02*
X62167752Y-77867757D01*
X62167752Y-77867757D02*
X66510001Y-82210006D01*
D14*
%TO.N,Board_5-/VMAX*%
X65037038Y-84750006D02*
X62116038Y-81829006D01*
X66510001Y-84750006D02*
X65037038Y-84750006D01*
X62116038Y-81829006D02*
X60329057Y-81829006D01*
%TO.N,Board_5-Net-(C1-Pad1)*%
X55969001Y-87290006D02*
X58128001Y-85131006D01*
X58128001Y-85131006D02*
X58255001Y-85131006D01*
D15*
X54064001Y-74463006D02*
X55080001Y-74463006D01*
X53302001Y-75225006D02*
X54064001Y-74463006D01*
X53302001Y-81321006D02*
X53302001Y-75225006D01*
X53810001Y-81829006D02*
X53302001Y-81321006D01*
X54953001Y-81829006D02*
X53810001Y-81829006D01*
X58255001Y-85131006D02*
X54953001Y-81829006D01*
%TO.N,Board_5-Net-(D1-Pad1)*%
X55334001Y-83607006D02*
X54318001Y-82591006D01*
X55334001Y-86274006D02*
X55334001Y-83607006D01*
%TO.N,Board_5-Net-(D2-Pad1)*%
X53683001Y-86401006D02*
X52667001Y-85385006D01*
X52667001Y-85385006D02*
X52667001Y-78400006D01*
X52667001Y-78400006D02*
X52667001Y-75098006D01*
X52667001Y-75098006D02*
X52667001Y-72939006D01*
%TO.N,Board_5-Net-(R6-Pad1)*%
X60922001Y-72812006D02*
X63842999Y-72812006D01*
X63842999Y-72812006D02*
X64541501Y-72812006D01*
X65494001Y-72812006D02*
X65621001Y-72939006D01*
X64541501Y-72812006D02*
X65494001Y-72812006D01*
D14*
%TO.N,Board_6-/+CHARGE*%
X85512006Y-87290006D02*
X78908016Y-87290006D01*
X78908016Y-87290006D02*
X78908006Y-87290016D01*
D15*
%TO.N,Board_6-/-BATT*%
X77955506Y-71542006D02*
X78273006Y-71859506D01*
X78273006Y-71859506D02*
X81956006Y-71859506D01*
%TO.N,Board_6-/STAT*%
X76749006Y-74590006D02*
X76749006Y-74082006D01*
X76114006Y-73447006D02*
X75733006Y-73447006D01*
X76749006Y-74082006D02*
X76114006Y-73447006D01*
X76749006Y-74590006D02*
X80285858Y-74590006D01*
X80285858Y-74590006D02*
X82947757Y-77251905D01*
X82947757Y-77251905D02*
X82947757Y-77867757D01*
X82947757Y-77867757D02*
X87290006Y-82210006D01*
D14*
%TO.N,Board_6-/VMAX*%
X85817043Y-84750006D02*
X82896043Y-81829006D01*
X87290006Y-84750006D02*
X85817043Y-84750006D01*
X82896043Y-81829006D02*
X81109062Y-81829006D01*
%TO.N,Board_6-Net-(C1-Pad1)*%
X76749006Y-87290006D02*
X78908006Y-85131006D01*
X78908006Y-85131006D02*
X79035006Y-85131006D01*
D15*
X74844006Y-74463006D02*
X75860006Y-74463006D01*
X74082006Y-75225006D02*
X74844006Y-74463006D01*
X74082006Y-81321006D02*
X74082006Y-75225006D01*
X74590006Y-81829006D02*
X74082006Y-81321006D01*
X75733006Y-81829006D02*
X74590006Y-81829006D01*
X79035006Y-85131006D02*
X75733006Y-81829006D01*
%TO.N,Board_6-Net-(D1-Pad1)*%
X76114006Y-83607006D02*
X75098006Y-82591006D01*
X76114006Y-86274006D02*
X76114006Y-83607006D01*
%TO.N,Board_6-Net-(D2-Pad1)*%
X74463006Y-86401006D02*
X73447006Y-85385006D01*
X73447006Y-85385006D02*
X73447006Y-78400006D01*
X73447006Y-78400006D02*
X73447006Y-75098006D01*
X73447006Y-75098006D02*
X73447006Y-72939006D01*
%TO.N,Board_6-Net-(R6-Pad1)*%
X81702006Y-72812006D02*
X84623004Y-72812006D01*
X84623004Y-72812006D02*
X85321506Y-72812006D01*
X86274006Y-72812006D02*
X86401006Y-72939006D01*
X85321506Y-72812006D02*
X86274006Y-72812006D01*
D14*
%TO.N,Board_7-/+CHARGE*%
X106292011Y-87290006D02*
X99688021Y-87290006D01*
X99688021Y-87290006D02*
X99688011Y-87290016D01*
D15*
%TO.N,Board_7-/-BATT*%
X98735511Y-71542006D02*
X99053011Y-71859506D01*
X99053011Y-71859506D02*
X102736011Y-71859506D01*
%TO.N,Board_7-/STAT*%
X97529011Y-74590006D02*
X97529011Y-74082006D01*
X96894011Y-73447006D02*
X96513011Y-73447006D01*
X97529011Y-74082006D02*
X96894011Y-73447006D01*
X97529011Y-74590006D02*
X101065863Y-74590006D01*
X101065863Y-74590006D02*
X103727762Y-77251905D01*
X103727762Y-77251905D02*
X103727762Y-77867757D01*
X103727762Y-77867757D02*
X108070011Y-82210006D01*
D14*
%TO.N,Board_7-/VMAX*%
X106597048Y-84750006D02*
X103676048Y-81829006D01*
X108070011Y-84750006D02*
X106597048Y-84750006D01*
X103676048Y-81829006D02*
X101889067Y-81829006D01*
%TO.N,Board_7-Net-(C1-Pad1)*%
X97529011Y-87290006D02*
X99688011Y-85131006D01*
X99688011Y-85131006D02*
X99815011Y-85131006D01*
D15*
X95624011Y-74463006D02*
X96640011Y-74463006D01*
X94862011Y-75225006D02*
X95624011Y-74463006D01*
X94862011Y-81321006D02*
X94862011Y-75225006D01*
X95370011Y-81829006D02*
X94862011Y-81321006D01*
X96513011Y-81829006D02*
X95370011Y-81829006D01*
X99815011Y-85131006D02*
X96513011Y-81829006D01*
%TO.N,Board_7-Net-(D1-Pad1)*%
X96894011Y-83607006D02*
X95878011Y-82591006D01*
X96894011Y-86274006D02*
X96894011Y-83607006D01*
%TO.N,Board_7-Net-(D2-Pad1)*%
X95243011Y-86401006D02*
X94227011Y-85385006D01*
X94227011Y-85385006D02*
X94227011Y-78400006D01*
X94227011Y-78400006D02*
X94227011Y-75098006D01*
X94227011Y-75098006D02*
X94227011Y-72939006D01*
%TO.N,Board_7-Net-(R6-Pad1)*%
X102482011Y-72812006D02*
X105403009Y-72812006D01*
X105403009Y-72812006D02*
X106101511Y-72812006D01*
X107054011Y-72812006D02*
X107181011Y-72939006D01*
X106101511Y-72812006D02*
X107054011Y-72812006D01*
D14*
%TO.N,Board_8-/+CHARGE*%
X127072016Y-87290006D02*
X120468026Y-87290006D01*
X120468026Y-87290006D02*
X120468016Y-87290016D01*
D15*
%TO.N,Board_8-/-BATT*%
X119515516Y-71542006D02*
X119833016Y-71859506D01*
X119833016Y-71859506D02*
X123516016Y-71859506D01*
%TO.N,Board_8-/STAT*%
X118309016Y-74590006D02*
X118309016Y-74082006D01*
X117674016Y-73447006D02*
X117293016Y-73447006D01*
X118309016Y-74082006D02*
X117674016Y-73447006D01*
X118309016Y-74590006D02*
X121845868Y-74590006D01*
X121845868Y-74590006D02*
X124507767Y-77251905D01*
X124507767Y-77251905D02*
X124507767Y-77867757D01*
X124507767Y-77867757D02*
X128850016Y-82210006D01*
D14*
%TO.N,Board_8-/VMAX*%
X127377053Y-84750006D02*
X124456053Y-81829006D01*
X128850016Y-84750006D02*
X127377053Y-84750006D01*
X124456053Y-81829006D02*
X122669072Y-81829006D01*
%TO.N,Board_8-Net-(C1-Pad1)*%
X118309016Y-87290006D02*
X120468016Y-85131006D01*
X120468016Y-85131006D02*
X120595016Y-85131006D01*
D15*
X116404016Y-74463006D02*
X117420016Y-74463006D01*
X115642016Y-75225006D02*
X116404016Y-74463006D01*
X115642016Y-81321006D02*
X115642016Y-75225006D01*
X116150016Y-81829006D02*
X115642016Y-81321006D01*
X117293016Y-81829006D02*
X116150016Y-81829006D01*
X120595016Y-85131006D02*
X117293016Y-81829006D01*
%TO.N,Board_8-Net-(D1-Pad1)*%
X117674016Y-83607006D02*
X116658016Y-82591006D01*
X117674016Y-86274006D02*
X117674016Y-83607006D01*
%TO.N,Board_8-Net-(D2-Pad1)*%
X116023016Y-86401006D02*
X115007016Y-85385006D01*
X115007016Y-85385006D02*
X115007016Y-78400006D01*
X115007016Y-78400006D02*
X115007016Y-75098006D01*
X115007016Y-75098006D02*
X115007016Y-72939006D01*
%TO.N,Board_8-Net-(R6-Pad1)*%
X123262016Y-72812006D02*
X126183014Y-72812006D01*
X126183014Y-72812006D02*
X126881516Y-72812006D01*
X127834016Y-72812006D02*
X127961016Y-72939006D01*
X126881516Y-72812006D02*
X127834016Y-72812006D01*
D14*
%TO.N,Board_9-/+CHARGE*%
X64732001Y-108070011D02*
X58128011Y-108070011D01*
X58128011Y-108070011D02*
X58128001Y-108070021D01*
D15*
%TO.N,Board_9-/-BATT*%
X57175501Y-92322011D02*
X57493001Y-92639511D01*
X57493001Y-92639511D02*
X61176001Y-92639511D01*
%TO.N,Board_9-/STAT*%
X55969001Y-95370011D02*
X55969001Y-94862011D01*
X55334001Y-94227011D02*
X54953001Y-94227011D01*
X55969001Y-94862011D02*
X55334001Y-94227011D01*
X55969001Y-95370011D02*
X59505853Y-95370011D01*
X59505853Y-95370011D02*
X62167752Y-98031910D01*
X62167752Y-98031910D02*
X62167752Y-98647762D01*
X62167752Y-98647762D02*
X66510001Y-102990011D01*
D14*
%TO.N,Board_9-/VMAX*%
X65037038Y-105530011D02*
X62116038Y-102609011D01*
X66510001Y-105530011D02*
X65037038Y-105530011D01*
X62116038Y-102609011D02*
X60329057Y-102609011D01*
%TO.N,Board_9-Net-(C1-Pad1)*%
X55969001Y-108070011D02*
X58128001Y-105911011D01*
X58128001Y-105911011D02*
X58255001Y-105911011D01*
D15*
X54064001Y-95243011D02*
X55080001Y-95243011D01*
X53302001Y-96005011D02*
X54064001Y-95243011D01*
X53302001Y-102101011D02*
X53302001Y-96005011D01*
X53810001Y-102609011D02*
X53302001Y-102101011D01*
X54953001Y-102609011D02*
X53810001Y-102609011D01*
X58255001Y-105911011D02*
X54953001Y-102609011D01*
%TO.N,Board_9-Net-(D1-Pad1)*%
X55334001Y-104387011D02*
X54318001Y-103371011D01*
X55334001Y-107054011D02*
X55334001Y-104387011D01*
%TO.N,Board_9-Net-(D2-Pad1)*%
X53683001Y-107181011D02*
X52667001Y-106165011D01*
X52667001Y-106165011D02*
X52667001Y-99180011D01*
X52667001Y-99180011D02*
X52667001Y-95878011D01*
X52667001Y-95878011D02*
X52667001Y-93719011D01*
%TO.N,Board_9-Net-(R6-Pad1)*%
X60922001Y-93592011D02*
X63842999Y-93592011D01*
X63842999Y-93592011D02*
X64541501Y-93592011D01*
X65494001Y-93592011D02*
X65621001Y-93719011D01*
X64541501Y-93592011D02*
X65494001Y-93592011D01*
D14*
%TO.N,Board_10-/+CHARGE*%
X85512006Y-108070011D02*
X78908016Y-108070011D01*
X78908016Y-108070011D02*
X78908006Y-108070021D01*
D15*
%TO.N,Board_10-/-BATT*%
X77955506Y-92322011D02*
X78273006Y-92639511D01*
X78273006Y-92639511D02*
X81956006Y-92639511D01*
%TO.N,Board_10-/STAT*%
X76749006Y-95370011D02*
X76749006Y-94862011D01*
X76114006Y-94227011D02*
X75733006Y-94227011D01*
X76749006Y-94862011D02*
X76114006Y-94227011D01*
X76749006Y-95370011D02*
X80285858Y-95370011D01*
X80285858Y-95370011D02*
X82947757Y-98031910D01*
X82947757Y-98031910D02*
X82947757Y-98647762D01*
X82947757Y-98647762D02*
X87290006Y-102990011D01*
D14*
%TO.N,Board_10-/VMAX*%
X85817043Y-105530011D02*
X82896043Y-102609011D01*
X87290006Y-105530011D02*
X85817043Y-105530011D01*
X82896043Y-102609011D02*
X81109062Y-102609011D01*
%TO.N,Board_10-Net-(C1-Pad1)*%
X76749006Y-108070011D02*
X78908006Y-105911011D01*
X78908006Y-105911011D02*
X79035006Y-105911011D01*
D15*
X74844006Y-95243011D02*
X75860006Y-95243011D01*
X74082006Y-96005011D02*
X74844006Y-95243011D01*
X74082006Y-102101011D02*
X74082006Y-96005011D01*
X74590006Y-102609011D02*
X74082006Y-102101011D01*
X75733006Y-102609011D02*
X74590006Y-102609011D01*
X79035006Y-105911011D02*
X75733006Y-102609011D01*
%TO.N,Board_10-Net-(D1-Pad1)*%
X76114006Y-104387011D02*
X75098006Y-103371011D01*
X76114006Y-107054011D02*
X76114006Y-104387011D01*
%TO.N,Board_10-Net-(D2-Pad1)*%
X74463006Y-107181011D02*
X73447006Y-106165011D01*
X73447006Y-106165011D02*
X73447006Y-99180011D01*
X73447006Y-99180011D02*
X73447006Y-95878011D01*
X73447006Y-95878011D02*
X73447006Y-93719011D01*
%TO.N,Board_10-Net-(R6-Pad1)*%
X81702006Y-93592011D02*
X84623004Y-93592011D01*
X84623004Y-93592011D02*
X85321506Y-93592011D01*
X86274006Y-93592011D02*
X86401006Y-93719011D01*
X85321506Y-93592011D02*
X86274006Y-93592011D01*
D14*
%TO.N,Board_11-/+CHARGE*%
X106292011Y-108070011D02*
X99688021Y-108070011D01*
X99688021Y-108070011D02*
X99688011Y-108070021D01*
D15*
%TO.N,Board_11-/-BATT*%
X98735511Y-92322011D02*
X99053011Y-92639511D01*
X99053011Y-92639511D02*
X102736011Y-92639511D01*
%TO.N,Board_11-/STAT*%
X97529011Y-95370011D02*
X97529011Y-94862011D01*
X96894011Y-94227011D02*
X96513011Y-94227011D01*
X97529011Y-94862011D02*
X96894011Y-94227011D01*
X97529011Y-95370011D02*
X101065863Y-95370011D01*
X101065863Y-95370011D02*
X103727762Y-98031910D01*
X103727762Y-98031910D02*
X103727762Y-98647762D01*
X103727762Y-98647762D02*
X108070011Y-102990011D01*
D14*
%TO.N,Board_11-/VMAX*%
X106597048Y-105530011D02*
X103676048Y-102609011D01*
X108070011Y-105530011D02*
X106597048Y-105530011D01*
X103676048Y-102609011D02*
X101889067Y-102609011D01*
%TO.N,Board_11-Net-(C1-Pad1)*%
X97529011Y-108070011D02*
X99688011Y-105911011D01*
X99688011Y-105911011D02*
X99815011Y-105911011D01*
D15*
X95624011Y-95243011D02*
X96640011Y-95243011D01*
X94862011Y-96005011D02*
X95624011Y-95243011D01*
X94862011Y-102101011D02*
X94862011Y-96005011D01*
X95370011Y-102609011D02*
X94862011Y-102101011D01*
X96513011Y-102609011D02*
X95370011Y-102609011D01*
X99815011Y-105911011D02*
X96513011Y-102609011D01*
%TO.N,Board_11-Net-(D1-Pad1)*%
X96894011Y-104387011D02*
X95878011Y-103371011D01*
X96894011Y-107054011D02*
X96894011Y-104387011D01*
%TO.N,Board_11-Net-(D2-Pad1)*%
X95243011Y-107181011D02*
X94227011Y-106165011D01*
X94227011Y-106165011D02*
X94227011Y-99180011D01*
X94227011Y-99180011D02*
X94227011Y-95878011D01*
X94227011Y-95878011D02*
X94227011Y-93719011D01*
%TO.N,Board_11-Net-(R6-Pad1)*%
X102482011Y-93592011D02*
X105403009Y-93592011D01*
X105403009Y-93592011D02*
X106101511Y-93592011D01*
X107054011Y-93592011D02*
X107181011Y-93719011D01*
X106101511Y-93592011D02*
X107054011Y-93592011D01*
D14*
%TO.N,Board_12-/+CHARGE*%
X127072016Y-108070011D02*
X120468026Y-108070011D01*
X120468026Y-108070011D02*
X120468016Y-108070021D01*
D15*
%TO.N,Board_12-/-BATT*%
X119515516Y-92322011D02*
X119833016Y-92639511D01*
X119833016Y-92639511D02*
X123516016Y-92639511D01*
%TO.N,Board_12-/STAT*%
X118309016Y-95370011D02*
X118309016Y-94862011D01*
X117674016Y-94227011D02*
X117293016Y-94227011D01*
X118309016Y-94862011D02*
X117674016Y-94227011D01*
X118309016Y-95370011D02*
X121845868Y-95370011D01*
X121845868Y-95370011D02*
X124507767Y-98031910D01*
X124507767Y-98031910D02*
X124507767Y-98647762D01*
X124507767Y-98647762D02*
X128850016Y-102990011D01*
D14*
%TO.N,Board_12-/VMAX*%
X127377053Y-105530011D02*
X124456053Y-102609011D01*
X128850016Y-105530011D02*
X127377053Y-105530011D01*
X124456053Y-102609011D02*
X122669072Y-102609011D01*
%TO.N,Board_12-Net-(C1-Pad1)*%
X118309016Y-108070011D02*
X120468016Y-105911011D01*
X120468016Y-105911011D02*
X120595016Y-105911011D01*
D15*
X116404016Y-95243011D02*
X117420016Y-95243011D01*
X115642016Y-96005011D02*
X116404016Y-95243011D01*
X115642016Y-102101011D02*
X115642016Y-96005011D01*
X116150016Y-102609011D02*
X115642016Y-102101011D01*
X117293016Y-102609011D02*
X116150016Y-102609011D01*
X120595016Y-105911011D02*
X117293016Y-102609011D01*
%TO.N,Board_12-Net-(D1-Pad1)*%
X117674016Y-104387011D02*
X116658016Y-103371011D01*
X117674016Y-107054011D02*
X117674016Y-104387011D01*
%TO.N,Board_12-Net-(D2-Pad1)*%
X116023016Y-107181011D02*
X115007016Y-106165011D01*
X115007016Y-106165011D02*
X115007016Y-99180011D01*
X115007016Y-99180011D02*
X115007016Y-95878011D01*
X115007016Y-95878011D02*
X115007016Y-93719011D01*
%TO.N,Board_12-Net-(R6-Pad1)*%
X123262016Y-93592011D02*
X126183014Y-93592011D01*
X126183014Y-93592011D02*
X126881516Y-93592011D01*
X127834016Y-93592011D02*
X127961016Y-93719011D01*
X126881516Y-93592011D02*
X127834016Y-93592011D01*
D14*
%TO.N,Board_13-/+CHARGE*%
X64732001Y-128850016D02*
X58128011Y-128850016D01*
X58128011Y-128850016D02*
X58128001Y-128850026D01*
D15*
%TO.N,Board_13-/-BATT*%
X57175501Y-113102016D02*
X57493001Y-113419516D01*
X57493001Y-113419516D02*
X61176001Y-113419516D01*
%TO.N,Board_13-/STAT*%
X55969001Y-116150016D02*
X55969001Y-115642016D01*
X55334001Y-115007016D02*
X54953001Y-115007016D01*
X55969001Y-115642016D02*
X55334001Y-115007016D01*
X55969001Y-116150016D02*
X59505853Y-116150016D01*
X59505853Y-116150016D02*
X62167752Y-118811915D01*
X62167752Y-118811915D02*
X62167752Y-119427767D01*
X62167752Y-119427767D02*
X66510001Y-123770016D01*
D14*
%TO.N,Board_13-/VMAX*%
X65037038Y-126310016D02*
X62116038Y-123389016D01*
X66510001Y-126310016D02*
X65037038Y-126310016D01*
X62116038Y-123389016D02*
X60329057Y-123389016D01*
%TO.N,Board_13-Net-(C1-Pad1)*%
X55969001Y-128850016D02*
X58128001Y-126691016D01*
X58128001Y-126691016D02*
X58255001Y-126691016D01*
D15*
X54064001Y-116023016D02*
X55080001Y-116023016D01*
X53302001Y-116785016D02*
X54064001Y-116023016D01*
X53302001Y-122881016D02*
X53302001Y-116785016D01*
X53810001Y-123389016D02*
X53302001Y-122881016D01*
X54953001Y-123389016D02*
X53810001Y-123389016D01*
X58255001Y-126691016D02*
X54953001Y-123389016D01*
%TO.N,Board_13-Net-(D1-Pad1)*%
X55334001Y-125167016D02*
X54318001Y-124151016D01*
X55334001Y-127834016D02*
X55334001Y-125167016D01*
%TO.N,Board_13-Net-(D2-Pad1)*%
X53683001Y-127961016D02*
X52667001Y-126945016D01*
X52667001Y-126945016D02*
X52667001Y-119960016D01*
X52667001Y-119960016D02*
X52667001Y-116658016D01*
X52667001Y-116658016D02*
X52667001Y-114499016D01*
%TO.N,Board_13-Net-(R6-Pad1)*%
X60922001Y-114372016D02*
X63842999Y-114372016D01*
X63842999Y-114372016D02*
X64541501Y-114372016D01*
X65494001Y-114372016D02*
X65621001Y-114499016D01*
X64541501Y-114372016D02*
X65494001Y-114372016D01*
D14*
%TO.N,Board_14-/+CHARGE*%
X85512006Y-128850016D02*
X78908016Y-128850016D01*
X78908016Y-128850016D02*
X78908006Y-128850026D01*
D15*
%TO.N,Board_14-/-BATT*%
X77955506Y-113102016D02*
X78273006Y-113419516D01*
X78273006Y-113419516D02*
X81956006Y-113419516D01*
%TO.N,Board_14-/STAT*%
X76749006Y-116150016D02*
X76749006Y-115642016D01*
X76114006Y-115007016D02*
X75733006Y-115007016D01*
X76749006Y-115642016D02*
X76114006Y-115007016D01*
X76749006Y-116150016D02*
X80285858Y-116150016D01*
X80285858Y-116150016D02*
X82947757Y-118811915D01*
X82947757Y-118811915D02*
X82947757Y-119427767D01*
X82947757Y-119427767D02*
X87290006Y-123770016D01*
D14*
%TO.N,Board_14-/VMAX*%
X85817043Y-126310016D02*
X82896043Y-123389016D01*
X87290006Y-126310016D02*
X85817043Y-126310016D01*
X82896043Y-123389016D02*
X81109062Y-123389016D01*
%TO.N,Board_14-Net-(C1-Pad1)*%
X76749006Y-128850016D02*
X78908006Y-126691016D01*
X78908006Y-126691016D02*
X79035006Y-126691016D01*
D15*
X74844006Y-116023016D02*
X75860006Y-116023016D01*
X74082006Y-116785016D02*
X74844006Y-116023016D01*
X74082006Y-122881016D02*
X74082006Y-116785016D01*
X74590006Y-123389016D02*
X74082006Y-122881016D01*
X75733006Y-123389016D02*
X74590006Y-123389016D01*
X79035006Y-126691016D02*
X75733006Y-123389016D01*
%TO.N,Board_14-Net-(D1-Pad1)*%
X76114006Y-125167016D02*
X75098006Y-124151016D01*
X76114006Y-127834016D02*
X76114006Y-125167016D01*
%TO.N,Board_14-Net-(D2-Pad1)*%
X74463006Y-127961016D02*
X73447006Y-126945016D01*
X73447006Y-126945016D02*
X73447006Y-119960016D01*
X73447006Y-119960016D02*
X73447006Y-116658016D01*
X73447006Y-116658016D02*
X73447006Y-114499016D01*
%TO.N,Board_14-Net-(R6-Pad1)*%
X81702006Y-114372016D02*
X84623004Y-114372016D01*
X84623004Y-114372016D02*
X85321506Y-114372016D01*
X86274006Y-114372016D02*
X86401006Y-114499016D01*
X85321506Y-114372016D02*
X86274006Y-114372016D01*
D14*
%TO.N,Board_15-/+CHARGE*%
X106292011Y-128850016D02*
X99688021Y-128850016D01*
X99688021Y-128850016D02*
X99688011Y-128850026D01*
D15*
%TO.N,Board_15-/-BATT*%
X98735511Y-113102016D02*
X99053011Y-113419516D01*
X99053011Y-113419516D02*
X102736011Y-113419516D01*
%TO.N,Board_15-/STAT*%
X97529011Y-116150016D02*
X97529011Y-115642016D01*
X96894011Y-115007016D02*
X96513011Y-115007016D01*
X97529011Y-115642016D02*
X96894011Y-115007016D01*
X97529011Y-116150016D02*
X101065863Y-116150016D01*
X101065863Y-116150016D02*
X103727762Y-118811915D01*
X103727762Y-118811915D02*
X103727762Y-119427767D01*
X103727762Y-119427767D02*
X108070011Y-123770016D01*
D14*
%TO.N,Board_15-/VMAX*%
X106597048Y-126310016D02*
X103676048Y-123389016D01*
X108070011Y-126310016D02*
X106597048Y-126310016D01*
X103676048Y-123389016D02*
X101889067Y-123389016D01*
%TO.N,Board_15-Net-(C1-Pad1)*%
X97529011Y-128850016D02*
X99688011Y-126691016D01*
X99688011Y-126691016D02*
X99815011Y-126691016D01*
D15*
X95624011Y-116023016D02*
X96640011Y-116023016D01*
X94862011Y-116785016D02*
X95624011Y-116023016D01*
X94862011Y-122881016D02*
X94862011Y-116785016D01*
X95370011Y-123389016D02*
X94862011Y-122881016D01*
X96513011Y-123389016D02*
X95370011Y-123389016D01*
X99815011Y-126691016D02*
X96513011Y-123389016D01*
%TO.N,Board_15-Net-(D1-Pad1)*%
X96894011Y-125167016D02*
X95878011Y-124151016D01*
X96894011Y-127834016D02*
X96894011Y-125167016D01*
%TO.N,Board_15-Net-(D2-Pad1)*%
X95243011Y-127961016D02*
X94227011Y-126945016D01*
X94227011Y-126945016D02*
X94227011Y-119960016D01*
X94227011Y-119960016D02*
X94227011Y-116658016D01*
X94227011Y-116658016D02*
X94227011Y-114499016D01*
%TO.N,Board_15-Net-(R6-Pad1)*%
X102482011Y-114372016D02*
X105403009Y-114372016D01*
X105403009Y-114372016D02*
X106101511Y-114372016D01*
X107054011Y-114372016D02*
X107181011Y-114499016D01*
X106101511Y-114372016D02*
X107054011Y-114372016D01*
D14*
%TO.N,Board_16-/+CHARGE*%
X127072016Y-128850016D02*
X120468026Y-128850016D01*
X120468026Y-128850016D02*
X120468016Y-128850026D01*
D15*
%TO.N,Board_16-/-BATT*%
X119515516Y-113102016D02*
X119833016Y-113419516D01*
X119833016Y-113419516D02*
X123516016Y-113419516D01*
%TO.N,Board_16-/STAT*%
X118309016Y-116150016D02*
X118309016Y-115642016D01*
X117674016Y-115007016D02*
X117293016Y-115007016D01*
X118309016Y-115642016D02*
X117674016Y-115007016D01*
X118309016Y-116150016D02*
X121845868Y-116150016D01*
X121845868Y-116150016D02*
X124507767Y-118811915D01*
X124507767Y-118811915D02*
X124507767Y-119427767D01*
X124507767Y-119427767D02*
X128850016Y-123770016D01*
D14*
%TO.N,Board_16-/VMAX*%
X127377053Y-126310016D02*
X124456053Y-123389016D01*
X128850016Y-126310016D02*
X127377053Y-126310016D01*
X124456053Y-123389016D02*
X122669072Y-123389016D01*
%TO.N,Board_16-Net-(C1-Pad1)*%
X118309016Y-128850016D02*
X120468016Y-126691016D01*
X120468016Y-126691016D02*
X120595016Y-126691016D01*
D15*
X116404016Y-116023016D02*
X117420016Y-116023016D01*
X115642016Y-116785016D02*
X116404016Y-116023016D01*
X115642016Y-122881016D02*
X115642016Y-116785016D01*
X116150016Y-123389016D02*
X115642016Y-122881016D01*
X117293016Y-123389016D02*
X116150016Y-123389016D01*
X120595016Y-126691016D02*
X117293016Y-123389016D01*
%TO.N,Board_16-Net-(D1-Pad1)*%
X117674016Y-125167016D02*
X116658016Y-124151016D01*
X117674016Y-127834016D02*
X117674016Y-125167016D01*
%TO.N,Board_16-Net-(D2-Pad1)*%
X116023016Y-127961016D02*
X115007016Y-126945016D01*
X115007016Y-126945016D02*
X115007016Y-119960016D01*
X115007016Y-119960016D02*
X115007016Y-116658016D01*
X115007016Y-116658016D02*
X115007016Y-114499016D01*
%TO.N,Board_16-Net-(R6-Pad1)*%
X123262016Y-114372016D02*
X126183014Y-114372016D01*
X126183014Y-114372016D02*
X126881516Y-114372016D01*
X127834016Y-114372016D02*
X127961016Y-114499016D01*
X126881516Y-114372016D02*
X127834016Y-114372016D01*
%TD*%
M02*
