M48
; DRILL file {KiCad 5.1.8} date Mon Nov 30 19:23:41 2020
; FORMAT={-:-/ absolute / inch / decimal}
; #@! TF.CreationDate,2020-11-30T19:23:41+01:00
; #@! TF.GenerationSoftware,Kicad,Pcbnew,5.1.8
FMAT,2
INCH
T1C0.0079
T2C0.0125
T3C0.0394
T4C0.0197
%
G90
G05
T1
X2.1215Y-2.2745
X2.1215Y-2.3085
X2.1215Y-3.0926
X2.1215Y-3.1266
X2.1215Y-3.9107
X2.1215Y-3.9447
X2.1215Y-4.7288
X2.1215Y-4.7628
X2.1415Y-2.3385
X2.1415Y-3.1566
X2.1415Y-3.9747
X2.1415Y-4.7928
X2.161Y-2.2385
X2.161Y-2.2735
X2.161Y-2.3085
X2.161Y-3.0566
X2.161Y-3.0916
X2.161Y-3.1266
X2.161Y-3.8747
X2.161Y-3.9097
X2.161Y-3.9447
X2.161Y-4.6928
X2.161Y-4.7278
X2.161Y-4.7628
X2.181Y-2.3385
X2.181Y-3.1566
X2.181Y-3.9747
X2.181Y-4.7928
X2.1985Y-2.2385
X2.1985Y-2.2735
X2.1985Y-2.3085
X2.1985Y-3.0566
X2.1985Y-3.0916
X2.1985Y-3.1266
X2.1985Y-3.8747
X2.1985Y-3.9097
X2.1985Y-3.9447
X2.1985Y-4.6928
X2.1985Y-4.7278
X2.1985Y-4.7628
X2.2035Y-2.1185
X2.2035Y-2.9366
X2.2035Y-3.7547
X2.2035Y-4.5728
X2.2535Y-2.2385
X2.2535Y-2.3085
X2.2535Y-3.0566
X2.2535Y-3.1266
X2.2535Y-3.8747
X2.2535Y-3.9447
X2.2535Y-4.6928
X2.2535Y-4.7628
X2.3085Y-2.2385
X2.3085Y-2.2735
X2.3085Y-2.3085
X2.3085Y-3.0566
X2.3085Y-3.0916
X2.3085Y-3.1266
X2.3085Y-3.8747
X2.3085Y-3.9097
X2.3085Y-3.9447
X2.3085Y-4.6928
X2.3085Y-4.7278
X2.3085Y-4.7628
X2.346Y-2.2385
X2.346Y-2.2735
X2.346Y-2.3085
X2.346Y-3.0566
X2.346Y-3.0916
X2.346Y-3.1266
X2.346Y-3.8747
X2.346Y-3.9097
X2.346Y-3.9447
X2.346Y-4.6928
X2.346Y-4.7278
X2.346Y-4.7628
X2.3735Y-2.606
X2.3735Y-2.641
X2.3735Y-3.4241
X2.3735Y-3.4591
X2.3735Y-4.2422
X2.3735Y-4.2772
X2.3735Y-5.0603
X2.3735Y-5.0953
X2.381Y-2.296
X2.381Y-3.1141
X2.381Y-3.9322
X2.381Y-4.7503
X2.3845Y-2.2385
X2.3845Y-3.0566
X2.3845Y-3.8747
X2.3845Y-4.6928
X2.4235Y-2.5085
X2.4235Y-3.3266
X2.4235Y-4.1447
X2.4235Y-4.9628
X2.426Y-2.366
X2.426Y-3.1841
X2.426Y-4.0022
X2.426Y-4.8203
X2.4435Y-2.2985
X2.4435Y-3.1166
X2.4435Y-3.9347
X2.4435Y-4.7528
X2.4585Y-2.6135
X2.4585Y-2.646
X2.4585Y-3.4316
X2.4585Y-3.4641
X2.4585Y-4.2497
X2.4585Y-4.2822
X2.4585Y-5.0678
X2.4585Y-5.1003
X2.4935Y-2.2985
X2.4935Y-3.1166
X2.4935Y-3.9347
X2.4935Y-4.7528
X2.9396Y-2.2745
X2.9396Y-2.3085
X2.9396Y-3.0926
X2.9396Y-3.1266
X2.9396Y-3.9107
X2.9396Y-3.9447
X2.9396Y-4.7288
X2.9396Y-4.7628
X2.9596Y-2.3385
X2.9596Y-3.1566
X2.9596Y-3.9747
X2.9596Y-4.7928
X2.9791Y-2.2385
X2.9791Y-2.2735
X2.9791Y-2.3085
X2.9791Y-3.0566
X2.9791Y-3.0916
X2.9791Y-3.1266
X2.9791Y-3.8747
X2.9791Y-3.9097
X2.9791Y-3.9447
X2.9791Y-4.6928
X2.9791Y-4.7278
X2.9791Y-4.7628
X2.9991Y-2.3385
X2.9991Y-3.1566
X2.9991Y-3.9747
X2.9991Y-4.7928
X3.0166Y-2.2385
X3.0166Y-2.2735
X3.0166Y-2.3085
X3.0166Y-3.0566
X3.0166Y-3.0916
X3.0166Y-3.1266
X3.0166Y-3.8747
X3.0166Y-3.9097
X3.0166Y-3.9447
X3.0166Y-4.6928
X3.0166Y-4.7278
X3.0166Y-4.7628
X3.0216Y-2.1185
X3.0216Y-2.9366
X3.0216Y-3.7547
X3.0216Y-4.5728
X3.0716Y-2.2385
X3.0716Y-2.3085
X3.0716Y-3.0566
X3.0716Y-3.1266
X3.0716Y-3.8747
X3.0716Y-3.9447
X3.0716Y-4.6928
X3.0716Y-4.7628
X3.1266Y-2.2385
X3.1266Y-2.2735
X3.1266Y-2.3085
X3.1266Y-3.0566
X3.1266Y-3.0916
X3.1266Y-3.1266
X3.1266Y-3.8747
X3.1266Y-3.9097
X3.1266Y-3.9447
X3.1266Y-4.6928
X3.1266Y-4.7278
X3.1266Y-4.7628
X3.1641Y-2.2385
X3.1641Y-2.2735
X3.1641Y-2.3085
X3.1641Y-3.0566
X3.1641Y-3.0916
X3.1641Y-3.1266
X3.1641Y-3.8747
X3.1641Y-3.9097
X3.1641Y-3.9447
X3.1641Y-4.6928
X3.1641Y-4.7278
X3.1641Y-4.7628
X3.1916Y-2.606
X3.1916Y-2.641
X3.1916Y-3.4241
X3.1916Y-3.4591
X3.1916Y-4.2422
X3.1916Y-4.2772
X3.1916Y-5.0603
X3.1916Y-5.0953
X3.1991Y-2.296
X3.1991Y-3.1141
X3.1991Y-3.9322
X3.1991Y-4.7503
X3.2026Y-2.2385
X3.2026Y-3.0566
X3.2026Y-3.8747
X3.2026Y-4.6928
X3.2416Y-2.5085
X3.2416Y-3.3266
X3.2416Y-4.1447
X3.2416Y-4.9628
X3.2441Y-2.366
X3.2441Y-3.1841
X3.2441Y-4.0022
X3.2441Y-4.8203
X3.2616Y-2.2985
X3.2616Y-3.1166
X3.2616Y-3.9347
X3.2616Y-4.7528
X3.2766Y-2.6135
X3.2766Y-2.646
X3.2766Y-3.4316
X3.2766Y-3.4641
X3.2766Y-4.2497
X3.2766Y-4.2822
X3.2766Y-5.0678
X3.2766Y-5.1003
X3.3116Y-2.2985
X3.3116Y-3.1166
X3.3116Y-3.9347
X3.3116Y-4.7528
X3.7577Y-2.2745
X3.7577Y-2.3085
X3.7577Y-3.0926
X3.7577Y-3.1266
X3.7577Y-3.9107
X3.7577Y-3.9447
X3.7577Y-4.7288
X3.7577Y-4.7628
X3.7777Y-2.3385
X3.7777Y-3.1566
X3.7777Y-3.9747
X3.7777Y-4.7928
X3.7972Y-2.2385
X3.7972Y-2.2735
X3.7972Y-2.3085
X3.7972Y-3.0566
X3.7972Y-3.0916
X3.7972Y-3.1266
X3.7972Y-3.8747
X3.7972Y-3.9097
X3.7972Y-3.9447
X3.7972Y-4.6928
X3.7972Y-4.7278
X3.7972Y-4.7628
X3.8172Y-2.3385
X3.8172Y-3.1566
X3.8172Y-3.9747
X3.8172Y-4.7928
X3.8347Y-2.2385
X3.8347Y-2.2735
X3.8347Y-2.3085
X3.8347Y-3.0566
X3.8347Y-3.0916
X3.8347Y-3.1266
X3.8347Y-3.8747
X3.8347Y-3.9097
X3.8347Y-3.9447
X3.8347Y-4.6928
X3.8347Y-4.7278
X3.8347Y-4.7628
X3.8397Y-2.1185
X3.8397Y-2.9366
X3.8397Y-3.7547
X3.8397Y-4.5728
X3.8897Y-2.2385
X3.8897Y-2.3085
X3.8897Y-3.0566
X3.8897Y-3.1266
X3.8897Y-3.8747
X3.8897Y-3.9447
X3.8897Y-4.6928
X3.8897Y-4.7628
X3.9447Y-2.2385
X3.9447Y-2.2735
X3.9447Y-2.3085
X3.9447Y-3.0566
X3.9447Y-3.0916
X3.9447Y-3.1266
X3.9447Y-3.8747
X3.9447Y-3.9097
X3.9447Y-3.9447
X3.9447Y-4.6928
X3.9447Y-4.7278
X3.9447Y-4.7628
X3.9822Y-2.2385
X3.9822Y-2.2735
X3.9822Y-2.3085
X3.9822Y-3.0566
X3.9822Y-3.0916
X3.9822Y-3.1266
X3.9822Y-3.8747
X3.9822Y-3.9097
X3.9822Y-3.9447
X3.9822Y-4.6928
X3.9822Y-4.7278
X3.9822Y-4.7628
X4.0097Y-2.606
X4.0097Y-2.641
X4.0097Y-3.4241
X4.0097Y-3.4591
X4.0097Y-4.2422
X4.0097Y-4.2772
X4.0097Y-5.0603
X4.0097Y-5.0953
X4.0172Y-2.296
X4.0172Y-3.1141
X4.0172Y-3.9322
X4.0172Y-4.7503
X4.0207Y-2.2385
X4.0207Y-3.0566
X4.0207Y-3.8747
X4.0207Y-4.6928
X4.0597Y-2.5085
X4.0597Y-3.3266
X4.0597Y-4.1447
X4.0597Y-4.9628
X4.0622Y-2.366
X4.0622Y-3.1841
X4.0622Y-4.0022
X4.0622Y-4.8203
X4.0797Y-2.2985
X4.0797Y-3.1166
X4.0797Y-3.9347
X4.0797Y-4.7528
X4.0947Y-2.6135
X4.0947Y-2.646
X4.0947Y-3.4316
X4.0947Y-3.4641
X4.0947Y-4.2497
X4.0947Y-4.2822
X4.0947Y-5.0678
X4.0947Y-5.1003
X4.1297Y-2.2985
X4.1297Y-3.1166
X4.1297Y-3.9347
X4.1297Y-4.7528
X4.5758Y-2.2745
X4.5758Y-2.3085
X4.5758Y-3.0926
X4.5758Y-3.1266
X4.5758Y-3.9107
X4.5758Y-3.9447
X4.5758Y-4.7288
X4.5758Y-4.7628
X4.5958Y-2.3385
X4.5958Y-3.1566
X4.5958Y-3.9747
X4.5958Y-4.7928
X4.6153Y-2.2385
X4.6153Y-2.2735
X4.6153Y-2.3085
X4.6153Y-3.0566
X4.6153Y-3.0916
X4.6153Y-3.1266
X4.6153Y-3.8747
X4.6153Y-3.9097
X4.6153Y-3.9447
X4.6153Y-4.6928
X4.6153Y-4.7278
X4.6153Y-4.7628
X4.6353Y-2.3385
X4.6353Y-3.1566
X4.6353Y-3.9747
X4.6353Y-4.7928
X4.6528Y-2.2385
X4.6528Y-2.2735
X4.6528Y-2.3085
X4.6528Y-3.0566
X4.6528Y-3.0916
X4.6528Y-3.1266
X4.6528Y-3.8747
X4.6528Y-3.9097
X4.6528Y-3.9447
X4.6528Y-4.6928
X4.6528Y-4.7278
X4.6528Y-4.7628
X4.6578Y-2.1185
X4.6578Y-2.9366
X4.6578Y-3.7547
X4.6578Y-4.5728
X4.7078Y-2.2385
X4.7078Y-2.3085
X4.7078Y-3.0566
X4.7078Y-3.1266
X4.7078Y-3.8747
X4.7078Y-3.9447
X4.7078Y-4.6928
X4.7078Y-4.7628
X4.7628Y-2.2385
X4.7628Y-2.2735
X4.7628Y-2.3085
X4.7628Y-3.0566
X4.7628Y-3.0916
X4.7628Y-3.1266
X4.7628Y-3.8747
X4.7628Y-3.9097
X4.7628Y-3.9447
X4.7628Y-4.6928
X4.7628Y-4.7278
X4.7628Y-4.7628
X4.8003Y-2.2385
X4.8003Y-2.2735
X4.8003Y-2.3085
X4.8003Y-3.0566
X4.8003Y-3.0916
X4.8003Y-3.1266
X4.8003Y-3.8747
X4.8003Y-3.9097
X4.8003Y-3.9447
X4.8003Y-4.6928
X4.8003Y-4.7278
X4.8003Y-4.7628
X4.8278Y-2.606
X4.8278Y-2.641
X4.8278Y-3.4241
X4.8278Y-3.4591
X4.8278Y-4.2422
X4.8278Y-4.2772
X4.8278Y-5.0603
X4.8278Y-5.0953
X4.8353Y-2.296
X4.8353Y-3.1141
X4.8353Y-3.9322
X4.8353Y-4.7503
X4.8388Y-2.2385
X4.8388Y-3.0566
X4.8388Y-3.8747
X4.8388Y-4.6928
X4.8778Y-2.5085
X4.8778Y-3.3266
X4.8778Y-4.1447
X4.8778Y-4.9628
X4.8803Y-2.366
X4.8803Y-3.1841
X4.8803Y-4.0022
X4.8803Y-4.8203
X4.8978Y-2.2985
X4.8978Y-3.1166
X4.8978Y-3.9347
X4.8978Y-4.7528
X4.9128Y-2.6135
X4.9128Y-2.646
X4.9128Y-3.4316
X4.9128Y-3.4641
X4.9128Y-4.2497
X4.9128Y-4.2822
X4.9128Y-5.0678
X4.9128Y-5.1003
X4.9478Y-2.2985
X4.9478Y-3.1166
X4.9478Y-3.9347
X4.9478Y-4.7528
T2
X2.0685Y-2.5835
X2.0685Y-3.4016
X2.0685Y-4.2197
X2.0685Y-5.0378
X2.0735Y-2.0535
X2.0735Y-2.8716
X2.0735Y-3.6897
X2.0735Y-4.5078
X2.1085Y-2.1185
X2.1085Y-2.9366
X2.1085Y-3.7547
X2.1085Y-4.5728
X2.1135Y-2.5835
X2.1135Y-3.4016
X2.1135Y-4.2197
X2.1135Y-5.0378
X2.1385Y-2.4335
X2.1385Y-3.2516
X2.1385Y-4.0697
X2.1385Y-4.8878
X2.1635Y-2.0735
X2.1635Y-2.8916
X2.1635Y-3.7097
X2.1635Y-4.5278
X2.191Y-2.591
X2.191Y-3.4091
X2.191Y-4.2272
X2.191Y-5.0453
X2.251Y-1.9985
X2.251Y-2.8166
X2.251Y-3.6347
X2.251Y-4.4528
X2.2535Y-2.0815
X2.2535Y-2.1165
X2.2535Y-2.8996
X2.2535Y-2.9346
X2.2535Y-3.7177
X2.2535Y-3.7527
X2.2535Y-4.5358
X2.2535Y-4.5708
X2.2535Y-2.6235
X2.2535Y-3.4416
X2.2535Y-4.2597
X2.2535Y-5.0778
X2.2785Y-2.4235
X2.2785Y-3.2416
X2.2785Y-4.0597
X2.2785Y-4.8778
X2.2885Y-2.6235
X2.2885Y-3.4416
X2.2885Y-4.2597
X2.2885Y-5.0778
X2.2935Y-2.5335
X2.2935Y-3.3516
X2.2935Y-4.1697
X2.2935Y-4.9878
X2.3385Y-2.5635
X2.3385Y-3.3816
X2.3385Y-4.1997
X2.3385Y-5.0178
X2.3535Y-2.5285
X2.3535Y-3.3466
X2.3535Y-4.1647
X2.3535Y-4.9828
X2.3735Y-2.3585
X2.3735Y-2.3985
X2.3735Y-3.1766
X2.3735Y-3.2166
X2.3735Y-3.9947
X2.3735Y-4.0347
X2.3735Y-4.8128
X2.3735Y-4.8528
X2.3985Y-2.0485
X2.3985Y-2.8666
X2.3985Y-3.6847
X2.3985Y-4.5028
X2.4085Y-2.011
X2.4085Y-2.8291
X2.4085Y-3.6472
X2.4085Y-4.4653
X2.4159Y-2.2311
X2.4159Y-3.0492
X2.4159Y-3.8673
X2.4159Y-4.6854
X2.4185Y-2.5485
X2.4185Y-3.3666
X2.4185Y-4.1847
X2.4185Y-5.0028
X2.4764Y-2.3764
X2.4764Y-3.1945
X2.4764Y-4.0126
X2.4764Y-4.8308
X2.4785Y-2.4985
X2.4785Y-2.5335
X2.4785Y-3.3166
X2.4785Y-3.3516
X2.4785Y-4.1347
X2.4785Y-4.1697
X2.4785Y-4.9528
X2.4785Y-4.9878
X2.5235Y-2.6235
X2.5235Y-3.4416
X2.5235Y-4.2597
X2.5235Y-5.0778
X2.5435Y-2.5885
X2.5435Y-3.4066
X2.5435Y-4.2247
X2.5435Y-5.0428
X2.5481Y-2.4381
X2.5481Y-3.2562
X2.5481Y-4.0743
X2.5481Y-4.8924
X2.5535Y-2.076
X2.5535Y-2.8941
X2.5535Y-3.7122
X2.5535Y-4.5303
X2.5685Y-2.6235
X2.5685Y-3.4416
X2.5685Y-4.2597
X2.5685Y-5.0778
X2.5835Y-2.0535
X2.5835Y-2.8716
X2.5835Y-3.6897
X2.5835Y-4.5078
X2.8866Y-2.5835
X2.8866Y-3.4016
X2.8866Y-4.2197
X2.8866Y-5.0378
X2.8916Y-2.0535
X2.8916Y-2.8716
X2.8916Y-3.6897
X2.8916Y-4.5078
X2.9266Y-2.1185
X2.9266Y-2.9366
X2.9266Y-3.7547
X2.9266Y-4.5728
X2.9316Y-2.5835
X2.9316Y-3.4016
X2.9316Y-4.2197
X2.9316Y-5.0378
X2.9566Y-2.4335
X2.9566Y-3.2516
X2.9566Y-4.0697
X2.9566Y-4.8878
X2.9816Y-2.0735
X2.9816Y-2.8916
X2.9816Y-3.7097
X2.9816Y-4.5278
X3.0091Y-2.591
X3.0091Y-3.4091
X3.0091Y-4.2272
X3.0091Y-5.0453
X3.0691Y-1.9985
X3.0691Y-2.8166
X3.0691Y-3.6347
X3.0691Y-4.4528
X3.0716Y-2.0815
X3.0716Y-2.1165
X3.0716Y-2.8996
X3.0716Y-2.9346
X3.0716Y-3.7177
X3.0716Y-3.7527
X3.0716Y-4.5358
X3.0716Y-4.5708
X3.0716Y-2.6235
X3.0716Y-3.4416
X3.0716Y-4.2597
X3.0716Y-5.0778
X3.0966Y-2.4235
X3.0966Y-3.2416
X3.0966Y-4.0597
X3.0966Y-4.8778
X3.1066Y-2.6235
X3.1066Y-3.4416
X3.1066Y-4.2597
X3.1066Y-5.0778
X3.1116Y-2.5335
X3.1116Y-3.3516
X3.1116Y-4.1697
X3.1116Y-4.9878
X3.1566Y-2.5635
X3.1566Y-3.3816
X3.1566Y-4.1997
X3.1566Y-5.0178
X3.1716Y-2.5285
X3.1716Y-3.3466
X3.1716Y-4.1647
X3.1716Y-4.9828
X3.1916Y-2.3585
X3.1916Y-2.3985
X3.1916Y-3.1766
X3.1916Y-3.2166
X3.1916Y-3.9947
X3.1916Y-4.0347
X3.1916Y-4.8128
X3.1916Y-4.8528
X3.2166Y-2.0485
X3.2166Y-2.8666
X3.2166Y-3.6847
X3.2166Y-4.5028
X3.2266Y-2.011
X3.2266Y-2.8291
X3.2266Y-3.6472
X3.2266Y-4.4653
X3.234Y-2.2311
X3.234Y-3.0492
X3.234Y-3.8673
X3.234Y-4.6854
X3.2366Y-2.5485
X3.2366Y-3.3666
X3.2366Y-4.1847
X3.2366Y-5.0028
X3.2945Y-2.3764
X3.2945Y-3.1945
X3.2945Y-4.0126
X3.2945Y-4.8308
X3.2966Y-2.4985
X3.2966Y-2.5335
X3.2966Y-3.3166
X3.2966Y-3.3516
X3.2966Y-4.1347
X3.2966Y-4.1697
X3.2966Y-4.9528
X3.2966Y-4.9878
X3.3416Y-2.6235
X3.3416Y-3.4416
X3.3416Y-4.2597
X3.3416Y-5.0778
X3.3616Y-2.5885
X3.3616Y-3.4066
X3.3616Y-4.2247
X3.3616Y-5.0428
X3.3662Y-2.4381
X3.3662Y-3.2562
X3.3662Y-4.0743
X3.3662Y-4.8924
X3.3716Y-2.076
X3.3716Y-2.8941
X3.3716Y-3.7122
X3.3716Y-4.5303
X3.3866Y-2.6235
X3.3866Y-3.4416
X3.3866Y-4.2597
X3.3866Y-5.0778
X3.4016Y-2.0535
X3.4016Y-2.8716
X3.4016Y-3.6897
X3.4016Y-4.5078
X3.7047Y-2.5835
X3.7047Y-3.4016
X3.7047Y-4.2197
X3.7047Y-5.0378
X3.7097Y-2.0535
X3.7097Y-2.8716
X3.7097Y-3.6897
X3.7097Y-4.5078
X3.7447Y-2.1185
X3.7447Y-2.9366
X3.7447Y-3.7547
X3.7447Y-4.5728
X3.7497Y-2.5835
X3.7497Y-3.4016
X3.7497Y-4.2197
X3.7497Y-5.0378
X3.7747Y-2.4335
X3.7747Y-3.2516
X3.7747Y-4.0697
X3.7747Y-4.8878
X3.7997Y-2.0735
X3.7997Y-2.8916
X3.7997Y-3.7097
X3.7997Y-4.5278
X3.8272Y-2.591
X3.8272Y-3.4091
X3.8272Y-4.2272
X3.8272Y-5.0453
X3.8872Y-1.9985
X3.8872Y-2.8166
X3.8872Y-3.6347
X3.8872Y-4.4528
X3.8897Y-2.0815
X3.8897Y-2.1165
X3.8897Y-2.8996
X3.8897Y-2.9346
X3.8897Y-3.7177
X3.8897Y-3.7527
X3.8897Y-4.5358
X3.8897Y-4.5708
X3.8897Y-2.6235
X3.8897Y-3.4416
X3.8897Y-4.2597
X3.8897Y-5.0778
X3.9147Y-2.4235
X3.9147Y-3.2416
X3.9147Y-4.0597
X3.9147Y-4.8778
X3.9247Y-2.6235
X3.9247Y-3.4416
X3.9247Y-4.2597
X3.9247Y-5.0778
X3.9297Y-2.5335
X3.9297Y-3.3516
X3.9297Y-4.1697
X3.9297Y-4.9878
X3.9747Y-2.5635
X3.9747Y-3.3816
X3.9747Y-4.1997
X3.9747Y-5.0178
X3.9897Y-2.5285
X3.9897Y-3.3466
X3.9897Y-4.1647
X3.9897Y-4.9828
X4.0097Y-2.3585
X4.0097Y-2.3985
X4.0097Y-3.1766
X4.0097Y-3.2166
X4.0097Y-3.9947
X4.0097Y-4.0347
X4.0097Y-4.8128
X4.0097Y-4.8528
X4.0347Y-2.0485
X4.0347Y-2.8666
X4.0347Y-3.6847
X4.0347Y-4.5028
X4.0447Y-2.011
X4.0447Y-2.8291
X4.0447Y-3.6472
X4.0447Y-4.4653
X4.0521Y-2.2311
X4.0521Y-3.0492
X4.0521Y-3.8673
X4.0521Y-4.6854
X4.0547Y-2.5485
X4.0547Y-3.3666
X4.0547Y-4.1847
X4.0547Y-5.0028
X4.1126Y-2.3764
X4.1126Y-3.1945
X4.1126Y-4.0126
X4.1126Y-4.8308
X4.1147Y-2.4985
X4.1147Y-2.5335
X4.1147Y-3.3166
X4.1147Y-3.3516
X4.1147Y-4.1347
X4.1147Y-4.1697
X4.1147Y-4.9528
X4.1147Y-4.9878
X4.1597Y-2.6235
X4.1597Y-3.4416
X4.1597Y-4.2597
X4.1597Y-5.0778
X4.1797Y-2.5885
X4.1797Y-3.4066
X4.1797Y-4.2247
X4.1797Y-5.0428
X4.1843Y-2.4381
X4.1843Y-3.2562
X4.1843Y-4.0743
X4.1843Y-4.8924
X4.1897Y-2.076
X4.1897Y-2.8941
X4.1897Y-3.7122
X4.1897Y-4.5303
X4.2047Y-2.6235
X4.2047Y-3.4416
X4.2047Y-4.2597
X4.2047Y-5.0778
X4.2197Y-2.0535
X4.2197Y-2.8716
X4.2197Y-3.6897
X4.2197Y-4.5078
X4.5228Y-2.5835
X4.5228Y-3.4016
X4.5228Y-4.2197
X4.5228Y-5.0378
X4.5278Y-2.0535
X4.5278Y-2.8716
X4.5278Y-3.6897
X4.5278Y-4.5078
X4.5628Y-2.1185
X4.5628Y-2.9366
X4.5628Y-3.7547
X4.5628Y-4.5728
X4.5678Y-2.5835
X4.5678Y-3.4016
X4.5678Y-4.2197
X4.5678Y-5.0378
X4.5928Y-2.4335
X4.5928Y-3.2516
X4.5928Y-4.0697
X4.5928Y-4.8878
X4.6178Y-2.0735
X4.6178Y-2.8916
X4.6178Y-3.7097
X4.6178Y-4.5278
X4.6453Y-2.591
X4.6453Y-3.4091
X4.6453Y-4.2272
X4.6453Y-5.0453
X4.7053Y-1.9985
X4.7053Y-2.8166
X4.7053Y-3.6347
X4.7053Y-4.4528
X4.7078Y-2.0815
X4.7078Y-2.1165
X4.7078Y-2.8996
X4.7078Y-2.9346
X4.7078Y-3.7177
X4.7078Y-3.7527
X4.7078Y-4.5358
X4.7078Y-4.5708
X4.7078Y-2.6235
X4.7078Y-3.4416
X4.7078Y-4.2597
X4.7078Y-5.0778
X4.7328Y-2.4235
X4.7328Y-3.2416
X4.7328Y-4.0597
X4.7328Y-4.8778
X4.7428Y-2.6235
X4.7428Y-3.4416
X4.7428Y-4.2597
X4.7428Y-5.0778
X4.7478Y-2.5335
X4.7478Y-3.3516
X4.7478Y-4.1697
X4.7478Y-4.9878
X4.7928Y-2.5635
X4.7928Y-3.3816
X4.7928Y-4.1997
X4.7928Y-5.0178
X4.8078Y-2.5285
X4.8078Y-3.3466
X4.8078Y-4.1647
X4.8078Y-4.9828
X4.8278Y-2.3585
X4.8278Y-2.3985
X4.8278Y-3.1766
X4.8278Y-3.2166
X4.8278Y-3.9947
X4.8278Y-4.0347
X4.8278Y-4.8128
X4.8278Y-4.8528
X4.8528Y-2.0485
X4.8528Y-2.8666
X4.8528Y-3.6847
X4.8528Y-4.5028
X4.8628Y-2.011
X4.8628Y-2.8291
X4.8628Y-3.6472
X4.8628Y-4.4653
X4.8703Y-2.2311
X4.8703Y-3.0492
X4.8703Y-3.8673
X4.8703Y-4.6854
X4.8728Y-2.5485
X4.8728Y-3.3666
X4.8728Y-4.1847
X4.8728Y-5.0028
X4.9308Y-2.3764
X4.9308Y-3.1945
X4.9308Y-4.0126
X4.9308Y-4.8308
X4.9328Y-2.4985
X4.9328Y-2.5335
X4.9328Y-3.3166
X4.9328Y-3.3516
X4.9328Y-4.1347
X4.9328Y-4.1697
X4.9328Y-4.9528
X4.9328Y-4.9878
X4.9778Y-2.6235
X4.9778Y-3.4416
X4.9778Y-4.2597
X4.9778Y-5.0778
X4.9978Y-2.5885
X4.9978Y-3.4066
X4.9978Y-4.2247
X4.9978Y-5.0428
X5.0024Y-2.4381
X5.0024Y-3.2562
X5.0024Y-4.0743
X5.0024Y-4.8924
X5.0078Y-2.076
X5.0078Y-2.8941
X5.0078Y-3.7122
X5.0078Y-4.5303
X5.0228Y-2.6235
X5.0228Y-3.4416
X5.0228Y-4.2597
X5.0228Y-5.0778
X5.0378Y-2.0535
X5.0378Y-2.8716
X5.0378Y-3.6897
X5.0378Y-4.5078
T3
X3.4366Y-4.7728
X3.6547Y-3.7547
X2.0185Y-4.0547
X3.4366Y-3.0366
X2.6185Y-3.1366
X2.8366Y-4.9728
X2.6185Y-2.4185
X4.4728Y-3.7547
X2.0185Y-3.3366
X4.2547Y-3.8547
X3.4366Y-3.2366
X3.4366Y-4.9728
X2.8366Y-3.1366
X2.6185Y-3.3366
X4.4728Y-4.9728
X2.8366Y-4.6728
X5.0728Y-4.5728
X2.0185Y-3.0366
X3.6547Y-3.9547
X5.0728Y-4.9728
X3.6547Y-4.5728
X5.0728Y-4.0547
X3.6547Y-2.1185
X2.6185Y-4.5728
X3.4366Y-3.9547
X2.8366Y-3.2366
X4.4728Y-4.6728
X5.0728Y-4.7728
X2.6185Y-4.9728
X3.6547Y-4.0547
X3.4366Y-3.7547
X2.0185Y-4.8728
X5.0728Y-3.8547
X2.6185Y-4.7728
X3.4366Y-4.1547
X4.2547Y-2.4185
X4.4728Y-4.0547
X4.4728Y-2.1185
X2.0185Y-4.9728
X3.6547Y-2.3185
X2.8366Y-2.1185
X4.4728Y-3.9547
X4.2547Y-4.6728
X2.8366Y-4.1547
X4.2547Y-3.1366
X4.2547Y-2.2185
X3.4366Y-2.2185
X3.6547Y-4.8728
X3.6547Y-2.4185
X4.2547Y-4.8728
X4.2547Y-2.9366
X3.4366Y-2.4185
X3.6547Y-4.7728
X2.8366Y-3.8547
X4.2547Y-3.3366
X2.8366Y-2.3185
X2.6185Y-3.9547
X2.0185Y-4.5728
X5.0728Y-3.1366
X2.8366Y-4.5728
X2.6185Y-3.7547
X4.4728Y-2.4185
X2.0185Y-2.5185
X5.0728Y-2.9366
X3.6547Y-3.3366
X5.0728Y-2.4185
X2.0185Y-2.9366
X2.8366Y-2.4185
X2.6185Y-4.1547
X5.0728Y-3.3366
X2.6185Y-2.5185
X2.0185Y-3.8547
X4.4728Y-4.5728
X4.4728Y-3.0366
X2.0185Y-2.2185
X4.2547Y-3.7547
X3.6547Y-3.0366
X5.0728Y-2.2185
X2.6185Y-2.3185
X3.4366Y-4.8728
X2.0185Y-4.1547
X4.4728Y-3.3366
X3.4366Y-3.1366
X2.6185Y-3.2366
X2.8366Y-4.7728
X2.6185Y-2.1185
X2.0185Y-3.1366
X4.2547Y-3.9547
X3.4366Y-2.9366
X4.4728Y-2.3185
X3.4366Y-4.6728
X3.4366Y-3.3366
X2.6185Y-3.0366
X2.8366Y-4.8728
X2.0185Y-3.2366
X4.2547Y-4.1547
X5.0728Y-4.6728
X5.0728Y-3.7547
X2.8366Y-3.3366
X4.4728Y-4.8728
X5.0728Y-4.8728
X2.6185Y-4.6728
X2.8366Y-3.7547
X3.6547Y-4.1547
X4.4728Y-4.7728
X5.0728Y-3.9547
X2.6185Y-4.8728
X3.4366Y-3.8547
X2.8366Y-3.0366
X4.2547Y-2.1185
X4.4728Y-4.1547
X2.0185Y-4.7728
X3.6547Y-3.8547
X3.4366Y-4.0547
X2.0185Y-4.6728
X5.0728Y-4.1547
X4.2547Y-4.7728
X2.8366Y-3.9547
X2.0185Y-3.7547
X4.2547Y-3.2366
X4.2547Y-2.3185
X4.4728Y-3.8547
X4.4728Y-2.9366
X2.0185Y-2.1185
X3.6547Y-2.9366
X3.6547Y-4.9728
X3.6547Y-2.5185
X4.2547Y-4.5728
X3.4366Y-2.1185
X4.2547Y-4.9728
X2.8366Y-4.0547
X4.2547Y-3.0366
X4.2547Y-2.5185
X3.4366Y-2.5185
X3.6547Y-4.6728
X3.6547Y-2.2185
X3.4366Y-2.3185
X4.4728Y-2.5185
X2.0185Y-2.3185
X3.6547Y-3.1366
X5.0728Y-2.1185
X2.8366Y-2.5185
X2.6185Y-3.8547
X5.0728Y-3.0366
X2.6185Y-4.0547
X4.4728Y-3.2366
X4.4728Y-2.2185
X2.0185Y-2.4185
X5.0728Y-3.2366
X3.6547Y-3.2366
X5.0728Y-2.3185
X3.4366Y-4.5728
X2.8366Y-2.2185
X2.0185Y-3.9547
X4.4728Y-3.1366
X2.6185Y-2.9366
X2.8366Y-2.9366
X4.2547Y-4.0547
X5.0728Y-2.5185
X2.6185Y-2.2185
T4
X4.8698Y-4.4103
X2.1822Y-3.5922
X4.9486Y-3.4992
X2.681Y-3.9744
X2.4942Y-4.4103
X4.4103Y-2.3776
X4.5971Y-4.3173
X4.4103Y-4.7925
X2.4155Y-4.3173
X2.2215Y-4.3173
X3.8184Y-2.7741
X3.3123Y-3.4992
X2.7741Y-2.3776
X4.0911Y-4.3173
X4.3173Y-4.0138
X4.9092Y-4.4103
X3.273Y-3.5922
X3.4992Y-4.8319
X3.273Y-4.4103
X2.3761Y-4.4103
X3.2336Y-2.681
X3.0396Y-2.681
X4.3173Y-2.2594
X3.4992Y-3.1169
X2.7741Y-2.3382
X2.4549Y-3.4992
X2.2609Y-3.4992
X2.1428Y-3.4992
X4.7152Y-2.681
X4.5971Y-2.681
X3.5922Y-4.8319
X2.681Y-3.8957
X4.8304Y-3.4992
X4.6365Y-3.4992
X4.8698Y-2.7741
X3.8971Y-3.5922
X4.9092Y-3.5922
X4.6759Y-3.5922
X3.1942Y-3.4992
X3.0003Y-3.4992
X3.2336Y-2.7741
X2.9609Y-2.7741
X2.7741Y-4.0138
X3.4992Y-4.7532
X3.4992Y-3.8957
X3.0003Y-3.5922
X4.4103Y-4.8319
X3.8577Y-4.4103
X4.3173Y-3.0776
X2.4942Y-2.681
X4.5971Y-2.7741
X2.681Y-3.1957
X2.681Y-4.7925
X4.1304Y-4.4103
X2.4549Y-2.7741
X2.1822Y-2.7741
X4.3173Y-3.1957
X3.5922Y-3.0776
X4.6365Y-4.4103
X2.7741Y-3.1563
X3.5922Y-4.7532
X2.2215Y-4.4103
X3.2336Y-4.3173
X4.3173Y-4.7532
X3.079Y-2.7741
X4.4103Y-3.0776
X4.3173Y-2.3382
X4.4103Y-3.9744
X4.0123Y-3.5922
X4.1304Y-3.5922
X4.0517Y-4.4103
X4.3173Y-3.8957
X2.9609Y-4.4103
X2.3761Y-3.5922
X2.4942Y-3.5922
X2.3761Y-2.681
X2.1822Y-2.681
X4.5971Y-3.5922
X2.4942Y-4.3173
X4.7152Y-2.7741
X4.0517Y-3.4992
X3.8577Y-3.4992
X4.0123Y-2.7741
X4.1304Y-2.7741
X3.8577Y-4.3173
X4.7152Y-3.5922
X4.9486Y-2.681
X4.0517Y-2.681
X3.8577Y-2.681
X3.3123Y-2.681
X4.3173Y-4.8319
X3.079Y-4.3173
X2.9609Y-4.3173
X4.8304Y-4.3173
X4.6365Y-4.3173
X3.5922Y-3.9744
X3.5922Y-2.3382
X3.4992Y-3.1957
X2.681Y-2.2988
X4.3173Y-3.9744
X2.681Y-3.0776
X3.5922Y-2.2594
X2.681Y-2.3776
X2.2215Y-3.5922
X4.9092Y-3.4992
X2.681Y-4.0138
X2.4155Y-4.4103
X4.4103Y-2.3382
X4.8304Y-3.5922
X2.3761Y-4.3173
X3.8577Y-2.7741
X4.4103Y-4.7138
X4.0517Y-4.3173
X4.9486Y-4.4103
X3.3123Y-3.5922
X3.1942Y-4.4103
X2.7741Y-4.7925
X3.0396Y-4.4103
X3.1942Y-2.681
X4.9486Y-4.3173
X2.7741Y-2.2988
X2.4155Y-3.4992
X2.2215Y-3.4992
X2.3761Y-2.7741
X4.6759Y-2.681
X4.1304Y-2.681
X3.5922Y-3.8957
X2.681Y-4.7532
X2.681Y-3.935
X2.7741Y-3.935
X4.7152Y-3.4992
X4.5971Y-3.4992
X3.4992Y-2.2988
X2.1428Y-4.4103
X3.273Y-3.4992
X3.079Y-3.4992
X2.9609Y-3.4992
X3.273Y-2.7741
X2.7741Y-3.9744
X3.0396Y-3.5922
X4.3173Y-4.7138
X3.8971Y-4.4103
X4.3173Y-3.1169
X2.7741Y-4.7532
X3.0003Y-2.681
X2.4549Y-2.681
X4.6365Y-2.7741
X3.4992Y-2.3776
X2.4942Y-2.7741
X3.5922Y-4.0138
X4.9092Y-4.3173
X3.5922Y-3.1957
X4.6759Y-4.4103
X2.7741Y-3.1169
X4.9092Y-2.7741
X2.2609Y-4.4103
X3.3123Y-4.3173
X3.4992Y-4.7925
X3.0003Y-2.7741
X2.4942Y-3.4992
X4.4103Y-3.1563
X4.3173Y-2.3776
X4.0517Y-3.5922
X4.7152Y-4.4103
X2.1822Y-4.3173
X2.4155Y-3.5922
X2.2609Y-2.681
X2.1428Y-2.681
X4.6365Y-3.5922
X3.5922Y-4.7925
X4.1304Y-3.4992
X4.0123Y-3.4992
X3.8184Y-3.4992
X4.0517Y-2.7741
X4.4103Y-3.8957
X4.0123Y-4.3173
X3.8184Y-4.3173
X4.1304Y-4.3173
X4.8698Y-2.681
X3.779Y-4.4103
X2.2215Y-2.7741
X4.0123Y-2.681
X3.8184Y-2.681
X3.0396Y-4.3173
X3.4992Y-3.935
X4.7152Y-4.3173
X2.7741Y-3.1957
X3.4992Y-3.9744
X2.681Y-2.3382
X3.4992Y-4.7138
X2.681Y-3.1169
X3.779Y-3.5922
X3.4992Y-2.2594
X4.8304Y-4.4103
X3.0003Y-4.4103
X2.681Y-3.1563
X2.1428Y-3.5922
X2.2609Y-3.5922
X2.4549Y-4.4103
X4.4103Y-2.2988
X2.4549Y-4.3173
X2.2609Y-4.3173
X3.779Y-2.7741
X3.8971Y-2.7741
X3.5922Y-4.7138
X3.2336Y-3.5922
X3.2336Y-4.4103
X4.9092Y-2.681
X3.079Y-4.4103
X3.273Y-2.681
X3.079Y-2.681
X4.3173Y-3.935
X4.4103Y-2.2594
X4.4103Y-4.0138
X3.4992Y-3.0776
X2.7741Y-2.2594
X2.3761Y-3.4992
X2.1822Y-3.4992
X4.8304Y-2.681
X4.6365Y-2.681
X4.8698Y-3.4992
X4.6759Y-3.4992
X4.8304Y-2.7741
X3.5922Y-3.935
X3.4992Y-2.3382
X3.8577Y-3.5922
X3.5922Y-3.1563
X4.8698Y-3.5922
X3.2336Y-3.4992
X3.0396Y-3.4992
X3.1942Y-2.7741
X3.3123Y-2.7741
X2.9609Y-3.5922
X3.8184Y-4.4103
X2.9609Y-2.681
X3.1942Y-3.5922
X4.9486Y-2.7741
X4.6759Y-2.7741
X4.0911Y-4.4103
X4.4103Y-4.7532
X2.4155Y-2.7741
X2.1428Y-2.7741
X3.1942Y-4.3173
X4.8698Y-4.3173
X3.5922Y-3.1169
X4.5971Y-4.4103
X2.7741Y-3.8957
X2.1822Y-4.4103
X3.273Y-4.3173
X4.4103Y-3.935
X3.0396Y-2.7741
X2.7741Y-3.0776
X4.4103Y-3.1169
X4.3173Y-2.2988
X4.0911Y-3.5922
X3.5922Y-2.2988
X2.7741Y-4.8319
X4.0123Y-4.4103
X3.3123Y-4.4103
X2.1428Y-4.3173
X2.4549Y-3.5922
X4.3173Y-3.1563
X2.4155Y-2.681
X2.2215Y-2.681
X4.9486Y-3.5922
X3.079Y-3.5922
X4.0911Y-3.4992
X3.8971Y-3.4992
X3.779Y-3.4992
X4.0911Y-2.7741
X3.8971Y-4.3173
X3.779Y-4.3173
X2.681Y-4.7138
X2.2609Y-2.7741
X4.0911Y-2.681
X3.8971Y-2.681
X3.779Y-2.681
X3.0003Y-4.3173
X4.3173Y-4.7925
X4.6759Y-4.3173
X3.5922Y-2.3776
X3.4992Y-3.1563
X3.4992Y-4.0138
X2.7741Y-4.7138
X2.681Y-2.2594
X2.681Y-4.8319
X3.8184Y-3.5922
X4.4103Y-3.1957
T0
M30
