%TF.GenerationSoftware,KiCad,Pcbnew,5.1.8*%
%TF.CreationDate,2020-11-30T19:23:35+01:00*%
%TF.ProjectId,panel2,70616e65-6c32-42e6-9b69-6361645f7063,rev?*%
%TF.SameCoordinates,Original*%
%TF.FileFunction,Legend,Top*%
%TF.FilePolarity,Positive*%
%FSLAX46Y46*%
G04 Gerber Fmt 4.6, Leading zero omitted, Abs format (unit mm)*
G04 Created by KiCad (PCBNEW 5.1.8) date 2020-11-30 19:23:35*
%MOMM*%
%LPD*%
G01*
G04 APERTURE LIST*
%ADD10C,0.120000*%
%ADD11C,0.100000*%
%ADD12C,0.127000*%
%ADD13C,0.150000*%
G04 APERTURE END LIST*
D10*
%TO.C,D1*%
X118018516Y-125408516D02*
X118018516Y-127693516D01*
X118018516Y-127693516D02*
X119488516Y-127693516D01*
X119488516Y-127693516D02*
X119488516Y-125408516D01*
%TO.C,D2*%
X116494516Y-125408516D02*
X116494516Y-127693516D01*
X116494516Y-127693516D02*
X117964516Y-127693516D01*
X117964516Y-127693516D02*
X117964516Y-125408516D01*
%TO.C,F1*%
X115469471Y-114520016D02*
X114488561Y-114520016D01*
X115469471Y-112700016D02*
X114488561Y-112700016D01*
D11*
%TO.C,IC1*%
X118004016Y-121611016D02*
G75*
G03*
X118004016Y-121611016I-203000J0D01*
G01*
D12*
X117379016Y-118182016D02*
X117379016Y-121992016D01*
X121779016Y-118182016D02*
X117379016Y-118182016D01*
X121779016Y-121992016D02*
X121779016Y-118182016D01*
X117379016Y-121992016D02*
X121779016Y-121992016D01*
D10*
%TO.C,Q1*%
X124400016Y-127090016D02*
X123470016Y-127090016D01*
X121240016Y-127090016D02*
X122170016Y-127090016D01*
X121240016Y-127090016D02*
X121240016Y-129250016D01*
X124400016Y-127090016D02*
X124400016Y-128550016D01*
%TO.C,R1*%
X118587657Y-124531016D02*
X118280375Y-124531016D01*
X118587657Y-123771016D02*
X118280375Y-123771016D01*
%TO.C,R2*%
X122628016Y-117956657D02*
X122628016Y-117649375D01*
X123388016Y-117956657D02*
X123388016Y-117649375D01*
%TO.C,R3*%
X115744375Y-114881016D02*
X116051657Y-114881016D01*
X115744375Y-115641016D02*
X116051657Y-115641016D01*
%TO.C,R4*%
X115008016Y-126846657D02*
X115008016Y-126539375D01*
X115768016Y-126846657D02*
X115768016Y-126539375D01*
%TO.C,R5*%
X126402157Y-116530016D02*
X126094875Y-116530016D01*
X126402157Y-115770016D02*
X126094875Y-115770016D01*
%TO.C,U1*%
X124351016Y-125827016D02*
X126151016Y-125827016D01*
X126151016Y-122607016D02*
X123701016Y-122607016D01*
%TO.C,U2*%
X122446016Y-115976016D02*
X124246016Y-115976016D01*
X124246016Y-112756016D02*
X121796016Y-112756016D01*
%TO.C,U3*%
X118636016Y-115976016D02*
X120436016Y-115976016D01*
X120436016Y-112756016D02*
X117986016Y-112756016D01*
%TO.C,D3*%
X117510016Y-129850016D02*
X117510016Y-127850016D01*
X117510016Y-127850016D02*
X113610016Y-127850016D01*
X117510016Y-129850016D02*
X113610016Y-129850016D01*
%TO.C,D4*%
X129450016Y-129850016D02*
X129450016Y-127850016D01*
X129450016Y-127850016D02*
X125550016Y-127850016D01*
X129450016Y-129850016D02*
X125550016Y-129850016D01*
%TO.C,C1*%
X121745268Y-125775016D02*
X121222764Y-125775016D01*
X121745268Y-124305016D02*
X121222764Y-124305016D01*
%TO.C,C2*%
X125220764Y-117066016D02*
X125743268Y-117066016D01*
X125220764Y-118536016D02*
X125743268Y-118536016D01*
%TO.C,C3*%
X122879016Y-121002596D02*
X122879016Y-120721436D01*
X123899016Y-121002596D02*
X123899016Y-120721436D01*
%TO.C,C4*%
X125927016Y-121002596D02*
X125927016Y-120721436D01*
X126947016Y-121002596D02*
X126947016Y-120721436D01*
%TO.C,C5*%
X125546016Y-114208096D02*
X125546016Y-113926936D01*
X126566016Y-114208096D02*
X126566016Y-113926936D01*
%TO.C,R6*%
X128167758Y-112833516D02*
X128642274Y-112833516D01*
X128167758Y-113878516D02*
X128642274Y-113878516D01*
%TO.C,C6*%
X125423016Y-121002596D02*
X125423016Y-120721436D01*
X124403016Y-121002596D02*
X124403016Y-120721436D01*
%TO.C,C7*%
X116215516Y-124342096D02*
X116215516Y-124060936D01*
X115195516Y-124342096D02*
X115195516Y-124060936D01*
%TO.C,D1*%
X97238511Y-125408516D02*
X97238511Y-127693516D01*
X97238511Y-127693516D02*
X98708511Y-127693516D01*
X98708511Y-127693516D02*
X98708511Y-125408516D01*
%TO.C,D2*%
X95714511Y-125408516D02*
X95714511Y-127693516D01*
X95714511Y-127693516D02*
X97184511Y-127693516D01*
X97184511Y-127693516D02*
X97184511Y-125408516D01*
%TO.C,F1*%
X94689466Y-114520016D02*
X93708556Y-114520016D01*
X94689466Y-112700016D02*
X93708556Y-112700016D01*
D11*
%TO.C,IC1*%
X97224011Y-121611016D02*
G75*
G03*
X97224011Y-121611016I-203000J0D01*
G01*
D12*
X96599011Y-118182016D02*
X96599011Y-121992016D01*
X100999011Y-118182016D02*
X96599011Y-118182016D01*
X100999011Y-121992016D02*
X100999011Y-118182016D01*
X96599011Y-121992016D02*
X100999011Y-121992016D01*
D10*
%TO.C,Q1*%
X103620011Y-127090016D02*
X102690011Y-127090016D01*
X100460011Y-127090016D02*
X101390011Y-127090016D01*
X100460011Y-127090016D02*
X100460011Y-129250016D01*
X103620011Y-127090016D02*
X103620011Y-128550016D01*
%TO.C,R1*%
X97807652Y-124531016D02*
X97500370Y-124531016D01*
X97807652Y-123771016D02*
X97500370Y-123771016D01*
%TO.C,R2*%
X101848011Y-117956657D02*
X101848011Y-117649375D01*
X102608011Y-117956657D02*
X102608011Y-117649375D01*
%TO.C,R3*%
X94964370Y-114881016D02*
X95271652Y-114881016D01*
X94964370Y-115641016D02*
X95271652Y-115641016D01*
%TO.C,R4*%
X94228011Y-126846657D02*
X94228011Y-126539375D01*
X94988011Y-126846657D02*
X94988011Y-126539375D01*
%TO.C,R5*%
X105622152Y-116530016D02*
X105314870Y-116530016D01*
X105622152Y-115770016D02*
X105314870Y-115770016D01*
%TO.C,U1*%
X103571011Y-125827016D02*
X105371011Y-125827016D01*
X105371011Y-122607016D02*
X102921011Y-122607016D01*
%TO.C,U2*%
X101666011Y-115976016D02*
X103466011Y-115976016D01*
X103466011Y-112756016D02*
X101016011Y-112756016D01*
%TO.C,U3*%
X97856011Y-115976016D02*
X99656011Y-115976016D01*
X99656011Y-112756016D02*
X97206011Y-112756016D01*
%TO.C,D3*%
X96730011Y-129850016D02*
X96730011Y-127850016D01*
X96730011Y-127850016D02*
X92830011Y-127850016D01*
X96730011Y-129850016D02*
X92830011Y-129850016D01*
%TO.C,D4*%
X108670011Y-129850016D02*
X108670011Y-127850016D01*
X108670011Y-127850016D02*
X104770011Y-127850016D01*
X108670011Y-129850016D02*
X104770011Y-129850016D01*
%TO.C,C1*%
X100965263Y-125775016D02*
X100442759Y-125775016D01*
X100965263Y-124305016D02*
X100442759Y-124305016D01*
%TO.C,C2*%
X104440759Y-117066016D02*
X104963263Y-117066016D01*
X104440759Y-118536016D02*
X104963263Y-118536016D01*
%TO.C,C3*%
X102099011Y-121002596D02*
X102099011Y-120721436D01*
X103119011Y-121002596D02*
X103119011Y-120721436D01*
%TO.C,C4*%
X105147011Y-121002596D02*
X105147011Y-120721436D01*
X106167011Y-121002596D02*
X106167011Y-120721436D01*
%TO.C,C5*%
X104766011Y-114208096D02*
X104766011Y-113926936D01*
X105786011Y-114208096D02*
X105786011Y-113926936D01*
%TO.C,R6*%
X107387753Y-112833516D02*
X107862269Y-112833516D01*
X107387753Y-113878516D02*
X107862269Y-113878516D01*
%TO.C,C6*%
X104643011Y-121002596D02*
X104643011Y-120721436D01*
X103623011Y-121002596D02*
X103623011Y-120721436D01*
%TO.C,C7*%
X95435511Y-124342096D02*
X95435511Y-124060936D01*
X94415511Y-124342096D02*
X94415511Y-124060936D01*
%TO.C,D1*%
X76458506Y-125408516D02*
X76458506Y-127693516D01*
X76458506Y-127693516D02*
X77928506Y-127693516D01*
X77928506Y-127693516D02*
X77928506Y-125408516D01*
%TO.C,D2*%
X74934506Y-125408516D02*
X74934506Y-127693516D01*
X74934506Y-127693516D02*
X76404506Y-127693516D01*
X76404506Y-127693516D02*
X76404506Y-125408516D01*
%TO.C,F1*%
X73909461Y-114520016D02*
X72928551Y-114520016D01*
X73909461Y-112700016D02*
X72928551Y-112700016D01*
D11*
%TO.C,IC1*%
X76444006Y-121611016D02*
G75*
G03*
X76444006Y-121611016I-203000J0D01*
G01*
D12*
X75819006Y-118182016D02*
X75819006Y-121992016D01*
X80219006Y-118182016D02*
X75819006Y-118182016D01*
X80219006Y-121992016D02*
X80219006Y-118182016D01*
X75819006Y-121992016D02*
X80219006Y-121992016D01*
D10*
%TO.C,Q1*%
X82840006Y-127090016D02*
X81910006Y-127090016D01*
X79680006Y-127090016D02*
X80610006Y-127090016D01*
X79680006Y-127090016D02*
X79680006Y-129250016D01*
X82840006Y-127090016D02*
X82840006Y-128550016D01*
%TO.C,R1*%
X77027647Y-124531016D02*
X76720365Y-124531016D01*
X77027647Y-123771016D02*
X76720365Y-123771016D01*
%TO.C,R2*%
X81068006Y-117956657D02*
X81068006Y-117649375D01*
X81828006Y-117956657D02*
X81828006Y-117649375D01*
%TO.C,R3*%
X74184365Y-114881016D02*
X74491647Y-114881016D01*
X74184365Y-115641016D02*
X74491647Y-115641016D01*
%TO.C,R4*%
X73448006Y-126846657D02*
X73448006Y-126539375D01*
X74208006Y-126846657D02*
X74208006Y-126539375D01*
%TO.C,R5*%
X84842147Y-116530016D02*
X84534865Y-116530016D01*
X84842147Y-115770016D02*
X84534865Y-115770016D01*
%TO.C,U1*%
X82791006Y-125827016D02*
X84591006Y-125827016D01*
X84591006Y-122607016D02*
X82141006Y-122607016D01*
%TO.C,U2*%
X80886006Y-115976016D02*
X82686006Y-115976016D01*
X82686006Y-112756016D02*
X80236006Y-112756016D01*
%TO.C,U3*%
X77076006Y-115976016D02*
X78876006Y-115976016D01*
X78876006Y-112756016D02*
X76426006Y-112756016D01*
%TO.C,D3*%
X75950006Y-129850016D02*
X75950006Y-127850016D01*
X75950006Y-127850016D02*
X72050006Y-127850016D01*
X75950006Y-129850016D02*
X72050006Y-129850016D01*
%TO.C,D4*%
X87890006Y-129850016D02*
X87890006Y-127850016D01*
X87890006Y-127850016D02*
X83990006Y-127850016D01*
X87890006Y-129850016D02*
X83990006Y-129850016D01*
%TO.C,C1*%
X80185258Y-125775016D02*
X79662754Y-125775016D01*
X80185258Y-124305016D02*
X79662754Y-124305016D01*
%TO.C,C2*%
X83660754Y-117066016D02*
X84183258Y-117066016D01*
X83660754Y-118536016D02*
X84183258Y-118536016D01*
%TO.C,C3*%
X81319006Y-121002596D02*
X81319006Y-120721436D01*
X82339006Y-121002596D02*
X82339006Y-120721436D01*
%TO.C,C4*%
X84367006Y-121002596D02*
X84367006Y-120721436D01*
X85387006Y-121002596D02*
X85387006Y-120721436D01*
%TO.C,C5*%
X83986006Y-114208096D02*
X83986006Y-113926936D01*
X85006006Y-114208096D02*
X85006006Y-113926936D01*
%TO.C,R6*%
X86607748Y-112833516D02*
X87082264Y-112833516D01*
X86607748Y-113878516D02*
X87082264Y-113878516D01*
%TO.C,C6*%
X83863006Y-121002596D02*
X83863006Y-120721436D01*
X82843006Y-121002596D02*
X82843006Y-120721436D01*
%TO.C,C7*%
X74655506Y-124342096D02*
X74655506Y-124060936D01*
X73635506Y-124342096D02*
X73635506Y-124060936D01*
%TO.C,D1*%
X55678501Y-125408516D02*
X55678501Y-127693516D01*
X55678501Y-127693516D02*
X57148501Y-127693516D01*
X57148501Y-127693516D02*
X57148501Y-125408516D01*
%TO.C,D2*%
X54154501Y-125408516D02*
X54154501Y-127693516D01*
X54154501Y-127693516D02*
X55624501Y-127693516D01*
X55624501Y-127693516D02*
X55624501Y-125408516D01*
%TO.C,F1*%
X53129456Y-114520016D02*
X52148546Y-114520016D01*
X53129456Y-112700016D02*
X52148546Y-112700016D01*
D11*
%TO.C,IC1*%
X55664001Y-121611016D02*
G75*
G03*
X55664001Y-121611016I-203000J0D01*
G01*
D12*
X55039001Y-118182016D02*
X55039001Y-121992016D01*
X59439001Y-118182016D02*
X55039001Y-118182016D01*
X59439001Y-121992016D02*
X59439001Y-118182016D01*
X55039001Y-121992016D02*
X59439001Y-121992016D01*
D10*
%TO.C,Q1*%
X62060001Y-127090016D02*
X61130001Y-127090016D01*
X58900001Y-127090016D02*
X59830001Y-127090016D01*
X58900001Y-127090016D02*
X58900001Y-129250016D01*
X62060001Y-127090016D02*
X62060001Y-128550016D01*
%TO.C,R1*%
X56247642Y-124531016D02*
X55940360Y-124531016D01*
X56247642Y-123771016D02*
X55940360Y-123771016D01*
%TO.C,R2*%
X60288001Y-117956657D02*
X60288001Y-117649375D01*
X61048001Y-117956657D02*
X61048001Y-117649375D01*
%TO.C,R3*%
X53404360Y-114881016D02*
X53711642Y-114881016D01*
X53404360Y-115641016D02*
X53711642Y-115641016D01*
%TO.C,R4*%
X52668001Y-126846657D02*
X52668001Y-126539375D01*
X53428001Y-126846657D02*
X53428001Y-126539375D01*
%TO.C,R5*%
X64062142Y-116530016D02*
X63754860Y-116530016D01*
X64062142Y-115770016D02*
X63754860Y-115770016D01*
%TO.C,U1*%
X62011001Y-125827016D02*
X63811001Y-125827016D01*
X63811001Y-122607016D02*
X61361001Y-122607016D01*
%TO.C,U2*%
X60106001Y-115976016D02*
X61906001Y-115976016D01*
X61906001Y-112756016D02*
X59456001Y-112756016D01*
%TO.C,U3*%
X56296001Y-115976016D02*
X58096001Y-115976016D01*
X58096001Y-112756016D02*
X55646001Y-112756016D01*
%TO.C,D3*%
X55170001Y-129850016D02*
X55170001Y-127850016D01*
X55170001Y-127850016D02*
X51270001Y-127850016D01*
X55170001Y-129850016D02*
X51270001Y-129850016D01*
%TO.C,D4*%
X67110001Y-129850016D02*
X67110001Y-127850016D01*
X67110001Y-127850016D02*
X63210001Y-127850016D01*
X67110001Y-129850016D02*
X63210001Y-129850016D01*
%TO.C,C1*%
X59405253Y-125775016D02*
X58882749Y-125775016D01*
X59405253Y-124305016D02*
X58882749Y-124305016D01*
%TO.C,C2*%
X62880749Y-117066016D02*
X63403253Y-117066016D01*
X62880749Y-118536016D02*
X63403253Y-118536016D01*
%TO.C,C3*%
X60539001Y-121002596D02*
X60539001Y-120721436D01*
X61559001Y-121002596D02*
X61559001Y-120721436D01*
%TO.C,C4*%
X63587001Y-121002596D02*
X63587001Y-120721436D01*
X64607001Y-121002596D02*
X64607001Y-120721436D01*
%TO.C,C5*%
X63206001Y-114208096D02*
X63206001Y-113926936D01*
X64226001Y-114208096D02*
X64226001Y-113926936D01*
%TO.C,R6*%
X65827743Y-112833516D02*
X66302259Y-112833516D01*
X65827743Y-113878516D02*
X66302259Y-113878516D01*
%TO.C,C6*%
X63083001Y-121002596D02*
X63083001Y-120721436D01*
X62063001Y-121002596D02*
X62063001Y-120721436D01*
%TO.C,C7*%
X53875501Y-124342096D02*
X53875501Y-124060936D01*
X52855501Y-124342096D02*
X52855501Y-124060936D01*
%TO.C,D1*%
X118018516Y-104628511D02*
X118018516Y-106913511D01*
X118018516Y-106913511D02*
X119488516Y-106913511D01*
X119488516Y-106913511D02*
X119488516Y-104628511D01*
%TO.C,D2*%
X116494516Y-104628511D02*
X116494516Y-106913511D01*
X116494516Y-106913511D02*
X117964516Y-106913511D01*
X117964516Y-106913511D02*
X117964516Y-104628511D01*
%TO.C,F1*%
X115469471Y-93740011D02*
X114488561Y-93740011D01*
X115469471Y-91920011D02*
X114488561Y-91920011D01*
D11*
%TO.C,IC1*%
X118004016Y-100831011D02*
G75*
G03*
X118004016Y-100831011I-203000J0D01*
G01*
D12*
X117379016Y-97402011D02*
X117379016Y-101212011D01*
X121779016Y-97402011D02*
X117379016Y-97402011D01*
X121779016Y-101212011D02*
X121779016Y-97402011D01*
X117379016Y-101212011D02*
X121779016Y-101212011D01*
D10*
%TO.C,Q1*%
X124400016Y-106310011D02*
X123470016Y-106310011D01*
X121240016Y-106310011D02*
X122170016Y-106310011D01*
X121240016Y-106310011D02*
X121240016Y-108470011D01*
X124400016Y-106310011D02*
X124400016Y-107770011D01*
%TO.C,R1*%
X118587657Y-103751011D02*
X118280375Y-103751011D01*
X118587657Y-102991011D02*
X118280375Y-102991011D01*
%TO.C,R2*%
X122628016Y-97176652D02*
X122628016Y-96869370D01*
X123388016Y-97176652D02*
X123388016Y-96869370D01*
%TO.C,R3*%
X115744375Y-94101011D02*
X116051657Y-94101011D01*
X115744375Y-94861011D02*
X116051657Y-94861011D01*
%TO.C,R4*%
X115008016Y-106066652D02*
X115008016Y-105759370D01*
X115768016Y-106066652D02*
X115768016Y-105759370D01*
%TO.C,R5*%
X126402157Y-95750011D02*
X126094875Y-95750011D01*
X126402157Y-94990011D02*
X126094875Y-94990011D01*
%TO.C,U1*%
X124351016Y-105047011D02*
X126151016Y-105047011D01*
X126151016Y-101827011D02*
X123701016Y-101827011D01*
%TO.C,U2*%
X122446016Y-95196011D02*
X124246016Y-95196011D01*
X124246016Y-91976011D02*
X121796016Y-91976011D01*
%TO.C,U3*%
X118636016Y-95196011D02*
X120436016Y-95196011D01*
X120436016Y-91976011D02*
X117986016Y-91976011D01*
%TO.C,D3*%
X117510016Y-109070011D02*
X117510016Y-107070011D01*
X117510016Y-107070011D02*
X113610016Y-107070011D01*
X117510016Y-109070011D02*
X113610016Y-109070011D01*
%TO.C,D4*%
X129450016Y-109070011D02*
X129450016Y-107070011D01*
X129450016Y-107070011D02*
X125550016Y-107070011D01*
X129450016Y-109070011D02*
X125550016Y-109070011D01*
%TO.C,C1*%
X121745268Y-104995011D02*
X121222764Y-104995011D01*
X121745268Y-103525011D02*
X121222764Y-103525011D01*
%TO.C,C2*%
X125220764Y-96286011D02*
X125743268Y-96286011D01*
X125220764Y-97756011D02*
X125743268Y-97756011D01*
%TO.C,C3*%
X122879016Y-100222591D02*
X122879016Y-99941431D01*
X123899016Y-100222591D02*
X123899016Y-99941431D01*
%TO.C,C4*%
X125927016Y-100222591D02*
X125927016Y-99941431D01*
X126947016Y-100222591D02*
X126947016Y-99941431D01*
%TO.C,C5*%
X125546016Y-93428091D02*
X125546016Y-93146931D01*
X126566016Y-93428091D02*
X126566016Y-93146931D01*
%TO.C,R6*%
X128167758Y-92053511D02*
X128642274Y-92053511D01*
X128167758Y-93098511D02*
X128642274Y-93098511D01*
%TO.C,C6*%
X125423016Y-100222591D02*
X125423016Y-99941431D01*
X124403016Y-100222591D02*
X124403016Y-99941431D01*
%TO.C,C7*%
X116215516Y-103562091D02*
X116215516Y-103280931D01*
X115195516Y-103562091D02*
X115195516Y-103280931D01*
%TO.C,D1*%
X97238511Y-104628511D02*
X97238511Y-106913511D01*
X97238511Y-106913511D02*
X98708511Y-106913511D01*
X98708511Y-106913511D02*
X98708511Y-104628511D01*
%TO.C,D2*%
X95714511Y-104628511D02*
X95714511Y-106913511D01*
X95714511Y-106913511D02*
X97184511Y-106913511D01*
X97184511Y-106913511D02*
X97184511Y-104628511D01*
%TO.C,F1*%
X94689466Y-93740011D02*
X93708556Y-93740011D01*
X94689466Y-91920011D02*
X93708556Y-91920011D01*
D11*
%TO.C,IC1*%
X97224011Y-100831011D02*
G75*
G03*
X97224011Y-100831011I-203000J0D01*
G01*
D12*
X96599011Y-97402011D02*
X96599011Y-101212011D01*
X100999011Y-97402011D02*
X96599011Y-97402011D01*
X100999011Y-101212011D02*
X100999011Y-97402011D01*
X96599011Y-101212011D02*
X100999011Y-101212011D01*
D10*
%TO.C,Q1*%
X103620011Y-106310011D02*
X102690011Y-106310011D01*
X100460011Y-106310011D02*
X101390011Y-106310011D01*
X100460011Y-106310011D02*
X100460011Y-108470011D01*
X103620011Y-106310011D02*
X103620011Y-107770011D01*
%TO.C,R1*%
X97807652Y-103751011D02*
X97500370Y-103751011D01*
X97807652Y-102991011D02*
X97500370Y-102991011D01*
%TO.C,R2*%
X101848011Y-97176652D02*
X101848011Y-96869370D01*
X102608011Y-97176652D02*
X102608011Y-96869370D01*
%TO.C,R3*%
X94964370Y-94101011D02*
X95271652Y-94101011D01*
X94964370Y-94861011D02*
X95271652Y-94861011D01*
%TO.C,R4*%
X94228011Y-106066652D02*
X94228011Y-105759370D01*
X94988011Y-106066652D02*
X94988011Y-105759370D01*
%TO.C,R5*%
X105622152Y-95750011D02*
X105314870Y-95750011D01*
X105622152Y-94990011D02*
X105314870Y-94990011D01*
%TO.C,U1*%
X103571011Y-105047011D02*
X105371011Y-105047011D01*
X105371011Y-101827011D02*
X102921011Y-101827011D01*
%TO.C,U2*%
X101666011Y-95196011D02*
X103466011Y-95196011D01*
X103466011Y-91976011D02*
X101016011Y-91976011D01*
%TO.C,U3*%
X97856011Y-95196011D02*
X99656011Y-95196011D01*
X99656011Y-91976011D02*
X97206011Y-91976011D01*
%TO.C,D3*%
X96730011Y-109070011D02*
X96730011Y-107070011D01*
X96730011Y-107070011D02*
X92830011Y-107070011D01*
X96730011Y-109070011D02*
X92830011Y-109070011D01*
%TO.C,D4*%
X108670011Y-109070011D02*
X108670011Y-107070011D01*
X108670011Y-107070011D02*
X104770011Y-107070011D01*
X108670011Y-109070011D02*
X104770011Y-109070011D01*
%TO.C,C1*%
X100965263Y-104995011D02*
X100442759Y-104995011D01*
X100965263Y-103525011D02*
X100442759Y-103525011D01*
%TO.C,C2*%
X104440759Y-96286011D02*
X104963263Y-96286011D01*
X104440759Y-97756011D02*
X104963263Y-97756011D01*
%TO.C,C3*%
X102099011Y-100222591D02*
X102099011Y-99941431D01*
X103119011Y-100222591D02*
X103119011Y-99941431D01*
%TO.C,C4*%
X105147011Y-100222591D02*
X105147011Y-99941431D01*
X106167011Y-100222591D02*
X106167011Y-99941431D01*
%TO.C,C5*%
X104766011Y-93428091D02*
X104766011Y-93146931D01*
X105786011Y-93428091D02*
X105786011Y-93146931D01*
%TO.C,R6*%
X107387753Y-92053511D02*
X107862269Y-92053511D01*
X107387753Y-93098511D02*
X107862269Y-93098511D01*
%TO.C,C6*%
X104643011Y-100222591D02*
X104643011Y-99941431D01*
X103623011Y-100222591D02*
X103623011Y-99941431D01*
%TO.C,C7*%
X95435511Y-103562091D02*
X95435511Y-103280931D01*
X94415511Y-103562091D02*
X94415511Y-103280931D01*
%TO.C,D1*%
X76458506Y-104628511D02*
X76458506Y-106913511D01*
X76458506Y-106913511D02*
X77928506Y-106913511D01*
X77928506Y-106913511D02*
X77928506Y-104628511D01*
%TO.C,D2*%
X74934506Y-104628511D02*
X74934506Y-106913511D01*
X74934506Y-106913511D02*
X76404506Y-106913511D01*
X76404506Y-106913511D02*
X76404506Y-104628511D01*
%TO.C,F1*%
X73909461Y-93740011D02*
X72928551Y-93740011D01*
X73909461Y-91920011D02*
X72928551Y-91920011D01*
D11*
%TO.C,IC1*%
X76444006Y-100831011D02*
G75*
G03*
X76444006Y-100831011I-203000J0D01*
G01*
D12*
X75819006Y-97402011D02*
X75819006Y-101212011D01*
X80219006Y-97402011D02*
X75819006Y-97402011D01*
X80219006Y-101212011D02*
X80219006Y-97402011D01*
X75819006Y-101212011D02*
X80219006Y-101212011D01*
D10*
%TO.C,Q1*%
X82840006Y-106310011D02*
X81910006Y-106310011D01*
X79680006Y-106310011D02*
X80610006Y-106310011D01*
X79680006Y-106310011D02*
X79680006Y-108470011D01*
X82840006Y-106310011D02*
X82840006Y-107770011D01*
%TO.C,R1*%
X77027647Y-103751011D02*
X76720365Y-103751011D01*
X77027647Y-102991011D02*
X76720365Y-102991011D01*
%TO.C,R2*%
X81068006Y-97176652D02*
X81068006Y-96869370D01*
X81828006Y-97176652D02*
X81828006Y-96869370D01*
%TO.C,R3*%
X74184365Y-94101011D02*
X74491647Y-94101011D01*
X74184365Y-94861011D02*
X74491647Y-94861011D01*
%TO.C,R4*%
X73448006Y-106066652D02*
X73448006Y-105759370D01*
X74208006Y-106066652D02*
X74208006Y-105759370D01*
%TO.C,R5*%
X84842147Y-95750011D02*
X84534865Y-95750011D01*
X84842147Y-94990011D02*
X84534865Y-94990011D01*
%TO.C,U1*%
X82791006Y-105047011D02*
X84591006Y-105047011D01*
X84591006Y-101827011D02*
X82141006Y-101827011D01*
%TO.C,U2*%
X80886006Y-95196011D02*
X82686006Y-95196011D01*
X82686006Y-91976011D02*
X80236006Y-91976011D01*
%TO.C,U3*%
X77076006Y-95196011D02*
X78876006Y-95196011D01*
X78876006Y-91976011D02*
X76426006Y-91976011D01*
%TO.C,D3*%
X75950006Y-109070011D02*
X75950006Y-107070011D01*
X75950006Y-107070011D02*
X72050006Y-107070011D01*
X75950006Y-109070011D02*
X72050006Y-109070011D01*
%TO.C,D4*%
X87890006Y-109070011D02*
X87890006Y-107070011D01*
X87890006Y-107070011D02*
X83990006Y-107070011D01*
X87890006Y-109070011D02*
X83990006Y-109070011D01*
%TO.C,C1*%
X80185258Y-104995011D02*
X79662754Y-104995011D01*
X80185258Y-103525011D02*
X79662754Y-103525011D01*
%TO.C,C2*%
X83660754Y-96286011D02*
X84183258Y-96286011D01*
X83660754Y-97756011D02*
X84183258Y-97756011D01*
%TO.C,C3*%
X81319006Y-100222591D02*
X81319006Y-99941431D01*
X82339006Y-100222591D02*
X82339006Y-99941431D01*
%TO.C,C4*%
X84367006Y-100222591D02*
X84367006Y-99941431D01*
X85387006Y-100222591D02*
X85387006Y-99941431D01*
%TO.C,C5*%
X83986006Y-93428091D02*
X83986006Y-93146931D01*
X85006006Y-93428091D02*
X85006006Y-93146931D01*
%TO.C,R6*%
X86607748Y-92053511D02*
X87082264Y-92053511D01*
X86607748Y-93098511D02*
X87082264Y-93098511D01*
%TO.C,C6*%
X83863006Y-100222591D02*
X83863006Y-99941431D01*
X82843006Y-100222591D02*
X82843006Y-99941431D01*
%TO.C,C7*%
X74655506Y-103562091D02*
X74655506Y-103280931D01*
X73635506Y-103562091D02*
X73635506Y-103280931D01*
%TO.C,D1*%
X55678501Y-104628511D02*
X55678501Y-106913511D01*
X55678501Y-106913511D02*
X57148501Y-106913511D01*
X57148501Y-106913511D02*
X57148501Y-104628511D01*
%TO.C,D2*%
X54154501Y-104628511D02*
X54154501Y-106913511D01*
X54154501Y-106913511D02*
X55624501Y-106913511D01*
X55624501Y-106913511D02*
X55624501Y-104628511D01*
%TO.C,F1*%
X53129456Y-93740011D02*
X52148546Y-93740011D01*
X53129456Y-91920011D02*
X52148546Y-91920011D01*
D11*
%TO.C,IC1*%
X55664001Y-100831011D02*
G75*
G03*
X55664001Y-100831011I-203000J0D01*
G01*
D12*
X55039001Y-97402011D02*
X55039001Y-101212011D01*
X59439001Y-97402011D02*
X55039001Y-97402011D01*
X59439001Y-101212011D02*
X59439001Y-97402011D01*
X55039001Y-101212011D02*
X59439001Y-101212011D01*
D10*
%TO.C,Q1*%
X62060001Y-106310011D02*
X61130001Y-106310011D01*
X58900001Y-106310011D02*
X59830001Y-106310011D01*
X58900001Y-106310011D02*
X58900001Y-108470011D01*
X62060001Y-106310011D02*
X62060001Y-107770011D01*
%TO.C,R1*%
X56247642Y-103751011D02*
X55940360Y-103751011D01*
X56247642Y-102991011D02*
X55940360Y-102991011D01*
%TO.C,R2*%
X60288001Y-97176652D02*
X60288001Y-96869370D01*
X61048001Y-97176652D02*
X61048001Y-96869370D01*
%TO.C,R3*%
X53404360Y-94101011D02*
X53711642Y-94101011D01*
X53404360Y-94861011D02*
X53711642Y-94861011D01*
%TO.C,R4*%
X52668001Y-106066652D02*
X52668001Y-105759370D01*
X53428001Y-106066652D02*
X53428001Y-105759370D01*
%TO.C,R5*%
X64062142Y-95750011D02*
X63754860Y-95750011D01*
X64062142Y-94990011D02*
X63754860Y-94990011D01*
%TO.C,U1*%
X62011001Y-105047011D02*
X63811001Y-105047011D01*
X63811001Y-101827011D02*
X61361001Y-101827011D01*
%TO.C,U2*%
X60106001Y-95196011D02*
X61906001Y-95196011D01*
X61906001Y-91976011D02*
X59456001Y-91976011D01*
%TO.C,U3*%
X56296001Y-95196011D02*
X58096001Y-95196011D01*
X58096001Y-91976011D02*
X55646001Y-91976011D01*
%TO.C,D3*%
X55170001Y-109070011D02*
X55170001Y-107070011D01*
X55170001Y-107070011D02*
X51270001Y-107070011D01*
X55170001Y-109070011D02*
X51270001Y-109070011D01*
%TO.C,D4*%
X67110001Y-109070011D02*
X67110001Y-107070011D01*
X67110001Y-107070011D02*
X63210001Y-107070011D01*
X67110001Y-109070011D02*
X63210001Y-109070011D01*
%TO.C,C1*%
X59405253Y-104995011D02*
X58882749Y-104995011D01*
X59405253Y-103525011D02*
X58882749Y-103525011D01*
%TO.C,C2*%
X62880749Y-96286011D02*
X63403253Y-96286011D01*
X62880749Y-97756011D02*
X63403253Y-97756011D01*
%TO.C,C3*%
X60539001Y-100222591D02*
X60539001Y-99941431D01*
X61559001Y-100222591D02*
X61559001Y-99941431D01*
%TO.C,C4*%
X63587001Y-100222591D02*
X63587001Y-99941431D01*
X64607001Y-100222591D02*
X64607001Y-99941431D01*
%TO.C,C5*%
X63206001Y-93428091D02*
X63206001Y-93146931D01*
X64226001Y-93428091D02*
X64226001Y-93146931D01*
%TO.C,R6*%
X65827743Y-92053511D02*
X66302259Y-92053511D01*
X65827743Y-93098511D02*
X66302259Y-93098511D01*
%TO.C,C6*%
X63083001Y-100222591D02*
X63083001Y-99941431D01*
X62063001Y-100222591D02*
X62063001Y-99941431D01*
%TO.C,C7*%
X53875501Y-103562091D02*
X53875501Y-103280931D01*
X52855501Y-103562091D02*
X52855501Y-103280931D01*
%TO.C,D1*%
X118018516Y-83848506D02*
X118018516Y-86133506D01*
X118018516Y-86133506D02*
X119488516Y-86133506D01*
X119488516Y-86133506D02*
X119488516Y-83848506D01*
%TO.C,D2*%
X116494516Y-83848506D02*
X116494516Y-86133506D01*
X116494516Y-86133506D02*
X117964516Y-86133506D01*
X117964516Y-86133506D02*
X117964516Y-83848506D01*
%TO.C,F1*%
X115469471Y-72960006D02*
X114488561Y-72960006D01*
X115469471Y-71140006D02*
X114488561Y-71140006D01*
D11*
%TO.C,IC1*%
X118004016Y-80051006D02*
G75*
G03*
X118004016Y-80051006I-203000J0D01*
G01*
D12*
X117379016Y-76622006D02*
X117379016Y-80432006D01*
X121779016Y-76622006D02*
X117379016Y-76622006D01*
X121779016Y-80432006D02*
X121779016Y-76622006D01*
X117379016Y-80432006D02*
X121779016Y-80432006D01*
D10*
%TO.C,Q1*%
X124400016Y-85530006D02*
X123470016Y-85530006D01*
X121240016Y-85530006D02*
X122170016Y-85530006D01*
X121240016Y-85530006D02*
X121240016Y-87690006D01*
X124400016Y-85530006D02*
X124400016Y-86990006D01*
%TO.C,R1*%
X118587657Y-82971006D02*
X118280375Y-82971006D01*
X118587657Y-82211006D02*
X118280375Y-82211006D01*
%TO.C,R2*%
X122628016Y-76396647D02*
X122628016Y-76089365D01*
X123388016Y-76396647D02*
X123388016Y-76089365D01*
%TO.C,R3*%
X115744375Y-73321006D02*
X116051657Y-73321006D01*
X115744375Y-74081006D02*
X116051657Y-74081006D01*
%TO.C,R4*%
X115008016Y-85286647D02*
X115008016Y-84979365D01*
X115768016Y-85286647D02*
X115768016Y-84979365D01*
%TO.C,R5*%
X126402157Y-74970006D02*
X126094875Y-74970006D01*
X126402157Y-74210006D02*
X126094875Y-74210006D01*
%TO.C,U1*%
X124351016Y-84267006D02*
X126151016Y-84267006D01*
X126151016Y-81047006D02*
X123701016Y-81047006D01*
%TO.C,U2*%
X122446016Y-74416006D02*
X124246016Y-74416006D01*
X124246016Y-71196006D02*
X121796016Y-71196006D01*
%TO.C,U3*%
X118636016Y-74416006D02*
X120436016Y-74416006D01*
X120436016Y-71196006D02*
X117986016Y-71196006D01*
%TO.C,D3*%
X117510016Y-88290006D02*
X117510016Y-86290006D01*
X117510016Y-86290006D02*
X113610016Y-86290006D01*
X117510016Y-88290006D02*
X113610016Y-88290006D01*
%TO.C,D4*%
X129450016Y-88290006D02*
X129450016Y-86290006D01*
X129450016Y-86290006D02*
X125550016Y-86290006D01*
X129450016Y-88290006D02*
X125550016Y-88290006D01*
%TO.C,C1*%
X121745268Y-84215006D02*
X121222764Y-84215006D01*
X121745268Y-82745006D02*
X121222764Y-82745006D01*
%TO.C,C2*%
X125220764Y-75506006D02*
X125743268Y-75506006D01*
X125220764Y-76976006D02*
X125743268Y-76976006D01*
%TO.C,C3*%
X122879016Y-79442586D02*
X122879016Y-79161426D01*
X123899016Y-79442586D02*
X123899016Y-79161426D01*
%TO.C,C4*%
X125927016Y-79442586D02*
X125927016Y-79161426D01*
X126947016Y-79442586D02*
X126947016Y-79161426D01*
%TO.C,C5*%
X125546016Y-72648086D02*
X125546016Y-72366926D01*
X126566016Y-72648086D02*
X126566016Y-72366926D01*
%TO.C,R6*%
X128167758Y-71273506D02*
X128642274Y-71273506D01*
X128167758Y-72318506D02*
X128642274Y-72318506D01*
%TO.C,C6*%
X125423016Y-79442586D02*
X125423016Y-79161426D01*
X124403016Y-79442586D02*
X124403016Y-79161426D01*
%TO.C,C7*%
X116215516Y-82782086D02*
X116215516Y-82500926D01*
X115195516Y-82782086D02*
X115195516Y-82500926D01*
%TO.C,D1*%
X97238511Y-83848506D02*
X97238511Y-86133506D01*
X97238511Y-86133506D02*
X98708511Y-86133506D01*
X98708511Y-86133506D02*
X98708511Y-83848506D01*
%TO.C,D2*%
X95714511Y-83848506D02*
X95714511Y-86133506D01*
X95714511Y-86133506D02*
X97184511Y-86133506D01*
X97184511Y-86133506D02*
X97184511Y-83848506D01*
%TO.C,F1*%
X94689466Y-72960006D02*
X93708556Y-72960006D01*
X94689466Y-71140006D02*
X93708556Y-71140006D01*
D11*
%TO.C,IC1*%
X97224011Y-80051006D02*
G75*
G03*
X97224011Y-80051006I-203000J0D01*
G01*
D12*
X96599011Y-76622006D02*
X96599011Y-80432006D01*
X100999011Y-76622006D02*
X96599011Y-76622006D01*
X100999011Y-80432006D02*
X100999011Y-76622006D01*
X96599011Y-80432006D02*
X100999011Y-80432006D01*
D10*
%TO.C,Q1*%
X103620011Y-85530006D02*
X102690011Y-85530006D01*
X100460011Y-85530006D02*
X101390011Y-85530006D01*
X100460011Y-85530006D02*
X100460011Y-87690006D01*
X103620011Y-85530006D02*
X103620011Y-86990006D01*
%TO.C,R1*%
X97807652Y-82971006D02*
X97500370Y-82971006D01*
X97807652Y-82211006D02*
X97500370Y-82211006D01*
%TO.C,R2*%
X101848011Y-76396647D02*
X101848011Y-76089365D01*
X102608011Y-76396647D02*
X102608011Y-76089365D01*
%TO.C,R3*%
X94964370Y-73321006D02*
X95271652Y-73321006D01*
X94964370Y-74081006D02*
X95271652Y-74081006D01*
%TO.C,R4*%
X94228011Y-85286647D02*
X94228011Y-84979365D01*
X94988011Y-85286647D02*
X94988011Y-84979365D01*
%TO.C,R5*%
X105622152Y-74970006D02*
X105314870Y-74970006D01*
X105622152Y-74210006D02*
X105314870Y-74210006D01*
%TO.C,U1*%
X103571011Y-84267006D02*
X105371011Y-84267006D01*
X105371011Y-81047006D02*
X102921011Y-81047006D01*
%TO.C,U2*%
X101666011Y-74416006D02*
X103466011Y-74416006D01*
X103466011Y-71196006D02*
X101016011Y-71196006D01*
%TO.C,U3*%
X97856011Y-74416006D02*
X99656011Y-74416006D01*
X99656011Y-71196006D02*
X97206011Y-71196006D01*
%TO.C,D3*%
X96730011Y-88290006D02*
X96730011Y-86290006D01*
X96730011Y-86290006D02*
X92830011Y-86290006D01*
X96730011Y-88290006D02*
X92830011Y-88290006D01*
%TO.C,D4*%
X108670011Y-88290006D02*
X108670011Y-86290006D01*
X108670011Y-86290006D02*
X104770011Y-86290006D01*
X108670011Y-88290006D02*
X104770011Y-88290006D01*
%TO.C,C1*%
X100965263Y-84215006D02*
X100442759Y-84215006D01*
X100965263Y-82745006D02*
X100442759Y-82745006D01*
%TO.C,C2*%
X104440759Y-75506006D02*
X104963263Y-75506006D01*
X104440759Y-76976006D02*
X104963263Y-76976006D01*
%TO.C,C3*%
X102099011Y-79442586D02*
X102099011Y-79161426D01*
X103119011Y-79442586D02*
X103119011Y-79161426D01*
%TO.C,C4*%
X105147011Y-79442586D02*
X105147011Y-79161426D01*
X106167011Y-79442586D02*
X106167011Y-79161426D01*
%TO.C,C5*%
X104766011Y-72648086D02*
X104766011Y-72366926D01*
X105786011Y-72648086D02*
X105786011Y-72366926D01*
%TO.C,R6*%
X107387753Y-71273506D02*
X107862269Y-71273506D01*
X107387753Y-72318506D02*
X107862269Y-72318506D01*
%TO.C,C6*%
X104643011Y-79442586D02*
X104643011Y-79161426D01*
X103623011Y-79442586D02*
X103623011Y-79161426D01*
%TO.C,C7*%
X95435511Y-82782086D02*
X95435511Y-82500926D01*
X94415511Y-82782086D02*
X94415511Y-82500926D01*
%TO.C,D1*%
X76458506Y-83848506D02*
X76458506Y-86133506D01*
X76458506Y-86133506D02*
X77928506Y-86133506D01*
X77928506Y-86133506D02*
X77928506Y-83848506D01*
%TO.C,D2*%
X74934506Y-83848506D02*
X74934506Y-86133506D01*
X74934506Y-86133506D02*
X76404506Y-86133506D01*
X76404506Y-86133506D02*
X76404506Y-83848506D01*
%TO.C,F1*%
X73909461Y-72960006D02*
X72928551Y-72960006D01*
X73909461Y-71140006D02*
X72928551Y-71140006D01*
D11*
%TO.C,IC1*%
X76444006Y-80051006D02*
G75*
G03*
X76444006Y-80051006I-203000J0D01*
G01*
D12*
X75819006Y-76622006D02*
X75819006Y-80432006D01*
X80219006Y-76622006D02*
X75819006Y-76622006D01*
X80219006Y-80432006D02*
X80219006Y-76622006D01*
X75819006Y-80432006D02*
X80219006Y-80432006D01*
D10*
%TO.C,Q1*%
X82840006Y-85530006D02*
X81910006Y-85530006D01*
X79680006Y-85530006D02*
X80610006Y-85530006D01*
X79680006Y-85530006D02*
X79680006Y-87690006D01*
X82840006Y-85530006D02*
X82840006Y-86990006D01*
%TO.C,R1*%
X77027647Y-82971006D02*
X76720365Y-82971006D01*
X77027647Y-82211006D02*
X76720365Y-82211006D01*
%TO.C,R2*%
X81068006Y-76396647D02*
X81068006Y-76089365D01*
X81828006Y-76396647D02*
X81828006Y-76089365D01*
%TO.C,R3*%
X74184365Y-73321006D02*
X74491647Y-73321006D01*
X74184365Y-74081006D02*
X74491647Y-74081006D01*
%TO.C,R4*%
X73448006Y-85286647D02*
X73448006Y-84979365D01*
X74208006Y-85286647D02*
X74208006Y-84979365D01*
%TO.C,R5*%
X84842147Y-74970006D02*
X84534865Y-74970006D01*
X84842147Y-74210006D02*
X84534865Y-74210006D01*
%TO.C,U1*%
X82791006Y-84267006D02*
X84591006Y-84267006D01*
X84591006Y-81047006D02*
X82141006Y-81047006D01*
%TO.C,U2*%
X80886006Y-74416006D02*
X82686006Y-74416006D01*
X82686006Y-71196006D02*
X80236006Y-71196006D01*
%TO.C,U3*%
X77076006Y-74416006D02*
X78876006Y-74416006D01*
X78876006Y-71196006D02*
X76426006Y-71196006D01*
%TO.C,D3*%
X75950006Y-88290006D02*
X75950006Y-86290006D01*
X75950006Y-86290006D02*
X72050006Y-86290006D01*
X75950006Y-88290006D02*
X72050006Y-88290006D01*
%TO.C,D4*%
X87890006Y-88290006D02*
X87890006Y-86290006D01*
X87890006Y-86290006D02*
X83990006Y-86290006D01*
X87890006Y-88290006D02*
X83990006Y-88290006D01*
%TO.C,C1*%
X80185258Y-84215006D02*
X79662754Y-84215006D01*
X80185258Y-82745006D02*
X79662754Y-82745006D01*
%TO.C,C2*%
X83660754Y-75506006D02*
X84183258Y-75506006D01*
X83660754Y-76976006D02*
X84183258Y-76976006D01*
%TO.C,C3*%
X81319006Y-79442586D02*
X81319006Y-79161426D01*
X82339006Y-79442586D02*
X82339006Y-79161426D01*
%TO.C,C4*%
X84367006Y-79442586D02*
X84367006Y-79161426D01*
X85387006Y-79442586D02*
X85387006Y-79161426D01*
%TO.C,C5*%
X83986006Y-72648086D02*
X83986006Y-72366926D01*
X85006006Y-72648086D02*
X85006006Y-72366926D01*
%TO.C,R6*%
X86607748Y-71273506D02*
X87082264Y-71273506D01*
X86607748Y-72318506D02*
X87082264Y-72318506D01*
%TO.C,C6*%
X83863006Y-79442586D02*
X83863006Y-79161426D01*
X82843006Y-79442586D02*
X82843006Y-79161426D01*
%TO.C,C7*%
X74655506Y-82782086D02*
X74655506Y-82500926D01*
X73635506Y-82782086D02*
X73635506Y-82500926D01*
%TO.C,D1*%
X55678501Y-83848506D02*
X55678501Y-86133506D01*
X55678501Y-86133506D02*
X57148501Y-86133506D01*
X57148501Y-86133506D02*
X57148501Y-83848506D01*
%TO.C,D2*%
X54154501Y-83848506D02*
X54154501Y-86133506D01*
X54154501Y-86133506D02*
X55624501Y-86133506D01*
X55624501Y-86133506D02*
X55624501Y-83848506D01*
%TO.C,F1*%
X53129456Y-72960006D02*
X52148546Y-72960006D01*
X53129456Y-71140006D02*
X52148546Y-71140006D01*
D11*
%TO.C,IC1*%
X55664001Y-80051006D02*
G75*
G03*
X55664001Y-80051006I-203000J0D01*
G01*
D12*
X55039001Y-76622006D02*
X55039001Y-80432006D01*
X59439001Y-76622006D02*
X55039001Y-76622006D01*
X59439001Y-80432006D02*
X59439001Y-76622006D01*
X55039001Y-80432006D02*
X59439001Y-80432006D01*
D10*
%TO.C,Q1*%
X62060001Y-85530006D02*
X61130001Y-85530006D01*
X58900001Y-85530006D02*
X59830001Y-85530006D01*
X58900001Y-85530006D02*
X58900001Y-87690006D01*
X62060001Y-85530006D02*
X62060001Y-86990006D01*
%TO.C,R1*%
X56247642Y-82971006D02*
X55940360Y-82971006D01*
X56247642Y-82211006D02*
X55940360Y-82211006D01*
%TO.C,R2*%
X60288001Y-76396647D02*
X60288001Y-76089365D01*
X61048001Y-76396647D02*
X61048001Y-76089365D01*
%TO.C,R3*%
X53404360Y-73321006D02*
X53711642Y-73321006D01*
X53404360Y-74081006D02*
X53711642Y-74081006D01*
%TO.C,R4*%
X52668001Y-85286647D02*
X52668001Y-84979365D01*
X53428001Y-85286647D02*
X53428001Y-84979365D01*
%TO.C,R5*%
X64062142Y-74970006D02*
X63754860Y-74970006D01*
X64062142Y-74210006D02*
X63754860Y-74210006D01*
%TO.C,U1*%
X62011001Y-84267006D02*
X63811001Y-84267006D01*
X63811001Y-81047006D02*
X61361001Y-81047006D01*
%TO.C,U2*%
X60106001Y-74416006D02*
X61906001Y-74416006D01*
X61906001Y-71196006D02*
X59456001Y-71196006D01*
%TO.C,U3*%
X56296001Y-74416006D02*
X58096001Y-74416006D01*
X58096001Y-71196006D02*
X55646001Y-71196006D01*
%TO.C,D3*%
X55170001Y-88290006D02*
X55170001Y-86290006D01*
X55170001Y-86290006D02*
X51270001Y-86290006D01*
X55170001Y-88290006D02*
X51270001Y-88290006D01*
%TO.C,D4*%
X67110001Y-88290006D02*
X67110001Y-86290006D01*
X67110001Y-86290006D02*
X63210001Y-86290006D01*
X67110001Y-88290006D02*
X63210001Y-88290006D01*
%TO.C,C1*%
X59405253Y-84215006D02*
X58882749Y-84215006D01*
X59405253Y-82745006D02*
X58882749Y-82745006D01*
%TO.C,C2*%
X62880749Y-75506006D02*
X63403253Y-75506006D01*
X62880749Y-76976006D02*
X63403253Y-76976006D01*
%TO.C,C3*%
X60539001Y-79442586D02*
X60539001Y-79161426D01*
X61559001Y-79442586D02*
X61559001Y-79161426D01*
%TO.C,C4*%
X63587001Y-79442586D02*
X63587001Y-79161426D01*
X64607001Y-79442586D02*
X64607001Y-79161426D01*
%TO.C,C5*%
X63206001Y-72648086D02*
X63206001Y-72366926D01*
X64226001Y-72648086D02*
X64226001Y-72366926D01*
%TO.C,R6*%
X65827743Y-71273506D02*
X66302259Y-71273506D01*
X65827743Y-72318506D02*
X66302259Y-72318506D01*
%TO.C,C6*%
X63083001Y-79442586D02*
X63083001Y-79161426D01*
X62063001Y-79442586D02*
X62063001Y-79161426D01*
%TO.C,C7*%
X53875501Y-82782086D02*
X53875501Y-82500926D01*
X52855501Y-82782086D02*
X52855501Y-82500926D01*
%TO.C,D1*%
X118018516Y-63068501D02*
X118018516Y-65353501D01*
X118018516Y-65353501D02*
X119488516Y-65353501D01*
X119488516Y-65353501D02*
X119488516Y-63068501D01*
%TO.C,D2*%
X116494516Y-63068501D02*
X116494516Y-65353501D01*
X116494516Y-65353501D02*
X117964516Y-65353501D01*
X117964516Y-65353501D02*
X117964516Y-63068501D01*
%TO.C,F1*%
X115469471Y-52180001D02*
X114488561Y-52180001D01*
X115469471Y-50360001D02*
X114488561Y-50360001D01*
D11*
%TO.C,IC1*%
X118004016Y-59271001D02*
G75*
G03*
X118004016Y-59271001I-203000J0D01*
G01*
D12*
X117379016Y-55842001D02*
X117379016Y-59652001D01*
X121779016Y-55842001D02*
X117379016Y-55842001D01*
X121779016Y-59652001D02*
X121779016Y-55842001D01*
X117379016Y-59652001D02*
X121779016Y-59652001D01*
D10*
%TO.C,Q1*%
X124400016Y-64750001D02*
X123470016Y-64750001D01*
X121240016Y-64750001D02*
X122170016Y-64750001D01*
X121240016Y-64750001D02*
X121240016Y-66910001D01*
X124400016Y-64750001D02*
X124400016Y-66210001D01*
%TO.C,R1*%
X118587657Y-62191001D02*
X118280375Y-62191001D01*
X118587657Y-61431001D02*
X118280375Y-61431001D01*
%TO.C,R2*%
X122628016Y-55616642D02*
X122628016Y-55309360D01*
X123388016Y-55616642D02*
X123388016Y-55309360D01*
%TO.C,R3*%
X115744375Y-52541001D02*
X116051657Y-52541001D01*
X115744375Y-53301001D02*
X116051657Y-53301001D01*
%TO.C,R4*%
X115008016Y-64506642D02*
X115008016Y-64199360D01*
X115768016Y-64506642D02*
X115768016Y-64199360D01*
%TO.C,R5*%
X126402157Y-54190001D02*
X126094875Y-54190001D01*
X126402157Y-53430001D02*
X126094875Y-53430001D01*
%TO.C,U1*%
X124351016Y-63487001D02*
X126151016Y-63487001D01*
X126151016Y-60267001D02*
X123701016Y-60267001D01*
%TO.C,U2*%
X122446016Y-53636001D02*
X124246016Y-53636001D01*
X124246016Y-50416001D02*
X121796016Y-50416001D01*
%TO.C,U3*%
X118636016Y-53636001D02*
X120436016Y-53636001D01*
X120436016Y-50416001D02*
X117986016Y-50416001D01*
%TO.C,D3*%
X117510016Y-67510001D02*
X117510016Y-65510001D01*
X117510016Y-65510001D02*
X113610016Y-65510001D01*
X117510016Y-67510001D02*
X113610016Y-67510001D01*
%TO.C,D4*%
X129450016Y-67510001D02*
X129450016Y-65510001D01*
X129450016Y-65510001D02*
X125550016Y-65510001D01*
X129450016Y-67510001D02*
X125550016Y-67510001D01*
%TO.C,C1*%
X121745268Y-63435001D02*
X121222764Y-63435001D01*
X121745268Y-61965001D02*
X121222764Y-61965001D01*
%TO.C,C2*%
X125220764Y-54726001D02*
X125743268Y-54726001D01*
X125220764Y-56196001D02*
X125743268Y-56196001D01*
%TO.C,C3*%
X122879016Y-58662581D02*
X122879016Y-58381421D01*
X123899016Y-58662581D02*
X123899016Y-58381421D01*
%TO.C,C4*%
X125927016Y-58662581D02*
X125927016Y-58381421D01*
X126947016Y-58662581D02*
X126947016Y-58381421D01*
%TO.C,C5*%
X125546016Y-51868081D02*
X125546016Y-51586921D01*
X126566016Y-51868081D02*
X126566016Y-51586921D01*
%TO.C,R6*%
X128167758Y-50493501D02*
X128642274Y-50493501D01*
X128167758Y-51538501D02*
X128642274Y-51538501D01*
%TO.C,C6*%
X125423016Y-58662581D02*
X125423016Y-58381421D01*
X124403016Y-58662581D02*
X124403016Y-58381421D01*
%TO.C,C7*%
X116215516Y-62002081D02*
X116215516Y-61720921D01*
X115195516Y-62002081D02*
X115195516Y-61720921D01*
%TO.C,D1*%
X97238511Y-63068501D02*
X97238511Y-65353501D01*
X97238511Y-65353501D02*
X98708511Y-65353501D01*
X98708511Y-65353501D02*
X98708511Y-63068501D01*
%TO.C,D2*%
X95714511Y-63068501D02*
X95714511Y-65353501D01*
X95714511Y-65353501D02*
X97184511Y-65353501D01*
X97184511Y-65353501D02*
X97184511Y-63068501D01*
%TO.C,F1*%
X94689466Y-52180001D02*
X93708556Y-52180001D01*
X94689466Y-50360001D02*
X93708556Y-50360001D01*
D11*
%TO.C,IC1*%
X97224011Y-59271001D02*
G75*
G03*
X97224011Y-59271001I-203000J0D01*
G01*
D12*
X96599011Y-55842001D02*
X96599011Y-59652001D01*
X100999011Y-55842001D02*
X96599011Y-55842001D01*
X100999011Y-59652001D02*
X100999011Y-55842001D01*
X96599011Y-59652001D02*
X100999011Y-59652001D01*
D10*
%TO.C,Q1*%
X103620011Y-64750001D02*
X102690011Y-64750001D01*
X100460011Y-64750001D02*
X101390011Y-64750001D01*
X100460011Y-64750001D02*
X100460011Y-66910001D01*
X103620011Y-64750001D02*
X103620011Y-66210001D01*
%TO.C,R1*%
X97807652Y-62191001D02*
X97500370Y-62191001D01*
X97807652Y-61431001D02*
X97500370Y-61431001D01*
%TO.C,R2*%
X101848011Y-55616642D02*
X101848011Y-55309360D01*
X102608011Y-55616642D02*
X102608011Y-55309360D01*
%TO.C,R3*%
X94964370Y-52541001D02*
X95271652Y-52541001D01*
X94964370Y-53301001D02*
X95271652Y-53301001D01*
%TO.C,R4*%
X94228011Y-64506642D02*
X94228011Y-64199360D01*
X94988011Y-64506642D02*
X94988011Y-64199360D01*
%TO.C,R5*%
X105622152Y-54190001D02*
X105314870Y-54190001D01*
X105622152Y-53430001D02*
X105314870Y-53430001D01*
%TO.C,U1*%
X103571011Y-63487001D02*
X105371011Y-63487001D01*
X105371011Y-60267001D02*
X102921011Y-60267001D01*
%TO.C,U2*%
X101666011Y-53636001D02*
X103466011Y-53636001D01*
X103466011Y-50416001D02*
X101016011Y-50416001D01*
%TO.C,U3*%
X97856011Y-53636001D02*
X99656011Y-53636001D01*
X99656011Y-50416001D02*
X97206011Y-50416001D01*
%TO.C,D3*%
X96730011Y-67510001D02*
X96730011Y-65510001D01*
X96730011Y-65510001D02*
X92830011Y-65510001D01*
X96730011Y-67510001D02*
X92830011Y-67510001D01*
%TO.C,D4*%
X108670011Y-67510001D02*
X108670011Y-65510001D01*
X108670011Y-65510001D02*
X104770011Y-65510001D01*
X108670011Y-67510001D02*
X104770011Y-67510001D01*
%TO.C,C1*%
X100965263Y-63435001D02*
X100442759Y-63435001D01*
X100965263Y-61965001D02*
X100442759Y-61965001D01*
%TO.C,C2*%
X104440759Y-54726001D02*
X104963263Y-54726001D01*
X104440759Y-56196001D02*
X104963263Y-56196001D01*
%TO.C,C3*%
X102099011Y-58662581D02*
X102099011Y-58381421D01*
X103119011Y-58662581D02*
X103119011Y-58381421D01*
%TO.C,C4*%
X105147011Y-58662581D02*
X105147011Y-58381421D01*
X106167011Y-58662581D02*
X106167011Y-58381421D01*
%TO.C,C5*%
X104766011Y-51868081D02*
X104766011Y-51586921D01*
X105786011Y-51868081D02*
X105786011Y-51586921D01*
%TO.C,R6*%
X107387753Y-50493501D02*
X107862269Y-50493501D01*
X107387753Y-51538501D02*
X107862269Y-51538501D01*
%TO.C,C6*%
X104643011Y-58662581D02*
X104643011Y-58381421D01*
X103623011Y-58662581D02*
X103623011Y-58381421D01*
%TO.C,C7*%
X95435511Y-62002081D02*
X95435511Y-61720921D01*
X94415511Y-62002081D02*
X94415511Y-61720921D01*
%TO.C,D1*%
X76458506Y-63068501D02*
X76458506Y-65353501D01*
X76458506Y-65353501D02*
X77928506Y-65353501D01*
X77928506Y-65353501D02*
X77928506Y-63068501D01*
%TO.C,D2*%
X74934506Y-63068501D02*
X74934506Y-65353501D01*
X74934506Y-65353501D02*
X76404506Y-65353501D01*
X76404506Y-65353501D02*
X76404506Y-63068501D01*
%TO.C,F1*%
X73909461Y-52180001D02*
X72928551Y-52180001D01*
X73909461Y-50360001D02*
X72928551Y-50360001D01*
D11*
%TO.C,IC1*%
X76444006Y-59271001D02*
G75*
G03*
X76444006Y-59271001I-203000J0D01*
G01*
D12*
X75819006Y-55842001D02*
X75819006Y-59652001D01*
X80219006Y-55842001D02*
X75819006Y-55842001D01*
X80219006Y-59652001D02*
X80219006Y-55842001D01*
X75819006Y-59652001D02*
X80219006Y-59652001D01*
D10*
%TO.C,Q1*%
X82840006Y-64750001D02*
X81910006Y-64750001D01*
X79680006Y-64750001D02*
X80610006Y-64750001D01*
X79680006Y-64750001D02*
X79680006Y-66910001D01*
X82840006Y-64750001D02*
X82840006Y-66210001D01*
%TO.C,R1*%
X77027647Y-62191001D02*
X76720365Y-62191001D01*
X77027647Y-61431001D02*
X76720365Y-61431001D01*
%TO.C,R2*%
X81068006Y-55616642D02*
X81068006Y-55309360D01*
X81828006Y-55616642D02*
X81828006Y-55309360D01*
%TO.C,R3*%
X74184365Y-52541001D02*
X74491647Y-52541001D01*
X74184365Y-53301001D02*
X74491647Y-53301001D01*
%TO.C,R4*%
X73448006Y-64506642D02*
X73448006Y-64199360D01*
X74208006Y-64506642D02*
X74208006Y-64199360D01*
%TO.C,R5*%
X84842147Y-54190001D02*
X84534865Y-54190001D01*
X84842147Y-53430001D02*
X84534865Y-53430001D01*
%TO.C,U1*%
X82791006Y-63487001D02*
X84591006Y-63487001D01*
X84591006Y-60267001D02*
X82141006Y-60267001D01*
%TO.C,U2*%
X80886006Y-53636001D02*
X82686006Y-53636001D01*
X82686006Y-50416001D02*
X80236006Y-50416001D01*
%TO.C,U3*%
X77076006Y-53636001D02*
X78876006Y-53636001D01*
X78876006Y-50416001D02*
X76426006Y-50416001D01*
%TO.C,D3*%
X75950006Y-67510001D02*
X75950006Y-65510001D01*
X75950006Y-65510001D02*
X72050006Y-65510001D01*
X75950006Y-67510001D02*
X72050006Y-67510001D01*
%TO.C,D4*%
X87890006Y-67510001D02*
X87890006Y-65510001D01*
X87890006Y-65510001D02*
X83990006Y-65510001D01*
X87890006Y-67510001D02*
X83990006Y-67510001D01*
%TO.C,C1*%
X80185258Y-63435001D02*
X79662754Y-63435001D01*
X80185258Y-61965001D02*
X79662754Y-61965001D01*
%TO.C,C2*%
X83660754Y-54726001D02*
X84183258Y-54726001D01*
X83660754Y-56196001D02*
X84183258Y-56196001D01*
%TO.C,C3*%
X81319006Y-58662581D02*
X81319006Y-58381421D01*
X82339006Y-58662581D02*
X82339006Y-58381421D01*
%TO.C,C4*%
X84367006Y-58662581D02*
X84367006Y-58381421D01*
X85387006Y-58662581D02*
X85387006Y-58381421D01*
%TO.C,C5*%
X83986006Y-51868081D02*
X83986006Y-51586921D01*
X85006006Y-51868081D02*
X85006006Y-51586921D01*
%TO.C,R6*%
X86607748Y-50493501D02*
X87082264Y-50493501D01*
X86607748Y-51538501D02*
X87082264Y-51538501D01*
%TO.C,C6*%
X83863006Y-58662581D02*
X83863006Y-58381421D01*
X82843006Y-58662581D02*
X82843006Y-58381421D01*
%TO.C,C7*%
X74655506Y-62002081D02*
X74655506Y-61720921D01*
X73635506Y-62002081D02*
X73635506Y-61720921D01*
%TO.C,D1*%
X55678501Y-63068501D02*
X55678501Y-65353501D01*
X55678501Y-65353501D02*
X57148501Y-65353501D01*
X57148501Y-65353501D02*
X57148501Y-63068501D01*
%TO.C,D2*%
X54154501Y-63068501D02*
X54154501Y-65353501D01*
X54154501Y-65353501D02*
X55624501Y-65353501D01*
X55624501Y-65353501D02*
X55624501Y-63068501D01*
%TO.C,F1*%
X53129456Y-52180001D02*
X52148546Y-52180001D01*
X53129456Y-50360001D02*
X52148546Y-50360001D01*
D11*
%TO.C,IC1*%
X55664001Y-59271001D02*
G75*
G03*
X55664001Y-59271001I-203000J0D01*
G01*
D12*
X55039001Y-55842001D02*
X55039001Y-59652001D01*
X59439001Y-55842001D02*
X55039001Y-55842001D01*
X59439001Y-59652001D02*
X59439001Y-55842001D01*
X55039001Y-59652001D02*
X59439001Y-59652001D01*
D10*
%TO.C,Q1*%
X62060001Y-64750001D02*
X61130001Y-64750001D01*
X58900001Y-64750001D02*
X59830001Y-64750001D01*
X58900001Y-64750001D02*
X58900001Y-66910001D01*
X62060001Y-64750001D02*
X62060001Y-66210001D01*
%TO.C,R1*%
X56247642Y-62191001D02*
X55940360Y-62191001D01*
X56247642Y-61431001D02*
X55940360Y-61431001D01*
%TO.C,R2*%
X60288001Y-55616642D02*
X60288001Y-55309360D01*
X61048001Y-55616642D02*
X61048001Y-55309360D01*
%TO.C,R3*%
X53404360Y-52541001D02*
X53711642Y-52541001D01*
X53404360Y-53301001D02*
X53711642Y-53301001D01*
%TO.C,R4*%
X52668001Y-64506642D02*
X52668001Y-64199360D01*
X53428001Y-64506642D02*
X53428001Y-64199360D01*
%TO.C,R5*%
X64062142Y-54190001D02*
X63754860Y-54190001D01*
X64062142Y-53430001D02*
X63754860Y-53430001D01*
%TO.C,U1*%
X62011001Y-63487001D02*
X63811001Y-63487001D01*
X63811001Y-60267001D02*
X61361001Y-60267001D01*
%TO.C,U2*%
X60106001Y-53636001D02*
X61906001Y-53636001D01*
X61906001Y-50416001D02*
X59456001Y-50416001D01*
%TO.C,U3*%
X56296001Y-53636001D02*
X58096001Y-53636001D01*
X58096001Y-50416001D02*
X55646001Y-50416001D01*
%TO.C,D3*%
X55170001Y-67510001D02*
X55170001Y-65510001D01*
X55170001Y-65510001D02*
X51270001Y-65510001D01*
X55170001Y-67510001D02*
X51270001Y-67510001D01*
%TO.C,D4*%
X67110001Y-67510001D02*
X67110001Y-65510001D01*
X67110001Y-65510001D02*
X63210001Y-65510001D01*
X67110001Y-67510001D02*
X63210001Y-67510001D01*
%TO.C,C1*%
X59405253Y-63435001D02*
X58882749Y-63435001D01*
X59405253Y-61965001D02*
X58882749Y-61965001D01*
%TO.C,C2*%
X62880749Y-54726001D02*
X63403253Y-54726001D01*
X62880749Y-56196001D02*
X63403253Y-56196001D01*
%TO.C,C3*%
X60539001Y-58662581D02*
X60539001Y-58381421D01*
X61559001Y-58662581D02*
X61559001Y-58381421D01*
%TO.C,C4*%
X63587001Y-58662581D02*
X63587001Y-58381421D01*
X64607001Y-58662581D02*
X64607001Y-58381421D01*
%TO.C,C5*%
X63206001Y-51868081D02*
X63206001Y-51586921D01*
X64226001Y-51868081D02*
X64226001Y-51586921D01*
%TO.C,R6*%
X65827743Y-50493501D02*
X66302259Y-50493501D01*
X65827743Y-51538501D02*
X66302259Y-51538501D01*
%TO.C,C6*%
X63083001Y-58662581D02*
X63083001Y-58381421D01*
X62063001Y-58662581D02*
X62063001Y-58381421D01*
%TO.C,C7*%
X53875501Y-62002081D02*
X53875501Y-61720921D01*
X52855501Y-62002081D02*
X52855501Y-61720921D01*
%TO.C,C6*%
D13*
X123840158Y-121028682D02*
X123887777Y-121076301D01*
X123935396Y-121219158D01*
X123935396Y-121314396D01*
X123887777Y-121457254D01*
X123792539Y-121552492D01*
X123697301Y-121600111D01*
X123506825Y-121647730D01*
X123363968Y-121647730D01*
X123173492Y-121600111D01*
X123078254Y-121552492D01*
X122983016Y-121457254D01*
X122935396Y-121314396D01*
X122935396Y-121219158D01*
X122983016Y-121076301D01*
X123030635Y-121028682D01*
X122935396Y-120171539D02*
X122935396Y-120362016D01*
X122983016Y-120457254D01*
X123030635Y-120504873D01*
X123173492Y-120600111D01*
X123363968Y-120647730D01*
X123744920Y-120647730D01*
X123840158Y-120600111D01*
X123887777Y-120552492D01*
X123935396Y-120457254D01*
X123935396Y-120266777D01*
X123887777Y-120171539D01*
X123840158Y-120123920D01*
X123744920Y-120076301D01*
X123506825Y-120076301D01*
X123411587Y-120123920D01*
X123363968Y-120171539D01*
X123316349Y-120266777D01*
X123316349Y-120457254D01*
X123363968Y-120552492D01*
X123411587Y-120600111D01*
X123506825Y-120647730D01*
X103060153Y-121028682D02*
X103107772Y-121076301D01*
X103155391Y-121219158D01*
X103155391Y-121314396D01*
X103107772Y-121457254D01*
X103012534Y-121552492D01*
X102917296Y-121600111D01*
X102726820Y-121647730D01*
X102583963Y-121647730D01*
X102393487Y-121600111D01*
X102298249Y-121552492D01*
X102203011Y-121457254D01*
X102155391Y-121314396D01*
X102155391Y-121219158D01*
X102203011Y-121076301D01*
X102250630Y-121028682D01*
X102155391Y-120171539D02*
X102155391Y-120362016D01*
X102203011Y-120457254D01*
X102250630Y-120504873D01*
X102393487Y-120600111D01*
X102583963Y-120647730D01*
X102964915Y-120647730D01*
X103060153Y-120600111D01*
X103107772Y-120552492D01*
X103155391Y-120457254D01*
X103155391Y-120266777D01*
X103107772Y-120171539D01*
X103060153Y-120123920D01*
X102964915Y-120076301D01*
X102726820Y-120076301D01*
X102631582Y-120123920D01*
X102583963Y-120171539D01*
X102536344Y-120266777D01*
X102536344Y-120457254D01*
X102583963Y-120552492D01*
X102631582Y-120600111D01*
X102726820Y-120647730D01*
X82280148Y-121028682D02*
X82327767Y-121076301D01*
X82375386Y-121219158D01*
X82375386Y-121314396D01*
X82327767Y-121457254D01*
X82232529Y-121552492D01*
X82137291Y-121600111D01*
X81946815Y-121647730D01*
X81803958Y-121647730D01*
X81613482Y-121600111D01*
X81518244Y-121552492D01*
X81423006Y-121457254D01*
X81375386Y-121314396D01*
X81375386Y-121219158D01*
X81423006Y-121076301D01*
X81470625Y-121028682D01*
X81375386Y-120171539D02*
X81375386Y-120362016D01*
X81423006Y-120457254D01*
X81470625Y-120504873D01*
X81613482Y-120600111D01*
X81803958Y-120647730D01*
X82184910Y-120647730D01*
X82280148Y-120600111D01*
X82327767Y-120552492D01*
X82375386Y-120457254D01*
X82375386Y-120266777D01*
X82327767Y-120171539D01*
X82280148Y-120123920D01*
X82184910Y-120076301D01*
X81946815Y-120076301D01*
X81851577Y-120123920D01*
X81803958Y-120171539D01*
X81756339Y-120266777D01*
X81756339Y-120457254D01*
X81803958Y-120552492D01*
X81851577Y-120600111D01*
X81946815Y-120647730D01*
X61500143Y-121028682D02*
X61547762Y-121076301D01*
X61595381Y-121219158D01*
X61595381Y-121314396D01*
X61547762Y-121457254D01*
X61452524Y-121552492D01*
X61357286Y-121600111D01*
X61166810Y-121647730D01*
X61023953Y-121647730D01*
X60833477Y-121600111D01*
X60738239Y-121552492D01*
X60643001Y-121457254D01*
X60595381Y-121314396D01*
X60595381Y-121219158D01*
X60643001Y-121076301D01*
X60690620Y-121028682D01*
X60595381Y-120171539D02*
X60595381Y-120362016D01*
X60643001Y-120457254D01*
X60690620Y-120504873D01*
X60833477Y-120600111D01*
X61023953Y-120647730D01*
X61404905Y-120647730D01*
X61500143Y-120600111D01*
X61547762Y-120552492D01*
X61595381Y-120457254D01*
X61595381Y-120266777D01*
X61547762Y-120171539D01*
X61500143Y-120123920D01*
X61404905Y-120076301D01*
X61166810Y-120076301D01*
X61071572Y-120123920D01*
X61023953Y-120171539D01*
X60976334Y-120266777D01*
X60976334Y-120457254D01*
X61023953Y-120552492D01*
X61071572Y-120600111D01*
X61166810Y-120647730D01*
X123840158Y-100248677D02*
X123887777Y-100296296D01*
X123935396Y-100439153D01*
X123935396Y-100534391D01*
X123887777Y-100677249D01*
X123792539Y-100772487D01*
X123697301Y-100820106D01*
X123506825Y-100867725D01*
X123363968Y-100867725D01*
X123173492Y-100820106D01*
X123078254Y-100772487D01*
X122983016Y-100677249D01*
X122935396Y-100534391D01*
X122935396Y-100439153D01*
X122983016Y-100296296D01*
X123030635Y-100248677D01*
X122935396Y-99391534D02*
X122935396Y-99582011D01*
X122983016Y-99677249D01*
X123030635Y-99724868D01*
X123173492Y-99820106D01*
X123363968Y-99867725D01*
X123744920Y-99867725D01*
X123840158Y-99820106D01*
X123887777Y-99772487D01*
X123935396Y-99677249D01*
X123935396Y-99486772D01*
X123887777Y-99391534D01*
X123840158Y-99343915D01*
X123744920Y-99296296D01*
X123506825Y-99296296D01*
X123411587Y-99343915D01*
X123363968Y-99391534D01*
X123316349Y-99486772D01*
X123316349Y-99677249D01*
X123363968Y-99772487D01*
X123411587Y-99820106D01*
X123506825Y-99867725D01*
X103060153Y-100248677D02*
X103107772Y-100296296D01*
X103155391Y-100439153D01*
X103155391Y-100534391D01*
X103107772Y-100677249D01*
X103012534Y-100772487D01*
X102917296Y-100820106D01*
X102726820Y-100867725D01*
X102583963Y-100867725D01*
X102393487Y-100820106D01*
X102298249Y-100772487D01*
X102203011Y-100677249D01*
X102155391Y-100534391D01*
X102155391Y-100439153D01*
X102203011Y-100296296D01*
X102250630Y-100248677D01*
X102155391Y-99391534D02*
X102155391Y-99582011D01*
X102203011Y-99677249D01*
X102250630Y-99724868D01*
X102393487Y-99820106D01*
X102583963Y-99867725D01*
X102964915Y-99867725D01*
X103060153Y-99820106D01*
X103107772Y-99772487D01*
X103155391Y-99677249D01*
X103155391Y-99486772D01*
X103107772Y-99391534D01*
X103060153Y-99343915D01*
X102964915Y-99296296D01*
X102726820Y-99296296D01*
X102631582Y-99343915D01*
X102583963Y-99391534D01*
X102536344Y-99486772D01*
X102536344Y-99677249D01*
X102583963Y-99772487D01*
X102631582Y-99820106D01*
X102726820Y-99867725D01*
X82280148Y-100248677D02*
X82327767Y-100296296D01*
X82375386Y-100439153D01*
X82375386Y-100534391D01*
X82327767Y-100677249D01*
X82232529Y-100772487D01*
X82137291Y-100820106D01*
X81946815Y-100867725D01*
X81803958Y-100867725D01*
X81613482Y-100820106D01*
X81518244Y-100772487D01*
X81423006Y-100677249D01*
X81375386Y-100534391D01*
X81375386Y-100439153D01*
X81423006Y-100296296D01*
X81470625Y-100248677D01*
X81375386Y-99391534D02*
X81375386Y-99582011D01*
X81423006Y-99677249D01*
X81470625Y-99724868D01*
X81613482Y-99820106D01*
X81803958Y-99867725D01*
X82184910Y-99867725D01*
X82280148Y-99820106D01*
X82327767Y-99772487D01*
X82375386Y-99677249D01*
X82375386Y-99486772D01*
X82327767Y-99391534D01*
X82280148Y-99343915D01*
X82184910Y-99296296D01*
X81946815Y-99296296D01*
X81851577Y-99343915D01*
X81803958Y-99391534D01*
X81756339Y-99486772D01*
X81756339Y-99677249D01*
X81803958Y-99772487D01*
X81851577Y-99820106D01*
X81946815Y-99867725D01*
X61500143Y-100248677D02*
X61547762Y-100296296D01*
X61595381Y-100439153D01*
X61595381Y-100534391D01*
X61547762Y-100677249D01*
X61452524Y-100772487D01*
X61357286Y-100820106D01*
X61166810Y-100867725D01*
X61023953Y-100867725D01*
X60833477Y-100820106D01*
X60738239Y-100772487D01*
X60643001Y-100677249D01*
X60595381Y-100534391D01*
X60595381Y-100439153D01*
X60643001Y-100296296D01*
X60690620Y-100248677D01*
X60595381Y-99391534D02*
X60595381Y-99582011D01*
X60643001Y-99677249D01*
X60690620Y-99724868D01*
X60833477Y-99820106D01*
X61023953Y-99867725D01*
X61404905Y-99867725D01*
X61500143Y-99820106D01*
X61547762Y-99772487D01*
X61595381Y-99677249D01*
X61595381Y-99486772D01*
X61547762Y-99391534D01*
X61500143Y-99343915D01*
X61404905Y-99296296D01*
X61166810Y-99296296D01*
X61071572Y-99343915D01*
X61023953Y-99391534D01*
X60976334Y-99486772D01*
X60976334Y-99677249D01*
X61023953Y-99772487D01*
X61071572Y-99820106D01*
X61166810Y-99867725D01*
X123840158Y-79468672D02*
X123887777Y-79516291D01*
X123935396Y-79659148D01*
X123935396Y-79754386D01*
X123887777Y-79897244D01*
X123792539Y-79992482D01*
X123697301Y-80040101D01*
X123506825Y-80087720D01*
X123363968Y-80087720D01*
X123173492Y-80040101D01*
X123078254Y-79992482D01*
X122983016Y-79897244D01*
X122935396Y-79754386D01*
X122935396Y-79659148D01*
X122983016Y-79516291D01*
X123030635Y-79468672D01*
X122935396Y-78611529D02*
X122935396Y-78802006D01*
X122983016Y-78897244D01*
X123030635Y-78944863D01*
X123173492Y-79040101D01*
X123363968Y-79087720D01*
X123744920Y-79087720D01*
X123840158Y-79040101D01*
X123887777Y-78992482D01*
X123935396Y-78897244D01*
X123935396Y-78706767D01*
X123887777Y-78611529D01*
X123840158Y-78563910D01*
X123744920Y-78516291D01*
X123506825Y-78516291D01*
X123411587Y-78563910D01*
X123363968Y-78611529D01*
X123316349Y-78706767D01*
X123316349Y-78897244D01*
X123363968Y-78992482D01*
X123411587Y-79040101D01*
X123506825Y-79087720D01*
X103060153Y-79468672D02*
X103107772Y-79516291D01*
X103155391Y-79659148D01*
X103155391Y-79754386D01*
X103107772Y-79897244D01*
X103012534Y-79992482D01*
X102917296Y-80040101D01*
X102726820Y-80087720D01*
X102583963Y-80087720D01*
X102393487Y-80040101D01*
X102298249Y-79992482D01*
X102203011Y-79897244D01*
X102155391Y-79754386D01*
X102155391Y-79659148D01*
X102203011Y-79516291D01*
X102250630Y-79468672D01*
X102155391Y-78611529D02*
X102155391Y-78802006D01*
X102203011Y-78897244D01*
X102250630Y-78944863D01*
X102393487Y-79040101D01*
X102583963Y-79087720D01*
X102964915Y-79087720D01*
X103060153Y-79040101D01*
X103107772Y-78992482D01*
X103155391Y-78897244D01*
X103155391Y-78706767D01*
X103107772Y-78611529D01*
X103060153Y-78563910D01*
X102964915Y-78516291D01*
X102726820Y-78516291D01*
X102631582Y-78563910D01*
X102583963Y-78611529D01*
X102536344Y-78706767D01*
X102536344Y-78897244D01*
X102583963Y-78992482D01*
X102631582Y-79040101D01*
X102726820Y-79087720D01*
X82280148Y-79468672D02*
X82327767Y-79516291D01*
X82375386Y-79659148D01*
X82375386Y-79754386D01*
X82327767Y-79897244D01*
X82232529Y-79992482D01*
X82137291Y-80040101D01*
X81946815Y-80087720D01*
X81803958Y-80087720D01*
X81613482Y-80040101D01*
X81518244Y-79992482D01*
X81423006Y-79897244D01*
X81375386Y-79754386D01*
X81375386Y-79659148D01*
X81423006Y-79516291D01*
X81470625Y-79468672D01*
X81375386Y-78611529D02*
X81375386Y-78802006D01*
X81423006Y-78897244D01*
X81470625Y-78944863D01*
X81613482Y-79040101D01*
X81803958Y-79087720D01*
X82184910Y-79087720D01*
X82280148Y-79040101D01*
X82327767Y-78992482D01*
X82375386Y-78897244D01*
X82375386Y-78706767D01*
X82327767Y-78611529D01*
X82280148Y-78563910D01*
X82184910Y-78516291D01*
X81946815Y-78516291D01*
X81851577Y-78563910D01*
X81803958Y-78611529D01*
X81756339Y-78706767D01*
X81756339Y-78897244D01*
X81803958Y-78992482D01*
X81851577Y-79040101D01*
X81946815Y-79087720D01*
X61500143Y-79468672D02*
X61547762Y-79516291D01*
X61595381Y-79659148D01*
X61595381Y-79754386D01*
X61547762Y-79897244D01*
X61452524Y-79992482D01*
X61357286Y-80040101D01*
X61166810Y-80087720D01*
X61023953Y-80087720D01*
X60833477Y-80040101D01*
X60738239Y-79992482D01*
X60643001Y-79897244D01*
X60595381Y-79754386D01*
X60595381Y-79659148D01*
X60643001Y-79516291D01*
X60690620Y-79468672D01*
X60595381Y-78611529D02*
X60595381Y-78802006D01*
X60643001Y-78897244D01*
X60690620Y-78944863D01*
X60833477Y-79040101D01*
X61023953Y-79087720D01*
X61404905Y-79087720D01*
X61500143Y-79040101D01*
X61547762Y-78992482D01*
X61595381Y-78897244D01*
X61595381Y-78706767D01*
X61547762Y-78611529D01*
X61500143Y-78563910D01*
X61404905Y-78516291D01*
X61166810Y-78516291D01*
X61071572Y-78563910D01*
X61023953Y-78611529D01*
X60976334Y-78706767D01*
X60976334Y-78897244D01*
X61023953Y-78992482D01*
X61071572Y-79040101D01*
X61166810Y-79087720D01*
X123840158Y-58688667D02*
X123887777Y-58736286D01*
X123935396Y-58879143D01*
X123935396Y-58974381D01*
X123887777Y-59117239D01*
X123792539Y-59212477D01*
X123697301Y-59260096D01*
X123506825Y-59307715D01*
X123363968Y-59307715D01*
X123173492Y-59260096D01*
X123078254Y-59212477D01*
X122983016Y-59117239D01*
X122935396Y-58974381D01*
X122935396Y-58879143D01*
X122983016Y-58736286D01*
X123030635Y-58688667D01*
X122935396Y-57831524D02*
X122935396Y-58022001D01*
X122983016Y-58117239D01*
X123030635Y-58164858D01*
X123173492Y-58260096D01*
X123363968Y-58307715D01*
X123744920Y-58307715D01*
X123840158Y-58260096D01*
X123887777Y-58212477D01*
X123935396Y-58117239D01*
X123935396Y-57926762D01*
X123887777Y-57831524D01*
X123840158Y-57783905D01*
X123744920Y-57736286D01*
X123506825Y-57736286D01*
X123411587Y-57783905D01*
X123363968Y-57831524D01*
X123316349Y-57926762D01*
X123316349Y-58117239D01*
X123363968Y-58212477D01*
X123411587Y-58260096D01*
X123506825Y-58307715D01*
X103060153Y-58688667D02*
X103107772Y-58736286D01*
X103155391Y-58879143D01*
X103155391Y-58974381D01*
X103107772Y-59117239D01*
X103012534Y-59212477D01*
X102917296Y-59260096D01*
X102726820Y-59307715D01*
X102583963Y-59307715D01*
X102393487Y-59260096D01*
X102298249Y-59212477D01*
X102203011Y-59117239D01*
X102155391Y-58974381D01*
X102155391Y-58879143D01*
X102203011Y-58736286D01*
X102250630Y-58688667D01*
X102155391Y-57831524D02*
X102155391Y-58022001D01*
X102203011Y-58117239D01*
X102250630Y-58164858D01*
X102393487Y-58260096D01*
X102583963Y-58307715D01*
X102964915Y-58307715D01*
X103060153Y-58260096D01*
X103107772Y-58212477D01*
X103155391Y-58117239D01*
X103155391Y-57926762D01*
X103107772Y-57831524D01*
X103060153Y-57783905D01*
X102964915Y-57736286D01*
X102726820Y-57736286D01*
X102631582Y-57783905D01*
X102583963Y-57831524D01*
X102536344Y-57926762D01*
X102536344Y-58117239D01*
X102583963Y-58212477D01*
X102631582Y-58260096D01*
X102726820Y-58307715D01*
X82280148Y-58688667D02*
X82327767Y-58736286D01*
X82375386Y-58879143D01*
X82375386Y-58974381D01*
X82327767Y-59117239D01*
X82232529Y-59212477D01*
X82137291Y-59260096D01*
X81946815Y-59307715D01*
X81803958Y-59307715D01*
X81613482Y-59260096D01*
X81518244Y-59212477D01*
X81423006Y-59117239D01*
X81375386Y-58974381D01*
X81375386Y-58879143D01*
X81423006Y-58736286D01*
X81470625Y-58688667D01*
X81375386Y-57831524D02*
X81375386Y-58022001D01*
X81423006Y-58117239D01*
X81470625Y-58164858D01*
X81613482Y-58260096D01*
X81803958Y-58307715D01*
X82184910Y-58307715D01*
X82280148Y-58260096D01*
X82327767Y-58212477D01*
X82375386Y-58117239D01*
X82375386Y-57926762D01*
X82327767Y-57831524D01*
X82280148Y-57783905D01*
X82184910Y-57736286D01*
X81946815Y-57736286D01*
X81851577Y-57783905D01*
X81803958Y-57831524D01*
X81756339Y-57926762D01*
X81756339Y-58117239D01*
X81803958Y-58212477D01*
X81851577Y-58260096D01*
X81946815Y-58307715D01*
X61500143Y-58688667D02*
X61547762Y-58736286D01*
X61595381Y-58879143D01*
X61595381Y-58974381D01*
X61547762Y-59117239D01*
X61452524Y-59212477D01*
X61357286Y-59260096D01*
X61166810Y-59307715D01*
X61023953Y-59307715D01*
X60833477Y-59260096D01*
X60738239Y-59212477D01*
X60643001Y-59117239D01*
X60595381Y-58974381D01*
X60595381Y-58879143D01*
X60643001Y-58736286D01*
X60690620Y-58688667D01*
X60595381Y-57831524D02*
X60595381Y-58022001D01*
X60643001Y-58117239D01*
X60690620Y-58164858D01*
X60833477Y-58260096D01*
X61023953Y-58307715D01*
X61404905Y-58307715D01*
X61500143Y-58260096D01*
X61547762Y-58212477D01*
X61595381Y-58117239D01*
X61595381Y-57926762D01*
X61547762Y-57831524D01*
X61500143Y-57783905D01*
X61404905Y-57736286D01*
X61166810Y-57736286D01*
X61071572Y-57783905D01*
X61023953Y-57831524D01*
X60976334Y-57926762D01*
X60976334Y-58117239D01*
X61023953Y-58212477D01*
X61071572Y-58260096D01*
X61166810Y-58307715D01*
%TD*%
M02*
