%TF.GenerationSoftware,KiCad,Pcbnew,5.1.8*%
%TF.CreationDate,2020-11-29T16:03:20+01:00*%
%TF.ProjectId,panel2,70616e65-6c32-42e6-9b69-6361645f7063,rev?*%
%TF.SameCoordinates,Original*%
%TF.FileFunction,Paste,Top*%
%TF.FilePolarity,Positive*%
%FSLAX46Y46*%
G04 Gerber Fmt 4.6, Leading zero omitted, Abs format (unit mm)*
G04 Created by KiCad (PCBNEW 5.1.8) date 2020-11-29 16:03:20*
%MOMM*%
%LPD*%
G01*
G04 APERTURE LIST*
%ADD10R,0.700000X1.300000*%
%ADD11R,3.400000X2.400000*%
%ADD12R,0.800000X0.900000*%
%ADD13R,1.060000X0.650000*%
%ADD14R,0.900000X1.200000*%
G04 APERTURE END LIST*
%TO.C,D1*%
G36*
G01*
X118438266Y-127433516D02*
X117925766Y-127433516D01*
G75*
G02*
X117707016Y-127214766I0J218750D01*
G01*
X117707016Y-126777266D01*
G75*
G02*
X117925766Y-126558516I218750J0D01*
G01*
X118438266Y-126558516D01*
G75*
G02*
X118657016Y-126777266I0J-218750D01*
G01*
X118657016Y-127214766D01*
G75*
G02*
X118438266Y-127433516I-218750J0D01*
G01*
G37*
G36*
G01*
X118438266Y-125858516D02*
X117925766Y-125858516D01*
G75*
G02*
X117707016Y-125639766I0J218750D01*
G01*
X117707016Y-125202266D01*
G75*
G02*
X117925766Y-124983516I218750J0D01*
G01*
X118438266Y-124983516D01*
G75*
G02*
X118657016Y-125202266I0J-218750D01*
G01*
X118657016Y-125639766D01*
G75*
G02*
X118438266Y-125858516I-218750J0D01*
G01*
G37*
%TD*%
%TO.C,D2*%
G36*
G01*
X116914266Y-127433516D02*
X116401766Y-127433516D01*
G75*
G02*
X116183016Y-127214766I0J218750D01*
G01*
X116183016Y-126777266D01*
G75*
G02*
X116401766Y-126558516I218750J0D01*
G01*
X116914266Y-126558516D01*
G75*
G02*
X117133016Y-126777266I0J-218750D01*
G01*
X117133016Y-127214766D01*
G75*
G02*
X116914266Y-127433516I-218750J0D01*
G01*
G37*
G36*
G01*
X116914266Y-125858516D02*
X116401766Y-125858516D01*
G75*
G02*
X116183016Y-125639766I0J218750D01*
G01*
X116183016Y-125202266D01*
G75*
G02*
X116401766Y-124983516I218750J0D01*
G01*
X116914266Y-124983516D01*
G75*
G02*
X117133016Y-125202266I0J-218750D01*
G01*
X117133016Y-125639766D01*
G75*
G02*
X116914266Y-125858516I-218750J0D01*
G01*
G37*
%TD*%
%TO.C,F1*%
G36*
G01*
X117204016Y-113035016D02*
X117204016Y-114185016D01*
G75*
G02*
X116954016Y-114435016I-250000J0D01*
G01*
X115854016Y-114435016D01*
G75*
G02*
X115604016Y-114185016I0J250000D01*
G01*
X115604016Y-113035016D01*
G75*
G02*
X115854016Y-112785016I250000J0D01*
G01*
X116954016Y-112785016D01*
G75*
G02*
X117204016Y-113035016I0J-250000D01*
G01*
G37*
G36*
G01*
X114354016Y-113035016D02*
X114354016Y-114185016D01*
G75*
G02*
X114104016Y-114435016I-250000J0D01*
G01*
X113004016Y-114435016D01*
G75*
G02*
X112754016Y-114185016I0J250000D01*
G01*
X112754016Y-113035016D01*
G75*
G02*
X113004016Y-112785016I250000J0D01*
G01*
X114104016Y-112785016D01*
G75*
G02*
X114354016Y-113035016I0J-250000D01*
G01*
G37*
%TD*%
D10*
%TO.C,IC1*%
X121484016Y-122837016D03*
X120214016Y-122837016D03*
X117674016Y-122837016D03*
X118944016Y-122837016D03*
X121484016Y-117337016D03*
X120214016Y-117337016D03*
X117674016Y-117337016D03*
X118944016Y-117337016D03*
D11*
X119579016Y-120087016D03*
%TD*%
D12*
%TO.C,Q1*%
X121870016Y-128850016D03*
X123770016Y-128850016D03*
X122820016Y-126850016D03*
%TD*%
%TO.C,R1*%
G36*
G01*
X119214016Y-123966016D02*
X119214016Y-124336016D01*
G75*
G02*
X119079016Y-124471016I-135000J0D01*
G01*
X118809016Y-124471016D01*
G75*
G02*
X118674016Y-124336016I0J135000D01*
G01*
X118674016Y-123966016D01*
G75*
G02*
X118809016Y-123831016I135000J0D01*
G01*
X119079016Y-123831016D01*
G75*
G02*
X119214016Y-123966016I0J-135000D01*
G01*
G37*
G36*
G01*
X118194016Y-123966016D02*
X118194016Y-124336016D01*
G75*
G02*
X118059016Y-124471016I-135000J0D01*
G01*
X117789016Y-124471016D01*
G75*
G02*
X117654016Y-124336016I0J135000D01*
G01*
X117654016Y-123966016D01*
G75*
G02*
X117789016Y-123831016I135000J0D01*
G01*
X118059016Y-123831016D01*
G75*
G02*
X118194016Y-123966016I0J-135000D01*
G01*
G37*
%TD*%
%TO.C,R2*%
G36*
G01*
X123193016Y-118583016D02*
X122823016Y-118583016D01*
G75*
G02*
X122688016Y-118448016I0J135000D01*
G01*
X122688016Y-118178016D01*
G75*
G02*
X122823016Y-118043016I135000J0D01*
G01*
X123193016Y-118043016D01*
G75*
G02*
X123328016Y-118178016I0J-135000D01*
G01*
X123328016Y-118448016D01*
G75*
G02*
X123193016Y-118583016I-135000J0D01*
G01*
G37*
G36*
G01*
X123193016Y-117563016D02*
X122823016Y-117563016D01*
G75*
G02*
X122688016Y-117428016I0J135000D01*
G01*
X122688016Y-117158016D01*
G75*
G02*
X122823016Y-117023016I135000J0D01*
G01*
X123193016Y-117023016D01*
G75*
G02*
X123328016Y-117158016I0J-135000D01*
G01*
X123328016Y-117428016D01*
G75*
G02*
X123193016Y-117563016I-135000J0D01*
G01*
G37*
%TD*%
%TO.C,R3*%
G36*
G01*
X115372016Y-118240016D02*
X115372016Y-117870016D01*
G75*
G02*
X115507016Y-117735016I135000J0D01*
G01*
X115777016Y-117735016D01*
G75*
G02*
X115912016Y-117870016I0J-135000D01*
G01*
X115912016Y-118240016D01*
G75*
G02*
X115777016Y-118375016I-135000J0D01*
G01*
X115507016Y-118375016D01*
G75*
G02*
X115372016Y-118240016I0J135000D01*
G01*
G37*
G36*
G01*
X116392016Y-118240016D02*
X116392016Y-117870016D01*
G75*
G02*
X116527016Y-117735016I135000J0D01*
G01*
X116797016Y-117735016D01*
G75*
G02*
X116932016Y-117870016I0J-135000D01*
G01*
X116932016Y-118240016D01*
G75*
G02*
X116797016Y-118375016I-135000J0D01*
G01*
X116527016Y-118375016D01*
G75*
G02*
X116392016Y-118240016I0J135000D01*
G01*
G37*
%TD*%
%TO.C,R4*%
G36*
G01*
X115573016Y-127473016D02*
X115203016Y-127473016D01*
G75*
G02*
X115068016Y-127338016I0J135000D01*
G01*
X115068016Y-127068016D01*
G75*
G02*
X115203016Y-126933016I135000J0D01*
G01*
X115573016Y-126933016D01*
G75*
G02*
X115708016Y-127068016I0J-135000D01*
G01*
X115708016Y-127338016D01*
G75*
G02*
X115573016Y-127473016I-135000J0D01*
G01*
G37*
G36*
G01*
X115573016Y-126453016D02*
X115203016Y-126453016D01*
G75*
G02*
X115068016Y-126318016I0J135000D01*
G01*
X115068016Y-126048016D01*
G75*
G02*
X115203016Y-125913016I135000J0D01*
G01*
X115573016Y-125913016D01*
G75*
G02*
X115708016Y-126048016I0J-135000D01*
G01*
X115708016Y-126318016D01*
G75*
G02*
X115573016Y-126453016I-135000J0D01*
G01*
G37*
%TD*%
%TO.C,R5*%
G36*
G01*
X127028516Y-115965016D02*
X127028516Y-116335016D01*
G75*
G02*
X126893516Y-116470016I-135000J0D01*
G01*
X126623516Y-116470016D01*
G75*
G02*
X126488516Y-116335016I0J135000D01*
G01*
X126488516Y-115965016D01*
G75*
G02*
X126623516Y-115830016I135000J0D01*
G01*
X126893516Y-115830016D01*
G75*
G02*
X127028516Y-115965016I0J-135000D01*
G01*
G37*
G36*
G01*
X126008516Y-115965016D02*
X126008516Y-116335016D01*
G75*
G02*
X125873516Y-116470016I-135000J0D01*
G01*
X125603516Y-116470016D01*
G75*
G02*
X125468516Y-116335016I0J135000D01*
G01*
X125468516Y-115965016D01*
G75*
G02*
X125603516Y-115830016I135000J0D01*
G01*
X125873516Y-115830016D01*
G75*
G02*
X126008516Y-115965016I0J-135000D01*
G01*
G37*
%TD*%
D13*
%TO.C,U1*%
X124151016Y-123267016D03*
X124151016Y-124217016D03*
X124151016Y-125167016D03*
X126351016Y-125167016D03*
X126351016Y-123267016D03*
%TD*%
%TO.C,U2*%
X122246016Y-113416016D03*
X122246016Y-114366016D03*
X122246016Y-115316016D03*
X124446016Y-115316016D03*
X124446016Y-113416016D03*
X124446016Y-114366016D03*
%TD*%
%TO.C,U3*%
X118436016Y-113416016D03*
X118436016Y-114366016D03*
X118436016Y-115316016D03*
X120636016Y-115316016D03*
X120636016Y-113416016D03*
X120636016Y-114366016D03*
%TD*%
D14*
%TO.C,D3*%
X116910016Y-128850016D03*
X113610016Y-128850016D03*
%TD*%
%TO.C,D4*%
X128850016Y-128850016D03*
X125550016Y-128850016D03*
%TD*%
%TO.C,C1*%
G36*
G01*
X122934016Y-124565016D02*
X122934016Y-125515016D01*
G75*
G02*
X122684016Y-125765016I-250000J0D01*
G01*
X122184016Y-125765016D01*
G75*
G02*
X121934016Y-125515016I0J250000D01*
G01*
X121934016Y-124565016D01*
G75*
G02*
X122184016Y-124315016I250000J0D01*
G01*
X122684016Y-124315016D01*
G75*
G02*
X122934016Y-124565016I0J-250000D01*
G01*
G37*
G36*
G01*
X121034016Y-124565016D02*
X121034016Y-125515016D01*
G75*
G02*
X120784016Y-125765016I-250000J0D01*
G01*
X120284016Y-125765016D01*
G75*
G02*
X120034016Y-125515016I0J250000D01*
G01*
X120034016Y-124565016D01*
G75*
G02*
X120284016Y-124315016I250000J0D01*
G01*
X120784016Y-124315016D01*
G75*
G02*
X121034016Y-124565016I0J-250000D01*
G01*
G37*
%TD*%
%TO.C,C2*%
G36*
G01*
X124032016Y-118276016D02*
X124032016Y-117326016D01*
G75*
G02*
X124282016Y-117076016I250000J0D01*
G01*
X124782016Y-117076016D01*
G75*
G02*
X125032016Y-117326016I0J-250000D01*
G01*
X125032016Y-118276016D01*
G75*
G02*
X124782016Y-118526016I-250000J0D01*
G01*
X124282016Y-118526016D01*
G75*
G02*
X124032016Y-118276016I0J250000D01*
G01*
G37*
G36*
G01*
X125932016Y-118276016D02*
X125932016Y-117326016D01*
G75*
G02*
X126182016Y-117076016I250000J0D01*
G01*
X126682016Y-117076016D01*
G75*
G02*
X126932016Y-117326016I0J-250000D01*
G01*
X126932016Y-118276016D01*
G75*
G02*
X126682016Y-118526016I-250000J0D01*
G01*
X126182016Y-118526016D01*
G75*
G02*
X125932016Y-118276016I0J250000D01*
G01*
G37*
%TD*%
%TO.C,C3*%
G36*
G01*
X125163016Y-122087016D02*
X124663016Y-122087016D01*
G75*
G02*
X124438016Y-121862016I0J225000D01*
G01*
X124438016Y-121412016D01*
G75*
G02*
X124663016Y-121187016I225000J0D01*
G01*
X125163016Y-121187016D01*
G75*
G02*
X125388016Y-121412016I0J-225000D01*
G01*
X125388016Y-121862016D01*
G75*
G02*
X125163016Y-122087016I-225000J0D01*
G01*
G37*
G36*
G01*
X125163016Y-120537016D02*
X124663016Y-120537016D01*
G75*
G02*
X124438016Y-120312016I0J225000D01*
G01*
X124438016Y-119862016D01*
G75*
G02*
X124663016Y-119637016I225000J0D01*
G01*
X125163016Y-119637016D01*
G75*
G02*
X125388016Y-119862016I0J-225000D01*
G01*
X125388016Y-120312016D01*
G75*
G02*
X125163016Y-120537016I-225000J0D01*
G01*
G37*
%TD*%
%TO.C,C4*%
G36*
G01*
X126687016Y-122087016D02*
X126187016Y-122087016D01*
G75*
G02*
X125962016Y-121862016I0J225000D01*
G01*
X125962016Y-121412016D01*
G75*
G02*
X126187016Y-121187016I225000J0D01*
G01*
X126687016Y-121187016D01*
G75*
G02*
X126912016Y-121412016I0J-225000D01*
G01*
X126912016Y-121862016D01*
G75*
G02*
X126687016Y-122087016I-225000J0D01*
G01*
G37*
G36*
G01*
X126687016Y-120537016D02*
X126187016Y-120537016D01*
G75*
G02*
X125962016Y-120312016I0J225000D01*
G01*
X125962016Y-119862016D01*
G75*
G02*
X126187016Y-119637016I225000J0D01*
G01*
X126687016Y-119637016D01*
G75*
G02*
X126912016Y-119862016I0J-225000D01*
G01*
X126912016Y-120312016D01*
G75*
G02*
X126687016Y-120537016I-225000J0D01*
G01*
G37*
%TD*%
%TO.C,C5*%
G36*
G01*
X126306016Y-115292516D02*
X125806016Y-115292516D01*
G75*
G02*
X125581016Y-115067516I0J225000D01*
G01*
X125581016Y-114617516D01*
G75*
G02*
X125806016Y-114392516I225000J0D01*
G01*
X126306016Y-114392516D01*
G75*
G02*
X126531016Y-114617516I0J-225000D01*
G01*
X126531016Y-115067516D01*
G75*
G02*
X126306016Y-115292516I-225000J0D01*
G01*
G37*
G36*
G01*
X126306016Y-113742516D02*
X125806016Y-113742516D01*
G75*
G02*
X125581016Y-113517516I0J225000D01*
G01*
X125581016Y-113067516D01*
G75*
G02*
X125806016Y-112842516I225000J0D01*
G01*
X126306016Y-112842516D01*
G75*
G02*
X126531016Y-113067516I0J-225000D01*
G01*
X126531016Y-113517516D01*
G75*
G02*
X126306016Y-113742516I-225000J0D01*
G01*
G37*
%TD*%
%TO.C,R6*%
G36*
G01*
X127180016Y-113631016D02*
X127180016Y-113081016D01*
G75*
G02*
X127380016Y-112881016I200000J0D01*
G01*
X127780016Y-112881016D01*
G75*
G02*
X127980016Y-113081016I0J-200000D01*
G01*
X127980016Y-113631016D01*
G75*
G02*
X127780016Y-113831016I-200000J0D01*
G01*
X127380016Y-113831016D01*
G75*
G02*
X127180016Y-113631016I0J200000D01*
G01*
G37*
G36*
G01*
X128830016Y-113631016D02*
X128830016Y-113081016D01*
G75*
G02*
X129030016Y-112881016I200000J0D01*
G01*
X129430016Y-112881016D01*
G75*
G02*
X129630016Y-113081016I0J-200000D01*
G01*
X129630016Y-113631016D01*
G75*
G02*
X129430016Y-113831016I-200000J0D01*
G01*
X129030016Y-113831016D01*
G75*
G02*
X128830016Y-113631016I0J200000D01*
G01*
G37*
%TD*%
%TO.C,D1*%
G36*
G01*
X97658261Y-127433516D02*
X97145761Y-127433516D01*
G75*
G02*
X96927011Y-127214766I0J218750D01*
G01*
X96927011Y-126777266D01*
G75*
G02*
X97145761Y-126558516I218750J0D01*
G01*
X97658261Y-126558516D01*
G75*
G02*
X97877011Y-126777266I0J-218750D01*
G01*
X97877011Y-127214766D01*
G75*
G02*
X97658261Y-127433516I-218750J0D01*
G01*
G37*
G36*
G01*
X97658261Y-125858516D02*
X97145761Y-125858516D01*
G75*
G02*
X96927011Y-125639766I0J218750D01*
G01*
X96927011Y-125202266D01*
G75*
G02*
X97145761Y-124983516I218750J0D01*
G01*
X97658261Y-124983516D01*
G75*
G02*
X97877011Y-125202266I0J-218750D01*
G01*
X97877011Y-125639766D01*
G75*
G02*
X97658261Y-125858516I-218750J0D01*
G01*
G37*
%TD*%
%TO.C,D2*%
G36*
G01*
X96134261Y-127433516D02*
X95621761Y-127433516D01*
G75*
G02*
X95403011Y-127214766I0J218750D01*
G01*
X95403011Y-126777266D01*
G75*
G02*
X95621761Y-126558516I218750J0D01*
G01*
X96134261Y-126558516D01*
G75*
G02*
X96353011Y-126777266I0J-218750D01*
G01*
X96353011Y-127214766D01*
G75*
G02*
X96134261Y-127433516I-218750J0D01*
G01*
G37*
G36*
G01*
X96134261Y-125858516D02*
X95621761Y-125858516D01*
G75*
G02*
X95403011Y-125639766I0J218750D01*
G01*
X95403011Y-125202266D01*
G75*
G02*
X95621761Y-124983516I218750J0D01*
G01*
X96134261Y-124983516D01*
G75*
G02*
X96353011Y-125202266I0J-218750D01*
G01*
X96353011Y-125639766D01*
G75*
G02*
X96134261Y-125858516I-218750J0D01*
G01*
G37*
%TD*%
%TO.C,F1*%
G36*
G01*
X96424011Y-113035016D02*
X96424011Y-114185016D01*
G75*
G02*
X96174011Y-114435016I-250000J0D01*
G01*
X95074011Y-114435016D01*
G75*
G02*
X94824011Y-114185016I0J250000D01*
G01*
X94824011Y-113035016D01*
G75*
G02*
X95074011Y-112785016I250000J0D01*
G01*
X96174011Y-112785016D01*
G75*
G02*
X96424011Y-113035016I0J-250000D01*
G01*
G37*
G36*
G01*
X93574011Y-113035016D02*
X93574011Y-114185016D01*
G75*
G02*
X93324011Y-114435016I-250000J0D01*
G01*
X92224011Y-114435016D01*
G75*
G02*
X91974011Y-114185016I0J250000D01*
G01*
X91974011Y-113035016D01*
G75*
G02*
X92224011Y-112785016I250000J0D01*
G01*
X93324011Y-112785016D01*
G75*
G02*
X93574011Y-113035016I0J-250000D01*
G01*
G37*
%TD*%
D10*
%TO.C,IC1*%
X100704011Y-122837016D03*
X99434011Y-122837016D03*
X96894011Y-122837016D03*
X98164011Y-122837016D03*
X100704011Y-117337016D03*
X99434011Y-117337016D03*
X96894011Y-117337016D03*
X98164011Y-117337016D03*
D11*
X98799011Y-120087016D03*
%TD*%
D12*
%TO.C,Q1*%
X101090011Y-128850016D03*
X102990011Y-128850016D03*
X102040011Y-126850016D03*
%TD*%
%TO.C,R1*%
G36*
G01*
X98434011Y-123966016D02*
X98434011Y-124336016D01*
G75*
G02*
X98299011Y-124471016I-135000J0D01*
G01*
X98029011Y-124471016D01*
G75*
G02*
X97894011Y-124336016I0J135000D01*
G01*
X97894011Y-123966016D01*
G75*
G02*
X98029011Y-123831016I135000J0D01*
G01*
X98299011Y-123831016D01*
G75*
G02*
X98434011Y-123966016I0J-135000D01*
G01*
G37*
G36*
G01*
X97414011Y-123966016D02*
X97414011Y-124336016D01*
G75*
G02*
X97279011Y-124471016I-135000J0D01*
G01*
X97009011Y-124471016D01*
G75*
G02*
X96874011Y-124336016I0J135000D01*
G01*
X96874011Y-123966016D01*
G75*
G02*
X97009011Y-123831016I135000J0D01*
G01*
X97279011Y-123831016D01*
G75*
G02*
X97414011Y-123966016I0J-135000D01*
G01*
G37*
%TD*%
%TO.C,R2*%
G36*
G01*
X102413011Y-118583016D02*
X102043011Y-118583016D01*
G75*
G02*
X101908011Y-118448016I0J135000D01*
G01*
X101908011Y-118178016D01*
G75*
G02*
X102043011Y-118043016I135000J0D01*
G01*
X102413011Y-118043016D01*
G75*
G02*
X102548011Y-118178016I0J-135000D01*
G01*
X102548011Y-118448016D01*
G75*
G02*
X102413011Y-118583016I-135000J0D01*
G01*
G37*
G36*
G01*
X102413011Y-117563016D02*
X102043011Y-117563016D01*
G75*
G02*
X101908011Y-117428016I0J135000D01*
G01*
X101908011Y-117158016D01*
G75*
G02*
X102043011Y-117023016I135000J0D01*
G01*
X102413011Y-117023016D01*
G75*
G02*
X102548011Y-117158016I0J-135000D01*
G01*
X102548011Y-117428016D01*
G75*
G02*
X102413011Y-117563016I-135000J0D01*
G01*
G37*
%TD*%
%TO.C,R3*%
G36*
G01*
X94592011Y-118240016D02*
X94592011Y-117870016D01*
G75*
G02*
X94727011Y-117735016I135000J0D01*
G01*
X94997011Y-117735016D01*
G75*
G02*
X95132011Y-117870016I0J-135000D01*
G01*
X95132011Y-118240016D01*
G75*
G02*
X94997011Y-118375016I-135000J0D01*
G01*
X94727011Y-118375016D01*
G75*
G02*
X94592011Y-118240016I0J135000D01*
G01*
G37*
G36*
G01*
X95612011Y-118240016D02*
X95612011Y-117870016D01*
G75*
G02*
X95747011Y-117735016I135000J0D01*
G01*
X96017011Y-117735016D01*
G75*
G02*
X96152011Y-117870016I0J-135000D01*
G01*
X96152011Y-118240016D01*
G75*
G02*
X96017011Y-118375016I-135000J0D01*
G01*
X95747011Y-118375016D01*
G75*
G02*
X95612011Y-118240016I0J135000D01*
G01*
G37*
%TD*%
%TO.C,R4*%
G36*
G01*
X94793011Y-127473016D02*
X94423011Y-127473016D01*
G75*
G02*
X94288011Y-127338016I0J135000D01*
G01*
X94288011Y-127068016D01*
G75*
G02*
X94423011Y-126933016I135000J0D01*
G01*
X94793011Y-126933016D01*
G75*
G02*
X94928011Y-127068016I0J-135000D01*
G01*
X94928011Y-127338016D01*
G75*
G02*
X94793011Y-127473016I-135000J0D01*
G01*
G37*
G36*
G01*
X94793011Y-126453016D02*
X94423011Y-126453016D01*
G75*
G02*
X94288011Y-126318016I0J135000D01*
G01*
X94288011Y-126048016D01*
G75*
G02*
X94423011Y-125913016I135000J0D01*
G01*
X94793011Y-125913016D01*
G75*
G02*
X94928011Y-126048016I0J-135000D01*
G01*
X94928011Y-126318016D01*
G75*
G02*
X94793011Y-126453016I-135000J0D01*
G01*
G37*
%TD*%
%TO.C,R5*%
G36*
G01*
X106248511Y-115965016D02*
X106248511Y-116335016D01*
G75*
G02*
X106113511Y-116470016I-135000J0D01*
G01*
X105843511Y-116470016D01*
G75*
G02*
X105708511Y-116335016I0J135000D01*
G01*
X105708511Y-115965016D01*
G75*
G02*
X105843511Y-115830016I135000J0D01*
G01*
X106113511Y-115830016D01*
G75*
G02*
X106248511Y-115965016I0J-135000D01*
G01*
G37*
G36*
G01*
X105228511Y-115965016D02*
X105228511Y-116335016D01*
G75*
G02*
X105093511Y-116470016I-135000J0D01*
G01*
X104823511Y-116470016D01*
G75*
G02*
X104688511Y-116335016I0J135000D01*
G01*
X104688511Y-115965016D01*
G75*
G02*
X104823511Y-115830016I135000J0D01*
G01*
X105093511Y-115830016D01*
G75*
G02*
X105228511Y-115965016I0J-135000D01*
G01*
G37*
%TD*%
D13*
%TO.C,U1*%
X103371011Y-123267016D03*
X103371011Y-124217016D03*
X103371011Y-125167016D03*
X105571011Y-125167016D03*
X105571011Y-123267016D03*
%TD*%
%TO.C,U2*%
X101466011Y-113416016D03*
X101466011Y-114366016D03*
X101466011Y-115316016D03*
X103666011Y-115316016D03*
X103666011Y-113416016D03*
X103666011Y-114366016D03*
%TD*%
%TO.C,U3*%
X97656011Y-113416016D03*
X97656011Y-114366016D03*
X97656011Y-115316016D03*
X99856011Y-115316016D03*
X99856011Y-113416016D03*
X99856011Y-114366016D03*
%TD*%
D14*
%TO.C,D3*%
X96130011Y-128850016D03*
X92830011Y-128850016D03*
%TD*%
%TO.C,D4*%
X108070011Y-128850016D03*
X104770011Y-128850016D03*
%TD*%
%TO.C,C1*%
G36*
G01*
X102154011Y-124565016D02*
X102154011Y-125515016D01*
G75*
G02*
X101904011Y-125765016I-250000J0D01*
G01*
X101404011Y-125765016D01*
G75*
G02*
X101154011Y-125515016I0J250000D01*
G01*
X101154011Y-124565016D01*
G75*
G02*
X101404011Y-124315016I250000J0D01*
G01*
X101904011Y-124315016D01*
G75*
G02*
X102154011Y-124565016I0J-250000D01*
G01*
G37*
G36*
G01*
X100254011Y-124565016D02*
X100254011Y-125515016D01*
G75*
G02*
X100004011Y-125765016I-250000J0D01*
G01*
X99504011Y-125765016D01*
G75*
G02*
X99254011Y-125515016I0J250000D01*
G01*
X99254011Y-124565016D01*
G75*
G02*
X99504011Y-124315016I250000J0D01*
G01*
X100004011Y-124315016D01*
G75*
G02*
X100254011Y-124565016I0J-250000D01*
G01*
G37*
%TD*%
%TO.C,C2*%
G36*
G01*
X103252011Y-118276016D02*
X103252011Y-117326016D01*
G75*
G02*
X103502011Y-117076016I250000J0D01*
G01*
X104002011Y-117076016D01*
G75*
G02*
X104252011Y-117326016I0J-250000D01*
G01*
X104252011Y-118276016D01*
G75*
G02*
X104002011Y-118526016I-250000J0D01*
G01*
X103502011Y-118526016D01*
G75*
G02*
X103252011Y-118276016I0J250000D01*
G01*
G37*
G36*
G01*
X105152011Y-118276016D02*
X105152011Y-117326016D01*
G75*
G02*
X105402011Y-117076016I250000J0D01*
G01*
X105902011Y-117076016D01*
G75*
G02*
X106152011Y-117326016I0J-250000D01*
G01*
X106152011Y-118276016D01*
G75*
G02*
X105902011Y-118526016I-250000J0D01*
G01*
X105402011Y-118526016D01*
G75*
G02*
X105152011Y-118276016I0J250000D01*
G01*
G37*
%TD*%
%TO.C,C3*%
G36*
G01*
X104383011Y-122087016D02*
X103883011Y-122087016D01*
G75*
G02*
X103658011Y-121862016I0J225000D01*
G01*
X103658011Y-121412016D01*
G75*
G02*
X103883011Y-121187016I225000J0D01*
G01*
X104383011Y-121187016D01*
G75*
G02*
X104608011Y-121412016I0J-225000D01*
G01*
X104608011Y-121862016D01*
G75*
G02*
X104383011Y-122087016I-225000J0D01*
G01*
G37*
G36*
G01*
X104383011Y-120537016D02*
X103883011Y-120537016D01*
G75*
G02*
X103658011Y-120312016I0J225000D01*
G01*
X103658011Y-119862016D01*
G75*
G02*
X103883011Y-119637016I225000J0D01*
G01*
X104383011Y-119637016D01*
G75*
G02*
X104608011Y-119862016I0J-225000D01*
G01*
X104608011Y-120312016D01*
G75*
G02*
X104383011Y-120537016I-225000J0D01*
G01*
G37*
%TD*%
%TO.C,C4*%
G36*
G01*
X105907011Y-122087016D02*
X105407011Y-122087016D01*
G75*
G02*
X105182011Y-121862016I0J225000D01*
G01*
X105182011Y-121412016D01*
G75*
G02*
X105407011Y-121187016I225000J0D01*
G01*
X105907011Y-121187016D01*
G75*
G02*
X106132011Y-121412016I0J-225000D01*
G01*
X106132011Y-121862016D01*
G75*
G02*
X105907011Y-122087016I-225000J0D01*
G01*
G37*
G36*
G01*
X105907011Y-120537016D02*
X105407011Y-120537016D01*
G75*
G02*
X105182011Y-120312016I0J225000D01*
G01*
X105182011Y-119862016D01*
G75*
G02*
X105407011Y-119637016I225000J0D01*
G01*
X105907011Y-119637016D01*
G75*
G02*
X106132011Y-119862016I0J-225000D01*
G01*
X106132011Y-120312016D01*
G75*
G02*
X105907011Y-120537016I-225000J0D01*
G01*
G37*
%TD*%
%TO.C,C5*%
G36*
G01*
X105526011Y-115292516D02*
X105026011Y-115292516D01*
G75*
G02*
X104801011Y-115067516I0J225000D01*
G01*
X104801011Y-114617516D01*
G75*
G02*
X105026011Y-114392516I225000J0D01*
G01*
X105526011Y-114392516D01*
G75*
G02*
X105751011Y-114617516I0J-225000D01*
G01*
X105751011Y-115067516D01*
G75*
G02*
X105526011Y-115292516I-225000J0D01*
G01*
G37*
G36*
G01*
X105526011Y-113742516D02*
X105026011Y-113742516D01*
G75*
G02*
X104801011Y-113517516I0J225000D01*
G01*
X104801011Y-113067516D01*
G75*
G02*
X105026011Y-112842516I225000J0D01*
G01*
X105526011Y-112842516D01*
G75*
G02*
X105751011Y-113067516I0J-225000D01*
G01*
X105751011Y-113517516D01*
G75*
G02*
X105526011Y-113742516I-225000J0D01*
G01*
G37*
%TD*%
%TO.C,R6*%
G36*
G01*
X106400011Y-113631016D02*
X106400011Y-113081016D01*
G75*
G02*
X106600011Y-112881016I200000J0D01*
G01*
X107000011Y-112881016D01*
G75*
G02*
X107200011Y-113081016I0J-200000D01*
G01*
X107200011Y-113631016D01*
G75*
G02*
X107000011Y-113831016I-200000J0D01*
G01*
X106600011Y-113831016D01*
G75*
G02*
X106400011Y-113631016I0J200000D01*
G01*
G37*
G36*
G01*
X108050011Y-113631016D02*
X108050011Y-113081016D01*
G75*
G02*
X108250011Y-112881016I200000J0D01*
G01*
X108650011Y-112881016D01*
G75*
G02*
X108850011Y-113081016I0J-200000D01*
G01*
X108850011Y-113631016D01*
G75*
G02*
X108650011Y-113831016I-200000J0D01*
G01*
X108250011Y-113831016D01*
G75*
G02*
X108050011Y-113631016I0J200000D01*
G01*
G37*
%TD*%
%TO.C,D1*%
G36*
G01*
X76878256Y-127433516D02*
X76365756Y-127433516D01*
G75*
G02*
X76147006Y-127214766I0J218750D01*
G01*
X76147006Y-126777266D01*
G75*
G02*
X76365756Y-126558516I218750J0D01*
G01*
X76878256Y-126558516D01*
G75*
G02*
X77097006Y-126777266I0J-218750D01*
G01*
X77097006Y-127214766D01*
G75*
G02*
X76878256Y-127433516I-218750J0D01*
G01*
G37*
G36*
G01*
X76878256Y-125858516D02*
X76365756Y-125858516D01*
G75*
G02*
X76147006Y-125639766I0J218750D01*
G01*
X76147006Y-125202266D01*
G75*
G02*
X76365756Y-124983516I218750J0D01*
G01*
X76878256Y-124983516D01*
G75*
G02*
X77097006Y-125202266I0J-218750D01*
G01*
X77097006Y-125639766D01*
G75*
G02*
X76878256Y-125858516I-218750J0D01*
G01*
G37*
%TD*%
%TO.C,D2*%
G36*
G01*
X75354256Y-127433516D02*
X74841756Y-127433516D01*
G75*
G02*
X74623006Y-127214766I0J218750D01*
G01*
X74623006Y-126777266D01*
G75*
G02*
X74841756Y-126558516I218750J0D01*
G01*
X75354256Y-126558516D01*
G75*
G02*
X75573006Y-126777266I0J-218750D01*
G01*
X75573006Y-127214766D01*
G75*
G02*
X75354256Y-127433516I-218750J0D01*
G01*
G37*
G36*
G01*
X75354256Y-125858516D02*
X74841756Y-125858516D01*
G75*
G02*
X74623006Y-125639766I0J218750D01*
G01*
X74623006Y-125202266D01*
G75*
G02*
X74841756Y-124983516I218750J0D01*
G01*
X75354256Y-124983516D01*
G75*
G02*
X75573006Y-125202266I0J-218750D01*
G01*
X75573006Y-125639766D01*
G75*
G02*
X75354256Y-125858516I-218750J0D01*
G01*
G37*
%TD*%
%TO.C,F1*%
G36*
G01*
X75644006Y-113035016D02*
X75644006Y-114185016D01*
G75*
G02*
X75394006Y-114435016I-250000J0D01*
G01*
X74294006Y-114435016D01*
G75*
G02*
X74044006Y-114185016I0J250000D01*
G01*
X74044006Y-113035016D01*
G75*
G02*
X74294006Y-112785016I250000J0D01*
G01*
X75394006Y-112785016D01*
G75*
G02*
X75644006Y-113035016I0J-250000D01*
G01*
G37*
G36*
G01*
X72794006Y-113035016D02*
X72794006Y-114185016D01*
G75*
G02*
X72544006Y-114435016I-250000J0D01*
G01*
X71444006Y-114435016D01*
G75*
G02*
X71194006Y-114185016I0J250000D01*
G01*
X71194006Y-113035016D01*
G75*
G02*
X71444006Y-112785016I250000J0D01*
G01*
X72544006Y-112785016D01*
G75*
G02*
X72794006Y-113035016I0J-250000D01*
G01*
G37*
%TD*%
D10*
%TO.C,IC1*%
X79924006Y-122837016D03*
X78654006Y-122837016D03*
X76114006Y-122837016D03*
X77384006Y-122837016D03*
X79924006Y-117337016D03*
X78654006Y-117337016D03*
X76114006Y-117337016D03*
X77384006Y-117337016D03*
D11*
X78019006Y-120087016D03*
%TD*%
D12*
%TO.C,Q1*%
X80310006Y-128850016D03*
X82210006Y-128850016D03*
X81260006Y-126850016D03*
%TD*%
%TO.C,R1*%
G36*
G01*
X77654006Y-123966016D02*
X77654006Y-124336016D01*
G75*
G02*
X77519006Y-124471016I-135000J0D01*
G01*
X77249006Y-124471016D01*
G75*
G02*
X77114006Y-124336016I0J135000D01*
G01*
X77114006Y-123966016D01*
G75*
G02*
X77249006Y-123831016I135000J0D01*
G01*
X77519006Y-123831016D01*
G75*
G02*
X77654006Y-123966016I0J-135000D01*
G01*
G37*
G36*
G01*
X76634006Y-123966016D02*
X76634006Y-124336016D01*
G75*
G02*
X76499006Y-124471016I-135000J0D01*
G01*
X76229006Y-124471016D01*
G75*
G02*
X76094006Y-124336016I0J135000D01*
G01*
X76094006Y-123966016D01*
G75*
G02*
X76229006Y-123831016I135000J0D01*
G01*
X76499006Y-123831016D01*
G75*
G02*
X76634006Y-123966016I0J-135000D01*
G01*
G37*
%TD*%
%TO.C,R2*%
G36*
G01*
X81633006Y-118583016D02*
X81263006Y-118583016D01*
G75*
G02*
X81128006Y-118448016I0J135000D01*
G01*
X81128006Y-118178016D01*
G75*
G02*
X81263006Y-118043016I135000J0D01*
G01*
X81633006Y-118043016D01*
G75*
G02*
X81768006Y-118178016I0J-135000D01*
G01*
X81768006Y-118448016D01*
G75*
G02*
X81633006Y-118583016I-135000J0D01*
G01*
G37*
G36*
G01*
X81633006Y-117563016D02*
X81263006Y-117563016D01*
G75*
G02*
X81128006Y-117428016I0J135000D01*
G01*
X81128006Y-117158016D01*
G75*
G02*
X81263006Y-117023016I135000J0D01*
G01*
X81633006Y-117023016D01*
G75*
G02*
X81768006Y-117158016I0J-135000D01*
G01*
X81768006Y-117428016D01*
G75*
G02*
X81633006Y-117563016I-135000J0D01*
G01*
G37*
%TD*%
%TO.C,R3*%
G36*
G01*
X73812006Y-118240016D02*
X73812006Y-117870016D01*
G75*
G02*
X73947006Y-117735016I135000J0D01*
G01*
X74217006Y-117735016D01*
G75*
G02*
X74352006Y-117870016I0J-135000D01*
G01*
X74352006Y-118240016D01*
G75*
G02*
X74217006Y-118375016I-135000J0D01*
G01*
X73947006Y-118375016D01*
G75*
G02*
X73812006Y-118240016I0J135000D01*
G01*
G37*
G36*
G01*
X74832006Y-118240016D02*
X74832006Y-117870016D01*
G75*
G02*
X74967006Y-117735016I135000J0D01*
G01*
X75237006Y-117735016D01*
G75*
G02*
X75372006Y-117870016I0J-135000D01*
G01*
X75372006Y-118240016D01*
G75*
G02*
X75237006Y-118375016I-135000J0D01*
G01*
X74967006Y-118375016D01*
G75*
G02*
X74832006Y-118240016I0J135000D01*
G01*
G37*
%TD*%
%TO.C,R4*%
G36*
G01*
X74013006Y-127473016D02*
X73643006Y-127473016D01*
G75*
G02*
X73508006Y-127338016I0J135000D01*
G01*
X73508006Y-127068016D01*
G75*
G02*
X73643006Y-126933016I135000J0D01*
G01*
X74013006Y-126933016D01*
G75*
G02*
X74148006Y-127068016I0J-135000D01*
G01*
X74148006Y-127338016D01*
G75*
G02*
X74013006Y-127473016I-135000J0D01*
G01*
G37*
G36*
G01*
X74013006Y-126453016D02*
X73643006Y-126453016D01*
G75*
G02*
X73508006Y-126318016I0J135000D01*
G01*
X73508006Y-126048016D01*
G75*
G02*
X73643006Y-125913016I135000J0D01*
G01*
X74013006Y-125913016D01*
G75*
G02*
X74148006Y-126048016I0J-135000D01*
G01*
X74148006Y-126318016D01*
G75*
G02*
X74013006Y-126453016I-135000J0D01*
G01*
G37*
%TD*%
%TO.C,R5*%
G36*
G01*
X85468506Y-115965016D02*
X85468506Y-116335016D01*
G75*
G02*
X85333506Y-116470016I-135000J0D01*
G01*
X85063506Y-116470016D01*
G75*
G02*
X84928506Y-116335016I0J135000D01*
G01*
X84928506Y-115965016D01*
G75*
G02*
X85063506Y-115830016I135000J0D01*
G01*
X85333506Y-115830016D01*
G75*
G02*
X85468506Y-115965016I0J-135000D01*
G01*
G37*
G36*
G01*
X84448506Y-115965016D02*
X84448506Y-116335016D01*
G75*
G02*
X84313506Y-116470016I-135000J0D01*
G01*
X84043506Y-116470016D01*
G75*
G02*
X83908506Y-116335016I0J135000D01*
G01*
X83908506Y-115965016D01*
G75*
G02*
X84043506Y-115830016I135000J0D01*
G01*
X84313506Y-115830016D01*
G75*
G02*
X84448506Y-115965016I0J-135000D01*
G01*
G37*
%TD*%
D13*
%TO.C,U1*%
X82591006Y-123267016D03*
X82591006Y-124217016D03*
X82591006Y-125167016D03*
X84791006Y-125167016D03*
X84791006Y-123267016D03*
%TD*%
%TO.C,U2*%
X80686006Y-113416016D03*
X80686006Y-114366016D03*
X80686006Y-115316016D03*
X82886006Y-115316016D03*
X82886006Y-113416016D03*
X82886006Y-114366016D03*
%TD*%
%TO.C,U3*%
X76876006Y-113416016D03*
X76876006Y-114366016D03*
X76876006Y-115316016D03*
X79076006Y-115316016D03*
X79076006Y-113416016D03*
X79076006Y-114366016D03*
%TD*%
D14*
%TO.C,D3*%
X75350006Y-128850016D03*
X72050006Y-128850016D03*
%TD*%
%TO.C,D4*%
X87290006Y-128850016D03*
X83990006Y-128850016D03*
%TD*%
%TO.C,C1*%
G36*
G01*
X81374006Y-124565016D02*
X81374006Y-125515016D01*
G75*
G02*
X81124006Y-125765016I-250000J0D01*
G01*
X80624006Y-125765016D01*
G75*
G02*
X80374006Y-125515016I0J250000D01*
G01*
X80374006Y-124565016D01*
G75*
G02*
X80624006Y-124315016I250000J0D01*
G01*
X81124006Y-124315016D01*
G75*
G02*
X81374006Y-124565016I0J-250000D01*
G01*
G37*
G36*
G01*
X79474006Y-124565016D02*
X79474006Y-125515016D01*
G75*
G02*
X79224006Y-125765016I-250000J0D01*
G01*
X78724006Y-125765016D01*
G75*
G02*
X78474006Y-125515016I0J250000D01*
G01*
X78474006Y-124565016D01*
G75*
G02*
X78724006Y-124315016I250000J0D01*
G01*
X79224006Y-124315016D01*
G75*
G02*
X79474006Y-124565016I0J-250000D01*
G01*
G37*
%TD*%
%TO.C,C2*%
G36*
G01*
X82472006Y-118276016D02*
X82472006Y-117326016D01*
G75*
G02*
X82722006Y-117076016I250000J0D01*
G01*
X83222006Y-117076016D01*
G75*
G02*
X83472006Y-117326016I0J-250000D01*
G01*
X83472006Y-118276016D01*
G75*
G02*
X83222006Y-118526016I-250000J0D01*
G01*
X82722006Y-118526016D01*
G75*
G02*
X82472006Y-118276016I0J250000D01*
G01*
G37*
G36*
G01*
X84372006Y-118276016D02*
X84372006Y-117326016D01*
G75*
G02*
X84622006Y-117076016I250000J0D01*
G01*
X85122006Y-117076016D01*
G75*
G02*
X85372006Y-117326016I0J-250000D01*
G01*
X85372006Y-118276016D01*
G75*
G02*
X85122006Y-118526016I-250000J0D01*
G01*
X84622006Y-118526016D01*
G75*
G02*
X84372006Y-118276016I0J250000D01*
G01*
G37*
%TD*%
%TO.C,C3*%
G36*
G01*
X83603006Y-122087016D02*
X83103006Y-122087016D01*
G75*
G02*
X82878006Y-121862016I0J225000D01*
G01*
X82878006Y-121412016D01*
G75*
G02*
X83103006Y-121187016I225000J0D01*
G01*
X83603006Y-121187016D01*
G75*
G02*
X83828006Y-121412016I0J-225000D01*
G01*
X83828006Y-121862016D01*
G75*
G02*
X83603006Y-122087016I-225000J0D01*
G01*
G37*
G36*
G01*
X83603006Y-120537016D02*
X83103006Y-120537016D01*
G75*
G02*
X82878006Y-120312016I0J225000D01*
G01*
X82878006Y-119862016D01*
G75*
G02*
X83103006Y-119637016I225000J0D01*
G01*
X83603006Y-119637016D01*
G75*
G02*
X83828006Y-119862016I0J-225000D01*
G01*
X83828006Y-120312016D01*
G75*
G02*
X83603006Y-120537016I-225000J0D01*
G01*
G37*
%TD*%
%TO.C,C4*%
G36*
G01*
X85127006Y-122087016D02*
X84627006Y-122087016D01*
G75*
G02*
X84402006Y-121862016I0J225000D01*
G01*
X84402006Y-121412016D01*
G75*
G02*
X84627006Y-121187016I225000J0D01*
G01*
X85127006Y-121187016D01*
G75*
G02*
X85352006Y-121412016I0J-225000D01*
G01*
X85352006Y-121862016D01*
G75*
G02*
X85127006Y-122087016I-225000J0D01*
G01*
G37*
G36*
G01*
X85127006Y-120537016D02*
X84627006Y-120537016D01*
G75*
G02*
X84402006Y-120312016I0J225000D01*
G01*
X84402006Y-119862016D01*
G75*
G02*
X84627006Y-119637016I225000J0D01*
G01*
X85127006Y-119637016D01*
G75*
G02*
X85352006Y-119862016I0J-225000D01*
G01*
X85352006Y-120312016D01*
G75*
G02*
X85127006Y-120537016I-225000J0D01*
G01*
G37*
%TD*%
%TO.C,C5*%
G36*
G01*
X84746006Y-115292516D02*
X84246006Y-115292516D01*
G75*
G02*
X84021006Y-115067516I0J225000D01*
G01*
X84021006Y-114617516D01*
G75*
G02*
X84246006Y-114392516I225000J0D01*
G01*
X84746006Y-114392516D01*
G75*
G02*
X84971006Y-114617516I0J-225000D01*
G01*
X84971006Y-115067516D01*
G75*
G02*
X84746006Y-115292516I-225000J0D01*
G01*
G37*
G36*
G01*
X84746006Y-113742516D02*
X84246006Y-113742516D01*
G75*
G02*
X84021006Y-113517516I0J225000D01*
G01*
X84021006Y-113067516D01*
G75*
G02*
X84246006Y-112842516I225000J0D01*
G01*
X84746006Y-112842516D01*
G75*
G02*
X84971006Y-113067516I0J-225000D01*
G01*
X84971006Y-113517516D01*
G75*
G02*
X84746006Y-113742516I-225000J0D01*
G01*
G37*
%TD*%
%TO.C,R6*%
G36*
G01*
X85620006Y-113631016D02*
X85620006Y-113081016D01*
G75*
G02*
X85820006Y-112881016I200000J0D01*
G01*
X86220006Y-112881016D01*
G75*
G02*
X86420006Y-113081016I0J-200000D01*
G01*
X86420006Y-113631016D01*
G75*
G02*
X86220006Y-113831016I-200000J0D01*
G01*
X85820006Y-113831016D01*
G75*
G02*
X85620006Y-113631016I0J200000D01*
G01*
G37*
G36*
G01*
X87270006Y-113631016D02*
X87270006Y-113081016D01*
G75*
G02*
X87470006Y-112881016I200000J0D01*
G01*
X87870006Y-112881016D01*
G75*
G02*
X88070006Y-113081016I0J-200000D01*
G01*
X88070006Y-113631016D01*
G75*
G02*
X87870006Y-113831016I-200000J0D01*
G01*
X87470006Y-113831016D01*
G75*
G02*
X87270006Y-113631016I0J200000D01*
G01*
G37*
%TD*%
%TO.C,D1*%
G36*
G01*
X56098251Y-127433516D02*
X55585751Y-127433516D01*
G75*
G02*
X55367001Y-127214766I0J218750D01*
G01*
X55367001Y-126777266D01*
G75*
G02*
X55585751Y-126558516I218750J0D01*
G01*
X56098251Y-126558516D01*
G75*
G02*
X56317001Y-126777266I0J-218750D01*
G01*
X56317001Y-127214766D01*
G75*
G02*
X56098251Y-127433516I-218750J0D01*
G01*
G37*
G36*
G01*
X56098251Y-125858516D02*
X55585751Y-125858516D01*
G75*
G02*
X55367001Y-125639766I0J218750D01*
G01*
X55367001Y-125202266D01*
G75*
G02*
X55585751Y-124983516I218750J0D01*
G01*
X56098251Y-124983516D01*
G75*
G02*
X56317001Y-125202266I0J-218750D01*
G01*
X56317001Y-125639766D01*
G75*
G02*
X56098251Y-125858516I-218750J0D01*
G01*
G37*
%TD*%
%TO.C,D2*%
G36*
G01*
X54574251Y-127433516D02*
X54061751Y-127433516D01*
G75*
G02*
X53843001Y-127214766I0J218750D01*
G01*
X53843001Y-126777266D01*
G75*
G02*
X54061751Y-126558516I218750J0D01*
G01*
X54574251Y-126558516D01*
G75*
G02*
X54793001Y-126777266I0J-218750D01*
G01*
X54793001Y-127214766D01*
G75*
G02*
X54574251Y-127433516I-218750J0D01*
G01*
G37*
G36*
G01*
X54574251Y-125858516D02*
X54061751Y-125858516D01*
G75*
G02*
X53843001Y-125639766I0J218750D01*
G01*
X53843001Y-125202266D01*
G75*
G02*
X54061751Y-124983516I218750J0D01*
G01*
X54574251Y-124983516D01*
G75*
G02*
X54793001Y-125202266I0J-218750D01*
G01*
X54793001Y-125639766D01*
G75*
G02*
X54574251Y-125858516I-218750J0D01*
G01*
G37*
%TD*%
%TO.C,F1*%
G36*
G01*
X54864001Y-113035016D02*
X54864001Y-114185016D01*
G75*
G02*
X54614001Y-114435016I-250000J0D01*
G01*
X53514001Y-114435016D01*
G75*
G02*
X53264001Y-114185016I0J250000D01*
G01*
X53264001Y-113035016D01*
G75*
G02*
X53514001Y-112785016I250000J0D01*
G01*
X54614001Y-112785016D01*
G75*
G02*
X54864001Y-113035016I0J-250000D01*
G01*
G37*
G36*
G01*
X52014001Y-113035016D02*
X52014001Y-114185016D01*
G75*
G02*
X51764001Y-114435016I-250000J0D01*
G01*
X50664001Y-114435016D01*
G75*
G02*
X50414001Y-114185016I0J250000D01*
G01*
X50414001Y-113035016D01*
G75*
G02*
X50664001Y-112785016I250000J0D01*
G01*
X51764001Y-112785016D01*
G75*
G02*
X52014001Y-113035016I0J-250000D01*
G01*
G37*
%TD*%
D10*
%TO.C,IC1*%
X59144001Y-122837016D03*
X57874001Y-122837016D03*
X55334001Y-122837016D03*
X56604001Y-122837016D03*
X59144001Y-117337016D03*
X57874001Y-117337016D03*
X55334001Y-117337016D03*
X56604001Y-117337016D03*
D11*
X57239001Y-120087016D03*
%TD*%
D12*
%TO.C,Q1*%
X59530001Y-128850016D03*
X61430001Y-128850016D03*
X60480001Y-126850016D03*
%TD*%
%TO.C,R1*%
G36*
G01*
X56874001Y-123966016D02*
X56874001Y-124336016D01*
G75*
G02*
X56739001Y-124471016I-135000J0D01*
G01*
X56469001Y-124471016D01*
G75*
G02*
X56334001Y-124336016I0J135000D01*
G01*
X56334001Y-123966016D01*
G75*
G02*
X56469001Y-123831016I135000J0D01*
G01*
X56739001Y-123831016D01*
G75*
G02*
X56874001Y-123966016I0J-135000D01*
G01*
G37*
G36*
G01*
X55854001Y-123966016D02*
X55854001Y-124336016D01*
G75*
G02*
X55719001Y-124471016I-135000J0D01*
G01*
X55449001Y-124471016D01*
G75*
G02*
X55314001Y-124336016I0J135000D01*
G01*
X55314001Y-123966016D01*
G75*
G02*
X55449001Y-123831016I135000J0D01*
G01*
X55719001Y-123831016D01*
G75*
G02*
X55854001Y-123966016I0J-135000D01*
G01*
G37*
%TD*%
%TO.C,R2*%
G36*
G01*
X60853001Y-118583016D02*
X60483001Y-118583016D01*
G75*
G02*
X60348001Y-118448016I0J135000D01*
G01*
X60348001Y-118178016D01*
G75*
G02*
X60483001Y-118043016I135000J0D01*
G01*
X60853001Y-118043016D01*
G75*
G02*
X60988001Y-118178016I0J-135000D01*
G01*
X60988001Y-118448016D01*
G75*
G02*
X60853001Y-118583016I-135000J0D01*
G01*
G37*
G36*
G01*
X60853001Y-117563016D02*
X60483001Y-117563016D01*
G75*
G02*
X60348001Y-117428016I0J135000D01*
G01*
X60348001Y-117158016D01*
G75*
G02*
X60483001Y-117023016I135000J0D01*
G01*
X60853001Y-117023016D01*
G75*
G02*
X60988001Y-117158016I0J-135000D01*
G01*
X60988001Y-117428016D01*
G75*
G02*
X60853001Y-117563016I-135000J0D01*
G01*
G37*
%TD*%
%TO.C,R3*%
G36*
G01*
X53032001Y-118240016D02*
X53032001Y-117870016D01*
G75*
G02*
X53167001Y-117735016I135000J0D01*
G01*
X53437001Y-117735016D01*
G75*
G02*
X53572001Y-117870016I0J-135000D01*
G01*
X53572001Y-118240016D01*
G75*
G02*
X53437001Y-118375016I-135000J0D01*
G01*
X53167001Y-118375016D01*
G75*
G02*
X53032001Y-118240016I0J135000D01*
G01*
G37*
G36*
G01*
X54052001Y-118240016D02*
X54052001Y-117870016D01*
G75*
G02*
X54187001Y-117735016I135000J0D01*
G01*
X54457001Y-117735016D01*
G75*
G02*
X54592001Y-117870016I0J-135000D01*
G01*
X54592001Y-118240016D01*
G75*
G02*
X54457001Y-118375016I-135000J0D01*
G01*
X54187001Y-118375016D01*
G75*
G02*
X54052001Y-118240016I0J135000D01*
G01*
G37*
%TD*%
%TO.C,R4*%
G36*
G01*
X53233001Y-127473016D02*
X52863001Y-127473016D01*
G75*
G02*
X52728001Y-127338016I0J135000D01*
G01*
X52728001Y-127068016D01*
G75*
G02*
X52863001Y-126933016I135000J0D01*
G01*
X53233001Y-126933016D01*
G75*
G02*
X53368001Y-127068016I0J-135000D01*
G01*
X53368001Y-127338016D01*
G75*
G02*
X53233001Y-127473016I-135000J0D01*
G01*
G37*
G36*
G01*
X53233001Y-126453016D02*
X52863001Y-126453016D01*
G75*
G02*
X52728001Y-126318016I0J135000D01*
G01*
X52728001Y-126048016D01*
G75*
G02*
X52863001Y-125913016I135000J0D01*
G01*
X53233001Y-125913016D01*
G75*
G02*
X53368001Y-126048016I0J-135000D01*
G01*
X53368001Y-126318016D01*
G75*
G02*
X53233001Y-126453016I-135000J0D01*
G01*
G37*
%TD*%
%TO.C,R5*%
G36*
G01*
X64688501Y-115965016D02*
X64688501Y-116335016D01*
G75*
G02*
X64553501Y-116470016I-135000J0D01*
G01*
X64283501Y-116470016D01*
G75*
G02*
X64148501Y-116335016I0J135000D01*
G01*
X64148501Y-115965016D01*
G75*
G02*
X64283501Y-115830016I135000J0D01*
G01*
X64553501Y-115830016D01*
G75*
G02*
X64688501Y-115965016I0J-135000D01*
G01*
G37*
G36*
G01*
X63668501Y-115965016D02*
X63668501Y-116335016D01*
G75*
G02*
X63533501Y-116470016I-135000J0D01*
G01*
X63263501Y-116470016D01*
G75*
G02*
X63128501Y-116335016I0J135000D01*
G01*
X63128501Y-115965016D01*
G75*
G02*
X63263501Y-115830016I135000J0D01*
G01*
X63533501Y-115830016D01*
G75*
G02*
X63668501Y-115965016I0J-135000D01*
G01*
G37*
%TD*%
D13*
%TO.C,U1*%
X61811001Y-123267016D03*
X61811001Y-124217016D03*
X61811001Y-125167016D03*
X64011001Y-125167016D03*
X64011001Y-123267016D03*
%TD*%
%TO.C,U2*%
X59906001Y-113416016D03*
X59906001Y-114366016D03*
X59906001Y-115316016D03*
X62106001Y-115316016D03*
X62106001Y-113416016D03*
X62106001Y-114366016D03*
%TD*%
%TO.C,U3*%
X56096001Y-113416016D03*
X56096001Y-114366016D03*
X56096001Y-115316016D03*
X58296001Y-115316016D03*
X58296001Y-113416016D03*
X58296001Y-114366016D03*
%TD*%
D14*
%TO.C,D3*%
X54570001Y-128850016D03*
X51270001Y-128850016D03*
%TD*%
%TO.C,D4*%
X66510001Y-128850016D03*
X63210001Y-128850016D03*
%TD*%
%TO.C,C1*%
G36*
G01*
X60594001Y-124565016D02*
X60594001Y-125515016D01*
G75*
G02*
X60344001Y-125765016I-250000J0D01*
G01*
X59844001Y-125765016D01*
G75*
G02*
X59594001Y-125515016I0J250000D01*
G01*
X59594001Y-124565016D01*
G75*
G02*
X59844001Y-124315016I250000J0D01*
G01*
X60344001Y-124315016D01*
G75*
G02*
X60594001Y-124565016I0J-250000D01*
G01*
G37*
G36*
G01*
X58694001Y-124565016D02*
X58694001Y-125515016D01*
G75*
G02*
X58444001Y-125765016I-250000J0D01*
G01*
X57944001Y-125765016D01*
G75*
G02*
X57694001Y-125515016I0J250000D01*
G01*
X57694001Y-124565016D01*
G75*
G02*
X57944001Y-124315016I250000J0D01*
G01*
X58444001Y-124315016D01*
G75*
G02*
X58694001Y-124565016I0J-250000D01*
G01*
G37*
%TD*%
%TO.C,C2*%
G36*
G01*
X61692001Y-118276016D02*
X61692001Y-117326016D01*
G75*
G02*
X61942001Y-117076016I250000J0D01*
G01*
X62442001Y-117076016D01*
G75*
G02*
X62692001Y-117326016I0J-250000D01*
G01*
X62692001Y-118276016D01*
G75*
G02*
X62442001Y-118526016I-250000J0D01*
G01*
X61942001Y-118526016D01*
G75*
G02*
X61692001Y-118276016I0J250000D01*
G01*
G37*
G36*
G01*
X63592001Y-118276016D02*
X63592001Y-117326016D01*
G75*
G02*
X63842001Y-117076016I250000J0D01*
G01*
X64342001Y-117076016D01*
G75*
G02*
X64592001Y-117326016I0J-250000D01*
G01*
X64592001Y-118276016D01*
G75*
G02*
X64342001Y-118526016I-250000J0D01*
G01*
X63842001Y-118526016D01*
G75*
G02*
X63592001Y-118276016I0J250000D01*
G01*
G37*
%TD*%
%TO.C,C3*%
G36*
G01*
X62823001Y-122087016D02*
X62323001Y-122087016D01*
G75*
G02*
X62098001Y-121862016I0J225000D01*
G01*
X62098001Y-121412016D01*
G75*
G02*
X62323001Y-121187016I225000J0D01*
G01*
X62823001Y-121187016D01*
G75*
G02*
X63048001Y-121412016I0J-225000D01*
G01*
X63048001Y-121862016D01*
G75*
G02*
X62823001Y-122087016I-225000J0D01*
G01*
G37*
G36*
G01*
X62823001Y-120537016D02*
X62323001Y-120537016D01*
G75*
G02*
X62098001Y-120312016I0J225000D01*
G01*
X62098001Y-119862016D01*
G75*
G02*
X62323001Y-119637016I225000J0D01*
G01*
X62823001Y-119637016D01*
G75*
G02*
X63048001Y-119862016I0J-225000D01*
G01*
X63048001Y-120312016D01*
G75*
G02*
X62823001Y-120537016I-225000J0D01*
G01*
G37*
%TD*%
%TO.C,C4*%
G36*
G01*
X64347001Y-122087016D02*
X63847001Y-122087016D01*
G75*
G02*
X63622001Y-121862016I0J225000D01*
G01*
X63622001Y-121412016D01*
G75*
G02*
X63847001Y-121187016I225000J0D01*
G01*
X64347001Y-121187016D01*
G75*
G02*
X64572001Y-121412016I0J-225000D01*
G01*
X64572001Y-121862016D01*
G75*
G02*
X64347001Y-122087016I-225000J0D01*
G01*
G37*
G36*
G01*
X64347001Y-120537016D02*
X63847001Y-120537016D01*
G75*
G02*
X63622001Y-120312016I0J225000D01*
G01*
X63622001Y-119862016D01*
G75*
G02*
X63847001Y-119637016I225000J0D01*
G01*
X64347001Y-119637016D01*
G75*
G02*
X64572001Y-119862016I0J-225000D01*
G01*
X64572001Y-120312016D01*
G75*
G02*
X64347001Y-120537016I-225000J0D01*
G01*
G37*
%TD*%
%TO.C,C5*%
G36*
G01*
X63966001Y-115292516D02*
X63466001Y-115292516D01*
G75*
G02*
X63241001Y-115067516I0J225000D01*
G01*
X63241001Y-114617516D01*
G75*
G02*
X63466001Y-114392516I225000J0D01*
G01*
X63966001Y-114392516D01*
G75*
G02*
X64191001Y-114617516I0J-225000D01*
G01*
X64191001Y-115067516D01*
G75*
G02*
X63966001Y-115292516I-225000J0D01*
G01*
G37*
G36*
G01*
X63966001Y-113742516D02*
X63466001Y-113742516D01*
G75*
G02*
X63241001Y-113517516I0J225000D01*
G01*
X63241001Y-113067516D01*
G75*
G02*
X63466001Y-112842516I225000J0D01*
G01*
X63966001Y-112842516D01*
G75*
G02*
X64191001Y-113067516I0J-225000D01*
G01*
X64191001Y-113517516D01*
G75*
G02*
X63966001Y-113742516I-225000J0D01*
G01*
G37*
%TD*%
%TO.C,R6*%
G36*
G01*
X64840001Y-113631016D02*
X64840001Y-113081016D01*
G75*
G02*
X65040001Y-112881016I200000J0D01*
G01*
X65440001Y-112881016D01*
G75*
G02*
X65640001Y-113081016I0J-200000D01*
G01*
X65640001Y-113631016D01*
G75*
G02*
X65440001Y-113831016I-200000J0D01*
G01*
X65040001Y-113831016D01*
G75*
G02*
X64840001Y-113631016I0J200000D01*
G01*
G37*
G36*
G01*
X66490001Y-113631016D02*
X66490001Y-113081016D01*
G75*
G02*
X66690001Y-112881016I200000J0D01*
G01*
X67090001Y-112881016D01*
G75*
G02*
X67290001Y-113081016I0J-200000D01*
G01*
X67290001Y-113631016D01*
G75*
G02*
X67090001Y-113831016I-200000J0D01*
G01*
X66690001Y-113831016D01*
G75*
G02*
X66490001Y-113631016I0J200000D01*
G01*
G37*
%TD*%
%TO.C,D1*%
G36*
G01*
X118438266Y-106653511D02*
X117925766Y-106653511D01*
G75*
G02*
X117707016Y-106434761I0J218750D01*
G01*
X117707016Y-105997261D01*
G75*
G02*
X117925766Y-105778511I218750J0D01*
G01*
X118438266Y-105778511D01*
G75*
G02*
X118657016Y-105997261I0J-218750D01*
G01*
X118657016Y-106434761D01*
G75*
G02*
X118438266Y-106653511I-218750J0D01*
G01*
G37*
G36*
G01*
X118438266Y-105078511D02*
X117925766Y-105078511D01*
G75*
G02*
X117707016Y-104859761I0J218750D01*
G01*
X117707016Y-104422261D01*
G75*
G02*
X117925766Y-104203511I218750J0D01*
G01*
X118438266Y-104203511D01*
G75*
G02*
X118657016Y-104422261I0J-218750D01*
G01*
X118657016Y-104859761D01*
G75*
G02*
X118438266Y-105078511I-218750J0D01*
G01*
G37*
%TD*%
%TO.C,D2*%
G36*
G01*
X116914266Y-106653511D02*
X116401766Y-106653511D01*
G75*
G02*
X116183016Y-106434761I0J218750D01*
G01*
X116183016Y-105997261D01*
G75*
G02*
X116401766Y-105778511I218750J0D01*
G01*
X116914266Y-105778511D01*
G75*
G02*
X117133016Y-105997261I0J-218750D01*
G01*
X117133016Y-106434761D01*
G75*
G02*
X116914266Y-106653511I-218750J0D01*
G01*
G37*
G36*
G01*
X116914266Y-105078511D02*
X116401766Y-105078511D01*
G75*
G02*
X116183016Y-104859761I0J218750D01*
G01*
X116183016Y-104422261D01*
G75*
G02*
X116401766Y-104203511I218750J0D01*
G01*
X116914266Y-104203511D01*
G75*
G02*
X117133016Y-104422261I0J-218750D01*
G01*
X117133016Y-104859761D01*
G75*
G02*
X116914266Y-105078511I-218750J0D01*
G01*
G37*
%TD*%
%TO.C,F1*%
G36*
G01*
X117204016Y-92255011D02*
X117204016Y-93405011D01*
G75*
G02*
X116954016Y-93655011I-250000J0D01*
G01*
X115854016Y-93655011D01*
G75*
G02*
X115604016Y-93405011I0J250000D01*
G01*
X115604016Y-92255011D01*
G75*
G02*
X115854016Y-92005011I250000J0D01*
G01*
X116954016Y-92005011D01*
G75*
G02*
X117204016Y-92255011I0J-250000D01*
G01*
G37*
G36*
G01*
X114354016Y-92255011D02*
X114354016Y-93405011D01*
G75*
G02*
X114104016Y-93655011I-250000J0D01*
G01*
X113004016Y-93655011D01*
G75*
G02*
X112754016Y-93405011I0J250000D01*
G01*
X112754016Y-92255011D01*
G75*
G02*
X113004016Y-92005011I250000J0D01*
G01*
X114104016Y-92005011D01*
G75*
G02*
X114354016Y-92255011I0J-250000D01*
G01*
G37*
%TD*%
D10*
%TO.C,IC1*%
X121484016Y-102057011D03*
X120214016Y-102057011D03*
X117674016Y-102057011D03*
X118944016Y-102057011D03*
X121484016Y-96557011D03*
X120214016Y-96557011D03*
X117674016Y-96557011D03*
X118944016Y-96557011D03*
D11*
X119579016Y-99307011D03*
%TD*%
D12*
%TO.C,Q1*%
X121870016Y-108070011D03*
X123770016Y-108070011D03*
X122820016Y-106070011D03*
%TD*%
%TO.C,R1*%
G36*
G01*
X119214016Y-103186011D02*
X119214016Y-103556011D01*
G75*
G02*
X119079016Y-103691011I-135000J0D01*
G01*
X118809016Y-103691011D01*
G75*
G02*
X118674016Y-103556011I0J135000D01*
G01*
X118674016Y-103186011D01*
G75*
G02*
X118809016Y-103051011I135000J0D01*
G01*
X119079016Y-103051011D01*
G75*
G02*
X119214016Y-103186011I0J-135000D01*
G01*
G37*
G36*
G01*
X118194016Y-103186011D02*
X118194016Y-103556011D01*
G75*
G02*
X118059016Y-103691011I-135000J0D01*
G01*
X117789016Y-103691011D01*
G75*
G02*
X117654016Y-103556011I0J135000D01*
G01*
X117654016Y-103186011D01*
G75*
G02*
X117789016Y-103051011I135000J0D01*
G01*
X118059016Y-103051011D01*
G75*
G02*
X118194016Y-103186011I0J-135000D01*
G01*
G37*
%TD*%
%TO.C,R2*%
G36*
G01*
X123193016Y-97803011D02*
X122823016Y-97803011D01*
G75*
G02*
X122688016Y-97668011I0J135000D01*
G01*
X122688016Y-97398011D01*
G75*
G02*
X122823016Y-97263011I135000J0D01*
G01*
X123193016Y-97263011D01*
G75*
G02*
X123328016Y-97398011I0J-135000D01*
G01*
X123328016Y-97668011D01*
G75*
G02*
X123193016Y-97803011I-135000J0D01*
G01*
G37*
G36*
G01*
X123193016Y-96783011D02*
X122823016Y-96783011D01*
G75*
G02*
X122688016Y-96648011I0J135000D01*
G01*
X122688016Y-96378011D01*
G75*
G02*
X122823016Y-96243011I135000J0D01*
G01*
X123193016Y-96243011D01*
G75*
G02*
X123328016Y-96378011I0J-135000D01*
G01*
X123328016Y-96648011D01*
G75*
G02*
X123193016Y-96783011I-135000J0D01*
G01*
G37*
%TD*%
%TO.C,R3*%
G36*
G01*
X115372016Y-97460011D02*
X115372016Y-97090011D01*
G75*
G02*
X115507016Y-96955011I135000J0D01*
G01*
X115777016Y-96955011D01*
G75*
G02*
X115912016Y-97090011I0J-135000D01*
G01*
X115912016Y-97460011D01*
G75*
G02*
X115777016Y-97595011I-135000J0D01*
G01*
X115507016Y-97595011D01*
G75*
G02*
X115372016Y-97460011I0J135000D01*
G01*
G37*
G36*
G01*
X116392016Y-97460011D02*
X116392016Y-97090011D01*
G75*
G02*
X116527016Y-96955011I135000J0D01*
G01*
X116797016Y-96955011D01*
G75*
G02*
X116932016Y-97090011I0J-135000D01*
G01*
X116932016Y-97460011D01*
G75*
G02*
X116797016Y-97595011I-135000J0D01*
G01*
X116527016Y-97595011D01*
G75*
G02*
X116392016Y-97460011I0J135000D01*
G01*
G37*
%TD*%
%TO.C,R4*%
G36*
G01*
X115573016Y-106693011D02*
X115203016Y-106693011D01*
G75*
G02*
X115068016Y-106558011I0J135000D01*
G01*
X115068016Y-106288011D01*
G75*
G02*
X115203016Y-106153011I135000J0D01*
G01*
X115573016Y-106153011D01*
G75*
G02*
X115708016Y-106288011I0J-135000D01*
G01*
X115708016Y-106558011D01*
G75*
G02*
X115573016Y-106693011I-135000J0D01*
G01*
G37*
G36*
G01*
X115573016Y-105673011D02*
X115203016Y-105673011D01*
G75*
G02*
X115068016Y-105538011I0J135000D01*
G01*
X115068016Y-105268011D01*
G75*
G02*
X115203016Y-105133011I135000J0D01*
G01*
X115573016Y-105133011D01*
G75*
G02*
X115708016Y-105268011I0J-135000D01*
G01*
X115708016Y-105538011D01*
G75*
G02*
X115573016Y-105673011I-135000J0D01*
G01*
G37*
%TD*%
%TO.C,R5*%
G36*
G01*
X127028516Y-95185011D02*
X127028516Y-95555011D01*
G75*
G02*
X126893516Y-95690011I-135000J0D01*
G01*
X126623516Y-95690011D01*
G75*
G02*
X126488516Y-95555011I0J135000D01*
G01*
X126488516Y-95185011D01*
G75*
G02*
X126623516Y-95050011I135000J0D01*
G01*
X126893516Y-95050011D01*
G75*
G02*
X127028516Y-95185011I0J-135000D01*
G01*
G37*
G36*
G01*
X126008516Y-95185011D02*
X126008516Y-95555011D01*
G75*
G02*
X125873516Y-95690011I-135000J0D01*
G01*
X125603516Y-95690011D01*
G75*
G02*
X125468516Y-95555011I0J135000D01*
G01*
X125468516Y-95185011D01*
G75*
G02*
X125603516Y-95050011I135000J0D01*
G01*
X125873516Y-95050011D01*
G75*
G02*
X126008516Y-95185011I0J-135000D01*
G01*
G37*
%TD*%
D13*
%TO.C,U1*%
X124151016Y-102487011D03*
X124151016Y-103437011D03*
X124151016Y-104387011D03*
X126351016Y-104387011D03*
X126351016Y-102487011D03*
%TD*%
%TO.C,U2*%
X122246016Y-92636011D03*
X122246016Y-93586011D03*
X122246016Y-94536011D03*
X124446016Y-94536011D03*
X124446016Y-92636011D03*
X124446016Y-93586011D03*
%TD*%
%TO.C,U3*%
X118436016Y-92636011D03*
X118436016Y-93586011D03*
X118436016Y-94536011D03*
X120636016Y-94536011D03*
X120636016Y-92636011D03*
X120636016Y-93586011D03*
%TD*%
D14*
%TO.C,D3*%
X116910016Y-108070011D03*
X113610016Y-108070011D03*
%TD*%
%TO.C,D4*%
X128850016Y-108070011D03*
X125550016Y-108070011D03*
%TD*%
%TO.C,C1*%
G36*
G01*
X122934016Y-103785011D02*
X122934016Y-104735011D01*
G75*
G02*
X122684016Y-104985011I-250000J0D01*
G01*
X122184016Y-104985011D01*
G75*
G02*
X121934016Y-104735011I0J250000D01*
G01*
X121934016Y-103785011D01*
G75*
G02*
X122184016Y-103535011I250000J0D01*
G01*
X122684016Y-103535011D01*
G75*
G02*
X122934016Y-103785011I0J-250000D01*
G01*
G37*
G36*
G01*
X121034016Y-103785011D02*
X121034016Y-104735011D01*
G75*
G02*
X120784016Y-104985011I-250000J0D01*
G01*
X120284016Y-104985011D01*
G75*
G02*
X120034016Y-104735011I0J250000D01*
G01*
X120034016Y-103785011D01*
G75*
G02*
X120284016Y-103535011I250000J0D01*
G01*
X120784016Y-103535011D01*
G75*
G02*
X121034016Y-103785011I0J-250000D01*
G01*
G37*
%TD*%
%TO.C,C2*%
G36*
G01*
X124032016Y-97496011D02*
X124032016Y-96546011D01*
G75*
G02*
X124282016Y-96296011I250000J0D01*
G01*
X124782016Y-96296011D01*
G75*
G02*
X125032016Y-96546011I0J-250000D01*
G01*
X125032016Y-97496011D01*
G75*
G02*
X124782016Y-97746011I-250000J0D01*
G01*
X124282016Y-97746011D01*
G75*
G02*
X124032016Y-97496011I0J250000D01*
G01*
G37*
G36*
G01*
X125932016Y-97496011D02*
X125932016Y-96546011D01*
G75*
G02*
X126182016Y-96296011I250000J0D01*
G01*
X126682016Y-96296011D01*
G75*
G02*
X126932016Y-96546011I0J-250000D01*
G01*
X126932016Y-97496011D01*
G75*
G02*
X126682016Y-97746011I-250000J0D01*
G01*
X126182016Y-97746011D01*
G75*
G02*
X125932016Y-97496011I0J250000D01*
G01*
G37*
%TD*%
%TO.C,C3*%
G36*
G01*
X125163016Y-101307011D02*
X124663016Y-101307011D01*
G75*
G02*
X124438016Y-101082011I0J225000D01*
G01*
X124438016Y-100632011D01*
G75*
G02*
X124663016Y-100407011I225000J0D01*
G01*
X125163016Y-100407011D01*
G75*
G02*
X125388016Y-100632011I0J-225000D01*
G01*
X125388016Y-101082011D01*
G75*
G02*
X125163016Y-101307011I-225000J0D01*
G01*
G37*
G36*
G01*
X125163016Y-99757011D02*
X124663016Y-99757011D01*
G75*
G02*
X124438016Y-99532011I0J225000D01*
G01*
X124438016Y-99082011D01*
G75*
G02*
X124663016Y-98857011I225000J0D01*
G01*
X125163016Y-98857011D01*
G75*
G02*
X125388016Y-99082011I0J-225000D01*
G01*
X125388016Y-99532011D01*
G75*
G02*
X125163016Y-99757011I-225000J0D01*
G01*
G37*
%TD*%
%TO.C,C4*%
G36*
G01*
X126687016Y-101307011D02*
X126187016Y-101307011D01*
G75*
G02*
X125962016Y-101082011I0J225000D01*
G01*
X125962016Y-100632011D01*
G75*
G02*
X126187016Y-100407011I225000J0D01*
G01*
X126687016Y-100407011D01*
G75*
G02*
X126912016Y-100632011I0J-225000D01*
G01*
X126912016Y-101082011D01*
G75*
G02*
X126687016Y-101307011I-225000J0D01*
G01*
G37*
G36*
G01*
X126687016Y-99757011D02*
X126187016Y-99757011D01*
G75*
G02*
X125962016Y-99532011I0J225000D01*
G01*
X125962016Y-99082011D01*
G75*
G02*
X126187016Y-98857011I225000J0D01*
G01*
X126687016Y-98857011D01*
G75*
G02*
X126912016Y-99082011I0J-225000D01*
G01*
X126912016Y-99532011D01*
G75*
G02*
X126687016Y-99757011I-225000J0D01*
G01*
G37*
%TD*%
%TO.C,C5*%
G36*
G01*
X126306016Y-94512511D02*
X125806016Y-94512511D01*
G75*
G02*
X125581016Y-94287511I0J225000D01*
G01*
X125581016Y-93837511D01*
G75*
G02*
X125806016Y-93612511I225000J0D01*
G01*
X126306016Y-93612511D01*
G75*
G02*
X126531016Y-93837511I0J-225000D01*
G01*
X126531016Y-94287511D01*
G75*
G02*
X126306016Y-94512511I-225000J0D01*
G01*
G37*
G36*
G01*
X126306016Y-92962511D02*
X125806016Y-92962511D01*
G75*
G02*
X125581016Y-92737511I0J225000D01*
G01*
X125581016Y-92287511D01*
G75*
G02*
X125806016Y-92062511I225000J0D01*
G01*
X126306016Y-92062511D01*
G75*
G02*
X126531016Y-92287511I0J-225000D01*
G01*
X126531016Y-92737511D01*
G75*
G02*
X126306016Y-92962511I-225000J0D01*
G01*
G37*
%TD*%
%TO.C,R6*%
G36*
G01*
X127180016Y-92851011D02*
X127180016Y-92301011D01*
G75*
G02*
X127380016Y-92101011I200000J0D01*
G01*
X127780016Y-92101011D01*
G75*
G02*
X127980016Y-92301011I0J-200000D01*
G01*
X127980016Y-92851011D01*
G75*
G02*
X127780016Y-93051011I-200000J0D01*
G01*
X127380016Y-93051011D01*
G75*
G02*
X127180016Y-92851011I0J200000D01*
G01*
G37*
G36*
G01*
X128830016Y-92851011D02*
X128830016Y-92301011D01*
G75*
G02*
X129030016Y-92101011I200000J0D01*
G01*
X129430016Y-92101011D01*
G75*
G02*
X129630016Y-92301011I0J-200000D01*
G01*
X129630016Y-92851011D01*
G75*
G02*
X129430016Y-93051011I-200000J0D01*
G01*
X129030016Y-93051011D01*
G75*
G02*
X128830016Y-92851011I0J200000D01*
G01*
G37*
%TD*%
%TO.C,D1*%
G36*
G01*
X97658261Y-106653511D02*
X97145761Y-106653511D01*
G75*
G02*
X96927011Y-106434761I0J218750D01*
G01*
X96927011Y-105997261D01*
G75*
G02*
X97145761Y-105778511I218750J0D01*
G01*
X97658261Y-105778511D01*
G75*
G02*
X97877011Y-105997261I0J-218750D01*
G01*
X97877011Y-106434761D01*
G75*
G02*
X97658261Y-106653511I-218750J0D01*
G01*
G37*
G36*
G01*
X97658261Y-105078511D02*
X97145761Y-105078511D01*
G75*
G02*
X96927011Y-104859761I0J218750D01*
G01*
X96927011Y-104422261D01*
G75*
G02*
X97145761Y-104203511I218750J0D01*
G01*
X97658261Y-104203511D01*
G75*
G02*
X97877011Y-104422261I0J-218750D01*
G01*
X97877011Y-104859761D01*
G75*
G02*
X97658261Y-105078511I-218750J0D01*
G01*
G37*
%TD*%
%TO.C,D2*%
G36*
G01*
X96134261Y-106653511D02*
X95621761Y-106653511D01*
G75*
G02*
X95403011Y-106434761I0J218750D01*
G01*
X95403011Y-105997261D01*
G75*
G02*
X95621761Y-105778511I218750J0D01*
G01*
X96134261Y-105778511D01*
G75*
G02*
X96353011Y-105997261I0J-218750D01*
G01*
X96353011Y-106434761D01*
G75*
G02*
X96134261Y-106653511I-218750J0D01*
G01*
G37*
G36*
G01*
X96134261Y-105078511D02*
X95621761Y-105078511D01*
G75*
G02*
X95403011Y-104859761I0J218750D01*
G01*
X95403011Y-104422261D01*
G75*
G02*
X95621761Y-104203511I218750J0D01*
G01*
X96134261Y-104203511D01*
G75*
G02*
X96353011Y-104422261I0J-218750D01*
G01*
X96353011Y-104859761D01*
G75*
G02*
X96134261Y-105078511I-218750J0D01*
G01*
G37*
%TD*%
%TO.C,F1*%
G36*
G01*
X96424011Y-92255011D02*
X96424011Y-93405011D01*
G75*
G02*
X96174011Y-93655011I-250000J0D01*
G01*
X95074011Y-93655011D01*
G75*
G02*
X94824011Y-93405011I0J250000D01*
G01*
X94824011Y-92255011D01*
G75*
G02*
X95074011Y-92005011I250000J0D01*
G01*
X96174011Y-92005011D01*
G75*
G02*
X96424011Y-92255011I0J-250000D01*
G01*
G37*
G36*
G01*
X93574011Y-92255011D02*
X93574011Y-93405011D01*
G75*
G02*
X93324011Y-93655011I-250000J0D01*
G01*
X92224011Y-93655011D01*
G75*
G02*
X91974011Y-93405011I0J250000D01*
G01*
X91974011Y-92255011D01*
G75*
G02*
X92224011Y-92005011I250000J0D01*
G01*
X93324011Y-92005011D01*
G75*
G02*
X93574011Y-92255011I0J-250000D01*
G01*
G37*
%TD*%
D10*
%TO.C,IC1*%
X100704011Y-102057011D03*
X99434011Y-102057011D03*
X96894011Y-102057011D03*
X98164011Y-102057011D03*
X100704011Y-96557011D03*
X99434011Y-96557011D03*
X96894011Y-96557011D03*
X98164011Y-96557011D03*
D11*
X98799011Y-99307011D03*
%TD*%
D12*
%TO.C,Q1*%
X101090011Y-108070011D03*
X102990011Y-108070011D03*
X102040011Y-106070011D03*
%TD*%
%TO.C,R1*%
G36*
G01*
X98434011Y-103186011D02*
X98434011Y-103556011D01*
G75*
G02*
X98299011Y-103691011I-135000J0D01*
G01*
X98029011Y-103691011D01*
G75*
G02*
X97894011Y-103556011I0J135000D01*
G01*
X97894011Y-103186011D01*
G75*
G02*
X98029011Y-103051011I135000J0D01*
G01*
X98299011Y-103051011D01*
G75*
G02*
X98434011Y-103186011I0J-135000D01*
G01*
G37*
G36*
G01*
X97414011Y-103186011D02*
X97414011Y-103556011D01*
G75*
G02*
X97279011Y-103691011I-135000J0D01*
G01*
X97009011Y-103691011D01*
G75*
G02*
X96874011Y-103556011I0J135000D01*
G01*
X96874011Y-103186011D01*
G75*
G02*
X97009011Y-103051011I135000J0D01*
G01*
X97279011Y-103051011D01*
G75*
G02*
X97414011Y-103186011I0J-135000D01*
G01*
G37*
%TD*%
%TO.C,R2*%
G36*
G01*
X102413011Y-97803011D02*
X102043011Y-97803011D01*
G75*
G02*
X101908011Y-97668011I0J135000D01*
G01*
X101908011Y-97398011D01*
G75*
G02*
X102043011Y-97263011I135000J0D01*
G01*
X102413011Y-97263011D01*
G75*
G02*
X102548011Y-97398011I0J-135000D01*
G01*
X102548011Y-97668011D01*
G75*
G02*
X102413011Y-97803011I-135000J0D01*
G01*
G37*
G36*
G01*
X102413011Y-96783011D02*
X102043011Y-96783011D01*
G75*
G02*
X101908011Y-96648011I0J135000D01*
G01*
X101908011Y-96378011D01*
G75*
G02*
X102043011Y-96243011I135000J0D01*
G01*
X102413011Y-96243011D01*
G75*
G02*
X102548011Y-96378011I0J-135000D01*
G01*
X102548011Y-96648011D01*
G75*
G02*
X102413011Y-96783011I-135000J0D01*
G01*
G37*
%TD*%
%TO.C,R3*%
G36*
G01*
X94592011Y-97460011D02*
X94592011Y-97090011D01*
G75*
G02*
X94727011Y-96955011I135000J0D01*
G01*
X94997011Y-96955011D01*
G75*
G02*
X95132011Y-97090011I0J-135000D01*
G01*
X95132011Y-97460011D01*
G75*
G02*
X94997011Y-97595011I-135000J0D01*
G01*
X94727011Y-97595011D01*
G75*
G02*
X94592011Y-97460011I0J135000D01*
G01*
G37*
G36*
G01*
X95612011Y-97460011D02*
X95612011Y-97090011D01*
G75*
G02*
X95747011Y-96955011I135000J0D01*
G01*
X96017011Y-96955011D01*
G75*
G02*
X96152011Y-97090011I0J-135000D01*
G01*
X96152011Y-97460011D01*
G75*
G02*
X96017011Y-97595011I-135000J0D01*
G01*
X95747011Y-97595011D01*
G75*
G02*
X95612011Y-97460011I0J135000D01*
G01*
G37*
%TD*%
%TO.C,R4*%
G36*
G01*
X94793011Y-106693011D02*
X94423011Y-106693011D01*
G75*
G02*
X94288011Y-106558011I0J135000D01*
G01*
X94288011Y-106288011D01*
G75*
G02*
X94423011Y-106153011I135000J0D01*
G01*
X94793011Y-106153011D01*
G75*
G02*
X94928011Y-106288011I0J-135000D01*
G01*
X94928011Y-106558011D01*
G75*
G02*
X94793011Y-106693011I-135000J0D01*
G01*
G37*
G36*
G01*
X94793011Y-105673011D02*
X94423011Y-105673011D01*
G75*
G02*
X94288011Y-105538011I0J135000D01*
G01*
X94288011Y-105268011D01*
G75*
G02*
X94423011Y-105133011I135000J0D01*
G01*
X94793011Y-105133011D01*
G75*
G02*
X94928011Y-105268011I0J-135000D01*
G01*
X94928011Y-105538011D01*
G75*
G02*
X94793011Y-105673011I-135000J0D01*
G01*
G37*
%TD*%
%TO.C,R5*%
G36*
G01*
X106248511Y-95185011D02*
X106248511Y-95555011D01*
G75*
G02*
X106113511Y-95690011I-135000J0D01*
G01*
X105843511Y-95690011D01*
G75*
G02*
X105708511Y-95555011I0J135000D01*
G01*
X105708511Y-95185011D01*
G75*
G02*
X105843511Y-95050011I135000J0D01*
G01*
X106113511Y-95050011D01*
G75*
G02*
X106248511Y-95185011I0J-135000D01*
G01*
G37*
G36*
G01*
X105228511Y-95185011D02*
X105228511Y-95555011D01*
G75*
G02*
X105093511Y-95690011I-135000J0D01*
G01*
X104823511Y-95690011D01*
G75*
G02*
X104688511Y-95555011I0J135000D01*
G01*
X104688511Y-95185011D01*
G75*
G02*
X104823511Y-95050011I135000J0D01*
G01*
X105093511Y-95050011D01*
G75*
G02*
X105228511Y-95185011I0J-135000D01*
G01*
G37*
%TD*%
D13*
%TO.C,U1*%
X103371011Y-102487011D03*
X103371011Y-103437011D03*
X103371011Y-104387011D03*
X105571011Y-104387011D03*
X105571011Y-102487011D03*
%TD*%
%TO.C,U2*%
X101466011Y-92636011D03*
X101466011Y-93586011D03*
X101466011Y-94536011D03*
X103666011Y-94536011D03*
X103666011Y-92636011D03*
X103666011Y-93586011D03*
%TD*%
%TO.C,U3*%
X97656011Y-92636011D03*
X97656011Y-93586011D03*
X97656011Y-94536011D03*
X99856011Y-94536011D03*
X99856011Y-92636011D03*
X99856011Y-93586011D03*
%TD*%
D14*
%TO.C,D3*%
X96130011Y-108070011D03*
X92830011Y-108070011D03*
%TD*%
%TO.C,D4*%
X108070011Y-108070011D03*
X104770011Y-108070011D03*
%TD*%
%TO.C,C1*%
G36*
G01*
X102154011Y-103785011D02*
X102154011Y-104735011D01*
G75*
G02*
X101904011Y-104985011I-250000J0D01*
G01*
X101404011Y-104985011D01*
G75*
G02*
X101154011Y-104735011I0J250000D01*
G01*
X101154011Y-103785011D01*
G75*
G02*
X101404011Y-103535011I250000J0D01*
G01*
X101904011Y-103535011D01*
G75*
G02*
X102154011Y-103785011I0J-250000D01*
G01*
G37*
G36*
G01*
X100254011Y-103785011D02*
X100254011Y-104735011D01*
G75*
G02*
X100004011Y-104985011I-250000J0D01*
G01*
X99504011Y-104985011D01*
G75*
G02*
X99254011Y-104735011I0J250000D01*
G01*
X99254011Y-103785011D01*
G75*
G02*
X99504011Y-103535011I250000J0D01*
G01*
X100004011Y-103535011D01*
G75*
G02*
X100254011Y-103785011I0J-250000D01*
G01*
G37*
%TD*%
%TO.C,C2*%
G36*
G01*
X103252011Y-97496011D02*
X103252011Y-96546011D01*
G75*
G02*
X103502011Y-96296011I250000J0D01*
G01*
X104002011Y-96296011D01*
G75*
G02*
X104252011Y-96546011I0J-250000D01*
G01*
X104252011Y-97496011D01*
G75*
G02*
X104002011Y-97746011I-250000J0D01*
G01*
X103502011Y-97746011D01*
G75*
G02*
X103252011Y-97496011I0J250000D01*
G01*
G37*
G36*
G01*
X105152011Y-97496011D02*
X105152011Y-96546011D01*
G75*
G02*
X105402011Y-96296011I250000J0D01*
G01*
X105902011Y-96296011D01*
G75*
G02*
X106152011Y-96546011I0J-250000D01*
G01*
X106152011Y-97496011D01*
G75*
G02*
X105902011Y-97746011I-250000J0D01*
G01*
X105402011Y-97746011D01*
G75*
G02*
X105152011Y-97496011I0J250000D01*
G01*
G37*
%TD*%
%TO.C,C3*%
G36*
G01*
X104383011Y-101307011D02*
X103883011Y-101307011D01*
G75*
G02*
X103658011Y-101082011I0J225000D01*
G01*
X103658011Y-100632011D01*
G75*
G02*
X103883011Y-100407011I225000J0D01*
G01*
X104383011Y-100407011D01*
G75*
G02*
X104608011Y-100632011I0J-225000D01*
G01*
X104608011Y-101082011D01*
G75*
G02*
X104383011Y-101307011I-225000J0D01*
G01*
G37*
G36*
G01*
X104383011Y-99757011D02*
X103883011Y-99757011D01*
G75*
G02*
X103658011Y-99532011I0J225000D01*
G01*
X103658011Y-99082011D01*
G75*
G02*
X103883011Y-98857011I225000J0D01*
G01*
X104383011Y-98857011D01*
G75*
G02*
X104608011Y-99082011I0J-225000D01*
G01*
X104608011Y-99532011D01*
G75*
G02*
X104383011Y-99757011I-225000J0D01*
G01*
G37*
%TD*%
%TO.C,C4*%
G36*
G01*
X105907011Y-101307011D02*
X105407011Y-101307011D01*
G75*
G02*
X105182011Y-101082011I0J225000D01*
G01*
X105182011Y-100632011D01*
G75*
G02*
X105407011Y-100407011I225000J0D01*
G01*
X105907011Y-100407011D01*
G75*
G02*
X106132011Y-100632011I0J-225000D01*
G01*
X106132011Y-101082011D01*
G75*
G02*
X105907011Y-101307011I-225000J0D01*
G01*
G37*
G36*
G01*
X105907011Y-99757011D02*
X105407011Y-99757011D01*
G75*
G02*
X105182011Y-99532011I0J225000D01*
G01*
X105182011Y-99082011D01*
G75*
G02*
X105407011Y-98857011I225000J0D01*
G01*
X105907011Y-98857011D01*
G75*
G02*
X106132011Y-99082011I0J-225000D01*
G01*
X106132011Y-99532011D01*
G75*
G02*
X105907011Y-99757011I-225000J0D01*
G01*
G37*
%TD*%
%TO.C,C5*%
G36*
G01*
X105526011Y-94512511D02*
X105026011Y-94512511D01*
G75*
G02*
X104801011Y-94287511I0J225000D01*
G01*
X104801011Y-93837511D01*
G75*
G02*
X105026011Y-93612511I225000J0D01*
G01*
X105526011Y-93612511D01*
G75*
G02*
X105751011Y-93837511I0J-225000D01*
G01*
X105751011Y-94287511D01*
G75*
G02*
X105526011Y-94512511I-225000J0D01*
G01*
G37*
G36*
G01*
X105526011Y-92962511D02*
X105026011Y-92962511D01*
G75*
G02*
X104801011Y-92737511I0J225000D01*
G01*
X104801011Y-92287511D01*
G75*
G02*
X105026011Y-92062511I225000J0D01*
G01*
X105526011Y-92062511D01*
G75*
G02*
X105751011Y-92287511I0J-225000D01*
G01*
X105751011Y-92737511D01*
G75*
G02*
X105526011Y-92962511I-225000J0D01*
G01*
G37*
%TD*%
%TO.C,R6*%
G36*
G01*
X106400011Y-92851011D02*
X106400011Y-92301011D01*
G75*
G02*
X106600011Y-92101011I200000J0D01*
G01*
X107000011Y-92101011D01*
G75*
G02*
X107200011Y-92301011I0J-200000D01*
G01*
X107200011Y-92851011D01*
G75*
G02*
X107000011Y-93051011I-200000J0D01*
G01*
X106600011Y-93051011D01*
G75*
G02*
X106400011Y-92851011I0J200000D01*
G01*
G37*
G36*
G01*
X108050011Y-92851011D02*
X108050011Y-92301011D01*
G75*
G02*
X108250011Y-92101011I200000J0D01*
G01*
X108650011Y-92101011D01*
G75*
G02*
X108850011Y-92301011I0J-200000D01*
G01*
X108850011Y-92851011D01*
G75*
G02*
X108650011Y-93051011I-200000J0D01*
G01*
X108250011Y-93051011D01*
G75*
G02*
X108050011Y-92851011I0J200000D01*
G01*
G37*
%TD*%
%TO.C,D1*%
G36*
G01*
X76878256Y-106653511D02*
X76365756Y-106653511D01*
G75*
G02*
X76147006Y-106434761I0J218750D01*
G01*
X76147006Y-105997261D01*
G75*
G02*
X76365756Y-105778511I218750J0D01*
G01*
X76878256Y-105778511D01*
G75*
G02*
X77097006Y-105997261I0J-218750D01*
G01*
X77097006Y-106434761D01*
G75*
G02*
X76878256Y-106653511I-218750J0D01*
G01*
G37*
G36*
G01*
X76878256Y-105078511D02*
X76365756Y-105078511D01*
G75*
G02*
X76147006Y-104859761I0J218750D01*
G01*
X76147006Y-104422261D01*
G75*
G02*
X76365756Y-104203511I218750J0D01*
G01*
X76878256Y-104203511D01*
G75*
G02*
X77097006Y-104422261I0J-218750D01*
G01*
X77097006Y-104859761D01*
G75*
G02*
X76878256Y-105078511I-218750J0D01*
G01*
G37*
%TD*%
%TO.C,D2*%
G36*
G01*
X75354256Y-106653511D02*
X74841756Y-106653511D01*
G75*
G02*
X74623006Y-106434761I0J218750D01*
G01*
X74623006Y-105997261D01*
G75*
G02*
X74841756Y-105778511I218750J0D01*
G01*
X75354256Y-105778511D01*
G75*
G02*
X75573006Y-105997261I0J-218750D01*
G01*
X75573006Y-106434761D01*
G75*
G02*
X75354256Y-106653511I-218750J0D01*
G01*
G37*
G36*
G01*
X75354256Y-105078511D02*
X74841756Y-105078511D01*
G75*
G02*
X74623006Y-104859761I0J218750D01*
G01*
X74623006Y-104422261D01*
G75*
G02*
X74841756Y-104203511I218750J0D01*
G01*
X75354256Y-104203511D01*
G75*
G02*
X75573006Y-104422261I0J-218750D01*
G01*
X75573006Y-104859761D01*
G75*
G02*
X75354256Y-105078511I-218750J0D01*
G01*
G37*
%TD*%
%TO.C,F1*%
G36*
G01*
X75644006Y-92255011D02*
X75644006Y-93405011D01*
G75*
G02*
X75394006Y-93655011I-250000J0D01*
G01*
X74294006Y-93655011D01*
G75*
G02*
X74044006Y-93405011I0J250000D01*
G01*
X74044006Y-92255011D01*
G75*
G02*
X74294006Y-92005011I250000J0D01*
G01*
X75394006Y-92005011D01*
G75*
G02*
X75644006Y-92255011I0J-250000D01*
G01*
G37*
G36*
G01*
X72794006Y-92255011D02*
X72794006Y-93405011D01*
G75*
G02*
X72544006Y-93655011I-250000J0D01*
G01*
X71444006Y-93655011D01*
G75*
G02*
X71194006Y-93405011I0J250000D01*
G01*
X71194006Y-92255011D01*
G75*
G02*
X71444006Y-92005011I250000J0D01*
G01*
X72544006Y-92005011D01*
G75*
G02*
X72794006Y-92255011I0J-250000D01*
G01*
G37*
%TD*%
D10*
%TO.C,IC1*%
X79924006Y-102057011D03*
X78654006Y-102057011D03*
X76114006Y-102057011D03*
X77384006Y-102057011D03*
X79924006Y-96557011D03*
X78654006Y-96557011D03*
X76114006Y-96557011D03*
X77384006Y-96557011D03*
D11*
X78019006Y-99307011D03*
%TD*%
D12*
%TO.C,Q1*%
X80310006Y-108070011D03*
X82210006Y-108070011D03*
X81260006Y-106070011D03*
%TD*%
%TO.C,R1*%
G36*
G01*
X77654006Y-103186011D02*
X77654006Y-103556011D01*
G75*
G02*
X77519006Y-103691011I-135000J0D01*
G01*
X77249006Y-103691011D01*
G75*
G02*
X77114006Y-103556011I0J135000D01*
G01*
X77114006Y-103186011D01*
G75*
G02*
X77249006Y-103051011I135000J0D01*
G01*
X77519006Y-103051011D01*
G75*
G02*
X77654006Y-103186011I0J-135000D01*
G01*
G37*
G36*
G01*
X76634006Y-103186011D02*
X76634006Y-103556011D01*
G75*
G02*
X76499006Y-103691011I-135000J0D01*
G01*
X76229006Y-103691011D01*
G75*
G02*
X76094006Y-103556011I0J135000D01*
G01*
X76094006Y-103186011D01*
G75*
G02*
X76229006Y-103051011I135000J0D01*
G01*
X76499006Y-103051011D01*
G75*
G02*
X76634006Y-103186011I0J-135000D01*
G01*
G37*
%TD*%
%TO.C,R2*%
G36*
G01*
X81633006Y-97803011D02*
X81263006Y-97803011D01*
G75*
G02*
X81128006Y-97668011I0J135000D01*
G01*
X81128006Y-97398011D01*
G75*
G02*
X81263006Y-97263011I135000J0D01*
G01*
X81633006Y-97263011D01*
G75*
G02*
X81768006Y-97398011I0J-135000D01*
G01*
X81768006Y-97668011D01*
G75*
G02*
X81633006Y-97803011I-135000J0D01*
G01*
G37*
G36*
G01*
X81633006Y-96783011D02*
X81263006Y-96783011D01*
G75*
G02*
X81128006Y-96648011I0J135000D01*
G01*
X81128006Y-96378011D01*
G75*
G02*
X81263006Y-96243011I135000J0D01*
G01*
X81633006Y-96243011D01*
G75*
G02*
X81768006Y-96378011I0J-135000D01*
G01*
X81768006Y-96648011D01*
G75*
G02*
X81633006Y-96783011I-135000J0D01*
G01*
G37*
%TD*%
%TO.C,R3*%
G36*
G01*
X73812006Y-97460011D02*
X73812006Y-97090011D01*
G75*
G02*
X73947006Y-96955011I135000J0D01*
G01*
X74217006Y-96955011D01*
G75*
G02*
X74352006Y-97090011I0J-135000D01*
G01*
X74352006Y-97460011D01*
G75*
G02*
X74217006Y-97595011I-135000J0D01*
G01*
X73947006Y-97595011D01*
G75*
G02*
X73812006Y-97460011I0J135000D01*
G01*
G37*
G36*
G01*
X74832006Y-97460011D02*
X74832006Y-97090011D01*
G75*
G02*
X74967006Y-96955011I135000J0D01*
G01*
X75237006Y-96955011D01*
G75*
G02*
X75372006Y-97090011I0J-135000D01*
G01*
X75372006Y-97460011D01*
G75*
G02*
X75237006Y-97595011I-135000J0D01*
G01*
X74967006Y-97595011D01*
G75*
G02*
X74832006Y-97460011I0J135000D01*
G01*
G37*
%TD*%
%TO.C,R4*%
G36*
G01*
X74013006Y-106693011D02*
X73643006Y-106693011D01*
G75*
G02*
X73508006Y-106558011I0J135000D01*
G01*
X73508006Y-106288011D01*
G75*
G02*
X73643006Y-106153011I135000J0D01*
G01*
X74013006Y-106153011D01*
G75*
G02*
X74148006Y-106288011I0J-135000D01*
G01*
X74148006Y-106558011D01*
G75*
G02*
X74013006Y-106693011I-135000J0D01*
G01*
G37*
G36*
G01*
X74013006Y-105673011D02*
X73643006Y-105673011D01*
G75*
G02*
X73508006Y-105538011I0J135000D01*
G01*
X73508006Y-105268011D01*
G75*
G02*
X73643006Y-105133011I135000J0D01*
G01*
X74013006Y-105133011D01*
G75*
G02*
X74148006Y-105268011I0J-135000D01*
G01*
X74148006Y-105538011D01*
G75*
G02*
X74013006Y-105673011I-135000J0D01*
G01*
G37*
%TD*%
%TO.C,R5*%
G36*
G01*
X85468506Y-95185011D02*
X85468506Y-95555011D01*
G75*
G02*
X85333506Y-95690011I-135000J0D01*
G01*
X85063506Y-95690011D01*
G75*
G02*
X84928506Y-95555011I0J135000D01*
G01*
X84928506Y-95185011D01*
G75*
G02*
X85063506Y-95050011I135000J0D01*
G01*
X85333506Y-95050011D01*
G75*
G02*
X85468506Y-95185011I0J-135000D01*
G01*
G37*
G36*
G01*
X84448506Y-95185011D02*
X84448506Y-95555011D01*
G75*
G02*
X84313506Y-95690011I-135000J0D01*
G01*
X84043506Y-95690011D01*
G75*
G02*
X83908506Y-95555011I0J135000D01*
G01*
X83908506Y-95185011D01*
G75*
G02*
X84043506Y-95050011I135000J0D01*
G01*
X84313506Y-95050011D01*
G75*
G02*
X84448506Y-95185011I0J-135000D01*
G01*
G37*
%TD*%
D13*
%TO.C,U1*%
X82591006Y-102487011D03*
X82591006Y-103437011D03*
X82591006Y-104387011D03*
X84791006Y-104387011D03*
X84791006Y-102487011D03*
%TD*%
%TO.C,U2*%
X80686006Y-92636011D03*
X80686006Y-93586011D03*
X80686006Y-94536011D03*
X82886006Y-94536011D03*
X82886006Y-92636011D03*
X82886006Y-93586011D03*
%TD*%
%TO.C,U3*%
X76876006Y-92636011D03*
X76876006Y-93586011D03*
X76876006Y-94536011D03*
X79076006Y-94536011D03*
X79076006Y-92636011D03*
X79076006Y-93586011D03*
%TD*%
D14*
%TO.C,D3*%
X75350006Y-108070011D03*
X72050006Y-108070011D03*
%TD*%
%TO.C,D4*%
X87290006Y-108070011D03*
X83990006Y-108070011D03*
%TD*%
%TO.C,C1*%
G36*
G01*
X81374006Y-103785011D02*
X81374006Y-104735011D01*
G75*
G02*
X81124006Y-104985011I-250000J0D01*
G01*
X80624006Y-104985011D01*
G75*
G02*
X80374006Y-104735011I0J250000D01*
G01*
X80374006Y-103785011D01*
G75*
G02*
X80624006Y-103535011I250000J0D01*
G01*
X81124006Y-103535011D01*
G75*
G02*
X81374006Y-103785011I0J-250000D01*
G01*
G37*
G36*
G01*
X79474006Y-103785011D02*
X79474006Y-104735011D01*
G75*
G02*
X79224006Y-104985011I-250000J0D01*
G01*
X78724006Y-104985011D01*
G75*
G02*
X78474006Y-104735011I0J250000D01*
G01*
X78474006Y-103785011D01*
G75*
G02*
X78724006Y-103535011I250000J0D01*
G01*
X79224006Y-103535011D01*
G75*
G02*
X79474006Y-103785011I0J-250000D01*
G01*
G37*
%TD*%
%TO.C,C2*%
G36*
G01*
X82472006Y-97496011D02*
X82472006Y-96546011D01*
G75*
G02*
X82722006Y-96296011I250000J0D01*
G01*
X83222006Y-96296011D01*
G75*
G02*
X83472006Y-96546011I0J-250000D01*
G01*
X83472006Y-97496011D01*
G75*
G02*
X83222006Y-97746011I-250000J0D01*
G01*
X82722006Y-97746011D01*
G75*
G02*
X82472006Y-97496011I0J250000D01*
G01*
G37*
G36*
G01*
X84372006Y-97496011D02*
X84372006Y-96546011D01*
G75*
G02*
X84622006Y-96296011I250000J0D01*
G01*
X85122006Y-96296011D01*
G75*
G02*
X85372006Y-96546011I0J-250000D01*
G01*
X85372006Y-97496011D01*
G75*
G02*
X85122006Y-97746011I-250000J0D01*
G01*
X84622006Y-97746011D01*
G75*
G02*
X84372006Y-97496011I0J250000D01*
G01*
G37*
%TD*%
%TO.C,C3*%
G36*
G01*
X83603006Y-101307011D02*
X83103006Y-101307011D01*
G75*
G02*
X82878006Y-101082011I0J225000D01*
G01*
X82878006Y-100632011D01*
G75*
G02*
X83103006Y-100407011I225000J0D01*
G01*
X83603006Y-100407011D01*
G75*
G02*
X83828006Y-100632011I0J-225000D01*
G01*
X83828006Y-101082011D01*
G75*
G02*
X83603006Y-101307011I-225000J0D01*
G01*
G37*
G36*
G01*
X83603006Y-99757011D02*
X83103006Y-99757011D01*
G75*
G02*
X82878006Y-99532011I0J225000D01*
G01*
X82878006Y-99082011D01*
G75*
G02*
X83103006Y-98857011I225000J0D01*
G01*
X83603006Y-98857011D01*
G75*
G02*
X83828006Y-99082011I0J-225000D01*
G01*
X83828006Y-99532011D01*
G75*
G02*
X83603006Y-99757011I-225000J0D01*
G01*
G37*
%TD*%
%TO.C,C4*%
G36*
G01*
X85127006Y-101307011D02*
X84627006Y-101307011D01*
G75*
G02*
X84402006Y-101082011I0J225000D01*
G01*
X84402006Y-100632011D01*
G75*
G02*
X84627006Y-100407011I225000J0D01*
G01*
X85127006Y-100407011D01*
G75*
G02*
X85352006Y-100632011I0J-225000D01*
G01*
X85352006Y-101082011D01*
G75*
G02*
X85127006Y-101307011I-225000J0D01*
G01*
G37*
G36*
G01*
X85127006Y-99757011D02*
X84627006Y-99757011D01*
G75*
G02*
X84402006Y-99532011I0J225000D01*
G01*
X84402006Y-99082011D01*
G75*
G02*
X84627006Y-98857011I225000J0D01*
G01*
X85127006Y-98857011D01*
G75*
G02*
X85352006Y-99082011I0J-225000D01*
G01*
X85352006Y-99532011D01*
G75*
G02*
X85127006Y-99757011I-225000J0D01*
G01*
G37*
%TD*%
%TO.C,C5*%
G36*
G01*
X84746006Y-94512511D02*
X84246006Y-94512511D01*
G75*
G02*
X84021006Y-94287511I0J225000D01*
G01*
X84021006Y-93837511D01*
G75*
G02*
X84246006Y-93612511I225000J0D01*
G01*
X84746006Y-93612511D01*
G75*
G02*
X84971006Y-93837511I0J-225000D01*
G01*
X84971006Y-94287511D01*
G75*
G02*
X84746006Y-94512511I-225000J0D01*
G01*
G37*
G36*
G01*
X84746006Y-92962511D02*
X84246006Y-92962511D01*
G75*
G02*
X84021006Y-92737511I0J225000D01*
G01*
X84021006Y-92287511D01*
G75*
G02*
X84246006Y-92062511I225000J0D01*
G01*
X84746006Y-92062511D01*
G75*
G02*
X84971006Y-92287511I0J-225000D01*
G01*
X84971006Y-92737511D01*
G75*
G02*
X84746006Y-92962511I-225000J0D01*
G01*
G37*
%TD*%
%TO.C,R6*%
G36*
G01*
X85620006Y-92851011D02*
X85620006Y-92301011D01*
G75*
G02*
X85820006Y-92101011I200000J0D01*
G01*
X86220006Y-92101011D01*
G75*
G02*
X86420006Y-92301011I0J-200000D01*
G01*
X86420006Y-92851011D01*
G75*
G02*
X86220006Y-93051011I-200000J0D01*
G01*
X85820006Y-93051011D01*
G75*
G02*
X85620006Y-92851011I0J200000D01*
G01*
G37*
G36*
G01*
X87270006Y-92851011D02*
X87270006Y-92301011D01*
G75*
G02*
X87470006Y-92101011I200000J0D01*
G01*
X87870006Y-92101011D01*
G75*
G02*
X88070006Y-92301011I0J-200000D01*
G01*
X88070006Y-92851011D01*
G75*
G02*
X87870006Y-93051011I-200000J0D01*
G01*
X87470006Y-93051011D01*
G75*
G02*
X87270006Y-92851011I0J200000D01*
G01*
G37*
%TD*%
%TO.C,D1*%
G36*
G01*
X56098251Y-106653511D02*
X55585751Y-106653511D01*
G75*
G02*
X55367001Y-106434761I0J218750D01*
G01*
X55367001Y-105997261D01*
G75*
G02*
X55585751Y-105778511I218750J0D01*
G01*
X56098251Y-105778511D01*
G75*
G02*
X56317001Y-105997261I0J-218750D01*
G01*
X56317001Y-106434761D01*
G75*
G02*
X56098251Y-106653511I-218750J0D01*
G01*
G37*
G36*
G01*
X56098251Y-105078511D02*
X55585751Y-105078511D01*
G75*
G02*
X55367001Y-104859761I0J218750D01*
G01*
X55367001Y-104422261D01*
G75*
G02*
X55585751Y-104203511I218750J0D01*
G01*
X56098251Y-104203511D01*
G75*
G02*
X56317001Y-104422261I0J-218750D01*
G01*
X56317001Y-104859761D01*
G75*
G02*
X56098251Y-105078511I-218750J0D01*
G01*
G37*
%TD*%
%TO.C,D2*%
G36*
G01*
X54574251Y-106653511D02*
X54061751Y-106653511D01*
G75*
G02*
X53843001Y-106434761I0J218750D01*
G01*
X53843001Y-105997261D01*
G75*
G02*
X54061751Y-105778511I218750J0D01*
G01*
X54574251Y-105778511D01*
G75*
G02*
X54793001Y-105997261I0J-218750D01*
G01*
X54793001Y-106434761D01*
G75*
G02*
X54574251Y-106653511I-218750J0D01*
G01*
G37*
G36*
G01*
X54574251Y-105078511D02*
X54061751Y-105078511D01*
G75*
G02*
X53843001Y-104859761I0J218750D01*
G01*
X53843001Y-104422261D01*
G75*
G02*
X54061751Y-104203511I218750J0D01*
G01*
X54574251Y-104203511D01*
G75*
G02*
X54793001Y-104422261I0J-218750D01*
G01*
X54793001Y-104859761D01*
G75*
G02*
X54574251Y-105078511I-218750J0D01*
G01*
G37*
%TD*%
%TO.C,F1*%
G36*
G01*
X54864001Y-92255011D02*
X54864001Y-93405011D01*
G75*
G02*
X54614001Y-93655011I-250000J0D01*
G01*
X53514001Y-93655011D01*
G75*
G02*
X53264001Y-93405011I0J250000D01*
G01*
X53264001Y-92255011D01*
G75*
G02*
X53514001Y-92005011I250000J0D01*
G01*
X54614001Y-92005011D01*
G75*
G02*
X54864001Y-92255011I0J-250000D01*
G01*
G37*
G36*
G01*
X52014001Y-92255011D02*
X52014001Y-93405011D01*
G75*
G02*
X51764001Y-93655011I-250000J0D01*
G01*
X50664001Y-93655011D01*
G75*
G02*
X50414001Y-93405011I0J250000D01*
G01*
X50414001Y-92255011D01*
G75*
G02*
X50664001Y-92005011I250000J0D01*
G01*
X51764001Y-92005011D01*
G75*
G02*
X52014001Y-92255011I0J-250000D01*
G01*
G37*
%TD*%
D10*
%TO.C,IC1*%
X59144001Y-102057011D03*
X57874001Y-102057011D03*
X55334001Y-102057011D03*
X56604001Y-102057011D03*
X59144001Y-96557011D03*
X57874001Y-96557011D03*
X55334001Y-96557011D03*
X56604001Y-96557011D03*
D11*
X57239001Y-99307011D03*
%TD*%
D12*
%TO.C,Q1*%
X59530001Y-108070011D03*
X61430001Y-108070011D03*
X60480001Y-106070011D03*
%TD*%
%TO.C,R1*%
G36*
G01*
X56874001Y-103186011D02*
X56874001Y-103556011D01*
G75*
G02*
X56739001Y-103691011I-135000J0D01*
G01*
X56469001Y-103691011D01*
G75*
G02*
X56334001Y-103556011I0J135000D01*
G01*
X56334001Y-103186011D01*
G75*
G02*
X56469001Y-103051011I135000J0D01*
G01*
X56739001Y-103051011D01*
G75*
G02*
X56874001Y-103186011I0J-135000D01*
G01*
G37*
G36*
G01*
X55854001Y-103186011D02*
X55854001Y-103556011D01*
G75*
G02*
X55719001Y-103691011I-135000J0D01*
G01*
X55449001Y-103691011D01*
G75*
G02*
X55314001Y-103556011I0J135000D01*
G01*
X55314001Y-103186011D01*
G75*
G02*
X55449001Y-103051011I135000J0D01*
G01*
X55719001Y-103051011D01*
G75*
G02*
X55854001Y-103186011I0J-135000D01*
G01*
G37*
%TD*%
%TO.C,R2*%
G36*
G01*
X60853001Y-97803011D02*
X60483001Y-97803011D01*
G75*
G02*
X60348001Y-97668011I0J135000D01*
G01*
X60348001Y-97398011D01*
G75*
G02*
X60483001Y-97263011I135000J0D01*
G01*
X60853001Y-97263011D01*
G75*
G02*
X60988001Y-97398011I0J-135000D01*
G01*
X60988001Y-97668011D01*
G75*
G02*
X60853001Y-97803011I-135000J0D01*
G01*
G37*
G36*
G01*
X60853001Y-96783011D02*
X60483001Y-96783011D01*
G75*
G02*
X60348001Y-96648011I0J135000D01*
G01*
X60348001Y-96378011D01*
G75*
G02*
X60483001Y-96243011I135000J0D01*
G01*
X60853001Y-96243011D01*
G75*
G02*
X60988001Y-96378011I0J-135000D01*
G01*
X60988001Y-96648011D01*
G75*
G02*
X60853001Y-96783011I-135000J0D01*
G01*
G37*
%TD*%
%TO.C,R3*%
G36*
G01*
X53032001Y-97460011D02*
X53032001Y-97090011D01*
G75*
G02*
X53167001Y-96955011I135000J0D01*
G01*
X53437001Y-96955011D01*
G75*
G02*
X53572001Y-97090011I0J-135000D01*
G01*
X53572001Y-97460011D01*
G75*
G02*
X53437001Y-97595011I-135000J0D01*
G01*
X53167001Y-97595011D01*
G75*
G02*
X53032001Y-97460011I0J135000D01*
G01*
G37*
G36*
G01*
X54052001Y-97460011D02*
X54052001Y-97090011D01*
G75*
G02*
X54187001Y-96955011I135000J0D01*
G01*
X54457001Y-96955011D01*
G75*
G02*
X54592001Y-97090011I0J-135000D01*
G01*
X54592001Y-97460011D01*
G75*
G02*
X54457001Y-97595011I-135000J0D01*
G01*
X54187001Y-97595011D01*
G75*
G02*
X54052001Y-97460011I0J135000D01*
G01*
G37*
%TD*%
%TO.C,R4*%
G36*
G01*
X53233001Y-106693011D02*
X52863001Y-106693011D01*
G75*
G02*
X52728001Y-106558011I0J135000D01*
G01*
X52728001Y-106288011D01*
G75*
G02*
X52863001Y-106153011I135000J0D01*
G01*
X53233001Y-106153011D01*
G75*
G02*
X53368001Y-106288011I0J-135000D01*
G01*
X53368001Y-106558011D01*
G75*
G02*
X53233001Y-106693011I-135000J0D01*
G01*
G37*
G36*
G01*
X53233001Y-105673011D02*
X52863001Y-105673011D01*
G75*
G02*
X52728001Y-105538011I0J135000D01*
G01*
X52728001Y-105268011D01*
G75*
G02*
X52863001Y-105133011I135000J0D01*
G01*
X53233001Y-105133011D01*
G75*
G02*
X53368001Y-105268011I0J-135000D01*
G01*
X53368001Y-105538011D01*
G75*
G02*
X53233001Y-105673011I-135000J0D01*
G01*
G37*
%TD*%
%TO.C,R5*%
G36*
G01*
X64688501Y-95185011D02*
X64688501Y-95555011D01*
G75*
G02*
X64553501Y-95690011I-135000J0D01*
G01*
X64283501Y-95690011D01*
G75*
G02*
X64148501Y-95555011I0J135000D01*
G01*
X64148501Y-95185011D01*
G75*
G02*
X64283501Y-95050011I135000J0D01*
G01*
X64553501Y-95050011D01*
G75*
G02*
X64688501Y-95185011I0J-135000D01*
G01*
G37*
G36*
G01*
X63668501Y-95185011D02*
X63668501Y-95555011D01*
G75*
G02*
X63533501Y-95690011I-135000J0D01*
G01*
X63263501Y-95690011D01*
G75*
G02*
X63128501Y-95555011I0J135000D01*
G01*
X63128501Y-95185011D01*
G75*
G02*
X63263501Y-95050011I135000J0D01*
G01*
X63533501Y-95050011D01*
G75*
G02*
X63668501Y-95185011I0J-135000D01*
G01*
G37*
%TD*%
D13*
%TO.C,U1*%
X61811001Y-102487011D03*
X61811001Y-103437011D03*
X61811001Y-104387011D03*
X64011001Y-104387011D03*
X64011001Y-102487011D03*
%TD*%
%TO.C,U2*%
X59906001Y-92636011D03*
X59906001Y-93586011D03*
X59906001Y-94536011D03*
X62106001Y-94536011D03*
X62106001Y-92636011D03*
X62106001Y-93586011D03*
%TD*%
%TO.C,U3*%
X56096001Y-92636011D03*
X56096001Y-93586011D03*
X56096001Y-94536011D03*
X58296001Y-94536011D03*
X58296001Y-92636011D03*
X58296001Y-93586011D03*
%TD*%
D14*
%TO.C,D3*%
X54570001Y-108070011D03*
X51270001Y-108070011D03*
%TD*%
%TO.C,D4*%
X66510001Y-108070011D03*
X63210001Y-108070011D03*
%TD*%
%TO.C,C1*%
G36*
G01*
X60594001Y-103785011D02*
X60594001Y-104735011D01*
G75*
G02*
X60344001Y-104985011I-250000J0D01*
G01*
X59844001Y-104985011D01*
G75*
G02*
X59594001Y-104735011I0J250000D01*
G01*
X59594001Y-103785011D01*
G75*
G02*
X59844001Y-103535011I250000J0D01*
G01*
X60344001Y-103535011D01*
G75*
G02*
X60594001Y-103785011I0J-250000D01*
G01*
G37*
G36*
G01*
X58694001Y-103785011D02*
X58694001Y-104735011D01*
G75*
G02*
X58444001Y-104985011I-250000J0D01*
G01*
X57944001Y-104985011D01*
G75*
G02*
X57694001Y-104735011I0J250000D01*
G01*
X57694001Y-103785011D01*
G75*
G02*
X57944001Y-103535011I250000J0D01*
G01*
X58444001Y-103535011D01*
G75*
G02*
X58694001Y-103785011I0J-250000D01*
G01*
G37*
%TD*%
%TO.C,C2*%
G36*
G01*
X61692001Y-97496011D02*
X61692001Y-96546011D01*
G75*
G02*
X61942001Y-96296011I250000J0D01*
G01*
X62442001Y-96296011D01*
G75*
G02*
X62692001Y-96546011I0J-250000D01*
G01*
X62692001Y-97496011D01*
G75*
G02*
X62442001Y-97746011I-250000J0D01*
G01*
X61942001Y-97746011D01*
G75*
G02*
X61692001Y-97496011I0J250000D01*
G01*
G37*
G36*
G01*
X63592001Y-97496011D02*
X63592001Y-96546011D01*
G75*
G02*
X63842001Y-96296011I250000J0D01*
G01*
X64342001Y-96296011D01*
G75*
G02*
X64592001Y-96546011I0J-250000D01*
G01*
X64592001Y-97496011D01*
G75*
G02*
X64342001Y-97746011I-250000J0D01*
G01*
X63842001Y-97746011D01*
G75*
G02*
X63592001Y-97496011I0J250000D01*
G01*
G37*
%TD*%
%TO.C,C3*%
G36*
G01*
X62823001Y-101307011D02*
X62323001Y-101307011D01*
G75*
G02*
X62098001Y-101082011I0J225000D01*
G01*
X62098001Y-100632011D01*
G75*
G02*
X62323001Y-100407011I225000J0D01*
G01*
X62823001Y-100407011D01*
G75*
G02*
X63048001Y-100632011I0J-225000D01*
G01*
X63048001Y-101082011D01*
G75*
G02*
X62823001Y-101307011I-225000J0D01*
G01*
G37*
G36*
G01*
X62823001Y-99757011D02*
X62323001Y-99757011D01*
G75*
G02*
X62098001Y-99532011I0J225000D01*
G01*
X62098001Y-99082011D01*
G75*
G02*
X62323001Y-98857011I225000J0D01*
G01*
X62823001Y-98857011D01*
G75*
G02*
X63048001Y-99082011I0J-225000D01*
G01*
X63048001Y-99532011D01*
G75*
G02*
X62823001Y-99757011I-225000J0D01*
G01*
G37*
%TD*%
%TO.C,C4*%
G36*
G01*
X64347001Y-101307011D02*
X63847001Y-101307011D01*
G75*
G02*
X63622001Y-101082011I0J225000D01*
G01*
X63622001Y-100632011D01*
G75*
G02*
X63847001Y-100407011I225000J0D01*
G01*
X64347001Y-100407011D01*
G75*
G02*
X64572001Y-100632011I0J-225000D01*
G01*
X64572001Y-101082011D01*
G75*
G02*
X64347001Y-101307011I-225000J0D01*
G01*
G37*
G36*
G01*
X64347001Y-99757011D02*
X63847001Y-99757011D01*
G75*
G02*
X63622001Y-99532011I0J225000D01*
G01*
X63622001Y-99082011D01*
G75*
G02*
X63847001Y-98857011I225000J0D01*
G01*
X64347001Y-98857011D01*
G75*
G02*
X64572001Y-99082011I0J-225000D01*
G01*
X64572001Y-99532011D01*
G75*
G02*
X64347001Y-99757011I-225000J0D01*
G01*
G37*
%TD*%
%TO.C,C5*%
G36*
G01*
X63966001Y-94512511D02*
X63466001Y-94512511D01*
G75*
G02*
X63241001Y-94287511I0J225000D01*
G01*
X63241001Y-93837511D01*
G75*
G02*
X63466001Y-93612511I225000J0D01*
G01*
X63966001Y-93612511D01*
G75*
G02*
X64191001Y-93837511I0J-225000D01*
G01*
X64191001Y-94287511D01*
G75*
G02*
X63966001Y-94512511I-225000J0D01*
G01*
G37*
G36*
G01*
X63966001Y-92962511D02*
X63466001Y-92962511D01*
G75*
G02*
X63241001Y-92737511I0J225000D01*
G01*
X63241001Y-92287511D01*
G75*
G02*
X63466001Y-92062511I225000J0D01*
G01*
X63966001Y-92062511D01*
G75*
G02*
X64191001Y-92287511I0J-225000D01*
G01*
X64191001Y-92737511D01*
G75*
G02*
X63966001Y-92962511I-225000J0D01*
G01*
G37*
%TD*%
%TO.C,R6*%
G36*
G01*
X64840001Y-92851011D02*
X64840001Y-92301011D01*
G75*
G02*
X65040001Y-92101011I200000J0D01*
G01*
X65440001Y-92101011D01*
G75*
G02*
X65640001Y-92301011I0J-200000D01*
G01*
X65640001Y-92851011D01*
G75*
G02*
X65440001Y-93051011I-200000J0D01*
G01*
X65040001Y-93051011D01*
G75*
G02*
X64840001Y-92851011I0J200000D01*
G01*
G37*
G36*
G01*
X66490001Y-92851011D02*
X66490001Y-92301011D01*
G75*
G02*
X66690001Y-92101011I200000J0D01*
G01*
X67090001Y-92101011D01*
G75*
G02*
X67290001Y-92301011I0J-200000D01*
G01*
X67290001Y-92851011D01*
G75*
G02*
X67090001Y-93051011I-200000J0D01*
G01*
X66690001Y-93051011D01*
G75*
G02*
X66490001Y-92851011I0J200000D01*
G01*
G37*
%TD*%
%TO.C,D1*%
G36*
G01*
X118438266Y-85873506D02*
X117925766Y-85873506D01*
G75*
G02*
X117707016Y-85654756I0J218750D01*
G01*
X117707016Y-85217256D01*
G75*
G02*
X117925766Y-84998506I218750J0D01*
G01*
X118438266Y-84998506D01*
G75*
G02*
X118657016Y-85217256I0J-218750D01*
G01*
X118657016Y-85654756D01*
G75*
G02*
X118438266Y-85873506I-218750J0D01*
G01*
G37*
G36*
G01*
X118438266Y-84298506D02*
X117925766Y-84298506D01*
G75*
G02*
X117707016Y-84079756I0J218750D01*
G01*
X117707016Y-83642256D01*
G75*
G02*
X117925766Y-83423506I218750J0D01*
G01*
X118438266Y-83423506D01*
G75*
G02*
X118657016Y-83642256I0J-218750D01*
G01*
X118657016Y-84079756D01*
G75*
G02*
X118438266Y-84298506I-218750J0D01*
G01*
G37*
%TD*%
%TO.C,D2*%
G36*
G01*
X116914266Y-85873506D02*
X116401766Y-85873506D01*
G75*
G02*
X116183016Y-85654756I0J218750D01*
G01*
X116183016Y-85217256D01*
G75*
G02*
X116401766Y-84998506I218750J0D01*
G01*
X116914266Y-84998506D01*
G75*
G02*
X117133016Y-85217256I0J-218750D01*
G01*
X117133016Y-85654756D01*
G75*
G02*
X116914266Y-85873506I-218750J0D01*
G01*
G37*
G36*
G01*
X116914266Y-84298506D02*
X116401766Y-84298506D01*
G75*
G02*
X116183016Y-84079756I0J218750D01*
G01*
X116183016Y-83642256D01*
G75*
G02*
X116401766Y-83423506I218750J0D01*
G01*
X116914266Y-83423506D01*
G75*
G02*
X117133016Y-83642256I0J-218750D01*
G01*
X117133016Y-84079756D01*
G75*
G02*
X116914266Y-84298506I-218750J0D01*
G01*
G37*
%TD*%
%TO.C,F1*%
G36*
G01*
X117204016Y-71475006D02*
X117204016Y-72625006D01*
G75*
G02*
X116954016Y-72875006I-250000J0D01*
G01*
X115854016Y-72875006D01*
G75*
G02*
X115604016Y-72625006I0J250000D01*
G01*
X115604016Y-71475006D01*
G75*
G02*
X115854016Y-71225006I250000J0D01*
G01*
X116954016Y-71225006D01*
G75*
G02*
X117204016Y-71475006I0J-250000D01*
G01*
G37*
G36*
G01*
X114354016Y-71475006D02*
X114354016Y-72625006D01*
G75*
G02*
X114104016Y-72875006I-250000J0D01*
G01*
X113004016Y-72875006D01*
G75*
G02*
X112754016Y-72625006I0J250000D01*
G01*
X112754016Y-71475006D01*
G75*
G02*
X113004016Y-71225006I250000J0D01*
G01*
X114104016Y-71225006D01*
G75*
G02*
X114354016Y-71475006I0J-250000D01*
G01*
G37*
%TD*%
D10*
%TO.C,IC1*%
X121484016Y-81277006D03*
X120214016Y-81277006D03*
X117674016Y-81277006D03*
X118944016Y-81277006D03*
X121484016Y-75777006D03*
X120214016Y-75777006D03*
X117674016Y-75777006D03*
X118944016Y-75777006D03*
D11*
X119579016Y-78527006D03*
%TD*%
D12*
%TO.C,Q1*%
X121870016Y-87290006D03*
X123770016Y-87290006D03*
X122820016Y-85290006D03*
%TD*%
%TO.C,R1*%
G36*
G01*
X119214016Y-82406006D02*
X119214016Y-82776006D01*
G75*
G02*
X119079016Y-82911006I-135000J0D01*
G01*
X118809016Y-82911006D01*
G75*
G02*
X118674016Y-82776006I0J135000D01*
G01*
X118674016Y-82406006D01*
G75*
G02*
X118809016Y-82271006I135000J0D01*
G01*
X119079016Y-82271006D01*
G75*
G02*
X119214016Y-82406006I0J-135000D01*
G01*
G37*
G36*
G01*
X118194016Y-82406006D02*
X118194016Y-82776006D01*
G75*
G02*
X118059016Y-82911006I-135000J0D01*
G01*
X117789016Y-82911006D01*
G75*
G02*
X117654016Y-82776006I0J135000D01*
G01*
X117654016Y-82406006D01*
G75*
G02*
X117789016Y-82271006I135000J0D01*
G01*
X118059016Y-82271006D01*
G75*
G02*
X118194016Y-82406006I0J-135000D01*
G01*
G37*
%TD*%
%TO.C,R2*%
G36*
G01*
X123193016Y-77023006D02*
X122823016Y-77023006D01*
G75*
G02*
X122688016Y-76888006I0J135000D01*
G01*
X122688016Y-76618006D01*
G75*
G02*
X122823016Y-76483006I135000J0D01*
G01*
X123193016Y-76483006D01*
G75*
G02*
X123328016Y-76618006I0J-135000D01*
G01*
X123328016Y-76888006D01*
G75*
G02*
X123193016Y-77023006I-135000J0D01*
G01*
G37*
G36*
G01*
X123193016Y-76003006D02*
X122823016Y-76003006D01*
G75*
G02*
X122688016Y-75868006I0J135000D01*
G01*
X122688016Y-75598006D01*
G75*
G02*
X122823016Y-75463006I135000J0D01*
G01*
X123193016Y-75463006D01*
G75*
G02*
X123328016Y-75598006I0J-135000D01*
G01*
X123328016Y-75868006D01*
G75*
G02*
X123193016Y-76003006I-135000J0D01*
G01*
G37*
%TD*%
%TO.C,R3*%
G36*
G01*
X115372016Y-76680006D02*
X115372016Y-76310006D01*
G75*
G02*
X115507016Y-76175006I135000J0D01*
G01*
X115777016Y-76175006D01*
G75*
G02*
X115912016Y-76310006I0J-135000D01*
G01*
X115912016Y-76680006D01*
G75*
G02*
X115777016Y-76815006I-135000J0D01*
G01*
X115507016Y-76815006D01*
G75*
G02*
X115372016Y-76680006I0J135000D01*
G01*
G37*
G36*
G01*
X116392016Y-76680006D02*
X116392016Y-76310006D01*
G75*
G02*
X116527016Y-76175006I135000J0D01*
G01*
X116797016Y-76175006D01*
G75*
G02*
X116932016Y-76310006I0J-135000D01*
G01*
X116932016Y-76680006D01*
G75*
G02*
X116797016Y-76815006I-135000J0D01*
G01*
X116527016Y-76815006D01*
G75*
G02*
X116392016Y-76680006I0J135000D01*
G01*
G37*
%TD*%
%TO.C,R4*%
G36*
G01*
X115573016Y-85913006D02*
X115203016Y-85913006D01*
G75*
G02*
X115068016Y-85778006I0J135000D01*
G01*
X115068016Y-85508006D01*
G75*
G02*
X115203016Y-85373006I135000J0D01*
G01*
X115573016Y-85373006D01*
G75*
G02*
X115708016Y-85508006I0J-135000D01*
G01*
X115708016Y-85778006D01*
G75*
G02*
X115573016Y-85913006I-135000J0D01*
G01*
G37*
G36*
G01*
X115573016Y-84893006D02*
X115203016Y-84893006D01*
G75*
G02*
X115068016Y-84758006I0J135000D01*
G01*
X115068016Y-84488006D01*
G75*
G02*
X115203016Y-84353006I135000J0D01*
G01*
X115573016Y-84353006D01*
G75*
G02*
X115708016Y-84488006I0J-135000D01*
G01*
X115708016Y-84758006D01*
G75*
G02*
X115573016Y-84893006I-135000J0D01*
G01*
G37*
%TD*%
%TO.C,R5*%
G36*
G01*
X127028516Y-74405006D02*
X127028516Y-74775006D01*
G75*
G02*
X126893516Y-74910006I-135000J0D01*
G01*
X126623516Y-74910006D01*
G75*
G02*
X126488516Y-74775006I0J135000D01*
G01*
X126488516Y-74405006D01*
G75*
G02*
X126623516Y-74270006I135000J0D01*
G01*
X126893516Y-74270006D01*
G75*
G02*
X127028516Y-74405006I0J-135000D01*
G01*
G37*
G36*
G01*
X126008516Y-74405006D02*
X126008516Y-74775006D01*
G75*
G02*
X125873516Y-74910006I-135000J0D01*
G01*
X125603516Y-74910006D01*
G75*
G02*
X125468516Y-74775006I0J135000D01*
G01*
X125468516Y-74405006D01*
G75*
G02*
X125603516Y-74270006I135000J0D01*
G01*
X125873516Y-74270006D01*
G75*
G02*
X126008516Y-74405006I0J-135000D01*
G01*
G37*
%TD*%
D13*
%TO.C,U1*%
X124151016Y-81707006D03*
X124151016Y-82657006D03*
X124151016Y-83607006D03*
X126351016Y-83607006D03*
X126351016Y-81707006D03*
%TD*%
%TO.C,U2*%
X122246016Y-71856006D03*
X122246016Y-72806006D03*
X122246016Y-73756006D03*
X124446016Y-73756006D03*
X124446016Y-71856006D03*
X124446016Y-72806006D03*
%TD*%
%TO.C,U3*%
X118436016Y-71856006D03*
X118436016Y-72806006D03*
X118436016Y-73756006D03*
X120636016Y-73756006D03*
X120636016Y-71856006D03*
X120636016Y-72806006D03*
%TD*%
D14*
%TO.C,D3*%
X116910016Y-87290006D03*
X113610016Y-87290006D03*
%TD*%
%TO.C,D4*%
X128850016Y-87290006D03*
X125550016Y-87290006D03*
%TD*%
%TO.C,C1*%
G36*
G01*
X122934016Y-83005006D02*
X122934016Y-83955006D01*
G75*
G02*
X122684016Y-84205006I-250000J0D01*
G01*
X122184016Y-84205006D01*
G75*
G02*
X121934016Y-83955006I0J250000D01*
G01*
X121934016Y-83005006D01*
G75*
G02*
X122184016Y-82755006I250000J0D01*
G01*
X122684016Y-82755006D01*
G75*
G02*
X122934016Y-83005006I0J-250000D01*
G01*
G37*
G36*
G01*
X121034016Y-83005006D02*
X121034016Y-83955006D01*
G75*
G02*
X120784016Y-84205006I-250000J0D01*
G01*
X120284016Y-84205006D01*
G75*
G02*
X120034016Y-83955006I0J250000D01*
G01*
X120034016Y-83005006D01*
G75*
G02*
X120284016Y-82755006I250000J0D01*
G01*
X120784016Y-82755006D01*
G75*
G02*
X121034016Y-83005006I0J-250000D01*
G01*
G37*
%TD*%
%TO.C,C2*%
G36*
G01*
X124032016Y-76716006D02*
X124032016Y-75766006D01*
G75*
G02*
X124282016Y-75516006I250000J0D01*
G01*
X124782016Y-75516006D01*
G75*
G02*
X125032016Y-75766006I0J-250000D01*
G01*
X125032016Y-76716006D01*
G75*
G02*
X124782016Y-76966006I-250000J0D01*
G01*
X124282016Y-76966006D01*
G75*
G02*
X124032016Y-76716006I0J250000D01*
G01*
G37*
G36*
G01*
X125932016Y-76716006D02*
X125932016Y-75766006D01*
G75*
G02*
X126182016Y-75516006I250000J0D01*
G01*
X126682016Y-75516006D01*
G75*
G02*
X126932016Y-75766006I0J-250000D01*
G01*
X126932016Y-76716006D01*
G75*
G02*
X126682016Y-76966006I-250000J0D01*
G01*
X126182016Y-76966006D01*
G75*
G02*
X125932016Y-76716006I0J250000D01*
G01*
G37*
%TD*%
%TO.C,C3*%
G36*
G01*
X125163016Y-80527006D02*
X124663016Y-80527006D01*
G75*
G02*
X124438016Y-80302006I0J225000D01*
G01*
X124438016Y-79852006D01*
G75*
G02*
X124663016Y-79627006I225000J0D01*
G01*
X125163016Y-79627006D01*
G75*
G02*
X125388016Y-79852006I0J-225000D01*
G01*
X125388016Y-80302006D01*
G75*
G02*
X125163016Y-80527006I-225000J0D01*
G01*
G37*
G36*
G01*
X125163016Y-78977006D02*
X124663016Y-78977006D01*
G75*
G02*
X124438016Y-78752006I0J225000D01*
G01*
X124438016Y-78302006D01*
G75*
G02*
X124663016Y-78077006I225000J0D01*
G01*
X125163016Y-78077006D01*
G75*
G02*
X125388016Y-78302006I0J-225000D01*
G01*
X125388016Y-78752006D01*
G75*
G02*
X125163016Y-78977006I-225000J0D01*
G01*
G37*
%TD*%
%TO.C,C4*%
G36*
G01*
X126687016Y-80527006D02*
X126187016Y-80527006D01*
G75*
G02*
X125962016Y-80302006I0J225000D01*
G01*
X125962016Y-79852006D01*
G75*
G02*
X126187016Y-79627006I225000J0D01*
G01*
X126687016Y-79627006D01*
G75*
G02*
X126912016Y-79852006I0J-225000D01*
G01*
X126912016Y-80302006D01*
G75*
G02*
X126687016Y-80527006I-225000J0D01*
G01*
G37*
G36*
G01*
X126687016Y-78977006D02*
X126187016Y-78977006D01*
G75*
G02*
X125962016Y-78752006I0J225000D01*
G01*
X125962016Y-78302006D01*
G75*
G02*
X126187016Y-78077006I225000J0D01*
G01*
X126687016Y-78077006D01*
G75*
G02*
X126912016Y-78302006I0J-225000D01*
G01*
X126912016Y-78752006D01*
G75*
G02*
X126687016Y-78977006I-225000J0D01*
G01*
G37*
%TD*%
%TO.C,C5*%
G36*
G01*
X126306016Y-73732506D02*
X125806016Y-73732506D01*
G75*
G02*
X125581016Y-73507506I0J225000D01*
G01*
X125581016Y-73057506D01*
G75*
G02*
X125806016Y-72832506I225000J0D01*
G01*
X126306016Y-72832506D01*
G75*
G02*
X126531016Y-73057506I0J-225000D01*
G01*
X126531016Y-73507506D01*
G75*
G02*
X126306016Y-73732506I-225000J0D01*
G01*
G37*
G36*
G01*
X126306016Y-72182506D02*
X125806016Y-72182506D01*
G75*
G02*
X125581016Y-71957506I0J225000D01*
G01*
X125581016Y-71507506D01*
G75*
G02*
X125806016Y-71282506I225000J0D01*
G01*
X126306016Y-71282506D01*
G75*
G02*
X126531016Y-71507506I0J-225000D01*
G01*
X126531016Y-71957506D01*
G75*
G02*
X126306016Y-72182506I-225000J0D01*
G01*
G37*
%TD*%
%TO.C,R6*%
G36*
G01*
X127180016Y-72071006D02*
X127180016Y-71521006D01*
G75*
G02*
X127380016Y-71321006I200000J0D01*
G01*
X127780016Y-71321006D01*
G75*
G02*
X127980016Y-71521006I0J-200000D01*
G01*
X127980016Y-72071006D01*
G75*
G02*
X127780016Y-72271006I-200000J0D01*
G01*
X127380016Y-72271006D01*
G75*
G02*
X127180016Y-72071006I0J200000D01*
G01*
G37*
G36*
G01*
X128830016Y-72071006D02*
X128830016Y-71521006D01*
G75*
G02*
X129030016Y-71321006I200000J0D01*
G01*
X129430016Y-71321006D01*
G75*
G02*
X129630016Y-71521006I0J-200000D01*
G01*
X129630016Y-72071006D01*
G75*
G02*
X129430016Y-72271006I-200000J0D01*
G01*
X129030016Y-72271006D01*
G75*
G02*
X128830016Y-72071006I0J200000D01*
G01*
G37*
%TD*%
%TO.C,D1*%
G36*
G01*
X97658261Y-85873506D02*
X97145761Y-85873506D01*
G75*
G02*
X96927011Y-85654756I0J218750D01*
G01*
X96927011Y-85217256D01*
G75*
G02*
X97145761Y-84998506I218750J0D01*
G01*
X97658261Y-84998506D01*
G75*
G02*
X97877011Y-85217256I0J-218750D01*
G01*
X97877011Y-85654756D01*
G75*
G02*
X97658261Y-85873506I-218750J0D01*
G01*
G37*
G36*
G01*
X97658261Y-84298506D02*
X97145761Y-84298506D01*
G75*
G02*
X96927011Y-84079756I0J218750D01*
G01*
X96927011Y-83642256D01*
G75*
G02*
X97145761Y-83423506I218750J0D01*
G01*
X97658261Y-83423506D01*
G75*
G02*
X97877011Y-83642256I0J-218750D01*
G01*
X97877011Y-84079756D01*
G75*
G02*
X97658261Y-84298506I-218750J0D01*
G01*
G37*
%TD*%
%TO.C,D2*%
G36*
G01*
X96134261Y-85873506D02*
X95621761Y-85873506D01*
G75*
G02*
X95403011Y-85654756I0J218750D01*
G01*
X95403011Y-85217256D01*
G75*
G02*
X95621761Y-84998506I218750J0D01*
G01*
X96134261Y-84998506D01*
G75*
G02*
X96353011Y-85217256I0J-218750D01*
G01*
X96353011Y-85654756D01*
G75*
G02*
X96134261Y-85873506I-218750J0D01*
G01*
G37*
G36*
G01*
X96134261Y-84298506D02*
X95621761Y-84298506D01*
G75*
G02*
X95403011Y-84079756I0J218750D01*
G01*
X95403011Y-83642256D01*
G75*
G02*
X95621761Y-83423506I218750J0D01*
G01*
X96134261Y-83423506D01*
G75*
G02*
X96353011Y-83642256I0J-218750D01*
G01*
X96353011Y-84079756D01*
G75*
G02*
X96134261Y-84298506I-218750J0D01*
G01*
G37*
%TD*%
%TO.C,F1*%
G36*
G01*
X96424011Y-71475006D02*
X96424011Y-72625006D01*
G75*
G02*
X96174011Y-72875006I-250000J0D01*
G01*
X95074011Y-72875006D01*
G75*
G02*
X94824011Y-72625006I0J250000D01*
G01*
X94824011Y-71475006D01*
G75*
G02*
X95074011Y-71225006I250000J0D01*
G01*
X96174011Y-71225006D01*
G75*
G02*
X96424011Y-71475006I0J-250000D01*
G01*
G37*
G36*
G01*
X93574011Y-71475006D02*
X93574011Y-72625006D01*
G75*
G02*
X93324011Y-72875006I-250000J0D01*
G01*
X92224011Y-72875006D01*
G75*
G02*
X91974011Y-72625006I0J250000D01*
G01*
X91974011Y-71475006D01*
G75*
G02*
X92224011Y-71225006I250000J0D01*
G01*
X93324011Y-71225006D01*
G75*
G02*
X93574011Y-71475006I0J-250000D01*
G01*
G37*
%TD*%
D10*
%TO.C,IC1*%
X100704011Y-81277006D03*
X99434011Y-81277006D03*
X96894011Y-81277006D03*
X98164011Y-81277006D03*
X100704011Y-75777006D03*
X99434011Y-75777006D03*
X96894011Y-75777006D03*
X98164011Y-75777006D03*
D11*
X98799011Y-78527006D03*
%TD*%
D12*
%TO.C,Q1*%
X101090011Y-87290006D03*
X102990011Y-87290006D03*
X102040011Y-85290006D03*
%TD*%
%TO.C,R1*%
G36*
G01*
X98434011Y-82406006D02*
X98434011Y-82776006D01*
G75*
G02*
X98299011Y-82911006I-135000J0D01*
G01*
X98029011Y-82911006D01*
G75*
G02*
X97894011Y-82776006I0J135000D01*
G01*
X97894011Y-82406006D01*
G75*
G02*
X98029011Y-82271006I135000J0D01*
G01*
X98299011Y-82271006D01*
G75*
G02*
X98434011Y-82406006I0J-135000D01*
G01*
G37*
G36*
G01*
X97414011Y-82406006D02*
X97414011Y-82776006D01*
G75*
G02*
X97279011Y-82911006I-135000J0D01*
G01*
X97009011Y-82911006D01*
G75*
G02*
X96874011Y-82776006I0J135000D01*
G01*
X96874011Y-82406006D01*
G75*
G02*
X97009011Y-82271006I135000J0D01*
G01*
X97279011Y-82271006D01*
G75*
G02*
X97414011Y-82406006I0J-135000D01*
G01*
G37*
%TD*%
%TO.C,R2*%
G36*
G01*
X102413011Y-77023006D02*
X102043011Y-77023006D01*
G75*
G02*
X101908011Y-76888006I0J135000D01*
G01*
X101908011Y-76618006D01*
G75*
G02*
X102043011Y-76483006I135000J0D01*
G01*
X102413011Y-76483006D01*
G75*
G02*
X102548011Y-76618006I0J-135000D01*
G01*
X102548011Y-76888006D01*
G75*
G02*
X102413011Y-77023006I-135000J0D01*
G01*
G37*
G36*
G01*
X102413011Y-76003006D02*
X102043011Y-76003006D01*
G75*
G02*
X101908011Y-75868006I0J135000D01*
G01*
X101908011Y-75598006D01*
G75*
G02*
X102043011Y-75463006I135000J0D01*
G01*
X102413011Y-75463006D01*
G75*
G02*
X102548011Y-75598006I0J-135000D01*
G01*
X102548011Y-75868006D01*
G75*
G02*
X102413011Y-76003006I-135000J0D01*
G01*
G37*
%TD*%
%TO.C,R3*%
G36*
G01*
X94592011Y-76680006D02*
X94592011Y-76310006D01*
G75*
G02*
X94727011Y-76175006I135000J0D01*
G01*
X94997011Y-76175006D01*
G75*
G02*
X95132011Y-76310006I0J-135000D01*
G01*
X95132011Y-76680006D01*
G75*
G02*
X94997011Y-76815006I-135000J0D01*
G01*
X94727011Y-76815006D01*
G75*
G02*
X94592011Y-76680006I0J135000D01*
G01*
G37*
G36*
G01*
X95612011Y-76680006D02*
X95612011Y-76310006D01*
G75*
G02*
X95747011Y-76175006I135000J0D01*
G01*
X96017011Y-76175006D01*
G75*
G02*
X96152011Y-76310006I0J-135000D01*
G01*
X96152011Y-76680006D01*
G75*
G02*
X96017011Y-76815006I-135000J0D01*
G01*
X95747011Y-76815006D01*
G75*
G02*
X95612011Y-76680006I0J135000D01*
G01*
G37*
%TD*%
%TO.C,R4*%
G36*
G01*
X94793011Y-85913006D02*
X94423011Y-85913006D01*
G75*
G02*
X94288011Y-85778006I0J135000D01*
G01*
X94288011Y-85508006D01*
G75*
G02*
X94423011Y-85373006I135000J0D01*
G01*
X94793011Y-85373006D01*
G75*
G02*
X94928011Y-85508006I0J-135000D01*
G01*
X94928011Y-85778006D01*
G75*
G02*
X94793011Y-85913006I-135000J0D01*
G01*
G37*
G36*
G01*
X94793011Y-84893006D02*
X94423011Y-84893006D01*
G75*
G02*
X94288011Y-84758006I0J135000D01*
G01*
X94288011Y-84488006D01*
G75*
G02*
X94423011Y-84353006I135000J0D01*
G01*
X94793011Y-84353006D01*
G75*
G02*
X94928011Y-84488006I0J-135000D01*
G01*
X94928011Y-84758006D01*
G75*
G02*
X94793011Y-84893006I-135000J0D01*
G01*
G37*
%TD*%
%TO.C,R5*%
G36*
G01*
X106248511Y-74405006D02*
X106248511Y-74775006D01*
G75*
G02*
X106113511Y-74910006I-135000J0D01*
G01*
X105843511Y-74910006D01*
G75*
G02*
X105708511Y-74775006I0J135000D01*
G01*
X105708511Y-74405006D01*
G75*
G02*
X105843511Y-74270006I135000J0D01*
G01*
X106113511Y-74270006D01*
G75*
G02*
X106248511Y-74405006I0J-135000D01*
G01*
G37*
G36*
G01*
X105228511Y-74405006D02*
X105228511Y-74775006D01*
G75*
G02*
X105093511Y-74910006I-135000J0D01*
G01*
X104823511Y-74910006D01*
G75*
G02*
X104688511Y-74775006I0J135000D01*
G01*
X104688511Y-74405006D01*
G75*
G02*
X104823511Y-74270006I135000J0D01*
G01*
X105093511Y-74270006D01*
G75*
G02*
X105228511Y-74405006I0J-135000D01*
G01*
G37*
%TD*%
D13*
%TO.C,U1*%
X103371011Y-81707006D03*
X103371011Y-82657006D03*
X103371011Y-83607006D03*
X105571011Y-83607006D03*
X105571011Y-81707006D03*
%TD*%
%TO.C,U2*%
X101466011Y-71856006D03*
X101466011Y-72806006D03*
X101466011Y-73756006D03*
X103666011Y-73756006D03*
X103666011Y-71856006D03*
X103666011Y-72806006D03*
%TD*%
%TO.C,U3*%
X97656011Y-71856006D03*
X97656011Y-72806006D03*
X97656011Y-73756006D03*
X99856011Y-73756006D03*
X99856011Y-71856006D03*
X99856011Y-72806006D03*
%TD*%
D14*
%TO.C,D3*%
X96130011Y-87290006D03*
X92830011Y-87290006D03*
%TD*%
%TO.C,D4*%
X108070011Y-87290006D03*
X104770011Y-87290006D03*
%TD*%
%TO.C,C1*%
G36*
G01*
X102154011Y-83005006D02*
X102154011Y-83955006D01*
G75*
G02*
X101904011Y-84205006I-250000J0D01*
G01*
X101404011Y-84205006D01*
G75*
G02*
X101154011Y-83955006I0J250000D01*
G01*
X101154011Y-83005006D01*
G75*
G02*
X101404011Y-82755006I250000J0D01*
G01*
X101904011Y-82755006D01*
G75*
G02*
X102154011Y-83005006I0J-250000D01*
G01*
G37*
G36*
G01*
X100254011Y-83005006D02*
X100254011Y-83955006D01*
G75*
G02*
X100004011Y-84205006I-250000J0D01*
G01*
X99504011Y-84205006D01*
G75*
G02*
X99254011Y-83955006I0J250000D01*
G01*
X99254011Y-83005006D01*
G75*
G02*
X99504011Y-82755006I250000J0D01*
G01*
X100004011Y-82755006D01*
G75*
G02*
X100254011Y-83005006I0J-250000D01*
G01*
G37*
%TD*%
%TO.C,C2*%
G36*
G01*
X103252011Y-76716006D02*
X103252011Y-75766006D01*
G75*
G02*
X103502011Y-75516006I250000J0D01*
G01*
X104002011Y-75516006D01*
G75*
G02*
X104252011Y-75766006I0J-250000D01*
G01*
X104252011Y-76716006D01*
G75*
G02*
X104002011Y-76966006I-250000J0D01*
G01*
X103502011Y-76966006D01*
G75*
G02*
X103252011Y-76716006I0J250000D01*
G01*
G37*
G36*
G01*
X105152011Y-76716006D02*
X105152011Y-75766006D01*
G75*
G02*
X105402011Y-75516006I250000J0D01*
G01*
X105902011Y-75516006D01*
G75*
G02*
X106152011Y-75766006I0J-250000D01*
G01*
X106152011Y-76716006D01*
G75*
G02*
X105902011Y-76966006I-250000J0D01*
G01*
X105402011Y-76966006D01*
G75*
G02*
X105152011Y-76716006I0J250000D01*
G01*
G37*
%TD*%
%TO.C,C3*%
G36*
G01*
X104383011Y-80527006D02*
X103883011Y-80527006D01*
G75*
G02*
X103658011Y-80302006I0J225000D01*
G01*
X103658011Y-79852006D01*
G75*
G02*
X103883011Y-79627006I225000J0D01*
G01*
X104383011Y-79627006D01*
G75*
G02*
X104608011Y-79852006I0J-225000D01*
G01*
X104608011Y-80302006D01*
G75*
G02*
X104383011Y-80527006I-225000J0D01*
G01*
G37*
G36*
G01*
X104383011Y-78977006D02*
X103883011Y-78977006D01*
G75*
G02*
X103658011Y-78752006I0J225000D01*
G01*
X103658011Y-78302006D01*
G75*
G02*
X103883011Y-78077006I225000J0D01*
G01*
X104383011Y-78077006D01*
G75*
G02*
X104608011Y-78302006I0J-225000D01*
G01*
X104608011Y-78752006D01*
G75*
G02*
X104383011Y-78977006I-225000J0D01*
G01*
G37*
%TD*%
%TO.C,C4*%
G36*
G01*
X105907011Y-80527006D02*
X105407011Y-80527006D01*
G75*
G02*
X105182011Y-80302006I0J225000D01*
G01*
X105182011Y-79852006D01*
G75*
G02*
X105407011Y-79627006I225000J0D01*
G01*
X105907011Y-79627006D01*
G75*
G02*
X106132011Y-79852006I0J-225000D01*
G01*
X106132011Y-80302006D01*
G75*
G02*
X105907011Y-80527006I-225000J0D01*
G01*
G37*
G36*
G01*
X105907011Y-78977006D02*
X105407011Y-78977006D01*
G75*
G02*
X105182011Y-78752006I0J225000D01*
G01*
X105182011Y-78302006D01*
G75*
G02*
X105407011Y-78077006I225000J0D01*
G01*
X105907011Y-78077006D01*
G75*
G02*
X106132011Y-78302006I0J-225000D01*
G01*
X106132011Y-78752006D01*
G75*
G02*
X105907011Y-78977006I-225000J0D01*
G01*
G37*
%TD*%
%TO.C,C5*%
G36*
G01*
X105526011Y-73732506D02*
X105026011Y-73732506D01*
G75*
G02*
X104801011Y-73507506I0J225000D01*
G01*
X104801011Y-73057506D01*
G75*
G02*
X105026011Y-72832506I225000J0D01*
G01*
X105526011Y-72832506D01*
G75*
G02*
X105751011Y-73057506I0J-225000D01*
G01*
X105751011Y-73507506D01*
G75*
G02*
X105526011Y-73732506I-225000J0D01*
G01*
G37*
G36*
G01*
X105526011Y-72182506D02*
X105026011Y-72182506D01*
G75*
G02*
X104801011Y-71957506I0J225000D01*
G01*
X104801011Y-71507506D01*
G75*
G02*
X105026011Y-71282506I225000J0D01*
G01*
X105526011Y-71282506D01*
G75*
G02*
X105751011Y-71507506I0J-225000D01*
G01*
X105751011Y-71957506D01*
G75*
G02*
X105526011Y-72182506I-225000J0D01*
G01*
G37*
%TD*%
%TO.C,R6*%
G36*
G01*
X106400011Y-72071006D02*
X106400011Y-71521006D01*
G75*
G02*
X106600011Y-71321006I200000J0D01*
G01*
X107000011Y-71321006D01*
G75*
G02*
X107200011Y-71521006I0J-200000D01*
G01*
X107200011Y-72071006D01*
G75*
G02*
X107000011Y-72271006I-200000J0D01*
G01*
X106600011Y-72271006D01*
G75*
G02*
X106400011Y-72071006I0J200000D01*
G01*
G37*
G36*
G01*
X108050011Y-72071006D02*
X108050011Y-71521006D01*
G75*
G02*
X108250011Y-71321006I200000J0D01*
G01*
X108650011Y-71321006D01*
G75*
G02*
X108850011Y-71521006I0J-200000D01*
G01*
X108850011Y-72071006D01*
G75*
G02*
X108650011Y-72271006I-200000J0D01*
G01*
X108250011Y-72271006D01*
G75*
G02*
X108050011Y-72071006I0J200000D01*
G01*
G37*
%TD*%
%TO.C,D1*%
G36*
G01*
X76878256Y-85873506D02*
X76365756Y-85873506D01*
G75*
G02*
X76147006Y-85654756I0J218750D01*
G01*
X76147006Y-85217256D01*
G75*
G02*
X76365756Y-84998506I218750J0D01*
G01*
X76878256Y-84998506D01*
G75*
G02*
X77097006Y-85217256I0J-218750D01*
G01*
X77097006Y-85654756D01*
G75*
G02*
X76878256Y-85873506I-218750J0D01*
G01*
G37*
G36*
G01*
X76878256Y-84298506D02*
X76365756Y-84298506D01*
G75*
G02*
X76147006Y-84079756I0J218750D01*
G01*
X76147006Y-83642256D01*
G75*
G02*
X76365756Y-83423506I218750J0D01*
G01*
X76878256Y-83423506D01*
G75*
G02*
X77097006Y-83642256I0J-218750D01*
G01*
X77097006Y-84079756D01*
G75*
G02*
X76878256Y-84298506I-218750J0D01*
G01*
G37*
%TD*%
%TO.C,D2*%
G36*
G01*
X75354256Y-85873506D02*
X74841756Y-85873506D01*
G75*
G02*
X74623006Y-85654756I0J218750D01*
G01*
X74623006Y-85217256D01*
G75*
G02*
X74841756Y-84998506I218750J0D01*
G01*
X75354256Y-84998506D01*
G75*
G02*
X75573006Y-85217256I0J-218750D01*
G01*
X75573006Y-85654756D01*
G75*
G02*
X75354256Y-85873506I-218750J0D01*
G01*
G37*
G36*
G01*
X75354256Y-84298506D02*
X74841756Y-84298506D01*
G75*
G02*
X74623006Y-84079756I0J218750D01*
G01*
X74623006Y-83642256D01*
G75*
G02*
X74841756Y-83423506I218750J0D01*
G01*
X75354256Y-83423506D01*
G75*
G02*
X75573006Y-83642256I0J-218750D01*
G01*
X75573006Y-84079756D01*
G75*
G02*
X75354256Y-84298506I-218750J0D01*
G01*
G37*
%TD*%
%TO.C,F1*%
G36*
G01*
X75644006Y-71475006D02*
X75644006Y-72625006D01*
G75*
G02*
X75394006Y-72875006I-250000J0D01*
G01*
X74294006Y-72875006D01*
G75*
G02*
X74044006Y-72625006I0J250000D01*
G01*
X74044006Y-71475006D01*
G75*
G02*
X74294006Y-71225006I250000J0D01*
G01*
X75394006Y-71225006D01*
G75*
G02*
X75644006Y-71475006I0J-250000D01*
G01*
G37*
G36*
G01*
X72794006Y-71475006D02*
X72794006Y-72625006D01*
G75*
G02*
X72544006Y-72875006I-250000J0D01*
G01*
X71444006Y-72875006D01*
G75*
G02*
X71194006Y-72625006I0J250000D01*
G01*
X71194006Y-71475006D01*
G75*
G02*
X71444006Y-71225006I250000J0D01*
G01*
X72544006Y-71225006D01*
G75*
G02*
X72794006Y-71475006I0J-250000D01*
G01*
G37*
%TD*%
D10*
%TO.C,IC1*%
X79924006Y-81277006D03*
X78654006Y-81277006D03*
X76114006Y-81277006D03*
X77384006Y-81277006D03*
X79924006Y-75777006D03*
X78654006Y-75777006D03*
X76114006Y-75777006D03*
X77384006Y-75777006D03*
D11*
X78019006Y-78527006D03*
%TD*%
D12*
%TO.C,Q1*%
X80310006Y-87290006D03*
X82210006Y-87290006D03*
X81260006Y-85290006D03*
%TD*%
%TO.C,R1*%
G36*
G01*
X77654006Y-82406006D02*
X77654006Y-82776006D01*
G75*
G02*
X77519006Y-82911006I-135000J0D01*
G01*
X77249006Y-82911006D01*
G75*
G02*
X77114006Y-82776006I0J135000D01*
G01*
X77114006Y-82406006D01*
G75*
G02*
X77249006Y-82271006I135000J0D01*
G01*
X77519006Y-82271006D01*
G75*
G02*
X77654006Y-82406006I0J-135000D01*
G01*
G37*
G36*
G01*
X76634006Y-82406006D02*
X76634006Y-82776006D01*
G75*
G02*
X76499006Y-82911006I-135000J0D01*
G01*
X76229006Y-82911006D01*
G75*
G02*
X76094006Y-82776006I0J135000D01*
G01*
X76094006Y-82406006D01*
G75*
G02*
X76229006Y-82271006I135000J0D01*
G01*
X76499006Y-82271006D01*
G75*
G02*
X76634006Y-82406006I0J-135000D01*
G01*
G37*
%TD*%
%TO.C,R2*%
G36*
G01*
X81633006Y-77023006D02*
X81263006Y-77023006D01*
G75*
G02*
X81128006Y-76888006I0J135000D01*
G01*
X81128006Y-76618006D01*
G75*
G02*
X81263006Y-76483006I135000J0D01*
G01*
X81633006Y-76483006D01*
G75*
G02*
X81768006Y-76618006I0J-135000D01*
G01*
X81768006Y-76888006D01*
G75*
G02*
X81633006Y-77023006I-135000J0D01*
G01*
G37*
G36*
G01*
X81633006Y-76003006D02*
X81263006Y-76003006D01*
G75*
G02*
X81128006Y-75868006I0J135000D01*
G01*
X81128006Y-75598006D01*
G75*
G02*
X81263006Y-75463006I135000J0D01*
G01*
X81633006Y-75463006D01*
G75*
G02*
X81768006Y-75598006I0J-135000D01*
G01*
X81768006Y-75868006D01*
G75*
G02*
X81633006Y-76003006I-135000J0D01*
G01*
G37*
%TD*%
%TO.C,R3*%
G36*
G01*
X73812006Y-76680006D02*
X73812006Y-76310006D01*
G75*
G02*
X73947006Y-76175006I135000J0D01*
G01*
X74217006Y-76175006D01*
G75*
G02*
X74352006Y-76310006I0J-135000D01*
G01*
X74352006Y-76680006D01*
G75*
G02*
X74217006Y-76815006I-135000J0D01*
G01*
X73947006Y-76815006D01*
G75*
G02*
X73812006Y-76680006I0J135000D01*
G01*
G37*
G36*
G01*
X74832006Y-76680006D02*
X74832006Y-76310006D01*
G75*
G02*
X74967006Y-76175006I135000J0D01*
G01*
X75237006Y-76175006D01*
G75*
G02*
X75372006Y-76310006I0J-135000D01*
G01*
X75372006Y-76680006D01*
G75*
G02*
X75237006Y-76815006I-135000J0D01*
G01*
X74967006Y-76815006D01*
G75*
G02*
X74832006Y-76680006I0J135000D01*
G01*
G37*
%TD*%
%TO.C,R4*%
G36*
G01*
X74013006Y-85913006D02*
X73643006Y-85913006D01*
G75*
G02*
X73508006Y-85778006I0J135000D01*
G01*
X73508006Y-85508006D01*
G75*
G02*
X73643006Y-85373006I135000J0D01*
G01*
X74013006Y-85373006D01*
G75*
G02*
X74148006Y-85508006I0J-135000D01*
G01*
X74148006Y-85778006D01*
G75*
G02*
X74013006Y-85913006I-135000J0D01*
G01*
G37*
G36*
G01*
X74013006Y-84893006D02*
X73643006Y-84893006D01*
G75*
G02*
X73508006Y-84758006I0J135000D01*
G01*
X73508006Y-84488006D01*
G75*
G02*
X73643006Y-84353006I135000J0D01*
G01*
X74013006Y-84353006D01*
G75*
G02*
X74148006Y-84488006I0J-135000D01*
G01*
X74148006Y-84758006D01*
G75*
G02*
X74013006Y-84893006I-135000J0D01*
G01*
G37*
%TD*%
%TO.C,R5*%
G36*
G01*
X85468506Y-74405006D02*
X85468506Y-74775006D01*
G75*
G02*
X85333506Y-74910006I-135000J0D01*
G01*
X85063506Y-74910006D01*
G75*
G02*
X84928506Y-74775006I0J135000D01*
G01*
X84928506Y-74405006D01*
G75*
G02*
X85063506Y-74270006I135000J0D01*
G01*
X85333506Y-74270006D01*
G75*
G02*
X85468506Y-74405006I0J-135000D01*
G01*
G37*
G36*
G01*
X84448506Y-74405006D02*
X84448506Y-74775006D01*
G75*
G02*
X84313506Y-74910006I-135000J0D01*
G01*
X84043506Y-74910006D01*
G75*
G02*
X83908506Y-74775006I0J135000D01*
G01*
X83908506Y-74405006D01*
G75*
G02*
X84043506Y-74270006I135000J0D01*
G01*
X84313506Y-74270006D01*
G75*
G02*
X84448506Y-74405006I0J-135000D01*
G01*
G37*
%TD*%
D13*
%TO.C,U1*%
X82591006Y-81707006D03*
X82591006Y-82657006D03*
X82591006Y-83607006D03*
X84791006Y-83607006D03*
X84791006Y-81707006D03*
%TD*%
%TO.C,U2*%
X80686006Y-71856006D03*
X80686006Y-72806006D03*
X80686006Y-73756006D03*
X82886006Y-73756006D03*
X82886006Y-71856006D03*
X82886006Y-72806006D03*
%TD*%
%TO.C,U3*%
X76876006Y-71856006D03*
X76876006Y-72806006D03*
X76876006Y-73756006D03*
X79076006Y-73756006D03*
X79076006Y-71856006D03*
X79076006Y-72806006D03*
%TD*%
D14*
%TO.C,D3*%
X75350006Y-87290006D03*
X72050006Y-87290006D03*
%TD*%
%TO.C,D4*%
X87290006Y-87290006D03*
X83990006Y-87290006D03*
%TD*%
%TO.C,C1*%
G36*
G01*
X81374006Y-83005006D02*
X81374006Y-83955006D01*
G75*
G02*
X81124006Y-84205006I-250000J0D01*
G01*
X80624006Y-84205006D01*
G75*
G02*
X80374006Y-83955006I0J250000D01*
G01*
X80374006Y-83005006D01*
G75*
G02*
X80624006Y-82755006I250000J0D01*
G01*
X81124006Y-82755006D01*
G75*
G02*
X81374006Y-83005006I0J-250000D01*
G01*
G37*
G36*
G01*
X79474006Y-83005006D02*
X79474006Y-83955006D01*
G75*
G02*
X79224006Y-84205006I-250000J0D01*
G01*
X78724006Y-84205006D01*
G75*
G02*
X78474006Y-83955006I0J250000D01*
G01*
X78474006Y-83005006D01*
G75*
G02*
X78724006Y-82755006I250000J0D01*
G01*
X79224006Y-82755006D01*
G75*
G02*
X79474006Y-83005006I0J-250000D01*
G01*
G37*
%TD*%
%TO.C,C2*%
G36*
G01*
X82472006Y-76716006D02*
X82472006Y-75766006D01*
G75*
G02*
X82722006Y-75516006I250000J0D01*
G01*
X83222006Y-75516006D01*
G75*
G02*
X83472006Y-75766006I0J-250000D01*
G01*
X83472006Y-76716006D01*
G75*
G02*
X83222006Y-76966006I-250000J0D01*
G01*
X82722006Y-76966006D01*
G75*
G02*
X82472006Y-76716006I0J250000D01*
G01*
G37*
G36*
G01*
X84372006Y-76716006D02*
X84372006Y-75766006D01*
G75*
G02*
X84622006Y-75516006I250000J0D01*
G01*
X85122006Y-75516006D01*
G75*
G02*
X85372006Y-75766006I0J-250000D01*
G01*
X85372006Y-76716006D01*
G75*
G02*
X85122006Y-76966006I-250000J0D01*
G01*
X84622006Y-76966006D01*
G75*
G02*
X84372006Y-76716006I0J250000D01*
G01*
G37*
%TD*%
%TO.C,C3*%
G36*
G01*
X83603006Y-80527006D02*
X83103006Y-80527006D01*
G75*
G02*
X82878006Y-80302006I0J225000D01*
G01*
X82878006Y-79852006D01*
G75*
G02*
X83103006Y-79627006I225000J0D01*
G01*
X83603006Y-79627006D01*
G75*
G02*
X83828006Y-79852006I0J-225000D01*
G01*
X83828006Y-80302006D01*
G75*
G02*
X83603006Y-80527006I-225000J0D01*
G01*
G37*
G36*
G01*
X83603006Y-78977006D02*
X83103006Y-78977006D01*
G75*
G02*
X82878006Y-78752006I0J225000D01*
G01*
X82878006Y-78302006D01*
G75*
G02*
X83103006Y-78077006I225000J0D01*
G01*
X83603006Y-78077006D01*
G75*
G02*
X83828006Y-78302006I0J-225000D01*
G01*
X83828006Y-78752006D01*
G75*
G02*
X83603006Y-78977006I-225000J0D01*
G01*
G37*
%TD*%
%TO.C,C4*%
G36*
G01*
X85127006Y-80527006D02*
X84627006Y-80527006D01*
G75*
G02*
X84402006Y-80302006I0J225000D01*
G01*
X84402006Y-79852006D01*
G75*
G02*
X84627006Y-79627006I225000J0D01*
G01*
X85127006Y-79627006D01*
G75*
G02*
X85352006Y-79852006I0J-225000D01*
G01*
X85352006Y-80302006D01*
G75*
G02*
X85127006Y-80527006I-225000J0D01*
G01*
G37*
G36*
G01*
X85127006Y-78977006D02*
X84627006Y-78977006D01*
G75*
G02*
X84402006Y-78752006I0J225000D01*
G01*
X84402006Y-78302006D01*
G75*
G02*
X84627006Y-78077006I225000J0D01*
G01*
X85127006Y-78077006D01*
G75*
G02*
X85352006Y-78302006I0J-225000D01*
G01*
X85352006Y-78752006D01*
G75*
G02*
X85127006Y-78977006I-225000J0D01*
G01*
G37*
%TD*%
%TO.C,C5*%
G36*
G01*
X84746006Y-73732506D02*
X84246006Y-73732506D01*
G75*
G02*
X84021006Y-73507506I0J225000D01*
G01*
X84021006Y-73057506D01*
G75*
G02*
X84246006Y-72832506I225000J0D01*
G01*
X84746006Y-72832506D01*
G75*
G02*
X84971006Y-73057506I0J-225000D01*
G01*
X84971006Y-73507506D01*
G75*
G02*
X84746006Y-73732506I-225000J0D01*
G01*
G37*
G36*
G01*
X84746006Y-72182506D02*
X84246006Y-72182506D01*
G75*
G02*
X84021006Y-71957506I0J225000D01*
G01*
X84021006Y-71507506D01*
G75*
G02*
X84246006Y-71282506I225000J0D01*
G01*
X84746006Y-71282506D01*
G75*
G02*
X84971006Y-71507506I0J-225000D01*
G01*
X84971006Y-71957506D01*
G75*
G02*
X84746006Y-72182506I-225000J0D01*
G01*
G37*
%TD*%
%TO.C,R6*%
G36*
G01*
X85620006Y-72071006D02*
X85620006Y-71521006D01*
G75*
G02*
X85820006Y-71321006I200000J0D01*
G01*
X86220006Y-71321006D01*
G75*
G02*
X86420006Y-71521006I0J-200000D01*
G01*
X86420006Y-72071006D01*
G75*
G02*
X86220006Y-72271006I-200000J0D01*
G01*
X85820006Y-72271006D01*
G75*
G02*
X85620006Y-72071006I0J200000D01*
G01*
G37*
G36*
G01*
X87270006Y-72071006D02*
X87270006Y-71521006D01*
G75*
G02*
X87470006Y-71321006I200000J0D01*
G01*
X87870006Y-71321006D01*
G75*
G02*
X88070006Y-71521006I0J-200000D01*
G01*
X88070006Y-72071006D01*
G75*
G02*
X87870006Y-72271006I-200000J0D01*
G01*
X87470006Y-72271006D01*
G75*
G02*
X87270006Y-72071006I0J200000D01*
G01*
G37*
%TD*%
%TO.C,D1*%
G36*
G01*
X56098251Y-85873506D02*
X55585751Y-85873506D01*
G75*
G02*
X55367001Y-85654756I0J218750D01*
G01*
X55367001Y-85217256D01*
G75*
G02*
X55585751Y-84998506I218750J0D01*
G01*
X56098251Y-84998506D01*
G75*
G02*
X56317001Y-85217256I0J-218750D01*
G01*
X56317001Y-85654756D01*
G75*
G02*
X56098251Y-85873506I-218750J0D01*
G01*
G37*
G36*
G01*
X56098251Y-84298506D02*
X55585751Y-84298506D01*
G75*
G02*
X55367001Y-84079756I0J218750D01*
G01*
X55367001Y-83642256D01*
G75*
G02*
X55585751Y-83423506I218750J0D01*
G01*
X56098251Y-83423506D01*
G75*
G02*
X56317001Y-83642256I0J-218750D01*
G01*
X56317001Y-84079756D01*
G75*
G02*
X56098251Y-84298506I-218750J0D01*
G01*
G37*
%TD*%
%TO.C,D2*%
G36*
G01*
X54574251Y-85873506D02*
X54061751Y-85873506D01*
G75*
G02*
X53843001Y-85654756I0J218750D01*
G01*
X53843001Y-85217256D01*
G75*
G02*
X54061751Y-84998506I218750J0D01*
G01*
X54574251Y-84998506D01*
G75*
G02*
X54793001Y-85217256I0J-218750D01*
G01*
X54793001Y-85654756D01*
G75*
G02*
X54574251Y-85873506I-218750J0D01*
G01*
G37*
G36*
G01*
X54574251Y-84298506D02*
X54061751Y-84298506D01*
G75*
G02*
X53843001Y-84079756I0J218750D01*
G01*
X53843001Y-83642256D01*
G75*
G02*
X54061751Y-83423506I218750J0D01*
G01*
X54574251Y-83423506D01*
G75*
G02*
X54793001Y-83642256I0J-218750D01*
G01*
X54793001Y-84079756D01*
G75*
G02*
X54574251Y-84298506I-218750J0D01*
G01*
G37*
%TD*%
%TO.C,F1*%
G36*
G01*
X54864001Y-71475006D02*
X54864001Y-72625006D01*
G75*
G02*
X54614001Y-72875006I-250000J0D01*
G01*
X53514001Y-72875006D01*
G75*
G02*
X53264001Y-72625006I0J250000D01*
G01*
X53264001Y-71475006D01*
G75*
G02*
X53514001Y-71225006I250000J0D01*
G01*
X54614001Y-71225006D01*
G75*
G02*
X54864001Y-71475006I0J-250000D01*
G01*
G37*
G36*
G01*
X52014001Y-71475006D02*
X52014001Y-72625006D01*
G75*
G02*
X51764001Y-72875006I-250000J0D01*
G01*
X50664001Y-72875006D01*
G75*
G02*
X50414001Y-72625006I0J250000D01*
G01*
X50414001Y-71475006D01*
G75*
G02*
X50664001Y-71225006I250000J0D01*
G01*
X51764001Y-71225006D01*
G75*
G02*
X52014001Y-71475006I0J-250000D01*
G01*
G37*
%TD*%
D10*
%TO.C,IC1*%
X59144001Y-81277006D03*
X57874001Y-81277006D03*
X55334001Y-81277006D03*
X56604001Y-81277006D03*
X59144001Y-75777006D03*
X57874001Y-75777006D03*
X55334001Y-75777006D03*
X56604001Y-75777006D03*
D11*
X57239001Y-78527006D03*
%TD*%
D12*
%TO.C,Q1*%
X59530001Y-87290006D03*
X61430001Y-87290006D03*
X60480001Y-85290006D03*
%TD*%
%TO.C,R1*%
G36*
G01*
X56874001Y-82406006D02*
X56874001Y-82776006D01*
G75*
G02*
X56739001Y-82911006I-135000J0D01*
G01*
X56469001Y-82911006D01*
G75*
G02*
X56334001Y-82776006I0J135000D01*
G01*
X56334001Y-82406006D01*
G75*
G02*
X56469001Y-82271006I135000J0D01*
G01*
X56739001Y-82271006D01*
G75*
G02*
X56874001Y-82406006I0J-135000D01*
G01*
G37*
G36*
G01*
X55854001Y-82406006D02*
X55854001Y-82776006D01*
G75*
G02*
X55719001Y-82911006I-135000J0D01*
G01*
X55449001Y-82911006D01*
G75*
G02*
X55314001Y-82776006I0J135000D01*
G01*
X55314001Y-82406006D01*
G75*
G02*
X55449001Y-82271006I135000J0D01*
G01*
X55719001Y-82271006D01*
G75*
G02*
X55854001Y-82406006I0J-135000D01*
G01*
G37*
%TD*%
%TO.C,R2*%
G36*
G01*
X60853001Y-77023006D02*
X60483001Y-77023006D01*
G75*
G02*
X60348001Y-76888006I0J135000D01*
G01*
X60348001Y-76618006D01*
G75*
G02*
X60483001Y-76483006I135000J0D01*
G01*
X60853001Y-76483006D01*
G75*
G02*
X60988001Y-76618006I0J-135000D01*
G01*
X60988001Y-76888006D01*
G75*
G02*
X60853001Y-77023006I-135000J0D01*
G01*
G37*
G36*
G01*
X60853001Y-76003006D02*
X60483001Y-76003006D01*
G75*
G02*
X60348001Y-75868006I0J135000D01*
G01*
X60348001Y-75598006D01*
G75*
G02*
X60483001Y-75463006I135000J0D01*
G01*
X60853001Y-75463006D01*
G75*
G02*
X60988001Y-75598006I0J-135000D01*
G01*
X60988001Y-75868006D01*
G75*
G02*
X60853001Y-76003006I-135000J0D01*
G01*
G37*
%TD*%
%TO.C,R3*%
G36*
G01*
X53032001Y-76680006D02*
X53032001Y-76310006D01*
G75*
G02*
X53167001Y-76175006I135000J0D01*
G01*
X53437001Y-76175006D01*
G75*
G02*
X53572001Y-76310006I0J-135000D01*
G01*
X53572001Y-76680006D01*
G75*
G02*
X53437001Y-76815006I-135000J0D01*
G01*
X53167001Y-76815006D01*
G75*
G02*
X53032001Y-76680006I0J135000D01*
G01*
G37*
G36*
G01*
X54052001Y-76680006D02*
X54052001Y-76310006D01*
G75*
G02*
X54187001Y-76175006I135000J0D01*
G01*
X54457001Y-76175006D01*
G75*
G02*
X54592001Y-76310006I0J-135000D01*
G01*
X54592001Y-76680006D01*
G75*
G02*
X54457001Y-76815006I-135000J0D01*
G01*
X54187001Y-76815006D01*
G75*
G02*
X54052001Y-76680006I0J135000D01*
G01*
G37*
%TD*%
%TO.C,R4*%
G36*
G01*
X53233001Y-85913006D02*
X52863001Y-85913006D01*
G75*
G02*
X52728001Y-85778006I0J135000D01*
G01*
X52728001Y-85508006D01*
G75*
G02*
X52863001Y-85373006I135000J0D01*
G01*
X53233001Y-85373006D01*
G75*
G02*
X53368001Y-85508006I0J-135000D01*
G01*
X53368001Y-85778006D01*
G75*
G02*
X53233001Y-85913006I-135000J0D01*
G01*
G37*
G36*
G01*
X53233001Y-84893006D02*
X52863001Y-84893006D01*
G75*
G02*
X52728001Y-84758006I0J135000D01*
G01*
X52728001Y-84488006D01*
G75*
G02*
X52863001Y-84353006I135000J0D01*
G01*
X53233001Y-84353006D01*
G75*
G02*
X53368001Y-84488006I0J-135000D01*
G01*
X53368001Y-84758006D01*
G75*
G02*
X53233001Y-84893006I-135000J0D01*
G01*
G37*
%TD*%
%TO.C,R5*%
G36*
G01*
X64688501Y-74405006D02*
X64688501Y-74775006D01*
G75*
G02*
X64553501Y-74910006I-135000J0D01*
G01*
X64283501Y-74910006D01*
G75*
G02*
X64148501Y-74775006I0J135000D01*
G01*
X64148501Y-74405006D01*
G75*
G02*
X64283501Y-74270006I135000J0D01*
G01*
X64553501Y-74270006D01*
G75*
G02*
X64688501Y-74405006I0J-135000D01*
G01*
G37*
G36*
G01*
X63668501Y-74405006D02*
X63668501Y-74775006D01*
G75*
G02*
X63533501Y-74910006I-135000J0D01*
G01*
X63263501Y-74910006D01*
G75*
G02*
X63128501Y-74775006I0J135000D01*
G01*
X63128501Y-74405006D01*
G75*
G02*
X63263501Y-74270006I135000J0D01*
G01*
X63533501Y-74270006D01*
G75*
G02*
X63668501Y-74405006I0J-135000D01*
G01*
G37*
%TD*%
D13*
%TO.C,U1*%
X61811001Y-81707006D03*
X61811001Y-82657006D03*
X61811001Y-83607006D03*
X64011001Y-83607006D03*
X64011001Y-81707006D03*
%TD*%
%TO.C,U2*%
X59906001Y-71856006D03*
X59906001Y-72806006D03*
X59906001Y-73756006D03*
X62106001Y-73756006D03*
X62106001Y-71856006D03*
X62106001Y-72806006D03*
%TD*%
%TO.C,U3*%
X56096001Y-71856006D03*
X56096001Y-72806006D03*
X56096001Y-73756006D03*
X58296001Y-73756006D03*
X58296001Y-71856006D03*
X58296001Y-72806006D03*
%TD*%
D14*
%TO.C,D3*%
X54570001Y-87290006D03*
X51270001Y-87290006D03*
%TD*%
%TO.C,D4*%
X66510001Y-87290006D03*
X63210001Y-87290006D03*
%TD*%
%TO.C,C1*%
G36*
G01*
X60594001Y-83005006D02*
X60594001Y-83955006D01*
G75*
G02*
X60344001Y-84205006I-250000J0D01*
G01*
X59844001Y-84205006D01*
G75*
G02*
X59594001Y-83955006I0J250000D01*
G01*
X59594001Y-83005006D01*
G75*
G02*
X59844001Y-82755006I250000J0D01*
G01*
X60344001Y-82755006D01*
G75*
G02*
X60594001Y-83005006I0J-250000D01*
G01*
G37*
G36*
G01*
X58694001Y-83005006D02*
X58694001Y-83955006D01*
G75*
G02*
X58444001Y-84205006I-250000J0D01*
G01*
X57944001Y-84205006D01*
G75*
G02*
X57694001Y-83955006I0J250000D01*
G01*
X57694001Y-83005006D01*
G75*
G02*
X57944001Y-82755006I250000J0D01*
G01*
X58444001Y-82755006D01*
G75*
G02*
X58694001Y-83005006I0J-250000D01*
G01*
G37*
%TD*%
%TO.C,C2*%
G36*
G01*
X61692001Y-76716006D02*
X61692001Y-75766006D01*
G75*
G02*
X61942001Y-75516006I250000J0D01*
G01*
X62442001Y-75516006D01*
G75*
G02*
X62692001Y-75766006I0J-250000D01*
G01*
X62692001Y-76716006D01*
G75*
G02*
X62442001Y-76966006I-250000J0D01*
G01*
X61942001Y-76966006D01*
G75*
G02*
X61692001Y-76716006I0J250000D01*
G01*
G37*
G36*
G01*
X63592001Y-76716006D02*
X63592001Y-75766006D01*
G75*
G02*
X63842001Y-75516006I250000J0D01*
G01*
X64342001Y-75516006D01*
G75*
G02*
X64592001Y-75766006I0J-250000D01*
G01*
X64592001Y-76716006D01*
G75*
G02*
X64342001Y-76966006I-250000J0D01*
G01*
X63842001Y-76966006D01*
G75*
G02*
X63592001Y-76716006I0J250000D01*
G01*
G37*
%TD*%
%TO.C,C3*%
G36*
G01*
X62823001Y-80527006D02*
X62323001Y-80527006D01*
G75*
G02*
X62098001Y-80302006I0J225000D01*
G01*
X62098001Y-79852006D01*
G75*
G02*
X62323001Y-79627006I225000J0D01*
G01*
X62823001Y-79627006D01*
G75*
G02*
X63048001Y-79852006I0J-225000D01*
G01*
X63048001Y-80302006D01*
G75*
G02*
X62823001Y-80527006I-225000J0D01*
G01*
G37*
G36*
G01*
X62823001Y-78977006D02*
X62323001Y-78977006D01*
G75*
G02*
X62098001Y-78752006I0J225000D01*
G01*
X62098001Y-78302006D01*
G75*
G02*
X62323001Y-78077006I225000J0D01*
G01*
X62823001Y-78077006D01*
G75*
G02*
X63048001Y-78302006I0J-225000D01*
G01*
X63048001Y-78752006D01*
G75*
G02*
X62823001Y-78977006I-225000J0D01*
G01*
G37*
%TD*%
%TO.C,C4*%
G36*
G01*
X64347001Y-80527006D02*
X63847001Y-80527006D01*
G75*
G02*
X63622001Y-80302006I0J225000D01*
G01*
X63622001Y-79852006D01*
G75*
G02*
X63847001Y-79627006I225000J0D01*
G01*
X64347001Y-79627006D01*
G75*
G02*
X64572001Y-79852006I0J-225000D01*
G01*
X64572001Y-80302006D01*
G75*
G02*
X64347001Y-80527006I-225000J0D01*
G01*
G37*
G36*
G01*
X64347001Y-78977006D02*
X63847001Y-78977006D01*
G75*
G02*
X63622001Y-78752006I0J225000D01*
G01*
X63622001Y-78302006D01*
G75*
G02*
X63847001Y-78077006I225000J0D01*
G01*
X64347001Y-78077006D01*
G75*
G02*
X64572001Y-78302006I0J-225000D01*
G01*
X64572001Y-78752006D01*
G75*
G02*
X64347001Y-78977006I-225000J0D01*
G01*
G37*
%TD*%
%TO.C,C5*%
G36*
G01*
X63966001Y-73732506D02*
X63466001Y-73732506D01*
G75*
G02*
X63241001Y-73507506I0J225000D01*
G01*
X63241001Y-73057506D01*
G75*
G02*
X63466001Y-72832506I225000J0D01*
G01*
X63966001Y-72832506D01*
G75*
G02*
X64191001Y-73057506I0J-225000D01*
G01*
X64191001Y-73507506D01*
G75*
G02*
X63966001Y-73732506I-225000J0D01*
G01*
G37*
G36*
G01*
X63966001Y-72182506D02*
X63466001Y-72182506D01*
G75*
G02*
X63241001Y-71957506I0J225000D01*
G01*
X63241001Y-71507506D01*
G75*
G02*
X63466001Y-71282506I225000J0D01*
G01*
X63966001Y-71282506D01*
G75*
G02*
X64191001Y-71507506I0J-225000D01*
G01*
X64191001Y-71957506D01*
G75*
G02*
X63966001Y-72182506I-225000J0D01*
G01*
G37*
%TD*%
%TO.C,R6*%
G36*
G01*
X64840001Y-72071006D02*
X64840001Y-71521006D01*
G75*
G02*
X65040001Y-71321006I200000J0D01*
G01*
X65440001Y-71321006D01*
G75*
G02*
X65640001Y-71521006I0J-200000D01*
G01*
X65640001Y-72071006D01*
G75*
G02*
X65440001Y-72271006I-200000J0D01*
G01*
X65040001Y-72271006D01*
G75*
G02*
X64840001Y-72071006I0J200000D01*
G01*
G37*
G36*
G01*
X66490001Y-72071006D02*
X66490001Y-71521006D01*
G75*
G02*
X66690001Y-71321006I200000J0D01*
G01*
X67090001Y-71321006D01*
G75*
G02*
X67290001Y-71521006I0J-200000D01*
G01*
X67290001Y-72071006D01*
G75*
G02*
X67090001Y-72271006I-200000J0D01*
G01*
X66690001Y-72271006D01*
G75*
G02*
X66490001Y-72071006I0J200000D01*
G01*
G37*
%TD*%
%TO.C,D1*%
G36*
G01*
X118438266Y-65093501D02*
X117925766Y-65093501D01*
G75*
G02*
X117707016Y-64874751I0J218750D01*
G01*
X117707016Y-64437251D01*
G75*
G02*
X117925766Y-64218501I218750J0D01*
G01*
X118438266Y-64218501D01*
G75*
G02*
X118657016Y-64437251I0J-218750D01*
G01*
X118657016Y-64874751D01*
G75*
G02*
X118438266Y-65093501I-218750J0D01*
G01*
G37*
G36*
G01*
X118438266Y-63518501D02*
X117925766Y-63518501D01*
G75*
G02*
X117707016Y-63299751I0J218750D01*
G01*
X117707016Y-62862251D01*
G75*
G02*
X117925766Y-62643501I218750J0D01*
G01*
X118438266Y-62643501D01*
G75*
G02*
X118657016Y-62862251I0J-218750D01*
G01*
X118657016Y-63299751D01*
G75*
G02*
X118438266Y-63518501I-218750J0D01*
G01*
G37*
%TD*%
%TO.C,D2*%
G36*
G01*
X116914266Y-65093501D02*
X116401766Y-65093501D01*
G75*
G02*
X116183016Y-64874751I0J218750D01*
G01*
X116183016Y-64437251D01*
G75*
G02*
X116401766Y-64218501I218750J0D01*
G01*
X116914266Y-64218501D01*
G75*
G02*
X117133016Y-64437251I0J-218750D01*
G01*
X117133016Y-64874751D01*
G75*
G02*
X116914266Y-65093501I-218750J0D01*
G01*
G37*
G36*
G01*
X116914266Y-63518501D02*
X116401766Y-63518501D01*
G75*
G02*
X116183016Y-63299751I0J218750D01*
G01*
X116183016Y-62862251D01*
G75*
G02*
X116401766Y-62643501I218750J0D01*
G01*
X116914266Y-62643501D01*
G75*
G02*
X117133016Y-62862251I0J-218750D01*
G01*
X117133016Y-63299751D01*
G75*
G02*
X116914266Y-63518501I-218750J0D01*
G01*
G37*
%TD*%
%TO.C,F1*%
G36*
G01*
X117204016Y-50695001D02*
X117204016Y-51845001D01*
G75*
G02*
X116954016Y-52095001I-250000J0D01*
G01*
X115854016Y-52095001D01*
G75*
G02*
X115604016Y-51845001I0J250000D01*
G01*
X115604016Y-50695001D01*
G75*
G02*
X115854016Y-50445001I250000J0D01*
G01*
X116954016Y-50445001D01*
G75*
G02*
X117204016Y-50695001I0J-250000D01*
G01*
G37*
G36*
G01*
X114354016Y-50695001D02*
X114354016Y-51845001D01*
G75*
G02*
X114104016Y-52095001I-250000J0D01*
G01*
X113004016Y-52095001D01*
G75*
G02*
X112754016Y-51845001I0J250000D01*
G01*
X112754016Y-50695001D01*
G75*
G02*
X113004016Y-50445001I250000J0D01*
G01*
X114104016Y-50445001D01*
G75*
G02*
X114354016Y-50695001I0J-250000D01*
G01*
G37*
%TD*%
D10*
%TO.C,IC1*%
X121484016Y-60497001D03*
X120214016Y-60497001D03*
X117674016Y-60497001D03*
X118944016Y-60497001D03*
X121484016Y-54997001D03*
X120214016Y-54997001D03*
X117674016Y-54997001D03*
X118944016Y-54997001D03*
D11*
X119579016Y-57747001D03*
%TD*%
D12*
%TO.C,Q1*%
X121870016Y-66510001D03*
X123770016Y-66510001D03*
X122820016Y-64510001D03*
%TD*%
%TO.C,R1*%
G36*
G01*
X119214016Y-61626001D02*
X119214016Y-61996001D01*
G75*
G02*
X119079016Y-62131001I-135000J0D01*
G01*
X118809016Y-62131001D01*
G75*
G02*
X118674016Y-61996001I0J135000D01*
G01*
X118674016Y-61626001D01*
G75*
G02*
X118809016Y-61491001I135000J0D01*
G01*
X119079016Y-61491001D01*
G75*
G02*
X119214016Y-61626001I0J-135000D01*
G01*
G37*
G36*
G01*
X118194016Y-61626001D02*
X118194016Y-61996001D01*
G75*
G02*
X118059016Y-62131001I-135000J0D01*
G01*
X117789016Y-62131001D01*
G75*
G02*
X117654016Y-61996001I0J135000D01*
G01*
X117654016Y-61626001D01*
G75*
G02*
X117789016Y-61491001I135000J0D01*
G01*
X118059016Y-61491001D01*
G75*
G02*
X118194016Y-61626001I0J-135000D01*
G01*
G37*
%TD*%
%TO.C,R2*%
G36*
G01*
X123193016Y-56243001D02*
X122823016Y-56243001D01*
G75*
G02*
X122688016Y-56108001I0J135000D01*
G01*
X122688016Y-55838001D01*
G75*
G02*
X122823016Y-55703001I135000J0D01*
G01*
X123193016Y-55703001D01*
G75*
G02*
X123328016Y-55838001I0J-135000D01*
G01*
X123328016Y-56108001D01*
G75*
G02*
X123193016Y-56243001I-135000J0D01*
G01*
G37*
G36*
G01*
X123193016Y-55223001D02*
X122823016Y-55223001D01*
G75*
G02*
X122688016Y-55088001I0J135000D01*
G01*
X122688016Y-54818001D01*
G75*
G02*
X122823016Y-54683001I135000J0D01*
G01*
X123193016Y-54683001D01*
G75*
G02*
X123328016Y-54818001I0J-135000D01*
G01*
X123328016Y-55088001D01*
G75*
G02*
X123193016Y-55223001I-135000J0D01*
G01*
G37*
%TD*%
%TO.C,R3*%
G36*
G01*
X115372016Y-55900001D02*
X115372016Y-55530001D01*
G75*
G02*
X115507016Y-55395001I135000J0D01*
G01*
X115777016Y-55395001D01*
G75*
G02*
X115912016Y-55530001I0J-135000D01*
G01*
X115912016Y-55900001D01*
G75*
G02*
X115777016Y-56035001I-135000J0D01*
G01*
X115507016Y-56035001D01*
G75*
G02*
X115372016Y-55900001I0J135000D01*
G01*
G37*
G36*
G01*
X116392016Y-55900001D02*
X116392016Y-55530001D01*
G75*
G02*
X116527016Y-55395001I135000J0D01*
G01*
X116797016Y-55395001D01*
G75*
G02*
X116932016Y-55530001I0J-135000D01*
G01*
X116932016Y-55900001D01*
G75*
G02*
X116797016Y-56035001I-135000J0D01*
G01*
X116527016Y-56035001D01*
G75*
G02*
X116392016Y-55900001I0J135000D01*
G01*
G37*
%TD*%
%TO.C,R4*%
G36*
G01*
X115573016Y-65133001D02*
X115203016Y-65133001D01*
G75*
G02*
X115068016Y-64998001I0J135000D01*
G01*
X115068016Y-64728001D01*
G75*
G02*
X115203016Y-64593001I135000J0D01*
G01*
X115573016Y-64593001D01*
G75*
G02*
X115708016Y-64728001I0J-135000D01*
G01*
X115708016Y-64998001D01*
G75*
G02*
X115573016Y-65133001I-135000J0D01*
G01*
G37*
G36*
G01*
X115573016Y-64113001D02*
X115203016Y-64113001D01*
G75*
G02*
X115068016Y-63978001I0J135000D01*
G01*
X115068016Y-63708001D01*
G75*
G02*
X115203016Y-63573001I135000J0D01*
G01*
X115573016Y-63573001D01*
G75*
G02*
X115708016Y-63708001I0J-135000D01*
G01*
X115708016Y-63978001D01*
G75*
G02*
X115573016Y-64113001I-135000J0D01*
G01*
G37*
%TD*%
%TO.C,R5*%
G36*
G01*
X127028516Y-53625001D02*
X127028516Y-53995001D01*
G75*
G02*
X126893516Y-54130001I-135000J0D01*
G01*
X126623516Y-54130001D01*
G75*
G02*
X126488516Y-53995001I0J135000D01*
G01*
X126488516Y-53625001D01*
G75*
G02*
X126623516Y-53490001I135000J0D01*
G01*
X126893516Y-53490001D01*
G75*
G02*
X127028516Y-53625001I0J-135000D01*
G01*
G37*
G36*
G01*
X126008516Y-53625001D02*
X126008516Y-53995001D01*
G75*
G02*
X125873516Y-54130001I-135000J0D01*
G01*
X125603516Y-54130001D01*
G75*
G02*
X125468516Y-53995001I0J135000D01*
G01*
X125468516Y-53625001D01*
G75*
G02*
X125603516Y-53490001I135000J0D01*
G01*
X125873516Y-53490001D01*
G75*
G02*
X126008516Y-53625001I0J-135000D01*
G01*
G37*
%TD*%
D13*
%TO.C,U1*%
X124151016Y-60927001D03*
X124151016Y-61877001D03*
X124151016Y-62827001D03*
X126351016Y-62827001D03*
X126351016Y-60927001D03*
%TD*%
%TO.C,U2*%
X122246016Y-51076001D03*
X122246016Y-52026001D03*
X122246016Y-52976001D03*
X124446016Y-52976001D03*
X124446016Y-51076001D03*
X124446016Y-52026001D03*
%TD*%
%TO.C,U3*%
X118436016Y-51076001D03*
X118436016Y-52026001D03*
X118436016Y-52976001D03*
X120636016Y-52976001D03*
X120636016Y-51076001D03*
X120636016Y-52026001D03*
%TD*%
D14*
%TO.C,D3*%
X116910016Y-66510001D03*
X113610016Y-66510001D03*
%TD*%
%TO.C,D4*%
X128850016Y-66510001D03*
X125550016Y-66510001D03*
%TD*%
%TO.C,C1*%
G36*
G01*
X122934016Y-62225001D02*
X122934016Y-63175001D01*
G75*
G02*
X122684016Y-63425001I-250000J0D01*
G01*
X122184016Y-63425001D01*
G75*
G02*
X121934016Y-63175001I0J250000D01*
G01*
X121934016Y-62225001D01*
G75*
G02*
X122184016Y-61975001I250000J0D01*
G01*
X122684016Y-61975001D01*
G75*
G02*
X122934016Y-62225001I0J-250000D01*
G01*
G37*
G36*
G01*
X121034016Y-62225001D02*
X121034016Y-63175001D01*
G75*
G02*
X120784016Y-63425001I-250000J0D01*
G01*
X120284016Y-63425001D01*
G75*
G02*
X120034016Y-63175001I0J250000D01*
G01*
X120034016Y-62225001D01*
G75*
G02*
X120284016Y-61975001I250000J0D01*
G01*
X120784016Y-61975001D01*
G75*
G02*
X121034016Y-62225001I0J-250000D01*
G01*
G37*
%TD*%
%TO.C,C2*%
G36*
G01*
X124032016Y-55936001D02*
X124032016Y-54986001D01*
G75*
G02*
X124282016Y-54736001I250000J0D01*
G01*
X124782016Y-54736001D01*
G75*
G02*
X125032016Y-54986001I0J-250000D01*
G01*
X125032016Y-55936001D01*
G75*
G02*
X124782016Y-56186001I-250000J0D01*
G01*
X124282016Y-56186001D01*
G75*
G02*
X124032016Y-55936001I0J250000D01*
G01*
G37*
G36*
G01*
X125932016Y-55936001D02*
X125932016Y-54986001D01*
G75*
G02*
X126182016Y-54736001I250000J0D01*
G01*
X126682016Y-54736001D01*
G75*
G02*
X126932016Y-54986001I0J-250000D01*
G01*
X126932016Y-55936001D01*
G75*
G02*
X126682016Y-56186001I-250000J0D01*
G01*
X126182016Y-56186001D01*
G75*
G02*
X125932016Y-55936001I0J250000D01*
G01*
G37*
%TD*%
%TO.C,C3*%
G36*
G01*
X125163016Y-59747001D02*
X124663016Y-59747001D01*
G75*
G02*
X124438016Y-59522001I0J225000D01*
G01*
X124438016Y-59072001D01*
G75*
G02*
X124663016Y-58847001I225000J0D01*
G01*
X125163016Y-58847001D01*
G75*
G02*
X125388016Y-59072001I0J-225000D01*
G01*
X125388016Y-59522001D01*
G75*
G02*
X125163016Y-59747001I-225000J0D01*
G01*
G37*
G36*
G01*
X125163016Y-58197001D02*
X124663016Y-58197001D01*
G75*
G02*
X124438016Y-57972001I0J225000D01*
G01*
X124438016Y-57522001D01*
G75*
G02*
X124663016Y-57297001I225000J0D01*
G01*
X125163016Y-57297001D01*
G75*
G02*
X125388016Y-57522001I0J-225000D01*
G01*
X125388016Y-57972001D01*
G75*
G02*
X125163016Y-58197001I-225000J0D01*
G01*
G37*
%TD*%
%TO.C,C4*%
G36*
G01*
X126687016Y-59747001D02*
X126187016Y-59747001D01*
G75*
G02*
X125962016Y-59522001I0J225000D01*
G01*
X125962016Y-59072001D01*
G75*
G02*
X126187016Y-58847001I225000J0D01*
G01*
X126687016Y-58847001D01*
G75*
G02*
X126912016Y-59072001I0J-225000D01*
G01*
X126912016Y-59522001D01*
G75*
G02*
X126687016Y-59747001I-225000J0D01*
G01*
G37*
G36*
G01*
X126687016Y-58197001D02*
X126187016Y-58197001D01*
G75*
G02*
X125962016Y-57972001I0J225000D01*
G01*
X125962016Y-57522001D01*
G75*
G02*
X126187016Y-57297001I225000J0D01*
G01*
X126687016Y-57297001D01*
G75*
G02*
X126912016Y-57522001I0J-225000D01*
G01*
X126912016Y-57972001D01*
G75*
G02*
X126687016Y-58197001I-225000J0D01*
G01*
G37*
%TD*%
%TO.C,C5*%
G36*
G01*
X126306016Y-52952501D02*
X125806016Y-52952501D01*
G75*
G02*
X125581016Y-52727501I0J225000D01*
G01*
X125581016Y-52277501D01*
G75*
G02*
X125806016Y-52052501I225000J0D01*
G01*
X126306016Y-52052501D01*
G75*
G02*
X126531016Y-52277501I0J-225000D01*
G01*
X126531016Y-52727501D01*
G75*
G02*
X126306016Y-52952501I-225000J0D01*
G01*
G37*
G36*
G01*
X126306016Y-51402501D02*
X125806016Y-51402501D01*
G75*
G02*
X125581016Y-51177501I0J225000D01*
G01*
X125581016Y-50727501D01*
G75*
G02*
X125806016Y-50502501I225000J0D01*
G01*
X126306016Y-50502501D01*
G75*
G02*
X126531016Y-50727501I0J-225000D01*
G01*
X126531016Y-51177501D01*
G75*
G02*
X126306016Y-51402501I-225000J0D01*
G01*
G37*
%TD*%
%TO.C,R6*%
G36*
G01*
X127180016Y-51291001D02*
X127180016Y-50741001D01*
G75*
G02*
X127380016Y-50541001I200000J0D01*
G01*
X127780016Y-50541001D01*
G75*
G02*
X127980016Y-50741001I0J-200000D01*
G01*
X127980016Y-51291001D01*
G75*
G02*
X127780016Y-51491001I-200000J0D01*
G01*
X127380016Y-51491001D01*
G75*
G02*
X127180016Y-51291001I0J200000D01*
G01*
G37*
G36*
G01*
X128830016Y-51291001D02*
X128830016Y-50741001D01*
G75*
G02*
X129030016Y-50541001I200000J0D01*
G01*
X129430016Y-50541001D01*
G75*
G02*
X129630016Y-50741001I0J-200000D01*
G01*
X129630016Y-51291001D01*
G75*
G02*
X129430016Y-51491001I-200000J0D01*
G01*
X129030016Y-51491001D01*
G75*
G02*
X128830016Y-51291001I0J200000D01*
G01*
G37*
%TD*%
%TO.C,D1*%
G36*
G01*
X97658261Y-65093501D02*
X97145761Y-65093501D01*
G75*
G02*
X96927011Y-64874751I0J218750D01*
G01*
X96927011Y-64437251D01*
G75*
G02*
X97145761Y-64218501I218750J0D01*
G01*
X97658261Y-64218501D01*
G75*
G02*
X97877011Y-64437251I0J-218750D01*
G01*
X97877011Y-64874751D01*
G75*
G02*
X97658261Y-65093501I-218750J0D01*
G01*
G37*
G36*
G01*
X97658261Y-63518501D02*
X97145761Y-63518501D01*
G75*
G02*
X96927011Y-63299751I0J218750D01*
G01*
X96927011Y-62862251D01*
G75*
G02*
X97145761Y-62643501I218750J0D01*
G01*
X97658261Y-62643501D01*
G75*
G02*
X97877011Y-62862251I0J-218750D01*
G01*
X97877011Y-63299751D01*
G75*
G02*
X97658261Y-63518501I-218750J0D01*
G01*
G37*
%TD*%
%TO.C,D2*%
G36*
G01*
X96134261Y-65093501D02*
X95621761Y-65093501D01*
G75*
G02*
X95403011Y-64874751I0J218750D01*
G01*
X95403011Y-64437251D01*
G75*
G02*
X95621761Y-64218501I218750J0D01*
G01*
X96134261Y-64218501D01*
G75*
G02*
X96353011Y-64437251I0J-218750D01*
G01*
X96353011Y-64874751D01*
G75*
G02*
X96134261Y-65093501I-218750J0D01*
G01*
G37*
G36*
G01*
X96134261Y-63518501D02*
X95621761Y-63518501D01*
G75*
G02*
X95403011Y-63299751I0J218750D01*
G01*
X95403011Y-62862251D01*
G75*
G02*
X95621761Y-62643501I218750J0D01*
G01*
X96134261Y-62643501D01*
G75*
G02*
X96353011Y-62862251I0J-218750D01*
G01*
X96353011Y-63299751D01*
G75*
G02*
X96134261Y-63518501I-218750J0D01*
G01*
G37*
%TD*%
%TO.C,F1*%
G36*
G01*
X96424011Y-50695001D02*
X96424011Y-51845001D01*
G75*
G02*
X96174011Y-52095001I-250000J0D01*
G01*
X95074011Y-52095001D01*
G75*
G02*
X94824011Y-51845001I0J250000D01*
G01*
X94824011Y-50695001D01*
G75*
G02*
X95074011Y-50445001I250000J0D01*
G01*
X96174011Y-50445001D01*
G75*
G02*
X96424011Y-50695001I0J-250000D01*
G01*
G37*
G36*
G01*
X93574011Y-50695001D02*
X93574011Y-51845001D01*
G75*
G02*
X93324011Y-52095001I-250000J0D01*
G01*
X92224011Y-52095001D01*
G75*
G02*
X91974011Y-51845001I0J250000D01*
G01*
X91974011Y-50695001D01*
G75*
G02*
X92224011Y-50445001I250000J0D01*
G01*
X93324011Y-50445001D01*
G75*
G02*
X93574011Y-50695001I0J-250000D01*
G01*
G37*
%TD*%
D10*
%TO.C,IC1*%
X100704011Y-60497001D03*
X99434011Y-60497001D03*
X96894011Y-60497001D03*
X98164011Y-60497001D03*
X100704011Y-54997001D03*
X99434011Y-54997001D03*
X96894011Y-54997001D03*
X98164011Y-54997001D03*
D11*
X98799011Y-57747001D03*
%TD*%
D12*
%TO.C,Q1*%
X101090011Y-66510001D03*
X102990011Y-66510001D03*
X102040011Y-64510001D03*
%TD*%
%TO.C,R1*%
G36*
G01*
X98434011Y-61626001D02*
X98434011Y-61996001D01*
G75*
G02*
X98299011Y-62131001I-135000J0D01*
G01*
X98029011Y-62131001D01*
G75*
G02*
X97894011Y-61996001I0J135000D01*
G01*
X97894011Y-61626001D01*
G75*
G02*
X98029011Y-61491001I135000J0D01*
G01*
X98299011Y-61491001D01*
G75*
G02*
X98434011Y-61626001I0J-135000D01*
G01*
G37*
G36*
G01*
X97414011Y-61626001D02*
X97414011Y-61996001D01*
G75*
G02*
X97279011Y-62131001I-135000J0D01*
G01*
X97009011Y-62131001D01*
G75*
G02*
X96874011Y-61996001I0J135000D01*
G01*
X96874011Y-61626001D01*
G75*
G02*
X97009011Y-61491001I135000J0D01*
G01*
X97279011Y-61491001D01*
G75*
G02*
X97414011Y-61626001I0J-135000D01*
G01*
G37*
%TD*%
%TO.C,R2*%
G36*
G01*
X102413011Y-56243001D02*
X102043011Y-56243001D01*
G75*
G02*
X101908011Y-56108001I0J135000D01*
G01*
X101908011Y-55838001D01*
G75*
G02*
X102043011Y-55703001I135000J0D01*
G01*
X102413011Y-55703001D01*
G75*
G02*
X102548011Y-55838001I0J-135000D01*
G01*
X102548011Y-56108001D01*
G75*
G02*
X102413011Y-56243001I-135000J0D01*
G01*
G37*
G36*
G01*
X102413011Y-55223001D02*
X102043011Y-55223001D01*
G75*
G02*
X101908011Y-55088001I0J135000D01*
G01*
X101908011Y-54818001D01*
G75*
G02*
X102043011Y-54683001I135000J0D01*
G01*
X102413011Y-54683001D01*
G75*
G02*
X102548011Y-54818001I0J-135000D01*
G01*
X102548011Y-55088001D01*
G75*
G02*
X102413011Y-55223001I-135000J0D01*
G01*
G37*
%TD*%
%TO.C,R3*%
G36*
G01*
X94592011Y-55900001D02*
X94592011Y-55530001D01*
G75*
G02*
X94727011Y-55395001I135000J0D01*
G01*
X94997011Y-55395001D01*
G75*
G02*
X95132011Y-55530001I0J-135000D01*
G01*
X95132011Y-55900001D01*
G75*
G02*
X94997011Y-56035001I-135000J0D01*
G01*
X94727011Y-56035001D01*
G75*
G02*
X94592011Y-55900001I0J135000D01*
G01*
G37*
G36*
G01*
X95612011Y-55900001D02*
X95612011Y-55530001D01*
G75*
G02*
X95747011Y-55395001I135000J0D01*
G01*
X96017011Y-55395001D01*
G75*
G02*
X96152011Y-55530001I0J-135000D01*
G01*
X96152011Y-55900001D01*
G75*
G02*
X96017011Y-56035001I-135000J0D01*
G01*
X95747011Y-56035001D01*
G75*
G02*
X95612011Y-55900001I0J135000D01*
G01*
G37*
%TD*%
%TO.C,R4*%
G36*
G01*
X94793011Y-65133001D02*
X94423011Y-65133001D01*
G75*
G02*
X94288011Y-64998001I0J135000D01*
G01*
X94288011Y-64728001D01*
G75*
G02*
X94423011Y-64593001I135000J0D01*
G01*
X94793011Y-64593001D01*
G75*
G02*
X94928011Y-64728001I0J-135000D01*
G01*
X94928011Y-64998001D01*
G75*
G02*
X94793011Y-65133001I-135000J0D01*
G01*
G37*
G36*
G01*
X94793011Y-64113001D02*
X94423011Y-64113001D01*
G75*
G02*
X94288011Y-63978001I0J135000D01*
G01*
X94288011Y-63708001D01*
G75*
G02*
X94423011Y-63573001I135000J0D01*
G01*
X94793011Y-63573001D01*
G75*
G02*
X94928011Y-63708001I0J-135000D01*
G01*
X94928011Y-63978001D01*
G75*
G02*
X94793011Y-64113001I-135000J0D01*
G01*
G37*
%TD*%
%TO.C,R5*%
G36*
G01*
X106248511Y-53625001D02*
X106248511Y-53995001D01*
G75*
G02*
X106113511Y-54130001I-135000J0D01*
G01*
X105843511Y-54130001D01*
G75*
G02*
X105708511Y-53995001I0J135000D01*
G01*
X105708511Y-53625001D01*
G75*
G02*
X105843511Y-53490001I135000J0D01*
G01*
X106113511Y-53490001D01*
G75*
G02*
X106248511Y-53625001I0J-135000D01*
G01*
G37*
G36*
G01*
X105228511Y-53625001D02*
X105228511Y-53995001D01*
G75*
G02*
X105093511Y-54130001I-135000J0D01*
G01*
X104823511Y-54130001D01*
G75*
G02*
X104688511Y-53995001I0J135000D01*
G01*
X104688511Y-53625001D01*
G75*
G02*
X104823511Y-53490001I135000J0D01*
G01*
X105093511Y-53490001D01*
G75*
G02*
X105228511Y-53625001I0J-135000D01*
G01*
G37*
%TD*%
D13*
%TO.C,U1*%
X103371011Y-60927001D03*
X103371011Y-61877001D03*
X103371011Y-62827001D03*
X105571011Y-62827001D03*
X105571011Y-60927001D03*
%TD*%
%TO.C,U2*%
X101466011Y-51076001D03*
X101466011Y-52026001D03*
X101466011Y-52976001D03*
X103666011Y-52976001D03*
X103666011Y-51076001D03*
X103666011Y-52026001D03*
%TD*%
%TO.C,U3*%
X97656011Y-51076001D03*
X97656011Y-52026001D03*
X97656011Y-52976001D03*
X99856011Y-52976001D03*
X99856011Y-51076001D03*
X99856011Y-52026001D03*
%TD*%
D14*
%TO.C,D3*%
X96130011Y-66510001D03*
X92830011Y-66510001D03*
%TD*%
%TO.C,D4*%
X108070011Y-66510001D03*
X104770011Y-66510001D03*
%TD*%
%TO.C,C1*%
G36*
G01*
X102154011Y-62225001D02*
X102154011Y-63175001D01*
G75*
G02*
X101904011Y-63425001I-250000J0D01*
G01*
X101404011Y-63425001D01*
G75*
G02*
X101154011Y-63175001I0J250000D01*
G01*
X101154011Y-62225001D01*
G75*
G02*
X101404011Y-61975001I250000J0D01*
G01*
X101904011Y-61975001D01*
G75*
G02*
X102154011Y-62225001I0J-250000D01*
G01*
G37*
G36*
G01*
X100254011Y-62225001D02*
X100254011Y-63175001D01*
G75*
G02*
X100004011Y-63425001I-250000J0D01*
G01*
X99504011Y-63425001D01*
G75*
G02*
X99254011Y-63175001I0J250000D01*
G01*
X99254011Y-62225001D01*
G75*
G02*
X99504011Y-61975001I250000J0D01*
G01*
X100004011Y-61975001D01*
G75*
G02*
X100254011Y-62225001I0J-250000D01*
G01*
G37*
%TD*%
%TO.C,C2*%
G36*
G01*
X103252011Y-55936001D02*
X103252011Y-54986001D01*
G75*
G02*
X103502011Y-54736001I250000J0D01*
G01*
X104002011Y-54736001D01*
G75*
G02*
X104252011Y-54986001I0J-250000D01*
G01*
X104252011Y-55936001D01*
G75*
G02*
X104002011Y-56186001I-250000J0D01*
G01*
X103502011Y-56186001D01*
G75*
G02*
X103252011Y-55936001I0J250000D01*
G01*
G37*
G36*
G01*
X105152011Y-55936001D02*
X105152011Y-54986001D01*
G75*
G02*
X105402011Y-54736001I250000J0D01*
G01*
X105902011Y-54736001D01*
G75*
G02*
X106152011Y-54986001I0J-250000D01*
G01*
X106152011Y-55936001D01*
G75*
G02*
X105902011Y-56186001I-250000J0D01*
G01*
X105402011Y-56186001D01*
G75*
G02*
X105152011Y-55936001I0J250000D01*
G01*
G37*
%TD*%
%TO.C,C3*%
G36*
G01*
X104383011Y-59747001D02*
X103883011Y-59747001D01*
G75*
G02*
X103658011Y-59522001I0J225000D01*
G01*
X103658011Y-59072001D01*
G75*
G02*
X103883011Y-58847001I225000J0D01*
G01*
X104383011Y-58847001D01*
G75*
G02*
X104608011Y-59072001I0J-225000D01*
G01*
X104608011Y-59522001D01*
G75*
G02*
X104383011Y-59747001I-225000J0D01*
G01*
G37*
G36*
G01*
X104383011Y-58197001D02*
X103883011Y-58197001D01*
G75*
G02*
X103658011Y-57972001I0J225000D01*
G01*
X103658011Y-57522001D01*
G75*
G02*
X103883011Y-57297001I225000J0D01*
G01*
X104383011Y-57297001D01*
G75*
G02*
X104608011Y-57522001I0J-225000D01*
G01*
X104608011Y-57972001D01*
G75*
G02*
X104383011Y-58197001I-225000J0D01*
G01*
G37*
%TD*%
%TO.C,C4*%
G36*
G01*
X105907011Y-59747001D02*
X105407011Y-59747001D01*
G75*
G02*
X105182011Y-59522001I0J225000D01*
G01*
X105182011Y-59072001D01*
G75*
G02*
X105407011Y-58847001I225000J0D01*
G01*
X105907011Y-58847001D01*
G75*
G02*
X106132011Y-59072001I0J-225000D01*
G01*
X106132011Y-59522001D01*
G75*
G02*
X105907011Y-59747001I-225000J0D01*
G01*
G37*
G36*
G01*
X105907011Y-58197001D02*
X105407011Y-58197001D01*
G75*
G02*
X105182011Y-57972001I0J225000D01*
G01*
X105182011Y-57522001D01*
G75*
G02*
X105407011Y-57297001I225000J0D01*
G01*
X105907011Y-57297001D01*
G75*
G02*
X106132011Y-57522001I0J-225000D01*
G01*
X106132011Y-57972001D01*
G75*
G02*
X105907011Y-58197001I-225000J0D01*
G01*
G37*
%TD*%
%TO.C,C5*%
G36*
G01*
X105526011Y-52952501D02*
X105026011Y-52952501D01*
G75*
G02*
X104801011Y-52727501I0J225000D01*
G01*
X104801011Y-52277501D01*
G75*
G02*
X105026011Y-52052501I225000J0D01*
G01*
X105526011Y-52052501D01*
G75*
G02*
X105751011Y-52277501I0J-225000D01*
G01*
X105751011Y-52727501D01*
G75*
G02*
X105526011Y-52952501I-225000J0D01*
G01*
G37*
G36*
G01*
X105526011Y-51402501D02*
X105026011Y-51402501D01*
G75*
G02*
X104801011Y-51177501I0J225000D01*
G01*
X104801011Y-50727501D01*
G75*
G02*
X105026011Y-50502501I225000J0D01*
G01*
X105526011Y-50502501D01*
G75*
G02*
X105751011Y-50727501I0J-225000D01*
G01*
X105751011Y-51177501D01*
G75*
G02*
X105526011Y-51402501I-225000J0D01*
G01*
G37*
%TD*%
%TO.C,R6*%
G36*
G01*
X106400011Y-51291001D02*
X106400011Y-50741001D01*
G75*
G02*
X106600011Y-50541001I200000J0D01*
G01*
X107000011Y-50541001D01*
G75*
G02*
X107200011Y-50741001I0J-200000D01*
G01*
X107200011Y-51291001D01*
G75*
G02*
X107000011Y-51491001I-200000J0D01*
G01*
X106600011Y-51491001D01*
G75*
G02*
X106400011Y-51291001I0J200000D01*
G01*
G37*
G36*
G01*
X108050011Y-51291001D02*
X108050011Y-50741001D01*
G75*
G02*
X108250011Y-50541001I200000J0D01*
G01*
X108650011Y-50541001D01*
G75*
G02*
X108850011Y-50741001I0J-200000D01*
G01*
X108850011Y-51291001D01*
G75*
G02*
X108650011Y-51491001I-200000J0D01*
G01*
X108250011Y-51491001D01*
G75*
G02*
X108050011Y-51291001I0J200000D01*
G01*
G37*
%TD*%
%TO.C,D1*%
G36*
G01*
X76878256Y-65093501D02*
X76365756Y-65093501D01*
G75*
G02*
X76147006Y-64874751I0J218750D01*
G01*
X76147006Y-64437251D01*
G75*
G02*
X76365756Y-64218501I218750J0D01*
G01*
X76878256Y-64218501D01*
G75*
G02*
X77097006Y-64437251I0J-218750D01*
G01*
X77097006Y-64874751D01*
G75*
G02*
X76878256Y-65093501I-218750J0D01*
G01*
G37*
G36*
G01*
X76878256Y-63518501D02*
X76365756Y-63518501D01*
G75*
G02*
X76147006Y-63299751I0J218750D01*
G01*
X76147006Y-62862251D01*
G75*
G02*
X76365756Y-62643501I218750J0D01*
G01*
X76878256Y-62643501D01*
G75*
G02*
X77097006Y-62862251I0J-218750D01*
G01*
X77097006Y-63299751D01*
G75*
G02*
X76878256Y-63518501I-218750J0D01*
G01*
G37*
%TD*%
%TO.C,D2*%
G36*
G01*
X75354256Y-65093501D02*
X74841756Y-65093501D01*
G75*
G02*
X74623006Y-64874751I0J218750D01*
G01*
X74623006Y-64437251D01*
G75*
G02*
X74841756Y-64218501I218750J0D01*
G01*
X75354256Y-64218501D01*
G75*
G02*
X75573006Y-64437251I0J-218750D01*
G01*
X75573006Y-64874751D01*
G75*
G02*
X75354256Y-65093501I-218750J0D01*
G01*
G37*
G36*
G01*
X75354256Y-63518501D02*
X74841756Y-63518501D01*
G75*
G02*
X74623006Y-63299751I0J218750D01*
G01*
X74623006Y-62862251D01*
G75*
G02*
X74841756Y-62643501I218750J0D01*
G01*
X75354256Y-62643501D01*
G75*
G02*
X75573006Y-62862251I0J-218750D01*
G01*
X75573006Y-63299751D01*
G75*
G02*
X75354256Y-63518501I-218750J0D01*
G01*
G37*
%TD*%
%TO.C,F1*%
G36*
G01*
X75644006Y-50695001D02*
X75644006Y-51845001D01*
G75*
G02*
X75394006Y-52095001I-250000J0D01*
G01*
X74294006Y-52095001D01*
G75*
G02*
X74044006Y-51845001I0J250000D01*
G01*
X74044006Y-50695001D01*
G75*
G02*
X74294006Y-50445001I250000J0D01*
G01*
X75394006Y-50445001D01*
G75*
G02*
X75644006Y-50695001I0J-250000D01*
G01*
G37*
G36*
G01*
X72794006Y-50695001D02*
X72794006Y-51845001D01*
G75*
G02*
X72544006Y-52095001I-250000J0D01*
G01*
X71444006Y-52095001D01*
G75*
G02*
X71194006Y-51845001I0J250000D01*
G01*
X71194006Y-50695001D01*
G75*
G02*
X71444006Y-50445001I250000J0D01*
G01*
X72544006Y-50445001D01*
G75*
G02*
X72794006Y-50695001I0J-250000D01*
G01*
G37*
%TD*%
D10*
%TO.C,IC1*%
X79924006Y-60497001D03*
X78654006Y-60497001D03*
X76114006Y-60497001D03*
X77384006Y-60497001D03*
X79924006Y-54997001D03*
X78654006Y-54997001D03*
X76114006Y-54997001D03*
X77384006Y-54997001D03*
D11*
X78019006Y-57747001D03*
%TD*%
D12*
%TO.C,Q1*%
X80310006Y-66510001D03*
X82210006Y-66510001D03*
X81260006Y-64510001D03*
%TD*%
%TO.C,R1*%
G36*
G01*
X77654006Y-61626001D02*
X77654006Y-61996001D01*
G75*
G02*
X77519006Y-62131001I-135000J0D01*
G01*
X77249006Y-62131001D01*
G75*
G02*
X77114006Y-61996001I0J135000D01*
G01*
X77114006Y-61626001D01*
G75*
G02*
X77249006Y-61491001I135000J0D01*
G01*
X77519006Y-61491001D01*
G75*
G02*
X77654006Y-61626001I0J-135000D01*
G01*
G37*
G36*
G01*
X76634006Y-61626001D02*
X76634006Y-61996001D01*
G75*
G02*
X76499006Y-62131001I-135000J0D01*
G01*
X76229006Y-62131001D01*
G75*
G02*
X76094006Y-61996001I0J135000D01*
G01*
X76094006Y-61626001D01*
G75*
G02*
X76229006Y-61491001I135000J0D01*
G01*
X76499006Y-61491001D01*
G75*
G02*
X76634006Y-61626001I0J-135000D01*
G01*
G37*
%TD*%
%TO.C,R2*%
G36*
G01*
X81633006Y-56243001D02*
X81263006Y-56243001D01*
G75*
G02*
X81128006Y-56108001I0J135000D01*
G01*
X81128006Y-55838001D01*
G75*
G02*
X81263006Y-55703001I135000J0D01*
G01*
X81633006Y-55703001D01*
G75*
G02*
X81768006Y-55838001I0J-135000D01*
G01*
X81768006Y-56108001D01*
G75*
G02*
X81633006Y-56243001I-135000J0D01*
G01*
G37*
G36*
G01*
X81633006Y-55223001D02*
X81263006Y-55223001D01*
G75*
G02*
X81128006Y-55088001I0J135000D01*
G01*
X81128006Y-54818001D01*
G75*
G02*
X81263006Y-54683001I135000J0D01*
G01*
X81633006Y-54683001D01*
G75*
G02*
X81768006Y-54818001I0J-135000D01*
G01*
X81768006Y-55088001D01*
G75*
G02*
X81633006Y-55223001I-135000J0D01*
G01*
G37*
%TD*%
%TO.C,R3*%
G36*
G01*
X73812006Y-55900001D02*
X73812006Y-55530001D01*
G75*
G02*
X73947006Y-55395001I135000J0D01*
G01*
X74217006Y-55395001D01*
G75*
G02*
X74352006Y-55530001I0J-135000D01*
G01*
X74352006Y-55900001D01*
G75*
G02*
X74217006Y-56035001I-135000J0D01*
G01*
X73947006Y-56035001D01*
G75*
G02*
X73812006Y-55900001I0J135000D01*
G01*
G37*
G36*
G01*
X74832006Y-55900001D02*
X74832006Y-55530001D01*
G75*
G02*
X74967006Y-55395001I135000J0D01*
G01*
X75237006Y-55395001D01*
G75*
G02*
X75372006Y-55530001I0J-135000D01*
G01*
X75372006Y-55900001D01*
G75*
G02*
X75237006Y-56035001I-135000J0D01*
G01*
X74967006Y-56035001D01*
G75*
G02*
X74832006Y-55900001I0J135000D01*
G01*
G37*
%TD*%
%TO.C,R4*%
G36*
G01*
X74013006Y-65133001D02*
X73643006Y-65133001D01*
G75*
G02*
X73508006Y-64998001I0J135000D01*
G01*
X73508006Y-64728001D01*
G75*
G02*
X73643006Y-64593001I135000J0D01*
G01*
X74013006Y-64593001D01*
G75*
G02*
X74148006Y-64728001I0J-135000D01*
G01*
X74148006Y-64998001D01*
G75*
G02*
X74013006Y-65133001I-135000J0D01*
G01*
G37*
G36*
G01*
X74013006Y-64113001D02*
X73643006Y-64113001D01*
G75*
G02*
X73508006Y-63978001I0J135000D01*
G01*
X73508006Y-63708001D01*
G75*
G02*
X73643006Y-63573001I135000J0D01*
G01*
X74013006Y-63573001D01*
G75*
G02*
X74148006Y-63708001I0J-135000D01*
G01*
X74148006Y-63978001D01*
G75*
G02*
X74013006Y-64113001I-135000J0D01*
G01*
G37*
%TD*%
%TO.C,R5*%
G36*
G01*
X85468506Y-53625001D02*
X85468506Y-53995001D01*
G75*
G02*
X85333506Y-54130001I-135000J0D01*
G01*
X85063506Y-54130001D01*
G75*
G02*
X84928506Y-53995001I0J135000D01*
G01*
X84928506Y-53625001D01*
G75*
G02*
X85063506Y-53490001I135000J0D01*
G01*
X85333506Y-53490001D01*
G75*
G02*
X85468506Y-53625001I0J-135000D01*
G01*
G37*
G36*
G01*
X84448506Y-53625001D02*
X84448506Y-53995001D01*
G75*
G02*
X84313506Y-54130001I-135000J0D01*
G01*
X84043506Y-54130001D01*
G75*
G02*
X83908506Y-53995001I0J135000D01*
G01*
X83908506Y-53625001D01*
G75*
G02*
X84043506Y-53490001I135000J0D01*
G01*
X84313506Y-53490001D01*
G75*
G02*
X84448506Y-53625001I0J-135000D01*
G01*
G37*
%TD*%
D13*
%TO.C,U1*%
X82591006Y-60927001D03*
X82591006Y-61877001D03*
X82591006Y-62827001D03*
X84791006Y-62827001D03*
X84791006Y-60927001D03*
%TD*%
%TO.C,U2*%
X80686006Y-51076001D03*
X80686006Y-52026001D03*
X80686006Y-52976001D03*
X82886006Y-52976001D03*
X82886006Y-51076001D03*
X82886006Y-52026001D03*
%TD*%
%TO.C,U3*%
X76876006Y-51076001D03*
X76876006Y-52026001D03*
X76876006Y-52976001D03*
X79076006Y-52976001D03*
X79076006Y-51076001D03*
X79076006Y-52026001D03*
%TD*%
D14*
%TO.C,D3*%
X75350006Y-66510001D03*
X72050006Y-66510001D03*
%TD*%
%TO.C,D4*%
X87290006Y-66510001D03*
X83990006Y-66510001D03*
%TD*%
%TO.C,C1*%
G36*
G01*
X81374006Y-62225001D02*
X81374006Y-63175001D01*
G75*
G02*
X81124006Y-63425001I-250000J0D01*
G01*
X80624006Y-63425001D01*
G75*
G02*
X80374006Y-63175001I0J250000D01*
G01*
X80374006Y-62225001D01*
G75*
G02*
X80624006Y-61975001I250000J0D01*
G01*
X81124006Y-61975001D01*
G75*
G02*
X81374006Y-62225001I0J-250000D01*
G01*
G37*
G36*
G01*
X79474006Y-62225001D02*
X79474006Y-63175001D01*
G75*
G02*
X79224006Y-63425001I-250000J0D01*
G01*
X78724006Y-63425001D01*
G75*
G02*
X78474006Y-63175001I0J250000D01*
G01*
X78474006Y-62225001D01*
G75*
G02*
X78724006Y-61975001I250000J0D01*
G01*
X79224006Y-61975001D01*
G75*
G02*
X79474006Y-62225001I0J-250000D01*
G01*
G37*
%TD*%
%TO.C,C2*%
G36*
G01*
X82472006Y-55936001D02*
X82472006Y-54986001D01*
G75*
G02*
X82722006Y-54736001I250000J0D01*
G01*
X83222006Y-54736001D01*
G75*
G02*
X83472006Y-54986001I0J-250000D01*
G01*
X83472006Y-55936001D01*
G75*
G02*
X83222006Y-56186001I-250000J0D01*
G01*
X82722006Y-56186001D01*
G75*
G02*
X82472006Y-55936001I0J250000D01*
G01*
G37*
G36*
G01*
X84372006Y-55936001D02*
X84372006Y-54986001D01*
G75*
G02*
X84622006Y-54736001I250000J0D01*
G01*
X85122006Y-54736001D01*
G75*
G02*
X85372006Y-54986001I0J-250000D01*
G01*
X85372006Y-55936001D01*
G75*
G02*
X85122006Y-56186001I-250000J0D01*
G01*
X84622006Y-56186001D01*
G75*
G02*
X84372006Y-55936001I0J250000D01*
G01*
G37*
%TD*%
%TO.C,C3*%
G36*
G01*
X83603006Y-59747001D02*
X83103006Y-59747001D01*
G75*
G02*
X82878006Y-59522001I0J225000D01*
G01*
X82878006Y-59072001D01*
G75*
G02*
X83103006Y-58847001I225000J0D01*
G01*
X83603006Y-58847001D01*
G75*
G02*
X83828006Y-59072001I0J-225000D01*
G01*
X83828006Y-59522001D01*
G75*
G02*
X83603006Y-59747001I-225000J0D01*
G01*
G37*
G36*
G01*
X83603006Y-58197001D02*
X83103006Y-58197001D01*
G75*
G02*
X82878006Y-57972001I0J225000D01*
G01*
X82878006Y-57522001D01*
G75*
G02*
X83103006Y-57297001I225000J0D01*
G01*
X83603006Y-57297001D01*
G75*
G02*
X83828006Y-57522001I0J-225000D01*
G01*
X83828006Y-57972001D01*
G75*
G02*
X83603006Y-58197001I-225000J0D01*
G01*
G37*
%TD*%
%TO.C,C4*%
G36*
G01*
X85127006Y-59747001D02*
X84627006Y-59747001D01*
G75*
G02*
X84402006Y-59522001I0J225000D01*
G01*
X84402006Y-59072001D01*
G75*
G02*
X84627006Y-58847001I225000J0D01*
G01*
X85127006Y-58847001D01*
G75*
G02*
X85352006Y-59072001I0J-225000D01*
G01*
X85352006Y-59522001D01*
G75*
G02*
X85127006Y-59747001I-225000J0D01*
G01*
G37*
G36*
G01*
X85127006Y-58197001D02*
X84627006Y-58197001D01*
G75*
G02*
X84402006Y-57972001I0J225000D01*
G01*
X84402006Y-57522001D01*
G75*
G02*
X84627006Y-57297001I225000J0D01*
G01*
X85127006Y-57297001D01*
G75*
G02*
X85352006Y-57522001I0J-225000D01*
G01*
X85352006Y-57972001D01*
G75*
G02*
X85127006Y-58197001I-225000J0D01*
G01*
G37*
%TD*%
%TO.C,C5*%
G36*
G01*
X84746006Y-52952501D02*
X84246006Y-52952501D01*
G75*
G02*
X84021006Y-52727501I0J225000D01*
G01*
X84021006Y-52277501D01*
G75*
G02*
X84246006Y-52052501I225000J0D01*
G01*
X84746006Y-52052501D01*
G75*
G02*
X84971006Y-52277501I0J-225000D01*
G01*
X84971006Y-52727501D01*
G75*
G02*
X84746006Y-52952501I-225000J0D01*
G01*
G37*
G36*
G01*
X84746006Y-51402501D02*
X84246006Y-51402501D01*
G75*
G02*
X84021006Y-51177501I0J225000D01*
G01*
X84021006Y-50727501D01*
G75*
G02*
X84246006Y-50502501I225000J0D01*
G01*
X84746006Y-50502501D01*
G75*
G02*
X84971006Y-50727501I0J-225000D01*
G01*
X84971006Y-51177501D01*
G75*
G02*
X84746006Y-51402501I-225000J0D01*
G01*
G37*
%TD*%
%TO.C,R6*%
G36*
G01*
X85620006Y-51291001D02*
X85620006Y-50741001D01*
G75*
G02*
X85820006Y-50541001I200000J0D01*
G01*
X86220006Y-50541001D01*
G75*
G02*
X86420006Y-50741001I0J-200000D01*
G01*
X86420006Y-51291001D01*
G75*
G02*
X86220006Y-51491001I-200000J0D01*
G01*
X85820006Y-51491001D01*
G75*
G02*
X85620006Y-51291001I0J200000D01*
G01*
G37*
G36*
G01*
X87270006Y-51291001D02*
X87270006Y-50741001D01*
G75*
G02*
X87470006Y-50541001I200000J0D01*
G01*
X87870006Y-50541001D01*
G75*
G02*
X88070006Y-50741001I0J-200000D01*
G01*
X88070006Y-51291001D01*
G75*
G02*
X87870006Y-51491001I-200000J0D01*
G01*
X87470006Y-51491001D01*
G75*
G02*
X87270006Y-51291001I0J200000D01*
G01*
G37*
%TD*%
%TO.C,D1*%
G36*
G01*
X56098251Y-65093501D02*
X55585751Y-65093501D01*
G75*
G02*
X55367001Y-64874751I0J218750D01*
G01*
X55367001Y-64437251D01*
G75*
G02*
X55585751Y-64218501I218750J0D01*
G01*
X56098251Y-64218501D01*
G75*
G02*
X56317001Y-64437251I0J-218750D01*
G01*
X56317001Y-64874751D01*
G75*
G02*
X56098251Y-65093501I-218750J0D01*
G01*
G37*
G36*
G01*
X56098251Y-63518501D02*
X55585751Y-63518501D01*
G75*
G02*
X55367001Y-63299751I0J218750D01*
G01*
X55367001Y-62862251D01*
G75*
G02*
X55585751Y-62643501I218750J0D01*
G01*
X56098251Y-62643501D01*
G75*
G02*
X56317001Y-62862251I0J-218750D01*
G01*
X56317001Y-63299751D01*
G75*
G02*
X56098251Y-63518501I-218750J0D01*
G01*
G37*
%TD*%
%TO.C,D2*%
G36*
G01*
X54574251Y-65093501D02*
X54061751Y-65093501D01*
G75*
G02*
X53843001Y-64874751I0J218750D01*
G01*
X53843001Y-64437251D01*
G75*
G02*
X54061751Y-64218501I218750J0D01*
G01*
X54574251Y-64218501D01*
G75*
G02*
X54793001Y-64437251I0J-218750D01*
G01*
X54793001Y-64874751D01*
G75*
G02*
X54574251Y-65093501I-218750J0D01*
G01*
G37*
G36*
G01*
X54574251Y-63518501D02*
X54061751Y-63518501D01*
G75*
G02*
X53843001Y-63299751I0J218750D01*
G01*
X53843001Y-62862251D01*
G75*
G02*
X54061751Y-62643501I218750J0D01*
G01*
X54574251Y-62643501D01*
G75*
G02*
X54793001Y-62862251I0J-218750D01*
G01*
X54793001Y-63299751D01*
G75*
G02*
X54574251Y-63518501I-218750J0D01*
G01*
G37*
%TD*%
%TO.C,F1*%
G36*
G01*
X54864001Y-50695001D02*
X54864001Y-51845001D01*
G75*
G02*
X54614001Y-52095001I-250000J0D01*
G01*
X53514001Y-52095001D01*
G75*
G02*
X53264001Y-51845001I0J250000D01*
G01*
X53264001Y-50695001D01*
G75*
G02*
X53514001Y-50445001I250000J0D01*
G01*
X54614001Y-50445001D01*
G75*
G02*
X54864001Y-50695001I0J-250000D01*
G01*
G37*
G36*
G01*
X52014001Y-50695001D02*
X52014001Y-51845001D01*
G75*
G02*
X51764001Y-52095001I-250000J0D01*
G01*
X50664001Y-52095001D01*
G75*
G02*
X50414001Y-51845001I0J250000D01*
G01*
X50414001Y-50695001D01*
G75*
G02*
X50664001Y-50445001I250000J0D01*
G01*
X51764001Y-50445001D01*
G75*
G02*
X52014001Y-50695001I0J-250000D01*
G01*
G37*
%TD*%
D10*
%TO.C,IC1*%
X59144001Y-60497001D03*
X57874001Y-60497001D03*
X55334001Y-60497001D03*
X56604001Y-60497001D03*
X59144001Y-54997001D03*
X57874001Y-54997001D03*
X55334001Y-54997001D03*
X56604001Y-54997001D03*
D11*
X57239001Y-57747001D03*
%TD*%
D12*
%TO.C,Q1*%
X59530001Y-66510001D03*
X61430001Y-66510001D03*
X60480001Y-64510001D03*
%TD*%
%TO.C,R1*%
G36*
G01*
X56874001Y-61626001D02*
X56874001Y-61996001D01*
G75*
G02*
X56739001Y-62131001I-135000J0D01*
G01*
X56469001Y-62131001D01*
G75*
G02*
X56334001Y-61996001I0J135000D01*
G01*
X56334001Y-61626001D01*
G75*
G02*
X56469001Y-61491001I135000J0D01*
G01*
X56739001Y-61491001D01*
G75*
G02*
X56874001Y-61626001I0J-135000D01*
G01*
G37*
G36*
G01*
X55854001Y-61626001D02*
X55854001Y-61996001D01*
G75*
G02*
X55719001Y-62131001I-135000J0D01*
G01*
X55449001Y-62131001D01*
G75*
G02*
X55314001Y-61996001I0J135000D01*
G01*
X55314001Y-61626001D01*
G75*
G02*
X55449001Y-61491001I135000J0D01*
G01*
X55719001Y-61491001D01*
G75*
G02*
X55854001Y-61626001I0J-135000D01*
G01*
G37*
%TD*%
%TO.C,R2*%
G36*
G01*
X60853001Y-56243001D02*
X60483001Y-56243001D01*
G75*
G02*
X60348001Y-56108001I0J135000D01*
G01*
X60348001Y-55838001D01*
G75*
G02*
X60483001Y-55703001I135000J0D01*
G01*
X60853001Y-55703001D01*
G75*
G02*
X60988001Y-55838001I0J-135000D01*
G01*
X60988001Y-56108001D01*
G75*
G02*
X60853001Y-56243001I-135000J0D01*
G01*
G37*
G36*
G01*
X60853001Y-55223001D02*
X60483001Y-55223001D01*
G75*
G02*
X60348001Y-55088001I0J135000D01*
G01*
X60348001Y-54818001D01*
G75*
G02*
X60483001Y-54683001I135000J0D01*
G01*
X60853001Y-54683001D01*
G75*
G02*
X60988001Y-54818001I0J-135000D01*
G01*
X60988001Y-55088001D01*
G75*
G02*
X60853001Y-55223001I-135000J0D01*
G01*
G37*
%TD*%
%TO.C,R3*%
G36*
G01*
X53032001Y-55900001D02*
X53032001Y-55530001D01*
G75*
G02*
X53167001Y-55395001I135000J0D01*
G01*
X53437001Y-55395001D01*
G75*
G02*
X53572001Y-55530001I0J-135000D01*
G01*
X53572001Y-55900001D01*
G75*
G02*
X53437001Y-56035001I-135000J0D01*
G01*
X53167001Y-56035001D01*
G75*
G02*
X53032001Y-55900001I0J135000D01*
G01*
G37*
G36*
G01*
X54052001Y-55900001D02*
X54052001Y-55530001D01*
G75*
G02*
X54187001Y-55395001I135000J0D01*
G01*
X54457001Y-55395001D01*
G75*
G02*
X54592001Y-55530001I0J-135000D01*
G01*
X54592001Y-55900001D01*
G75*
G02*
X54457001Y-56035001I-135000J0D01*
G01*
X54187001Y-56035001D01*
G75*
G02*
X54052001Y-55900001I0J135000D01*
G01*
G37*
%TD*%
%TO.C,R4*%
G36*
G01*
X53233001Y-65133001D02*
X52863001Y-65133001D01*
G75*
G02*
X52728001Y-64998001I0J135000D01*
G01*
X52728001Y-64728001D01*
G75*
G02*
X52863001Y-64593001I135000J0D01*
G01*
X53233001Y-64593001D01*
G75*
G02*
X53368001Y-64728001I0J-135000D01*
G01*
X53368001Y-64998001D01*
G75*
G02*
X53233001Y-65133001I-135000J0D01*
G01*
G37*
G36*
G01*
X53233001Y-64113001D02*
X52863001Y-64113001D01*
G75*
G02*
X52728001Y-63978001I0J135000D01*
G01*
X52728001Y-63708001D01*
G75*
G02*
X52863001Y-63573001I135000J0D01*
G01*
X53233001Y-63573001D01*
G75*
G02*
X53368001Y-63708001I0J-135000D01*
G01*
X53368001Y-63978001D01*
G75*
G02*
X53233001Y-64113001I-135000J0D01*
G01*
G37*
%TD*%
%TO.C,R5*%
G36*
G01*
X64688501Y-53625001D02*
X64688501Y-53995001D01*
G75*
G02*
X64553501Y-54130001I-135000J0D01*
G01*
X64283501Y-54130001D01*
G75*
G02*
X64148501Y-53995001I0J135000D01*
G01*
X64148501Y-53625001D01*
G75*
G02*
X64283501Y-53490001I135000J0D01*
G01*
X64553501Y-53490001D01*
G75*
G02*
X64688501Y-53625001I0J-135000D01*
G01*
G37*
G36*
G01*
X63668501Y-53625001D02*
X63668501Y-53995001D01*
G75*
G02*
X63533501Y-54130001I-135000J0D01*
G01*
X63263501Y-54130001D01*
G75*
G02*
X63128501Y-53995001I0J135000D01*
G01*
X63128501Y-53625001D01*
G75*
G02*
X63263501Y-53490001I135000J0D01*
G01*
X63533501Y-53490001D01*
G75*
G02*
X63668501Y-53625001I0J-135000D01*
G01*
G37*
%TD*%
D13*
%TO.C,U1*%
X61811001Y-60927001D03*
X61811001Y-61877001D03*
X61811001Y-62827001D03*
X64011001Y-62827001D03*
X64011001Y-60927001D03*
%TD*%
%TO.C,U2*%
X59906001Y-51076001D03*
X59906001Y-52026001D03*
X59906001Y-52976001D03*
X62106001Y-52976001D03*
X62106001Y-51076001D03*
X62106001Y-52026001D03*
%TD*%
%TO.C,U3*%
X56096001Y-51076001D03*
X56096001Y-52026001D03*
X56096001Y-52976001D03*
X58296001Y-52976001D03*
X58296001Y-51076001D03*
X58296001Y-52026001D03*
%TD*%
D14*
%TO.C,D3*%
X54570001Y-66510001D03*
X51270001Y-66510001D03*
%TD*%
%TO.C,D4*%
X66510001Y-66510001D03*
X63210001Y-66510001D03*
%TD*%
%TO.C,C1*%
G36*
G01*
X60594001Y-62225001D02*
X60594001Y-63175001D01*
G75*
G02*
X60344001Y-63425001I-250000J0D01*
G01*
X59844001Y-63425001D01*
G75*
G02*
X59594001Y-63175001I0J250000D01*
G01*
X59594001Y-62225001D01*
G75*
G02*
X59844001Y-61975001I250000J0D01*
G01*
X60344001Y-61975001D01*
G75*
G02*
X60594001Y-62225001I0J-250000D01*
G01*
G37*
G36*
G01*
X58694001Y-62225001D02*
X58694001Y-63175001D01*
G75*
G02*
X58444001Y-63425001I-250000J0D01*
G01*
X57944001Y-63425001D01*
G75*
G02*
X57694001Y-63175001I0J250000D01*
G01*
X57694001Y-62225001D01*
G75*
G02*
X57944001Y-61975001I250000J0D01*
G01*
X58444001Y-61975001D01*
G75*
G02*
X58694001Y-62225001I0J-250000D01*
G01*
G37*
%TD*%
%TO.C,C2*%
G36*
G01*
X61692001Y-55936001D02*
X61692001Y-54986001D01*
G75*
G02*
X61942001Y-54736001I250000J0D01*
G01*
X62442001Y-54736001D01*
G75*
G02*
X62692001Y-54986001I0J-250000D01*
G01*
X62692001Y-55936001D01*
G75*
G02*
X62442001Y-56186001I-250000J0D01*
G01*
X61942001Y-56186001D01*
G75*
G02*
X61692001Y-55936001I0J250000D01*
G01*
G37*
G36*
G01*
X63592001Y-55936001D02*
X63592001Y-54986001D01*
G75*
G02*
X63842001Y-54736001I250000J0D01*
G01*
X64342001Y-54736001D01*
G75*
G02*
X64592001Y-54986001I0J-250000D01*
G01*
X64592001Y-55936001D01*
G75*
G02*
X64342001Y-56186001I-250000J0D01*
G01*
X63842001Y-56186001D01*
G75*
G02*
X63592001Y-55936001I0J250000D01*
G01*
G37*
%TD*%
%TO.C,C3*%
G36*
G01*
X62823001Y-59747001D02*
X62323001Y-59747001D01*
G75*
G02*
X62098001Y-59522001I0J225000D01*
G01*
X62098001Y-59072001D01*
G75*
G02*
X62323001Y-58847001I225000J0D01*
G01*
X62823001Y-58847001D01*
G75*
G02*
X63048001Y-59072001I0J-225000D01*
G01*
X63048001Y-59522001D01*
G75*
G02*
X62823001Y-59747001I-225000J0D01*
G01*
G37*
G36*
G01*
X62823001Y-58197001D02*
X62323001Y-58197001D01*
G75*
G02*
X62098001Y-57972001I0J225000D01*
G01*
X62098001Y-57522001D01*
G75*
G02*
X62323001Y-57297001I225000J0D01*
G01*
X62823001Y-57297001D01*
G75*
G02*
X63048001Y-57522001I0J-225000D01*
G01*
X63048001Y-57972001D01*
G75*
G02*
X62823001Y-58197001I-225000J0D01*
G01*
G37*
%TD*%
%TO.C,C4*%
G36*
G01*
X64347001Y-59747001D02*
X63847001Y-59747001D01*
G75*
G02*
X63622001Y-59522001I0J225000D01*
G01*
X63622001Y-59072001D01*
G75*
G02*
X63847001Y-58847001I225000J0D01*
G01*
X64347001Y-58847001D01*
G75*
G02*
X64572001Y-59072001I0J-225000D01*
G01*
X64572001Y-59522001D01*
G75*
G02*
X64347001Y-59747001I-225000J0D01*
G01*
G37*
G36*
G01*
X64347001Y-58197001D02*
X63847001Y-58197001D01*
G75*
G02*
X63622001Y-57972001I0J225000D01*
G01*
X63622001Y-57522001D01*
G75*
G02*
X63847001Y-57297001I225000J0D01*
G01*
X64347001Y-57297001D01*
G75*
G02*
X64572001Y-57522001I0J-225000D01*
G01*
X64572001Y-57972001D01*
G75*
G02*
X64347001Y-58197001I-225000J0D01*
G01*
G37*
%TD*%
%TO.C,C5*%
G36*
G01*
X63966001Y-52952501D02*
X63466001Y-52952501D01*
G75*
G02*
X63241001Y-52727501I0J225000D01*
G01*
X63241001Y-52277501D01*
G75*
G02*
X63466001Y-52052501I225000J0D01*
G01*
X63966001Y-52052501D01*
G75*
G02*
X64191001Y-52277501I0J-225000D01*
G01*
X64191001Y-52727501D01*
G75*
G02*
X63966001Y-52952501I-225000J0D01*
G01*
G37*
G36*
G01*
X63966001Y-51402501D02*
X63466001Y-51402501D01*
G75*
G02*
X63241001Y-51177501I0J225000D01*
G01*
X63241001Y-50727501D01*
G75*
G02*
X63466001Y-50502501I225000J0D01*
G01*
X63966001Y-50502501D01*
G75*
G02*
X64191001Y-50727501I0J-225000D01*
G01*
X64191001Y-51177501D01*
G75*
G02*
X63966001Y-51402501I-225000J0D01*
G01*
G37*
%TD*%
%TO.C,R6*%
G36*
G01*
X64840001Y-51291001D02*
X64840001Y-50741001D01*
G75*
G02*
X65040001Y-50541001I200000J0D01*
G01*
X65440001Y-50541001D01*
G75*
G02*
X65640001Y-50741001I0J-200000D01*
G01*
X65640001Y-51291001D01*
G75*
G02*
X65440001Y-51491001I-200000J0D01*
G01*
X65040001Y-51491001D01*
G75*
G02*
X64840001Y-51291001I0J200000D01*
G01*
G37*
G36*
G01*
X66490001Y-51291001D02*
X66490001Y-50741001D01*
G75*
G02*
X66690001Y-50541001I200000J0D01*
G01*
X67090001Y-50541001D01*
G75*
G02*
X67290001Y-50741001I0J-200000D01*
G01*
X67290001Y-51291001D01*
G75*
G02*
X67090001Y-51491001I-200000J0D01*
G01*
X66690001Y-51491001D01*
G75*
G02*
X66490001Y-51291001I0J200000D01*
G01*
G37*
%TD*%
M02*
