%TF.GenerationSoftware,KiCad,Pcbnew,5.1.8*%
%TF.CreationDate,2020-11-30T19:23:35+01:00*%
%TF.ProjectId,panel2,70616e65-6c32-42e6-9b69-6361645f7063,rev?*%
%TF.SameCoordinates,Original*%
%TF.FileFunction,Other,User*%
%FSLAX46Y46*%
G04 Gerber Fmt 4.6, Leading zero omitted, Abs format (unit mm)*
G04 Created by KiCad (PCBNEW 5.1.8) date 2020-11-30 19:23:35*
%MOMM*%
%LPD*%
G01*
G04 APERTURE LIST*
%ADD10C,0.050000*%
G04 APERTURE END LIST*
D10*
%TO.C,D1*%
X119483516Y-127688516D02*
X118023516Y-127688516D01*
X118023516Y-127688516D02*
X118023516Y-124728516D01*
X118023516Y-124728516D02*
X119483516Y-124728516D01*
X119483516Y-124728516D02*
X119483516Y-127688516D01*
%TO.C,D2*%
X117959516Y-127688516D02*
X116499516Y-127688516D01*
X116499516Y-127688516D02*
X116499516Y-124728516D01*
X116499516Y-124728516D02*
X117959516Y-124728516D01*
X117959516Y-124728516D02*
X117959516Y-127688516D01*
%TO.C,F1*%
X117459016Y-112530016D02*
X117459016Y-114690016D01*
X117459016Y-114690016D02*
X112499016Y-114690016D01*
X112499016Y-114690016D02*
X112499016Y-112530016D01*
X112499016Y-112530016D02*
X117459016Y-112530016D01*
%TO.C,Q1*%
X121070016Y-129550016D02*
X121070016Y-126150016D01*
X121070016Y-126150016D02*
X124570016Y-126150016D01*
X124570016Y-126150016D02*
X124570016Y-129550016D01*
X124570016Y-129550016D02*
X121070016Y-129550016D01*
%TO.C,R1*%
X119364016Y-123681016D02*
X119364016Y-124621016D01*
X119364016Y-124621016D02*
X117504016Y-124621016D01*
X117504016Y-124621016D02*
X117504016Y-123681016D01*
X117504016Y-123681016D02*
X119364016Y-123681016D01*
%TO.C,R2*%
X123478016Y-118733016D02*
X122538016Y-118733016D01*
X122538016Y-118733016D02*
X122538016Y-116873016D01*
X122538016Y-116873016D02*
X123478016Y-116873016D01*
X123478016Y-116873016D02*
X123478016Y-118733016D01*
%TO.C,R3*%
X114968016Y-115731016D02*
X114968016Y-114791016D01*
X114968016Y-114791016D02*
X116828016Y-114791016D01*
X116828016Y-114791016D02*
X116828016Y-115731016D01*
X116828016Y-115731016D02*
X114968016Y-115731016D01*
%TO.C,R4*%
X115858016Y-127623016D02*
X114918016Y-127623016D01*
X114918016Y-127623016D02*
X114918016Y-125763016D01*
X114918016Y-125763016D02*
X115858016Y-125763016D01*
X115858016Y-125763016D02*
X115858016Y-127623016D01*
%TO.C,R5*%
X127178516Y-115680016D02*
X127178516Y-116620016D01*
X127178516Y-116620016D02*
X125318516Y-116620016D01*
X125318516Y-116620016D02*
X125318516Y-115680016D01*
X125318516Y-115680016D02*
X127178516Y-115680016D01*
%TO.C,U1*%
X123351016Y-122417016D02*
X127151016Y-122417016D01*
X127151016Y-122417016D02*
X127151016Y-126017016D01*
X127151016Y-126017016D02*
X123351016Y-126017016D01*
X123351016Y-126017016D02*
X123351016Y-122417016D01*
%TO.C,U2*%
X125246016Y-112566016D02*
X121446016Y-112566016D01*
X125246016Y-116166016D02*
X125246016Y-112566016D01*
X121446016Y-116166016D02*
X125246016Y-116166016D01*
X121446016Y-112566016D02*
X121446016Y-116166016D01*
%TO.C,U3*%
X121436016Y-112566016D02*
X117636016Y-112566016D01*
X121436016Y-116166016D02*
X121436016Y-112566016D01*
X117636016Y-116166016D02*
X121436016Y-116166016D01*
X117636016Y-112566016D02*
X117636016Y-116166016D01*
%TO.C,D3*%
X117610016Y-130000016D02*
X112910016Y-130000016D01*
X112910016Y-130000016D02*
X112910016Y-127700016D01*
X112910016Y-127700016D02*
X117610016Y-127700016D01*
X117610016Y-130000016D02*
X117610016Y-127700016D01*
%TO.C,D4*%
X129550016Y-130000016D02*
X124850016Y-130000016D01*
X124850016Y-130000016D02*
X124850016Y-127700016D01*
X124850016Y-127700016D02*
X129550016Y-127700016D01*
X129550016Y-130000016D02*
X129550016Y-127700016D01*
%TO.C,C1*%
X123184016Y-124060016D02*
X123184016Y-126020016D01*
X123184016Y-126020016D02*
X119784016Y-126020016D01*
X119784016Y-126020016D02*
X119784016Y-124060016D01*
X119784016Y-124060016D02*
X123184016Y-124060016D01*
%TO.C,C2*%
X123782016Y-118781016D02*
X123782016Y-116821016D01*
X123782016Y-116821016D02*
X127182016Y-116821016D01*
X127182016Y-116821016D02*
X127182016Y-118781016D01*
X127182016Y-118781016D02*
X123782016Y-118781016D01*
%TO.C,C3*%
X124119016Y-122342016D02*
X122659016Y-122342016D01*
X122659016Y-122342016D02*
X122659016Y-119382016D01*
X122659016Y-119382016D02*
X124119016Y-119382016D01*
X124119016Y-119382016D02*
X124119016Y-122342016D01*
%TO.C,C4*%
X127167016Y-122342016D02*
X125707016Y-122342016D01*
X125707016Y-122342016D02*
X125707016Y-119382016D01*
X125707016Y-119382016D02*
X127167016Y-119382016D01*
X127167016Y-119382016D02*
X127167016Y-122342016D01*
%TO.C,C5*%
X126786016Y-115547516D02*
X125326016Y-115547516D01*
X125326016Y-115547516D02*
X125326016Y-112587516D01*
X125326016Y-112587516D02*
X126786016Y-112587516D01*
X126786016Y-112587516D02*
X126786016Y-115547516D01*
%TO.C,R6*%
X126925016Y-114086016D02*
X126925016Y-112626016D01*
X126925016Y-112626016D02*
X129885016Y-112626016D01*
X129885016Y-112626016D02*
X129885016Y-114086016D01*
X129885016Y-114086016D02*
X126925016Y-114086016D01*
%TO.C,C6*%
X125643016Y-119382016D02*
X125643016Y-122342016D01*
X124183016Y-119382016D02*
X125643016Y-119382016D01*
X124183016Y-122342016D02*
X124183016Y-119382016D01*
X125643016Y-122342016D02*
X124183016Y-122342016D01*
%TO.C,C7*%
X116435516Y-122721516D02*
X116435516Y-125681516D01*
X114975516Y-122721516D02*
X116435516Y-122721516D01*
X114975516Y-125681516D02*
X114975516Y-122721516D01*
X116435516Y-125681516D02*
X114975516Y-125681516D01*
%TO.C,D1*%
X98703511Y-127688516D02*
X97243511Y-127688516D01*
X97243511Y-127688516D02*
X97243511Y-124728516D01*
X97243511Y-124728516D02*
X98703511Y-124728516D01*
X98703511Y-124728516D02*
X98703511Y-127688516D01*
%TO.C,D2*%
X97179511Y-127688516D02*
X95719511Y-127688516D01*
X95719511Y-127688516D02*
X95719511Y-124728516D01*
X95719511Y-124728516D02*
X97179511Y-124728516D01*
X97179511Y-124728516D02*
X97179511Y-127688516D01*
%TO.C,F1*%
X96679011Y-112530016D02*
X96679011Y-114690016D01*
X96679011Y-114690016D02*
X91719011Y-114690016D01*
X91719011Y-114690016D02*
X91719011Y-112530016D01*
X91719011Y-112530016D02*
X96679011Y-112530016D01*
%TO.C,Q1*%
X100290011Y-129550016D02*
X100290011Y-126150016D01*
X100290011Y-126150016D02*
X103790011Y-126150016D01*
X103790011Y-126150016D02*
X103790011Y-129550016D01*
X103790011Y-129550016D02*
X100290011Y-129550016D01*
%TO.C,R1*%
X98584011Y-123681016D02*
X98584011Y-124621016D01*
X98584011Y-124621016D02*
X96724011Y-124621016D01*
X96724011Y-124621016D02*
X96724011Y-123681016D01*
X96724011Y-123681016D02*
X98584011Y-123681016D01*
%TO.C,R2*%
X102698011Y-118733016D02*
X101758011Y-118733016D01*
X101758011Y-118733016D02*
X101758011Y-116873016D01*
X101758011Y-116873016D02*
X102698011Y-116873016D01*
X102698011Y-116873016D02*
X102698011Y-118733016D01*
%TO.C,R3*%
X94188011Y-115731016D02*
X94188011Y-114791016D01*
X94188011Y-114791016D02*
X96048011Y-114791016D01*
X96048011Y-114791016D02*
X96048011Y-115731016D01*
X96048011Y-115731016D02*
X94188011Y-115731016D01*
%TO.C,R4*%
X95078011Y-127623016D02*
X94138011Y-127623016D01*
X94138011Y-127623016D02*
X94138011Y-125763016D01*
X94138011Y-125763016D02*
X95078011Y-125763016D01*
X95078011Y-125763016D02*
X95078011Y-127623016D01*
%TO.C,R5*%
X106398511Y-115680016D02*
X106398511Y-116620016D01*
X106398511Y-116620016D02*
X104538511Y-116620016D01*
X104538511Y-116620016D02*
X104538511Y-115680016D01*
X104538511Y-115680016D02*
X106398511Y-115680016D01*
%TO.C,U1*%
X102571011Y-122417016D02*
X106371011Y-122417016D01*
X106371011Y-122417016D02*
X106371011Y-126017016D01*
X106371011Y-126017016D02*
X102571011Y-126017016D01*
X102571011Y-126017016D02*
X102571011Y-122417016D01*
%TO.C,U2*%
X104466011Y-112566016D02*
X100666011Y-112566016D01*
X104466011Y-116166016D02*
X104466011Y-112566016D01*
X100666011Y-116166016D02*
X104466011Y-116166016D01*
X100666011Y-112566016D02*
X100666011Y-116166016D01*
%TO.C,U3*%
X100656011Y-112566016D02*
X96856011Y-112566016D01*
X100656011Y-116166016D02*
X100656011Y-112566016D01*
X96856011Y-116166016D02*
X100656011Y-116166016D01*
X96856011Y-112566016D02*
X96856011Y-116166016D01*
%TO.C,D3*%
X96830011Y-130000016D02*
X92130011Y-130000016D01*
X92130011Y-130000016D02*
X92130011Y-127700016D01*
X92130011Y-127700016D02*
X96830011Y-127700016D01*
X96830011Y-130000016D02*
X96830011Y-127700016D01*
%TO.C,D4*%
X108770011Y-130000016D02*
X104070011Y-130000016D01*
X104070011Y-130000016D02*
X104070011Y-127700016D01*
X104070011Y-127700016D02*
X108770011Y-127700016D01*
X108770011Y-130000016D02*
X108770011Y-127700016D01*
%TO.C,C1*%
X102404011Y-124060016D02*
X102404011Y-126020016D01*
X102404011Y-126020016D02*
X99004011Y-126020016D01*
X99004011Y-126020016D02*
X99004011Y-124060016D01*
X99004011Y-124060016D02*
X102404011Y-124060016D01*
%TO.C,C2*%
X103002011Y-118781016D02*
X103002011Y-116821016D01*
X103002011Y-116821016D02*
X106402011Y-116821016D01*
X106402011Y-116821016D02*
X106402011Y-118781016D01*
X106402011Y-118781016D02*
X103002011Y-118781016D01*
%TO.C,C3*%
X103339011Y-122342016D02*
X101879011Y-122342016D01*
X101879011Y-122342016D02*
X101879011Y-119382016D01*
X101879011Y-119382016D02*
X103339011Y-119382016D01*
X103339011Y-119382016D02*
X103339011Y-122342016D01*
%TO.C,C4*%
X106387011Y-122342016D02*
X104927011Y-122342016D01*
X104927011Y-122342016D02*
X104927011Y-119382016D01*
X104927011Y-119382016D02*
X106387011Y-119382016D01*
X106387011Y-119382016D02*
X106387011Y-122342016D01*
%TO.C,C5*%
X106006011Y-115547516D02*
X104546011Y-115547516D01*
X104546011Y-115547516D02*
X104546011Y-112587516D01*
X104546011Y-112587516D02*
X106006011Y-112587516D01*
X106006011Y-112587516D02*
X106006011Y-115547516D01*
%TO.C,R6*%
X106145011Y-114086016D02*
X106145011Y-112626016D01*
X106145011Y-112626016D02*
X109105011Y-112626016D01*
X109105011Y-112626016D02*
X109105011Y-114086016D01*
X109105011Y-114086016D02*
X106145011Y-114086016D01*
%TO.C,C6*%
X104863011Y-119382016D02*
X104863011Y-122342016D01*
X103403011Y-119382016D02*
X104863011Y-119382016D01*
X103403011Y-122342016D02*
X103403011Y-119382016D01*
X104863011Y-122342016D02*
X103403011Y-122342016D01*
%TO.C,C7*%
X95655511Y-122721516D02*
X95655511Y-125681516D01*
X94195511Y-122721516D02*
X95655511Y-122721516D01*
X94195511Y-125681516D02*
X94195511Y-122721516D01*
X95655511Y-125681516D02*
X94195511Y-125681516D01*
%TO.C,D1*%
X77923506Y-127688516D02*
X76463506Y-127688516D01*
X76463506Y-127688516D02*
X76463506Y-124728516D01*
X76463506Y-124728516D02*
X77923506Y-124728516D01*
X77923506Y-124728516D02*
X77923506Y-127688516D01*
%TO.C,D2*%
X76399506Y-127688516D02*
X74939506Y-127688516D01*
X74939506Y-127688516D02*
X74939506Y-124728516D01*
X74939506Y-124728516D02*
X76399506Y-124728516D01*
X76399506Y-124728516D02*
X76399506Y-127688516D01*
%TO.C,F1*%
X75899006Y-112530016D02*
X75899006Y-114690016D01*
X75899006Y-114690016D02*
X70939006Y-114690016D01*
X70939006Y-114690016D02*
X70939006Y-112530016D01*
X70939006Y-112530016D02*
X75899006Y-112530016D01*
%TO.C,Q1*%
X79510006Y-129550016D02*
X79510006Y-126150016D01*
X79510006Y-126150016D02*
X83010006Y-126150016D01*
X83010006Y-126150016D02*
X83010006Y-129550016D01*
X83010006Y-129550016D02*
X79510006Y-129550016D01*
%TO.C,R1*%
X77804006Y-123681016D02*
X77804006Y-124621016D01*
X77804006Y-124621016D02*
X75944006Y-124621016D01*
X75944006Y-124621016D02*
X75944006Y-123681016D01*
X75944006Y-123681016D02*
X77804006Y-123681016D01*
%TO.C,R2*%
X81918006Y-118733016D02*
X80978006Y-118733016D01*
X80978006Y-118733016D02*
X80978006Y-116873016D01*
X80978006Y-116873016D02*
X81918006Y-116873016D01*
X81918006Y-116873016D02*
X81918006Y-118733016D01*
%TO.C,R3*%
X73408006Y-115731016D02*
X73408006Y-114791016D01*
X73408006Y-114791016D02*
X75268006Y-114791016D01*
X75268006Y-114791016D02*
X75268006Y-115731016D01*
X75268006Y-115731016D02*
X73408006Y-115731016D01*
%TO.C,R4*%
X74298006Y-127623016D02*
X73358006Y-127623016D01*
X73358006Y-127623016D02*
X73358006Y-125763016D01*
X73358006Y-125763016D02*
X74298006Y-125763016D01*
X74298006Y-125763016D02*
X74298006Y-127623016D01*
%TO.C,R5*%
X85618506Y-115680016D02*
X85618506Y-116620016D01*
X85618506Y-116620016D02*
X83758506Y-116620016D01*
X83758506Y-116620016D02*
X83758506Y-115680016D01*
X83758506Y-115680016D02*
X85618506Y-115680016D01*
%TO.C,U1*%
X81791006Y-122417016D02*
X85591006Y-122417016D01*
X85591006Y-122417016D02*
X85591006Y-126017016D01*
X85591006Y-126017016D02*
X81791006Y-126017016D01*
X81791006Y-126017016D02*
X81791006Y-122417016D01*
%TO.C,U2*%
X83686006Y-112566016D02*
X79886006Y-112566016D01*
X83686006Y-116166016D02*
X83686006Y-112566016D01*
X79886006Y-116166016D02*
X83686006Y-116166016D01*
X79886006Y-112566016D02*
X79886006Y-116166016D01*
%TO.C,U3*%
X79876006Y-112566016D02*
X76076006Y-112566016D01*
X79876006Y-116166016D02*
X79876006Y-112566016D01*
X76076006Y-116166016D02*
X79876006Y-116166016D01*
X76076006Y-112566016D02*
X76076006Y-116166016D01*
%TO.C,D3*%
X76050006Y-130000016D02*
X71350006Y-130000016D01*
X71350006Y-130000016D02*
X71350006Y-127700016D01*
X71350006Y-127700016D02*
X76050006Y-127700016D01*
X76050006Y-130000016D02*
X76050006Y-127700016D01*
%TO.C,D4*%
X87990006Y-130000016D02*
X83290006Y-130000016D01*
X83290006Y-130000016D02*
X83290006Y-127700016D01*
X83290006Y-127700016D02*
X87990006Y-127700016D01*
X87990006Y-130000016D02*
X87990006Y-127700016D01*
%TO.C,C1*%
X81624006Y-124060016D02*
X81624006Y-126020016D01*
X81624006Y-126020016D02*
X78224006Y-126020016D01*
X78224006Y-126020016D02*
X78224006Y-124060016D01*
X78224006Y-124060016D02*
X81624006Y-124060016D01*
%TO.C,C2*%
X82222006Y-118781016D02*
X82222006Y-116821016D01*
X82222006Y-116821016D02*
X85622006Y-116821016D01*
X85622006Y-116821016D02*
X85622006Y-118781016D01*
X85622006Y-118781016D02*
X82222006Y-118781016D01*
%TO.C,C3*%
X82559006Y-122342016D02*
X81099006Y-122342016D01*
X81099006Y-122342016D02*
X81099006Y-119382016D01*
X81099006Y-119382016D02*
X82559006Y-119382016D01*
X82559006Y-119382016D02*
X82559006Y-122342016D01*
%TO.C,C4*%
X85607006Y-122342016D02*
X84147006Y-122342016D01*
X84147006Y-122342016D02*
X84147006Y-119382016D01*
X84147006Y-119382016D02*
X85607006Y-119382016D01*
X85607006Y-119382016D02*
X85607006Y-122342016D01*
%TO.C,C5*%
X85226006Y-115547516D02*
X83766006Y-115547516D01*
X83766006Y-115547516D02*
X83766006Y-112587516D01*
X83766006Y-112587516D02*
X85226006Y-112587516D01*
X85226006Y-112587516D02*
X85226006Y-115547516D01*
%TO.C,R6*%
X85365006Y-114086016D02*
X85365006Y-112626016D01*
X85365006Y-112626016D02*
X88325006Y-112626016D01*
X88325006Y-112626016D02*
X88325006Y-114086016D01*
X88325006Y-114086016D02*
X85365006Y-114086016D01*
%TO.C,C6*%
X84083006Y-119382016D02*
X84083006Y-122342016D01*
X82623006Y-119382016D02*
X84083006Y-119382016D01*
X82623006Y-122342016D02*
X82623006Y-119382016D01*
X84083006Y-122342016D02*
X82623006Y-122342016D01*
%TO.C,C7*%
X74875506Y-122721516D02*
X74875506Y-125681516D01*
X73415506Y-122721516D02*
X74875506Y-122721516D01*
X73415506Y-125681516D02*
X73415506Y-122721516D01*
X74875506Y-125681516D02*
X73415506Y-125681516D01*
%TO.C,D1*%
X57143501Y-127688516D02*
X55683501Y-127688516D01*
X55683501Y-127688516D02*
X55683501Y-124728516D01*
X55683501Y-124728516D02*
X57143501Y-124728516D01*
X57143501Y-124728516D02*
X57143501Y-127688516D01*
%TO.C,D2*%
X55619501Y-127688516D02*
X54159501Y-127688516D01*
X54159501Y-127688516D02*
X54159501Y-124728516D01*
X54159501Y-124728516D02*
X55619501Y-124728516D01*
X55619501Y-124728516D02*
X55619501Y-127688516D01*
%TO.C,F1*%
X55119001Y-112530016D02*
X55119001Y-114690016D01*
X55119001Y-114690016D02*
X50159001Y-114690016D01*
X50159001Y-114690016D02*
X50159001Y-112530016D01*
X50159001Y-112530016D02*
X55119001Y-112530016D01*
%TO.C,Q1*%
X58730001Y-129550016D02*
X58730001Y-126150016D01*
X58730001Y-126150016D02*
X62230001Y-126150016D01*
X62230001Y-126150016D02*
X62230001Y-129550016D01*
X62230001Y-129550016D02*
X58730001Y-129550016D01*
%TO.C,R1*%
X57024001Y-123681016D02*
X57024001Y-124621016D01*
X57024001Y-124621016D02*
X55164001Y-124621016D01*
X55164001Y-124621016D02*
X55164001Y-123681016D01*
X55164001Y-123681016D02*
X57024001Y-123681016D01*
%TO.C,R2*%
X61138001Y-118733016D02*
X60198001Y-118733016D01*
X60198001Y-118733016D02*
X60198001Y-116873016D01*
X60198001Y-116873016D02*
X61138001Y-116873016D01*
X61138001Y-116873016D02*
X61138001Y-118733016D01*
%TO.C,R3*%
X52628001Y-115731016D02*
X52628001Y-114791016D01*
X52628001Y-114791016D02*
X54488001Y-114791016D01*
X54488001Y-114791016D02*
X54488001Y-115731016D01*
X54488001Y-115731016D02*
X52628001Y-115731016D01*
%TO.C,R4*%
X53518001Y-127623016D02*
X52578001Y-127623016D01*
X52578001Y-127623016D02*
X52578001Y-125763016D01*
X52578001Y-125763016D02*
X53518001Y-125763016D01*
X53518001Y-125763016D02*
X53518001Y-127623016D01*
%TO.C,R5*%
X64838501Y-115680016D02*
X64838501Y-116620016D01*
X64838501Y-116620016D02*
X62978501Y-116620016D01*
X62978501Y-116620016D02*
X62978501Y-115680016D01*
X62978501Y-115680016D02*
X64838501Y-115680016D01*
%TO.C,U1*%
X61011001Y-122417016D02*
X64811001Y-122417016D01*
X64811001Y-122417016D02*
X64811001Y-126017016D01*
X64811001Y-126017016D02*
X61011001Y-126017016D01*
X61011001Y-126017016D02*
X61011001Y-122417016D01*
%TO.C,U2*%
X62906001Y-112566016D02*
X59106001Y-112566016D01*
X62906001Y-116166016D02*
X62906001Y-112566016D01*
X59106001Y-116166016D02*
X62906001Y-116166016D01*
X59106001Y-112566016D02*
X59106001Y-116166016D01*
%TO.C,U3*%
X59096001Y-112566016D02*
X55296001Y-112566016D01*
X59096001Y-116166016D02*
X59096001Y-112566016D01*
X55296001Y-116166016D02*
X59096001Y-116166016D01*
X55296001Y-112566016D02*
X55296001Y-116166016D01*
%TO.C,D3*%
X55270001Y-130000016D02*
X50570001Y-130000016D01*
X50570001Y-130000016D02*
X50570001Y-127700016D01*
X50570001Y-127700016D02*
X55270001Y-127700016D01*
X55270001Y-130000016D02*
X55270001Y-127700016D01*
%TO.C,D4*%
X67210001Y-130000016D02*
X62510001Y-130000016D01*
X62510001Y-130000016D02*
X62510001Y-127700016D01*
X62510001Y-127700016D02*
X67210001Y-127700016D01*
X67210001Y-130000016D02*
X67210001Y-127700016D01*
%TO.C,C1*%
X60844001Y-124060016D02*
X60844001Y-126020016D01*
X60844001Y-126020016D02*
X57444001Y-126020016D01*
X57444001Y-126020016D02*
X57444001Y-124060016D01*
X57444001Y-124060016D02*
X60844001Y-124060016D01*
%TO.C,C2*%
X61442001Y-118781016D02*
X61442001Y-116821016D01*
X61442001Y-116821016D02*
X64842001Y-116821016D01*
X64842001Y-116821016D02*
X64842001Y-118781016D01*
X64842001Y-118781016D02*
X61442001Y-118781016D01*
%TO.C,C3*%
X61779001Y-122342016D02*
X60319001Y-122342016D01*
X60319001Y-122342016D02*
X60319001Y-119382016D01*
X60319001Y-119382016D02*
X61779001Y-119382016D01*
X61779001Y-119382016D02*
X61779001Y-122342016D01*
%TO.C,C4*%
X64827001Y-122342016D02*
X63367001Y-122342016D01*
X63367001Y-122342016D02*
X63367001Y-119382016D01*
X63367001Y-119382016D02*
X64827001Y-119382016D01*
X64827001Y-119382016D02*
X64827001Y-122342016D01*
%TO.C,C5*%
X64446001Y-115547516D02*
X62986001Y-115547516D01*
X62986001Y-115547516D02*
X62986001Y-112587516D01*
X62986001Y-112587516D02*
X64446001Y-112587516D01*
X64446001Y-112587516D02*
X64446001Y-115547516D01*
%TO.C,R6*%
X64585001Y-114086016D02*
X64585001Y-112626016D01*
X64585001Y-112626016D02*
X67545001Y-112626016D01*
X67545001Y-112626016D02*
X67545001Y-114086016D01*
X67545001Y-114086016D02*
X64585001Y-114086016D01*
%TO.C,C6*%
X63303001Y-119382016D02*
X63303001Y-122342016D01*
X61843001Y-119382016D02*
X63303001Y-119382016D01*
X61843001Y-122342016D02*
X61843001Y-119382016D01*
X63303001Y-122342016D02*
X61843001Y-122342016D01*
%TO.C,C7*%
X54095501Y-122721516D02*
X54095501Y-125681516D01*
X52635501Y-122721516D02*
X54095501Y-122721516D01*
X52635501Y-125681516D02*
X52635501Y-122721516D01*
X54095501Y-125681516D02*
X52635501Y-125681516D01*
%TO.C,D1*%
X119483516Y-106908511D02*
X118023516Y-106908511D01*
X118023516Y-106908511D02*
X118023516Y-103948511D01*
X118023516Y-103948511D02*
X119483516Y-103948511D01*
X119483516Y-103948511D02*
X119483516Y-106908511D01*
%TO.C,D2*%
X117959516Y-106908511D02*
X116499516Y-106908511D01*
X116499516Y-106908511D02*
X116499516Y-103948511D01*
X116499516Y-103948511D02*
X117959516Y-103948511D01*
X117959516Y-103948511D02*
X117959516Y-106908511D01*
%TO.C,F1*%
X117459016Y-91750011D02*
X117459016Y-93910011D01*
X117459016Y-93910011D02*
X112499016Y-93910011D01*
X112499016Y-93910011D02*
X112499016Y-91750011D01*
X112499016Y-91750011D02*
X117459016Y-91750011D01*
%TO.C,Q1*%
X121070016Y-108770011D02*
X121070016Y-105370011D01*
X121070016Y-105370011D02*
X124570016Y-105370011D01*
X124570016Y-105370011D02*
X124570016Y-108770011D01*
X124570016Y-108770011D02*
X121070016Y-108770011D01*
%TO.C,R1*%
X119364016Y-102901011D02*
X119364016Y-103841011D01*
X119364016Y-103841011D02*
X117504016Y-103841011D01*
X117504016Y-103841011D02*
X117504016Y-102901011D01*
X117504016Y-102901011D02*
X119364016Y-102901011D01*
%TO.C,R2*%
X123478016Y-97953011D02*
X122538016Y-97953011D01*
X122538016Y-97953011D02*
X122538016Y-96093011D01*
X122538016Y-96093011D02*
X123478016Y-96093011D01*
X123478016Y-96093011D02*
X123478016Y-97953011D01*
%TO.C,R3*%
X114968016Y-94951011D02*
X114968016Y-94011011D01*
X114968016Y-94011011D02*
X116828016Y-94011011D01*
X116828016Y-94011011D02*
X116828016Y-94951011D01*
X116828016Y-94951011D02*
X114968016Y-94951011D01*
%TO.C,R4*%
X115858016Y-106843011D02*
X114918016Y-106843011D01*
X114918016Y-106843011D02*
X114918016Y-104983011D01*
X114918016Y-104983011D02*
X115858016Y-104983011D01*
X115858016Y-104983011D02*
X115858016Y-106843011D01*
%TO.C,R5*%
X127178516Y-94900011D02*
X127178516Y-95840011D01*
X127178516Y-95840011D02*
X125318516Y-95840011D01*
X125318516Y-95840011D02*
X125318516Y-94900011D01*
X125318516Y-94900011D02*
X127178516Y-94900011D01*
%TO.C,U1*%
X123351016Y-101637011D02*
X127151016Y-101637011D01*
X127151016Y-101637011D02*
X127151016Y-105237011D01*
X127151016Y-105237011D02*
X123351016Y-105237011D01*
X123351016Y-105237011D02*
X123351016Y-101637011D01*
%TO.C,U2*%
X125246016Y-91786011D02*
X121446016Y-91786011D01*
X125246016Y-95386011D02*
X125246016Y-91786011D01*
X121446016Y-95386011D02*
X125246016Y-95386011D01*
X121446016Y-91786011D02*
X121446016Y-95386011D01*
%TO.C,U3*%
X121436016Y-91786011D02*
X117636016Y-91786011D01*
X121436016Y-95386011D02*
X121436016Y-91786011D01*
X117636016Y-95386011D02*
X121436016Y-95386011D01*
X117636016Y-91786011D02*
X117636016Y-95386011D01*
%TO.C,D3*%
X117610016Y-109220011D02*
X112910016Y-109220011D01*
X112910016Y-109220011D02*
X112910016Y-106920011D01*
X112910016Y-106920011D02*
X117610016Y-106920011D01*
X117610016Y-109220011D02*
X117610016Y-106920011D01*
%TO.C,D4*%
X129550016Y-109220011D02*
X124850016Y-109220011D01*
X124850016Y-109220011D02*
X124850016Y-106920011D01*
X124850016Y-106920011D02*
X129550016Y-106920011D01*
X129550016Y-109220011D02*
X129550016Y-106920011D01*
%TO.C,C1*%
X123184016Y-103280011D02*
X123184016Y-105240011D01*
X123184016Y-105240011D02*
X119784016Y-105240011D01*
X119784016Y-105240011D02*
X119784016Y-103280011D01*
X119784016Y-103280011D02*
X123184016Y-103280011D01*
%TO.C,C2*%
X123782016Y-98001011D02*
X123782016Y-96041011D01*
X123782016Y-96041011D02*
X127182016Y-96041011D01*
X127182016Y-96041011D02*
X127182016Y-98001011D01*
X127182016Y-98001011D02*
X123782016Y-98001011D01*
%TO.C,C3*%
X124119016Y-101562011D02*
X122659016Y-101562011D01*
X122659016Y-101562011D02*
X122659016Y-98602011D01*
X122659016Y-98602011D02*
X124119016Y-98602011D01*
X124119016Y-98602011D02*
X124119016Y-101562011D01*
%TO.C,C4*%
X127167016Y-101562011D02*
X125707016Y-101562011D01*
X125707016Y-101562011D02*
X125707016Y-98602011D01*
X125707016Y-98602011D02*
X127167016Y-98602011D01*
X127167016Y-98602011D02*
X127167016Y-101562011D01*
%TO.C,C5*%
X126786016Y-94767511D02*
X125326016Y-94767511D01*
X125326016Y-94767511D02*
X125326016Y-91807511D01*
X125326016Y-91807511D02*
X126786016Y-91807511D01*
X126786016Y-91807511D02*
X126786016Y-94767511D01*
%TO.C,R6*%
X126925016Y-93306011D02*
X126925016Y-91846011D01*
X126925016Y-91846011D02*
X129885016Y-91846011D01*
X129885016Y-91846011D02*
X129885016Y-93306011D01*
X129885016Y-93306011D02*
X126925016Y-93306011D01*
%TO.C,C6*%
X125643016Y-98602011D02*
X125643016Y-101562011D01*
X124183016Y-98602011D02*
X125643016Y-98602011D01*
X124183016Y-101562011D02*
X124183016Y-98602011D01*
X125643016Y-101562011D02*
X124183016Y-101562011D01*
%TO.C,C7*%
X116435516Y-101941511D02*
X116435516Y-104901511D01*
X114975516Y-101941511D02*
X116435516Y-101941511D01*
X114975516Y-104901511D02*
X114975516Y-101941511D01*
X116435516Y-104901511D02*
X114975516Y-104901511D01*
%TO.C,D1*%
X98703511Y-106908511D02*
X97243511Y-106908511D01*
X97243511Y-106908511D02*
X97243511Y-103948511D01*
X97243511Y-103948511D02*
X98703511Y-103948511D01*
X98703511Y-103948511D02*
X98703511Y-106908511D01*
%TO.C,D2*%
X97179511Y-106908511D02*
X95719511Y-106908511D01*
X95719511Y-106908511D02*
X95719511Y-103948511D01*
X95719511Y-103948511D02*
X97179511Y-103948511D01*
X97179511Y-103948511D02*
X97179511Y-106908511D01*
%TO.C,F1*%
X96679011Y-91750011D02*
X96679011Y-93910011D01*
X96679011Y-93910011D02*
X91719011Y-93910011D01*
X91719011Y-93910011D02*
X91719011Y-91750011D01*
X91719011Y-91750011D02*
X96679011Y-91750011D01*
%TO.C,Q1*%
X100290011Y-108770011D02*
X100290011Y-105370011D01*
X100290011Y-105370011D02*
X103790011Y-105370011D01*
X103790011Y-105370011D02*
X103790011Y-108770011D01*
X103790011Y-108770011D02*
X100290011Y-108770011D01*
%TO.C,R1*%
X98584011Y-102901011D02*
X98584011Y-103841011D01*
X98584011Y-103841011D02*
X96724011Y-103841011D01*
X96724011Y-103841011D02*
X96724011Y-102901011D01*
X96724011Y-102901011D02*
X98584011Y-102901011D01*
%TO.C,R2*%
X102698011Y-97953011D02*
X101758011Y-97953011D01*
X101758011Y-97953011D02*
X101758011Y-96093011D01*
X101758011Y-96093011D02*
X102698011Y-96093011D01*
X102698011Y-96093011D02*
X102698011Y-97953011D01*
%TO.C,R3*%
X94188011Y-94951011D02*
X94188011Y-94011011D01*
X94188011Y-94011011D02*
X96048011Y-94011011D01*
X96048011Y-94011011D02*
X96048011Y-94951011D01*
X96048011Y-94951011D02*
X94188011Y-94951011D01*
%TO.C,R4*%
X95078011Y-106843011D02*
X94138011Y-106843011D01*
X94138011Y-106843011D02*
X94138011Y-104983011D01*
X94138011Y-104983011D02*
X95078011Y-104983011D01*
X95078011Y-104983011D02*
X95078011Y-106843011D01*
%TO.C,R5*%
X106398511Y-94900011D02*
X106398511Y-95840011D01*
X106398511Y-95840011D02*
X104538511Y-95840011D01*
X104538511Y-95840011D02*
X104538511Y-94900011D01*
X104538511Y-94900011D02*
X106398511Y-94900011D01*
%TO.C,U1*%
X102571011Y-101637011D02*
X106371011Y-101637011D01*
X106371011Y-101637011D02*
X106371011Y-105237011D01*
X106371011Y-105237011D02*
X102571011Y-105237011D01*
X102571011Y-105237011D02*
X102571011Y-101637011D01*
%TO.C,U2*%
X104466011Y-91786011D02*
X100666011Y-91786011D01*
X104466011Y-95386011D02*
X104466011Y-91786011D01*
X100666011Y-95386011D02*
X104466011Y-95386011D01*
X100666011Y-91786011D02*
X100666011Y-95386011D01*
%TO.C,U3*%
X100656011Y-91786011D02*
X96856011Y-91786011D01*
X100656011Y-95386011D02*
X100656011Y-91786011D01*
X96856011Y-95386011D02*
X100656011Y-95386011D01*
X96856011Y-91786011D02*
X96856011Y-95386011D01*
%TO.C,D3*%
X96830011Y-109220011D02*
X92130011Y-109220011D01*
X92130011Y-109220011D02*
X92130011Y-106920011D01*
X92130011Y-106920011D02*
X96830011Y-106920011D01*
X96830011Y-109220011D02*
X96830011Y-106920011D01*
%TO.C,D4*%
X108770011Y-109220011D02*
X104070011Y-109220011D01*
X104070011Y-109220011D02*
X104070011Y-106920011D01*
X104070011Y-106920011D02*
X108770011Y-106920011D01*
X108770011Y-109220011D02*
X108770011Y-106920011D01*
%TO.C,C1*%
X102404011Y-103280011D02*
X102404011Y-105240011D01*
X102404011Y-105240011D02*
X99004011Y-105240011D01*
X99004011Y-105240011D02*
X99004011Y-103280011D01*
X99004011Y-103280011D02*
X102404011Y-103280011D01*
%TO.C,C2*%
X103002011Y-98001011D02*
X103002011Y-96041011D01*
X103002011Y-96041011D02*
X106402011Y-96041011D01*
X106402011Y-96041011D02*
X106402011Y-98001011D01*
X106402011Y-98001011D02*
X103002011Y-98001011D01*
%TO.C,C3*%
X103339011Y-101562011D02*
X101879011Y-101562011D01*
X101879011Y-101562011D02*
X101879011Y-98602011D01*
X101879011Y-98602011D02*
X103339011Y-98602011D01*
X103339011Y-98602011D02*
X103339011Y-101562011D01*
%TO.C,C4*%
X106387011Y-101562011D02*
X104927011Y-101562011D01*
X104927011Y-101562011D02*
X104927011Y-98602011D01*
X104927011Y-98602011D02*
X106387011Y-98602011D01*
X106387011Y-98602011D02*
X106387011Y-101562011D01*
%TO.C,C5*%
X106006011Y-94767511D02*
X104546011Y-94767511D01*
X104546011Y-94767511D02*
X104546011Y-91807511D01*
X104546011Y-91807511D02*
X106006011Y-91807511D01*
X106006011Y-91807511D02*
X106006011Y-94767511D01*
%TO.C,R6*%
X106145011Y-93306011D02*
X106145011Y-91846011D01*
X106145011Y-91846011D02*
X109105011Y-91846011D01*
X109105011Y-91846011D02*
X109105011Y-93306011D01*
X109105011Y-93306011D02*
X106145011Y-93306011D01*
%TO.C,C6*%
X104863011Y-98602011D02*
X104863011Y-101562011D01*
X103403011Y-98602011D02*
X104863011Y-98602011D01*
X103403011Y-101562011D02*
X103403011Y-98602011D01*
X104863011Y-101562011D02*
X103403011Y-101562011D01*
%TO.C,C7*%
X95655511Y-101941511D02*
X95655511Y-104901511D01*
X94195511Y-101941511D02*
X95655511Y-101941511D01*
X94195511Y-104901511D02*
X94195511Y-101941511D01*
X95655511Y-104901511D02*
X94195511Y-104901511D01*
%TO.C,D1*%
X77923506Y-106908511D02*
X76463506Y-106908511D01*
X76463506Y-106908511D02*
X76463506Y-103948511D01*
X76463506Y-103948511D02*
X77923506Y-103948511D01*
X77923506Y-103948511D02*
X77923506Y-106908511D01*
%TO.C,D2*%
X76399506Y-106908511D02*
X74939506Y-106908511D01*
X74939506Y-106908511D02*
X74939506Y-103948511D01*
X74939506Y-103948511D02*
X76399506Y-103948511D01*
X76399506Y-103948511D02*
X76399506Y-106908511D01*
%TO.C,F1*%
X75899006Y-91750011D02*
X75899006Y-93910011D01*
X75899006Y-93910011D02*
X70939006Y-93910011D01*
X70939006Y-93910011D02*
X70939006Y-91750011D01*
X70939006Y-91750011D02*
X75899006Y-91750011D01*
%TO.C,Q1*%
X79510006Y-108770011D02*
X79510006Y-105370011D01*
X79510006Y-105370011D02*
X83010006Y-105370011D01*
X83010006Y-105370011D02*
X83010006Y-108770011D01*
X83010006Y-108770011D02*
X79510006Y-108770011D01*
%TO.C,R1*%
X77804006Y-102901011D02*
X77804006Y-103841011D01*
X77804006Y-103841011D02*
X75944006Y-103841011D01*
X75944006Y-103841011D02*
X75944006Y-102901011D01*
X75944006Y-102901011D02*
X77804006Y-102901011D01*
%TO.C,R2*%
X81918006Y-97953011D02*
X80978006Y-97953011D01*
X80978006Y-97953011D02*
X80978006Y-96093011D01*
X80978006Y-96093011D02*
X81918006Y-96093011D01*
X81918006Y-96093011D02*
X81918006Y-97953011D01*
%TO.C,R3*%
X73408006Y-94951011D02*
X73408006Y-94011011D01*
X73408006Y-94011011D02*
X75268006Y-94011011D01*
X75268006Y-94011011D02*
X75268006Y-94951011D01*
X75268006Y-94951011D02*
X73408006Y-94951011D01*
%TO.C,R4*%
X74298006Y-106843011D02*
X73358006Y-106843011D01*
X73358006Y-106843011D02*
X73358006Y-104983011D01*
X73358006Y-104983011D02*
X74298006Y-104983011D01*
X74298006Y-104983011D02*
X74298006Y-106843011D01*
%TO.C,R5*%
X85618506Y-94900011D02*
X85618506Y-95840011D01*
X85618506Y-95840011D02*
X83758506Y-95840011D01*
X83758506Y-95840011D02*
X83758506Y-94900011D01*
X83758506Y-94900011D02*
X85618506Y-94900011D01*
%TO.C,U1*%
X81791006Y-101637011D02*
X85591006Y-101637011D01*
X85591006Y-101637011D02*
X85591006Y-105237011D01*
X85591006Y-105237011D02*
X81791006Y-105237011D01*
X81791006Y-105237011D02*
X81791006Y-101637011D01*
%TO.C,U2*%
X83686006Y-91786011D02*
X79886006Y-91786011D01*
X83686006Y-95386011D02*
X83686006Y-91786011D01*
X79886006Y-95386011D02*
X83686006Y-95386011D01*
X79886006Y-91786011D02*
X79886006Y-95386011D01*
%TO.C,U3*%
X79876006Y-91786011D02*
X76076006Y-91786011D01*
X79876006Y-95386011D02*
X79876006Y-91786011D01*
X76076006Y-95386011D02*
X79876006Y-95386011D01*
X76076006Y-91786011D02*
X76076006Y-95386011D01*
%TO.C,D3*%
X76050006Y-109220011D02*
X71350006Y-109220011D01*
X71350006Y-109220011D02*
X71350006Y-106920011D01*
X71350006Y-106920011D02*
X76050006Y-106920011D01*
X76050006Y-109220011D02*
X76050006Y-106920011D01*
%TO.C,D4*%
X87990006Y-109220011D02*
X83290006Y-109220011D01*
X83290006Y-109220011D02*
X83290006Y-106920011D01*
X83290006Y-106920011D02*
X87990006Y-106920011D01*
X87990006Y-109220011D02*
X87990006Y-106920011D01*
%TO.C,C1*%
X81624006Y-103280011D02*
X81624006Y-105240011D01*
X81624006Y-105240011D02*
X78224006Y-105240011D01*
X78224006Y-105240011D02*
X78224006Y-103280011D01*
X78224006Y-103280011D02*
X81624006Y-103280011D01*
%TO.C,C2*%
X82222006Y-98001011D02*
X82222006Y-96041011D01*
X82222006Y-96041011D02*
X85622006Y-96041011D01*
X85622006Y-96041011D02*
X85622006Y-98001011D01*
X85622006Y-98001011D02*
X82222006Y-98001011D01*
%TO.C,C3*%
X82559006Y-101562011D02*
X81099006Y-101562011D01*
X81099006Y-101562011D02*
X81099006Y-98602011D01*
X81099006Y-98602011D02*
X82559006Y-98602011D01*
X82559006Y-98602011D02*
X82559006Y-101562011D01*
%TO.C,C4*%
X85607006Y-101562011D02*
X84147006Y-101562011D01*
X84147006Y-101562011D02*
X84147006Y-98602011D01*
X84147006Y-98602011D02*
X85607006Y-98602011D01*
X85607006Y-98602011D02*
X85607006Y-101562011D01*
%TO.C,C5*%
X85226006Y-94767511D02*
X83766006Y-94767511D01*
X83766006Y-94767511D02*
X83766006Y-91807511D01*
X83766006Y-91807511D02*
X85226006Y-91807511D01*
X85226006Y-91807511D02*
X85226006Y-94767511D01*
%TO.C,R6*%
X85365006Y-93306011D02*
X85365006Y-91846011D01*
X85365006Y-91846011D02*
X88325006Y-91846011D01*
X88325006Y-91846011D02*
X88325006Y-93306011D01*
X88325006Y-93306011D02*
X85365006Y-93306011D01*
%TO.C,C6*%
X84083006Y-98602011D02*
X84083006Y-101562011D01*
X82623006Y-98602011D02*
X84083006Y-98602011D01*
X82623006Y-101562011D02*
X82623006Y-98602011D01*
X84083006Y-101562011D02*
X82623006Y-101562011D01*
%TO.C,C7*%
X74875506Y-101941511D02*
X74875506Y-104901511D01*
X73415506Y-101941511D02*
X74875506Y-101941511D01*
X73415506Y-104901511D02*
X73415506Y-101941511D01*
X74875506Y-104901511D02*
X73415506Y-104901511D01*
%TO.C,D1*%
X57143501Y-106908511D02*
X55683501Y-106908511D01*
X55683501Y-106908511D02*
X55683501Y-103948511D01*
X55683501Y-103948511D02*
X57143501Y-103948511D01*
X57143501Y-103948511D02*
X57143501Y-106908511D01*
%TO.C,D2*%
X55619501Y-106908511D02*
X54159501Y-106908511D01*
X54159501Y-106908511D02*
X54159501Y-103948511D01*
X54159501Y-103948511D02*
X55619501Y-103948511D01*
X55619501Y-103948511D02*
X55619501Y-106908511D01*
%TO.C,F1*%
X55119001Y-91750011D02*
X55119001Y-93910011D01*
X55119001Y-93910011D02*
X50159001Y-93910011D01*
X50159001Y-93910011D02*
X50159001Y-91750011D01*
X50159001Y-91750011D02*
X55119001Y-91750011D01*
%TO.C,Q1*%
X58730001Y-108770011D02*
X58730001Y-105370011D01*
X58730001Y-105370011D02*
X62230001Y-105370011D01*
X62230001Y-105370011D02*
X62230001Y-108770011D01*
X62230001Y-108770011D02*
X58730001Y-108770011D01*
%TO.C,R1*%
X57024001Y-102901011D02*
X57024001Y-103841011D01*
X57024001Y-103841011D02*
X55164001Y-103841011D01*
X55164001Y-103841011D02*
X55164001Y-102901011D01*
X55164001Y-102901011D02*
X57024001Y-102901011D01*
%TO.C,R2*%
X61138001Y-97953011D02*
X60198001Y-97953011D01*
X60198001Y-97953011D02*
X60198001Y-96093011D01*
X60198001Y-96093011D02*
X61138001Y-96093011D01*
X61138001Y-96093011D02*
X61138001Y-97953011D01*
%TO.C,R3*%
X52628001Y-94951011D02*
X52628001Y-94011011D01*
X52628001Y-94011011D02*
X54488001Y-94011011D01*
X54488001Y-94011011D02*
X54488001Y-94951011D01*
X54488001Y-94951011D02*
X52628001Y-94951011D01*
%TO.C,R4*%
X53518001Y-106843011D02*
X52578001Y-106843011D01*
X52578001Y-106843011D02*
X52578001Y-104983011D01*
X52578001Y-104983011D02*
X53518001Y-104983011D01*
X53518001Y-104983011D02*
X53518001Y-106843011D01*
%TO.C,R5*%
X64838501Y-94900011D02*
X64838501Y-95840011D01*
X64838501Y-95840011D02*
X62978501Y-95840011D01*
X62978501Y-95840011D02*
X62978501Y-94900011D01*
X62978501Y-94900011D02*
X64838501Y-94900011D01*
%TO.C,U1*%
X61011001Y-101637011D02*
X64811001Y-101637011D01*
X64811001Y-101637011D02*
X64811001Y-105237011D01*
X64811001Y-105237011D02*
X61011001Y-105237011D01*
X61011001Y-105237011D02*
X61011001Y-101637011D01*
%TO.C,U2*%
X62906001Y-91786011D02*
X59106001Y-91786011D01*
X62906001Y-95386011D02*
X62906001Y-91786011D01*
X59106001Y-95386011D02*
X62906001Y-95386011D01*
X59106001Y-91786011D02*
X59106001Y-95386011D01*
%TO.C,U3*%
X59096001Y-91786011D02*
X55296001Y-91786011D01*
X59096001Y-95386011D02*
X59096001Y-91786011D01*
X55296001Y-95386011D02*
X59096001Y-95386011D01*
X55296001Y-91786011D02*
X55296001Y-95386011D01*
%TO.C,D3*%
X55270001Y-109220011D02*
X50570001Y-109220011D01*
X50570001Y-109220011D02*
X50570001Y-106920011D01*
X50570001Y-106920011D02*
X55270001Y-106920011D01*
X55270001Y-109220011D02*
X55270001Y-106920011D01*
%TO.C,D4*%
X67210001Y-109220011D02*
X62510001Y-109220011D01*
X62510001Y-109220011D02*
X62510001Y-106920011D01*
X62510001Y-106920011D02*
X67210001Y-106920011D01*
X67210001Y-109220011D02*
X67210001Y-106920011D01*
%TO.C,C1*%
X60844001Y-103280011D02*
X60844001Y-105240011D01*
X60844001Y-105240011D02*
X57444001Y-105240011D01*
X57444001Y-105240011D02*
X57444001Y-103280011D01*
X57444001Y-103280011D02*
X60844001Y-103280011D01*
%TO.C,C2*%
X61442001Y-98001011D02*
X61442001Y-96041011D01*
X61442001Y-96041011D02*
X64842001Y-96041011D01*
X64842001Y-96041011D02*
X64842001Y-98001011D01*
X64842001Y-98001011D02*
X61442001Y-98001011D01*
%TO.C,C3*%
X61779001Y-101562011D02*
X60319001Y-101562011D01*
X60319001Y-101562011D02*
X60319001Y-98602011D01*
X60319001Y-98602011D02*
X61779001Y-98602011D01*
X61779001Y-98602011D02*
X61779001Y-101562011D01*
%TO.C,C4*%
X64827001Y-101562011D02*
X63367001Y-101562011D01*
X63367001Y-101562011D02*
X63367001Y-98602011D01*
X63367001Y-98602011D02*
X64827001Y-98602011D01*
X64827001Y-98602011D02*
X64827001Y-101562011D01*
%TO.C,C5*%
X64446001Y-94767511D02*
X62986001Y-94767511D01*
X62986001Y-94767511D02*
X62986001Y-91807511D01*
X62986001Y-91807511D02*
X64446001Y-91807511D01*
X64446001Y-91807511D02*
X64446001Y-94767511D01*
%TO.C,R6*%
X64585001Y-93306011D02*
X64585001Y-91846011D01*
X64585001Y-91846011D02*
X67545001Y-91846011D01*
X67545001Y-91846011D02*
X67545001Y-93306011D01*
X67545001Y-93306011D02*
X64585001Y-93306011D01*
%TO.C,C6*%
X63303001Y-98602011D02*
X63303001Y-101562011D01*
X61843001Y-98602011D02*
X63303001Y-98602011D01*
X61843001Y-101562011D02*
X61843001Y-98602011D01*
X63303001Y-101562011D02*
X61843001Y-101562011D01*
%TO.C,C7*%
X54095501Y-101941511D02*
X54095501Y-104901511D01*
X52635501Y-101941511D02*
X54095501Y-101941511D01*
X52635501Y-104901511D02*
X52635501Y-101941511D01*
X54095501Y-104901511D02*
X52635501Y-104901511D01*
%TO.C,D1*%
X119483516Y-86128506D02*
X118023516Y-86128506D01*
X118023516Y-86128506D02*
X118023516Y-83168506D01*
X118023516Y-83168506D02*
X119483516Y-83168506D01*
X119483516Y-83168506D02*
X119483516Y-86128506D01*
%TO.C,D2*%
X117959516Y-86128506D02*
X116499516Y-86128506D01*
X116499516Y-86128506D02*
X116499516Y-83168506D01*
X116499516Y-83168506D02*
X117959516Y-83168506D01*
X117959516Y-83168506D02*
X117959516Y-86128506D01*
%TO.C,F1*%
X117459016Y-70970006D02*
X117459016Y-73130006D01*
X117459016Y-73130006D02*
X112499016Y-73130006D01*
X112499016Y-73130006D02*
X112499016Y-70970006D01*
X112499016Y-70970006D02*
X117459016Y-70970006D01*
%TO.C,Q1*%
X121070016Y-87990006D02*
X121070016Y-84590006D01*
X121070016Y-84590006D02*
X124570016Y-84590006D01*
X124570016Y-84590006D02*
X124570016Y-87990006D01*
X124570016Y-87990006D02*
X121070016Y-87990006D01*
%TO.C,R1*%
X119364016Y-82121006D02*
X119364016Y-83061006D01*
X119364016Y-83061006D02*
X117504016Y-83061006D01*
X117504016Y-83061006D02*
X117504016Y-82121006D01*
X117504016Y-82121006D02*
X119364016Y-82121006D01*
%TO.C,R2*%
X123478016Y-77173006D02*
X122538016Y-77173006D01*
X122538016Y-77173006D02*
X122538016Y-75313006D01*
X122538016Y-75313006D02*
X123478016Y-75313006D01*
X123478016Y-75313006D02*
X123478016Y-77173006D01*
%TO.C,R3*%
X114968016Y-74171006D02*
X114968016Y-73231006D01*
X114968016Y-73231006D02*
X116828016Y-73231006D01*
X116828016Y-73231006D02*
X116828016Y-74171006D01*
X116828016Y-74171006D02*
X114968016Y-74171006D01*
%TO.C,R4*%
X115858016Y-86063006D02*
X114918016Y-86063006D01*
X114918016Y-86063006D02*
X114918016Y-84203006D01*
X114918016Y-84203006D02*
X115858016Y-84203006D01*
X115858016Y-84203006D02*
X115858016Y-86063006D01*
%TO.C,R5*%
X127178516Y-74120006D02*
X127178516Y-75060006D01*
X127178516Y-75060006D02*
X125318516Y-75060006D01*
X125318516Y-75060006D02*
X125318516Y-74120006D01*
X125318516Y-74120006D02*
X127178516Y-74120006D01*
%TO.C,U1*%
X123351016Y-80857006D02*
X127151016Y-80857006D01*
X127151016Y-80857006D02*
X127151016Y-84457006D01*
X127151016Y-84457006D02*
X123351016Y-84457006D01*
X123351016Y-84457006D02*
X123351016Y-80857006D01*
%TO.C,U2*%
X125246016Y-71006006D02*
X121446016Y-71006006D01*
X125246016Y-74606006D02*
X125246016Y-71006006D01*
X121446016Y-74606006D02*
X125246016Y-74606006D01*
X121446016Y-71006006D02*
X121446016Y-74606006D01*
%TO.C,U3*%
X121436016Y-71006006D02*
X117636016Y-71006006D01*
X121436016Y-74606006D02*
X121436016Y-71006006D01*
X117636016Y-74606006D02*
X121436016Y-74606006D01*
X117636016Y-71006006D02*
X117636016Y-74606006D01*
%TO.C,D3*%
X117610016Y-88440006D02*
X112910016Y-88440006D01*
X112910016Y-88440006D02*
X112910016Y-86140006D01*
X112910016Y-86140006D02*
X117610016Y-86140006D01*
X117610016Y-88440006D02*
X117610016Y-86140006D01*
%TO.C,D4*%
X129550016Y-88440006D02*
X124850016Y-88440006D01*
X124850016Y-88440006D02*
X124850016Y-86140006D01*
X124850016Y-86140006D02*
X129550016Y-86140006D01*
X129550016Y-88440006D02*
X129550016Y-86140006D01*
%TO.C,C1*%
X123184016Y-82500006D02*
X123184016Y-84460006D01*
X123184016Y-84460006D02*
X119784016Y-84460006D01*
X119784016Y-84460006D02*
X119784016Y-82500006D01*
X119784016Y-82500006D02*
X123184016Y-82500006D01*
%TO.C,C2*%
X123782016Y-77221006D02*
X123782016Y-75261006D01*
X123782016Y-75261006D02*
X127182016Y-75261006D01*
X127182016Y-75261006D02*
X127182016Y-77221006D01*
X127182016Y-77221006D02*
X123782016Y-77221006D01*
%TO.C,C3*%
X124119016Y-80782006D02*
X122659016Y-80782006D01*
X122659016Y-80782006D02*
X122659016Y-77822006D01*
X122659016Y-77822006D02*
X124119016Y-77822006D01*
X124119016Y-77822006D02*
X124119016Y-80782006D01*
%TO.C,C4*%
X127167016Y-80782006D02*
X125707016Y-80782006D01*
X125707016Y-80782006D02*
X125707016Y-77822006D01*
X125707016Y-77822006D02*
X127167016Y-77822006D01*
X127167016Y-77822006D02*
X127167016Y-80782006D01*
%TO.C,C5*%
X126786016Y-73987506D02*
X125326016Y-73987506D01*
X125326016Y-73987506D02*
X125326016Y-71027506D01*
X125326016Y-71027506D02*
X126786016Y-71027506D01*
X126786016Y-71027506D02*
X126786016Y-73987506D01*
%TO.C,R6*%
X126925016Y-72526006D02*
X126925016Y-71066006D01*
X126925016Y-71066006D02*
X129885016Y-71066006D01*
X129885016Y-71066006D02*
X129885016Y-72526006D01*
X129885016Y-72526006D02*
X126925016Y-72526006D01*
%TO.C,C6*%
X125643016Y-77822006D02*
X125643016Y-80782006D01*
X124183016Y-77822006D02*
X125643016Y-77822006D01*
X124183016Y-80782006D02*
X124183016Y-77822006D01*
X125643016Y-80782006D02*
X124183016Y-80782006D01*
%TO.C,C7*%
X116435516Y-81161506D02*
X116435516Y-84121506D01*
X114975516Y-81161506D02*
X116435516Y-81161506D01*
X114975516Y-84121506D02*
X114975516Y-81161506D01*
X116435516Y-84121506D02*
X114975516Y-84121506D01*
%TO.C,D1*%
X98703511Y-86128506D02*
X97243511Y-86128506D01*
X97243511Y-86128506D02*
X97243511Y-83168506D01*
X97243511Y-83168506D02*
X98703511Y-83168506D01*
X98703511Y-83168506D02*
X98703511Y-86128506D01*
%TO.C,D2*%
X97179511Y-86128506D02*
X95719511Y-86128506D01*
X95719511Y-86128506D02*
X95719511Y-83168506D01*
X95719511Y-83168506D02*
X97179511Y-83168506D01*
X97179511Y-83168506D02*
X97179511Y-86128506D01*
%TO.C,F1*%
X96679011Y-70970006D02*
X96679011Y-73130006D01*
X96679011Y-73130006D02*
X91719011Y-73130006D01*
X91719011Y-73130006D02*
X91719011Y-70970006D01*
X91719011Y-70970006D02*
X96679011Y-70970006D01*
%TO.C,Q1*%
X100290011Y-87990006D02*
X100290011Y-84590006D01*
X100290011Y-84590006D02*
X103790011Y-84590006D01*
X103790011Y-84590006D02*
X103790011Y-87990006D01*
X103790011Y-87990006D02*
X100290011Y-87990006D01*
%TO.C,R1*%
X98584011Y-82121006D02*
X98584011Y-83061006D01*
X98584011Y-83061006D02*
X96724011Y-83061006D01*
X96724011Y-83061006D02*
X96724011Y-82121006D01*
X96724011Y-82121006D02*
X98584011Y-82121006D01*
%TO.C,R2*%
X102698011Y-77173006D02*
X101758011Y-77173006D01*
X101758011Y-77173006D02*
X101758011Y-75313006D01*
X101758011Y-75313006D02*
X102698011Y-75313006D01*
X102698011Y-75313006D02*
X102698011Y-77173006D01*
%TO.C,R3*%
X94188011Y-74171006D02*
X94188011Y-73231006D01*
X94188011Y-73231006D02*
X96048011Y-73231006D01*
X96048011Y-73231006D02*
X96048011Y-74171006D01*
X96048011Y-74171006D02*
X94188011Y-74171006D01*
%TO.C,R4*%
X95078011Y-86063006D02*
X94138011Y-86063006D01*
X94138011Y-86063006D02*
X94138011Y-84203006D01*
X94138011Y-84203006D02*
X95078011Y-84203006D01*
X95078011Y-84203006D02*
X95078011Y-86063006D01*
%TO.C,R5*%
X106398511Y-74120006D02*
X106398511Y-75060006D01*
X106398511Y-75060006D02*
X104538511Y-75060006D01*
X104538511Y-75060006D02*
X104538511Y-74120006D01*
X104538511Y-74120006D02*
X106398511Y-74120006D01*
%TO.C,U1*%
X102571011Y-80857006D02*
X106371011Y-80857006D01*
X106371011Y-80857006D02*
X106371011Y-84457006D01*
X106371011Y-84457006D02*
X102571011Y-84457006D01*
X102571011Y-84457006D02*
X102571011Y-80857006D01*
%TO.C,U2*%
X104466011Y-71006006D02*
X100666011Y-71006006D01*
X104466011Y-74606006D02*
X104466011Y-71006006D01*
X100666011Y-74606006D02*
X104466011Y-74606006D01*
X100666011Y-71006006D02*
X100666011Y-74606006D01*
%TO.C,U3*%
X100656011Y-71006006D02*
X96856011Y-71006006D01*
X100656011Y-74606006D02*
X100656011Y-71006006D01*
X96856011Y-74606006D02*
X100656011Y-74606006D01*
X96856011Y-71006006D02*
X96856011Y-74606006D01*
%TO.C,D3*%
X96830011Y-88440006D02*
X92130011Y-88440006D01*
X92130011Y-88440006D02*
X92130011Y-86140006D01*
X92130011Y-86140006D02*
X96830011Y-86140006D01*
X96830011Y-88440006D02*
X96830011Y-86140006D01*
%TO.C,D4*%
X108770011Y-88440006D02*
X104070011Y-88440006D01*
X104070011Y-88440006D02*
X104070011Y-86140006D01*
X104070011Y-86140006D02*
X108770011Y-86140006D01*
X108770011Y-88440006D02*
X108770011Y-86140006D01*
%TO.C,C1*%
X102404011Y-82500006D02*
X102404011Y-84460006D01*
X102404011Y-84460006D02*
X99004011Y-84460006D01*
X99004011Y-84460006D02*
X99004011Y-82500006D01*
X99004011Y-82500006D02*
X102404011Y-82500006D01*
%TO.C,C2*%
X103002011Y-77221006D02*
X103002011Y-75261006D01*
X103002011Y-75261006D02*
X106402011Y-75261006D01*
X106402011Y-75261006D02*
X106402011Y-77221006D01*
X106402011Y-77221006D02*
X103002011Y-77221006D01*
%TO.C,C3*%
X103339011Y-80782006D02*
X101879011Y-80782006D01*
X101879011Y-80782006D02*
X101879011Y-77822006D01*
X101879011Y-77822006D02*
X103339011Y-77822006D01*
X103339011Y-77822006D02*
X103339011Y-80782006D01*
%TO.C,C4*%
X106387011Y-80782006D02*
X104927011Y-80782006D01*
X104927011Y-80782006D02*
X104927011Y-77822006D01*
X104927011Y-77822006D02*
X106387011Y-77822006D01*
X106387011Y-77822006D02*
X106387011Y-80782006D01*
%TO.C,C5*%
X106006011Y-73987506D02*
X104546011Y-73987506D01*
X104546011Y-73987506D02*
X104546011Y-71027506D01*
X104546011Y-71027506D02*
X106006011Y-71027506D01*
X106006011Y-71027506D02*
X106006011Y-73987506D01*
%TO.C,R6*%
X106145011Y-72526006D02*
X106145011Y-71066006D01*
X106145011Y-71066006D02*
X109105011Y-71066006D01*
X109105011Y-71066006D02*
X109105011Y-72526006D01*
X109105011Y-72526006D02*
X106145011Y-72526006D01*
%TO.C,C6*%
X104863011Y-77822006D02*
X104863011Y-80782006D01*
X103403011Y-77822006D02*
X104863011Y-77822006D01*
X103403011Y-80782006D02*
X103403011Y-77822006D01*
X104863011Y-80782006D02*
X103403011Y-80782006D01*
%TO.C,C7*%
X95655511Y-81161506D02*
X95655511Y-84121506D01*
X94195511Y-81161506D02*
X95655511Y-81161506D01*
X94195511Y-84121506D02*
X94195511Y-81161506D01*
X95655511Y-84121506D02*
X94195511Y-84121506D01*
%TO.C,D1*%
X77923506Y-86128506D02*
X76463506Y-86128506D01*
X76463506Y-86128506D02*
X76463506Y-83168506D01*
X76463506Y-83168506D02*
X77923506Y-83168506D01*
X77923506Y-83168506D02*
X77923506Y-86128506D01*
%TO.C,D2*%
X76399506Y-86128506D02*
X74939506Y-86128506D01*
X74939506Y-86128506D02*
X74939506Y-83168506D01*
X74939506Y-83168506D02*
X76399506Y-83168506D01*
X76399506Y-83168506D02*
X76399506Y-86128506D01*
%TO.C,F1*%
X75899006Y-70970006D02*
X75899006Y-73130006D01*
X75899006Y-73130006D02*
X70939006Y-73130006D01*
X70939006Y-73130006D02*
X70939006Y-70970006D01*
X70939006Y-70970006D02*
X75899006Y-70970006D01*
%TO.C,Q1*%
X79510006Y-87990006D02*
X79510006Y-84590006D01*
X79510006Y-84590006D02*
X83010006Y-84590006D01*
X83010006Y-84590006D02*
X83010006Y-87990006D01*
X83010006Y-87990006D02*
X79510006Y-87990006D01*
%TO.C,R1*%
X77804006Y-82121006D02*
X77804006Y-83061006D01*
X77804006Y-83061006D02*
X75944006Y-83061006D01*
X75944006Y-83061006D02*
X75944006Y-82121006D01*
X75944006Y-82121006D02*
X77804006Y-82121006D01*
%TO.C,R2*%
X81918006Y-77173006D02*
X80978006Y-77173006D01*
X80978006Y-77173006D02*
X80978006Y-75313006D01*
X80978006Y-75313006D02*
X81918006Y-75313006D01*
X81918006Y-75313006D02*
X81918006Y-77173006D01*
%TO.C,R3*%
X73408006Y-74171006D02*
X73408006Y-73231006D01*
X73408006Y-73231006D02*
X75268006Y-73231006D01*
X75268006Y-73231006D02*
X75268006Y-74171006D01*
X75268006Y-74171006D02*
X73408006Y-74171006D01*
%TO.C,R4*%
X74298006Y-86063006D02*
X73358006Y-86063006D01*
X73358006Y-86063006D02*
X73358006Y-84203006D01*
X73358006Y-84203006D02*
X74298006Y-84203006D01*
X74298006Y-84203006D02*
X74298006Y-86063006D01*
%TO.C,R5*%
X85618506Y-74120006D02*
X85618506Y-75060006D01*
X85618506Y-75060006D02*
X83758506Y-75060006D01*
X83758506Y-75060006D02*
X83758506Y-74120006D01*
X83758506Y-74120006D02*
X85618506Y-74120006D01*
%TO.C,U1*%
X81791006Y-80857006D02*
X85591006Y-80857006D01*
X85591006Y-80857006D02*
X85591006Y-84457006D01*
X85591006Y-84457006D02*
X81791006Y-84457006D01*
X81791006Y-84457006D02*
X81791006Y-80857006D01*
%TO.C,U2*%
X83686006Y-71006006D02*
X79886006Y-71006006D01*
X83686006Y-74606006D02*
X83686006Y-71006006D01*
X79886006Y-74606006D02*
X83686006Y-74606006D01*
X79886006Y-71006006D02*
X79886006Y-74606006D01*
%TO.C,U3*%
X79876006Y-71006006D02*
X76076006Y-71006006D01*
X79876006Y-74606006D02*
X79876006Y-71006006D01*
X76076006Y-74606006D02*
X79876006Y-74606006D01*
X76076006Y-71006006D02*
X76076006Y-74606006D01*
%TO.C,D3*%
X76050006Y-88440006D02*
X71350006Y-88440006D01*
X71350006Y-88440006D02*
X71350006Y-86140006D01*
X71350006Y-86140006D02*
X76050006Y-86140006D01*
X76050006Y-88440006D02*
X76050006Y-86140006D01*
%TO.C,D4*%
X87990006Y-88440006D02*
X83290006Y-88440006D01*
X83290006Y-88440006D02*
X83290006Y-86140006D01*
X83290006Y-86140006D02*
X87990006Y-86140006D01*
X87990006Y-88440006D02*
X87990006Y-86140006D01*
%TO.C,C1*%
X81624006Y-82500006D02*
X81624006Y-84460006D01*
X81624006Y-84460006D02*
X78224006Y-84460006D01*
X78224006Y-84460006D02*
X78224006Y-82500006D01*
X78224006Y-82500006D02*
X81624006Y-82500006D01*
%TO.C,C2*%
X82222006Y-77221006D02*
X82222006Y-75261006D01*
X82222006Y-75261006D02*
X85622006Y-75261006D01*
X85622006Y-75261006D02*
X85622006Y-77221006D01*
X85622006Y-77221006D02*
X82222006Y-77221006D01*
%TO.C,C3*%
X82559006Y-80782006D02*
X81099006Y-80782006D01*
X81099006Y-80782006D02*
X81099006Y-77822006D01*
X81099006Y-77822006D02*
X82559006Y-77822006D01*
X82559006Y-77822006D02*
X82559006Y-80782006D01*
%TO.C,C4*%
X85607006Y-80782006D02*
X84147006Y-80782006D01*
X84147006Y-80782006D02*
X84147006Y-77822006D01*
X84147006Y-77822006D02*
X85607006Y-77822006D01*
X85607006Y-77822006D02*
X85607006Y-80782006D01*
%TO.C,C5*%
X85226006Y-73987506D02*
X83766006Y-73987506D01*
X83766006Y-73987506D02*
X83766006Y-71027506D01*
X83766006Y-71027506D02*
X85226006Y-71027506D01*
X85226006Y-71027506D02*
X85226006Y-73987506D01*
%TO.C,R6*%
X85365006Y-72526006D02*
X85365006Y-71066006D01*
X85365006Y-71066006D02*
X88325006Y-71066006D01*
X88325006Y-71066006D02*
X88325006Y-72526006D01*
X88325006Y-72526006D02*
X85365006Y-72526006D01*
%TO.C,C6*%
X84083006Y-77822006D02*
X84083006Y-80782006D01*
X82623006Y-77822006D02*
X84083006Y-77822006D01*
X82623006Y-80782006D02*
X82623006Y-77822006D01*
X84083006Y-80782006D02*
X82623006Y-80782006D01*
%TO.C,C7*%
X74875506Y-81161506D02*
X74875506Y-84121506D01*
X73415506Y-81161506D02*
X74875506Y-81161506D01*
X73415506Y-84121506D02*
X73415506Y-81161506D01*
X74875506Y-84121506D02*
X73415506Y-84121506D01*
%TO.C,D1*%
X57143501Y-86128506D02*
X55683501Y-86128506D01*
X55683501Y-86128506D02*
X55683501Y-83168506D01*
X55683501Y-83168506D02*
X57143501Y-83168506D01*
X57143501Y-83168506D02*
X57143501Y-86128506D01*
%TO.C,D2*%
X55619501Y-86128506D02*
X54159501Y-86128506D01*
X54159501Y-86128506D02*
X54159501Y-83168506D01*
X54159501Y-83168506D02*
X55619501Y-83168506D01*
X55619501Y-83168506D02*
X55619501Y-86128506D01*
%TO.C,F1*%
X55119001Y-70970006D02*
X55119001Y-73130006D01*
X55119001Y-73130006D02*
X50159001Y-73130006D01*
X50159001Y-73130006D02*
X50159001Y-70970006D01*
X50159001Y-70970006D02*
X55119001Y-70970006D01*
%TO.C,Q1*%
X58730001Y-87990006D02*
X58730001Y-84590006D01*
X58730001Y-84590006D02*
X62230001Y-84590006D01*
X62230001Y-84590006D02*
X62230001Y-87990006D01*
X62230001Y-87990006D02*
X58730001Y-87990006D01*
%TO.C,R1*%
X57024001Y-82121006D02*
X57024001Y-83061006D01*
X57024001Y-83061006D02*
X55164001Y-83061006D01*
X55164001Y-83061006D02*
X55164001Y-82121006D01*
X55164001Y-82121006D02*
X57024001Y-82121006D01*
%TO.C,R2*%
X61138001Y-77173006D02*
X60198001Y-77173006D01*
X60198001Y-77173006D02*
X60198001Y-75313006D01*
X60198001Y-75313006D02*
X61138001Y-75313006D01*
X61138001Y-75313006D02*
X61138001Y-77173006D01*
%TO.C,R3*%
X52628001Y-74171006D02*
X52628001Y-73231006D01*
X52628001Y-73231006D02*
X54488001Y-73231006D01*
X54488001Y-73231006D02*
X54488001Y-74171006D01*
X54488001Y-74171006D02*
X52628001Y-74171006D01*
%TO.C,R4*%
X53518001Y-86063006D02*
X52578001Y-86063006D01*
X52578001Y-86063006D02*
X52578001Y-84203006D01*
X52578001Y-84203006D02*
X53518001Y-84203006D01*
X53518001Y-84203006D02*
X53518001Y-86063006D01*
%TO.C,R5*%
X64838501Y-74120006D02*
X64838501Y-75060006D01*
X64838501Y-75060006D02*
X62978501Y-75060006D01*
X62978501Y-75060006D02*
X62978501Y-74120006D01*
X62978501Y-74120006D02*
X64838501Y-74120006D01*
%TO.C,U1*%
X61011001Y-80857006D02*
X64811001Y-80857006D01*
X64811001Y-80857006D02*
X64811001Y-84457006D01*
X64811001Y-84457006D02*
X61011001Y-84457006D01*
X61011001Y-84457006D02*
X61011001Y-80857006D01*
%TO.C,U2*%
X62906001Y-71006006D02*
X59106001Y-71006006D01*
X62906001Y-74606006D02*
X62906001Y-71006006D01*
X59106001Y-74606006D02*
X62906001Y-74606006D01*
X59106001Y-71006006D02*
X59106001Y-74606006D01*
%TO.C,U3*%
X59096001Y-71006006D02*
X55296001Y-71006006D01*
X59096001Y-74606006D02*
X59096001Y-71006006D01*
X55296001Y-74606006D02*
X59096001Y-74606006D01*
X55296001Y-71006006D02*
X55296001Y-74606006D01*
%TO.C,D3*%
X55270001Y-88440006D02*
X50570001Y-88440006D01*
X50570001Y-88440006D02*
X50570001Y-86140006D01*
X50570001Y-86140006D02*
X55270001Y-86140006D01*
X55270001Y-88440006D02*
X55270001Y-86140006D01*
%TO.C,D4*%
X67210001Y-88440006D02*
X62510001Y-88440006D01*
X62510001Y-88440006D02*
X62510001Y-86140006D01*
X62510001Y-86140006D02*
X67210001Y-86140006D01*
X67210001Y-88440006D02*
X67210001Y-86140006D01*
%TO.C,C1*%
X60844001Y-82500006D02*
X60844001Y-84460006D01*
X60844001Y-84460006D02*
X57444001Y-84460006D01*
X57444001Y-84460006D02*
X57444001Y-82500006D01*
X57444001Y-82500006D02*
X60844001Y-82500006D01*
%TO.C,C2*%
X61442001Y-77221006D02*
X61442001Y-75261006D01*
X61442001Y-75261006D02*
X64842001Y-75261006D01*
X64842001Y-75261006D02*
X64842001Y-77221006D01*
X64842001Y-77221006D02*
X61442001Y-77221006D01*
%TO.C,C3*%
X61779001Y-80782006D02*
X60319001Y-80782006D01*
X60319001Y-80782006D02*
X60319001Y-77822006D01*
X60319001Y-77822006D02*
X61779001Y-77822006D01*
X61779001Y-77822006D02*
X61779001Y-80782006D01*
%TO.C,C4*%
X64827001Y-80782006D02*
X63367001Y-80782006D01*
X63367001Y-80782006D02*
X63367001Y-77822006D01*
X63367001Y-77822006D02*
X64827001Y-77822006D01*
X64827001Y-77822006D02*
X64827001Y-80782006D01*
%TO.C,C5*%
X64446001Y-73987506D02*
X62986001Y-73987506D01*
X62986001Y-73987506D02*
X62986001Y-71027506D01*
X62986001Y-71027506D02*
X64446001Y-71027506D01*
X64446001Y-71027506D02*
X64446001Y-73987506D01*
%TO.C,R6*%
X64585001Y-72526006D02*
X64585001Y-71066006D01*
X64585001Y-71066006D02*
X67545001Y-71066006D01*
X67545001Y-71066006D02*
X67545001Y-72526006D01*
X67545001Y-72526006D02*
X64585001Y-72526006D01*
%TO.C,C6*%
X63303001Y-77822006D02*
X63303001Y-80782006D01*
X61843001Y-77822006D02*
X63303001Y-77822006D01*
X61843001Y-80782006D02*
X61843001Y-77822006D01*
X63303001Y-80782006D02*
X61843001Y-80782006D01*
%TO.C,C7*%
X54095501Y-81161506D02*
X54095501Y-84121506D01*
X52635501Y-81161506D02*
X54095501Y-81161506D01*
X52635501Y-84121506D02*
X52635501Y-81161506D01*
X54095501Y-84121506D02*
X52635501Y-84121506D01*
%TO.C,D1*%
X119483516Y-65348501D02*
X118023516Y-65348501D01*
X118023516Y-65348501D02*
X118023516Y-62388501D01*
X118023516Y-62388501D02*
X119483516Y-62388501D01*
X119483516Y-62388501D02*
X119483516Y-65348501D01*
%TO.C,D2*%
X117959516Y-65348501D02*
X116499516Y-65348501D01*
X116499516Y-65348501D02*
X116499516Y-62388501D01*
X116499516Y-62388501D02*
X117959516Y-62388501D01*
X117959516Y-62388501D02*
X117959516Y-65348501D01*
%TO.C,F1*%
X117459016Y-50190001D02*
X117459016Y-52350001D01*
X117459016Y-52350001D02*
X112499016Y-52350001D01*
X112499016Y-52350001D02*
X112499016Y-50190001D01*
X112499016Y-50190001D02*
X117459016Y-50190001D01*
%TO.C,Q1*%
X121070016Y-67210001D02*
X121070016Y-63810001D01*
X121070016Y-63810001D02*
X124570016Y-63810001D01*
X124570016Y-63810001D02*
X124570016Y-67210001D01*
X124570016Y-67210001D02*
X121070016Y-67210001D01*
%TO.C,R1*%
X119364016Y-61341001D02*
X119364016Y-62281001D01*
X119364016Y-62281001D02*
X117504016Y-62281001D01*
X117504016Y-62281001D02*
X117504016Y-61341001D01*
X117504016Y-61341001D02*
X119364016Y-61341001D01*
%TO.C,R2*%
X123478016Y-56393001D02*
X122538016Y-56393001D01*
X122538016Y-56393001D02*
X122538016Y-54533001D01*
X122538016Y-54533001D02*
X123478016Y-54533001D01*
X123478016Y-54533001D02*
X123478016Y-56393001D01*
%TO.C,R3*%
X114968016Y-53391001D02*
X114968016Y-52451001D01*
X114968016Y-52451001D02*
X116828016Y-52451001D01*
X116828016Y-52451001D02*
X116828016Y-53391001D01*
X116828016Y-53391001D02*
X114968016Y-53391001D01*
%TO.C,R4*%
X115858016Y-65283001D02*
X114918016Y-65283001D01*
X114918016Y-65283001D02*
X114918016Y-63423001D01*
X114918016Y-63423001D02*
X115858016Y-63423001D01*
X115858016Y-63423001D02*
X115858016Y-65283001D01*
%TO.C,R5*%
X127178516Y-53340001D02*
X127178516Y-54280001D01*
X127178516Y-54280001D02*
X125318516Y-54280001D01*
X125318516Y-54280001D02*
X125318516Y-53340001D01*
X125318516Y-53340001D02*
X127178516Y-53340001D01*
%TO.C,U1*%
X123351016Y-60077001D02*
X127151016Y-60077001D01*
X127151016Y-60077001D02*
X127151016Y-63677001D01*
X127151016Y-63677001D02*
X123351016Y-63677001D01*
X123351016Y-63677001D02*
X123351016Y-60077001D01*
%TO.C,U2*%
X125246016Y-50226001D02*
X121446016Y-50226001D01*
X125246016Y-53826001D02*
X125246016Y-50226001D01*
X121446016Y-53826001D02*
X125246016Y-53826001D01*
X121446016Y-50226001D02*
X121446016Y-53826001D01*
%TO.C,U3*%
X121436016Y-50226001D02*
X117636016Y-50226001D01*
X121436016Y-53826001D02*
X121436016Y-50226001D01*
X117636016Y-53826001D02*
X121436016Y-53826001D01*
X117636016Y-50226001D02*
X117636016Y-53826001D01*
%TO.C,D3*%
X117610016Y-67660001D02*
X112910016Y-67660001D01*
X112910016Y-67660001D02*
X112910016Y-65360001D01*
X112910016Y-65360001D02*
X117610016Y-65360001D01*
X117610016Y-67660001D02*
X117610016Y-65360001D01*
%TO.C,D4*%
X129550016Y-67660001D02*
X124850016Y-67660001D01*
X124850016Y-67660001D02*
X124850016Y-65360001D01*
X124850016Y-65360001D02*
X129550016Y-65360001D01*
X129550016Y-67660001D02*
X129550016Y-65360001D01*
%TO.C,C1*%
X123184016Y-61720001D02*
X123184016Y-63680001D01*
X123184016Y-63680001D02*
X119784016Y-63680001D01*
X119784016Y-63680001D02*
X119784016Y-61720001D01*
X119784016Y-61720001D02*
X123184016Y-61720001D01*
%TO.C,C2*%
X123782016Y-56441001D02*
X123782016Y-54481001D01*
X123782016Y-54481001D02*
X127182016Y-54481001D01*
X127182016Y-54481001D02*
X127182016Y-56441001D01*
X127182016Y-56441001D02*
X123782016Y-56441001D01*
%TO.C,C3*%
X124119016Y-60002001D02*
X122659016Y-60002001D01*
X122659016Y-60002001D02*
X122659016Y-57042001D01*
X122659016Y-57042001D02*
X124119016Y-57042001D01*
X124119016Y-57042001D02*
X124119016Y-60002001D01*
%TO.C,C4*%
X127167016Y-60002001D02*
X125707016Y-60002001D01*
X125707016Y-60002001D02*
X125707016Y-57042001D01*
X125707016Y-57042001D02*
X127167016Y-57042001D01*
X127167016Y-57042001D02*
X127167016Y-60002001D01*
%TO.C,C5*%
X126786016Y-53207501D02*
X125326016Y-53207501D01*
X125326016Y-53207501D02*
X125326016Y-50247501D01*
X125326016Y-50247501D02*
X126786016Y-50247501D01*
X126786016Y-50247501D02*
X126786016Y-53207501D01*
%TO.C,R6*%
X126925016Y-51746001D02*
X126925016Y-50286001D01*
X126925016Y-50286001D02*
X129885016Y-50286001D01*
X129885016Y-50286001D02*
X129885016Y-51746001D01*
X129885016Y-51746001D02*
X126925016Y-51746001D01*
%TO.C,C6*%
X125643016Y-57042001D02*
X125643016Y-60002001D01*
X124183016Y-57042001D02*
X125643016Y-57042001D01*
X124183016Y-60002001D02*
X124183016Y-57042001D01*
X125643016Y-60002001D02*
X124183016Y-60002001D01*
%TO.C,C7*%
X116435516Y-60381501D02*
X116435516Y-63341501D01*
X114975516Y-60381501D02*
X116435516Y-60381501D01*
X114975516Y-63341501D02*
X114975516Y-60381501D01*
X116435516Y-63341501D02*
X114975516Y-63341501D01*
%TO.C,D1*%
X98703511Y-65348501D02*
X97243511Y-65348501D01*
X97243511Y-65348501D02*
X97243511Y-62388501D01*
X97243511Y-62388501D02*
X98703511Y-62388501D01*
X98703511Y-62388501D02*
X98703511Y-65348501D01*
%TO.C,D2*%
X97179511Y-65348501D02*
X95719511Y-65348501D01*
X95719511Y-65348501D02*
X95719511Y-62388501D01*
X95719511Y-62388501D02*
X97179511Y-62388501D01*
X97179511Y-62388501D02*
X97179511Y-65348501D01*
%TO.C,F1*%
X96679011Y-50190001D02*
X96679011Y-52350001D01*
X96679011Y-52350001D02*
X91719011Y-52350001D01*
X91719011Y-52350001D02*
X91719011Y-50190001D01*
X91719011Y-50190001D02*
X96679011Y-50190001D01*
%TO.C,Q1*%
X100290011Y-67210001D02*
X100290011Y-63810001D01*
X100290011Y-63810001D02*
X103790011Y-63810001D01*
X103790011Y-63810001D02*
X103790011Y-67210001D01*
X103790011Y-67210001D02*
X100290011Y-67210001D01*
%TO.C,R1*%
X98584011Y-61341001D02*
X98584011Y-62281001D01*
X98584011Y-62281001D02*
X96724011Y-62281001D01*
X96724011Y-62281001D02*
X96724011Y-61341001D01*
X96724011Y-61341001D02*
X98584011Y-61341001D01*
%TO.C,R2*%
X102698011Y-56393001D02*
X101758011Y-56393001D01*
X101758011Y-56393001D02*
X101758011Y-54533001D01*
X101758011Y-54533001D02*
X102698011Y-54533001D01*
X102698011Y-54533001D02*
X102698011Y-56393001D01*
%TO.C,R3*%
X94188011Y-53391001D02*
X94188011Y-52451001D01*
X94188011Y-52451001D02*
X96048011Y-52451001D01*
X96048011Y-52451001D02*
X96048011Y-53391001D01*
X96048011Y-53391001D02*
X94188011Y-53391001D01*
%TO.C,R4*%
X95078011Y-65283001D02*
X94138011Y-65283001D01*
X94138011Y-65283001D02*
X94138011Y-63423001D01*
X94138011Y-63423001D02*
X95078011Y-63423001D01*
X95078011Y-63423001D02*
X95078011Y-65283001D01*
%TO.C,R5*%
X106398511Y-53340001D02*
X106398511Y-54280001D01*
X106398511Y-54280001D02*
X104538511Y-54280001D01*
X104538511Y-54280001D02*
X104538511Y-53340001D01*
X104538511Y-53340001D02*
X106398511Y-53340001D01*
%TO.C,U1*%
X102571011Y-60077001D02*
X106371011Y-60077001D01*
X106371011Y-60077001D02*
X106371011Y-63677001D01*
X106371011Y-63677001D02*
X102571011Y-63677001D01*
X102571011Y-63677001D02*
X102571011Y-60077001D01*
%TO.C,U2*%
X104466011Y-50226001D02*
X100666011Y-50226001D01*
X104466011Y-53826001D02*
X104466011Y-50226001D01*
X100666011Y-53826001D02*
X104466011Y-53826001D01*
X100666011Y-50226001D02*
X100666011Y-53826001D01*
%TO.C,U3*%
X100656011Y-50226001D02*
X96856011Y-50226001D01*
X100656011Y-53826001D02*
X100656011Y-50226001D01*
X96856011Y-53826001D02*
X100656011Y-53826001D01*
X96856011Y-50226001D02*
X96856011Y-53826001D01*
%TO.C,D3*%
X96830011Y-67660001D02*
X92130011Y-67660001D01*
X92130011Y-67660001D02*
X92130011Y-65360001D01*
X92130011Y-65360001D02*
X96830011Y-65360001D01*
X96830011Y-67660001D02*
X96830011Y-65360001D01*
%TO.C,D4*%
X108770011Y-67660001D02*
X104070011Y-67660001D01*
X104070011Y-67660001D02*
X104070011Y-65360001D01*
X104070011Y-65360001D02*
X108770011Y-65360001D01*
X108770011Y-67660001D02*
X108770011Y-65360001D01*
%TO.C,C1*%
X102404011Y-61720001D02*
X102404011Y-63680001D01*
X102404011Y-63680001D02*
X99004011Y-63680001D01*
X99004011Y-63680001D02*
X99004011Y-61720001D01*
X99004011Y-61720001D02*
X102404011Y-61720001D01*
%TO.C,C2*%
X103002011Y-56441001D02*
X103002011Y-54481001D01*
X103002011Y-54481001D02*
X106402011Y-54481001D01*
X106402011Y-54481001D02*
X106402011Y-56441001D01*
X106402011Y-56441001D02*
X103002011Y-56441001D01*
%TO.C,C3*%
X103339011Y-60002001D02*
X101879011Y-60002001D01*
X101879011Y-60002001D02*
X101879011Y-57042001D01*
X101879011Y-57042001D02*
X103339011Y-57042001D01*
X103339011Y-57042001D02*
X103339011Y-60002001D01*
%TO.C,C4*%
X106387011Y-60002001D02*
X104927011Y-60002001D01*
X104927011Y-60002001D02*
X104927011Y-57042001D01*
X104927011Y-57042001D02*
X106387011Y-57042001D01*
X106387011Y-57042001D02*
X106387011Y-60002001D01*
%TO.C,C5*%
X106006011Y-53207501D02*
X104546011Y-53207501D01*
X104546011Y-53207501D02*
X104546011Y-50247501D01*
X104546011Y-50247501D02*
X106006011Y-50247501D01*
X106006011Y-50247501D02*
X106006011Y-53207501D01*
%TO.C,R6*%
X106145011Y-51746001D02*
X106145011Y-50286001D01*
X106145011Y-50286001D02*
X109105011Y-50286001D01*
X109105011Y-50286001D02*
X109105011Y-51746001D01*
X109105011Y-51746001D02*
X106145011Y-51746001D01*
%TO.C,C6*%
X104863011Y-57042001D02*
X104863011Y-60002001D01*
X103403011Y-57042001D02*
X104863011Y-57042001D01*
X103403011Y-60002001D02*
X103403011Y-57042001D01*
X104863011Y-60002001D02*
X103403011Y-60002001D01*
%TO.C,C7*%
X95655511Y-60381501D02*
X95655511Y-63341501D01*
X94195511Y-60381501D02*
X95655511Y-60381501D01*
X94195511Y-63341501D02*
X94195511Y-60381501D01*
X95655511Y-63341501D02*
X94195511Y-63341501D01*
%TO.C,D1*%
X77923506Y-65348501D02*
X76463506Y-65348501D01*
X76463506Y-65348501D02*
X76463506Y-62388501D01*
X76463506Y-62388501D02*
X77923506Y-62388501D01*
X77923506Y-62388501D02*
X77923506Y-65348501D01*
%TO.C,D2*%
X76399506Y-65348501D02*
X74939506Y-65348501D01*
X74939506Y-65348501D02*
X74939506Y-62388501D01*
X74939506Y-62388501D02*
X76399506Y-62388501D01*
X76399506Y-62388501D02*
X76399506Y-65348501D01*
%TO.C,F1*%
X75899006Y-50190001D02*
X75899006Y-52350001D01*
X75899006Y-52350001D02*
X70939006Y-52350001D01*
X70939006Y-52350001D02*
X70939006Y-50190001D01*
X70939006Y-50190001D02*
X75899006Y-50190001D01*
%TO.C,Q1*%
X79510006Y-67210001D02*
X79510006Y-63810001D01*
X79510006Y-63810001D02*
X83010006Y-63810001D01*
X83010006Y-63810001D02*
X83010006Y-67210001D01*
X83010006Y-67210001D02*
X79510006Y-67210001D01*
%TO.C,R1*%
X77804006Y-61341001D02*
X77804006Y-62281001D01*
X77804006Y-62281001D02*
X75944006Y-62281001D01*
X75944006Y-62281001D02*
X75944006Y-61341001D01*
X75944006Y-61341001D02*
X77804006Y-61341001D01*
%TO.C,R2*%
X81918006Y-56393001D02*
X80978006Y-56393001D01*
X80978006Y-56393001D02*
X80978006Y-54533001D01*
X80978006Y-54533001D02*
X81918006Y-54533001D01*
X81918006Y-54533001D02*
X81918006Y-56393001D01*
%TO.C,R3*%
X73408006Y-53391001D02*
X73408006Y-52451001D01*
X73408006Y-52451001D02*
X75268006Y-52451001D01*
X75268006Y-52451001D02*
X75268006Y-53391001D01*
X75268006Y-53391001D02*
X73408006Y-53391001D01*
%TO.C,R4*%
X74298006Y-65283001D02*
X73358006Y-65283001D01*
X73358006Y-65283001D02*
X73358006Y-63423001D01*
X73358006Y-63423001D02*
X74298006Y-63423001D01*
X74298006Y-63423001D02*
X74298006Y-65283001D01*
%TO.C,R5*%
X85618506Y-53340001D02*
X85618506Y-54280001D01*
X85618506Y-54280001D02*
X83758506Y-54280001D01*
X83758506Y-54280001D02*
X83758506Y-53340001D01*
X83758506Y-53340001D02*
X85618506Y-53340001D01*
%TO.C,U1*%
X81791006Y-60077001D02*
X85591006Y-60077001D01*
X85591006Y-60077001D02*
X85591006Y-63677001D01*
X85591006Y-63677001D02*
X81791006Y-63677001D01*
X81791006Y-63677001D02*
X81791006Y-60077001D01*
%TO.C,U2*%
X83686006Y-50226001D02*
X79886006Y-50226001D01*
X83686006Y-53826001D02*
X83686006Y-50226001D01*
X79886006Y-53826001D02*
X83686006Y-53826001D01*
X79886006Y-50226001D02*
X79886006Y-53826001D01*
%TO.C,U3*%
X79876006Y-50226001D02*
X76076006Y-50226001D01*
X79876006Y-53826001D02*
X79876006Y-50226001D01*
X76076006Y-53826001D02*
X79876006Y-53826001D01*
X76076006Y-50226001D02*
X76076006Y-53826001D01*
%TO.C,D3*%
X76050006Y-67660001D02*
X71350006Y-67660001D01*
X71350006Y-67660001D02*
X71350006Y-65360001D01*
X71350006Y-65360001D02*
X76050006Y-65360001D01*
X76050006Y-67660001D02*
X76050006Y-65360001D01*
%TO.C,D4*%
X87990006Y-67660001D02*
X83290006Y-67660001D01*
X83290006Y-67660001D02*
X83290006Y-65360001D01*
X83290006Y-65360001D02*
X87990006Y-65360001D01*
X87990006Y-67660001D02*
X87990006Y-65360001D01*
%TO.C,C1*%
X81624006Y-61720001D02*
X81624006Y-63680001D01*
X81624006Y-63680001D02*
X78224006Y-63680001D01*
X78224006Y-63680001D02*
X78224006Y-61720001D01*
X78224006Y-61720001D02*
X81624006Y-61720001D01*
%TO.C,C2*%
X82222006Y-56441001D02*
X82222006Y-54481001D01*
X82222006Y-54481001D02*
X85622006Y-54481001D01*
X85622006Y-54481001D02*
X85622006Y-56441001D01*
X85622006Y-56441001D02*
X82222006Y-56441001D01*
%TO.C,C3*%
X82559006Y-60002001D02*
X81099006Y-60002001D01*
X81099006Y-60002001D02*
X81099006Y-57042001D01*
X81099006Y-57042001D02*
X82559006Y-57042001D01*
X82559006Y-57042001D02*
X82559006Y-60002001D01*
%TO.C,C4*%
X85607006Y-60002001D02*
X84147006Y-60002001D01*
X84147006Y-60002001D02*
X84147006Y-57042001D01*
X84147006Y-57042001D02*
X85607006Y-57042001D01*
X85607006Y-57042001D02*
X85607006Y-60002001D01*
%TO.C,C5*%
X85226006Y-53207501D02*
X83766006Y-53207501D01*
X83766006Y-53207501D02*
X83766006Y-50247501D01*
X83766006Y-50247501D02*
X85226006Y-50247501D01*
X85226006Y-50247501D02*
X85226006Y-53207501D01*
%TO.C,R6*%
X85365006Y-51746001D02*
X85365006Y-50286001D01*
X85365006Y-50286001D02*
X88325006Y-50286001D01*
X88325006Y-50286001D02*
X88325006Y-51746001D01*
X88325006Y-51746001D02*
X85365006Y-51746001D01*
%TO.C,C6*%
X84083006Y-57042001D02*
X84083006Y-60002001D01*
X82623006Y-57042001D02*
X84083006Y-57042001D01*
X82623006Y-60002001D02*
X82623006Y-57042001D01*
X84083006Y-60002001D02*
X82623006Y-60002001D01*
%TO.C,C7*%
X74875506Y-60381501D02*
X74875506Y-63341501D01*
X73415506Y-60381501D02*
X74875506Y-60381501D01*
X73415506Y-63341501D02*
X73415506Y-60381501D01*
X74875506Y-63341501D02*
X73415506Y-63341501D01*
%TO.C,D1*%
X57143501Y-65348501D02*
X55683501Y-65348501D01*
X55683501Y-65348501D02*
X55683501Y-62388501D01*
X55683501Y-62388501D02*
X57143501Y-62388501D01*
X57143501Y-62388501D02*
X57143501Y-65348501D01*
%TO.C,D2*%
X55619501Y-65348501D02*
X54159501Y-65348501D01*
X54159501Y-65348501D02*
X54159501Y-62388501D01*
X54159501Y-62388501D02*
X55619501Y-62388501D01*
X55619501Y-62388501D02*
X55619501Y-65348501D01*
%TO.C,F1*%
X55119001Y-50190001D02*
X55119001Y-52350001D01*
X55119001Y-52350001D02*
X50159001Y-52350001D01*
X50159001Y-52350001D02*
X50159001Y-50190001D01*
X50159001Y-50190001D02*
X55119001Y-50190001D01*
%TO.C,Q1*%
X58730001Y-67210001D02*
X58730001Y-63810001D01*
X58730001Y-63810001D02*
X62230001Y-63810001D01*
X62230001Y-63810001D02*
X62230001Y-67210001D01*
X62230001Y-67210001D02*
X58730001Y-67210001D01*
%TO.C,R1*%
X57024001Y-61341001D02*
X57024001Y-62281001D01*
X57024001Y-62281001D02*
X55164001Y-62281001D01*
X55164001Y-62281001D02*
X55164001Y-61341001D01*
X55164001Y-61341001D02*
X57024001Y-61341001D01*
%TO.C,R2*%
X61138001Y-56393001D02*
X60198001Y-56393001D01*
X60198001Y-56393001D02*
X60198001Y-54533001D01*
X60198001Y-54533001D02*
X61138001Y-54533001D01*
X61138001Y-54533001D02*
X61138001Y-56393001D01*
%TO.C,R3*%
X52628001Y-53391001D02*
X52628001Y-52451001D01*
X52628001Y-52451001D02*
X54488001Y-52451001D01*
X54488001Y-52451001D02*
X54488001Y-53391001D01*
X54488001Y-53391001D02*
X52628001Y-53391001D01*
%TO.C,R4*%
X53518001Y-65283001D02*
X52578001Y-65283001D01*
X52578001Y-65283001D02*
X52578001Y-63423001D01*
X52578001Y-63423001D02*
X53518001Y-63423001D01*
X53518001Y-63423001D02*
X53518001Y-65283001D01*
%TO.C,R5*%
X64838501Y-53340001D02*
X64838501Y-54280001D01*
X64838501Y-54280001D02*
X62978501Y-54280001D01*
X62978501Y-54280001D02*
X62978501Y-53340001D01*
X62978501Y-53340001D02*
X64838501Y-53340001D01*
%TO.C,U1*%
X61011001Y-60077001D02*
X64811001Y-60077001D01*
X64811001Y-60077001D02*
X64811001Y-63677001D01*
X64811001Y-63677001D02*
X61011001Y-63677001D01*
X61011001Y-63677001D02*
X61011001Y-60077001D01*
%TO.C,U2*%
X62906001Y-50226001D02*
X59106001Y-50226001D01*
X62906001Y-53826001D02*
X62906001Y-50226001D01*
X59106001Y-53826001D02*
X62906001Y-53826001D01*
X59106001Y-50226001D02*
X59106001Y-53826001D01*
%TO.C,U3*%
X59096001Y-50226001D02*
X55296001Y-50226001D01*
X59096001Y-53826001D02*
X59096001Y-50226001D01*
X55296001Y-53826001D02*
X59096001Y-53826001D01*
X55296001Y-50226001D02*
X55296001Y-53826001D01*
%TO.C,D3*%
X55270001Y-67660001D02*
X50570001Y-67660001D01*
X50570001Y-67660001D02*
X50570001Y-65360001D01*
X50570001Y-65360001D02*
X55270001Y-65360001D01*
X55270001Y-67660001D02*
X55270001Y-65360001D01*
%TO.C,D4*%
X67210001Y-67660001D02*
X62510001Y-67660001D01*
X62510001Y-67660001D02*
X62510001Y-65360001D01*
X62510001Y-65360001D02*
X67210001Y-65360001D01*
X67210001Y-67660001D02*
X67210001Y-65360001D01*
%TO.C,C1*%
X60844001Y-61720001D02*
X60844001Y-63680001D01*
X60844001Y-63680001D02*
X57444001Y-63680001D01*
X57444001Y-63680001D02*
X57444001Y-61720001D01*
X57444001Y-61720001D02*
X60844001Y-61720001D01*
%TO.C,C2*%
X61442001Y-56441001D02*
X61442001Y-54481001D01*
X61442001Y-54481001D02*
X64842001Y-54481001D01*
X64842001Y-54481001D02*
X64842001Y-56441001D01*
X64842001Y-56441001D02*
X61442001Y-56441001D01*
%TO.C,C3*%
X61779001Y-60002001D02*
X60319001Y-60002001D01*
X60319001Y-60002001D02*
X60319001Y-57042001D01*
X60319001Y-57042001D02*
X61779001Y-57042001D01*
X61779001Y-57042001D02*
X61779001Y-60002001D01*
%TO.C,C4*%
X64827001Y-60002001D02*
X63367001Y-60002001D01*
X63367001Y-60002001D02*
X63367001Y-57042001D01*
X63367001Y-57042001D02*
X64827001Y-57042001D01*
X64827001Y-57042001D02*
X64827001Y-60002001D01*
%TO.C,C5*%
X64446001Y-53207501D02*
X62986001Y-53207501D01*
X62986001Y-53207501D02*
X62986001Y-50247501D01*
X62986001Y-50247501D02*
X64446001Y-50247501D01*
X64446001Y-50247501D02*
X64446001Y-53207501D01*
%TO.C,R6*%
X64585001Y-51746001D02*
X64585001Y-50286001D01*
X64585001Y-50286001D02*
X67545001Y-50286001D01*
X67545001Y-50286001D02*
X67545001Y-51746001D01*
X67545001Y-51746001D02*
X64585001Y-51746001D01*
%TO.C,C6*%
X63303001Y-57042001D02*
X63303001Y-60002001D01*
X61843001Y-57042001D02*
X63303001Y-57042001D01*
X61843001Y-60002001D02*
X61843001Y-57042001D01*
X63303001Y-60002001D02*
X61843001Y-60002001D01*
%TO.C,C7*%
X54095501Y-60381501D02*
X54095501Y-63341501D01*
X52635501Y-60381501D02*
X54095501Y-60381501D01*
X52635501Y-63341501D02*
X52635501Y-60381501D01*
X54095501Y-63341501D02*
X52635501Y-63341501D01*
%TD*%
M02*
