%TF.GenerationSoftware,KiCad,Pcbnew,5.1.8*%
%TF.CreationDate,2020-11-29T16:03:20+01:00*%
%TF.ProjectId,panel2,70616e65-6c32-42e6-9b69-6361645f7063,rev?*%
%TF.SameCoordinates,Original*%
%TF.FileFunction,OtherDrawing,Comment*%
%FSLAX46Y46*%
G04 Gerber Fmt 4.6, Leading zero omitted, Abs format (unit mm)*
G04 Created by KiCad (PCBNEW 5.1.8) date 2020-11-29 16:03:20*
%MOMM*%
%LPD*%
G01*
G04 APERTURE LIST*
%ADD10C,0.150000*%
G04 APERTURE END LIST*
D10*
X108047635Y-117658587D02*
X108047635Y-117087158D01*
X108047635Y-117372873D02*
X109047635Y-117372873D01*
X108904777Y-117277635D01*
X108809539Y-117182396D01*
X108761920Y-117087158D01*
X109047635Y-117991920D02*
X109047635Y-118658587D01*
X108047635Y-118230016D01*
X108142873Y-119039539D02*
X108095254Y-119087158D01*
X108047635Y-119039539D01*
X108095254Y-118991920D01*
X108142873Y-119039539D01*
X108047635Y-119039539D01*
X109047635Y-119420492D02*
X109047635Y-120087158D01*
X108047635Y-119658587D01*
X108619063Y-120610968D02*
X108666682Y-120515730D01*
X108714301Y-120468111D01*
X108809539Y-120420492D01*
X108857158Y-120420492D01*
X108952396Y-120468111D01*
X109000016Y-120515730D01*
X109047635Y-120610968D01*
X109047635Y-120801444D01*
X109000016Y-120896682D01*
X108952396Y-120944301D01*
X108857158Y-120991920D01*
X108809539Y-120991920D01*
X108714301Y-120944301D01*
X108666682Y-120896682D01*
X108619063Y-120801444D01*
X108619063Y-120610968D01*
X108571444Y-120515730D01*
X108523825Y-120468111D01*
X108428587Y-120420492D01*
X108238111Y-120420492D01*
X108142873Y-120468111D01*
X108095254Y-120515730D01*
X108047635Y-120610968D01*
X108047635Y-120801444D01*
X108095254Y-120896682D01*
X108142873Y-120944301D01*
X108238111Y-120991920D01*
X108428587Y-120991920D01*
X108523825Y-120944301D01*
X108571444Y-120896682D01*
X108619063Y-120801444D01*
X109047635Y-121610968D02*
X109047635Y-121706206D01*
X109000016Y-121801444D01*
X108952396Y-121849063D01*
X108857158Y-121896682D01*
X108666682Y-121944301D01*
X108428587Y-121944301D01*
X108238111Y-121896682D01*
X108142873Y-121849063D01*
X108095254Y-121801444D01*
X108047635Y-121706206D01*
X108047635Y-121610968D01*
X108095254Y-121515730D01*
X108142873Y-121468111D01*
X108238111Y-121420492D01*
X108428587Y-121372873D01*
X108666682Y-121372873D01*
X108857158Y-121420492D01*
X108952396Y-121468111D01*
X109000016Y-121515730D01*
X109047635Y-121610968D01*
X108047635Y-123134777D02*
X108714301Y-123134777D01*
X108619063Y-123134777D02*
X108666682Y-123182396D01*
X108714301Y-123277635D01*
X108714301Y-123420492D01*
X108666682Y-123515730D01*
X108571444Y-123563349D01*
X108047635Y-123563349D01*
X108571444Y-123563349D02*
X108666682Y-123610968D01*
X108714301Y-123706206D01*
X108714301Y-123849063D01*
X108666682Y-123944301D01*
X108571444Y-123991920D01*
X108047635Y-123991920D01*
X108047635Y-124468111D02*
X108714301Y-124468111D01*
X108619063Y-124468111D02*
X108666682Y-124515730D01*
X108714301Y-124610968D01*
X108714301Y-124753825D01*
X108666682Y-124849063D01*
X108571444Y-124896682D01*
X108047635Y-124896682D01*
X108571444Y-124896682D02*
X108666682Y-124944301D01*
X108714301Y-125039539D01*
X108714301Y-125182396D01*
X108666682Y-125277635D01*
X108571444Y-125325254D01*
X108047635Y-125325254D01*
X109800016Y-112340016D02*
X109800016Y-130120016D01*
X112340016Y-112340016D02*
X109213595Y-112340016D01*
X112340016Y-130120016D02*
X109213595Y-130120016D01*
X109800016Y-130120016D02*
X109213595Y-128993512D01*
X109800016Y-130120016D02*
X110386437Y-128993512D01*
X109800016Y-112340016D02*
X109213595Y-113466520D01*
X109800016Y-112340016D02*
X110386437Y-113466520D01*
X117658587Y-108952396D02*
X117087158Y-108952396D01*
X117372873Y-108952396D02*
X117372873Y-107952396D01*
X117277635Y-108095254D01*
X117182396Y-108190492D01*
X117087158Y-108238111D01*
X117991920Y-107952396D02*
X118658587Y-107952396D01*
X118230016Y-108952396D01*
X119039539Y-108857158D02*
X119087158Y-108904777D01*
X119039539Y-108952396D01*
X118991920Y-108904777D01*
X119039539Y-108857158D01*
X119039539Y-108952396D01*
X119420492Y-107952396D02*
X120087158Y-107952396D01*
X119658587Y-108952396D01*
X120610968Y-108380968D02*
X120515730Y-108333349D01*
X120468111Y-108285730D01*
X120420492Y-108190492D01*
X120420492Y-108142873D01*
X120468111Y-108047635D01*
X120515730Y-108000016D01*
X120610968Y-107952396D01*
X120801444Y-107952396D01*
X120896682Y-108000016D01*
X120944301Y-108047635D01*
X120991920Y-108142873D01*
X120991920Y-108190492D01*
X120944301Y-108285730D01*
X120896682Y-108333349D01*
X120801444Y-108380968D01*
X120610968Y-108380968D01*
X120515730Y-108428587D01*
X120468111Y-108476206D01*
X120420492Y-108571444D01*
X120420492Y-108761920D01*
X120468111Y-108857158D01*
X120515730Y-108904777D01*
X120610968Y-108952396D01*
X120801444Y-108952396D01*
X120896682Y-108904777D01*
X120944301Y-108857158D01*
X120991920Y-108761920D01*
X120991920Y-108571444D01*
X120944301Y-108476206D01*
X120896682Y-108428587D01*
X120801444Y-108380968D01*
X121610968Y-107952396D02*
X121706206Y-107952396D01*
X121801444Y-108000016D01*
X121849063Y-108047635D01*
X121896682Y-108142873D01*
X121944301Y-108333349D01*
X121944301Y-108571444D01*
X121896682Y-108761920D01*
X121849063Y-108857158D01*
X121801444Y-108904777D01*
X121706206Y-108952396D01*
X121610968Y-108952396D01*
X121515730Y-108904777D01*
X121468111Y-108857158D01*
X121420492Y-108761920D01*
X121372873Y-108571444D01*
X121372873Y-108333349D01*
X121420492Y-108142873D01*
X121468111Y-108047635D01*
X121515730Y-108000016D01*
X121610968Y-107952396D01*
X123134777Y-108952396D02*
X123134777Y-108285730D01*
X123134777Y-108380968D02*
X123182396Y-108333349D01*
X123277635Y-108285730D01*
X123420492Y-108285730D01*
X123515730Y-108333349D01*
X123563349Y-108428587D01*
X123563349Y-108952396D01*
X123563349Y-108428587D02*
X123610968Y-108333349D01*
X123706206Y-108285730D01*
X123849063Y-108285730D01*
X123944301Y-108333349D01*
X123991920Y-108428587D01*
X123991920Y-108952396D01*
X124468111Y-108952396D02*
X124468111Y-108285730D01*
X124468111Y-108380968D02*
X124515730Y-108333349D01*
X124610968Y-108285730D01*
X124753825Y-108285730D01*
X124849063Y-108333349D01*
X124896682Y-108428587D01*
X124896682Y-108952396D01*
X124896682Y-108428587D02*
X124944301Y-108333349D01*
X125039539Y-108285730D01*
X125182396Y-108285730D01*
X125277635Y-108333349D01*
X125325254Y-108428587D01*
X125325254Y-108952396D01*
X112340016Y-109800016D02*
X130120016Y-109800016D01*
X112340016Y-112340016D02*
X112340016Y-109213595D01*
X130120016Y-112340016D02*
X130120016Y-109213595D01*
X130120016Y-109800016D02*
X128993512Y-110386437D01*
X130120016Y-109800016D02*
X128993512Y-109213595D01*
X112340016Y-109800016D02*
X113466520Y-110386437D01*
X112340016Y-109800016D02*
X113466520Y-109213595D01*
X87267630Y-117658587D02*
X87267630Y-117087158D01*
X87267630Y-117372873D02*
X88267630Y-117372873D01*
X88124772Y-117277635D01*
X88029534Y-117182396D01*
X87981915Y-117087158D01*
X88267630Y-117991920D02*
X88267630Y-118658587D01*
X87267630Y-118230016D01*
X87362868Y-119039539D02*
X87315249Y-119087158D01*
X87267630Y-119039539D01*
X87315249Y-118991920D01*
X87362868Y-119039539D01*
X87267630Y-119039539D01*
X88267630Y-119420492D02*
X88267630Y-120087158D01*
X87267630Y-119658587D01*
X87839058Y-120610968D02*
X87886677Y-120515730D01*
X87934296Y-120468111D01*
X88029534Y-120420492D01*
X88077153Y-120420492D01*
X88172391Y-120468111D01*
X88220011Y-120515730D01*
X88267630Y-120610968D01*
X88267630Y-120801444D01*
X88220011Y-120896682D01*
X88172391Y-120944301D01*
X88077153Y-120991920D01*
X88029534Y-120991920D01*
X87934296Y-120944301D01*
X87886677Y-120896682D01*
X87839058Y-120801444D01*
X87839058Y-120610968D01*
X87791439Y-120515730D01*
X87743820Y-120468111D01*
X87648582Y-120420492D01*
X87458106Y-120420492D01*
X87362868Y-120468111D01*
X87315249Y-120515730D01*
X87267630Y-120610968D01*
X87267630Y-120801444D01*
X87315249Y-120896682D01*
X87362868Y-120944301D01*
X87458106Y-120991920D01*
X87648582Y-120991920D01*
X87743820Y-120944301D01*
X87791439Y-120896682D01*
X87839058Y-120801444D01*
X88267630Y-121610968D02*
X88267630Y-121706206D01*
X88220011Y-121801444D01*
X88172391Y-121849063D01*
X88077153Y-121896682D01*
X87886677Y-121944301D01*
X87648582Y-121944301D01*
X87458106Y-121896682D01*
X87362868Y-121849063D01*
X87315249Y-121801444D01*
X87267630Y-121706206D01*
X87267630Y-121610968D01*
X87315249Y-121515730D01*
X87362868Y-121468111D01*
X87458106Y-121420492D01*
X87648582Y-121372873D01*
X87886677Y-121372873D01*
X88077153Y-121420492D01*
X88172391Y-121468111D01*
X88220011Y-121515730D01*
X88267630Y-121610968D01*
X87267630Y-123134777D02*
X87934296Y-123134777D01*
X87839058Y-123134777D02*
X87886677Y-123182396D01*
X87934296Y-123277635D01*
X87934296Y-123420492D01*
X87886677Y-123515730D01*
X87791439Y-123563349D01*
X87267630Y-123563349D01*
X87791439Y-123563349D02*
X87886677Y-123610968D01*
X87934296Y-123706206D01*
X87934296Y-123849063D01*
X87886677Y-123944301D01*
X87791439Y-123991920D01*
X87267630Y-123991920D01*
X87267630Y-124468111D02*
X87934296Y-124468111D01*
X87839058Y-124468111D02*
X87886677Y-124515730D01*
X87934296Y-124610968D01*
X87934296Y-124753825D01*
X87886677Y-124849063D01*
X87791439Y-124896682D01*
X87267630Y-124896682D01*
X87791439Y-124896682D02*
X87886677Y-124944301D01*
X87934296Y-125039539D01*
X87934296Y-125182396D01*
X87886677Y-125277635D01*
X87791439Y-125325254D01*
X87267630Y-125325254D01*
X89020011Y-112340016D02*
X89020011Y-130120016D01*
X91560011Y-112340016D02*
X88433590Y-112340016D01*
X91560011Y-130120016D02*
X88433590Y-130120016D01*
X89020011Y-130120016D02*
X88433590Y-128993512D01*
X89020011Y-130120016D02*
X89606432Y-128993512D01*
X89020011Y-112340016D02*
X88433590Y-113466520D01*
X89020011Y-112340016D02*
X89606432Y-113466520D01*
X96878582Y-108952396D02*
X96307153Y-108952396D01*
X96592868Y-108952396D02*
X96592868Y-107952396D01*
X96497630Y-108095254D01*
X96402391Y-108190492D01*
X96307153Y-108238111D01*
X97211915Y-107952396D02*
X97878582Y-107952396D01*
X97450011Y-108952396D01*
X98259534Y-108857158D02*
X98307153Y-108904777D01*
X98259534Y-108952396D01*
X98211915Y-108904777D01*
X98259534Y-108857158D01*
X98259534Y-108952396D01*
X98640487Y-107952396D02*
X99307153Y-107952396D01*
X98878582Y-108952396D01*
X99830963Y-108380968D02*
X99735725Y-108333349D01*
X99688106Y-108285730D01*
X99640487Y-108190492D01*
X99640487Y-108142873D01*
X99688106Y-108047635D01*
X99735725Y-108000016D01*
X99830963Y-107952396D01*
X100021439Y-107952396D01*
X100116677Y-108000016D01*
X100164296Y-108047635D01*
X100211915Y-108142873D01*
X100211915Y-108190492D01*
X100164296Y-108285730D01*
X100116677Y-108333349D01*
X100021439Y-108380968D01*
X99830963Y-108380968D01*
X99735725Y-108428587D01*
X99688106Y-108476206D01*
X99640487Y-108571444D01*
X99640487Y-108761920D01*
X99688106Y-108857158D01*
X99735725Y-108904777D01*
X99830963Y-108952396D01*
X100021439Y-108952396D01*
X100116677Y-108904777D01*
X100164296Y-108857158D01*
X100211915Y-108761920D01*
X100211915Y-108571444D01*
X100164296Y-108476206D01*
X100116677Y-108428587D01*
X100021439Y-108380968D01*
X100830963Y-107952396D02*
X100926201Y-107952396D01*
X101021439Y-108000016D01*
X101069058Y-108047635D01*
X101116677Y-108142873D01*
X101164296Y-108333349D01*
X101164296Y-108571444D01*
X101116677Y-108761920D01*
X101069058Y-108857158D01*
X101021439Y-108904777D01*
X100926201Y-108952396D01*
X100830963Y-108952396D01*
X100735725Y-108904777D01*
X100688106Y-108857158D01*
X100640487Y-108761920D01*
X100592868Y-108571444D01*
X100592868Y-108333349D01*
X100640487Y-108142873D01*
X100688106Y-108047635D01*
X100735725Y-108000016D01*
X100830963Y-107952396D01*
X102354772Y-108952396D02*
X102354772Y-108285730D01*
X102354772Y-108380968D02*
X102402391Y-108333349D01*
X102497630Y-108285730D01*
X102640487Y-108285730D01*
X102735725Y-108333349D01*
X102783344Y-108428587D01*
X102783344Y-108952396D01*
X102783344Y-108428587D02*
X102830963Y-108333349D01*
X102926201Y-108285730D01*
X103069058Y-108285730D01*
X103164296Y-108333349D01*
X103211915Y-108428587D01*
X103211915Y-108952396D01*
X103688106Y-108952396D02*
X103688106Y-108285730D01*
X103688106Y-108380968D02*
X103735725Y-108333349D01*
X103830963Y-108285730D01*
X103973820Y-108285730D01*
X104069058Y-108333349D01*
X104116677Y-108428587D01*
X104116677Y-108952396D01*
X104116677Y-108428587D02*
X104164296Y-108333349D01*
X104259534Y-108285730D01*
X104402391Y-108285730D01*
X104497630Y-108333349D01*
X104545249Y-108428587D01*
X104545249Y-108952396D01*
X91560011Y-109800016D02*
X109340011Y-109800016D01*
X91560011Y-112340016D02*
X91560011Y-109213595D01*
X109340011Y-112340016D02*
X109340011Y-109213595D01*
X109340011Y-109800016D02*
X108213507Y-110386437D01*
X109340011Y-109800016D02*
X108213507Y-109213595D01*
X91560011Y-109800016D02*
X92686515Y-110386437D01*
X91560011Y-109800016D02*
X92686515Y-109213595D01*
X66487625Y-117658587D02*
X66487625Y-117087158D01*
X66487625Y-117372873D02*
X67487625Y-117372873D01*
X67344767Y-117277635D01*
X67249529Y-117182396D01*
X67201910Y-117087158D01*
X67487625Y-117991920D02*
X67487625Y-118658587D01*
X66487625Y-118230016D01*
X66582863Y-119039539D02*
X66535244Y-119087158D01*
X66487625Y-119039539D01*
X66535244Y-118991920D01*
X66582863Y-119039539D01*
X66487625Y-119039539D01*
X67487625Y-119420492D02*
X67487625Y-120087158D01*
X66487625Y-119658587D01*
X67059053Y-120610968D02*
X67106672Y-120515730D01*
X67154291Y-120468111D01*
X67249529Y-120420492D01*
X67297148Y-120420492D01*
X67392386Y-120468111D01*
X67440006Y-120515730D01*
X67487625Y-120610968D01*
X67487625Y-120801444D01*
X67440006Y-120896682D01*
X67392386Y-120944301D01*
X67297148Y-120991920D01*
X67249529Y-120991920D01*
X67154291Y-120944301D01*
X67106672Y-120896682D01*
X67059053Y-120801444D01*
X67059053Y-120610968D01*
X67011434Y-120515730D01*
X66963815Y-120468111D01*
X66868577Y-120420492D01*
X66678101Y-120420492D01*
X66582863Y-120468111D01*
X66535244Y-120515730D01*
X66487625Y-120610968D01*
X66487625Y-120801444D01*
X66535244Y-120896682D01*
X66582863Y-120944301D01*
X66678101Y-120991920D01*
X66868577Y-120991920D01*
X66963815Y-120944301D01*
X67011434Y-120896682D01*
X67059053Y-120801444D01*
X67487625Y-121610968D02*
X67487625Y-121706206D01*
X67440006Y-121801444D01*
X67392386Y-121849063D01*
X67297148Y-121896682D01*
X67106672Y-121944301D01*
X66868577Y-121944301D01*
X66678101Y-121896682D01*
X66582863Y-121849063D01*
X66535244Y-121801444D01*
X66487625Y-121706206D01*
X66487625Y-121610968D01*
X66535244Y-121515730D01*
X66582863Y-121468111D01*
X66678101Y-121420492D01*
X66868577Y-121372873D01*
X67106672Y-121372873D01*
X67297148Y-121420492D01*
X67392386Y-121468111D01*
X67440006Y-121515730D01*
X67487625Y-121610968D01*
X66487625Y-123134777D02*
X67154291Y-123134777D01*
X67059053Y-123134777D02*
X67106672Y-123182396D01*
X67154291Y-123277635D01*
X67154291Y-123420492D01*
X67106672Y-123515730D01*
X67011434Y-123563349D01*
X66487625Y-123563349D01*
X67011434Y-123563349D02*
X67106672Y-123610968D01*
X67154291Y-123706206D01*
X67154291Y-123849063D01*
X67106672Y-123944301D01*
X67011434Y-123991920D01*
X66487625Y-123991920D01*
X66487625Y-124468111D02*
X67154291Y-124468111D01*
X67059053Y-124468111D02*
X67106672Y-124515730D01*
X67154291Y-124610968D01*
X67154291Y-124753825D01*
X67106672Y-124849063D01*
X67011434Y-124896682D01*
X66487625Y-124896682D01*
X67011434Y-124896682D02*
X67106672Y-124944301D01*
X67154291Y-125039539D01*
X67154291Y-125182396D01*
X67106672Y-125277635D01*
X67011434Y-125325254D01*
X66487625Y-125325254D01*
X68240006Y-112340016D02*
X68240006Y-130120016D01*
X70780006Y-112340016D02*
X67653585Y-112340016D01*
X70780006Y-130120016D02*
X67653585Y-130120016D01*
X68240006Y-130120016D02*
X67653585Y-128993512D01*
X68240006Y-130120016D02*
X68826427Y-128993512D01*
X68240006Y-112340016D02*
X67653585Y-113466520D01*
X68240006Y-112340016D02*
X68826427Y-113466520D01*
X76098577Y-108952396D02*
X75527148Y-108952396D01*
X75812863Y-108952396D02*
X75812863Y-107952396D01*
X75717625Y-108095254D01*
X75622386Y-108190492D01*
X75527148Y-108238111D01*
X76431910Y-107952396D02*
X77098577Y-107952396D01*
X76670006Y-108952396D01*
X77479529Y-108857158D02*
X77527148Y-108904777D01*
X77479529Y-108952396D01*
X77431910Y-108904777D01*
X77479529Y-108857158D01*
X77479529Y-108952396D01*
X77860482Y-107952396D02*
X78527148Y-107952396D01*
X78098577Y-108952396D01*
X79050958Y-108380968D02*
X78955720Y-108333349D01*
X78908101Y-108285730D01*
X78860482Y-108190492D01*
X78860482Y-108142873D01*
X78908101Y-108047635D01*
X78955720Y-108000016D01*
X79050958Y-107952396D01*
X79241434Y-107952396D01*
X79336672Y-108000016D01*
X79384291Y-108047635D01*
X79431910Y-108142873D01*
X79431910Y-108190492D01*
X79384291Y-108285730D01*
X79336672Y-108333349D01*
X79241434Y-108380968D01*
X79050958Y-108380968D01*
X78955720Y-108428587D01*
X78908101Y-108476206D01*
X78860482Y-108571444D01*
X78860482Y-108761920D01*
X78908101Y-108857158D01*
X78955720Y-108904777D01*
X79050958Y-108952396D01*
X79241434Y-108952396D01*
X79336672Y-108904777D01*
X79384291Y-108857158D01*
X79431910Y-108761920D01*
X79431910Y-108571444D01*
X79384291Y-108476206D01*
X79336672Y-108428587D01*
X79241434Y-108380968D01*
X80050958Y-107952396D02*
X80146196Y-107952396D01*
X80241434Y-108000016D01*
X80289053Y-108047635D01*
X80336672Y-108142873D01*
X80384291Y-108333349D01*
X80384291Y-108571444D01*
X80336672Y-108761920D01*
X80289053Y-108857158D01*
X80241434Y-108904777D01*
X80146196Y-108952396D01*
X80050958Y-108952396D01*
X79955720Y-108904777D01*
X79908101Y-108857158D01*
X79860482Y-108761920D01*
X79812863Y-108571444D01*
X79812863Y-108333349D01*
X79860482Y-108142873D01*
X79908101Y-108047635D01*
X79955720Y-108000016D01*
X80050958Y-107952396D01*
X81574767Y-108952396D02*
X81574767Y-108285730D01*
X81574767Y-108380968D02*
X81622386Y-108333349D01*
X81717625Y-108285730D01*
X81860482Y-108285730D01*
X81955720Y-108333349D01*
X82003339Y-108428587D01*
X82003339Y-108952396D01*
X82003339Y-108428587D02*
X82050958Y-108333349D01*
X82146196Y-108285730D01*
X82289053Y-108285730D01*
X82384291Y-108333349D01*
X82431910Y-108428587D01*
X82431910Y-108952396D01*
X82908101Y-108952396D02*
X82908101Y-108285730D01*
X82908101Y-108380968D02*
X82955720Y-108333349D01*
X83050958Y-108285730D01*
X83193815Y-108285730D01*
X83289053Y-108333349D01*
X83336672Y-108428587D01*
X83336672Y-108952396D01*
X83336672Y-108428587D02*
X83384291Y-108333349D01*
X83479529Y-108285730D01*
X83622386Y-108285730D01*
X83717625Y-108333349D01*
X83765244Y-108428587D01*
X83765244Y-108952396D01*
X70780006Y-109800016D02*
X88560006Y-109800016D01*
X70780006Y-112340016D02*
X70780006Y-109213595D01*
X88560006Y-112340016D02*
X88560006Y-109213595D01*
X88560006Y-109800016D02*
X87433502Y-110386437D01*
X88560006Y-109800016D02*
X87433502Y-109213595D01*
X70780006Y-109800016D02*
X71906510Y-110386437D01*
X70780006Y-109800016D02*
X71906510Y-109213595D01*
X45707620Y-117658587D02*
X45707620Y-117087158D01*
X45707620Y-117372873D02*
X46707620Y-117372873D01*
X46564762Y-117277635D01*
X46469524Y-117182396D01*
X46421905Y-117087158D01*
X46707620Y-117991920D02*
X46707620Y-118658587D01*
X45707620Y-118230016D01*
X45802858Y-119039539D02*
X45755239Y-119087158D01*
X45707620Y-119039539D01*
X45755239Y-118991920D01*
X45802858Y-119039539D01*
X45707620Y-119039539D01*
X46707620Y-119420492D02*
X46707620Y-120087158D01*
X45707620Y-119658587D01*
X46279048Y-120610968D02*
X46326667Y-120515730D01*
X46374286Y-120468111D01*
X46469524Y-120420492D01*
X46517143Y-120420492D01*
X46612381Y-120468111D01*
X46660001Y-120515730D01*
X46707620Y-120610968D01*
X46707620Y-120801444D01*
X46660001Y-120896682D01*
X46612381Y-120944301D01*
X46517143Y-120991920D01*
X46469524Y-120991920D01*
X46374286Y-120944301D01*
X46326667Y-120896682D01*
X46279048Y-120801444D01*
X46279048Y-120610968D01*
X46231429Y-120515730D01*
X46183810Y-120468111D01*
X46088572Y-120420492D01*
X45898096Y-120420492D01*
X45802858Y-120468111D01*
X45755239Y-120515730D01*
X45707620Y-120610968D01*
X45707620Y-120801444D01*
X45755239Y-120896682D01*
X45802858Y-120944301D01*
X45898096Y-120991920D01*
X46088572Y-120991920D01*
X46183810Y-120944301D01*
X46231429Y-120896682D01*
X46279048Y-120801444D01*
X46707620Y-121610968D02*
X46707620Y-121706206D01*
X46660001Y-121801444D01*
X46612381Y-121849063D01*
X46517143Y-121896682D01*
X46326667Y-121944301D01*
X46088572Y-121944301D01*
X45898096Y-121896682D01*
X45802858Y-121849063D01*
X45755239Y-121801444D01*
X45707620Y-121706206D01*
X45707620Y-121610968D01*
X45755239Y-121515730D01*
X45802858Y-121468111D01*
X45898096Y-121420492D01*
X46088572Y-121372873D01*
X46326667Y-121372873D01*
X46517143Y-121420492D01*
X46612381Y-121468111D01*
X46660001Y-121515730D01*
X46707620Y-121610968D01*
X45707620Y-123134777D02*
X46374286Y-123134777D01*
X46279048Y-123134777D02*
X46326667Y-123182396D01*
X46374286Y-123277635D01*
X46374286Y-123420492D01*
X46326667Y-123515730D01*
X46231429Y-123563349D01*
X45707620Y-123563349D01*
X46231429Y-123563349D02*
X46326667Y-123610968D01*
X46374286Y-123706206D01*
X46374286Y-123849063D01*
X46326667Y-123944301D01*
X46231429Y-123991920D01*
X45707620Y-123991920D01*
X45707620Y-124468111D02*
X46374286Y-124468111D01*
X46279048Y-124468111D02*
X46326667Y-124515730D01*
X46374286Y-124610968D01*
X46374286Y-124753825D01*
X46326667Y-124849063D01*
X46231429Y-124896682D01*
X45707620Y-124896682D01*
X46231429Y-124896682D02*
X46326667Y-124944301D01*
X46374286Y-125039539D01*
X46374286Y-125182396D01*
X46326667Y-125277635D01*
X46231429Y-125325254D01*
X45707620Y-125325254D01*
X47460001Y-112340016D02*
X47460001Y-130120016D01*
X50000001Y-112340016D02*
X46873580Y-112340016D01*
X50000001Y-130120016D02*
X46873580Y-130120016D01*
X47460001Y-130120016D02*
X46873580Y-128993512D01*
X47460001Y-130120016D02*
X48046422Y-128993512D01*
X47460001Y-112340016D02*
X46873580Y-113466520D01*
X47460001Y-112340016D02*
X48046422Y-113466520D01*
X55318572Y-108952396D02*
X54747143Y-108952396D01*
X55032858Y-108952396D02*
X55032858Y-107952396D01*
X54937620Y-108095254D01*
X54842381Y-108190492D01*
X54747143Y-108238111D01*
X55651905Y-107952396D02*
X56318572Y-107952396D01*
X55890001Y-108952396D01*
X56699524Y-108857158D02*
X56747143Y-108904777D01*
X56699524Y-108952396D01*
X56651905Y-108904777D01*
X56699524Y-108857158D01*
X56699524Y-108952396D01*
X57080477Y-107952396D02*
X57747143Y-107952396D01*
X57318572Y-108952396D01*
X58270953Y-108380968D02*
X58175715Y-108333349D01*
X58128096Y-108285730D01*
X58080477Y-108190492D01*
X58080477Y-108142873D01*
X58128096Y-108047635D01*
X58175715Y-108000016D01*
X58270953Y-107952396D01*
X58461429Y-107952396D01*
X58556667Y-108000016D01*
X58604286Y-108047635D01*
X58651905Y-108142873D01*
X58651905Y-108190492D01*
X58604286Y-108285730D01*
X58556667Y-108333349D01*
X58461429Y-108380968D01*
X58270953Y-108380968D01*
X58175715Y-108428587D01*
X58128096Y-108476206D01*
X58080477Y-108571444D01*
X58080477Y-108761920D01*
X58128096Y-108857158D01*
X58175715Y-108904777D01*
X58270953Y-108952396D01*
X58461429Y-108952396D01*
X58556667Y-108904777D01*
X58604286Y-108857158D01*
X58651905Y-108761920D01*
X58651905Y-108571444D01*
X58604286Y-108476206D01*
X58556667Y-108428587D01*
X58461429Y-108380968D01*
X59270953Y-107952396D02*
X59366191Y-107952396D01*
X59461429Y-108000016D01*
X59509048Y-108047635D01*
X59556667Y-108142873D01*
X59604286Y-108333349D01*
X59604286Y-108571444D01*
X59556667Y-108761920D01*
X59509048Y-108857158D01*
X59461429Y-108904777D01*
X59366191Y-108952396D01*
X59270953Y-108952396D01*
X59175715Y-108904777D01*
X59128096Y-108857158D01*
X59080477Y-108761920D01*
X59032858Y-108571444D01*
X59032858Y-108333349D01*
X59080477Y-108142873D01*
X59128096Y-108047635D01*
X59175715Y-108000016D01*
X59270953Y-107952396D01*
X60794762Y-108952396D02*
X60794762Y-108285730D01*
X60794762Y-108380968D02*
X60842381Y-108333349D01*
X60937620Y-108285730D01*
X61080477Y-108285730D01*
X61175715Y-108333349D01*
X61223334Y-108428587D01*
X61223334Y-108952396D01*
X61223334Y-108428587D02*
X61270953Y-108333349D01*
X61366191Y-108285730D01*
X61509048Y-108285730D01*
X61604286Y-108333349D01*
X61651905Y-108428587D01*
X61651905Y-108952396D01*
X62128096Y-108952396D02*
X62128096Y-108285730D01*
X62128096Y-108380968D02*
X62175715Y-108333349D01*
X62270953Y-108285730D01*
X62413810Y-108285730D01*
X62509048Y-108333349D01*
X62556667Y-108428587D01*
X62556667Y-108952396D01*
X62556667Y-108428587D02*
X62604286Y-108333349D01*
X62699524Y-108285730D01*
X62842381Y-108285730D01*
X62937620Y-108333349D01*
X62985239Y-108428587D01*
X62985239Y-108952396D01*
X50000001Y-109800016D02*
X67780001Y-109800016D01*
X50000001Y-112340016D02*
X50000001Y-109213595D01*
X67780001Y-112340016D02*
X67780001Y-109213595D01*
X67780001Y-109800016D02*
X66653497Y-110386437D01*
X67780001Y-109800016D02*
X66653497Y-109213595D01*
X50000001Y-109800016D02*
X51126505Y-110386437D01*
X50000001Y-109800016D02*
X51126505Y-109213595D01*
X108047635Y-96878582D02*
X108047635Y-96307153D01*
X108047635Y-96592868D02*
X109047635Y-96592868D01*
X108904777Y-96497630D01*
X108809539Y-96402391D01*
X108761920Y-96307153D01*
X109047635Y-97211915D02*
X109047635Y-97878582D01*
X108047635Y-97450011D01*
X108142873Y-98259534D02*
X108095254Y-98307153D01*
X108047635Y-98259534D01*
X108095254Y-98211915D01*
X108142873Y-98259534D01*
X108047635Y-98259534D01*
X109047635Y-98640487D02*
X109047635Y-99307153D01*
X108047635Y-98878582D01*
X108619063Y-99830963D02*
X108666682Y-99735725D01*
X108714301Y-99688106D01*
X108809539Y-99640487D01*
X108857158Y-99640487D01*
X108952396Y-99688106D01*
X109000016Y-99735725D01*
X109047635Y-99830963D01*
X109047635Y-100021439D01*
X109000016Y-100116677D01*
X108952396Y-100164296D01*
X108857158Y-100211915D01*
X108809539Y-100211915D01*
X108714301Y-100164296D01*
X108666682Y-100116677D01*
X108619063Y-100021439D01*
X108619063Y-99830963D01*
X108571444Y-99735725D01*
X108523825Y-99688106D01*
X108428587Y-99640487D01*
X108238111Y-99640487D01*
X108142873Y-99688106D01*
X108095254Y-99735725D01*
X108047635Y-99830963D01*
X108047635Y-100021439D01*
X108095254Y-100116677D01*
X108142873Y-100164296D01*
X108238111Y-100211915D01*
X108428587Y-100211915D01*
X108523825Y-100164296D01*
X108571444Y-100116677D01*
X108619063Y-100021439D01*
X109047635Y-100830963D02*
X109047635Y-100926201D01*
X109000016Y-101021439D01*
X108952396Y-101069058D01*
X108857158Y-101116677D01*
X108666682Y-101164296D01*
X108428587Y-101164296D01*
X108238111Y-101116677D01*
X108142873Y-101069058D01*
X108095254Y-101021439D01*
X108047635Y-100926201D01*
X108047635Y-100830963D01*
X108095254Y-100735725D01*
X108142873Y-100688106D01*
X108238111Y-100640487D01*
X108428587Y-100592868D01*
X108666682Y-100592868D01*
X108857158Y-100640487D01*
X108952396Y-100688106D01*
X109000016Y-100735725D01*
X109047635Y-100830963D01*
X108047635Y-102354772D02*
X108714301Y-102354772D01*
X108619063Y-102354772D02*
X108666682Y-102402391D01*
X108714301Y-102497630D01*
X108714301Y-102640487D01*
X108666682Y-102735725D01*
X108571444Y-102783344D01*
X108047635Y-102783344D01*
X108571444Y-102783344D02*
X108666682Y-102830963D01*
X108714301Y-102926201D01*
X108714301Y-103069058D01*
X108666682Y-103164296D01*
X108571444Y-103211915D01*
X108047635Y-103211915D01*
X108047635Y-103688106D02*
X108714301Y-103688106D01*
X108619063Y-103688106D02*
X108666682Y-103735725D01*
X108714301Y-103830963D01*
X108714301Y-103973820D01*
X108666682Y-104069058D01*
X108571444Y-104116677D01*
X108047635Y-104116677D01*
X108571444Y-104116677D02*
X108666682Y-104164296D01*
X108714301Y-104259534D01*
X108714301Y-104402391D01*
X108666682Y-104497630D01*
X108571444Y-104545249D01*
X108047635Y-104545249D01*
X109800016Y-91560011D02*
X109800016Y-109340011D01*
X112340016Y-91560011D02*
X109213595Y-91560011D01*
X112340016Y-109340011D02*
X109213595Y-109340011D01*
X109800016Y-109340011D02*
X109213595Y-108213507D01*
X109800016Y-109340011D02*
X110386437Y-108213507D01*
X109800016Y-91560011D02*
X109213595Y-92686515D01*
X109800016Y-91560011D02*
X110386437Y-92686515D01*
X117658587Y-88172391D02*
X117087158Y-88172391D01*
X117372873Y-88172391D02*
X117372873Y-87172391D01*
X117277635Y-87315249D01*
X117182396Y-87410487D01*
X117087158Y-87458106D01*
X117991920Y-87172391D02*
X118658587Y-87172391D01*
X118230016Y-88172391D01*
X119039539Y-88077153D02*
X119087158Y-88124772D01*
X119039539Y-88172391D01*
X118991920Y-88124772D01*
X119039539Y-88077153D01*
X119039539Y-88172391D01*
X119420492Y-87172391D02*
X120087158Y-87172391D01*
X119658587Y-88172391D01*
X120610968Y-87600963D02*
X120515730Y-87553344D01*
X120468111Y-87505725D01*
X120420492Y-87410487D01*
X120420492Y-87362868D01*
X120468111Y-87267630D01*
X120515730Y-87220011D01*
X120610968Y-87172391D01*
X120801444Y-87172391D01*
X120896682Y-87220011D01*
X120944301Y-87267630D01*
X120991920Y-87362868D01*
X120991920Y-87410487D01*
X120944301Y-87505725D01*
X120896682Y-87553344D01*
X120801444Y-87600963D01*
X120610968Y-87600963D01*
X120515730Y-87648582D01*
X120468111Y-87696201D01*
X120420492Y-87791439D01*
X120420492Y-87981915D01*
X120468111Y-88077153D01*
X120515730Y-88124772D01*
X120610968Y-88172391D01*
X120801444Y-88172391D01*
X120896682Y-88124772D01*
X120944301Y-88077153D01*
X120991920Y-87981915D01*
X120991920Y-87791439D01*
X120944301Y-87696201D01*
X120896682Y-87648582D01*
X120801444Y-87600963D01*
X121610968Y-87172391D02*
X121706206Y-87172391D01*
X121801444Y-87220011D01*
X121849063Y-87267630D01*
X121896682Y-87362868D01*
X121944301Y-87553344D01*
X121944301Y-87791439D01*
X121896682Y-87981915D01*
X121849063Y-88077153D01*
X121801444Y-88124772D01*
X121706206Y-88172391D01*
X121610968Y-88172391D01*
X121515730Y-88124772D01*
X121468111Y-88077153D01*
X121420492Y-87981915D01*
X121372873Y-87791439D01*
X121372873Y-87553344D01*
X121420492Y-87362868D01*
X121468111Y-87267630D01*
X121515730Y-87220011D01*
X121610968Y-87172391D01*
X123134777Y-88172391D02*
X123134777Y-87505725D01*
X123134777Y-87600963D02*
X123182396Y-87553344D01*
X123277635Y-87505725D01*
X123420492Y-87505725D01*
X123515730Y-87553344D01*
X123563349Y-87648582D01*
X123563349Y-88172391D01*
X123563349Y-87648582D02*
X123610968Y-87553344D01*
X123706206Y-87505725D01*
X123849063Y-87505725D01*
X123944301Y-87553344D01*
X123991920Y-87648582D01*
X123991920Y-88172391D01*
X124468111Y-88172391D02*
X124468111Y-87505725D01*
X124468111Y-87600963D02*
X124515730Y-87553344D01*
X124610968Y-87505725D01*
X124753825Y-87505725D01*
X124849063Y-87553344D01*
X124896682Y-87648582D01*
X124896682Y-88172391D01*
X124896682Y-87648582D02*
X124944301Y-87553344D01*
X125039539Y-87505725D01*
X125182396Y-87505725D01*
X125277635Y-87553344D01*
X125325254Y-87648582D01*
X125325254Y-88172391D01*
X112340016Y-89020011D02*
X130120016Y-89020011D01*
X112340016Y-91560011D02*
X112340016Y-88433590D01*
X130120016Y-91560011D02*
X130120016Y-88433590D01*
X130120016Y-89020011D02*
X128993512Y-89606432D01*
X130120016Y-89020011D02*
X128993512Y-88433590D01*
X112340016Y-89020011D02*
X113466520Y-89606432D01*
X112340016Y-89020011D02*
X113466520Y-88433590D01*
X87267630Y-96878582D02*
X87267630Y-96307153D01*
X87267630Y-96592868D02*
X88267630Y-96592868D01*
X88124772Y-96497630D01*
X88029534Y-96402391D01*
X87981915Y-96307153D01*
X88267630Y-97211915D02*
X88267630Y-97878582D01*
X87267630Y-97450011D01*
X87362868Y-98259534D02*
X87315249Y-98307153D01*
X87267630Y-98259534D01*
X87315249Y-98211915D01*
X87362868Y-98259534D01*
X87267630Y-98259534D01*
X88267630Y-98640487D02*
X88267630Y-99307153D01*
X87267630Y-98878582D01*
X87839058Y-99830963D02*
X87886677Y-99735725D01*
X87934296Y-99688106D01*
X88029534Y-99640487D01*
X88077153Y-99640487D01*
X88172391Y-99688106D01*
X88220011Y-99735725D01*
X88267630Y-99830963D01*
X88267630Y-100021439D01*
X88220011Y-100116677D01*
X88172391Y-100164296D01*
X88077153Y-100211915D01*
X88029534Y-100211915D01*
X87934296Y-100164296D01*
X87886677Y-100116677D01*
X87839058Y-100021439D01*
X87839058Y-99830963D01*
X87791439Y-99735725D01*
X87743820Y-99688106D01*
X87648582Y-99640487D01*
X87458106Y-99640487D01*
X87362868Y-99688106D01*
X87315249Y-99735725D01*
X87267630Y-99830963D01*
X87267630Y-100021439D01*
X87315249Y-100116677D01*
X87362868Y-100164296D01*
X87458106Y-100211915D01*
X87648582Y-100211915D01*
X87743820Y-100164296D01*
X87791439Y-100116677D01*
X87839058Y-100021439D01*
X88267630Y-100830963D02*
X88267630Y-100926201D01*
X88220011Y-101021439D01*
X88172391Y-101069058D01*
X88077153Y-101116677D01*
X87886677Y-101164296D01*
X87648582Y-101164296D01*
X87458106Y-101116677D01*
X87362868Y-101069058D01*
X87315249Y-101021439D01*
X87267630Y-100926201D01*
X87267630Y-100830963D01*
X87315249Y-100735725D01*
X87362868Y-100688106D01*
X87458106Y-100640487D01*
X87648582Y-100592868D01*
X87886677Y-100592868D01*
X88077153Y-100640487D01*
X88172391Y-100688106D01*
X88220011Y-100735725D01*
X88267630Y-100830963D01*
X87267630Y-102354772D02*
X87934296Y-102354772D01*
X87839058Y-102354772D02*
X87886677Y-102402391D01*
X87934296Y-102497630D01*
X87934296Y-102640487D01*
X87886677Y-102735725D01*
X87791439Y-102783344D01*
X87267630Y-102783344D01*
X87791439Y-102783344D02*
X87886677Y-102830963D01*
X87934296Y-102926201D01*
X87934296Y-103069058D01*
X87886677Y-103164296D01*
X87791439Y-103211915D01*
X87267630Y-103211915D01*
X87267630Y-103688106D02*
X87934296Y-103688106D01*
X87839058Y-103688106D02*
X87886677Y-103735725D01*
X87934296Y-103830963D01*
X87934296Y-103973820D01*
X87886677Y-104069058D01*
X87791439Y-104116677D01*
X87267630Y-104116677D01*
X87791439Y-104116677D02*
X87886677Y-104164296D01*
X87934296Y-104259534D01*
X87934296Y-104402391D01*
X87886677Y-104497630D01*
X87791439Y-104545249D01*
X87267630Y-104545249D01*
X89020011Y-91560011D02*
X89020011Y-109340011D01*
X91560011Y-91560011D02*
X88433590Y-91560011D01*
X91560011Y-109340011D02*
X88433590Y-109340011D01*
X89020011Y-109340011D02*
X88433590Y-108213507D01*
X89020011Y-109340011D02*
X89606432Y-108213507D01*
X89020011Y-91560011D02*
X88433590Y-92686515D01*
X89020011Y-91560011D02*
X89606432Y-92686515D01*
X96878582Y-88172391D02*
X96307153Y-88172391D01*
X96592868Y-88172391D02*
X96592868Y-87172391D01*
X96497630Y-87315249D01*
X96402391Y-87410487D01*
X96307153Y-87458106D01*
X97211915Y-87172391D02*
X97878582Y-87172391D01*
X97450011Y-88172391D01*
X98259534Y-88077153D02*
X98307153Y-88124772D01*
X98259534Y-88172391D01*
X98211915Y-88124772D01*
X98259534Y-88077153D01*
X98259534Y-88172391D01*
X98640487Y-87172391D02*
X99307153Y-87172391D01*
X98878582Y-88172391D01*
X99830963Y-87600963D02*
X99735725Y-87553344D01*
X99688106Y-87505725D01*
X99640487Y-87410487D01*
X99640487Y-87362868D01*
X99688106Y-87267630D01*
X99735725Y-87220011D01*
X99830963Y-87172391D01*
X100021439Y-87172391D01*
X100116677Y-87220011D01*
X100164296Y-87267630D01*
X100211915Y-87362868D01*
X100211915Y-87410487D01*
X100164296Y-87505725D01*
X100116677Y-87553344D01*
X100021439Y-87600963D01*
X99830963Y-87600963D01*
X99735725Y-87648582D01*
X99688106Y-87696201D01*
X99640487Y-87791439D01*
X99640487Y-87981915D01*
X99688106Y-88077153D01*
X99735725Y-88124772D01*
X99830963Y-88172391D01*
X100021439Y-88172391D01*
X100116677Y-88124772D01*
X100164296Y-88077153D01*
X100211915Y-87981915D01*
X100211915Y-87791439D01*
X100164296Y-87696201D01*
X100116677Y-87648582D01*
X100021439Y-87600963D01*
X100830963Y-87172391D02*
X100926201Y-87172391D01*
X101021439Y-87220011D01*
X101069058Y-87267630D01*
X101116677Y-87362868D01*
X101164296Y-87553344D01*
X101164296Y-87791439D01*
X101116677Y-87981915D01*
X101069058Y-88077153D01*
X101021439Y-88124772D01*
X100926201Y-88172391D01*
X100830963Y-88172391D01*
X100735725Y-88124772D01*
X100688106Y-88077153D01*
X100640487Y-87981915D01*
X100592868Y-87791439D01*
X100592868Y-87553344D01*
X100640487Y-87362868D01*
X100688106Y-87267630D01*
X100735725Y-87220011D01*
X100830963Y-87172391D01*
X102354772Y-88172391D02*
X102354772Y-87505725D01*
X102354772Y-87600963D02*
X102402391Y-87553344D01*
X102497630Y-87505725D01*
X102640487Y-87505725D01*
X102735725Y-87553344D01*
X102783344Y-87648582D01*
X102783344Y-88172391D01*
X102783344Y-87648582D02*
X102830963Y-87553344D01*
X102926201Y-87505725D01*
X103069058Y-87505725D01*
X103164296Y-87553344D01*
X103211915Y-87648582D01*
X103211915Y-88172391D01*
X103688106Y-88172391D02*
X103688106Y-87505725D01*
X103688106Y-87600963D02*
X103735725Y-87553344D01*
X103830963Y-87505725D01*
X103973820Y-87505725D01*
X104069058Y-87553344D01*
X104116677Y-87648582D01*
X104116677Y-88172391D01*
X104116677Y-87648582D02*
X104164296Y-87553344D01*
X104259534Y-87505725D01*
X104402391Y-87505725D01*
X104497630Y-87553344D01*
X104545249Y-87648582D01*
X104545249Y-88172391D01*
X91560011Y-89020011D02*
X109340011Y-89020011D01*
X91560011Y-91560011D02*
X91560011Y-88433590D01*
X109340011Y-91560011D02*
X109340011Y-88433590D01*
X109340011Y-89020011D02*
X108213507Y-89606432D01*
X109340011Y-89020011D02*
X108213507Y-88433590D01*
X91560011Y-89020011D02*
X92686515Y-89606432D01*
X91560011Y-89020011D02*
X92686515Y-88433590D01*
X66487625Y-96878582D02*
X66487625Y-96307153D01*
X66487625Y-96592868D02*
X67487625Y-96592868D01*
X67344767Y-96497630D01*
X67249529Y-96402391D01*
X67201910Y-96307153D01*
X67487625Y-97211915D02*
X67487625Y-97878582D01*
X66487625Y-97450011D01*
X66582863Y-98259534D02*
X66535244Y-98307153D01*
X66487625Y-98259534D01*
X66535244Y-98211915D01*
X66582863Y-98259534D01*
X66487625Y-98259534D01*
X67487625Y-98640487D02*
X67487625Y-99307153D01*
X66487625Y-98878582D01*
X67059053Y-99830963D02*
X67106672Y-99735725D01*
X67154291Y-99688106D01*
X67249529Y-99640487D01*
X67297148Y-99640487D01*
X67392386Y-99688106D01*
X67440006Y-99735725D01*
X67487625Y-99830963D01*
X67487625Y-100021439D01*
X67440006Y-100116677D01*
X67392386Y-100164296D01*
X67297148Y-100211915D01*
X67249529Y-100211915D01*
X67154291Y-100164296D01*
X67106672Y-100116677D01*
X67059053Y-100021439D01*
X67059053Y-99830963D01*
X67011434Y-99735725D01*
X66963815Y-99688106D01*
X66868577Y-99640487D01*
X66678101Y-99640487D01*
X66582863Y-99688106D01*
X66535244Y-99735725D01*
X66487625Y-99830963D01*
X66487625Y-100021439D01*
X66535244Y-100116677D01*
X66582863Y-100164296D01*
X66678101Y-100211915D01*
X66868577Y-100211915D01*
X66963815Y-100164296D01*
X67011434Y-100116677D01*
X67059053Y-100021439D01*
X67487625Y-100830963D02*
X67487625Y-100926201D01*
X67440006Y-101021439D01*
X67392386Y-101069058D01*
X67297148Y-101116677D01*
X67106672Y-101164296D01*
X66868577Y-101164296D01*
X66678101Y-101116677D01*
X66582863Y-101069058D01*
X66535244Y-101021439D01*
X66487625Y-100926201D01*
X66487625Y-100830963D01*
X66535244Y-100735725D01*
X66582863Y-100688106D01*
X66678101Y-100640487D01*
X66868577Y-100592868D01*
X67106672Y-100592868D01*
X67297148Y-100640487D01*
X67392386Y-100688106D01*
X67440006Y-100735725D01*
X67487625Y-100830963D01*
X66487625Y-102354772D02*
X67154291Y-102354772D01*
X67059053Y-102354772D02*
X67106672Y-102402391D01*
X67154291Y-102497630D01*
X67154291Y-102640487D01*
X67106672Y-102735725D01*
X67011434Y-102783344D01*
X66487625Y-102783344D01*
X67011434Y-102783344D02*
X67106672Y-102830963D01*
X67154291Y-102926201D01*
X67154291Y-103069058D01*
X67106672Y-103164296D01*
X67011434Y-103211915D01*
X66487625Y-103211915D01*
X66487625Y-103688106D02*
X67154291Y-103688106D01*
X67059053Y-103688106D02*
X67106672Y-103735725D01*
X67154291Y-103830963D01*
X67154291Y-103973820D01*
X67106672Y-104069058D01*
X67011434Y-104116677D01*
X66487625Y-104116677D01*
X67011434Y-104116677D02*
X67106672Y-104164296D01*
X67154291Y-104259534D01*
X67154291Y-104402391D01*
X67106672Y-104497630D01*
X67011434Y-104545249D01*
X66487625Y-104545249D01*
X68240006Y-91560011D02*
X68240006Y-109340011D01*
X70780006Y-91560011D02*
X67653585Y-91560011D01*
X70780006Y-109340011D02*
X67653585Y-109340011D01*
X68240006Y-109340011D02*
X67653585Y-108213507D01*
X68240006Y-109340011D02*
X68826427Y-108213507D01*
X68240006Y-91560011D02*
X67653585Y-92686515D01*
X68240006Y-91560011D02*
X68826427Y-92686515D01*
X76098577Y-88172391D02*
X75527148Y-88172391D01*
X75812863Y-88172391D02*
X75812863Y-87172391D01*
X75717625Y-87315249D01*
X75622386Y-87410487D01*
X75527148Y-87458106D01*
X76431910Y-87172391D02*
X77098577Y-87172391D01*
X76670006Y-88172391D01*
X77479529Y-88077153D02*
X77527148Y-88124772D01*
X77479529Y-88172391D01*
X77431910Y-88124772D01*
X77479529Y-88077153D01*
X77479529Y-88172391D01*
X77860482Y-87172391D02*
X78527148Y-87172391D01*
X78098577Y-88172391D01*
X79050958Y-87600963D02*
X78955720Y-87553344D01*
X78908101Y-87505725D01*
X78860482Y-87410487D01*
X78860482Y-87362868D01*
X78908101Y-87267630D01*
X78955720Y-87220011D01*
X79050958Y-87172391D01*
X79241434Y-87172391D01*
X79336672Y-87220011D01*
X79384291Y-87267630D01*
X79431910Y-87362868D01*
X79431910Y-87410487D01*
X79384291Y-87505725D01*
X79336672Y-87553344D01*
X79241434Y-87600963D01*
X79050958Y-87600963D01*
X78955720Y-87648582D01*
X78908101Y-87696201D01*
X78860482Y-87791439D01*
X78860482Y-87981915D01*
X78908101Y-88077153D01*
X78955720Y-88124772D01*
X79050958Y-88172391D01*
X79241434Y-88172391D01*
X79336672Y-88124772D01*
X79384291Y-88077153D01*
X79431910Y-87981915D01*
X79431910Y-87791439D01*
X79384291Y-87696201D01*
X79336672Y-87648582D01*
X79241434Y-87600963D01*
X80050958Y-87172391D02*
X80146196Y-87172391D01*
X80241434Y-87220011D01*
X80289053Y-87267630D01*
X80336672Y-87362868D01*
X80384291Y-87553344D01*
X80384291Y-87791439D01*
X80336672Y-87981915D01*
X80289053Y-88077153D01*
X80241434Y-88124772D01*
X80146196Y-88172391D01*
X80050958Y-88172391D01*
X79955720Y-88124772D01*
X79908101Y-88077153D01*
X79860482Y-87981915D01*
X79812863Y-87791439D01*
X79812863Y-87553344D01*
X79860482Y-87362868D01*
X79908101Y-87267630D01*
X79955720Y-87220011D01*
X80050958Y-87172391D01*
X81574767Y-88172391D02*
X81574767Y-87505725D01*
X81574767Y-87600963D02*
X81622386Y-87553344D01*
X81717625Y-87505725D01*
X81860482Y-87505725D01*
X81955720Y-87553344D01*
X82003339Y-87648582D01*
X82003339Y-88172391D01*
X82003339Y-87648582D02*
X82050958Y-87553344D01*
X82146196Y-87505725D01*
X82289053Y-87505725D01*
X82384291Y-87553344D01*
X82431910Y-87648582D01*
X82431910Y-88172391D01*
X82908101Y-88172391D02*
X82908101Y-87505725D01*
X82908101Y-87600963D02*
X82955720Y-87553344D01*
X83050958Y-87505725D01*
X83193815Y-87505725D01*
X83289053Y-87553344D01*
X83336672Y-87648582D01*
X83336672Y-88172391D01*
X83336672Y-87648582D02*
X83384291Y-87553344D01*
X83479529Y-87505725D01*
X83622386Y-87505725D01*
X83717625Y-87553344D01*
X83765244Y-87648582D01*
X83765244Y-88172391D01*
X70780006Y-89020011D02*
X88560006Y-89020011D01*
X70780006Y-91560011D02*
X70780006Y-88433590D01*
X88560006Y-91560011D02*
X88560006Y-88433590D01*
X88560006Y-89020011D02*
X87433502Y-89606432D01*
X88560006Y-89020011D02*
X87433502Y-88433590D01*
X70780006Y-89020011D02*
X71906510Y-89606432D01*
X70780006Y-89020011D02*
X71906510Y-88433590D01*
X45707620Y-96878582D02*
X45707620Y-96307153D01*
X45707620Y-96592868D02*
X46707620Y-96592868D01*
X46564762Y-96497630D01*
X46469524Y-96402391D01*
X46421905Y-96307153D01*
X46707620Y-97211915D02*
X46707620Y-97878582D01*
X45707620Y-97450011D01*
X45802858Y-98259534D02*
X45755239Y-98307153D01*
X45707620Y-98259534D01*
X45755239Y-98211915D01*
X45802858Y-98259534D01*
X45707620Y-98259534D01*
X46707620Y-98640487D02*
X46707620Y-99307153D01*
X45707620Y-98878582D01*
X46279048Y-99830963D02*
X46326667Y-99735725D01*
X46374286Y-99688106D01*
X46469524Y-99640487D01*
X46517143Y-99640487D01*
X46612381Y-99688106D01*
X46660001Y-99735725D01*
X46707620Y-99830963D01*
X46707620Y-100021439D01*
X46660001Y-100116677D01*
X46612381Y-100164296D01*
X46517143Y-100211915D01*
X46469524Y-100211915D01*
X46374286Y-100164296D01*
X46326667Y-100116677D01*
X46279048Y-100021439D01*
X46279048Y-99830963D01*
X46231429Y-99735725D01*
X46183810Y-99688106D01*
X46088572Y-99640487D01*
X45898096Y-99640487D01*
X45802858Y-99688106D01*
X45755239Y-99735725D01*
X45707620Y-99830963D01*
X45707620Y-100021439D01*
X45755239Y-100116677D01*
X45802858Y-100164296D01*
X45898096Y-100211915D01*
X46088572Y-100211915D01*
X46183810Y-100164296D01*
X46231429Y-100116677D01*
X46279048Y-100021439D01*
X46707620Y-100830963D02*
X46707620Y-100926201D01*
X46660001Y-101021439D01*
X46612381Y-101069058D01*
X46517143Y-101116677D01*
X46326667Y-101164296D01*
X46088572Y-101164296D01*
X45898096Y-101116677D01*
X45802858Y-101069058D01*
X45755239Y-101021439D01*
X45707620Y-100926201D01*
X45707620Y-100830963D01*
X45755239Y-100735725D01*
X45802858Y-100688106D01*
X45898096Y-100640487D01*
X46088572Y-100592868D01*
X46326667Y-100592868D01*
X46517143Y-100640487D01*
X46612381Y-100688106D01*
X46660001Y-100735725D01*
X46707620Y-100830963D01*
X45707620Y-102354772D02*
X46374286Y-102354772D01*
X46279048Y-102354772D02*
X46326667Y-102402391D01*
X46374286Y-102497630D01*
X46374286Y-102640487D01*
X46326667Y-102735725D01*
X46231429Y-102783344D01*
X45707620Y-102783344D01*
X46231429Y-102783344D02*
X46326667Y-102830963D01*
X46374286Y-102926201D01*
X46374286Y-103069058D01*
X46326667Y-103164296D01*
X46231429Y-103211915D01*
X45707620Y-103211915D01*
X45707620Y-103688106D02*
X46374286Y-103688106D01*
X46279048Y-103688106D02*
X46326667Y-103735725D01*
X46374286Y-103830963D01*
X46374286Y-103973820D01*
X46326667Y-104069058D01*
X46231429Y-104116677D01*
X45707620Y-104116677D01*
X46231429Y-104116677D02*
X46326667Y-104164296D01*
X46374286Y-104259534D01*
X46374286Y-104402391D01*
X46326667Y-104497630D01*
X46231429Y-104545249D01*
X45707620Y-104545249D01*
X47460001Y-91560011D02*
X47460001Y-109340011D01*
X50000001Y-91560011D02*
X46873580Y-91560011D01*
X50000001Y-109340011D02*
X46873580Y-109340011D01*
X47460001Y-109340011D02*
X46873580Y-108213507D01*
X47460001Y-109340011D02*
X48046422Y-108213507D01*
X47460001Y-91560011D02*
X46873580Y-92686515D01*
X47460001Y-91560011D02*
X48046422Y-92686515D01*
X55318572Y-88172391D02*
X54747143Y-88172391D01*
X55032858Y-88172391D02*
X55032858Y-87172391D01*
X54937620Y-87315249D01*
X54842381Y-87410487D01*
X54747143Y-87458106D01*
X55651905Y-87172391D02*
X56318572Y-87172391D01*
X55890001Y-88172391D01*
X56699524Y-88077153D02*
X56747143Y-88124772D01*
X56699524Y-88172391D01*
X56651905Y-88124772D01*
X56699524Y-88077153D01*
X56699524Y-88172391D01*
X57080477Y-87172391D02*
X57747143Y-87172391D01*
X57318572Y-88172391D01*
X58270953Y-87600963D02*
X58175715Y-87553344D01*
X58128096Y-87505725D01*
X58080477Y-87410487D01*
X58080477Y-87362868D01*
X58128096Y-87267630D01*
X58175715Y-87220011D01*
X58270953Y-87172391D01*
X58461429Y-87172391D01*
X58556667Y-87220011D01*
X58604286Y-87267630D01*
X58651905Y-87362868D01*
X58651905Y-87410487D01*
X58604286Y-87505725D01*
X58556667Y-87553344D01*
X58461429Y-87600963D01*
X58270953Y-87600963D01*
X58175715Y-87648582D01*
X58128096Y-87696201D01*
X58080477Y-87791439D01*
X58080477Y-87981915D01*
X58128096Y-88077153D01*
X58175715Y-88124772D01*
X58270953Y-88172391D01*
X58461429Y-88172391D01*
X58556667Y-88124772D01*
X58604286Y-88077153D01*
X58651905Y-87981915D01*
X58651905Y-87791439D01*
X58604286Y-87696201D01*
X58556667Y-87648582D01*
X58461429Y-87600963D01*
X59270953Y-87172391D02*
X59366191Y-87172391D01*
X59461429Y-87220011D01*
X59509048Y-87267630D01*
X59556667Y-87362868D01*
X59604286Y-87553344D01*
X59604286Y-87791439D01*
X59556667Y-87981915D01*
X59509048Y-88077153D01*
X59461429Y-88124772D01*
X59366191Y-88172391D01*
X59270953Y-88172391D01*
X59175715Y-88124772D01*
X59128096Y-88077153D01*
X59080477Y-87981915D01*
X59032858Y-87791439D01*
X59032858Y-87553344D01*
X59080477Y-87362868D01*
X59128096Y-87267630D01*
X59175715Y-87220011D01*
X59270953Y-87172391D01*
X60794762Y-88172391D02*
X60794762Y-87505725D01*
X60794762Y-87600963D02*
X60842381Y-87553344D01*
X60937620Y-87505725D01*
X61080477Y-87505725D01*
X61175715Y-87553344D01*
X61223334Y-87648582D01*
X61223334Y-88172391D01*
X61223334Y-87648582D02*
X61270953Y-87553344D01*
X61366191Y-87505725D01*
X61509048Y-87505725D01*
X61604286Y-87553344D01*
X61651905Y-87648582D01*
X61651905Y-88172391D01*
X62128096Y-88172391D02*
X62128096Y-87505725D01*
X62128096Y-87600963D02*
X62175715Y-87553344D01*
X62270953Y-87505725D01*
X62413810Y-87505725D01*
X62509048Y-87553344D01*
X62556667Y-87648582D01*
X62556667Y-88172391D01*
X62556667Y-87648582D02*
X62604286Y-87553344D01*
X62699524Y-87505725D01*
X62842381Y-87505725D01*
X62937620Y-87553344D01*
X62985239Y-87648582D01*
X62985239Y-88172391D01*
X50000001Y-89020011D02*
X67780001Y-89020011D01*
X50000001Y-91560011D02*
X50000001Y-88433590D01*
X67780001Y-91560011D02*
X67780001Y-88433590D01*
X67780001Y-89020011D02*
X66653497Y-89606432D01*
X67780001Y-89020011D02*
X66653497Y-88433590D01*
X50000001Y-89020011D02*
X51126505Y-89606432D01*
X50000001Y-89020011D02*
X51126505Y-88433590D01*
X108047635Y-76098577D02*
X108047635Y-75527148D01*
X108047635Y-75812863D02*
X109047635Y-75812863D01*
X108904777Y-75717625D01*
X108809539Y-75622386D01*
X108761920Y-75527148D01*
X109047635Y-76431910D02*
X109047635Y-77098577D01*
X108047635Y-76670006D01*
X108142873Y-77479529D02*
X108095254Y-77527148D01*
X108047635Y-77479529D01*
X108095254Y-77431910D01*
X108142873Y-77479529D01*
X108047635Y-77479529D01*
X109047635Y-77860482D02*
X109047635Y-78527148D01*
X108047635Y-78098577D01*
X108619063Y-79050958D02*
X108666682Y-78955720D01*
X108714301Y-78908101D01*
X108809539Y-78860482D01*
X108857158Y-78860482D01*
X108952396Y-78908101D01*
X109000016Y-78955720D01*
X109047635Y-79050958D01*
X109047635Y-79241434D01*
X109000016Y-79336672D01*
X108952396Y-79384291D01*
X108857158Y-79431910D01*
X108809539Y-79431910D01*
X108714301Y-79384291D01*
X108666682Y-79336672D01*
X108619063Y-79241434D01*
X108619063Y-79050958D01*
X108571444Y-78955720D01*
X108523825Y-78908101D01*
X108428587Y-78860482D01*
X108238111Y-78860482D01*
X108142873Y-78908101D01*
X108095254Y-78955720D01*
X108047635Y-79050958D01*
X108047635Y-79241434D01*
X108095254Y-79336672D01*
X108142873Y-79384291D01*
X108238111Y-79431910D01*
X108428587Y-79431910D01*
X108523825Y-79384291D01*
X108571444Y-79336672D01*
X108619063Y-79241434D01*
X109047635Y-80050958D02*
X109047635Y-80146196D01*
X109000016Y-80241434D01*
X108952396Y-80289053D01*
X108857158Y-80336672D01*
X108666682Y-80384291D01*
X108428587Y-80384291D01*
X108238111Y-80336672D01*
X108142873Y-80289053D01*
X108095254Y-80241434D01*
X108047635Y-80146196D01*
X108047635Y-80050958D01*
X108095254Y-79955720D01*
X108142873Y-79908101D01*
X108238111Y-79860482D01*
X108428587Y-79812863D01*
X108666682Y-79812863D01*
X108857158Y-79860482D01*
X108952396Y-79908101D01*
X109000016Y-79955720D01*
X109047635Y-80050958D01*
X108047635Y-81574767D02*
X108714301Y-81574767D01*
X108619063Y-81574767D02*
X108666682Y-81622386D01*
X108714301Y-81717625D01*
X108714301Y-81860482D01*
X108666682Y-81955720D01*
X108571444Y-82003339D01*
X108047635Y-82003339D01*
X108571444Y-82003339D02*
X108666682Y-82050958D01*
X108714301Y-82146196D01*
X108714301Y-82289053D01*
X108666682Y-82384291D01*
X108571444Y-82431910D01*
X108047635Y-82431910D01*
X108047635Y-82908101D02*
X108714301Y-82908101D01*
X108619063Y-82908101D02*
X108666682Y-82955720D01*
X108714301Y-83050958D01*
X108714301Y-83193815D01*
X108666682Y-83289053D01*
X108571444Y-83336672D01*
X108047635Y-83336672D01*
X108571444Y-83336672D02*
X108666682Y-83384291D01*
X108714301Y-83479529D01*
X108714301Y-83622386D01*
X108666682Y-83717625D01*
X108571444Y-83765244D01*
X108047635Y-83765244D01*
X109800016Y-70780006D02*
X109800016Y-88560006D01*
X112340016Y-70780006D02*
X109213595Y-70780006D01*
X112340016Y-88560006D02*
X109213595Y-88560006D01*
X109800016Y-88560006D02*
X109213595Y-87433502D01*
X109800016Y-88560006D02*
X110386437Y-87433502D01*
X109800016Y-70780006D02*
X109213595Y-71906510D01*
X109800016Y-70780006D02*
X110386437Y-71906510D01*
X117658587Y-67392386D02*
X117087158Y-67392386D01*
X117372873Y-67392386D02*
X117372873Y-66392386D01*
X117277635Y-66535244D01*
X117182396Y-66630482D01*
X117087158Y-66678101D01*
X117991920Y-66392386D02*
X118658587Y-66392386D01*
X118230016Y-67392386D01*
X119039539Y-67297148D02*
X119087158Y-67344767D01*
X119039539Y-67392386D01*
X118991920Y-67344767D01*
X119039539Y-67297148D01*
X119039539Y-67392386D01*
X119420492Y-66392386D02*
X120087158Y-66392386D01*
X119658587Y-67392386D01*
X120610968Y-66820958D02*
X120515730Y-66773339D01*
X120468111Y-66725720D01*
X120420492Y-66630482D01*
X120420492Y-66582863D01*
X120468111Y-66487625D01*
X120515730Y-66440006D01*
X120610968Y-66392386D01*
X120801444Y-66392386D01*
X120896682Y-66440006D01*
X120944301Y-66487625D01*
X120991920Y-66582863D01*
X120991920Y-66630482D01*
X120944301Y-66725720D01*
X120896682Y-66773339D01*
X120801444Y-66820958D01*
X120610968Y-66820958D01*
X120515730Y-66868577D01*
X120468111Y-66916196D01*
X120420492Y-67011434D01*
X120420492Y-67201910D01*
X120468111Y-67297148D01*
X120515730Y-67344767D01*
X120610968Y-67392386D01*
X120801444Y-67392386D01*
X120896682Y-67344767D01*
X120944301Y-67297148D01*
X120991920Y-67201910D01*
X120991920Y-67011434D01*
X120944301Y-66916196D01*
X120896682Y-66868577D01*
X120801444Y-66820958D01*
X121610968Y-66392386D02*
X121706206Y-66392386D01*
X121801444Y-66440006D01*
X121849063Y-66487625D01*
X121896682Y-66582863D01*
X121944301Y-66773339D01*
X121944301Y-67011434D01*
X121896682Y-67201910D01*
X121849063Y-67297148D01*
X121801444Y-67344767D01*
X121706206Y-67392386D01*
X121610968Y-67392386D01*
X121515730Y-67344767D01*
X121468111Y-67297148D01*
X121420492Y-67201910D01*
X121372873Y-67011434D01*
X121372873Y-66773339D01*
X121420492Y-66582863D01*
X121468111Y-66487625D01*
X121515730Y-66440006D01*
X121610968Y-66392386D01*
X123134777Y-67392386D02*
X123134777Y-66725720D01*
X123134777Y-66820958D02*
X123182396Y-66773339D01*
X123277635Y-66725720D01*
X123420492Y-66725720D01*
X123515730Y-66773339D01*
X123563349Y-66868577D01*
X123563349Y-67392386D01*
X123563349Y-66868577D02*
X123610968Y-66773339D01*
X123706206Y-66725720D01*
X123849063Y-66725720D01*
X123944301Y-66773339D01*
X123991920Y-66868577D01*
X123991920Y-67392386D01*
X124468111Y-67392386D02*
X124468111Y-66725720D01*
X124468111Y-66820958D02*
X124515730Y-66773339D01*
X124610968Y-66725720D01*
X124753825Y-66725720D01*
X124849063Y-66773339D01*
X124896682Y-66868577D01*
X124896682Y-67392386D01*
X124896682Y-66868577D02*
X124944301Y-66773339D01*
X125039539Y-66725720D01*
X125182396Y-66725720D01*
X125277635Y-66773339D01*
X125325254Y-66868577D01*
X125325254Y-67392386D01*
X112340016Y-68240006D02*
X130120016Y-68240006D01*
X112340016Y-70780006D02*
X112340016Y-67653585D01*
X130120016Y-70780006D02*
X130120016Y-67653585D01*
X130120016Y-68240006D02*
X128993512Y-68826427D01*
X130120016Y-68240006D02*
X128993512Y-67653585D01*
X112340016Y-68240006D02*
X113466520Y-68826427D01*
X112340016Y-68240006D02*
X113466520Y-67653585D01*
X87267630Y-76098577D02*
X87267630Y-75527148D01*
X87267630Y-75812863D02*
X88267630Y-75812863D01*
X88124772Y-75717625D01*
X88029534Y-75622386D01*
X87981915Y-75527148D01*
X88267630Y-76431910D02*
X88267630Y-77098577D01*
X87267630Y-76670006D01*
X87362868Y-77479529D02*
X87315249Y-77527148D01*
X87267630Y-77479529D01*
X87315249Y-77431910D01*
X87362868Y-77479529D01*
X87267630Y-77479529D01*
X88267630Y-77860482D02*
X88267630Y-78527148D01*
X87267630Y-78098577D01*
X87839058Y-79050958D02*
X87886677Y-78955720D01*
X87934296Y-78908101D01*
X88029534Y-78860482D01*
X88077153Y-78860482D01*
X88172391Y-78908101D01*
X88220011Y-78955720D01*
X88267630Y-79050958D01*
X88267630Y-79241434D01*
X88220011Y-79336672D01*
X88172391Y-79384291D01*
X88077153Y-79431910D01*
X88029534Y-79431910D01*
X87934296Y-79384291D01*
X87886677Y-79336672D01*
X87839058Y-79241434D01*
X87839058Y-79050958D01*
X87791439Y-78955720D01*
X87743820Y-78908101D01*
X87648582Y-78860482D01*
X87458106Y-78860482D01*
X87362868Y-78908101D01*
X87315249Y-78955720D01*
X87267630Y-79050958D01*
X87267630Y-79241434D01*
X87315249Y-79336672D01*
X87362868Y-79384291D01*
X87458106Y-79431910D01*
X87648582Y-79431910D01*
X87743820Y-79384291D01*
X87791439Y-79336672D01*
X87839058Y-79241434D01*
X88267630Y-80050958D02*
X88267630Y-80146196D01*
X88220011Y-80241434D01*
X88172391Y-80289053D01*
X88077153Y-80336672D01*
X87886677Y-80384291D01*
X87648582Y-80384291D01*
X87458106Y-80336672D01*
X87362868Y-80289053D01*
X87315249Y-80241434D01*
X87267630Y-80146196D01*
X87267630Y-80050958D01*
X87315249Y-79955720D01*
X87362868Y-79908101D01*
X87458106Y-79860482D01*
X87648582Y-79812863D01*
X87886677Y-79812863D01*
X88077153Y-79860482D01*
X88172391Y-79908101D01*
X88220011Y-79955720D01*
X88267630Y-80050958D01*
X87267630Y-81574767D02*
X87934296Y-81574767D01*
X87839058Y-81574767D02*
X87886677Y-81622386D01*
X87934296Y-81717625D01*
X87934296Y-81860482D01*
X87886677Y-81955720D01*
X87791439Y-82003339D01*
X87267630Y-82003339D01*
X87791439Y-82003339D02*
X87886677Y-82050958D01*
X87934296Y-82146196D01*
X87934296Y-82289053D01*
X87886677Y-82384291D01*
X87791439Y-82431910D01*
X87267630Y-82431910D01*
X87267630Y-82908101D02*
X87934296Y-82908101D01*
X87839058Y-82908101D02*
X87886677Y-82955720D01*
X87934296Y-83050958D01*
X87934296Y-83193815D01*
X87886677Y-83289053D01*
X87791439Y-83336672D01*
X87267630Y-83336672D01*
X87791439Y-83336672D02*
X87886677Y-83384291D01*
X87934296Y-83479529D01*
X87934296Y-83622386D01*
X87886677Y-83717625D01*
X87791439Y-83765244D01*
X87267630Y-83765244D01*
X89020011Y-70780006D02*
X89020011Y-88560006D01*
X91560011Y-70780006D02*
X88433590Y-70780006D01*
X91560011Y-88560006D02*
X88433590Y-88560006D01*
X89020011Y-88560006D02*
X88433590Y-87433502D01*
X89020011Y-88560006D02*
X89606432Y-87433502D01*
X89020011Y-70780006D02*
X88433590Y-71906510D01*
X89020011Y-70780006D02*
X89606432Y-71906510D01*
X96878582Y-67392386D02*
X96307153Y-67392386D01*
X96592868Y-67392386D02*
X96592868Y-66392386D01*
X96497630Y-66535244D01*
X96402391Y-66630482D01*
X96307153Y-66678101D01*
X97211915Y-66392386D02*
X97878582Y-66392386D01*
X97450011Y-67392386D01*
X98259534Y-67297148D02*
X98307153Y-67344767D01*
X98259534Y-67392386D01*
X98211915Y-67344767D01*
X98259534Y-67297148D01*
X98259534Y-67392386D01*
X98640487Y-66392386D02*
X99307153Y-66392386D01*
X98878582Y-67392386D01*
X99830963Y-66820958D02*
X99735725Y-66773339D01*
X99688106Y-66725720D01*
X99640487Y-66630482D01*
X99640487Y-66582863D01*
X99688106Y-66487625D01*
X99735725Y-66440006D01*
X99830963Y-66392386D01*
X100021439Y-66392386D01*
X100116677Y-66440006D01*
X100164296Y-66487625D01*
X100211915Y-66582863D01*
X100211915Y-66630482D01*
X100164296Y-66725720D01*
X100116677Y-66773339D01*
X100021439Y-66820958D01*
X99830963Y-66820958D01*
X99735725Y-66868577D01*
X99688106Y-66916196D01*
X99640487Y-67011434D01*
X99640487Y-67201910D01*
X99688106Y-67297148D01*
X99735725Y-67344767D01*
X99830963Y-67392386D01*
X100021439Y-67392386D01*
X100116677Y-67344767D01*
X100164296Y-67297148D01*
X100211915Y-67201910D01*
X100211915Y-67011434D01*
X100164296Y-66916196D01*
X100116677Y-66868577D01*
X100021439Y-66820958D01*
X100830963Y-66392386D02*
X100926201Y-66392386D01*
X101021439Y-66440006D01*
X101069058Y-66487625D01*
X101116677Y-66582863D01*
X101164296Y-66773339D01*
X101164296Y-67011434D01*
X101116677Y-67201910D01*
X101069058Y-67297148D01*
X101021439Y-67344767D01*
X100926201Y-67392386D01*
X100830963Y-67392386D01*
X100735725Y-67344767D01*
X100688106Y-67297148D01*
X100640487Y-67201910D01*
X100592868Y-67011434D01*
X100592868Y-66773339D01*
X100640487Y-66582863D01*
X100688106Y-66487625D01*
X100735725Y-66440006D01*
X100830963Y-66392386D01*
X102354772Y-67392386D02*
X102354772Y-66725720D01*
X102354772Y-66820958D02*
X102402391Y-66773339D01*
X102497630Y-66725720D01*
X102640487Y-66725720D01*
X102735725Y-66773339D01*
X102783344Y-66868577D01*
X102783344Y-67392386D01*
X102783344Y-66868577D02*
X102830963Y-66773339D01*
X102926201Y-66725720D01*
X103069058Y-66725720D01*
X103164296Y-66773339D01*
X103211915Y-66868577D01*
X103211915Y-67392386D01*
X103688106Y-67392386D02*
X103688106Y-66725720D01*
X103688106Y-66820958D02*
X103735725Y-66773339D01*
X103830963Y-66725720D01*
X103973820Y-66725720D01*
X104069058Y-66773339D01*
X104116677Y-66868577D01*
X104116677Y-67392386D01*
X104116677Y-66868577D02*
X104164296Y-66773339D01*
X104259534Y-66725720D01*
X104402391Y-66725720D01*
X104497630Y-66773339D01*
X104545249Y-66868577D01*
X104545249Y-67392386D01*
X91560011Y-68240006D02*
X109340011Y-68240006D01*
X91560011Y-70780006D02*
X91560011Y-67653585D01*
X109340011Y-70780006D02*
X109340011Y-67653585D01*
X109340011Y-68240006D02*
X108213507Y-68826427D01*
X109340011Y-68240006D02*
X108213507Y-67653585D01*
X91560011Y-68240006D02*
X92686515Y-68826427D01*
X91560011Y-68240006D02*
X92686515Y-67653585D01*
X66487625Y-76098577D02*
X66487625Y-75527148D01*
X66487625Y-75812863D02*
X67487625Y-75812863D01*
X67344767Y-75717625D01*
X67249529Y-75622386D01*
X67201910Y-75527148D01*
X67487625Y-76431910D02*
X67487625Y-77098577D01*
X66487625Y-76670006D01*
X66582863Y-77479529D02*
X66535244Y-77527148D01*
X66487625Y-77479529D01*
X66535244Y-77431910D01*
X66582863Y-77479529D01*
X66487625Y-77479529D01*
X67487625Y-77860482D02*
X67487625Y-78527148D01*
X66487625Y-78098577D01*
X67059053Y-79050958D02*
X67106672Y-78955720D01*
X67154291Y-78908101D01*
X67249529Y-78860482D01*
X67297148Y-78860482D01*
X67392386Y-78908101D01*
X67440006Y-78955720D01*
X67487625Y-79050958D01*
X67487625Y-79241434D01*
X67440006Y-79336672D01*
X67392386Y-79384291D01*
X67297148Y-79431910D01*
X67249529Y-79431910D01*
X67154291Y-79384291D01*
X67106672Y-79336672D01*
X67059053Y-79241434D01*
X67059053Y-79050958D01*
X67011434Y-78955720D01*
X66963815Y-78908101D01*
X66868577Y-78860482D01*
X66678101Y-78860482D01*
X66582863Y-78908101D01*
X66535244Y-78955720D01*
X66487625Y-79050958D01*
X66487625Y-79241434D01*
X66535244Y-79336672D01*
X66582863Y-79384291D01*
X66678101Y-79431910D01*
X66868577Y-79431910D01*
X66963815Y-79384291D01*
X67011434Y-79336672D01*
X67059053Y-79241434D01*
X67487625Y-80050958D02*
X67487625Y-80146196D01*
X67440006Y-80241434D01*
X67392386Y-80289053D01*
X67297148Y-80336672D01*
X67106672Y-80384291D01*
X66868577Y-80384291D01*
X66678101Y-80336672D01*
X66582863Y-80289053D01*
X66535244Y-80241434D01*
X66487625Y-80146196D01*
X66487625Y-80050958D01*
X66535244Y-79955720D01*
X66582863Y-79908101D01*
X66678101Y-79860482D01*
X66868577Y-79812863D01*
X67106672Y-79812863D01*
X67297148Y-79860482D01*
X67392386Y-79908101D01*
X67440006Y-79955720D01*
X67487625Y-80050958D01*
X66487625Y-81574767D02*
X67154291Y-81574767D01*
X67059053Y-81574767D02*
X67106672Y-81622386D01*
X67154291Y-81717625D01*
X67154291Y-81860482D01*
X67106672Y-81955720D01*
X67011434Y-82003339D01*
X66487625Y-82003339D01*
X67011434Y-82003339D02*
X67106672Y-82050958D01*
X67154291Y-82146196D01*
X67154291Y-82289053D01*
X67106672Y-82384291D01*
X67011434Y-82431910D01*
X66487625Y-82431910D01*
X66487625Y-82908101D02*
X67154291Y-82908101D01*
X67059053Y-82908101D02*
X67106672Y-82955720D01*
X67154291Y-83050958D01*
X67154291Y-83193815D01*
X67106672Y-83289053D01*
X67011434Y-83336672D01*
X66487625Y-83336672D01*
X67011434Y-83336672D02*
X67106672Y-83384291D01*
X67154291Y-83479529D01*
X67154291Y-83622386D01*
X67106672Y-83717625D01*
X67011434Y-83765244D01*
X66487625Y-83765244D01*
X68240006Y-70780006D02*
X68240006Y-88560006D01*
X70780006Y-70780006D02*
X67653585Y-70780006D01*
X70780006Y-88560006D02*
X67653585Y-88560006D01*
X68240006Y-88560006D02*
X67653585Y-87433502D01*
X68240006Y-88560006D02*
X68826427Y-87433502D01*
X68240006Y-70780006D02*
X67653585Y-71906510D01*
X68240006Y-70780006D02*
X68826427Y-71906510D01*
X76098577Y-67392386D02*
X75527148Y-67392386D01*
X75812863Y-67392386D02*
X75812863Y-66392386D01*
X75717625Y-66535244D01*
X75622386Y-66630482D01*
X75527148Y-66678101D01*
X76431910Y-66392386D02*
X77098577Y-66392386D01*
X76670006Y-67392386D01*
X77479529Y-67297148D02*
X77527148Y-67344767D01*
X77479529Y-67392386D01*
X77431910Y-67344767D01*
X77479529Y-67297148D01*
X77479529Y-67392386D01*
X77860482Y-66392386D02*
X78527148Y-66392386D01*
X78098577Y-67392386D01*
X79050958Y-66820958D02*
X78955720Y-66773339D01*
X78908101Y-66725720D01*
X78860482Y-66630482D01*
X78860482Y-66582863D01*
X78908101Y-66487625D01*
X78955720Y-66440006D01*
X79050958Y-66392386D01*
X79241434Y-66392386D01*
X79336672Y-66440006D01*
X79384291Y-66487625D01*
X79431910Y-66582863D01*
X79431910Y-66630482D01*
X79384291Y-66725720D01*
X79336672Y-66773339D01*
X79241434Y-66820958D01*
X79050958Y-66820958D01*
X78955720Y-66868577D01*
X78908101Y-66916196D01*
X78860482Y-67011434D01*
X78860482Y-67201910D01*
X78908101Y-67297148D01*
X78955720Y-67344767D01*
X79050958Y-67392386D01*
X79241434Y-67392386D01*
X79336672Y-67344767D01*
X79384291Y-67297148D01*
X79431910Y-67201910D01*
X79431910Y-67011434D01*
X79384291Y-66916196D01*
X79336672Y-66868577D01*
X79241434Y-66820958D01*
X80050958Y-66392386D02*
X80146196Y-66392386D01*
X80241434Y-66440006D01*
X80289053Y-66487625D01*
X80336672Y-66582863D01*
X80384291Y-66773339D01*
X80384291Y-67011434D01*
X80336672Y-67201910D01*
X80289053Y-67297148D01*
X80241434Y-67344767D01*
X80146196Y-67392386D01*
X80050958Y-67392386D01*
X79955720Y-67344767D01*
X79908101Y-67297148D01*
X79860482Y-67201910D01*
X79812863Y-67011434D01*
X79812863Y-66773339D01*
X79860482Y-66582863D01*
X79908101Y-66487625D01*
X79955720Y-66440006D01*
X80050958Y-66392386D01*
X81574767Y-67392386D02*
X81574767Y-66725720D01*
X81574767Y-66820958D02*
X81622386Y-66773339D01*
X81717625Y-66725720D01*
X81860482Y-66725720D01*
X81955720Y-66773339D01*
X82003339Y-66868577D01*
X82003339Y-67392386D01*
X82003339Y-66868577D02*
X82050958Y-66773339D01*
X82146196Y-66725720D01*
X82289053Y-66725720D01*
X82384291Y-66773339D01*
X82431910Y-66868577D01*
X82431910Y-67392386D01*
X82908101Y-67392386D02*
X82908101Y-66725720D01*
X82908101Y-66820958D02*
X82955720Y-66773339D01*
X83050958Y-66725720D01*
X83193815Y-66725720D01*
X83289053Y-66773339D01*
X83336672Y-66868577D01*
X83336672Y-67392386D01*
X83336672Y-66868577D02*
X83384291Y-66773339D01*
X83479529Y-66725720D01*
X83622386Y-66725720D01*
X83717625Y-66773339D01*
X83765244Y-66868577D01*
X83765244Y-67392386D01*
X70780006Y-68240006D02*
X88560006Y-68240006D01*
X70780006Y-70780006D02*
X70780006Y-67653585D01*
X88560006Y-70780006D02*
X88560006Y-67653585D01*
X88560006Y-68240006D02*
X87433502Y-68826427D01*
X88560006Y-68240006D02*
X87433502Y-67653585D01*
X70780006Y-68240006D02*
X71906510Y-68826427D01*
X70780006Y-68240006D02*
X71906510Y-67653585D01*
X45707620Y-76098577D02*
X45707620Y-75527148D01*
X45707620Y-75812863D02*
X46707620Y-75812863D01*
X46564762Y-75717625D01*
X46469524Y-75622386D01*
X46421905Y-75527148D01*
X46707620Y-76431910D02*
X46707620Y-77098577D01*
X45707620Y-76670006D01*
X45802858Y-77479529D02*
X45755239Y-77527148D01*
X45707620Y-77479529D01*
X45755239Y-77431910D01*
X45802858Y-77479529D01*
X45707620Y-77479529D01*
X46707620Y-77860482D02*
X46707620Y-78527148D01*
X45707620Y-78098577D01*
X46279048Y-79050958D02*
X46326667Y-78955720D01*
X46374286Y-78908101D01*
X46469524Y-78860482D01*
X46517143Y-78860482D01*
X46612381Y-78908101D01*
X46660001Y-78955720D01*
X46707620Y-79050958D01*
X46707620Y-79241434D01*
X46660001Y-79336672D01*
X46612381Y-79384291D01*
X46517143Y-79431910D01*
X46469524Y-79431910D01*
X46374286Y-79384291D01*
X46326667Y-79336672D01*
X46279048Y-79241434D01*
X46279048Y-79050958D01*
X46231429Y-78955720D01*
X46183810Y-78908101D01*
X46088572Y-78860482D01*
X45898096Y-78860482D01*
X45802858Y-78908101D01*
X45755239Y-78955720D01*
X45707620Y-79050958D01*
X45707620Y-79241434D01*
X45755239Y-79336672D01*
X45802858Y-79384291D01*
X45898096Y-79431910D01*
X46088572Y-79431910D01*
X46183810Y-79384291D01*
X46231429Y-79336672D01*
X46279048Y-79241434D01*
X46707620Y-80050958D02*
X46707620Y-80146196D01*
X46660001Y-80241434D01*
X46612381Y-80289053D01*
X46517143Y-80336672D01*
X46326667Y-80384291D01*
X46088572Y-80384291D01*
X45898096Y-80336672D01*
X45802858Y-80289053D01*
X45755239Y-80241434D01*
X45707620Y-80146196D01*
X45707620Y-80050958D01*
X45755239Y-79955720D01*
X45802858Y-79908101D01*
X45898096Y-79860482D01*
X46088572Y-79812863D01*
X46326667Y-79812863D01*
X46517143Y-79860482D01*
X46612381Y-79908101D01*
X46660001Y-79955720D01*
X46707620Y-80050958D01*
X45707620Y-81574767D02*
X46374286Y-81574767D01*
X46279048Y-81574767D02*
X46326667Y-81622386D01*
X46374286Y-81717625D01*
X46374286Y-81860482D01*
X46326667Y-81955720D01*
X46231429Y-82003339D01*
X45707620Y-82003339D01*
X46231429Y-82003339D02*
X46326667Y-82050958D01*
X46374286Y-82146196D01*
X46374286Y-82289053D01*
X46326667Y-82384291D01*
X46231429Y-82431910D01*
X45707620Y-82431910D01*
X45707620Y-82908101D02*
X46374286Y-82908101D01*
X46279048Y-82908101D02*
X46326667Y-82955720D01*
X46374286Y-83050958D01*
X46374286Y-83193815D01*
X46326667Y-83289053D01*
X46231429Y-83336672D01*
X45707620Y-83336672D01*
X46231429Y-83336672D02*
X46326667Y-83384291D01*
X46374286Y-83479529D01*
X46374286Y-83622386D01*
X46326667Y-83717625D01*
X46231429Y-83765244D01*
X45707620Y-83765244D01*
X47460001Y-70780006D02*
X47460001Y-88560006D01*
X50000001Y-70780006D02*
X46873580Y-70780006D01*
X50000001Y-88560006D02*
X46873580Y-88560006D01*
X47460001Y-88560006D02*
X46873580Y-87433502D01*
X47460001Y-88560006D02*
X48046422Y-87433502D01*
X47460001Y-70780006D02*
X46873580Y-71906510D01*
X47460001Y-70780006D02*
X48046422Y-71906510D01*
X55318572Y-67392386D02*
X54747143Y-67392386D01*
X55032858Y-67392386D02*
X55032858Y-66392386D01*
X54937620Y-66535244D01*
X54842381Y-66630482D01*
X54747143Y-66678101D01*
X55651905Y-66392386D02*
X56318572Y-66392386D01*
X55890001Y-67392386D01*
X56699524Y-67297148D02*
X56747143Y-67344767D01*
X56699524Y-67392386D01*
X56651905Y-67344767D01*
X56699524Y-67297148D01*
X56699524Y-67392386D01*
X57080477Y-66392386D02*
X57747143Y-66392386D01*
X57318572Y-67392386D01*
X58270953Y-66820958D02*
X58175715Y-66773339D01*
X58128096Y-66725720D01*
X58080477Y-66630482D01*
X58080477Y-66582863D01*
X58128096Y-66487625D01*
X58175715Y-66440006D01*
X58270953Y-66392386D01*
X58461429Y-66392386D01*
X58556667Y-66440006D01*
X58604286Y-66487625D01*
X58651905Y-66582863D01*
X58651905Y-66630482D01*
X58604286Y-66725720D01*
X58556667Y-66773339D01*
X58461429Y-66820958D01*
X58270953Y-66820958D01*
X58175715Y-66868577D01*
X58128096Y-66916196D01*
X58080477Y-67011434D01*
X58080477Y-67201910D01*
X58128096Y-67297148D01*
X58175715Y-67344767D01*
X58270953Y-67392386D01*
X58461429Y-67392386D01*
X58556667Y-67344767D01*
X58604286Y-67297148D01*
X58651905Y-67201910D01*
X58651905Y-67011434D01*
X58604286Y-66916196D01*
X58556667Y-66868577D01*
X58461429Y-66820958D01*
X59270953Y-66392386D02*
X59366191Y-66392386D01*
X59461429Y-66440006D01*
X59509048Y-66487625D01*
X59556667Y-66582863D01*
X59604286Y-66773339D01*
X59604286Y-67011434D01*
X59556667Y-67201910D01*
X59509048Y-67297148D01*
X59461429Y-67344767D01*
X59366191Y-67392386D01*
X59270953Y-67392386D01*
X59175715Y-67344767D01*
X59128096Y-67297148D01*
X59080477Y-67201910D01*
X59032858Y-67011434D01*
X59032858Y-66773339D01*
X59080477Y-66582863D01*
X59128096Y-66487625D01*
X59175715Y-66440006D01*
X59270953Y-66392386D01*
X60794762Y-67392386D02*
X60794762Y-66725720D01*
X60794762Y-66820958D02*
X60842381Y-66773339D01*
X60937620Y-66725720D01*
X61080477Y-66725720D01*
X61175715Y-66773339D01*
X61223334Y-66868577D01*
X61223334Y-67392386D01*
X61223334Y-66868577D02*
X61270953Y-66773339D01*
X61366191Y-66725720D01*
X61509048Y-66725720D01*
X61604286Y-66773339D01*
X61651905Y-66868577D01*
X61651905Y-67392386D01*
X62128096Y-67392386D02*
X62128096Y-66725720D01*
X62128096Y-66820958D02*
X62175715Y-66773339D01*
X62270953Y-66725720D01*
X62413810Y-66725720D01*
X62509048Y-66773339D01*
X62556667Y-66868577D01*
X62556667Y-67392386D01*
X62556667Y-66868577D02*
X62604286Y-66773339D01*
X62699524Y-66725720D01*
X62842381Y-66725720D01*
X62937620Y-66773339D01*
X62985239Y-66868577D01*
X62985239Y-67392386D01*
X50000001Y-68240006D02*
X67780001Y-68240006D01*
X50000001Y-70780006D02*
X50000001Y-67653585D01*
X67780001Y-70780006D02*
X67780001Y-67653585D01*
X67780001Y-68240006D02*
X66653497Y-68826427D01*
X67780001Y-68240006D02*
X66653497Y-67653585D01*
X50000001Y-68240006D02*
X51126505Y-68826427D01*
X50000001Y-68240006D02*
X51126505Y-67653585D01*
X108047635Y-55318572D02*
X108047635Y-54747143D01*
X108047635Y-55032858D02*
X109047635Y-55032858D01*
X108904777Y-54937620D01*
X108809539Y-54842381D01*
X108761920Y-54747143D01*
X109047635Y-55651905D02*
X109047635Y-56318572D01*
X108047635Y-55890001D01*
X108142873Y-56699524D02*
X108095254Y-56747143D01*
X108047635Y-56699524D01*
X108095254Y-56651905D01*
X108142873Y-56699524D01*
X108047635Y-56699524D01*
X109047635Y-57080477D02*
X109047635Y-57747143D01*
X108047635Y-57318572D01*
X108619063Y-58270953D02*
X108666682Y-58175715D01*
X108714301Y-58128096D01*
X108809539Y-58080477D01*
X108857158Y-58080477D01*
X108952396Y-58128096D01*
X109000016Y-58175715D01*
X109047635Y-58270953D01*
X109047635Y-58461429D01*
X109000016Y-58556667D01*
X108952396Y-58604286D01*
X108857158Y-58651905D01*
X108809539Y-58651905D01*
X108714301Y-58604286D01*
X108666682Y-58556667D01*
X108619063Y-58461429D01*
X108619063Y-58270953D01*
X108571444Y-58175715D01*
X108523825Y-58128096D01*
X108428587Y-58080477D01*
X108238111Y-58080477D01*
X108142873Y-58128096D01*
X108095254Y-58175715D01*
X108047635Y-58270953D01*
X108047635Y-58461429D01*
X108095254Y-58556667D01*
X108142873Y-58604286D01*
X108238111Y-58651905D01*
X108428587Y-58651905D01*
X108523825Y-58604286D01*
X108571444Y-58556667D01*
X108619063Y-58461429D01*
X109047635Y-59270953D02*
X109047635Y-59366191D01*
X109000016Y-59461429D01*
X108952396Y-59509048D01*
X108857158Y-59556667D01*
X108666682Y-59604286D01*
X108428587Y-59604286D01*
X108238111Y-59556667D01*
X108142873Y-59509048D01*
X108095254Y-59461429D01*
X108047635Y-59366191D01*
X108047635Y-59270953D01*
X108095254Y-59175715D01*
X108142873Y-59128096D01*
X108238111Y-59080477D01*
X108428587Y-59032858D01*
X108666682Y-59032858D01*
X108857158Y-59080477D01*
X108952396Y-59128096D01*
X109000016Y-59175715D01*
X109047635Y-59270953D01*
X108047635Y-60794762D02*
X108714301Y-60794762D01*
X108619063Y-60794762D02*
X108666682Y-60842381D01*
X108714301Y-60937620D01*
X108714301Y-61080477D01*
X108666682Y-61175715D01*
X108571444Y-61223334D01*
X108047635Y-61223334D01*
X108571444Y-61223334D02*
X108666682Y-61270953D01*
X108714301Y-61366191D01*
X108714301Y-61509048D01*
X108666682Y-61604286D01*
X108571444Y-61651905D01*
X108047635Y-61651905D01*
X108047635Y-62128096D02*
X108714301Y-62128096D01*
X108619063Y-62128096D02*
X108666682Y-62175715D01*
X108714301Y-62270953D01*
X108714301Y-62413810D01*
X108666682Y-62509048D01*
X108571444Y-62556667D01*
X108047635Y-62556667D01*
X108571444Y-62556667D02*
X108666682Y-62604286D01*
X108714301Y-62699524D01*
X108714301Y-62842381D01*
X108666682Y-62937620D01*
X108571444Y-62985239D01*
X108047635Y-62985239D01*
X109800016Y-50000001D02*
X109800016Y-67780001D01*
X112340016Y-50000001D02*
X109213595Y-50000001D01*
X112340016Y-67780001D02*
X109213595Y-67780001D01*
X109800016Y-67780001D02*
X109213595Y-66653497D01*
X109800016Y-67780001D02*
X110386437Y-66653497D01*
X109800016Y-50000001D02*
X109213595Y-51126505D01*
X109800016Y-50000001D02*
X110386437Y-51126505D01*
X117658587Y-46612381D02*
X117087158Y-46612381D01*
X117372873Y-46612381D02*
X117372873Y-45612381D01*
X117277635Y-45755239D01*
X117182396Y-45850477D01*
X117087158Y-45898096D01*
X117991920Y-45612381D02*
X118658587Y-45612381D01*
X118230016Y-46612381D01*
X119039539Y-46517143D02*
X119087158Y-46564762D01*
X119039539Y-46612381D01*
X118991920Y-46564762D01*
X119039539Y-46517143D01*
X119039539Y-46612381D01*
X119420492Y-45612381D02*
X120087158Y-45612381D01*
X119658587Y-46612381D01*
X120610968Y-46040953D02*
X120515730Y-45993334D01*
X120468111Y-45945715D01*
X120420492Y-45850477D01*
X120420492Y-45802858D01*
X120468111Y-45707620D01*
X120515730Y-45660001D01*
X120610968Y-45612381D01*
X120801444Y-45612381D01*
X120896682Y-45660001D01*
X120944301Y-45707620D01*
X120991920Y-45802858D01*
X120991920Y-45850477D01*
X120944301Y-45945715D01*
X120896682Y-45993334D01*
X120801444Y-46040953D01*
X120610968Y-46040953D01*
X120515730Y-46088572D01*
X120468111Y-46136191D01*
X120420492Y-46231429D01*
X120420492Y-46421905D01*
X120468111Y-46517143D01*
X120515730Y-46564762D01*
X120610968Y-46612381D01*
X120801444Y-46612381D01*
X120896682Y-46564762D01*
X120944301Y-46517143D01*
X120991920Y-46421905D01*
X120991920Y-46231429D01*
X120944301Y-46136191D01*
X120896682Y-46088572D01*
X120801444Y-46040953D01*
X121610968Y-45612381D02*
X121706206Y-45612381D01*
X121801444Y-45660001D01*
X121849063Y-45707620D01*
X121896682Y-45802858D01*
X121944301Y-45993334D01*
X121944301Y-46231429D01*
X121896682Y-46421905D01*
X121849063Y-46517143D01*
X121801444Y-46564762D01*
X121706206Y-46612381D01*
X121610968Y-46612381D01*
X121515730Y-46564762D01*
X121468111Y-46517143D01*
X121420492Y-46421905D01*
X121372873Y-46231429D01*
X121372873Y-45993334D01*
X121420492Y-45802858D01*
X121468111Y-45707620D01*
X121515730Y-45660001D01*
X121610968Y-45612381D01*
X123134777Y-46612381D02*
X123134777Y-45945715D01*
X123134777Y-46040953D02*
X123182396Y-45993334D01*
X123277635Y-45945715D01*
X123420492Y-45945715D01*
X123515730Y-45993334D01*
X123563349Y-46088572D01*
X123563349Y-46612381D01*
X123563349Y-46088572D02*
X123610968Y-45993334D01*
X123706206Y-45945715D01*
X123849063Y-45945715D01*
X123944301Y-45993334D01*
X123991920Y-46088572D01*
X123991920Y-46612381D01*
X124468111Y-46612381D02*
X124468111Y-45945715D01*
X124468111Y-46040953D02*
X124515730Y-45993334D01*
X124610968Y-45945715D01*
X124753825Y-45945715D01*
X124849063Y-45993334D01*
X124896682Y-46088572D01*
X124896682Y-46612381D01*
X124896682Y-46088572D02*
X124944301Y-45993334D01*
X125039539Y-45945715D01*
X125182396Y-45945715D01*
X125277635Y-45993334D01*
X125325254Y-46088572D01*
X125325254Y-46612381D01*
X112340016Y-47460001D02*
X130120016Y-47460001D01*
X112340016Y-50000001D02*
X112340016Y-46873580D01*
X130120016Y-50000001D02*
X130120016Y-46873580D01*
X130120016Y-47460001D02*
X128993512Y-48046422D01*
X130120016Y-47460001D02*
X128993512Y-46873580D01*
X112340016Y-47460001D02*
X113466520Y-48046422D01*
X112340016Y-47460001D02*
X113466520Y-46873580D01*
X87267630Y-55318572D02*
X87267630Y-54747143D01*
X87267630Y-55032858D02*
X88267630Y-55032858D01*
X88124772Y-54937620D01*
X88029534Y-54842381D01*
X87981915Y-54747143D01*
X88267630Y-55651905D02*
X88267630Y-56318572D01*
X87267630Y-55890001D01*
X87362868Y-56699524D02*
X87315249Y-56747143D01*
X87267630Y-56699524D01*
X87315249Y-56651905D01*
X87362868Y-56699524D01*
X87267630Y-56699524D01*
X88267630Y-57080477D02*
X88267630Y-57747143D01*
X87267630Y-57318572D01*
X87839058Y-58270953D02*
X87886677Y-58175715D01*
X87934296Y-58128096D01*
X88029534Y-58080477D01*
X88077153Y-58080477D01*
X88172391Y-58128096D01*
X88220011Y-58175715D01*
X88267630Y-58270953D01*
X88267630Y-58461429D01*
X88220011Y-58556667D01*
X88172391Y-58604286D01*
X88077153Y-58651905D01*
X88029534Y-58651905D01*
X87934296Y-58604286D01*
X87886677Y-58556667D01*
X87839058Y-58461429D01*
X87839058Y-58270953D01*
X87791439Y-58175715D01*
X87743820Y-58128096D01*
X87648582Y-58080477D01*
X87458106Y-58080477D01*
X87362868Y-58128096D01*
X87315249Y-58175715D01*
X87267630Y-58270953D01*
X87267630Y-58461429D01*
X87315249Y-58556667D01*
X87362868Y-58604286D01*
X87458106Y-58651905D01*
X87648582Y-58651905D01*
X87743820Y-58604286D01*
X87791439Y-58556667D01*
X87839058Y-58461429D01*
X88267630Y-59270953D02*
X88267630Y-59366191D01*
X88220011Y-59461429D01*
X88172391Y-59509048D01*
X88077153Y-59556667D01*
X87886677Y-59604286D01*
X87648582Y-59604286D01*
X87458106Y-59556667D01*
X87362868Y-59509048D01*
X87315249Y-59461429D01*
X87267630Y-59366191D01*
X87267630Y-59270953D01*
X87315249Y-59175715D01*
X87362868Y-59128096D01*
X87458106Y-59080477D01*
X87648582Y-59032858D01*
X87886677Y-59032858D01*
X88077153Y-59080477D01*
X88172391Y-59128096D01*
X88220011Y-59175715D01*
X88267630Y-59270953D01*
X87267630Y-60794762D02*
X87934296Y-60794762D01*
X87839058Y-60794762D02*
X87886677Y-60842381D01*
X87934296Y-60937620D01*
X87934296Y-61080477D01*
X87886677Y-61175715D01*
X87791439Y-61223334D01*
X87267630Y-61223334D01*
X87791439Y-61223334D02*
X87886677Y-61270953D01*
X87934296Y-61366191D01*
X87934296Y-61509048D01*
X87886677Y-61604286D01*
X87791439Y-61651905D01*
X87267630Y-61651905D01*
X87267630Y-62128096D02*
X87934296Y-62128096D01*
X87839058Y-62128096D02*
X87886677Y-62175715D01*
X87934296Y-62270953D01*
X87934296Y-62413810D01*
X87886677Y-62509048D01*
X87791439Y-62556667D01*
X87267630Y-62556667D01*
X87791439Y-62556667D02*
X87886677Y-62604286D01*
X87934296Y-62699524D01*
X87934296Y-62842381D01*
X87886677Y-62937620D01*
X87791439Y-62985239D01*
X87267630Y-62985239D01*
X89020011Y-50000001D02*
X89020011Y-67780001D01*
X91560011Y-50000001D02*
X88433590Y-50000001D01*
X91560011Y-67780001D02*
X88433590Y-67780001D01*
X89020011Y-67780001D02*
X88433590Y-66653497D01*
X89020011Y-67780001D02*
X89606432Y-66653497D01*
X89020011Y-50000001D02*
X88433590Y-51126505D01*
X89020011Y-50000001D02*
X89606432Y-51126505D01*
X96878582Y-46612381D02*
X96307153Y-46612381D01*
X96592868Y-46612381D02*
X96592868Y-45612381D01*
X96497630Y-45755239D01*
X96402391Y-45850477D01*
X96307153Y-45898096D01*
X97211915Y-45612381D02*
X97878582Y-45612381D01*
X97450011Y-46612381D01*
X98259534Y-46517143D02*
X98307153Y-46564762D01*
X98259534Y-46612381D01*
X98211915Y-46564762D01*
X98259534Y-46517143D01*
X98259534Y-46612381D01*
X98640487Y-45612381D02*
X99307153Y-45612381D01*
X98878582Y-46612381D01*
X99830963Y-46040953D02*
X99735725Y-45993334D01*
X99688106Y-45945715D01*
X99640487Y-45850477D01*
X99640487Y-45802858D01*
X99688106Y-45707620D01*
X99735725Y-45660001D01*
X99830963Y-45612381D01*
X100021439Y-45612381D01*
X100116677Y-45660001D01*
X100164296Y-45707620D01*
X100211915Y-45802858D01*
X100211915Y-45850477D01*
X100164296Y-45945715D01*
X100116677Y-45993334D01*
X100021439Y-46040953D01*
X99830963Y-46040953D01*
X99735725Y-46088572D01*
X99688106Y-46136191D01*
X99640487Y-46231429D01*
X99640487Y-46421905D01*
X99688106Y-46517143D01*
X99735725Y-46564762D01*
X99830963Y-46612381D01*
X100021439Y-46612381D01*
X100116677Y-46564762D01*
X100164296Y-46517143D01*
X100211915Y-46421905D01*
X100211915Y-46231429D01*
X100164296Y-46136191D01*
X100116677Y-46088572D01*
X100021439Y-46040953D01*
X100830963Y-45612381D02*
X100926201Y-45612381D01*
X101021439Y-45660001D01*
X101069058Y-45707620D01*
X101116677Y-45802858D01*
X101164296Y-45993334D01*
X101164296Y-46231429D01*
X101116677Y-46421905D01*
X101069058Y-46517143D01*
X101021439Y-46564762D01*
X100926201Y-46612381D01*
X100830963Y-46612381D01*
X100735725Y-46564762D01*
X100688106Y-46517143D01*
X100640487Y-46421905D01*
X100592868Y-46231429D01*
X100592868Y-45993334D01*
X100640487Y-45802858D01*
X100688106Y-45707620D01*
X100735725Y-45660001D01*
X100830963Y-45612381D01*
X102354772Y-46612381D02*
X102354772Y-45945715D01*
X102354772Y-46040953D02*
X102402391Y-45993334D01*
X102497630Y-45945715D01*
X102640487Y-45945715D01*
X102735725Y-45993334D01*
X102783344Y-46088572D01*
X102783344Y-46612381D01*
X102783344Y-46088572D02*
X102830963Y-45993334D01*
X102926201Y-45945715D01*
X103069058Y-45945715D01*
X103164296Y-45993334D01*
X103211915Y-46088572D01*
X103211915Y-46612381D01*
X103688106Y-46612381D02*
X103688106Y-45945715D01*
X103688106Y-46040953D02*
X103735725Y-45993334D01*
X103830963Y-45945715D01*
X103973820Y-45945715D01*
X104069058Y-45993334D01*
X104116677Y-46088572D01*
X104116677Y-46612381D01*
X104116677Y-46088572D02*
X104164296Y-45993334D01*
X104259534Y-45945715D01*
X104402391Y-45945715D01*
X104497630Y-45993334D01*
X104545249Y-46088572D01*
X104545249Y-46612381D01*
X91560011Y-47460001D02*
X109340011Y-47460001D01*
X91560011Y-50000001D02*
X91560011Y-46873580D01*
X109340011Y-50000001D02*
X109340011Y-46873580D01*
X109340011Y-47460001D02*
X108213507Y-48046422D01*
X109340011Y-47460001D02*
X108213507Y-46873580D01*
X91560011Y-47460001D02*
X92686515Y-48046422D01*
X91560011Y-47460001D02*
X92686515Y-46873580D01*
X66487625Y-55318572D02*
X66487625Y-54747143D01*
X66487625Y-55032858D02*
X67487625Y-55032858D01*
X67344767Y-54937620D01*
X67249529Y-54842381D01*
X67201910Y-54747143D01*
X67487625Y-55651905D02*
X67487625Y-56318572D01*
X66487625Y-55890001D01*
X66582863Y-56699524D02*
X66535244Y-56747143D01*
X66487625Y-56699524D01*
X66535244Y-56651905D01*
X66582863Y-56699524D01*
X66487625Y-56699524D01*
X67487625Y-57080477D02*
X67487625Y-57747143D01*
X66487625Y-57318572D01*
X67059053Y-58270953D02*
X67106672Y-58175715D01*
X67154291Y-58128096D01*
X67249529Y-58080477D01*
X67297148Y-58080477D01*
X67392386Y-58128096D01*
X67440006Y-58175715D01*
X67487625Y-58270953D01*
X67487625Y-58461429D01*
X67440006Y-58556667D01*
X67392386Y-58604286D01*
X67297148Y-58651905D01*
X67249529Y-58651905D01*
X67154291Y-58604286D01*
X67106672Y-58556667D01*
X67059053Y-58461429D01*
X67059053Y-58270953D01*
X67011434Y-58175715D01*
X66963815Y-58128096D01*
X66868577Y-58080477D01*
X66678101Y-58080477D01*
X66582863Y-58128096D01*
X66535244Y-58175715D01*
X66487625Y-58270953D01*
X66487625Y-58461429D01*
X66535244Y-58556667D01*
X66582863Y-58604286D01*
X66678101Y-58651905D01*
X66868577Y-58651905D01*
X66963815Y-58604286D01*
X67011434Y-58556667D01*
X67059053Y-58461429D01*
X67487625Y-59270953D02*
X67487625Y-59366191D01*
X67440006Y-59461429D01*
X67392386Y-59509048D01*
X67297148Y-59556667D01*
X67106672Y-59604286D01*
X66868577Y-59604286D01*
X66678101Y-59556667D01*
X66582863Y-59509048D01*
X66535244Y-59461429D01*
X66487625Y-59366191D01*
X66487625Y-59270953D01*
X66535244Y-59175715D01*
X66582863Y-59128096D01*
X66678101Y-59080477D01*
X66868577Y-59032858D01*
X67106672Y-59032858D01*
X67297148Y-59080477D01*
X67392386Y-59128096D01*
X67440006Y-59175715D01*
X67487625Y-59270953D01*
X66487625Y-60794762D02*
X67154291Y-60794762D01*
X67059053Y-60794762D02*
X67106672Y-60842381D01*
X67154291Y-60937620D01*
X67154291Y-61080477D01*
X67106672Y-61175715D01*
X67011434Y-61223334D01*
X66487625Y-61223334D01*
X67011434Y-61223334D02*
X67106672Y-61270953D01*
X67154291Y-61366191D01*
X67154291Y-61509048D01*
X67106672Y-61604286D01*
X67011434Y-61651905D01*
X66487625Y-61651905D01*
X66487625Y-62128096D02*
X67154291Y-62128096D01*
X67059053Y-62128096D02*
X67106672Y-62175715D01*
X67154291Y-62270953D01*
X67154291Y-62413810D01*
X67106672Y-62509048D01*
X67011434Y-62556667D01*
X66487625Y-62556667D01*
X67011434Y-62556667D02*
X67106672Y-62604286D01*
X67154291Y-62699524D01*
X67154291Y-62842381D01*
X67106672Y-62937620D01*
X67011434Y-62985239D01*
X66487625Y-62985239D01*
X68240006Y-50000001D02*
X68240006Y-67780001D01*
X70780006Y-50000001D02*
X67653585Y-50000001D01*
X70780006Y-67780001D02*
X67653585Y-67780001D01*
X68240006Y-67780001D02*
X67653585Y-66653497D01*
X68240006Y-67780001D02*
X68826427Y-66653497D01*
X68240006Y-50000001D02*
X67653585Y-51126505D01*
X68240006Y-50000001D02*
X68826427Y-51126505D01*
X76098577Y-46612381D02*
X75527148Y-46612381D01*
X75812863Y-46612381D02*
X75812863Y-45612381D01*
X75717625Y-45755239D01*
X75622386Y-45850477D01*
X75527148Y-45898096D01*
X76431910Y-45612381D02*
X77098577Y-45612381D01*
X76670006Y-46612381D01*
X77479529Y-46517143D02*
X77527148Y-46564762D01*
X77479529Y-46612381D01*
X77431910Y-46564762D01*
X77479529Y-46517143D01*
X77479529Y-46612381D01*
X77860482Y-45612381D02*
X78527148Y-45612381D01*
X78098577Y-46612381D01*
X79050958Y-46040953D02*
X78955720Y-45993334D01*
X78908101Y-45945715D01*
X78860482Y-45850477D01*
X78860482Y-45802858D01*
X78908101Y-45707620D01*
X78955720Y-45660001D01*
X79050958Y-45612381D01*
X79241434Y-45612381D01*
X79336672Y-45660001D01*
X79384291Y-45707620D01*
X79431910Y-45802858D01*
X79431910Y-45850477D01*
X79384291Y-45945715D01*
X79336672Y-45993334D01*
X79241434Y-46040953D01*
X79050958Y-46040953D01*
X78955720Y-46088572D01*
X78908101Y-46136191D01*
X78860482Y-46231429D01*
X78860482Y-46421905D01*
X78908101Y-46517143D01*
X78955720Y-46564762D01*
X79050958Y-46612381D01*
X79241434Y-46612381D01*
X79336672Y-46564762D01*
X79384291Y-46517143D01*
X79431910Y-46421905D01*
X79431910Y-46231429D01*
X79384291Y-46136191D01*
X79336672Y-46088572D01*
X79241434Y-46040953D01*
X80050958Y-45612381D02*
X80146196Y-45612381D01*
X80241434Y-45660001D01*
X80289053Y-45707620D01*
X80336672Y-45802858D01*
X80384291Y-45993334D01*
X80384291Y-46231429D01*
X80336672Y-46421905D01*
X80289053Y-46517143D01*
X80241434Y-46564762D01*
X80146196Y-46612381D01*
X80050958Y-46612381D01*
X79955720Y-46564762D01*
X79908101Y-46517143D01*
X79860482Y-46421905D01*
X79812863Y-46231429D01*
X79812863Y-45993334D01*
X79860482Y-45802858D01*
X79908101Y-45707620D01*
X79955720Y-45660001D01*
X80050958Y-45612381D01*
X81574767Y-46612381D02*
X81574767Y-45945715D01*
X81574767Y-46040953D02*
X81622386Y-45993334D01*
X81717625Y-45945715D01*
X81860482Y-45945715D01*
X81955720Y-45993334D01*
X82003339Y-46088572D01*
X82003339Y-46612381D01*
X82003339Y-46088572D02*
X82050958Y-45993334D01*
X82146196Y-45945715D01*
X82289053Y-45945715D01*
X82384291Y-45993334D01*
X82431910Y-46088572D01*
X82431910Y-46612381D01*
X82908101Y-46612381D02*
X82908101Y-45945715D01*
X82908101Y-46040953D02*
X82955720Y-45993334D01*
X83050958Y-45945715D01*
X83193815Y-45945715D01*
X83289053Y-45993334D01*
X83336672Y-46088572D01*
X83336672Y-46612381D01*
X83336672Y-46088572D02*
X83384291Y-45993334D01*
X83479529Y-45945715D01*
X83622386Y-45945715D01*
X83717625Y-45993334D01*
X83765244Y-46088572D01*
X83765244Y-46612381D01*
X70780006Y-47460001D02*
X88560006Y-47460001D01*
X70780006Y-50000001D02*
X70780006Y-46873580D01*
X88560006Y-50000001D02*
X88560006Y-46873580D01*
X88560006Y-47460001D02*
X87433502Y-48046422D01*
X88560006Y-47460001D02*
X87433502Y-46873580D01*
X70780006Y-47460001D02*
X71906510Y-48046422D01*
X70780006Y-47460001D02*
X71906510Y-46873580D01*
X45707620Y-55318572D02*
X45707620Y-54747143D01*
X45707620Y-55032858D02*
X46707620Y-55032858D01*
X46564762Y-54937620D01*
X46469524Y-54842381D01*
X46421905Y-54747143D01*
X46707620Y-55651905D02*
X46707620Y-56318572D01*
X45707620Y-55890001D01*
X45802858Y-56699524D02*
X45755239Y-56747143D01*
X45707620Y-56699524D01*
X45755239Y-56651905D01*
X45802858Y-56699524D01*
X45707620Y-56699524D01*
X46707620Y-57080477D02*
X46707620Y-57747143D01*
X45707620Y-57318572D01*
X46279048Y-58270953D02*
X46326667Y-58175715D01*
X46374286Y-58128096D01*
X46469524Y-58080477D01*
X46517143Y-58080477D01*
X46612381Y-58128096D01*
X46660001Y-58175715D01*
X46707620Y-58270953D01*
X46707620Y-58461429D01*
X46660001Y-58556667D01*
X46612381Y-58604286D01*
X46517143Y-58651905D01*
X46469524Y-58651905D01*
X46374286Y-58604286D01*
X46326667Y-58556667D01*
X46279048Y-58461429D01*
X46279048Y-58270953D01*
X46231429Y-58175715D01*
X46183810Y-58128096D01*
X46088572Y-58080477D01*
X45898096Y-58080477D01*
X45802858Y-58128096D01*
X45755239Y-58175715D01*
X45707620Y-58270953D01*
X45707620Y-58461429D01*
X45755239Y-58556667D01*
X45802858Y-58604286D01*
X45898096Y-58651905D01*
X46088572Y-58651905D01*
X46183810Y-58604286D01*
X46231429Y-58556667D01*
X46279048Y-58461429D01*
X46707620Y-59270953D02*
X46707620Y-59366191D01*
X46660001Y-59461429D01*
X46612381Y-59509048D01*
X46517143Y-59556667D01*
X46326667Y-59604286D01*
X46088572Y-59604286D01*
X45898096Y-59556667D01*
X45802858Y-59509048D01*
X45755239Y-59461429D01*
X45707620Y-59366191D01*
X45707620Y-59270953D01*
X45755239Y-59175715D01*
X45802858Y-59128096D01*
X45898096Y-59080477D01*
X46088572Y-59032858D01*
X46326667Y-59032858D01*
X46517143Y-59080477D01*
X46612381Y-59128096D01*
X46660001Y-59175715D01*
X46707620Y-59270953D01*
X45707620Y-60794762D02*
X46374286Y-60794762D01*
X46279048Y-60794762D02*
X46326667Y-60842381D01*
X46374286Y-60937620D01*
X46374286Y-61080477D01*
X46326667Y-61175715D01*
X46231429Y-61223334D01*
X45707620Y-61223334D01*
X46231429Y-61223334D02*
X46326667Y-61270953D01*
X46374286Y-61366191D01*
X46374286Y-61509048D01*
X46326667Y-61604286D01*
X46231429Y-61651905D01*
X45707620Y-61651905D01*
X45707620Y-62128096D02*
X46374286Y-62128096D01*
X46279048Y-62128096D02*
X46326667Y-62175715D01*
X46374286Y-62270953D01*
X46374286Y-62413810D01*
X46326667Y-62509048D01*
X46231429Y-62556667D01*
X45707620Y-62556667D01*
X46231429Y-62556667D02*
X46326667Y-62604286D01*
X46374286Y-62699524D01*
X46374286Y-62842381D01*
X46326667Y-62937620D01*
X46231429Y-62985239D01*
X45707620Y-62985239D01*
X47460001Y-50000001D02*
X47460001Y-67780001D01*
X50000001Y-50000001D02*
X46873580Y-50000001D01*
X50000001Y-67780001D02*
X46873580Y-67780001D01*
X47460001Y-67780001D02*
X46873580Y-66653497D01*
X47460001Y-67780001D02*
X48046422Y-66653497D01*
X47460001Y-50000001D02*
X46873580Y-51126505D01*
X47460001Y-50000001D02*
X48046422Y-51126505D01*
X55318572Y-46612381D02*
X54747143Y-46612381D01*
X55032858Y-46612381D02*
X55032858Y-45612381D01*
X54937620Y-45755239D01*
X54842381Y-45850477D01*
X54747143Y-45898096D01*
X55651905Y-45612381D02*
X56318572Y-45612381D01*
X55890001Y-46612381D01*
X56699524Y-46517143D02*
X56747143Y-46564762D01*
X56699524Y-46612381D01*
X56651905Y-46564762D01*
X56699524Y-46517143D01*
X56699524Y-46612381D01*
X57080477Y-45612381D02*
X57747143Y-45612381D01*
X57318572Y-46612381D01*
X58270953Y-46040953D02*
X58175715Y-45993334D01*
X58128096Y-45945715D01*
X58080477Y-45850477D01*
X58080477Y-45802858D01*
X58128096Y-45707620D01*
X58175715Y-45660001D01*
X58270953Y-45612381D01*
X58461429Y-45612381D01*
X58556667Y-45660001D01*
X58604286Y-45707620D01*
X58651905Y-45802858D01*
X58651905Y-45850477D01*
X58604286Y-45945715D01*
X58556667Y-45993334D01*
X58461429Y-46040953D01*
X58270953Y-46040953D01*
X58175715Y-46088572D01*
X58128096Y-46136191D01*
X58080477Y-46231429D01*
X58080477Y-46421905D01*
X58128096Y-46517143D01*
X58175715Y-46564762D01*
X58270953Y-46612381D01*
X58461429Y-46612381D01*
X58556667Y-46564762D01*
X58604286Y-46517143D01*
X58651905Y-46421905D01*
X58651905Y-46231429D01*
X58604286Y-46136191D01*
X58556667Y-46088572D01*
X58461429Y-46040953D01*
X59270953Y-45612381D02*
X59366191Y-45612381D01*
X59461429Y-45660001D01*
X59509048Y-45707620D01*
X59556667Y-45802858D01*
X59604286Y-45993334D01*
X59604286Y-46231429D01*
X59556667Y-46421905D01*
X59509048Y-46517143D01*
X59461429Y-46564762D01*
X59366191Y-46612381D01*
X59270953Y-46612381D01*
X59175715Y-46564762D01*
X59128096Y-46517143D01*
X59080477Y-46421905D01*
X59032858Y-46231429D01*
X59032858Y-45993334D01*
X59080477Y-45802858D01*
X59128096Y-45707620D01*
X59175715Y-45660001D01*
X59270953Y-45612381D01*
X60794762Y-46612381D02*
X60794762Y-45945715D01*
X60794762Y-46040953D02*
X60842381Y-45993334D01*
X60937620Y-45945715D01*
X61080477Y-45945715D01*
X61175715Y-45993334D01*
X61223334Y-46088572D01*
X61223334Y-46612381D01*
X61223334Y-46088572D02*
X61270953Y-45993334D01*
X61366191Y-45945715D01*
X61509048Y-45945715D01*
X61604286Y-45993334D01*
X61651905Y-46088572D01*
X61651905Y-46612381D01*
X62128096Y-46612381D02*
X62128096Y-45945715D01*
X62128096Y-46040953D02*
X62175715Y-45993334D01*
X62270953Y-45945715D01*
X62413810Y-45945715D01*
X62509048Y-45993334D01*
X62556667Y-46088572D01*
X62556667Y-46612381D01*
X62556667Y-46088572D02*
X62604286Y-45993334D01*
X62699524Y-45945715D01*
X62842381Y-45945715D01*
X62937620Y-45993334D01*
X62985239Y-46088572D01*
X62985239Y-46612381D01*
X50000001Y-47460001D02*
X67780001Y-47460001D01*
X50000001Y-50000001D02*
X50000001Y-46873580D01*
X67780001Y-50000001D02*
X67780001Y-46873580D01*
X67780001Y-47460001D02*
X66653497Y-48046422D01*
X67780001Y-47460001D02*
X66653497Y-46873580D01*
X50000001Y-47460001D02*
X51126505Y-48046422D01*
X50000001Y-47460001D02*
X51126505Y-46873580D01*
M02*
