M48
; DRILL file {KiCad 5.1.8} date Sun Nov 29 16:03:28 2020
; FORMAT={-:-/ absolute / inch / decimal}
; #@! TF.CreationDate,2020-11-29T16:03:28+01:00
; #@! TF.GenerationSoftware,Kicad,Pcbnew,5.1.8
FMAT,2
INCH
T1C0.0079
T2C0.0125
T3C0.0250
T4C0.0394
T5C0.0197
%
G90
G05
T1
X2.161Y-2.2385
X2.161Y-2.2735
X2.161Y-2.3085
X2.161Y-3.0566
X2.161Y-3.0916
X2.161Y-3.1266
X2.161Y-3.8747
X2.161Y-3.9097
X2.161Y-3.9447
X2.161Y-4.6928
X2.161Y-4.7278
X2.161Y-4.7628
X2.1985Y-2.2385
X2.1985Y-2.2735
X2.1985Y-2.3085
X2.1985Y-3.0566
X2.1985Y-3.0916
X2.1985Y-3.1266
X2.1985Y-3.8747
X2.1985Y-3.9097
X2.1985Y-3.9447
X2.1985Y-4.6928
X2.1985Y-4.7278
X2.1985Y-4.7628
X2.2035Y-2.1185
X2.2035Y-2.9366
X2.2035Y-3.7547
X2.2035Y-4.5728
X2.2535Y-2.2385
X2.2535Y-2.3085
X2.2535Y-3.0566
X2.2535Y-3.1266
X2.2535Y-3.8747
X2.2535Y-3.9447
X2.2535Y-4.6928
X2.2535Y-4.7628
X2.3085Y-2.2385
X2.3085Y-2.2735
X2.3085Y-2.3085
X2.3085Y-3.0566
X2.3085Y-3.0916
X2.3085Y-3.1266
X2.3085Y-3.8747
X2.3085Y-3.9097
X2.3085Y-3.9447
X2.3085Y-4.6928
X2.3085Y-4.7278
X2.3085Y-4.7628
X2.346Y-2.2385
X2.346Y-2.2735
X2.346Y-2.3085
X2.346Y-3.0566
X2.346Y-3.0916
X2.346Y-3.1266
X2.346Y-3.8747
X2.346Y-3.9097
X2.346Y-3.9447
X2.346Y-4.6928
X2.346Y-4.7278
X2.346Y-4.7628
X2.4235Y-2.5085
X2.4235Y-3.3266
X2.4235Y-4.1447
X2.4235Y-4.9628
X2.9791Y-2.2385
X2.9791Y-2.2735
X2.9791Y-2.3085
X2.9791Y-3.0566
X2.9791Y-3.0916
X2.9791Y-3.1266
X2.9791Y-3.8747
X2.9791Y-3.9097
X2.9791Y-3.9447
X2.9791Y-4.6928
X2.9791Y-4.7278
X2.9791Y-4.7628
X3.0166Y-2.2385
X3.0166Y-2.2735
X3.0166Y-2.3085
X3.0166Y-3.0566
X3.0166Y-3.0916
X3.0166Y-3.1266
X3.0166Y-3.8747
X3.0166Y-3.9097
X3.0166Y-3.9447
X3.0166Y-4.6928
X3.0166Y-4.7278
X3.0166Y-4.7628
X3.0216Y-2.1185
X3.0216Y-2.9366
X3.0216Y-3.7547
X3.0216Y-4.5728
X3.0716Y-2.2385
X3.0716Y-2.3085
X3.0716Y-3.0566
X3.0716Y-3.1266
X3.0716Y-3.8747
X3.0716Y-3.9447
X3.0716Y-4.6928
X3.0716Y-4.7628
X3.1266Y-2.2385
X3.1266Y-2.2735
X3.1266Y-2.3085
X3.1266Y-3.0566
X3.1266Y-3.0916
X3.1266Y-3.1266
X3.1266Y-3.8747
X3.1266Y-3.9097
X3.1266Y-3.9447
X3.1266Y-4.6928
X3.1266Y-4.7278
X3.1266Y-4.7628
X3.1641Y-2.2385
X3.1641Y-2.2735
X3.1641Y-2.3085
X3.1641Y-3.0566
X3.1641Y-3.0916
X3.1641Y-3.1266
X3.1641Y-3.8747
X3.1641Y-3.9097
X3.1641Y-3.9447
X3.1641Y-4.6928
X3.1641Y-4.7278
X3.1641Y-4.7628
X3.2416Y-2.5085
X3.2416Y-3.3266
X3.2416Y-4.1447
X3.2416Y-4.9628
X3.7972Y-2.2385
X3.7972Y-2.2735
X3.7972Y-2.3085
X3.7972Y-3.0566
X3.7972Y-3.0916
X3.7972Y-3.1266
X3.7972Y-3.8747
X3.7972Y-3.9097
X3.7972Y-3.9447
X3.7972Y-4.6928
X3.7972Y-4.7278
X3.7972Y-4.7628
X3.8347Y-2.2385
X3.8347Y-2.2735
X3.8347Y-2.3085
X3.8347Y-3.0566
X3.8347Y-3.0916
X3.8347Y-3.1266
X3.8347Y-3.8747
X3.8347Y-3.9097
X3.8347Y-3.9447
X3.8347Y-4.6928
X3.8347Y-4.7278
X3.8347Y-4.7628
X3.8397Y-2.1185
X3.8397Y-2.9366
X3.8397Y-3.7547
X3.8397Y-4.5728
X3.8897Y-2.2385
X3.8897Y-2.3085
X3.8897Y-3.0566
X3.8897Y-3.1266
X3.8897Y-3.8747
X3.8897Y-3.9447
X3.8897Y-4.6928
X3.8897Y-4.7628
X3.9447Y-2.2385
X3.9447Y-2.2735
X3.9447Y-2.3085
X3.9447Y-3.0566
X3.9447Y-3.0916
X3.9447Y-3.1266
X3.9447Y-3.8747
X3.9447Y-3.9097
X3.9447Y-3.9447
X3.9447Y-4.6928
X3.9447Y-4.7278
X3.9447Y-4.7628
X3.9822Y-2.2385
X3.9822Y-2.2735
X3.9822Y-2.3085
X3.9822Y-3.0566
X3.9822Y-3.0916
X3.9822Y-3.1266
X3.9822Y-3.8747
X3.9822Y-3.9097
X3.9822Y-3.9447
X3.9822Y-4.6928
X3.9822Y-4.7278
X3.9822Y-4.7628
X4.0597Y-2.5085
X4.0597Y-3.3266
X4.0597Y-4.1447
X4.0597Y-4.9628
X4.6153Y-2.2385
X4.6153Y-2.2735
X4.6153Y-2.3085
X4.6153Y-3.0566
X4.6153Y-3.0916
X4.6153Y-3.1266
X4.6153Y-3.8747
X4.6153Y-3.9097
X4.6153Y-3.9447
X4.6153Y-4.6928
X4.6153Y-4.7278
X4.6153Y-4.7628
X4.6528Y-2.2385
X4.6528Y-2.2735
X4.6528Y-2.3085
X4.6528Y-3.0566
X4.6528Y-3.0916
X4.6528Y-3.1266
X4.6528Y-3.8747
X4.6528Y-3.9097
X4.6528Y-3.9447
X4.6528Y-4.6928
X4.6528Y-4.7278
X4.6528Y-4.7628
X4.6578Y-2.1185
X4.6578Y-2.9366
X4.6578Y-3.7547
X4.6578Y-4.5728
X4.7078Y-2.2385
X4.7078Y-2.3085
X4.7078Y-3.0566
X4.7078Y-3.1266
X4.7078Y-3.8747
X4.7078Y-3.9447
X4.7078Y-4.6928
X4.7078Y-4.7628
X4.7628Y-2.2385
X4.7628Y-2.2735
X4.7628Y-2.3085
X4.7628Y-3.0566
X4.7628Y-3.0916
X4.7628Y-3.1266
X4.7628Y-3.8747
X4.7628Y-3.9097
X4.7628Y-3.9447
X4.7628Y-4.6928
X4.7628Y-4.7278
X4.7628Y-4.7628
X4.8003Y-2.2385
X4.8003Y-2.2735
X4.8003Y-2.3085
X4.8003Y-3.0566
X4.8003Y-3.0916
X4.8003Y-3.1266
X4.8003Y-3.8747
X4.8003Y-3.9097
X4.8003Y-3.9447
X4.8003Y-4.6928
X4.8003Y-4.7278
X4.8003Y-4.7628
X4.8778Y-2.5085
X4.8778Y-3.3266
X4.8778Y-4.1447
X4.8778Y-4.9628
T2
X2.0835Y-2.6135
X2.0835Y-3.4316
X2.0835Y-4.2497
X2.0835Y-5.0678
X2.0935Y-2.1335
X2.0935Y-2.9516
X2.0935Y-3.7697
X2.0935Y-4.5878
X2.0985Y-2.2685
X2.0985Y-3.0866
X2.0985Y-3.9047
X2.0985Y-4.7228
X2.1135Y-2.5835
X2.1135Y-3.4016
X2.1135Y-4.2197
X2.1135Y-5.0378
X2.1385Y-2.4335
X2.1385Y-3.2516
X2.1385Y-4.0697
X2.1385Y-4.8878
X2.1785Y-2.5785
X2.1785Y-3.3966
X2.1785Y-4.2147
X2.1785Y-5.0328
X2.251Y-1.9985
X2.251Y-2.8166
X2.251Y-3.6347
X2.251Y-4.4528
X2.3985Y-2.0485
X2.3985Y-2.8666
X2.3985Y-3.6847
X2.3985Y-4.5028
X2.4085Y-2.011
X2.4085Y-2.8291
X2.4085Y-3.6472
X2.4085Y-4.4653
X2.4235Y-2.2685
X2.4235Y-3.0866
X2.4235Y-3.9047
X2.4235Y-4.7228
X2.5535Y-2.076
X2.5535Y-2.8941
X2.5535Y-3.7122
X2.5535Y-4.5303
X2.5835Y-2.0535
X2.5835Y-2.8716
X2.5835Y-3.6897
X2.5835Y-4.5078
X2.9016Y-2.6135
X2.9016Y-3.4316
X2.9016Y-4.2497
X2.9016Y-5.0678
X2.9116Y-2.1335
X2.9116Y-2.9516
X2.9116Y-3.7697
X2.9116Y-4.5878
X2.9166Y-2.2685
X2.9166Y-3.0866
X2.9166Y-3.9047
X2.9166Y-4.7228
X2.9316Y-2.5835
X2.9316Y-3.4016
X2.9316Y-4.2197
X2.9316Y-5.0378
X2.9566Y-2.4335
X2.9566Y-3.2516
X2.9566Y-4.0697
X2.9566Y-4.8878
X2.9966Y-2.5785
X2.9966Y-3.3966
X2.9966Y-4.2147
X2.9966Y-5.0328
X3.0691Y-1.9985
X3.0691Y-2.8166
X3.0691Y-3.6347
X3.0691Y-4.4528
X3.2166Y-2.0485
X3.2166Y-2.8666
X3.2166Y-3.6847
X3.2166Y-4.5028
X3.2266Y-2.011
X3.2266Y-2.8291
X3.2266Y-3.6472
X3.2266Y-4.4653
X3.2416Y-2.2685
X3.2416Y-3.0866
X3.2416Y-3.9047
X3.2416Y-4.7228
X3.3716Y-2.076
X3.3716Y-2.8941
X3.3716Y-3.7122
X3.3716Y-4.5303
X3.4016Y-2.0535
X3.4016Y-2.8716
X3.4016Y-3.6897
X3.4016Y-4.5078
X3.7197Y-2.6135
X3.7197Y-3.4316
X3.7197Y-4.2497
X3.7197Y-5.0678
X3.7297Y-2.1335
X3.7297Y-2.9516
X3.7297Y-3.7697
X3.7297Y-4.5878
X3.7347Y-2.2685
X3.7347Y-3.0866
X3.7347Y-3.9047
X3.7347Y-4.7228
X3.7497Y-2.5835
X3.7497Y-3.4016
X3.7497Y-4.2197
X3.7497Y-5.0378
X3.7747Y-2.4335
X3.7747Y-3.2516
X3.7747Y-4.0697
X3.7747Y-4.8878
X3.8147Y-2.5785
X3.8147Y-3.3966
X3.8147Y-4.2147
X3.8147Y-5.0328
X3.8872Y-1.9985
X3.8872Y-2.8166
X3.8872Y-3.6347
X3.8872Y-4.4528
X4.0347Y-2.0485
X4.0347Y-2.8666
X4.0347Y-3.6847
X4.0347Y-4.5028
X4.0447Y-2.011
X4.0447Y-2.8291
X4.0447Y-3.6472
X4.0447Y-4.4653
X4.0597Y-2.2685
X4.0597Y-3.0866
X4.0597Y-3.9047
X4.0597Y-4.7228
X4.1897Y-2.076
X4.1897Y-2.8941
X4.1897Y-3.7122
X4.1897Y-4.5303
X4.2197Y-2.0535
X4.2197Y-2.8716
X4.2197Y-3.6897
X4.2197Y-4.5078
X4.5378Y-2.6135
X4.5378Y-3.4316
X4.5378Y-4.2497
X4.5378Y-5.0678
X4.5478Y-2.1335
X4.5478Y-2.9516
X4.5478Y-3.7697
X4.5478Y-4.5878
X4.5528Y-2.2685
X4.5528Y-3.0866
X4.5528Y-3.9047
X4.5528Y-4.7228
X4.5678Y-2.5835
X4.5678Y-3.4016
X4.5678Y-4.2197
X4.5678Y-5.0378
X4.5928Y-2.4335
X4.5928Y-3.2516
X4.5928Y-4.0697
X4.5928Y-4.8878
X4.6328Y-2.5785
X4.6328Y-3.3966
X4.6328Y-4.2147
X4.6328Y-5.0328
X4.7053Y-1.9985
X4.7053Y-2.8166
X4.7053Y-3.6347
X4.7053Y-4.4528
X4.8528Y-2.0485
X4.8528Y-2.8666
X4.8528Y-3.6847
X4.8528Y-4.5028
X4.8628Y-2.011
X4.8628Y-2.8291
X4.8628Y-3.6472
X4.8628Y-4.4653
X4.8778Y-2.2685
X4.8778Y-3.0866
X4.8778Y-3.9047
X4.8778Y-4.7228
X5.0078Y-2.076
X5.0078Y-2.8941
X5.0078Y-3.7122
X5.0078Y-4.5303
X5.0378Y-2.0535
X5.0378Y-2.8716
X5.0378Y-3.6897
X5.0378Y-4.5078
T3
X2.1285Y-2.0985
X2.1285Y-2.9166
X2.1285Y-3.7347
X2.1285Y-4.5528
X2.2035Y-2.6185
X2.2035Y-3.4366
X2.2035Y-4.2547
X2.2035Y-5.0728
X2.2885Y-2.6185
X2.2885Y-3.4366
X2.2885Y-4.2547
X2.2885Y-5.0728
X2.2935Y-2.5335
X2.2935Y-3.3516
X2.2935Y-4.1697
X2.2935Y-4.9878
X2.4085Y-2.3535
X2.4085Y-3.1716
X2.4085Y-3.9897
X2.4085Y-4.8078
X2.4785Y-2.5185
X2.4785Y-3.3366
X2.4785Y-4.1547
X2.4785Y-4.9728
X2.5485Y-2.6185
X2.5485Y-3.4366
X2.5485Y-4.2547
X2.5485Y-5.0728
X2.9466Y-2.0985
X2.9466Y-2.9166
X2.9466Y-3.7347
X2.9466Y-4.5528
X3.0216Y-2.6185
X3.0216Y-3.4366
X3.0216Y-4.2547
X3.0216Y-5.0728
X3.1066Y-2.6185
X3.1066Y-3.4366
X3.1066Y-4.2547
X3.1066Y-5.0728
X3.1116Y-2.5335
X3.1116Y-3.3516
X3.1116Y-4.1697
X3.1116Y-4.9878
X3.2266Y-2.3535
X3.2266Y-3.1716
X3.2266Y-3.9897
X3.2266Y-4.8078
X3.2966Y-2.5185
X3.2966Y-3.3366
X3.2966Y-4.1547
X3.2966Y-4.9728
X3.3666Y-2.6185
X3.3666Y-3.4366
X3.3666Y-4.2547
X3.3666Y-5.0728
X3.7647Y-2.0985
X3.7647Y-2.9166
X3.7647Y-3.7347
X3.7647Y-4.5528
X3.8397Y-2.6185
X3.8397Y-3.4366
X3.8397Y-4.2547
X3.8397Y-5.0728
X3.9247Y-2.6185
X3.9247Y-3.4366
X3.9247Y-4.2547
X3.9247Y-5.0728
X3.9297Y-2.5335
X3.9297Y-3.3516
X3.9297Y-4.1697
X3.9297Y-4.9878
X4.0447Y-2.3535
X4.0447Y-3.1716
X4.0447Y-3.9897
X4.0447Y-4.8078
X4.1147Y-2.5185
X4.1147Y-3.3366
X4.1147Y-4.1547
X4.1147Y-4.9728
X4.1847Y-2.6185
X4.1847Y-3.4366
X4.1847Y-4.2547
X4.1847Y-5.0728
X4.5828Y-2.0985
X4.5828Y-2.9166
X4.5828Y-3.7347
X4.5828Y-4.5528
X4.6578Y-2.6185
X4.6578Y-3.4366
X4.6578Y-4.2547
X4.6578Y-5.0728
X4.7428Y-2.6185
X4.7428Y-3.4366
X4.7428Y-4.2547
X4.7428Y-5.0728
X4.7478Y-2.5335
X4.7478Y-3.3516
X4.7478Y-4.1697
X4.7478Y-4.9878
X4.8628Y-2.3535
X4.8628Y-3.1716
X4.8628Y-3.9897
X4.8628Y-4.8078
X4.9328Y-2.5185
X4.9328Y-3.3366
X4.9328Y-4.1547
X4.9328Y-4.9728
X5.0028Y-2.6185
X5.0028Y-3.4366
X5.0028Y-4.2547
X5.0028Y-5.0728
T4
X2.6185Y-3.7547
X3.4366Y-4.5728
X5.0728Y-3.0366
X4.4728Y-4.5728
X2.6185Y-4.1547
X2.6185Y-2.4185
X3.6547Y-4.0547
X3.4366Y-2.3185
X4.4728Y-3.2366
X4.2547Y-4.6728
X5.0728Y-3.2366
X2.6185Y-4.8728
X4.4728Y-2.1185
X3.4366Y-4.7728
X4.4728Y-3.1366
X4.2547Y-4.8728
X2.0185Y-4.5728
X2.0185Y-4.1547
X3.4366Y-2.5185
X2.8366Y-4.9728
X3.6547Y-4.7728
X2.6185Y-4.6728
X3.4366Y-4.9728
X3.4366Y-3.9547
X5.0728Y-3.9547
X2.0185Y-3.8547
X5.0728Y-2.4185
X2.8366Y-2.5185
X5.0728Y-4.6728
X2.8366Y-4.6728
X3.6547Y-4.8728
X3.4366Y-3.7547
X5.0728Y-3.7547
X3.4366Y-3.2366
X4.4728Y-4.8728
X2.0185Y-4.7728
X3.6547Y-2.9366
X3.6547Y-2.1185
X5.0728Y-4.8728
X2.8366Y-2.9366
X2.8366Y-3.0366
X3.4366Y-4.1547
X5.0728Y-4.1547
X5.0728Y-2.2185
X2.8366Y-2.2185
X2.6185Y-2.5185
X4.4728Y-4.7728
X4.4728Y-2.4185
X3.4366Y-3.0366
X2.0185Y-4.8728
X2.8366Y-4.1547
X3.6547Y-4.5728
X4.4728Y-4.1547
X4.2547Y-3.2366
X4.4728Y-2.3185
X4.2547Y-2.4185
X2.0185Y-2.5185
X3.6547Y-3.1366
X3.6547Y-2.3185
X4.2547Y-3.7547
X2.8366Y-3.1366
X2.8366Y-3.8547
X4.4728Y-3.8547
X4.2547Y-3.0366
X4.2547Y-2.2185
X2.6185Y-3.1366
X2.0185Y-2.2185
X2.6185Y-2.3185
X3.6547Y-3.2366
X3.6547Y-2.4185
X4.2547Y-3.9547
X2.0185Y-3.3366
X2.6185Y-2.9366
X2.6185Y-3.3366
X2.6185Y-4.0547
X4.2547Y-4.1547
X2.0185Y-3.0366
X2.0185Y-3.7547
X2.8366Y-4.5728
X5.0728Y-3.1366
X2.6185Y-3.8547
X2.6185Y-2.1185
X3.6547Y-4.1547
X3.4366Y-2.4185
X4.2547Y-4.7728
X5.0728Y-2.9366
X2.8366Y-2.1185
X2.6185Y-4.5728
X3.4366Y-4.8728
X5.0728Y-3.3366
X4.2547Y-4.5728
X2.0185Y-3.9547
X3.6547Y-3.8547
X3.4366Y-2.2185
X4.4728Y-3.0366
X4.2547Y-4.9728
X2.6185Y-4.7728
X3.4366Y-4.6728
X4.4728Y-3.3366
X5.0728Y-4.0547
X2.0185Y-4.0547
X5.0728Y-2.1185
X2.8366Y-3.7547
X2.8366Y-2.3185
X2.8366Y-4.8728
X4.4728Y-3.7547
X3.6547Y-4.9728
X2.0185Y-2.1185
X2.6185Y-4.9728
X5.0728Y-4.5728
X2.8366Y-4.7728
X2.8366Y-3.2366
X3.4366Y-3.8547
X5.0728Y-3.8547
X5.0728Y-2.3185
X2.8366Y-2.4185
X5.0728Y-4.9728
X3.6547Y-4.6728
X3.4366Y-4.0547
X4.4728Y-2.5185
X3.4366Y-3.1366
X4.4728Y-4.6728
X2.0185Y-4.9728
X5.0728Y-4.7728
X2.8366Y-3.9547
X2.0185Y-2.9366
X4.4728Y-3.9547
X4.2547Y-2.9366
X5.0728Y-2.5185
X4.2547Y-2.1185
X3.4366Y-2.9366
X2.0185Y-2.3185
X4.4728Y-4.9728
X4.2547Y-3.3366
X4.4728Y-2.2185
X3.4366Y-3.3366
X2.0185Y-4.6728
X2.8366Y-4.0547
X4.4728Y-4.0547
X4.2547Y-3.1366
X4.2547Y-2.3185
X2.0185Y-2.4185
X3.6547Y-3.3366
X3.6547Y-2.5185
X4.2547Y-4.0547
X2.8366Y-3.3366
X3.6547Y-3.7547
X4.4728Y-2.9366
X4.2547Y-2.5185
X2.6185Y-3.0366
X2.6185Y-2.2185
X3.6547Y-3.0366
X3.6547Y-2.2185
X4.2547Y-3.8547
X2.0185Y-3.2366
X2.6185Y-3.2366
X2.0185Y-3.1366
X2.6185Y-3.9547
X3.6547Y-3.9547
X3.4366Y-2.1185
T5
X3.8184Y-4.3173
X4.8304Y-3.5922
X2.1428Y-3.5922
X2.2609Y-3.5922
X3.0396Y-4.3173
X4.0123Y-3.5922
X4.1304Y-3.5922
X3.3123Y-3.5922
X4.7152Y-4.3173
X4.6365Y-3.4992
X4.8698Y-2.7741
X3.0003Y-2.681
X2.4549Y-2.681
X3.4992Y-3.8957
X4.8698Y-2.681
X4.4103Y-2.3382
X4.3173Y-3.9744
X3.4992Y-3.9744
X4.7152Y-4.4103
X2.4549Y-3.4992
X2.2609Y-3.4992
X2.1428Y-3.4992
X4.4103Y-3.9744
X4.9486Y-4.4103
X2.681Y-2.2988
X4.4103Y-3.935
X4.4103Y-3.1563
X4.4103Y-3.0776
X3.1942Y-3.4992
X3.0003Y-3.4992
X3.2336Y-2.7741
X2.9609Y-2.7741
X3.3123Y-4.4103
X4.1304Y-4.4103
X4.8698Y-3.4992
X4.6759Y-3.4992
X2.1822Y-4.4103
X3.5922Y-2.2594
X3.0396Y-3.5922
X3.4992Y-2.2988
X4.5971Y-2.7741
X2.2609Y-2.681
X2.1428Y-2.681
X4.3173Y-2.3382
X2.681Y-4.7925
X4.9092Y-4.3173
X2.4942Y-4.3173
X3.4992Y-3.1169
X2.4549Y-2.7741
X2.1822Y-2.7741
X2.7741Y-4.8319
X4.1304Y-4.3173
X4.0123Y-2.681
X3.8184Y-2.681
X2.7741Y-2.2594
X4.3173Y-3.935
X2.4155Y-4.4103
X3.079Y-2.7741
X4.3173Y-4.7925
X3.8577Y-4.4103
X3.1942Y-3.5922
X4.9092Y-2.681
X2.4549Y-4.4103
X2.7741Y-4.7138
X2.681Y-3.1169
X4.7152Y-2.7741
X4.0517Y-3.4992
X3.8577Y-3.4992
X4.0123Y-2.7741
X4.1304Y-2.7741
X2.1428Y-4.3173
X2.4549Y-3.5922
X3.5922Y-4.0138
X4.0517Y-4.4103
X2.3761Y-4.3173
X4.9486Y-2.681
X3.5922Y-2.3776
X4.0123Y-4.3173
X3.273Y-2.681
X3.079Y-2.681
X3.0003Y-4.4103
X2.681Y-4.7532
X2.7741Y-3.1563
X4.5971Y-3.5922
X4.8304Y-4.4103
X3.5922Y-4.7138
X4.3173Y-3.1563
X4.6365Y-2.681
X4.6759Y-3.5922
X3.273Y-4.3173
X4.9092Y-4.4103
X2.681Y-3.0776
X3.779Y-3.5922
X3.8971Y-3.5922
X3.5922Y-3.9744
X4.3173Y-2.2594
X3.4992Y-3.1563
X3.8577Y-2.7741
X3.8971Y-4.3173
X3.779Y-4.3173
X2.1822Y-3.5922
X4.9486Y-3.4992
X3.4992Y-3.935
X3.0003Y-4.3173
X4.0517Y-3.5922
X3.4992Y-4.7138
X4.6759Y-4.3173
X4.5971Y-3.4992
X2.9609Y-2.681
X2.7741Y-3.1957
X4.3173Y-4.7138
X4.4103Y-4.7925
X4.0123Y-4.4103
X2.4155Y-3.4992
X2.2215Y-3.4992
X2.3761Y-2.7741
X3.4992Y-4.8319
X3.079Y-4.3173
X2.7741Y-3.8957
X2.681Y-3.9744
X2.7741Y-2.3776
X3.273Y-3.4992
X3.079Y-3.4992
X2.9609Y-3.4992
X3.273Y-2.7741
X3.2336Y-4.4103
X4.3173Y-4.8319
X4.8698Y-3.5922
X4.8304Y-3.4992
X2.2215Y-4.4103
X2.681Y-3.935
X2.9609Y-3.5922
X3.4992Y-2.3382
X4.9092Y-2.7741
X4.6365Y-2.7741
X2.4155Y-2.681
X2.2215Y-2.681
X3.5922Y-4.7925
X3.5922Y-3.0776
X2.4942Y-2.7741
X2.7741Y-4.0138
X4.0911Y-2.681
X3.8971Y-2.681
X3.779Y-2.681
X4.8698Y-4.3173
X4.5971Y-4.4103
X2.7741Y-2.3382
X4.3173Y-3.0776
X4.4103Y-3.1957
X3.5922Y-3.1563
X3.079Y-4.4103
X3.0003Y-2.7741
X2.4942Y-3.4992
X3.779Y-4.4103
X4.4103Y-4.7532
X3.4992Y-4.0138
X3.8971Y-4.4103
X3.2336Y-3.5922
X4.4103Y-4.7138
X3.5922Y-3.8957
X2.4942Y-4.4103
X4.4103Y-2.2988
X2.681Y-3.1563
X4.1304Y-3.4992
X4.0123Y-3.4992
X3.8184Y-3.4992
X4.0517Y-2.7741
X2.2215Y-4.3173
X2.3761Y-3.5922
X2.4942Y-3.5922
X4.4103Y-4.0138
X4.0911Y-4.4103
X2.4549Y-4.3173
X2.2609Y-4.3173
X2.2215Y-2.7741
X3.5922Y-2.3382
X4.0911Y-4.3173
X3.2336Y-2.681
X3.0396Y-2.681
X3.0396Y-4.4103
X3.4992Y-2.3776
X4.4103Y-3.1169
X2.7741Y-3.1169
X4.9092Y-3.5922
X2.681Y-2.3382
X4.7152Y-2.681
X4.5971Y-2.681
X4.7152Y-3.5922
X3.2336Y-4.3173
X2.7741Y-4.7925
X3.8184Y-3.5922
X3.4992Y-3.1957
X3.779Y-2.7741
X3.8971Y-2.7741
X3.8577Y-4.3173
X4.5971Y-4.3173
X2.2215Y-3.5922
X4.9092Y-3.4992
X2.9609Y-4.3173
X4.0911Y-3.5922
X3.5922Y-2.2988
X3.273Y-3.5922
X3.5922Y-3.1957
X4.6365Y-4.3173
X4.3173Y-3.8957
X4.8304Y-2.7741
X2.4942Y-2.681
X4.4103Y-2.3776
X4.6759Y-4.4103
X2.3761Y-3.4992
X2.1822Y-3.4992
X4.8304Y-2.681
X2.681Y-4.8319
X2.7741Y-4.7532
X2.681Y-2.2594
X3.3123Y-4.3173
X4.3173Y-4.0138
X3.2336Y-3.4992
X3.0396Y-3.4992
X3.1942Y-2.7741
X3.3123Y-2.7741
X3.273Y-4.4103
X4.7152Y-3.4992
X4.3173Y-4.7532
X4.6365Y-3.5922
X2.2609Y-4.4103
X4.3173Y-3.1957
X3.0003Y-3.5922
X2.681Y-4.7138
X3.4992Y-2.2594
X4.4103Y-3.8957
X3.5922Y-4.7532
X4.9486Y-2.7741
X4.6759Y-2.7741
X2.3761Y-2.681
X2.1822Y-2.681
X3.5922Y-3.935
X4.3173Y-2.2988
X3.079Y-3.5922
X2.7741Y-3.935
X3.4992Y-3.0776
X2.4155Y-2.7741
X2.1428Y-2.7741
X4.3173Y-2.3776
X4.0517Y-2.681
X3.8577Y-2.681
X3.3123Y-2.681
X4.8304Y-4.3173
X2.9609Y-4.4103
X3.4992Y-4.7532
X4.6365Y-4.4103
X2.7741Y-2.2988
X3.5922Y-3.1169
X4.9486Y-4.3173
X2.3761Y-4.4103
X3.0396Y-2.7741
X3.8184Y-4.4103
X3.1942Y-4.4103
X2.7741Y-3.0776
X2.1428Y-4.4103
X2.681Y-3.1957
X4.0911Y-3.4992
X3.8971Y-3.4992
X3.779Y-3.4992
X4.0911Y-2.7741
X2.681Y-4.0138
X2.1822Y-4.3173
X2.4155Y-3.5922
X3.5922Y-4.8319
X3.4992Y-4.7925
X2.4155Y-4.3173
X2.2609Y-2.7741
X4.0517Y-4.3173
X3.1942Y-2.681
X4.9486Y-3.5922
X2.681Y-2.3776
X2.681Y-3.8957
X4.6759Y-2.681
X4.1304Y-2.681
X4.4103Y-4.8319
X3.1942Y-4.3173
X4.8698Y-4.4103
X3.8577Y-3.5922
X2.7741Y-3.9744
X4.4103Y-2.2594
X4.3173Y-3.1169
X3.8184Y-2.7741
X3.3123Y-3.4992
T0
M30
