M48
; DRILL file {KiCad 5.1.8} date Sun Nov 29 15:41:08 2020
; FORMAT={-:-/ absolute / inch / decimal}
; #@! TF.CreationDate,2020-11-29T15:41:08+01:00
; #@! TF.GenerationSoftware,Kicad,Pcbnew,5.1.8
FMAT,2
INCH
T1C0.0079
T2C0.0125
T3C0.0250
T4C0.0394
%
G90
G05
T1
X2.161Y-2.2385
X2.161Y-2.2735
X2.161Y-2.3085
X2.161Y-2.9385
X2.161Y-2.9735
X2.161Y-3.0085
X2.161Y-3.6385
X2.161Y-3.6735
X2.161Y-3.7085
X2.161Y-4.3385
X2.161Y-4.3735
X2.161Y-4.4085
X2.1985Y-2.2385
X2.1985Y-2.2735
X2.1985Y-2.3085
X2.1985Y-2.9385
X2.1985Y-2.9735
X2.1985Y-3.0085
X2.1985Y-3.6385
X2.1985Y-3.6735
X2.1985Y-3.7085
X2.1985Y-4.3385
X2.1985Y-4.3735
X2.1985Y-4.4085
X2.2035Y-2.1185
X2.2035Y-2.8185
X2.2035Y-3.5185
X2.2035Y-4.2185
X2.2535Y-2.2385
X2.2535Y-2.3085
X2.2535Y-2.9385
X2.2535Y-3.0085
X2.2535Y-3.6385
X2.2535Y-3.7085
X2.2535Y-4.3385
X2.2535Y-4.4085
X2.3085Y-2.2385
X2.3085Y-2.2735
X2.3085Y-2.3085
X2.3085Y-2.9385
X2.3085Y-2.9735
X2.3085Y-3.0085
X2.3085Y-3.6385
X2.3085Y-3.6735
X2.3085Y-3.7085
X2.3085Y-4.3385
X2.3085Y-4.3735
X2.3085Y-4.4085
X2.346Y-2.2385
X2.346Y-2.2735
X2.346Y-2.3085
X2.346Y-2.9385
X2.346Y-2.9735
X2.346Y-3.0085
X2.346Y-3.6385
X2.346Y-3.6735
X2.346Y-3.7085
X2.346Y-4.3385
X2.346Y-4.3735
X2.346Y-4.4085
X2.4235Y-2.5085
X2.4235Y-3.2085
X2.4235Y-3.9085
X2.4235Y-4.6085
X2.861Y-2.2385
X2.861Y-2.2735
X2.861Y-2.3085
X2.861Y-2.9385
X2.861Y-2.9735
X2.861Y-3.0085
X2.861Y-3.6385
X2.861Y-3.6735
X2.861Y-3.7085
X2.861Y-4.3385
X2.861Y-4.3735
X2.861Y-4.4085
X2.8985Y-2.2385
X2.8985Y-2.2735
X2.8985Y-2.3085
X2.8985Y-2.9385
X2.8985Y-2.9735
X2.8985Y-3.0085
X2.8985Y-3.6385
X2.8985Y-3.6735
X2.8985Y-3.7085
X2.8985Y-4.3385
X2.8985Y-4.3735
X2.8985Y-4.4085
X2.9035Y-2.1185
X2.9035Y-2.8185
X2.9035Y-3.5185
X2.9035Y-4.2185
X2.9535Y-2.2385
X2.9535Y-2.3085
X2.9535Y-2.9385
X2.9535Y-3.0085
X2.9535Y-3.6385
X2.9535Y-3.7085
X2.9535Y-4.3385
X2.9535Y-4.4085
X3.0085Y-2.2385
X3.0085Y-2.2735
X3.0085Y-2.3085
X3.0085Y-2.9385
X3.0085Y-2.9735
X3.0085Y-3.0085
X3.0085Y-3.6385
X3.0085Y-3.6735
X3.0085Y-3.7085
X3.0085Y-4.3385
X3.0085Y-4.3735
X3.0085Y-4.4085
X3.046Y-2.2385
X3.046Y-2.2735
X3.046Y-2.3085
X3.046Y-2.9385
X3.046Y-2.9735
X3.046Y-3.0085
X3.046Y-3.6385
X3.046Y-3.6735
X3.046Y-3.7085
X3.046Y-4.3385
X3.046Y-4.3735
X3.046Y-4.4085
X3.1235Y-2.5085
X3.1235Y-3.2085
X3.1235Y-3.9085
X3.1235Y-4.6085
X3.561Y-2.2385
X3.561Y-2.2735
X3.561Y-2.3085
X3.561Y-2.9385
X3.561Y-2.9735
X3.561Y-3.0085
X3.561Y-3.6385
X3.561Y-3.6735
X3.561Y-3.7085
X3.561Y-4.3385
X3.561Y-4.3735
X3.561Y-4.4085
X3.5985Y-2.2385
X3.5985Y-2.2735
X3.5985Y-2.3085
X3.5985Y-2.9385
X3.5985Y-2.9735
X3.5985Y-3.0085
X3.5985Y-3.6385
X3.5985Y-3.6735
X3.5985Y-3.7085
X3.5985Y-4.3385
X3.5985Y-4.3735
X3.5985Y-4.4085
X3.6035Y-2.1185
X3.6035Y-2.8185
X3.6035Y-3.5185
X3.6035Y-4.2185
X3.6535Y-2.2385
X3.6535Y-2.3085
X3.6535Y-2.9385
X3.6535Y-3.0085
X3.6535Y-3.6385
X3.6535Y-3.7085
X3.6535Y-4.3385
X3.6535Y-4.4085
X3.7085Y-2.2385
X3.7085Y-2.2735
X3.7085Y-2.3085
X3.7085Y-2.9385
X3.7085Y-2.9735
X3.7085Y-3.0085
X3.7085Y-3.6385
X3.7085Y-3.6735
X3.7085Y-3.7085
X3.7085Y-4.3385
X3.7085Y-4.3735
X3.7085Y-4.4085
X3.746Y-2.2385
X3.746Y-2.2735
X3.746Y-2.3085
X3.746Y-2.9385
X3.746Y-2.9735
X3.746Y-3.0085
X3.746Y-3.6385
X3.746Y-3.6735
X3.746Y-3.7085
X3.746Y-4.3385
X3.746Y-4.3735
X3.746Y-4.4085
X3.8235Y-2.5085
X3.8235Y-3.2085
X3.8235Y-3.9085
X3.8235Y-4.6085
X4.261Y-2.2385
X4.261Y-2.2735
X4.261Y-2.3085
X4.261Y-2.9385
X4.261Y-2.9735
X4.261Y-3.0085
X4.261Y-3.6385
X4.261Y-3.6735
X4.261Y-3.7085
X4.261Y-4.3385
X4.261Y-4.3735
X4.261Y-4.4085
X4.2985Y-2.2385
X4.2985Y-2.2735
X4.2985Y-2.3085
X4.2985Y-2.9385
X4.2985Y-2.9735
X4.2985Y-3.0085
X4.2985Y-3.6385
X4.2985Y-3.6735
X4.2985Y-3.7085
X4.2985Y-4.3385
X4.2985Y-4.3735
X4.2985Y-4.4085
X4.3035Y-2.1185
X4.3035Y-2.8185
X4.3035Y-3.5185
X4.3035Y-4.2185
X4.3535Y-2.2385
X4.3535Y-2.3085
X4.3535Y-2.9385
X4.3535Y-3.0085
X4.3535Y-3.6385
X4.3535Y-3.7085
X4.3535Y-4.3385
X4.3535Y-4.4085
X4.4085Y-2.2385
X4.4085Y-2.2735
X4.4085Y-2.3085
X4.4085Y-2.9385
X4.4085Y-2.9735
X4.4085Y-3.0085
X4.4085Y-3.6385
X4.4085Y-3.6735
X4.4085Y-3.7085
X4.4085Y-4.3385
X4.4085Y-4.3735
X4.4085Y-4.4085
X4.446Y-2.2385
X4.446Y-2.2735
X4.446Y-2.3085
X4.446Y-2.9385
X4.446Y-2.9735
X4.446Y-3.0085
X4.446Y-3.6385
X4.446Y-3.6735
X4.446Y-3.7085
X4.446Y-4.3385
X4.446Y-4.3735
X4.446Y-4.4085
X4.5235Y-2.5085
X4.5235Y-3.2085
X4.5235Y-3.9085
X4.5235Y-4.6085
T2
X2.0835Y-2.6135
X2.0835Y-3.3135
X2.0835Y-4.0135
X2.0835Y-4.7135
X2.0935Y-2.1335
X2.0935Y-2.8335
X2.0935Y-3.5335
X2.0935Y-4.2335
X2.0985Y-2.2685
X2.0985Y-2.9685
X2.0985Y-3.6685
X2.0985Y-4.3685
X2.1135Y-2.5835
X2.1135Y-3.2835
X2.1135Y-3.9835
X2.1135Y-4.6835
X2.1385Y-2.4335
X2.1385Y-3.1335
X2.1385Y-3.8335
X2.1385Y-4.5335
X2.1785Y-2.5785
X2.1785Y-3.2785
X2.1785Y-3.9785
X2.1785Y-4.6785
X2.251Y-1.9985
X2.251Y-2.6985
X2.251Y-3.3985
X2.251Y-4.0985
X2.3985Y-2.0485
X2.3985Y-2.7485
X2.3985Y-3.4485
X2.3985Y-4.1485
X2.4085Y-2.011
X2.4085Y-2.711
X2.4085Y-3.411
X2.4085Y-4.111
X2.4235Y-2.2685
X2.4235Y-2.9685
X2.4235Y-3.6685
X2.4235Y-4.3685
X2.5535Y-2.076
X2.5535Y-2.776
X2.5535Y-3.476
X2.5535Y-4.176
X2.5835Y-2.0535
X2.5835Y-2.7535
X2.5835Y-3.4535
X2.5835Y-4.1535
X2.7835Y-2.6135
X2.7835Y-3.3135
X2.7835Y-4.0135
X2.7835Y-4.7135
X2.7935Y-2.1335
X2.7935Y-2.8335
X2.7935Y-3.5335
X2.7935Y-4.2335
X2.7985Y-2.2685
X2.7985Y-2.9685
X2.7985Y-3.6685
X2.7985Y-4.3685
X2.8135Y-2.5835
X2.8135Y-3.2835
X2.8135Y-3.9835
X2.8135Y-4.6835
X2.8385Y-2.4335
X2.8385Y-3.1335
X2.8385Y-3.8335
X2.8385Y-4.5335
X2.8785Y-2.5785
X2.8785Y-3.2785
X2.8785Y-3.9785
X2.8785Y-4.6785
X2.951Y-1.9985
X2.951Y-2.6985
X2.951Y-3.3985
X2.951Y-4.0985
X3.0985Y-2.0485
X3.0985Y-2.7485
X3.0985Y-3.4485
X3.0985Y-4.1485
X3.1085Y-2.011
X3.1085Y-2.711
X3.1085Y-3.411
X3.1085Y-4.111
X3.1235Y-2.2685
X3.1235Y-2.9685
X3.1235Y-3.6685
X3.1235Y-4.3685
X3.2535Y-2.076
X3.2535Y-2.776
X3.2535Y-3.476
X3.2535Y-4.176
X3.2835Y-2.0535
X3.2835Y-2.7535
X3.2835Y-3.4535
X3.2835Y-4.1535
X3.4835Y-2.6135
X3.4835Y-3.3135
X3.4835Y-4.0135
X3.4835Y-4.7135
X3.4935Y-2.1335
X3.4935Y-2.8335
X3.4935Y-3.5335
X3.4935Y-4.2335
X3.4985Y-2.2685
X3.4985Y-2.9685
X3.4985Y-3.6685
X3.4985Y-4.3685
X3.5135Y-2.5835
X3.5135Y-3.2835
X3.5135Y-3.9835
X3.5135Y-4.6835
X3.5385Y-2.4335
X3.5385Y-3.1335
X3.5385Y-3.8335
X3.5385Y-4.5335
X3.5785Y-2.5785
X3.5785Y-3.2785
X3.5785Y-3.9785
X3.5785Y-4.6785
X3.651Y-1.9985
X3.651Y-2.6985
X3.651Y-3.3985
X3.651Y-4.0985
X3.7985Y-2.0485
X3.7985Y-2.7485
X3.7985Y-3.4485
X3.7985Y-4.1485
X3.8085Y-2.011
X3.8085Y-2.711
X3.8085Y-3.411
X3.8085Y-4.111
X3.8235Y-2.2685
X3.8235Y-2.9685
X3.8235Y-3.6685
X3.8235Y-4.3685
X3.9535Y-2.076
X3.9535Y-2.776
X3.9535Y-3.476
X3.9535Y-4.176
X3.9835Y-2.0535
X3.9835Y-2.7535
X3.9835Y-3.4535
X3.9835Y-4.1535
X4.1835Y-2.6135
X4.1835Y-3.3135
X4.1835Y-4.0135
X4.1835Y-4.7135
X4.1935Y-2.1335
X4.1935Y-2.8335
X4.1935Y-3.5335
X4.1935Y-4.2335
X4.1985Y-2.2685
X4.1985Y-2.9685
X4.1985Y-3.6685
X4.1985Y-4.3685
X4.2135Y-2.5835
X4.2135Y-3.2835
X4.2135Y-3.9835
X4.2135Y-4.6835
X4.2385Y-2.4335
X4.2385Y-3.1335
X4.2385Y-3.8335
X4.2385Y-4.5335
X4.2785Y-2.5785
X4.2785Y-3.2785
X4.2785Y-3.9785
X4.2785Y-4.6785
X4.351Y-1.9985
X4.351Y-2.6985
X4.351Y-3.3985
X4.351Y-4.0985
X4.4985Y-2.0485
X4.4985Y-2.7485
X4.4985Y-3.4485
X4.4985Y-4.1485
X4.5085Y-2.011
X4.5085Y-2.711
X4.5085Y-3.411
X4.5085Y-4.111
X4.5235Y-2.2685
X4.5235Y-2.9685
X4.5235Y-3.6685
X4.5235Y-4.3685
X4.6535Y-2.076
X4.6535Y-2.776
X4.6535Y-3.476
X4.6535Y-4.176
X4.6835Y-2.0535
X4.6835Y-2.7535
X4.6835Y-3.4535
X4.6835Y-4.1535
T3
X2.1285Y-2.0985
X2.1285Y-2.7985
X2.1285Y-3.4985
X2.1285Y-4.1985
X2.2035Y-2.6185
X2.2035Y-3.3185
X2.2035Y-4.0185
X2.2035Y-4.7185
X2.2885Y-2.6185
X2.2885Y-3.3185
X2.2885Y-4.0185
X2.2885Y-4.7185
X2.2935Y-2.5335
X2.2935Y-3.2335
X2.2935Y-3.9335
X2.2935Y-4.6335
X2.4085Y-2.3535
X2.4085Y-3.0535
X2.4085Y-3.7535
X2.4085Y-4.4535
X2.4785Y-2.5185
X2.4785Y-3.2185
X2.4785Y-3.9185
X2.4785Y-4.6185
X2.5485Y-2.6185
X2.5485Y-3.3185
X2.5485Y-4.0185
X2.5485Y-4.7185
X2.8285Y-2.0985
X2.8285Y-2.7985
X2.8285Y-3.4985
X2.8285Y-4.1985
X2.9035Y-2.6185
X2.9035Y-3.3185
X2.9035Y-4.0185
X2.9035Y-4.7185
X2.9885Y-2.6185
X2.9885Y-3.3185
X2.9885Y-4.0185
X2.9885Y-4.7185
X2.9935Y-2.5335
X2.9935Y-3.2335
X2.9935Y-3.9335
X2.9935Y-4.6335
X3.1085Y-2.3535
X3.1085Y-3.0535
X3.1085Y-3.7535
X3.1085Y-4.4535
X3.1785Y-2.5185
X3.1785Y-3.2185
X3.1785Y-3.9185
X3.1785Y-4.6185
X3.2485Y-2.6185
X3.2485Y-3.3185
X3.2485Y-4.0185
X3.2485Y-4.7185
X3.5285Y-2.0985
X3.5285Y-2.7985
X3.5285Y-3.4985
X3.5285Y-4.1985
X3.6035Y-2.6185
X3.6035Y-3.3185
X3.6035Y-4.0185
X3.6035Y-4.7185
X3.6885Y-2.6185
X3.6885Y-3.3185
X3.6885Y-4.0185
X3.6885Y-4.7185
X3.6935Y-2.5335
X3.6935Y-3.2335
X3.6935Y-3.9335
X3.6935Y-4.6335
X3.8085Y-2.3535
X3.8085Y-3.0535
X3.8085Y-3.7535
X3.8085Y-4.4535
X3.8785Y-2.5185
X3.8785Y-3.2185
X3.8785Y-3.9185
X3.8785Y-4.6185
X3.9485Y-2.6185
X3.9485Y-3.3185
X3.9485Y-4.0185
X3.9485Y-4.7185
X4.2285Y-2.0985
X4.2285Y-2.7985
X4.2285Y-3.4985
X4.2285Y-4.1985
X4.3035Y-2.6185
X4.3035Y-3.3185
X4.3035Y-4.0185
X4.3035Y-4.7185
X4.3885Y-2.6185
X4.3885Y-3.3185
X4.3885Y-4.0185
X4.3885Y-4.7185
X4.3935Y-2.5335
X4.3935Y-3.2335
X4.3935Y-3.9335
X4.3935Y-4.6335
X4.5085Y-2.3535
X4.5085Y-3.0535
X4.5085Y-3.7535
X4.5085Y-4.4535
X4.5785Y-2.5185
X4.5785Y-3.2185
X4.5785Y-3.9185
X4.5785Y-4.6185
X4.6485Y-2.6185
X4.6485Y-3.3185
X4.6485Y-4.0185
X4.6485Y-4.7185
T4
X4.7185Y-4.5185
X4.0185Y-4.4185
X4.1185Y-2.1185
X4.0185Y-3.1185
X2.0185Y-4.5185
X2.0185Y-3.2185
X3.4185Y-2.2185
X3.4185Y-3.0185
X4.0185Y-4.6185
X3.3185Y-2.1185
X4.0185Y-2.9185
X2.0185Y-2.1185
X2.0185Y-2.9185
X3.4185Y-3.9185
X4.1185Y-3.2185
X3.4185Y-3.1185
X4.0185Y-3.5185
X3.3185Y-2.3185
X3.3185Y-3.5185
X4.7185Y-3.2185
X4.1185Y-4.6185
X4.7185Y-4.3185
X4.7185Y-2.2185
X2.6185Y-2.4185
X3.4185Y-3.6185
X4.1185Y-2.9185
X4.0185Y-3.7185
X4.7185Y-2.4185
X2.0185Y-2.3185
X3.4185Y-4.6185
X3.3185Y-3.7185
X2.7185Y-4.6185
X4.1185Y-2.3185
X3.3185Y-4.2185
X2.6185Y-2.2185
X3.4185Y-2.1185
X4.1185Y-3.5185
X4.0185Y-3.9185
X2.0185Y-2.4185
X2.7185Y-2.8185
X3.3185Y-3.9185
X4.7185Y-4.6185
X2.7185Y-4.3185
X4.1185Y-2.4185
X3.3185Y-4.4185
X4.7185Y-2.8185
X4.7185Y-3.8185
X2.7185Y-3.9185
X2.7185Y-2.5185
X3.3185Y-4.6185
X4.1185Y-3.7185
X2.7185Y-2.2185
X2.6185Y-3.5185
X2.6185Y-3.1185
X3.3185Y-2.5185
X4.7185Y-3.0185
X4.7185Y-3.6185
X2.0185Y-2.8185
X2.7185Y-3.6185
X2.6185Y-3.9185
X2.6185Y-4.2185
X3.3185Y-2.9185
X4.1185Y-3.8185
X4.0185Y-2.4185
X2.6185Y-4.6185
X2.6185Y-3.7185
X2.7185Y-3.1185
X2.6185Y-2.9185
X3.4185Y-4.3185
X3.3185Y-3.1185
X3.4185Y-2.3185
X2.0185Y-3.9185
X2.6185Y-4.4185
X3.4185Y-3.5185
X4.1185Y-2.8185
X2.7185Y-3.0185
X2.7185Y-4.2185
X4.0185Y-2.2185
X4.0185Y-4.5185
X4.0185Y-2.8185
X2.0185Y-4.6185
X2.0185Y-3.0185
X3.4185Y-2.4185
X2.0185Y-3.6185
X4.1185Y-4.5185
X4.0185Y-4.3185
X4.0185Y-3.0185
X2.0185Y-4.3185
X2.0185Y-3.1185
X3.4185Y-3.2185
X3.3185Y-2.4185
X4.0185Y-3.2185
X4.7185Y-2.3185
X4.7185Y-4.2185
X2.6185Y-2.1185
X3.4185Y-4.2185
X3.4185Y-3.8185
X4.1185Y-3.1185
X3.4185Y-2.9185
X4.0185Y-3.8185
X4.1185Y-4.4185
X4.7185Y-2.1185
X2.7185Y-2.1185
X3.3185Y-2.2185
X3.3185Y-3.8185
X4.1185Y-3.0185
X4.7185Y-2.5185
X2.7185Y-3.5185
X2.6185Y-2.3185
X4.0185Y-3.6185
X2.0185Y-2.5185
X3.4185Y-4.5185
X3.3185Y-3.6185
X2.7185Y-4.5185
X4.1185Y-2.5185
X3.3185Y-4.5185
X2.6185Y-2.5185
X3.4185Y-4.4185
X3.4185Y-3.7185
X4.7185Y-4.4185
X2.0185Y-2.2185
X4.7185Y-3.5185
X2.7185Y-3.7185
X4.1185Y-2.2185
X3.3185Y-4.3185
X4.7185Y-3.9185
X2.0185Y-3.5185
X4.1185Y-4.3185
X2.7185Y-2.4185
X4.7185Y-3.1185
X2.0185Y-4.2185
X4.7185Y-3.7185
X2.7185Y-3.8185
X3.3185Y-3.0185
X2.7185Y-4.4185
X4.1185Y-3.9185
X4.0185Y-2.1185
X2.6185Y-4.3185
X2.6185Y-3.8185
X2.7185Y-3.2185
X2.6185Y-3.0185
X2.7185Y-2.3185
X4.7185Y-2.9185
X3.3185Y-2.8185
X4.0185Y-2.5185
X2.0185Y-3.7185
X2.6185Y-4.5185
X3.4185Y-2.8185
X3.3185Y-3.2185
X2.6185Y-2.8185
X4.1185Y-3.6185
X4.0185Y-2.3185
X4.0185Y-4.2185
X2.0185Y-4.4185
X2.6185Y-3.6185
X2.7185Y-2.9185
X2.6185Y-3.2185
X4.1185Y-4.2185
X3.4185Y-2.5185
X2.0185Y-3.8185
T0
M30
