%TF.GenerationSoftware,KiCad,Pcbnew,5.1.8*%
%TF.CreationDate,2020-11-29T15:41:03+01:00*%
%TF.ProjectId,panel,70616e65-6c2e-46b6-9963-61645f706362,rev?*%
%TF.SameCoordinates,Original*%
%TF.FileFunction,Copper,L3,Inr*%
%TF.FilePolarity,Positive*%
%FSLAX46Y46*%
G04 Gerber Fmt 4.6, Leading zero omitted, Abs format (unit mm)*
G04 Created by KiCad (PCBNEW 5.1.8) date 2020-11-29 15:41:03*
%MOMM*%
%LPD*%
G01*
G04 APERTURE LIST*
%TA.AperFunction,ViaPad*%
%ADD10C,1.270000*%
%TD*%
%TA.AperFunction,ViaPad*%
%ADD11C,0.635000*%
%TD*%
%TA.AperFunction,ViaPad*%
%ADD12C,0.450000*%
%TD*%
%TA.AperFunction,Conductor*%
%ADD13C,1.270000*%
%TD*%
%TA.AperFunction,Conductor*%
%ADD14C,0.635000*%
%TD*%
%TA.AperFunction,Conductor*%
%ADD15C,0.250000*%
%TD*%
%TA.AperFunction,Conductor*%
%ADD16C,0.317500*%
%TD*%
G04 APERTURE END LIST*
%TO.N,Board_16-/-BATT_RAW*%
%TO.C,TP1*%
%TA.AperFunction,ComponentPad*%
G36*
G01*
X103610016Y-107650016D02*
X103610016Y-106650016D01*
G75*
G02*
X104110016Y-106150016I500000J0D01*
G01*
X105110016Y-106150016D01*
G75*
G02*
X105610016Y-106650016I0J-500000D01*
G01*
X105610016Y-107650016D01*
G75*
G02*
X105110016Y-108150016I-500000J0D01*
G01*
X104110016Y-108150016D01*
G75*
G02*
X103610016Y-107650016I0J500000D01*
G01*
G37*
%TD.AperFunction*%
%TD*%
%TO.N,Board_16-/+BATT*%
%TO.C,TP2*%
%TA.AperFunction,ComponentPad*%
G36*
G01*
X103610016Y-110190016D02*
X103610016Y-109190016D01*
G75*
G02*
X104110016Y-108690016I500000J0D01*
G01*
X105110016Y-108690016D01*
G75*
G02*
X105610016Y-109190016I0J-500000D01*
G01*
X105610016Y-110190016D01*
G75*
G02*
X105110016Y-110690016I-500000J0D01*
G01*
X104110016Y-110690016D01*
G75*
G02*
X103610016Y-110190016I0J500000D01*
G01*
G37*
%TD.AperFunction*%
%TD*%
%TO.N,Board_16-GND*%
%TO.C,TP3*%
%TA.AperFunction,ComponentPad*%
G36*
G01*
X103610016Y-115270016D02*
X103610016Y-114270016D01*
G75*
G02*
X104110016Y-113770016I500000J0D01*
G01*
X105110016Y-113770016D01*
G75*
G02*
X105610016Y-114270016I0J-500000D01*
G01*
X105610016Y-115270016D01*
G75*
G02*
X105110016Y-115770016I-500000J0D01*
G01*
X104110016Y-115770016D01*
G75*
G02*
X103610016Y-115270016I0J500000D01*
G01*
G37*
%TD.AperFunction*%
%TD*%
%TO.N,Board_16-/+CHARGE*%
%TO.C,TP4*%
%TA.AperFunction,ComponentPad*%
G36*
G01*
X103610016Y-117810016D02*
X103610016Y-116810016D01*
G75*
G02*
X104110016Y-116310016I500000J0D01*
G01*
X105110016Y-116310016D01*
G75*
G02*
X105610016Y-116810016I0J-500000D01*
G01*
X105610016Y-117810016D01*
G75*
G02*
X105110016Y-118310016I-500000J0D01*
G01*
X104110016Y-118310016D01*
G75*
G02*
X103610016Y-117810016I0J500000D01*
G01*
G37*
%TD.AperFunction*%
%TD*%
%TO.N,Board_16-/3v3_EN*%
%TO.C,TP5*%
%TA.AperFunction,ComponentPad*%
G36*
G01*
X103610016Y-112730016D02*
X103610016Y-111730016D01*
G75*
G02*
X104110016Y-111230016I500000J0D01*
G01*
X105110016Y-111230016D01*
G75*
G02*
X105610016Y-111730016I0J-500000D01*
G01*
X105610016Y-112730016D01*
G75*
G02*
X105110016Y-113230016I-500000J0D01*
G01*
X104110016Y-113230016D01*
G75*
G02*
X103610016Y-112730016I0J500000D01*
G01*
G37*
%TD.AperFunction*%
%TD*%
%TO.N,Board_16-/VMAX*%
%TO.C,TP6*%
%TA.AperFunction,ComponentPad*%
G36*
G01*
X118850016Y-117810016D02*
X118850016Y-116810016D01*
G75*
G02*
X119350016Y-116310016I500000J0D01*
G01*
X120350016Y-116310016D01*
G75*
G02*
X120850016Y-116810016I0J-500000D01*
G01*
X120850016Y-117810016D01*
G75*
G02*
X120350016Y-118310016I-500000J0D01*
G01*
X119350016Y-118310016D01*
G75*
G02*
X118850016Y-117810016I0J500000D01*
G01*
G37*
%TD.AperFunction*%
%TD*%
%TO.N,Board_16-/+BATT*%
%TO.C,TP7*%
%TA.AperFunction,ComponentPad*%
G36*
G01*
X118850016Y-110190016D02*
X118850016Y-109190016D01*
G75*
G02*
X119350016Y-108690016I500000J0D01*
G01*
X120350016Y-108690016D01*
G75*
G02*
X120850016Y-109190016I0J-500000D01*
G01*
X120850016Y-110190016D01*
G75*
G02*
X120350016Y-110690016I-500000J0D01*
G01*
X119350016Y-110690016D01*
G75*
G02*
X118850016Y-110190016I0J500000D01*
G01*
G37*
%TD.AperFunction*%
%TD*%
%TO.N,Board_16-/+3v3*%
%TO.C,TP8*%
%TA.AperFunction,ComponentPad*%
G36*
G01*
X118850016Y-112730016D02*
X118850016Y-111730016D01*
G75*
G02*
X119350016Y-111230016I500000J0D01*
G01*
X120350016Y-111230016D01*
G75*
G02*
X120850016Y-111730016I0J-500000D01*
G01*
X120850016Y-112730016D01*
G75*
G02*
X120350016Y-113230016I-500000J0D01*
G01*
X119350016Y-113230016D01*
G75*
G02*
X118850016Y-112730016I0J500000D01*
G01*
G37*
%TD.AperFunction*%
%TD*%
%TO.N,Board_16-/STAT*%
%TO.C,TP9*%
%TA.AperFunction,ComponentPad*%
G36*
G01*
X118850016Y-115270016D02*
X118850016Y-114270016D01*
G75*
G02*
X119350016Y-113770016I500000J0D01*
G01*
X120350016Y-113770016D01*
G75*
G02*
X120850016Y-114270016I0J-500000D01*
G01*
X120850016Y-115270016D01*
G75*
G02*
X120350016Y-115770016I-500000J0D01*
G01*
X119350016Y-115770016D01*
G75*
G02*
X118850016Y-115270016I0J500000D01*
G01*
G37*
%TD.AperFunction*%
%TD*%
%TO.N,Board_16-GND*%
%TO.C,TP10*%
%TA.AperFunction,ComponentPad*%
G36*
G01*
X118850016Y-107650016D02*
X118850016Y-106650016D01*
G75*
G02*
X119350016Y-106150016I500000J0D01*
G01*
X120350016Y-106150016D01*
G75*
G02*
X120850016Y-106650016I0J-500000D01*
G01*
X120850016Y-107650016D01*
G75*
G02*
X120350016Y-108150016I-500000J0D01*
G01*
X119350016Y-108150016D01*
G75*
G02*
X118850016Y-107650016I0J500000D01*
G01*
G37*
%TD.AperFunction*%
%TD*%
%TO.N,Board_15-/-BATT_RAW*%
%TO.C,TP1*%
%TA.AperFunction,ComponentPad*%
G36*
G01*
X85830011Y-107650016D02*
X85830011Y-106650016D01*
G75*
G02*
X86330011Y-106150016I500000J0D01*
G01*
X87330011Y-106150016D01*
G75*
G02*
X87830011Y-106650016I0J-500000D01*
G01*
X87830011Y-107650016D01*
G75*
G02*
X87330011Y-108150016I-500000J0D01*
G01*
X86330011Y-108150016D01*
G75*
G02*
X85830011Y-107650016I0J500000D01*
G01*
G37*
%TD.AperFunction*%
%TD*%
%TO.N,Board_15-/+BATT*%
%TO.C,TP2*%
%TA.AperFunction,ComponentPad*%
G36*
G01*
X85830011Y-110190016D02*
X85830011Y-109190016D01*
G75*
G02*
X86330011Y-108690016I500000J0D01*
G01*
X87330011Y-108690016D01*
G75*
G02*
X87830011Y-109190016I0J-500000D01*
G01*
X87830011Y-110190016D01*
G75*
G02*
X87330011Y-110690016I-500000J0D01*
G01*
X86330011Y-110690016D01*
G75*
G02*
X85830011Y-110190016I0J500000D01*
G01*
G37*
%TD.AperFunction*%
%TD*%
%TO.N,Board_15-GND*%
%TO.C,TP3*%
%TA.AperFunction,ComponentPad*%
G36*
G01*
X85830011Y-115270016D02*
X85830011Y-114270016D01*
G75*
G02*
X86330011Y-113770016I500000J0D01*
G01*
X87330011Y-113770016D01*
G75*
G02*
X87830011Y-114270016I0J-500000D01*
G01*
X87830011Y-115270016D01*
G75*
G02*
X87330011Y-115770016I-500000J0D01*
G01*
X86330011Y-115770016D01*
G75*
G02*
X85830011Y-115270016I0J500000D01*
G01*
G37*
%TD.AperFunction*%
%TD*%
%TO.N,Board_15-/+CHARGE*%
%TO.C,TP4*%
%TA.AperFunction,ComponentPad*%
G36*
G01*
X85830011Y-117810016D02*
X85830011Y-116810016D01*
G75*
G02*
X86330011Y-116310016I500000J0D01*
G01*
X87330011Y-116310016D01*
G75*
G02*
X87830011Y-116810016I0J-500000D01*
G01*
X87830011Y-117810016D01*
G75*
G02*
X87330011Y-118310016I-500000J0D01*
G01*
X86330011Y-118310016D01*
G75*
G02*
X85830011Y-117810016I0J500000D01*
G01*
G37*
%TD.AperFunction*%
%TD*%
%TO.N,Board_15-/3v3_EN*%
%TO.C,TP5*%
%TA.AperFunction,ComponentPad*%
G36*
G01*
X85830011Y-112730016D02*
X85830011Y-111730016D01*
G75*
G02*
X86330011Y-111230016I500000J0D01*
G01*
X87330011Y-111230016D01*
G75*
G02*
X87830011Y-111730016I0J-500000D01*
G01*
X87830011Y-112730016D01*
G75*
G02*
X87330011Y-113230016I-500000J0D01*
G01*
X86330011Y-113230016D01*
G75*
G02*
X85830011Y-112730016I0J500000D01*
G01*
G37*
%TD.AperFunction*%
%TD*%
%TO.N,Board_15-/VMAX*%
%TO.C,TP6*%
%TA.AperFunction,ComponentPad*%
G36*
G01*
X101070011Y-117810016D02*
X101070011Y-116810016D01*
G75*
G02*
X101570011Y-116310016I500000J0D01*
G01*
X102570011Y-116310016D01*
G75*
G02*
X103070011Y-116810016I0J-500000D01*
G01*
X103070011Y-117810016D01*
G75*
G02*
X102570011Y-118310016I-500000J0D01*
G01*
X101570011Y-118310016D01*
G75*
G02*
X101070011Y-117810016I0J500000D01*
G01*
G37*
%TD.AperFunction*%
%TD*%
%TO.N,Board_15-/+BATT*%
%TO.C,TP7*%
%TA.AperFunction,ComponentPad*%
G36*
G01*
X101070011Y-110190016D02*
X101070011Y-109190016D01*
G75*
G02*
X101570011Y-108690016I500000J0D01*
G01*
X102570011Y-108690016D01*
G75*
G02*
X103070011Y-109190016I0J-500000D01*
G01*
X103070011Y-110190016D01*
G75*
G02*
X102570011Y-110690016I-500000J0D01*
G01*
X101570011Y-110690016D01*
G75*
G02*
X101070011Y-110190016I0J500000D01*
G01*
G37*
%TD.AperFunction*%
%TD*%
%TO.N,Board_15-/+3v3*%
%TO.C,TP8*%
%TA.AperFunction,ComponentPad*%
G36*
G01*
X101070011Y-112730016D02*
X101070011Y-111730016D01*
G75*
G02*
X101570011Y-111230016I500000J0D01*
G01*
X102570011Y-111230016D01*
G75*
G02*
X103070011Y-111730016I0J-500000D01*
G01*
X103070011Y-112730016D01*
G75*
G02*
X102570011Y-113230016I-500000J0D01*
G01*
X101570011Y-113230016D01*
G75*
G02*
X101070011Y-112730016I0J500000D01*
G01*
G37*
%TD.AperFunction*%
%TD*%
%TO.N,Board_15-/STAT*%
%TO.C,TP9*%
%TA.AperFunction,ComponentPad*%
G36*
G01*
X101070011Y-115270016D02*
X101070011Y-114270016D01*
G75*
G02*
X101570011Y-113770016I500000J0D01*
G01*
X102570011Y-113770016D01*
G75*
G02*
X103070011Y-114270016I0J-500000D01*
G01*
X103070011Y-115270016D01*
G75*
G02*
X102570011Y-115770016I-500000J0D01*
G01*
X101570011Y-115770016D01*
G75*
G02*
X101070011Y-115270016I0J500000D01*
G01*
G37*
%TD.AperFunction*%
%TD*%
%TO.N,Board_15-GND*%
%TO.C,TP10*%
%TA.AperFunction,ComponentPad*%
G36*
G01*
X101070011Y-107650016D02*
X101070011Y-106650016D01*
G75*
G02*
X101570011Y-106150016I500000J0D01*
G01*
X102570011Y-106150016D01*
G75*
G02*
X103070011Y-106650016I0J-500000D01*
G01*
X103070011Y-107650016D01*
G75*
G02*
X102570011Y-108150016I-500000J0D01*
G01*
X101570011Y-108150016D01*
G75*
G02*
X101070011Y-107650016I0J500000D01*
G01*
G37*
%TD.AperFunction*%
%TD*%
%TO.N,Board_14-/-BATT_RAW*%
%TO.C,TP1*%
%TA.AperFunction,ComponentPad*%
G36*
G01*
X68050006Y-107650016D02*
X68050006Y-106650016D01*
G75*
G02*
X68550006Y-106150016I500000J0D01*
G01*
X69550006Y-106150016D01*
G75*
G02*
X70050006Y-106650016I0J-500000D01*
G01*
X70050006Y-107650016D01*
G75*
G02*
X69550006Y-108150016I-500000J0D01*
G01*
X68550006Y-108150016D01*
G75*
G02*
X68050006Y-107650016I0J500000D01*
G01*
G37*
%TD.AperFunction*%
%TD*%
%TO.N,Board_14-/+BATT*%
%TO.C,TP2*%
%TA.AperFunction,ComponentPad*%
G36*
G01*
X68050006Y-110190016D02*
X68050006Y-109190016D01*
G75*
G02*
X68550006Y-108690016I500000J0D01*
G01*
X69550006Y-108690016D01*
G75*
G02*
X70050006Y-109190016I0J-500000D01*
G01*
X70050006Y-110190016D01*
G75*
G02*
X69550006Y-110690016I-500000J0D01*
G01*
X68550006Y-110690016D01*
G75*
G02*
X68050006Y-110190016I0J500000D01*
G01*
G37*
%TD.AperFunction*%
%TD*%
%TO.N,Board_14-GND*%
%TO.C,TP3*%
%TA.AperFunction,ComponentPad*%
G36*
G01*
X68050006Y-115270016D02*
X68050006Y-114270016D01*
G75*
G02*
X68550006Y-113770016I500000J0D01*
G01*
X69550006Y-113770016D01*
G75*
G02*
X70050006Y-114270016I0J-500000D01*
G01*
X70050006Y-115270016D01*
G75*
G02*
X69550006Y-115770016I-500000J0D01*
G01*
X68550006Y-115770016D01*
G75*
G02*
X68050006Y-115270016I0J500000D01*
G01*
G37*
%TD.AperFunction*%
%TD*%
%TO.N,Board_14-/+CHARGE*%
%TO.C,TP4*%
%TA.AperFunction,ComponentPad*%
G36*
G01*
X68050006Y-117810016D02*
X68050006Y-116810016D01*
G75*
G02*
X68550006Y-116310016I500000J0D01*
G01*
X69550006Y-116310016D01*
G75*
G02*
X70050006Y-116810016I0J-500000D01*
G01*
X70050006Y-117810016D01*
G75*
G02*
X69550006Y-118310016I-500000J0D01*
G01*
X68550006Y-118310016D01*
G75*
G02*
X68050006Y-117810016I0J500000D01*
G01*
G37*
%TD.AperFunction*%
%TD*%
%TO.N,Board_14-/3v3_EN*%
%TO.C,TP5*%
%TA.AperFunction,ComponentPad*%
G36*
G01*
X68050006Y-112730016D02*
X68050006Y-111730016D01*
G75*
G02*
X68550006Y-111230016I500000J0D01*
G01*
X69550006Y-111230016D01*
G75*
G02*
X70050006Y-111730016I0J-500000D01*
G01*
X70050006Y-112730016D01*
G75*
G02*
X69550006Y-113230016I-500000J0D01*
G01*
X68550006Y-113230016D01*
G75*
G02*
X68050006Y-112730016I0J500000D01*
G01*
G37*
%TD.AperFunction*%
%TD*%
%TO.N,Board_14-/VMAX*%
%TO.C,TP6*%
%TA.AperFunction,ComponentPad*%
G36*
G01*
X83290006Y-117810016D02*
X83290006Y-116810016D01*
G75*
G02*
X83790006Y-116310016I500000J0D01*
G01*
X84790006Y-116310016D01*
G75*
G02*
X85290006Y-116810016I0J-500000D01*
G01*
X85290006Y-117810016D01*
G75*
G02*
X84790006Y-118310016I-500000J0D01*
G01*
X83790006Y-118310016D01*
G75*
G02*
X83290006Y-117810016I0J500000D01*
G01*
G37*
%TD.AperFunction*%
%TD*%
%TO.N,Board_14-/+BATT*%
%TO.C,TP7*%
%TA.AperFunction,ComponentPad*%
G36*
G01*
X83290006Y-110190016D02*
X83290006Y-109190016D01*
G75*
G02*
X83790006Y-108690016I500000J0D01*
G01*
X84790006Y-108690016D01*
G75*
G02*
X85290006Y-109190016I0J-500000D01*
G01*
X85290006Y-110190016D01*
G75*
G02*
X84790006Y-110690016I-500000J0D01*
G01*
X83790006Y-110690016D01*
G75*
G02*
X83290006Y-110190016I0J500000D01*
G01*
G37*
%TD.AperFunction*%
%TD*%
%TO.N,Board_14-/+3v3*%
%TO.C,TP8*%
%TA.AperFunction,ComponentPad*%
G36*
G01*
X83290006Y-112730016D02*
X83290006Y-111730016D01*
G75*
G02*
X83790006Y-111230016I500000J0D01*
G01*
X84790006Y-111230016D01*
G75*
G02*
X85290006Y-111730016I0J-500000D01*
G01*
X85290006Y-112730016D01*
G75*
G02*
X84790006Y-113230016I-500000J0D01*
G01*
X83790006Y-113230016D01*
G75*
G02*
X83290006Y-112730016I0J500000D01*
G01*
G37*
%TD.AperFunction*%
%TD*%
%TO.N,Board_14-/STAT*%
%TO.C,TP9*%
%TA.AperFunction,ComponentPad*%
G36*
G01*
X83290006Y-115270016D02*
X83290006Y-114270016D01*
G75*
G02*
X83790006Y-113770016I500000J0D01*
G01*
X84790006Y-113770016D01*
G75*
G02*
X85290006Y-114270016I0J-500000D01*
G01*
X85290006Y-115270016D01*
G75*
G02*
X84790006Y-115770016I-500000J0D01*
G01*
X83790006Y-115770016D01*
G75*
G02*
X83290006Y-115270016I0J500000D01*
G01*
G37*
%TD.AperFunction*%
%TD*%
%TO.N,Board_14-GND*%
%TO.C,TP10*%
%TA.AperFunction,ComponentPad*%
G36*
G01*
X83290006Y-107650016D02*
X83290006Y-106650016D01*
G75*
G02*
X83790006Y-106150016I500000J0D01*
G01*
X84790006Y-106150016D01*
G75*
G02*
X85290006Y-106650016I0J-500000D01*
G01*
X85290006Y-107650016D01*
G75*
G02*
X84790006Y-108150016I-500000J0D01*
G01*
X83790006Y-108150016D01*
G75*
G02*
X83290006Y-107650016I0J500000D01*
G01*
G37*
%TD.AperFunction*%
%TD*%
%TO.N,Board_13-/-BATT_RAW*%
%TO.C,TP1*%
%TA.AperFunction,ComponentPad*%
G36*
G01*
X50270001Y-107650016D02*
X50270001Y-106650016D01*
G75*
G02*
X50770001Y-106150016I500000J0D01*
G01*
X51770001Y-106150016D01*
G75*
G02*
X52270001Y-106650016I0J-500000D01*
G01*
X52270001Y-107650016D01*
G75*
G02*
X51770001Y-108150016I-500000J0D01*
G01*
X50770001Y-108150016D01*
G75*
G02*
X50270001Y-107650016I0J500000D01*
G01*
G37*
%TD.AperFunction*%
%TD*%
%TO.N,Board_13-/+BATT*%
%TO.C,TP2*%
%TA.AperFunction,ComponentPad*%
G36*
G01*
X50270001Y-110190016D02*
X50270001Y-109190016D01*
G75*
G02*
X50770001Y-108690016I500000J0D01*
G01*
X51770001Y-108690016D01*
G75*
G02*
X52270001Y-109190016I0J-500000D01*
G01*
X52270001Y-110190016D01*
G75*
G02*
X51770001Y-110690016I-500000J0D01*
G01*
X50770001Y-110690016D01*
G75*
G02*
X50270001Y-110190016I0J500000D01*
G01*
G37*
%TD.AperFunction*%
%TD*%
%TO.N,Board_13-GND*%
%TO.C,TP3*%
%TA.AperFunction,ComponentPad*%
G36*
G01*
X50270001Y-115270016D02*
X50270001Y-114270016D01*
G75*
G02*
X50770001Y-113770016I500000J0D01*
G01*
X51770001Y-113770016D01*
G75*
G02*
X52270001Y-114270016I0J-500000D01*
G01*
X52270001Y-115270016D01*
G75*
G02*
X51770001Y-115770016I-500000J0D01*
G01*
X50770001Y-115770016D01*
G75*
G02*
X50270001Y-115270016I0J500000D01*
G01*
G37*
%TD.AperFunction*%
%TD*%
%TO.N,Board_13-/+CHARGE*%
%TO.C,TP4*%
%TA.AperFunction,ComponentPad*%
G36*
G01*
X50270001Y-117810016D02*
X50270001Y-116810016D01*
G75*
G02*
X50770001Y-116310016I500000J0D01*
G01*
X51770001Y-116310016D01*
G75*
G02*
X52270001Y-116810016I0J-500000D01*
G01*
X52270001Y-117810016D01*
G75*
G02*
X51770001Y-118310016I-500000J0D01*
G01*
X50770001Y-118310016D01*
G75*
G02*
X50270001Y-117810016I0J500000D01*
G01*
G37*
%TD.AperFunction*%
%TD*%
%TO.N,Board_13-/3v3_EN*%
%TO.C,TP5*%
%TA.AperFunction,ComponentPad*%
G36*
G01*
X50270001Y-112730016D02*
X50270001Y-111730016D01*
G75*
G02*
X50770001Y-111230016I500000J0D01*
G01*
X51770001Y-111230016D01*
G75*
G02*
X52270001Y-111730016I0J-500000D01*
G01*
X52270001Y-112730016D01*
G75*
G02*
X51770001Y-113230016I-500000J0D01*
G01*
X50770001Y-113230016D01*
G75*
G02*
X50270001Y-112730016I0J500000D01*
G01*
G37*
%TD.AperFunction*%
%TD*%
%TO.N,Board_13-/VMAX*%
%TO.C,TP6*%
%TA.AperFunction,ComponentPad*%
G36*
G01*
X65510001Y-117810016D02*
X65510001Y-116810016D01*
G75*
G02*
X66010001Y-116310016I500000J0D01*
G01*
X67010001Y-116310016D01*
G75*
G02*
X67510001Y-116810016I0J-500000D01*
G01*
X67510001Y-117810016D01*
G75*
G02*
X67010001Y-118310016I-500000J0D01*
G01*
X66010001Y-118310016D01*
G75*
G02*
X65510001Y-117810016I0J500000D01*
G01*
G37*
%TD.AperFunction*%
%TD*%
%TO.N,Board_13-/+BATT*%
%TO.C,TP7*%
%TA.AperFunction,ComponentPad*%
G36*
G01*
X65510001Y-110190016D02*
X65510001Y-109190016D01*
G75*
G02*
X66010001Y-108690016I500000J0D01*
G01*
X67010001Y-108690016D01*
G75*
G02*
X67510001Y-109190016I0J-500000D01*
G01*
X67510001Y-110190016D01*
G75*
G02*
X67010001Y-110690016I-500000J0D01*
G01*
X66010001Y-110690016D01*
G75*
G02*
X65510001Y-110190016I0J500000D01*
G01*
G37*
%TD.AperFunction*%
%TD*%
%TO.N,Board_13-/+3v3*%
%TO.C,TP8*%
%TA.AperFunction,ComponentPad*%
G36*
G01*
X65510001Y-112730016D02*
X65510001Y-111730016D01*
G75*
G02*
X66010001Y-111230016I500000J0D01*
G01*
X67010001Y-111230016D01*
G75*
G02*
X67510001Y-111730016I0J-500000D01*
G01*
X67510001Y-112730016D01*
G75*
G02*
X67010001Y-113230016I-500000J0D01*
G01*
X66010001Y-113230016D01*
G75*
G02*
X65510001Y-112730016I0J500000D01*
G01*
G37*
%TD.AperFunction*%
%TD*%
%TO.N,Board_13-/STAT*%
%TO.C,TP9*%
%TA.AperFunction,ComponentPad*%
G36*
G01*
X65510001Y-115270016D02*
X65510001Y-114270016D01*
G75*
G02*
X66010001Y-113770016I500000J0D01*
G01*
X67010001Y-113770016D01*
G75*
G02*
X67510001Y-114270016I0J-500000D01*
G01*
X67510001Y-115270016D01*
G75*
G02*
X67010001Y-115770016I-500000J0D01*
G01*
X66010001Y-115770016D01*
G75*
G02*
X65510001Y-115270016I0J500000D01*
G01*
G37*
%TD.AperFunction*%
%TD*%
%TO.N,Board_13-GND*%
%TO.C,TP10*%
%TA.AperFunction,ComponentPad*%
G36*
G01*
X65510001Y-107650016D02*
X65510001Y-106650016D01*
G75*
G02*
X66010001Y-106150016I500000J0D01*
G01*
X67010001Y-106150016D01*
G75*
G02*
X67510001Y-106650016I0J-500000D01*
G01*
X67510001Y-107650016D01*
G75*
G02*
X67010001Y-108150016I-500000J0D01*
G01*
X66010001Y-108150016D01*
G75*
G02*
X65510001Y-107650016I0J500000D01*
G01*
G37*
%TD.AperFunction*%
%TD*%
%TO.N,Board_12-/-BATT_RAW*%
%TO.C,TP1*%
%TA.AperFunction,ComponentPad*%
G36*
G01*
X103610016Y-89870011D02*
X103610016Y-88870011D01*
G75*
G02*
X104110016Y-88370011I500000J0D01*
G01*
X105110016Y-88370011D01*
G75*
G02*
X105610016Y-88870011I0J-500000D01*
G01*
X105610016Y-89870011D01*
G75*
G02*
X105110016Y-90370011I-500000J0D01*
G01*
X104110016Y-90370011D01*
G75*
G02*
X103610016Y-89870011I0J500000D01*
G01*
G37*
%TD.AperFunction*%
%TD*%
%TO.N,Board_12-/+BATT*%
%TO.C,TP2*%
%TA.AperFunction,ComponentPad*%
G36*
G01*
X103610016Y-92410011D02*
X103610016Y-91410011D01*
G75*
G02*
X104110016Y-90910011I500000J0D01*
G01*
X105110016Y-90910011D01*
G75*
G02*
X105610016Y-91410011I0J-500000D01*
G01*
X105610016Y-92410011D01*
G75*
G02*
X105110016Y-92910011I-500000J0D01*
G01*
X104110016Y-92910011D01*
G75*
G02*
X103610016Y-92410011I0J500000D01*
G01*
G37*
%TD.AperFunction*%
%TD*%
%TO.N,Board_12-GND*%
%TO.C,TP3*%
%TA.AperFunction,ComponentPad*%
G36*
G01*
X103610016Y-97490011D02*
X103610016Y-96490011D01*
G75*
G02*
X104110016Y-95990011I500000J0D01*
G01*
X105110016Y-95990011D01*
G75*
G02*
X105610016Y-96490011I0J-500000D01*
G01*
X105610016Y-97490011D01*
G75*
G02*
X105110016Y-97990011I-500000J0D01*
G01*
X104110016Y-97990011D01*
G75*
G02*
X103610016Y-97490011I0J500000D01*
G01*
G37*
%TD.AperFunction*%
%TD*%
%TO.N,Board_12-/+CHARGE*%
%TO.C,TP4*%
%TA.AperFunction,ComponentPad*%
G36*
G01*
X103610016Y-100030011D02*
X103610016Y-99030011D01*
G75*
G02*
X104110016Y-98530011I500000J0D01*
G01*
X105110016Y-98530011D01*
G75*
G02*
X105610016Y-99030011I0J-500000D01*
G01*
X105610016Y-100030011D01*
G75*
G02*
X105110016Y-100530011I-500000J0D01*
G01*
X104110016Y-100530011D01*
G75*
G02*
X103610016Y-100030011I0J500000D01*
G01*
G37*
%TD.AperFunction*%
%TD*%
%TO.N,Board_12-/3v3_EN*%
%TO.C,TP5*%
%TA.AperFunction,ComponentPad*%
G36*
G01*
X103610016Y-94950011D02*
X103610016Y-93950011D01*
G75*
G02*
X104110016Y-93450011I500000J0D01*
G01*
X105110016Y-93450011D01*
G75*
G02*
X105610016Y-93950011I0J-500000D01*
G01*
X105610016Y-94950011D01*
G75*
G02*
X105110016Y-95450011I-500000J0D01*
G01*
X104110016Y-95450011D01*
G75*
G02*
X103610016Y-94950011I0J500000D01*
G01*
G37*
%TD.AperFunction*%
%TD*%
%TO.N,Board_12-/VMAX*%
%TO.C,TP6*%
%TA.AperFunction,ComponentPad*%
G36*
G01*
X118850016Y-100030011D02*
X118850016Y-99030011D01*
G75*
G02*
X119350016Y-98530011I500000J0D01*
G01*
X120350016Y-98530011D01*
G75*
G02*
X120850016Y-99030011I0J-500000D01*
G01*
X120850016Y-100030011D01*
G75*
G02*
X120350016Y-100530011I-500000J0D01*
G01*
X119350016Y-100530011D01*
G75*
G02*
X118850016Y-100030011I0J500000D01*
G01*
G37*
%TD.AperFunction*%
%TD*%
%TO.N,Board_12-/+BATT*%
%TO.C,TP7*%
%TA.AperFunction,ComponentPad*%
G36*
G01*
X118850016Y-92410011D02*
X118850016Y-91410011D01*
G75*
G02*
X119350016Y-90910011I500000J0D01*
G01*
X120350016Y-90910011D01*
G75*
G02*
X120850016Y-91410011I0J-500000D01*
G01*
X120850016Y-92410011D01*
G75*
G02*
X120350016Y-92910011I-500000J0D01*
G01*
X119350016Y-92910011D01*
G75*
G02*
X118850016Y-92410011I0J500000D01*
G01*
G37*
%TD.AperFunction*%
%TD*%
%TO.N,Board_12-/+3v3*%
%TO.C,TP8*%
%TA.AperFunction,ComponentPad*%
G36*
G01*
X118850016Y-94950011D02*
X118850016Y-93950011D01*
G75*
G02*
X119350016Y-93450011I500000J0D01*
G01*
X120350016Y-93450011D01*
G75*
G02*
X120850016Y-93950011I0J-500000D01*
G01*
X120850016Y-94950011D01*
G75*
G02*
X120350016Y-95450011I-500000J0D01*
G01*
X119350016Y-95450011D01*
G75*
G02*
X118850016Y-94950011I0J500000D01*
G01*
G37*
%TD.AperFunction*%
%TD*%
%TO.N,Board_12-/STAT*%
%TO.C,TP9*%
%TA.AperFunction,ComponentPad*%
G36*
G01*
X118850016Y-97490011D02*
X118850016Y-96490011D01*
G75*
G02*
X119350016Y-95990011I500000J0D01*
G01*
X120350016Y-95990011D01*
G75*
G02*
X120850016Y-96490011I0J-500000D01*
G01*
X120850016Y-97490011D01*
G75*
G02*
X120350016Y-97990011I-500000J0D01*
G01*
X119350016Y-97990011D01*
G75*
G02*
X118850016Y-97490011I0J500000D01*
G01*
G37*
%TD.AperFunction*%
%TD*%
%TO.N,Board_12-GND*%
%TO.C,TP10*%
%TA.AperFunction,ComponentPad*%
G36*
G01*
X118850016Y-89870011D02*
X118850016Y-88870011D01*
G75*
G02*
X119350016Y-88370011I500000J0D01*
G01*
X120350016Y-88370011D01*
G75*
G02*
X120850016Y-88870011I0J-500000D01*
G01*
X120850016Y-89870011D01*
G75*
G02*
X120350016Y-90370011I-500000J0D01*
G01*
X119350016Y-90370011D01*
G75*
G02*
X118850016Y-89870011I0J500000D01*
G01*
G37*
%TD.AperFunction*%
%TD*%
%TO.N,Board_11-/-BATT_RAW*%
%TO.C,TP1*%
%TA.AperFunction,ComponentPad*%
G36*
G01*
X85830011Y-89870011D02*
X85830011Y-88870011D01*
G75*
G02*
X86330011Y-88370011I500000J0D01*
G01*
X87330011Y-88370011D01*
G75*
G02*
X87830011Y-88870011I0J-500000D01*
G01*
X87830011Y-89870011D01*
G75*
G02*
X87330011Y-90370011I-500000J0D01*
G01*
X86330011Y-90370011D01*
G75*
G02*
X85830011Y-89870011I0J500000D01*
G01*
G37*
%TD.AperFunction*%
%TD*%
%TO.N,Board_11-/+BATT*%
%TO.C,TP2*%
%TA.AperFunction,ComponentPad*%
G36*
G01*
X85830011Y-92410011D02*
X85830011Y-91410011D01*
G75*
G02*
X86330011Y-90910011I500000J0D01*
G01*
X87330011Y-90910011D01*
G75*
G02*
X87830011Y-91410011I0J-500000D01*
G01*
X87830011Y-92410011D01*
G75*
G02*
X87330011Y-92910011I-500000J0D01*
G01*
X86330011Y-92910011D01*
G75*
G02*
X85830011Y-92410011I0J500000D01*
G01*
G37*
%TD.AperFunction*%
%TD*%
%TO.N,Board_11-GND*%
%TO.C,TP3*%
%TA.AperFunction,ComponentPad*%
G36*
G01*
X85830011Y-97490011D02*
X85830011Y-96490011D01*
G75*
G02*
X86330011Y-95990011I500000J0D01*
G01*
X87330011Y-95990011D01*
G75*
G02*
X87830011Y-96490011I0J-500000D01*
G01*
X87830011Y-97490011D01*
G75*
G02*
X87330011Y-97990011I-500000J0D01*
G01*
X86330011Y-97990011D01*
G75*
G02*
X85830011Y-97490011I0J500000D01*
G01*
G37*
%TD.AperFunction*%
%TD*%
%TO.N,Board_11-/+CHARGE*%
%TO.C,TP4*%
%TA.AperFunction,ComponentPad*%
G36*
G01*
X85830011Y-100030011D02*
X85830011Y-99030011D01*
G75*
G02*
X86330011Y-98530011I500000J0D01*
G01*
X87330011Y-98530011D01*
G75*
G02*
X87830011Y-99030011I0J-500000D01*
G01*
X87830011Y-100030011D01*
G75*
G02*
X87330011Y-100530011I-500000J0D01*
G01*
X86330011Y-100530011D01*
G75*
G02*
X85830011Y-100030011I0J500000D01*
G01*
G37*
%TD.AperFunction*%
%TD*%
%TO.N,Board_11-/3v3_EN*%
%TO.C,TP5*%
%TA.AperFunction,ComponentPad*%
G36*
G01*
X85830011Y-94950011D02*
X85830011Y-93950011D01*
G75*
G02*
X86330011Y-93450011I500000J0D01*
G01*
X87330011Y-93450011D01*
G75*
G02*
X87830011Y-93950011I0J-500000D01*
G01*
X87830011Y-94950011D01*
G75*
G02*
X87330011Y-95450011I-500000J0D01*
G01*
X86330011Y-95450011D01*
G75*
G02*
X85830011Y-94950011I0J500000D01*
G01*
G37*
%TD.AperFunction*%
%TD*%
%TO.N,Board_11-/VMAX*%
%TO.C,TP6*%
%TA.AperFunction,ComponentPad*%
G36*
G01*
X101070011Y-100030011D02*
X101070011Y-99030011D01*
G75*
G02*
X101570011Y-98530011I500000J0D01*
G01*
X102570011Y-98530011D01*
G75*
G02*
X103070011Y-99030011I0J-500000D01*
G01*
X103070011Y-100030011D01*
G75*
G02*
X102570011Y-100530011I-500000J0D01*
G01*
X101570011Y-100530011D01*
G75*
G02*
X101070011Y-100030011I0J500000D01*
G01*
G37*
%TD.AperFunction*%
%TD*%
%TO.N,Board_11-/+BATT*%
%TO.C,TP7*%
%TA.AperFunction,ComponentPad*%
G36*
G01*
X101070011Y-92410011D02*
X101070011Y-91410011D01*
G75*
G02*
X101570011Y-90910011I500000J0D01*
G01*
X102570011Y-90910011D01*
G75*
G02*
X103070011Y-91410011I0J-500000D01*
G01*
X103070011Y-92410011D01*
G75*
G02*
X102570011Y-92910011I-500000J0D01*
G01*
X101570011Y-92910011D01*
G75*
G02*
X101070011Y-92410011I0J500000D01*
G01*
G37*
%TD.AperFunction*%
%TD*%
%TO.N,Board_11-/+3v3*%
%TO.C,TP8*%
%TA.AperFunction,ComponentPad*%
G36*
G01*
X101070011Y-94950011D02*
X101070011Y-93950011D01*
G75*
G02*
X101570011Y-93450011I500000J0D01*
G01*
X102570011Y-93450011D01*
G75*
G02*
X103070011Y-93950011I0J-500000D01*
G01*
X103070011Y-94950011D01*
G75*
G02*
X102570011Y-95450011I-500000J0D01*
G01*
X101570011Y-95450011D01*
G75*
G02*
X101070011Y-94950011I0J500000D01*
G01*
G37*
%TD.AperFunction*%
%TD*%
%TO.N,Board_11-/STAT*%
%TO.C,TP9*%
%TA.AperFunction,ComponentPad*%
G36*
G01*
X101070011Y-97490011D02*
X101070011Y-96490011D01*
G75*
G02*
X101570011Y-95990011I500000J0D01*
G01*
X102570011Y-95990011D01*
G75*
G02*
X103070011Y-96490011I0J-500000D01*
G01*
X103070011Y-97490011D01*
G75*
G02*
X102570011Y-97990011I-500000J0D01*
G01*
X101570011Y-97990011D01*
G75*
G02*
X101070011Y-97490011I0J500000D01*
G01*
G37*
%TD.AperFunction*%
%TD*%
%TO.N,Board_11-GND*%
%TO.C,TP10*%
%TA.AperFunction,ComponentPad*%
G36*
G01*
X101070011Y-89870011D02*
X101070011Y-88870011D01*
G75*
G02*
X101570011Y-88370011I500000J0D01*
G01*
X102570011Y-88370011D01*
G75*
G02*
X103070011Y-88870011I0J-500000D01*
G01*
X103070011Y-89870011D01*
G75*
G02*
X102570011Y-90370011I-500000J0D01*
G01*
X101570011Y-90370011D01*
G75*
G02*
X101070011Y-89870011I0J500000D01*
G01*
G37*
%TD.AperFunction*%
%TD*%
%TO.N,Board_10-/-BATT_RAW*%
%TO.C,TP1*%
%TA.AperFunction,ComponentPad*%
G36*
G01*
X68050006Y-89870011D02*
X68050006Y-88870011D01*
G75*
G02*
X68550006Y-88370011I500000J0D01*
G01*
X69550006Y-88370011D01*
G75*
G02*
X70050006Y-88870011I0J-500000D01*
G01*
X70050006Y-89870011D01*
G75*
G02*
X69550006Y-90370011I-500000J0D01*
G01*
X68550006Y-90370011D01*
G75*
G02*
X68050006Y-89870011I0J500000D01*
G01*
G37*
%TD.AperFunction*%
%TD*%
%TO.N,Board_10-/+BATT*%
%TO.C,TP2*%
%TA.AperFunction,ComponentPad*%
G36*
G01*
X68050006Y-92410011D02*
X68050006Y-91410011D01*
G75*
G02*
X68550006Y-90910011I500000J0D01*
G01*
X69550006Y-90910011D01*
G75*
G02*
X70050006Y-91410011I0J-500000D01*
G01*
X70050006Y-92410011D01*
G75*
G02*
X69550006Y-92910011I-500000J0D01*
G01*
X68550006Y-92910011D01*
G75*
G02*
X68050006Y-92410011I0J500000D01*
G01*
G37*
%TD.AperFunction*%
%TD*%
%TO.N,Board_10-GND*%
%TO.C,TP3*%
%TA.AperFunction,ComponentPad*%
G36*
G01*
X68050006Y-97490011D02*
X68050006Y-96490011D01*
G75*
G02*
X68550006Y-95990011I500000J0D01*
G01*
X69550006Y-95990011D01*
G75*
G02*
X70050006Y-96490011I0J-500000D01*
G01*
X70050006Y-97490011D01*
G75*
G02*
X69550006Y-97990011I-500000J0D01*
G01*
X68550006Y-97990011D01*
G75*
G02*
X68050006Y-97490011I0J500000D01*
G01*
G37*
%TD.AperFunction*%
%TD*%
%TO.N,Board_10-/+CHARGE*%
%TO.C,TP4*%
%TA.AperFunction,ComponentPad*%
G36*
G01*
X68050006Y-100030011D02*
X68050006Y-99030011D01*
G75*
G02*
X68550006Y-98530011I500000J0D01*
G01*
X69550006Y-98530011D01*
G75*
G02*
X70050006Y-99030011I0J-500000D01*
G01*
X70050006Y-100030011D01*
G75*
G02*
X69550006Y-100530011I-500000J0D01*
G01*
X68550006Y-100530011D01*
G75*
G02*
X68050006Y-100030011I0J500000D01*
G01*
G37*
%TD.AperFunction*%
%TD*%
%TO.N,Board_10-/3v3_EN*%
%TO.C,TP5*%
%TA.AperFunction,ComponentPad*%
G36*
G01*
X68050006Y-94950011D02*
X68050006Y-93950011D01*
G75*
G02*
X68550006Y-93450011I500000J0D01*
G01*
X69550006Y-93450011D01*
G75*
G02*
X70050006Y-93950011I0J-500000D01*
G01*
X70050006Y-94950011D01*
G75*
G02*
X69550006Y-95450011I-500000J0D01*
G01*
X68550006Y-95450011D01*
G75*
G02*
X68050006Y-94950011I0J500000D01*
G01*
G37*
%TD.AperFunction*%
%TD*%
%TO.N,Board_10-/VMAX*%
%TO.C,TP6*%
%TA.AperFunction,ComponentPad*%
G36*
G01*
X83290006Y-100030011D02*
X83290006Y-99030011D01*
G75*
G02*
X83790006Y-98530011I500000J0D01*
G01*
X84790006Y-98530011D01*
G75*
G02*
X85290006Y-99030011I0J-500000D01*
G01*
X85290006Y-100030011D01*
G75*
G02*
X84790006Y-100530011I-500000J0D01*
G01*
X83790006Y-100530011D01*
G75*
G02*
X83290006Y-100030011I0J500000D01*
G01*
G37*
%TD.AperFunction*%
%TD*%
%TO.N,Board_10-/+BATT*%
%TO.C,TP7*%
%TA.AperFunction,ComponentPad*%
G36*
G01*
X83290006Y-92410011D02*
X83290006Y-91410011D01*
G75*
G02*
X83790006Y-90910011I500000J0D01*
G01*
X84790006Y-90910011D01*
G75*
G02*
X85290006Y-91410011I0J-500000D01*
G01*
X85290006Y-92410011D01*
G75*
G02*
X84790006Y-92910011I-500000J0D01*
G01*
X83790006Y-92910011D01*
G75*
G02*
X83290006Y-92410011I0J500000D01*
G01*
G37*
%TD.AperFunction*%
%TD*%
%TO.N,Board_10-/+3v3*%
%TO.C,TP8*%
%TA.AperFunction,ComponentPad*%
G36*
G01*
X83290006Y-94950011D02*
X83290006Y-93950011D01*
G75*
G02*
X83790006Y-93450011I500000J0D01*
G01*
X84790006Y-93450011D01*
G75*
G02*
X85290006Y-93950011I0J-500000D01*
G01*
X85290006Y-94950011D01*
G75*
G02*
X84790006Y-95450011I-500000J0D01*
G01*
X83790006Y-95450011D01*
G75*
G02*
X83290006Y-94950011I0J500000D01*
G01*
G37*
%TD.AperFunction*%
%TD*%
%TO.N,Board_10-/STAT*%
%TO.C,TP9*%
%TA.AperFunction,ComponentPad*%
G36*
G01*
X83290006Y-97490011D02*
X83290006Y-96490011D01*
G75*
G02*
X83790006Y-95990011I500000J0D01*
G01*
X84790006Y-95990011D01*
G75*
G02*
X85290006Y-96490011I0J-500000D01*
G01*
X85290006Y-97490011D01*
G75*
G02*
X84790006Y-97990011I-500000J0D01*
G01*
X83790006Y-97990011D01*
G75*
G02*
X83290006Y-97490011I0J500000D01*
G01*
G37*
%TD.AperFunction*%
%TD*%
%TO.N,Board_10-GND*%
%TO.C,TP10*%
%TA.AperFunction,ComponentPad*%
G36*
G01*
X83290006Y-89870011D02*
X83290006Y-88870011D01*
G75*
G02*
X83790006Y-88370011I500000J0D01*
G01*
X84790006Y-88370011D01*
G75*
G02*
X85290006Y-88870011I0J-500000D01*
G01*
X85290006Y-89870011D01*
G75*
G02*
X84790006Y-90370011I-500000J0D01*
G01*
X83790006Y-90370011D01*
G75*
G02*
X83290006Y-89870011I0J500000D01*
G01*
G37*
%TD.AperFunction*%
%TD*%
%TO.N,Board_9-/-BATT_RAW*%
%TO.C,TP1*%
%TA.AperFunction,ComponentPad*%
G36*
G01*
X50270001Y-89870011D02*
X50270001Y-88870011D01*
G75*
G02*
X50770001Y-88370011I500000J0D01*
G01*
X51770001Y-88370011D01*
G75*
G02*
X52270001Y-88870011I0J-500000D01*
G01*
X52270001Y-89870011D01*
G75*
G02*
X51770001Y-90370011I-500000J0D01*
G01*
X50770001Y-90370011D01*
G75*
G02*
X50270001Y-89870011I0J500000D01*
G01*
G37*
%TD.AperFunction*%
%TD*%
%TO.N,Board_9-/+BATT*%
%TO.C,TP2*%
%TA.AperFunction,ComponentPad*%
G36*
G01*
X50270001Y-92410011D02*
X50270001Y-91410011D01*
G75*
G02*
X50770001Y-90910011I500000J0D01*
G01*
X51770001Y-90910011D01*
G75*
G02*
X52270001Y-91410011I0J-500000D01*
G01*
X52270001Y-92410011D01*
G75*
G02*
X51770001Y-92910011I-500000J0D01*
G01*
X50770001Y-92910011D01*
G75*
G02*
X50270001Y-92410011I0J500000D01*
G01*
G37*
%TD.AperFunction*%
%TD*%
%TO.N,Board_9-GND*%
%TO.C,TP3*%
%TA.AperFunction,ComponentPad*%
G36*
G01*
X50270001Y-97490011D02*
X50270001Y-96490011D01*
G75*
G02*
X50770001Y-95990011I500000J0D01*
G01*
X51770001Y-95990011D01*
G75*
G02*
X52270001Y-96490011I0J-500000D01*
G01*
X52270001Y-97490011D01*
G75*
G02*
X51770001Y-97990011I-500000J0D01*
G01*
X50770001Y-97990011D01*
G75*
G02*
X50270001Y-97490011I0J500000D01*
G01*
G37*
%TD.AperFunction*%
%TD*%
%TO.N,Board_9-/+CHARGE*%
%TO.C,TP4*%
%TA.AperFunction,ComponentPad*%
G36*
G01*
X50270001Y-100030011D02*
X50270001Y-99030011D01*
G75*
G02*
X50770001Y-98530011I500000J0D01*
G01*
X51770001Y-98530011D01*
G75*
G02*
X52270001Y-99030011I0J-500000D01*
G01*
X52270001Y-100030011D01*
G75*
G02*
X51770001Y-100530011I-500000J0D01*
G01*
X50770001Y-100530011D01*
G75*
G02*
X50270001Y-100030011I0J500000D01*
G01*
G37*
%TD.AperFunction*%
%TD*%
%TO.N,Board_9-/3v3_EN*%
%TO.C,TP5*%
%TA.AperFunction,ComponentPad*%
G36*
G01*
X50270001Y-94950011D02*
X50270001Y-93950011D01*
G75*
G02*
X50770001Y-93450011I500000J0D01*
G01*
X51770001Y-93450011D01*
G75*
G02*
X52270001Y-93950011I0J-500000D01*
G01*
X52270001Y-94950011D01*
G75*
G02*
X51770001Y-95450011I-500000J0D01*
G01*
X50770001Y-95450011D01*
G75*
G02*
X50270001Y-94950011I0J500000D01*
G01*
G37*
%TD.AperFunction*%
%TD*%
%TO.N,Board_9-/VMAX*%
%TO.C,TP6*%
%TA.AperFunction,ComponentPad*%
G36*
G01*
X65510001Y-100030011D02*
X65510001Y-99030011D01*
G75*
G02*
X66010001Y-98530011I500000J0D01*
G01*
X67010001Y-98530011D01*
G75*
G02*
X67510001Y-99030011I0J-500000D01*
G01*
X67510001Y-100030011D01*
G75*
G02*
X67010001Y-100530011I-500000J0D01*
G01*
X66010001Y-100530011D01*
G75*
G02*
X65510001Y-100030011I0J500000D01*
G01*
G37*
%TD.AperFunction*%
%TD*%
%TO.N,Board_9-/+BATT*%
%TO.C,TP7*%
%TA.AperFunction,ComponentPad*%
G36*
G01*
X65510001Y-92410011D02*
X65510001Y-91410011D01*
G75*
G02*
X66010001Y-90910011I500000J0D01*
G01*
X67010001Y-90910011D01*
G75*
G02*
X67510001Y-91410011I0J-500000D01*
G01*
X67510001Y-92410011D01*
G75*
G02*
X67010001Y-92910011I-500000J0D01*
G01*
X66010001Y-92910011D01*
G75*
G02*
X65510001Y-92410011I0J500000D01*
G01*
G37*
%TD.AperFunction*%
%TD*%
%TO.N,Board_9-/+3v3*%
%TO.C,TP8*%
%TA.AperFunction,ComponentPad*%
G36*
G01*
X65510001Y-94950011D02*
X65510001Y-93950011D01*
G75*
G02*
X66010001Y-93450011I500000J0D01*
G01*
X67010001Y-93450011D01*
G75*
G02*
X67510001Y-93950011I0J-500000D01*
G01*
X67510001Y-94950011D01*
G75*
G02*
X67010001Y-95450011I-500000J0D01*
G01*
X66010001Y-95450011D01*
G75*
G02*
X65510001Y-94950011I0J500000D01*
G01*
G37*
%TD.AperFunction*%
%TD*%
%TO.N,Board_9-/STAT*%
%TO.C,TP9*%
%TA.AperFunction,ComponentPad*%
G36*
G01*
X65510001Y-97490011D02*
X65510001Y-96490011D01*
G75*
G02*
X66010001Y-95990011I500000J0D01*
G01*
X67010001Y-95990011D01*
G75*
G02*
X67510001Y-96490011I0J-500000D01*
G01*
X67510001Y-97490011D01*
G75*
G02*
X67010001Y-97990011I-500000J0D01*
G01*
X66010001Y-97990011D01*
G75*
G02*
X65510001Y-97490011I0J500000D01*
G01*
G37*
%TD.AperFunction*%
%TD*%
%TO.N,Board_9-GND*%
%TO.C,TP10*%
%TA.AperFunction,ComponentPad*%
G36*
G01*
X65510001Y-89870011D02*
X65510001Y-88870011D01*
G75*
G02*
X66010001Y-88370011I500000J0D01*
G01*
X67010001Y-88370011D01*
G75*
G02*
X67510001Y-88870011I0J-500000D01*
G01*
X67510001Y-89870011D01*
G75*
G02*
X67010001Y-90370011I-500000J0D01*
G01*
X66010001Y-90370011D01*
G75*
G02*
X65510001Y-89870011I0J500000D01*
G01*
G37*
%TD.AperFunction*%
%TD*%
%TO.N,Board_8-/-BATT_RAW*%
%TO.C,TP1*%
%TA.AperFunction,ComponentPad*%
G36*
G01*
X103610016Y-72090006D02*
X103610016Y-71090006D01*
G75*
G02*
X104110016Y-70590006I500000J0D01*
G01*
X105110016Y-70590006D01*
G75*
G02*
X105610016Y-71090006I0J-500000D01*
G01*
X105610016Y-72090006D01*
G75*
G02*
X105110016Y-72590006I-500000J0D01*
G01*
X104110016Y-72590006D01*
G75*
G02*
X103610016Y-72090006I0J500000D01*
G01*
G37*
%TD.AperFunction*%
%TD*%
%TO.N,Board_8-/+BATT*%
%TO.C,TP2*%
%TA.AperFunction,ComponentPad*%
G36*
G01*
X103610016Y-74630006D02*
X103610016Y-73630006D01*
G75*
G02*
X104110016Y-73130006I500000J0D01*
G01*
X105110016Y-73130006D01*
G75*
G02*
X105610016Y-73630006I0J-500000D01*
G01*
X105610016Y-74630006D01*
G75*
G02*
X105110016Y-75130006I-500000J0D01*
G01*
X104110016Y-75130006D01*
G75*
G02*
X103610016Y-74630006I0J500000D01*
G01*
G37*
%TD.AperFunction*%
%TD*%
%TO.N,Board_8-GND*%
%TO.C,TP3*%
%TA.AperFunction,ComponentPad*%
G36*
G01*
X103610016Y-79710006D02*
X103610016Y-78710006D01*
G75*
G02*
X104110016Y-78210006I500000J0D01*
G01*
X105110016Y-78210006D01*
G75*
G02*
X105610016Y-78710006I0J-500000D01*
G01*
X105610016Y-79710006D01*
G75*
G02*
X105110016Y-80210006I-500000J0D01*
G01*
X104110016Y-80210006D01*
G75*
G02*
X103610016Y-79710006I0J500000D01*
G01*
G37*
%TD.AperFunction*%
%TD*%
%TO.N,Board_8-/+CHARGE*%
%TO.C,TP4*%
%TA.AperFunction,ComponentPad*%
G36*
G01*
X103610016Y-82250006D02*
X103610016Y-81250006D01*
G75*
G02*
X104110016Y-80750006I500000J0D01*
G01*
X105110016Y-80750006D01*
G75*
G02*
X105610016Y-81250006I0J-500000D01*
G01*
X105610016Y-82250006D01*
G75*
G02*
X105110016Y-82750006I-500000J0D01*
G01*
X104110016Y-82750006D01*
G75*
G02*
X103610016Y-82250006I0J500000D01*
G01*
G37*
%TD.AperFunction*%
%TD*%
%TO.N,Board_8-/3v3_EN*%
%TO.C,TP5*%
%TA.AperFunction,ComponentPad*%
G36*
G01*
X103610016Y-77170006D02*
X103610016Y-76170006D01*
G75*
G02*
X104110016Y-75670006I500000J0D01*
G01*
X105110016Y-75670006D01*
G75*
G02*
X105610016Y-76170006I0J-500000D01*
G01*
X105610016Y-77170006D01*
G75*
G02*
X105110016Y-77670006I-500000J0D01*
G01*
X104110016Y-77670006D01*
G75*
G02*
X103610016Y-77170006I0J500000D01*
G01*
G37*
%TD.AperFunction*%
%TD*%
%TO.N,Board_8-/VMAX*%
%TO.C,TP6*%
%TA.AperFunction,ComponentPad*%
G36*
G01*
X118850016Y-82250006D02*
X118850016Y-81250006D01*
G75*
G02*
X119350016Y-80750006I500000J0D01*
G01*
X120350016Y-80750006D01*
G75*
G02*
X120850016Y-81250006I0J-500000D01*
G01*
X120850016Y-82250006D01*
G75*
G02*
X120350016Y-82750006I-500000J0D01*
G01*
X119350016Y-82750006D01*
G75*
G02*
X118850016Y-82250006I0J500000D01*
G01*
G37*
%TD.AperFunction*%
%TD*%
%TO.N,Board_8-/+BATT*%
%TO.C,TP7*%
%TA.AperFunction,ComponentPad*%
G36*
G01*
X118850016Y-74630006D02*
X118850016Y-73630006D01*
G75*
G02*
X119350016Y-73130006I500000J0D01*
G01*
X120350016Y-73130006D01*
G75*
G02*
X120850016Y-73630006I0J-500000D01*
G01*
X120850016Y-74630006D01*
G75*
G02*
X120350016Y-75130006I-500000J0D01*
G01*
X119350016Y-75130006D01*
G75*
G02*
X118850016Y-74630006I0J500000D01*
G01*
G37*
%TD.AperFunction*%
%TD*%
%TO.N,Board_8-/+3v3*%
%TO.C,TP8*%
%TA.AperFunction,ComponentPad*%
G36*
G01*
X118850016Y-77170006D02*
X118850016Y-76170006D01*
G75*
G02*
X119350016Y-75670006I500000J0D01*
G01*
X120350016Y-75670006D01*
G75*
G02*
X120850016Y-76170006I0J-500000D01*
G01*
X120850016Y-77170006D01*
G75*
G02*
X120350016Y-77670006I-500000J0D01*
G01*
X119350016Y-77670006D01*
G75*
G02*
X118850016Y-77170006I0J500000D01*
G01*
G37*
%TD.AperFunction*%
%TD*%
%TO.N,Board_8-/STAT*%
%TO.C,TP9*%
%TA.AperFunction,ComponentPad*%
G36*
G01*
X118850016Y-79710006D02*
X118850016Y-78710006D01*
G75*
G02*
X119350016Y-78210006I500000J0D01*
G01*
X120350016Y-78210006D01*
G75*
G02*
X120850016Y-78710006I0J-500000D01*
G01*
X120850016Y-79710006D01*
G75*
G02*
X120350016Y-80210006I-500000J0D01*
G01*
X119350016Y-80210006D01*
G75*
G02*
X118850016Y-79710006I0J500000D01*
G01*
G37*
%TD.AperFunction*%
%TD*%
%TO.N,Board_8-GND*%
%TO.C,TP10*%
%TA.AperFunction,ComponentPad*%
G36*
G01*
X118850016Y-72090006D02*
X118850016Y-71090006D01*
G75*
G02*
X119350016Y-70590006I500000J0D01*
G01*
X120350016Y-70590006D01*
G75*
G02*
X120850016Y-71090006I0J-500000D01*
G01*
X120850016Y-72090006D01*
G75*
G02*
X120350016Y-72590006I-500000J0D01*
G01*
X119350016Y-72590006D01*
G75*
G02*
X118850016Y-72090006I0J500000D01*
G01*
G37*
%TD.AperFunction*%
%TD*%
%TO.N,Board_7-/-BATT_RAW*%
%TO.C,TP1*%
%TA.AperFunction,ComponentPad*%
G36*
G01*
X85830011Y-72090006D02*
X85830011Y-71090006D01*
G75*
G02*
X86330011Y-70590006I500000J0D01*
G01*
X87330011Y-70590006D01*
G75*
G02*
X87830011Y-71090006I0J-500000D01*
G01*
X87830011Y-72090006D01*
G75*
G02*
X87330011Y-72590006I-500000J0D01*
G01*
X86330011Y-72590006D01*
G75*
G02*
X85830011Y-72090006I0J500000D01*
G01*
G37*
%TD.AperFunction*%
%TD*%
%TO.N,Board_7-/+BATT*%
%TO.C,TP2*%
%TA.AperFunction,ComponentPad*%
G36*
G01*
X85830011Y-74630006D02*
X85830011Y-73630006D01*
G75*
G02*
X86330011Y-73130006I500000J0D01*
G01*
X87330011Y-73130006D01*
G75*
G02*
X87830011Y-73630006I0J-500000D01*
G01*
X87830011Y-74630006D01*
G75*
G02*
X87330011Y-75130006I-500000J0D01*
G01*
X86330011Y-75130006D01*
G75*
G02*
X85830011Y-74630006I0J500000D01*
G01*
G37*
%TD.AperFunction*%
%TD*%
%TO.N,Board_7-GND*%
%TO.C,TP3*%
%TA.AperFunction,ComponentPad*%
G36*
G01*
X85830011Y-79710006D02*
X85830011Y-78710006D01*
G75*
G02*
X86330011Y-78210006I500000J0D01*
G01*
X87330011Y-78210006D01*
G75*
G02*
X87830011Y-78710006I0J-500000D01*
G01*
X87830011Y-79710006D01*
G75*
G02*
X87330011Y-80210006I-500000J0D01*
G01*
X86330011Y-80210006D01*
G75*
G02*
X85830011Y-79710006I0J500000D01*
G01*
G37*
%TD.AperFunction*%
%TD*%
%TO.N,Board_7-/+CHARGE*%
%TO.C,TP4*%
%TA.AperFunction,ComponentPad*%
G36*
G01*
X85830011Y-82250006D02*
X85830011Y-81250006D01*
G75*
G02*
X86330011Y-80750006I500000J0D01*
G01*
X87330011Y-80750006D01*
G75*
G02*
X87830011Y-81250006I0J-500000D01*
G01*
X87830011Y-82250006D01*
G75*
G02*
X87330011Y-82750006I-500000J0D01*
G01*
X86330011Y-82750006D01*
G75*
G02*
X85830011Y-82250006I0J500000D01*
G01*
G37*
%TD.AperFunction*%
%TD*%
%TO.N,Board_7-/3v3_EN*%
%TO.C,TP5*%
%TA.AperFunction,ComponentPad*%
G36*
G01*
X85830011Y-77170006D02*
X85830011Y-76170006D01*
G75*
G02*
X86330011Y-75670006I500000J0D01*
G01*
X87330011Y-75670006D01*
G75*
G02*
X87830011Y-76170006I0J-500000D01*
G01*
X87830011Y-77170006D01*
G75*
G02*
X87330011Y-77670006I-500000J0D01*
G01*
X86330011Y-77670006D01*
G75*
G02*
X85830011Y-77170006I0J500000D01*
G01*
G37*
%TD.AperFunction*%
%TD*%
%TO.N,Board_7-/VMAX*%
%TO.C,TP6*%
%TA.AperFunction,ComponentPad*%
G36*
G01*
X101070011Y-82250006D02*
X101070011Y-81250006D01*
G75*
G02*
X101570011Y-80750006I500000J0D01*
G01*
X102570011Y-80750006D01*
G75*
G02*
X103070011Y-81250006I0J-500000D01*
G01*
X103070011Y-82250006D01*
G75*
G02*
X102570011Y-82750006I-500000J0D01*
G01*
X101570011Y-82750006D01*
G75*
G02*
X101070011Y-82250006I0J500000D01*
G01*
G37*
%TD.AperFunction*%
%TD*%
%TO.N,Board_7-/+BATT*%
%TO.C,TP7*%
%TA.AperFunction,ComponentPad*%
G36*
G01*
X101070011Y-74630006D02*
X101070011Y-73630006D01*
G75*
G02*
X101570011Y-73130006I500000J0D01*
G01*
X102570011Y-73130006D01*
G75*
G02*
X103070011Y-73630006I0J-500000D01*
G01*
X103070011Y-74630006D01*
G75*
G02*
X102570011Y-75130006I-500000J0D01*
G01*
X101570011Y-75130006D01*
G75*
G02*
X101070011Y-74630006I0J500000D01*
G01*
G37*
%TD.AperFunction*%
%TD*%
%TO.N,Board_7-/+3v3*%
%TO.C,TP8*%
%TA.AperFunction,ComponentPad*%
G36*
G01*
X101070011Y-77170006D02*
X101070011Y-76170006D01*
G75*
G02*
X101570011Y-75670006I500000J0D01*
G01*
X102570011Y-75670006D01*
G75*
G02*
X103070011Y-76170006I0J-500000D01*
G01*
X103070011Y-77170006D01*
G75*
G02*
X102570011Y-77670006I-500000J0D01*
G01*
X101570011Y-77670006D01*
G75*
G02*
X101070011Y-77170006I0J500000D01*
G01*
G37*
%TD.AperFunction*%
%TD*%
%TO.N,Board_7-/STAT*%
%TO.C,TP9*%
%TA.AperFunction,ComponentPad*%
G36*
G01*
X101070011Y-79710006D02*
X101070011Y-78710006D01*
G75*
G02*
X101570011Y-78210006I500000J0D01*
G01*
X102570011Y-78210006D01*
G75*
G02*
X103070011Y-78710006I0J-500000D01*
G01*
X103070011Y-79710006D01*
G75*
G02*
X102570011Y-80210006I-500000J0D01*
G01*
X101570011Y-80210006D01*
G75*
G02*
X101070011Y-79710006I0J500000D01*
G01*
G37*
%TD.AperFunction*%
%TD*%
%TO.N,Board_7-GND*%
%TO.C,TP10*%
%TA.AperFunction,ComponentPad*%
G36*
G01*
X101070011Y-72090006D02*
X101070011Y-71090006D01*
G75*
G02*
X101570011Y-70590006I500000J0D01*
G01*
X102570011Y-70590006D01*
G75*
G02*
X103070011Y-71090006I0J-500000D01*
G01*
X103070011Y-72090006D01*
G75*
G02*
X102570011Y-72590006I-500000J0D01*
G01*
X101570011Y-72590006D01*
G75*
G02*
X101070011Y-72090006I0J500000D01*
G01*
G37*
%TD.AperFunction*%
%TD*%
%TO.N,Board_6-/-BATT_RAW*%
%TO.C,TP1*%
%TA.AperFunction,ComponentPad*%
G36*
G01*
X68050006Y-72090006D02*
X68050006Y-71090006D01*
G75*
G02*
X68550006Y-70590006I500000J0D01*
G01*
X69550006Y-70590006D01*
G75*
G02*
X70050006Y-71090006I0J-500000D01*
G01*
X70050006Y-72090006D01*
G75*
G02*
X69550006Y-72590006I-500000J0D01*
G01*
X68550006Y-72590006D01*
G75*
G02*
X68050006Y-72090006I0J500000D01*
G01*
G37*
%TD.AperFunction*%
%TD*%
%TO.N,Board_6-/+BATT*%
%TO.C,TP2*%
%TA.AperFunction,ComponentPad*%
G36*
G01*
X68050006Y-74630006D02*
X68050006Y-73630006D01*
G75*
G02*
X68550006Y-73130006I500000J0D01*
G01*
X69550006Y-73130006D01*
G75*
G02*
X70050006Y-73630006I0J-500000D01*
G01*
X70050006Y-74630006D01*
G75*
G02*
X69550006Y-75130006I-500000J0D01*
G01*
X68550006Y-75130006D01*
G75*
G02*
X68050006Y-74630006I0J500000D01*
G01*
G37*
%TD.AperFunction*%
%TD*%
%TO.N,Board_6-GND*%
%TO.C,TP3*%
%TA.AperFunction,ComponentPad*%
G36*
G01*
X68050006Y-79710006D02*
X68050006Y-78710006D01*
G75*
G02*
X68550006Y-78210006I500000J0D01*
G01*
X69550006Y-78210006D01*
G75*
G02*
X70050006Y-78710006I0J-500000D01*
G01*
X70050006Y-79710006D01*
G75*
G02*
X69550006Y-80210006I-500000J0D01*
G01*
X68550006Y-80210006D01*
G75*
G02*
X68050006Y-79710006I0J500000D01*
G01*
G37*
%TD.AperFunction*%
%TD*%
%TO.N,Board_6-/+CHARGE*%
%TO.C,TP4*%
%TA.AperFunction,ComponentPad*%
G36*
G01*
X68050006Y-82250006D02*
X68050006Y-81250006D01*
G75*
G02*
X68550006Y-80750006I500000J0D01*
G01*
X69550006Y-80750006D01*
G75*
G02*
X70050006Y-81250006I0J-500000D01*
G01*
X70050006Y-82250006D01*
G75*
G02*
X69550006Y-82750006I-500000J0D01*
G01*
X68550006Y-82750006D01*
G75*
G02*
X68050006Y-82250006I0J500000D01*
G01*
G37*
%TD.AperFunction*%
%TD*%
%TO.N,Board_6-/3v3_EN*%
%TO.C,TP5*%
%TA.AperFunction,ComponentPad*%
G36*
G01*
X68050006Y-77170006D02*
X68050006Y-76170006D01*
G75*
G02*
X68550006Y-75670006I500000J0D01*
G01*
X69550006Y-75670006D01*
G75*
G02*
X70050006Y-76170006I0J-500000D01*
G01*
X70050006Y-77170006D01*
G75*
G02*
X69550006Y-77670006I-500000J0D01*
G01*
X68550006Y-77670006D01*
G75*
G02*
X68050006Y-77170006I0J500000D01*
G01*
G37*
%TD.AperFunction*%
%TD*%
%TO.N,Board_6-/VMAX*%
%TO.C,TP6*%
%TA.AperFunction,ComponentPad*%
G36*
G01*
X83290006Y-82250006D02*
X83290006Y-81250006D01*
G75*
G02*
X83790006Y-80750006I500000J0D01*
G01*
X84790006Y-80750006D01*
G75*
G02*
X85290006Y-81250006I0J-500000D01*
G01*
X85290006Y-82250006D01*
G75*
G02*
X84790006Y-82750006I-500000J0D01*
G01*
X83790006Y-82750006D01*
G75*
G02*
X83290006Y-82250006I0J500000D01*
G01*
G37*
%TD.AperFunction*%
%TD*%
%TO.N,Board_6-/+BATT*%
%TO.C,TP7*%
%TA.AperFunction,ComponentPad*%
G36*
G01*
X83290006Y-74630006D02*
X83290006Y-73630006D01*
G75*
G02*
X83790006Y-73130006I500000J0D01*
G01*
X84790006Y-73130006D01*
G75*
G02*
X85290006Y-73630006I0J-500000D01*
G01*
X85290006Y-74630006D01*
G75*
G02*
X84790006Y-75130006I-500000J0D01*
G01*
X83790006Y-75130006D01*
G75*
G02*
X83290006Y-74630006I0J500000D01*
G01*
G37*
%TD.AperFunction*%
%TD*%
%TO.N,Board_6-/+3v3*%
%TO.C,TP8*%
%TA.AperFunction,ComponentPad*%
G36*
G01*
X83290006Y-77170006D02*
X83290006Y-76170006D01*
G75*
G02*
X83790006Y-75670006I500000J0D01*
G01*
X84790006Y-75670006D01*
G75*
G02*
X85290006Y-76170006I0J-500000D01*
G01*
X85290006Y-77170006D01*
G75*
G02*
X84790006Y-77670006I-500000J0D01*
G01*
X83790006Y-77670006D01*
G75*
G02*
X83290006Y-77170006I0J500000D01*
G01*
G37*
%TD.AperFunction*%
%TD*%
%TO.N,Board_6-/STAT*%
%TO.C,TP9*%
%TA.AperFunction,ComponentPad*%
G36*
G01*
X83290006Y-79710006D02*
X83290006Y-78710006D01*
G75*
G02*
X83790006Y-78210006I500000J0D01*
G01*
X84790006Y-78210006D01*
G75*
G02*
X85290006Y-78710006I0J-500000D01*
G01*
X85290006Y-79710006D01*
G75*
G02*
X84790006Y-80210006I-500000J0D01*
G01*
X83790006Y-80210006D01*
G75*
G02*
X83290006Y-79710006I0J500000D01*
G01*
G37*
%TD.AperFunction*%
%TD*%
%TO.N,Board_6-GND*%
%TO.C,TP10*%
%TA.AperFunction,ComponentPad*%
G36*
G01*
X83290006Y-72090006D02*
X83290006Y-71090006D01*
G75*
G02*
X83790006Y-70590006I500000J0D01*
G01*
X84790006Y-70590006D01*
G75*
G02*
X85290006Y-71090006I0J-500000D01*
G01*
X85290006Y-72090006D01*
G75*
G02*
X84790006Y-72590006I-500000J0D01*
G01*
X83790006Y-72590006D01*
G75*
G02*
X83290006Y-72090006I0J500000D01*
G01*
G37*
%TD.AperFunction*%
%TD*%
%TO.N,Board_5-/-BATT_RAW*%
%TO.C,TP1*%
%TA.AperFunction,ComponentPad*%
G36*
G01*
X50270001Y-72090006D02*
X50270001Y-71090006D01*
G75*
G02*
X50770001Y-70590006I500000J0D01*
G01*
X51770001Y-70590006D01*
G75*
G02*
X52270001Y-71090006I0J-500000D01*
G01*
X52270001Y-72090006D01*
G75*
G02*
X51770001Y-72590006I-500000J0D01*
G01*
X50770001Y-72590006D01*
G75*
G02*
X50270001Y-72090006I0J500000D01*
G01*
G37*
%TD.AperFunction*%
%TD*%
%TO.N,Board_5-/+BATT*%
%TO.C,TP2*%
%TA.AperFunction,ComponentPad*%
G36*
G01*
X50270001Y-74630006D02*
X50270001Y-73630006D01*
G75*
G02*
X50770001Y-73130006I500000J0D01*
G01*
X51770001Y-73130006D01*
G75*
G02*
X52270001Y-73630006I0J-500000D01*
G01*
X52270001Y-74630006D01*
G75*
G02*
X51770001Y-75130006I-500000J0D01*
G01*
X50770001Y-75130006D01*
G75*
G02*
X50270001Y-74630006I0J500000D01*
G01*
G37*
%TD.AperFunction*%
%TD*%
%TO.N,Board_5-GND*%
%TO.C,TP3*%
%TA.AperFunction,ComponentPad*%
G36*
G01*
X50270001Y-79710006D02*
X50270001Y-78710006D01*
G75*
G02*
X50770001Y-78210006I500000J0D01*
G01*
X51770001Y-78210006D01*
G75*
G02*
X52270001Y-78710006I0J-500000D01*
G01*
X52270001Y-79710006D01*
G75*
G02*
X51770001Y-80210006I-500000J0D01*
G01*
X50770001Y-80210006D01*
G75*
G02*
X50270001Y-79710006I0J500000D01*
G01*
G37*
%TD.AperFunction*%
%TD*%
%TO.N,Board_5-/+CHARGE*%
%TO.C,TP4*%
%TA.AperFunction,ComponentPad*%
G36*
G01*
X50270001Y-82250006D02*
X50270001Y-81250006D01*
G75*
G02*
X50770001Y-80750006I500000J0D01*
G01*
X51770001Y-80750006D01*
G75*
G02*
X52270001Y-81250006I0J-500000D01*
G01*
X52270001Y-82250006D01*
G75*
G02*
X51770001Y-82750006I-500000J0D01*
G01*
X50770001Y-82750006D01*
G75*
G02*
X50270001Y-82250006I0J500000D01*
G01*
G37*
%TD.AperFunction*%
%TD*%
%TO.N,Board_5-/3v3_EN*%
%TO.C,TP5*%
%TA.AperFunction,ComponentPad*%
G36*
G01*
X50270001Y-77170006D02*
X50270001Y-76170006D01*
G75*
G02*
X50770001Y-75670006I500000J0D01*
G01*
X51770001Y-75670006D01*
G75*
G02*
X52270001Y-76170006I0J-500000D01*
G01*
X52270001Y-77170006D01*
G75*
G02*
X51770001Y-77670006I-500000J0D01*
G01*
X50770001Y-77670006D01*
G75*
G02*
X50270001Y-77170006I0J500000D01*
G01*
G37*
%TD.AperFunction*%
%TD*%
%TO.N,Board_5-/VMAX*%
%TO.C,TP6*%
%TA.AperFunction,ComponentPad*%
G36*
G01*
X65510001Y-82250006D02*
X65510001Y-81250006D01*
G75*
G02*
X66010001Y-80750006I500000J0D01*
G01*
X67010001Y-80750006D01*
G75*
G02*
X67510001Y-81250006I0J-500000D01*
G01*
X67510001Y-82250006D01*
G75*
G02*
X67010001Y-82750006I-500000J0D01*
G01*
X66010001Y-82750006D01*
G75*
G02*
X65510001Y-82250006I0J500000D01*
G01*
G37*
%TD.AperFunction*%
%TD*%
%TO.N,Board_5-/+BATT*%
%TO.C,TP7*%
%TA.AperFunction,ComponentPad*%
G36*
G01*
X65510001Y-74630006D02*
X65510001Y-73630006D01*
G75*
G02*
X66010001Y-73130006I500000J0D01*
G01*
X67010001Y-73130006D01*
G75*
G02*
X67510001Y-73630006I0J-500000D01*
G01*
X67510001Y-74630006D01*
G75*
G02*
X67010001Y-75130006I-500000J0D01*
G01*
X66010001Y-75130006D01*
G75*
G02*
X65510001Y-74630006I0J500000D01*
G01*
G37*
%TD.AperFunction*%
%TD*%
%TO.N,Board_5-/+3v3*%
%TO.C,TP8*%
%TA.AperFunction,ComponentPad*%
G36*
G01*
X65510001Y-77170006D02*
X65510001Y-76170006D01*
G75*
G02*
X66010001Y-75670006I500000J0D01*
G01*
X67010001Y-75670006D01*
G75*
G02*
X67510001Y-76170006I0J-500000D01*
G01*
X67510001Y-77170006D01*
G75*
G02*
X67010001Y-77670006I-500000J0D01*
G01*
X66010001Y-77670006D01*
G75*
G02*
X65510001Y-77170006I0J500000D01*
G01*
G37*
%TD.AperFunction*%
%TD*%
%TO.N,Board_5-/STAT*%
%TO.C,TP9*%
%TA.AperFunction,ComponentPad*%
G36*
G01*
X65510001Y-79710006D02*
X65510001Y-78710006D01*
G75*
G02*
X66010001Y-78210006I500000J0D01*
G01*
X67010001Y-78210006D01*
G75*
G02*
X67510001Y-78710006I0J-500000D01*
G01*
X67510001Y-79710006D01*
G75*
G02*
X67010001Y-80210006I-500000J0D01*
G01*
X66010001Y-80210006D01*
G75*
G02*
X65510001Y-79710006I0J500000D01*
G01*
G37*
%TD.AperFunction*%
%TD*%
%TO.N,Board_5-GND*%
%TO.C,TP10*%
%TA.AperFunction,ComponentPad*%
G36*
G01*
X65510001Y-72090006D02*
X65510001Y-71090006D01*
G75*
G02*
X66010001Y-70590006I500000J0D01*
G01*
X67010001Y-70590006D01*
G75*
G02*
X67510001Y-71090006I0J-500000D01*
G01*
X67510001Y-72090006D01*
G75*
G02*
X67010001Y-72590006I-500000J0D01*
G01*
X66010001Y-72590006D01*
G75*
G02*
X65510001Y-72090006I0J500000D01*
G01*
G37*
%TD.AperFunction*%
%TD*%
%TO.N,Board_4-/-BATT_RAW*%
%TO.C,TP1*%
%TA.AperFunction,ComponentPad*%
G36*
G01*
X103610016Y-54310001D02*
X103610016Y-53310001D01*
G75*
G02*
X104110016Y-52810001I500000J0D01*
G01*
X105110016Y-52810001D01*
G75*
G02*
X105610016Y-53310001I0J-500000D01*
G01*
X105610016Y-54310001D01*
G75*
G02*
X105110016Y-54810001I-500000J0D01*
G01*
X104110016Y-54810001D01*
G75*
G02*
X103610016Y-54310001I0J500000D01*
G01*
G37*
%TD.AperFunction*%
%TD*%
%TO.N,Board_4-/+BATT*%
%TO.C,TP2*%
%TA.AperFunction,ComponentPad*%
G36*
G01*
X103610016Y-56850001D02*
X103610016Y-55850001D01*
G75*
G02*
X104110016Y-55350001I500000J0D01*
G01*
X105110016Y-55350001D01*
G75*
G02*
X105610016Y-55850001I0J-500000D01*
G01*
X105610016Y-56850001D01*
G75*
G02*
X105110016Y-57350001I-500000J0D01*
G01*
X104110016Y-57350001D01*
G75*
G02*
X103610016Y-56850001I0J500000D01*
G01*
G37*
%TD.AperFunction*%
%TD*%
%TO.N,Board_4-GND*%
%TO.C,TP3*%
%TA.AperFunction,ComponentPad*%
G36*
G01*
X103610016Y-61930001D02*
X103610016Y-60930001D01*
G75*
G02*
X104110016Y-60430001I500000J0D01*
G01*
X105110016Y-60430001D01*
G75*
G02*
X105610016Y-60930001I0J-500000D01*
G01*
X105610016Y-61930001D01*
G75*
G02*
X105110016Y-62430001I-500000J0D01*
G01*
X104110016Y-62430001D01*
G75*
G02*
X103610016Y-61930001I0J500000D01*
G01*
G37*
%TD.AperFunction*%
%TD*%
%TO.N,Board_4-/+CHARGE*%
%TO.C,TP4*%
%TA.AperFunction,ComponentPad*%
G36*
G01*
X103610016Y-64470001D02*
X103610016Y-63470001D01*
G75*
G02*
X104110016Y-62970001I500000J0D01*
G01*
X105110016Y-62970001D01*
G75*
G02*
X105610016Y-63470001I0J-500000D01*
G01*
X105610016Y-64470001D01*
G75*
G02*
X105110016Y-64970001I-500000J0D01*
G01*
X104110016Y-64970001D01*
G75*
G02*
X103610016Y-64470001I0J500000D01*
G01*
G37*
%TD.AperFunction*%
%TD*%
%TO.N,Board_4-/3v3_EN*%
%TO.C,TP5*%
%TA.AperFunction,ComponentPad*%
G36*
G01*
X103610016Y-59390001D02*
X103610016Y-58390001D01*
G75*
G02*
X104110016Y-57890001I500000J0D01*
G01*
X105110016Y-57890001D01*
G75*
G02*
X105610016Y-58390001I0J-500000D01*
G01*
X105610016Y-59390001D01*
G75*
G02*
X105110016Y-59890001I-500000J0D01*
G01*
X104110016Y-59890001D01*
G75*
G02*
X103610016Y-59390001I0J500000D01*
G01*
G37*
%TD.AperFunction*%
%TD*%
%TO.N,Board_4-/VMAX*%
%TO.C,TP6*%
%TA.AperFunction,ComponentPad*%
G36*
G01*
X118850016Y-64470001D02*
X118850016Y-63470001D01*
G75*
G02*
X119350016Y-62970001I500000J0D01*
G01*
X120350016Y-62970001D01*
G75*
G02*
X120850016Y-63470001I0J-500000D01*
G01*
X120850016Y-64470001D01*
G75*
G02*
X120350016Y-64970001I-500000J0D01*
G01*
X119350016Y-64970001D01*
G75*
G02*
X118850016Y-64470001I0J500000D01*
G01*
G37*
%TD.AperFunction*%
%TD*%
%TO.N,Board_4-/+BATT*%
%TO.C,TP7*%
%TA.AperFunction,ComponentPad*%
G36*
G01*
X118850016Y-56850001D02*
X118850016Y-55850001D01*
G75*
G02*
X119350016Y-55350001I500000J0D01*
G01*
X120350016Y-55350001D01*
G75*
G02*
X120850016Y-55850001I0J-500000D01*
G01*
X120850016Y-56850001D01*
G75*
G02*
X120350016Y-57350001I-500000J0D01*
G01*
X119350016Y-57350001D01*
G75*
G02*
X118850016Y-56850001I0J500000D01*
G01*
G37*
%TD.AperFunction*%
%TD*%
%TO.N,Board_4-/+3v3*%
%TO.C,TP8*%
%TA.AperFunction,ComponentPad*%
G36*
G01*
X118850016Y-59390001D02*
X118850016Y-58390001D01*
G75*
G02*
X119350016Y-57890001I500000J0D01*
G01*
X120350016Y-57890001D01*
G75*
G02*
X120850016Y-58390001I0J-500000D01*
G01*
X120850016Y-59390001D01*
G75*
G02*
X120350016Y-59890001I-500000J0D01*
G01*
X119350016Y-59890001D01*
G75*
G02*
X118850016Y-59390001I0J500000D01*
G01*
G37*
%TD.AperFunction*%
%TD*%
%TO.N,Board_4-/STAT*%
%TO.C,TP9*%
%TA.AperFunction,ComponentPad*%
G36*
G01*
X118850016Y-61930001D02*
X118850016Y-60930001D01*
G75*
G02*
X119350016Y-60430001I500000J0D01*
G01*
X120350016Y-60430001D01*
G75*
G02*
X120850016Y-60930001I0J-500000D01*
G01*
X120850016Y-61930001D01*
G75*
G02*
X120350016Y-62430001I-500000J0D01*
G01*
X119350016Y-62430001D01*
G75*
G02*
X118850016Y-61930001I0J500000D01*
G01*
G37*
%TD.AperFunction*%
%TD*%
%TO.N,Board_4-GND*%
%TO.C,TP10*%
%TA.AperFunction,ComponentPad*%
G36*
G01*
X118850016Y-54310001D02*
X118850016Y-53310001D01*
G75*
G02*
X119350016Y-52810001I500000J0D01*
G01*
X120350016Y-52810001D01*
G75*
G02*
X120850016Y-53310001I0J-500000D01*
G01*
X120850016Y-54310001D01*
G75*
G02*
X120350016Y-54810001I-500000J0D01*
G01*
X119350016Y-54810001D01*
G75*
G02*
X118850016Y-54310001I0J500000D01*
G01*
G37*
%TD.AperFunction*%
%TD*%
%TO.N,Board_3-/-BATT_RAW*%
%TO.C,TP1*%
%TA.AperFunction,ComponentPad*%
G36*
G01*
X85830011Y-54310001D02*
X85830011Y-53310001D01*
G75*
G02*
X86330011Y-52810001I500000J0D01*
G01*
X87330011Y-52810001D01*
G75*
G02*
X87830011Y-53310001I0J-500000D01*
G01*
X87830011Y-54310001D01*
G75*
G02*
X87330011Y-54810001I-500000J0D01*
G01*
X86330011Y-54810001D01*
G75*
G02*
X85830011Y-54310001I0J500000D01*
G01*
G37*
%TD.AperFunction*%
%TD*%
%TO.N,Board_3-/+BATT*%
%TO.C,TP2*%
%TA.AperFunction,ComponentPad*%
G36*
G01*
X85830011Y-56850001D02*
X85830011Y-55850001D01*
G75*
G02*
X86330011Y-55350001I500000J0D01*
G01*
X87330011Y-55350001D01*
G75*
G02*
X87830011Y-55850001I0J-500000D01*
G01*
X87830011Y-56850001D01*
G75*
G02*
X87330011Y-57350001I-500000J0D01*
G01*
X86330011Y-57350001D01*
G75*
G02*
X85830011Y-56850001I0J500000D01*
G01*
G37*
%TD.AperFunction*%
%TD*%
%TO.N,Board_3-GND*%
%TO.C,TP3*%
%TA.AperFunction,ComponentPad*%
G36*
G01*
X85830011Y-61930001D02*
X85830011Y-60930001D01*
G75*
G02*
X86330011Y-60430001I500000J0D01*
G01*
X87330011Y-60430001D01*
G75*
G02*
X87830011Y-60930001I0J-500000D01*
G01*
X87830011Y-61930001D01*
G75*
G02*
X87330011Y-62430001I-500000J0D01*
G01*
X86330011Y-62430001D01*
G75*
G02*
X85830011Y-61930001I0J500000D01*
G01*
G37*
%TD.AperFunction*%
%TD*%
%TO.N,Board_3-/+CHARGE*%
%TO.C,TP4*%
%TA.AperFunction,ComponentPad*%
G36*
G01*
X85830011Y-64470001D02*
X85830011Y-63470001D01*
G75*
G02*
X86330011Y-62970001I500000J0D01*
G01*
X87330011Y-62970001D01*
G75*
G02*
X87830011Y-63470001I0J-500000D01*
G01*
X87830011Y-64470001D01*
G75*
G02*
X87330011Y-64970001I-500000J0D01*
G01*
X86330011Y-64970001D01*
G75*
G02*
X85830011Y-64470001I0J500000D01*
G01*
G37*
%TD.AperFunction*%
%TD*%
%TO.N,Board_3-/3v3_EN*%
%TO.C,TP5*%
%TA.AperFunction,ComponentPad*%
G36*
G01*
X85830011Y-59390001D02*
X85830011Y-58390001D01*
G75*
G02*
X86330011Y-57890001I500000J0D01*
G01*
X87330011Y-57890001D01*
G75*
G02*
X87830011Y-58390001I0J-500000D01*
G01*
X87830011Y-59390001D01*
G75*
G02*
X87330011Y-59890001I-500000J0D01*
G01*
X86330011Y-59890001D01*
G75*
G02*
X85830011Y-59390001I0J500000D01*
G01*
G37*
%TD.AperFunction*%
%TD*%
%TO.N,Board_3-/VMAX*%
%TO.C,TP6*%
%TA.AperFunction,ComponentPad*%
G36*
G01*
X101070011Y-64470001D02*
X101070011Y-63470001D01*
G75*
G02*
X101570011Y-62970001I500000J0D01*
G01*
X102570011Y-62970001D01*
G75*
G02*
X103070011Y-63470001I0J-500000D01*
G01*
X103070011Y-64470001D01*
G75*
G02*
X102570011Y-64970001I-500000J0D01*
G01*
X101570011Y-64970001D01*
G75*
G02*
X101070011Y-64470001I0J500000D01*
G01*
G37*
%TD.AperFunction*%
%TD*%
%TO.N,Board_3-/+BATT*%
%TO.C,TP7*%
%TA.AperFunction,ComponentPad*%
G36*
G01*
X101070011Y-56850001D02*
X101070011Y-55850001D01*
G75*
G02*
X101570011Y-55350001I500000J0D01*
G01*
X102570011Y-55350001D01*
G75*
G02*
X103070011Y-55850001I0J-500000D01*
G01*
X103070011Y-56850001D01*
G75*
G02*
X102570011Y-57350001I-500000J0D01*
G01*
X101570011Y-57350001D01*
G75*
G02*
X101070011Y-56850001I0J500000D01*
G01*
G37*
%TD.AperFunction*%
%TD*%
%TO.N,Board_3-/+3v3*%
%TO.C,TP8*%
%TA.AperFunction,ComponentPad*%
G36*
G01*
X101070011Y-59390001D02*
X101070011Y-58390001D01*
G75*
G02*
X101570011Y-57890001I500000J0D01*
G01*
X102570011Y-57890001D01*
G75*
G02*
X103070011Y-58390001I0J-500000D01*
G01*
X103070011Y-59390001D01*
G75*
G02*
X102570011Y-59890001I-500000J0D01*
G01*
X101570011Y-59890001D01*
G75*
G02*
X101070011Y-59390001I0J500000D01*
G01*
G37*
%TD.AperFunction*%
%TD*%
%TO.N,Board_3-/STAT*%
%TO.C,TP9*%
%TA.AperFunction,ComponentPad*%
G36*
G01*
X101070011Y-61930001D02*
X101070011Y-60930001D01*
G75*
G02*
X101570011Y-60430001I500000J0D01*
G01*
X102570011Y-60430001D01*
G75*
G02*
X103070011Y-60930001I0J-500000D01*
G01*
X103070011Y-61930001D01*
G75*
G02*
X102570011Y-62430001I-500000J0D01*
G01*
X101570011Y-62430001D01*
G75*
G02*
X101070011Y-61930001I0J500000D01*
G01*
G37*
%TD.AperFunction*%
%TD*%
%TO.N,Board_3-GND*%
%TO.C,TP10*%
%TA.AperFunction,ComponentPad*%
G36*
G01*
X101070011Y-54310001D02*
X101070011Y-53310001D01*
G75*
G02*
X101570011Y-52810001I500000J0D01*
G01*
X102570011Y-52810001D01*
G75*
G02*
X103070011Y-53310001I0J-500000D01*
G01*
X103070011Y-54310001D01*
G75*
G02*
X102570011Y-54810001I-500000J0D01*
G01*
X101570011Y-54810001D01*
G75*
G02*
X101070011Y-54310001I0J500000D01*
G01*
G37*
%TD.AperFunction*%
%TD*%
%TO.N,Board_2-/-BATT_RAW*%
%TO.C,TP1*%
%TA.AperFunction,ComponentPad*%
G36*
G01*
X68050006Y-54310001D02*
X68050006Y-53310001D01*
G75*
G02*
X68550006Y-52810001I500000J0D01*
G01*
X69550006Y-52810001D01*
G75*
G02*
X70050006Y-53310001I0J-500000D01*
G01*
X70050006Y-54310001D01*
G75*
G02*
X69550006Y-54810001I-500000J0D01*
G01*
X68550006Y-54810001D01*
G75*
G02*
X68050006Y-54310001I0J500000D01*
G01*
G37*
%TD.AperFunction*%
%TD*%
%TO.N,Board_2-/+BATT*%
%TO.C,TP2*%
%TA.AperFunction,ComponentPad*%
G36*
G01*
X68050006Y-56850001D02*
X68050006Y-55850001D01*
G75*
G02*
X68550006Y-55350001I500000J0D01*
G01*
X69550006Y-55350001D01*
G75*
G02*
X70050006Y-55850001I0J-500000D01*
G01*
X70050006Y-56850001D01*
G75*
G02*
X69550006Y-57350001I-500000J0D01*
G01*
X68550006Y-57350001D01*
G75*
G02*
X68050006Y-56850001I0J500000D01*
G01*
G37*
%TD.AperFunction*%
%TD*%
%TO.N,Board_2-GND*%
%TO.C,TP3*%
%TA.AperFunction,ComponentPad*%
G36*
G01*
X68050006Y-61930001D02*
X68050006Y-60930001D01*
G75*
G02*
X68550006Y-60430001I500000J0D01*
G01*
X69550006Y-60430001D01*
G75*
G02*
X70050006Y-60930001I0J-500000D01*
G01*
X70050006Y-61930001D01*
G75*
G02*
X69550006Y-62430001I-500000J0D01*
G01*
X68550006Y-62430001D01*
G75*
G02*
X68050006Y-61930001I0J500000D01*
G01*
G37*
%TD.AperFunction*%
%TD*%
%TO.N,Board_2-/+CHARGE*%
%TO.C,TP4*%
%TA.AperFunction,ComponentPad*%
G36*
G01*
X68050006Y-64470001D02*
X68050006Y-63470001D01*
G75*
G02*
X68550006Y-62970001I500000J0D01*
G01*
X69550006Y-62970001D01*
G75*
G02*
X70050006Y-63470001I0J-500000D01*
G01*
X70050006Y-64470001D01*
G75*
G02*
X69550006Y-64970001I-500000J0D01*
G01*
X68550006Y-64970001D01*
G75*
G02*
X68050006Y-64470001I0J500000D01*
G01*
G37*
%TD.AperFunction*%
%TD*%
%TO.N,Board_2-/3v3_EN*%
%TO.C,TP5*%
%TA.AperFunction,ComponentPad*%
G36*
G01*
X68050006Y-59390001D02*
X68050006Y-58390001D01*
G75*
G02*
X68550006Y-57890001I500000J0D01*
G01*
X69550006Y-57890001D01*
G75*
G02*
X70050006Y-58390001I0J-500000D01*
G01*
X70050006Y-59390001D01*
G75*
G02*
X69550006Y-59890001I-500000J0D01*
G01*
X68550006Y-59890001D01*
G75*
G02*
X68050006Y-59390001I0J500000D01*
G01*
G37*
%TD.AperFunction*%
%TD*%
%TO.N,Board_2-/VMAX*%
%TO.C,TP6*%
%TA.AperFunction,ComponentPad*%
G36*
G01*
X83290006Y-64470001D02*
X83290006Y-63470001D01*
G75*
G02*
X83790006Y-62970001I500000J0D01*
G01*
X84790006Y-62970001D01*
G75*
G02*
X85290006Y-63470001I0J-500000D01*
G01*
X85290006Y-64470001D01*
G75*
G02*
X84790006Y-64970001I-500000J0D01*
G01*
X83790006Y-64970001D01*
G75*
G02*
X83290006Y-64470001I0J500000D01*
G01*
G37*
%TD.AperFunction*%
%TD*%
%TO.N,Board_2-/+BATT*%
%TO.C,TP7*%
%TA.AperFunction,ComponentPad*%
G36*
G01*
X83290006Y-56850001D02*
X83290006Y-55850001D01*
G75*
G02*
X83790006Y-55350001I500000J0D01*
G01*
X84790006Y-55350001D01*
G75*
G02*
X85290006Y-55850001I0J-500000D01*
G01*
X85290006Y-56850001D01*
G75*
G02*
X84790006Y-57350001I-500000J0D01*
G01*
X83790006Y-57350001D01*
G75*
G02*
X83290006Y-56850001I0J500000D01*
G01*
G37*
%TD.AperFunction*%
%TD*%
%TO.N,Board_2-/+3v3*%
%TO.C,TP8*%
%TA.AperFunction,ComponentPad*%
G36*
G01*
X83290006Y-59390001D02*
X83290006Y-58390001D01*
G75*
G02*
X83790006Y-57890001I500000J0D01*
G01*
X84790006Y-57890001D01*
G75*
G02*
X85290006Y-58390001I0J-500000D01*
G01*
X85290006Y-59390001D01*
G75*
G02*
X84790006Y-59890001I-500000J0D01*
G01*
X83790006Y-59890001D01*
G75*
G02*
X83290006Y-59390001I0J500000D01*
G01*
G37*
%TD.AperFunction*%
%TD*%
%TO.N,Board_2-/STAT*%
%TO.C,TP9*%
%TA.AperFunction,ComponentPad*%
G36*
G01*
X83290006Y-61930001D02*
X83290006Y-60930001D01*
G75*
G02*
X83790006Y-60430001I500000J0D01*
G01*
X84790006Y-60430001D01*
G75*
G02*
X85290006Y-60930001I0J-500000D01*
G01*
X85290006Y-61930001D01*
G75*
G02*
X84790006Y-62430001I-500000J0D01*
G01*
X83790006Y-62430001D01*
G75*
G02*
X83290006Y-61930001I0J500000D01*
G01*
G37*
%TD.AperFunction*%
%TD*%
%TO.N,Board_2-GND*%
%TO.C,TP10*%
%TA.AperFunction,ComponentPad*%
G36*
G01*
X83290006Y-54310001D02*
X83290006Y-53310001D01*
G75*
G02*
X83790006Y-52810001I500000J0D01*
G01*
X84790006Y-52810001D01*
G75*
G02*
X85290006Y-53310001I0J-500000D01*
G01*
X85290006Y-54310001D01*
G75*
G02*
X84790006Y-54810001I-500000J0D01*
G01*
X83790006Y-54810001D01*
G75*
G02*
X83290006Y-54310001I0J500000D01*
G01*
G37*
%TD.AperFunction*%
%TD*%
%TO.N,Board_1-/-BATT_RAW*%
%TO.C,TP1*%
%TA.AperFunction,ComponentPad*%
G36*
G01*
X50270001Y-54310001D02*
X50270001Y-53310001D01*
G75*
G02*
X50770001Y-52810001I500000J0D01*
G01*
X51770001Y-52810001D01*
G75*
G02*
X52270001Y-53310001I0J-500000D01*
G01*
X52270001Y-54310001D01*
G75*
G02*
X51770001Y-54810001I-500000J0D01*
G01*
X50770001Y-54810001D01*
G75*
G02*
X50270001Y-54310001I0J500000D01*
G01*
G37*
%TD.AperFunction*%
%TD*%
%TO.N,Board_1-/+BATT*%
%TO.C,TP2*%
%TA.AperFunction,ComponentPad*%
G36*
G01*
X50270001Y-56850001D02*
X50270001Y-55850001D01*
G75*
G02*
X50770001Y-55350001I500000J0D01*
G01*
X51770001Y-55350001D01*
G75*
G02*
X52270001Y-55850001I0J-500000D01*
G01*
X52270001Y-56850001D01*
G75*
G02*
X51770001Y-57350001I-500000J0D01*
G01*
X50770001Y-57350001D01*
G75*
G02*
X50270001Y-56850001I0J500000D01*
G01*
G37*
%TD.AperFunction*%
%TD*%
%TO.N,Board_1-GND*%
%TO.C,TP3*%
%TA.AperFunction,ComponentPad*%
G36*
G01*
X50270001Y-61930001D02*
X50270001Y-60930001D01*
G75*
G02*
X50770001Y-60430001I500000J0D01*
G01*
X51770001Y-60430001D01*
G75*
G02*
X52270001Y-60930001I0J-500000D01*
G01*
X52270001Y-61930001D01*
G75*
G02*
X51770001Y-62430001I-500000J0D01*
G01*
X50770001Y-62430001D01*
G75*
G02*
X50270001Y-61930001I0J500000D01*
G01*
G37*
%TD.AperFunction*%
%TD*%
%TO.N,Board_1-/+CHARGE*%
%TO.C,TP4*%
%TA.AperFunction,ComponentPad*%
G36*
G01*
X50270001Y-64470001D02*
X50270001Y-63470001D01*
G75*
G02*
X50770001Y-62970001I500000J0D01*
G01*
X51770001Y-62970001D01*
G75*
G02*
X52270001Y-63470001I0J-500000D01*
G01*
X52270001Y-64470001D01*
G75*
G02*
X51770001Y-64970001I-500000J0D01*
G01*
X50770001Y-64970001D01*
G75*
G02*
X50270001Y-64470001I0J500000D01*
G01*
G37*
%TD.AperFunction*%
%TD*%
%TO.N,Board_1-/3v3_EN*%
%TO.C,TP5*%
%TA.AperFunction,ComponentPad*%
G36*
G01*
X50270001Y-59390001D02*
X50270001Y-58390001D01*
G75*
G02*
X50770001Y-57890001I500000J0D01*
G01*
X51770001Y-57890001D01*
G75*
G02*
X52270001Y-58390001I0J-500000D01*
G01*
X52270001Y-59390001D01*
G75*
G02*
X51770001Y-59890001I-500000J0D01*
G01*
X50770001Y-59890001D01*
G75*
G02*
X50270001Y-59390001I0J500000D01*
G01*
G37*
%TD.AperFunction*%
%TD*%
%TO.N,Board_1-/VMAX*%
%TO.C,TP6*%
%TA.AperFunction,ComponentPad*%
G36*
G01*
X65510001Y-64470001D02*
X65510001Y-63470001D01*
G75*
G02*
X66010001Y-62970001I500000J0D01*
G01*
X67010001Y-62970001D01*
G75*
G02*
X67510001Y-63470001I0J-500000D01*
G01*
X67510001Y-64470001D01*
G75*
G02*
X67010001Y-64970001I-500000J0D01*
G01*
X66010001Y-64970001D01*
G75*
G02*
X65510001Y-64470001I0J500000D01*
G01*
G37*
%TD.AperFunction*%
%TD*%
%TO.N,Board_1-/+BATT*%
%TO.C,TP7*%
%TA.AperFunction,ComponentPad*%
G36*
G01*
X65510001Y-56850001D02*
X65510001Y-55850001D01*
G75*
G02*
X66010001Y-55350001I500000J0D01*
G01*
X67010001Y-55350001D01*
G75*
G02*
X67510001Y-55850001I0J-500000D01*
G01*
X67510001Y-56850001D01*
G75*
G02*
X67010001Y-57350001I-500000J0D01*
G01*
X66010001Y-57350001D01*
G75*
G02*
X65510001Y-56850001I0J500000D01*
G01*
G37*
%TD.AperFunction*%
%TD*%
%TO.N,Board_1-/+3v3*%
%TO.C,TP8*%
%TA.AperFunction,ComponentPad*%
G36*
G01*
X65510001Y-59390001D02*
X65510001Y-58390001D01*
G75*
G02*
X66010001Y-57890001I500000J0D01*
G01*
X67010001Y-57890001D01*
G75*
G02*
X67510001Y-58390001I0J-500000D01*
G01*
X67510001Y-59390001D01*
G75*
G02*
X67010001Y-59890001I-500000J0D01*
G01*
X66010001Y-59890001D01*
G75*
G02*
X65510001Y-59390001I0J500000D01*
G01*
G37*
%TD.AperFunction*%
%TD*%
%TO.N,Board_1-/STAT*%
%TO.C,TP9*%
%TA.AperFunction,ComponentPad*%
G36*
G01*
X65510001Y-61930001D02*
X65510001Y-60930001D01*
G75*
G02*
X66010001Y-60430001I500000J0D01*
G01*
X67010001Y-60430001D01*
G75*
G02*
X67510001Y-60930001I0J-500000D01*
G01*
X67510001Y-61930001D01*
G75*
G02*
X67010001Y-62430001I-500000J0D01*
G01*
X66010001Y-62430001D01*
G75*
G02*
X65510001Y-61930001I0J500000D01*
G01*
G37*
%TD.AperFunction*%
%TD*%
%TO.N,Board_1-GND*%
%TO.C,TP10*%
%TA.AperFunction,ComponentPad*%
G36*
G01*
X65510001Y-54310001D02*
X65510001Y-53310001D01*
G75*
G02*
X66010001Y-52810001I500000J0D01*
G01*
X67010001Y-52810001D01*
G75*
G02*
X67510001Y-53310001I0J-500000D01*
G01*
X67510001Y-54310001D01*
G75*
G02*
X67010001Y-54810001I-500000J0D01*
G01*
X66010001Y-54810001D01*
G75*
G02*
X65510001Y-54310001I0J500000D01*
G01*
G37*
%TD.AperFunction*%
%TD*%
D10*
%TO.N,Board_1-/+BATT*%
X62954001Y-63970001D03*
D11*
X64859001Y-52730501D03*
D10*
%TO.N,Board_1-/+CHARGE*%
X64732001Y-66510001D03*
X58128001Y-66510011D03*
D11*
%TO.N,Board_1-/-BATT*%
X57175501Y-50762001D03*
X61176001Y-51079501D03*
D12*
%TO.N,Board_1-/3v3_EN*%
X61557001Y-63716001D03*
%TO.N,Board_1-/STAT*%
X55969001Y-53810001D03*
D10*
%TO.N,Board_1-/VMAX*%
X61176001Y-59779001D03*
D12*
%TO.N,Board_1-GND*%
X58636001Y-57747001D03*
X55842001Y-57747001D03*
X57239001Y-58636001D03*
X57239001Y-56858001D03*
X58636001Y-58636001D03*
X55842001Y-56858001D03*
X58636001Y-56858001D03*
X55842001Y-58636001D03*
D10*
X54064001Y-53302001D03*
D11*
X52921001Y-66383001D03*
D12*
X59588501Y-56858001D03*
X59588501Y-57747001D03*
X59588501Y-58636001D03*
X54889501Y-58636001D03*
X54889501Y-57747001D03*
X54889501Y-56858001D03*
D10*
%TO.N,Board_1-Net-(C1-Pad1)*%
X55969001Y-66510001D03*
X58255001Y-64351001D03*
D11*
X53175001Y-54190989D03*
%TO.N,Board_1-Net-(D1-Pad1)*%
X55334001Y-65494001D03*
X54318001Y-61811001D03*
X61557001Y-57620001D03*
%TO.N,Board_1-Net-(D2-Pad1)*%
X53302001Y-57620001D03*
X53683001Y-65621001D03*
%TO.N,Board_1-Net-(R6-Pad1)*%
X60922001Y-52032001D03*
X65621001Y-52159001D03*
D10*
%TO.N,Board_2-/+BATT*%
X80734006Y-63970001D03*
D11*
X82639006Y-52730501D03*
D10*
%TO.N,Board_2-/+CHARGE*%
X82512006Y-66510001D03*
X75908006Y-66510011D03*
D11*
%TO.N,Board_2-/-BATT*%
X74955506Y-50762001D03*
X78956006Y-51079501D03*
D12*
%TO.N,Board_2-/3v3_EN*%
X79337006Y-63716001D03*
%TO.N,Board_2-/STAT*%
X73749006Y-53810001D03*
D10*
%TO.N,Board_2-/VMAX*%
X78956006Y-59779001D03*
D12*
%TO.N,Board_2-GND*%
X76416006Y-57747001D03*
X73622006Y-57747001D03*
X75019006Y-58636001D03*
X75019006Y-56858001D03*
X76416006Y-58636001D03*
X73622006Y-56858001D03*
X76416006Y-56858001D03*
X73622006Y-58636001D03*
D10*
X71844006Y-53302001D03*
D11*
X70701006Y-66383001D03*
D12*
X77368506Y-56858001D03*
X77368506Y-57747001D03*
X77368506Y-58636001D03*
X72669506Y-58636001D03*
X72669506Y-57747001D03*
X72669506Y-56858001D03*
D10*
%TO.N,Board_2-Net-(C1-Pad1)*%
X73749006Y-66510001D03*
X76035006Y-64351001D03*
D11*
X70955006Y-54190989D03*
%TO.N,Board_2-Net-(D1-Pad1)*%
X73114006Y-65494001D03*
X72098006Y-61811001D03*
X79337006Y-57620001D03*
%TO.N,Board_2-Net-(D2-Pad1)*%
X71082006Y-57620001D03*
X71463006Y-65621001D03*
%TO.N,Board_2-Net-(R6-Pad1)*%
X78702006Y-52032001D03*
X83401006Y-52159001D03*
D10*
%TO.N,Board_3-/+BATT*%
X98514011Y-63970001D03*
D11*
X100419011Y-52730501D03*
D10*
%TO.N,Board_3-/+CHARGE*%
X100292011Y-66510001D03*
X93688011Y-66510011D03*
D11*
%TO.N,Board_3-/-BATT*%
X92735511Y-50762001D03*
X96736011Y-51079501D03*
D12*
%TO.N,Board_3-/3v3_EN*%
X97117011Y-63716001D03*
%TO.N,Board_3-/STAT*%
X91529011Y-53810001D03*
D10*
%TO.N,Board_3-/VMAX*%
X96736011Y-59779001D03*
D12*
%TO.N,Board_3-GND*%
X94196011Y-57747001D03*
X91402011Y-57747001D03*
X92799011Y-58636001D03*
X92799011Y-56858001D03*
X94196011Y-58636001D03*
X91402011Y-56858001D03*
X94196011Y-56858001D03*
X91402011Y-58636001D03*
D10*
X89624011Y-53302001D03*
D11*
X88481011Y-66383001D03*
D12*
X95148511Y-56858001D03*
X95148511Y-57747001D03*
X95148511Y-58636001D03*
X90449511Y-58636001D03*
X90449511Y-57747001D03*
X90449511Y-56858001D03*
D10*
%TO.N,Board_3-Net-(C1-Pad1)*%
X91529011Y-66510001D03*
X93815011Y-64351001D03*
D11*
X88735011Y-54190989D03*
%TO.N,Board_3-Net-(D1-Pad1)*%
X90894011Y-65494001D03*
X89878011Y-61811001D03*
X97117011Y-57620001D03*
%TO.N,Board_3-Net-(D2-Pad1)*%
X88862011Y-57620001D03*
X89243011Y-65621001D03*
%TO.N,Board_3-Net-(R6-Pad1)*%
X96482011Y-52032001D03*
X101181011Y-52159001D03*
D10*
%TO.N,Board_4-/+BATT*%
X116294016Y-63970001D03*
D11*
X118199016Y-52730501D03*
D10*
%TO.N,Board_4-/+CHARGE*%
X118072016Y-66510001D03*
X111468016Y-66510011D03*
D11*
%TO.N,Board_4-/-BATT*%
X110515516Y-50762001D03*
X114516016Y-51079501D03*
D12*
%TO.N,Board_4-/3v3_EN*%
X114897016Y-63716001D03*
%TO.N,Board_4-/STAT*%
X109309016Y-53810001D03*
D10*
%TO.N,Board_4-/VMAX*%
X114516016Y-59779001D03*
D12*
%TO.N,Board_4-GND*%
X111976016Y-57747001D03*
X109182016Y-57747001D03*
X110579016Y-58636001D03*
X110579016Y-56858001D03*
X111976016Y-58636001D03*
X109182016Y-56858001D03*
X111976016Y-56858001D03*
X109182016Y-58636001D03*
D10*
X107404016Y-53302001D03*
D11*
X106261016Y-66383001D03*
D12*
X112928516Y-56858001D03*
X112928516Y-57747001D03*
X112928516Y-58636001D03*
X108229516Y-58636001D03*
X108229516Y-57747001D03*
X108229516Y-56858001D03*
D10*
%TO.N,Board_4-Net-(C1-Pad1)*%
X109309016Y-66510001D03*
X111595016Y-64351001D03*
D11*
X106515016Y-54190989D03*
%TO.N,Board_4-Net-(D1-Pad1)*%
X108674016Y-65494001D03*
X107658016Y-61811001D03*
X114897016Y-57620001D03*
%TO.N,Board_4-Net-(D2-Pad1)*%
X106642016Y-57620001D03*
X107023016Y-65621001D03*
%TO.N,Board_4-Net-(R6-Pad1)*%
X114262016Y-52032001D03*
X118961016Y-52159001D03*
D10*
%TO.N,Board_5-/+BATT*%
X62954001Y-81750006D03*
D11*
X64859001Y-70510506D03*
D10*
%TO.N,Board_5-/+CHARGE*%
X64732001Y-84290006D03*
X58128001Y-84290016D03*
D11*
%TO.N,Board_5-/-BATT*%
X57175501Y-68542006D03*
X61176001Y-68859506D03*
D12*
%TO.N,Board_5-/3v3_EN*%
X61557001Y-81496006D03*
%TO.N,Board_5-/STAT*%
X55969001Y-71590006D03*
D10*
%TO.N,Board_5-/VMAX*%
X61176001Y-77559006D03*
D12*
%TO.N,Board_5-GND*%
X58636001Y-75527006D03*
X55842001Y-75527006D03*
X57239001Y-76416006D03*
X57239001Y-74638006D03*
X58636001Y-76416006D03*
X55842001Y-74638006D03*
X58636001Y-74638006D03*
X55842001Y-76416006D03*
D10*
X54064001Y-71082006D03*
D11*
X52921001Y-84163006D03*
D12*
X59588501Y-74638006D03*
X59588501Y-75527006D03*
X59588501Y-76416006D03*
X54889501Y-76416006D03*
X54889501Y-75527006D03*
X54889501Y-74638006D03*
D10*
%TO.N,Board_5-Net-(C1-Pad1)*%
X55969001Y-84290006D03*
X58255001Y-82131006D03*
D11*
X53175001Y-71970994D03*
%TO.N,Board_5-Net-(D1-Pad1)*%
X55334001Y-83274006D03*
X54318001Y-79591006D03*
X61557001Y-75400006D03*
%TO.N,Board_5-Net-(D2-Pad1)*%
X53302001Y-75400006D03*
X53683001Y-83401006D03*
%TO.N,Board_5-Net-(R6-Pad1)*%
X60922001Y-69812006D03*
X65621001Y-69939006D03*
D10*
%TO.N,Board_6-/+BATT*%
X80734006Y-81750006D03*
D11*
X82639006Y-70510506D03*
D10*
%TO.N,Board_6-/+CHARGE*%
X82512006Y-84290006D03*
X75908006Y-84290016D03*
D11*
%TO.N,Board_6-/-BATT*%
X74955506Y-68542006D03*
X78956006Y-68859506D03*
D12*
%TO.N,Board_6-/3v3_EN*%
X79337006Y-81496006D03*
%TO.N,Board_6-/STAT*%
X73749006Y-71590006D03*
D10*
%TO.N,Board_6-/VMAX*%
X78956006Y-77559006D03*
D12*
%TO.N,Board_6-GND*%
X76416006Y-75527006D03*
X73622006Y-75527006D03*
X75019006Y-76416006D03*
X75019006Y-74638006D03*
X76416006Y-76416006D03*
X73622006Y-74638006D03*
X76416006Y-74638006D03*
X73622006Y-76416006D03*
D10*
X71844006Y-71082006D03*
D11*
X70701006Y-84163006D03*
D12*
X77368506Y-74638006D03*
X77368506Y-75527006D03*
X77368506Y-76416006D03*
X72669506Y-76416006D03*
X72669506Y-75527006D03*
X72669506Y-74638006D03*
D10*
%TO.N,Board_6-Net-(C1-Pad1)*%
X73749006Y-84290006D03*
X76035006Y-82131006D03*
D11*
X70955006Y-71970994D03*
%TO.N,Board_6-Net-(D1-Pad1)*%
X73114006Y-83274006D03*
X72098006Y-79591006D03*
X79337006Y-75400006D03*
%TO.N,Board_6-Net-(D2-Pad1)*%
X71082006Y-75400006D03*
X71463006Y-83401006D03*
%TO.N,Board_6-Net-(R6-Pad1)*%
X78702006Y-69812006D03*
X83401006Y-69939006D03*
D10*
%TO.N,Board_7-/+BATT*%
X98514011Y-81750006D03*
D11*
X100419011Y-70510506D03*
D10*
%TO.N,Board_7-/+CHARGE*%
X100292011Y-84290006D03*
X93688011Y-84290016D03*
D11*
%TO.N,Board_7-/-BATT*%
X92735511Y-68542006D03*
X96736011Y-68859506D03*
D12*
%TO.N,Board_7-/3v3_EN*%
X97117011Y-81496006D03*
%TO.N,Board_7-/STAT*%
X91529011Y-71590006D03*
D10*
%TO.N,Board_7-/VMAX*%
X96736011Y-77559006D03*
D12*
%TO.N,Board_7-GND*%
X94196011Y-75527006D03*
X91402011Y-75527006D03*
X92799011Y-76416006D03*
X92799011Y-74638006D03*
X94196011Y-76416006D03*
X91402011Y-74638006D03*
X94196011Y-74638006D03*
X91402011Y-76416006D03*
D10*
X89624011Y-71082006D03*
D11*
X88481011Y-84163006D03*
D12*
X95148511Y-74638006D03*
X95148511Y-75527006D03*
X95148511Y-76416006D03*
X90449511Y-76416006D03*
X90449511Y-75527006D03*
X90449511Y-74638006D03*
D10*
%TO.N,Board_7-Net-(C1-Pad1)*%
X91529011Y-84290006D03*
X93815011Y-82131006D03*
D11*
X88735011Y-71970994D03*
%TO.N,Board_7-Net-(D1-Pad1)*%
X90894011Y-83274006D03*
X89878011Y-79591006D03*
X97117011Y-75400006D03*
%TO.N,Board_7-Net-(D2-Pad1)*%
X88862011Y-75400006D03*
X89243011Y-83401006D03*
%TO.N,Board_7-Net-(R6-Pad1)*%
X96482011Y-69812006D03*
X101181011Y-69939006D03*
D10*
%TO.N,Board_8-/+BATT*%
X116294016Y-81750006D03*
D11*
X118199016Y-70510506D03*
D10*
%TO.N,Board_8-/+CHARGE*%
X118072016Y-84290006D03*
X111468016Y-84290016D03*
D11*
%TO.N,Board_8-/-BATT*%
X110515516Y-68542006D03*
X114516016Y-68859506D03*
D12*
%TO.N,Board_8-/3v3_EN*%
X114897016Y-81496006D03*
%TO.N,Board_8-/STAT*%
X109309016Y-71590006D03*
D10*
%TO.N,Board_8-/VMAX*%
X114516016Y-77559006D03*
D12*
%TO.N,Board_8-GND*%
X111976016Y-75527006D03*
X109182016Y-75527006D03*
X110579016Y-76416006D03*
X110579016Y-74638006D03*
X111976016Y-76416006D03*
X109182016Y-74638006D03*
X111976016Y-74638006D03*
X109182016Y-76416006D03*
D10*
X107404016Y-71082006D03*
D11*
X106261016Y-84163006D03*
D12*
X112928516Y-74638006D03*
X112928516Y-75527006D03*
X112928516Y-76416006D03*
X108229516Y-76416006D03*
X108229516Y-75527006D03*
X108229516Y-74638006D03*
D10*
%TO.N,Board_8-Net-(C1-Pad1)*%
X109309016Y-84290006D03*
X111595016Y-82131006D03*
D11*
X106515016Y-71970994D03*
%TO.N,Board_8-Net-(D1-Pad1)*%
X108674016Y-83274006D03*
X107658016Y-79591006D03*
X114897016Y-75400006D03*
%TO.N,Board_8-Net-(D2-Pad1)*%
X106642016Y-75400006D03*
X107023016Y-83401006D03*
%TO.N,Board_8-Net-(R6-Pad1)*%
X114262016Y-69812006D03*
X118961016Y-69939006D03*
D10*
%TO.N,Board_9-/+BATT*%
X62954001Y-99530011D03*
D11*
X64859001Y-88290511D03*
D10*
%TO.N,Board_9-/+CHARGE*%
X64732001Y-102070011D03*
X58128001Y-102070021D03*
D11*
%TO.N,Board_9-/-BATT*%
X57175501Y-86322011D03*
X61176001Y-86639511D03*
D12*
%TO.N,Board_9-/3v3_EN*%
X61557001Y-99276011D03*
%TO.N,Board_9-/STAT*%
X55969001Y-89370011D03*
D10*
%TO.N,Board_9-/VMAX*%
X61176001Y-95339011D03*
D12*
%TO.N,Board_9-GND*%
X58636001Y-93307011D03*
X55842001Y-93307011D03*
X57239001Y-94196011D03*
X57239001Y-92418011D03*
X58636001Y-94196011D03*
X55842001Y-92418011D03*
X58636001Y-92418011D03*
X55842001Y-94196011D03*
D10*
X54064001Y-88862011D03*
D11*
X52921001Y-101943011D03*
D12*
X59588501Y-92418011D03*
X59588501Y-93307011D03*
X59588501Y-94196011D03*
X54889501Y-94196011D03*
X54889501Y-93307011D03*
X54889501Y-92418011D03*
D10*
%TO.N,Board_9-Net-(C1-Pad1)*%
X55969001Y-102070011D03*
X58255001Y-99911011D03*
D11*
X53175001Y-89750999D03*
%TO.N,Board_9-Net-(D1-Pad1)*%
X55334001Y-101054011D03*
X54318001Y-97371011D03*
X61557001Y-93180011D03*
%TO.N,Board_9-Net-(D2-Pad1)*%
X53302001Y-93180011D03*
X53683001Y-101181011D03*
%TO.N,Board_9-Net-(R6-Pad1)*%
X60922001Y-87592011D03*
X65621001Y-87719011D03*
D10*
%TO.N,Board_10-/+BATT*%
X80734006Y-99530011D03*
D11*
X82639006Y-88290511D03*
D10*
%TO.N,Board_10-/+CHARGE*%
X82512006Y-102070011D03*
X75908006Y-102070021D03*
D11*
%TO.N,Board_10-/-BATT*%
X74955506Y-86322011D03*
X78956006Y-86639511D03*
D12*
%TO.N,Board_10-/3v3_EN*%
X79337006Y-99276011D03*
%TO.N,Board_10-/STAT*%
X73749006Y-89370011D03*
D10*
%TO.N,Board_10-/VMAX*%
X78956006Y-95339011D03*
D12*
%TO.N,Board_10-GND*%
X76416006Y-93307011D03*
X73622006Y-93307011D03*
X75019006Y-94196011D03*
X75019006Y-92418011D03*
X76416006Y-94196011D03*
X73622006Y-92418011D03*
X76416006Y-92418011D03*
X73622006Y-94196011D03*
D10*
X71844006Y-88862011D03*
D11*
X70701006Y-101943011D03*
D12*
X77368506Y-92418011D03*
X77368506Y-93307011D03*
X77368506Y-94196011D03*
X72669506Y-94196011D03*
X72669506Y-93307011D03*
X72669506Y-92418011D03*
D10*
%TO.N,Board_10-Net-(C1-Pad1)*%
X73749006Y-102070011D03*
X76035006Y-99911011D03*
D11*
X70955006Y-89750999D03*
%TO.N,Board_10-Net-(D1-Pad1)*%
X73114006Y-101054011D03*
X72098006Y-97371011D03*
X79337006Y-93180011D03*
%TO.N,Board_10-Net-(D2-Pad1)*%
X71082006Y-93180011D03*
X71463006Y-101181011D03*
%TO.N,Board_10-Net-(R6-Pad1)*%
X78702006Y-87592011D03*
X83401006Y-87719011D03*
D10*
%TO.N,Board_11-/+BATT*%
X98514011Y-99530011D03*
D11*
X100419011Y-88290511D03*
D10*
%TO.N,Board_11-/+CHARGE*%
X100292011Y-102070011D03*
X93688011Y-102070021D03*
D11*
%TO.N,Board_11-/-BATT*%
X92735511Y-86322011D03*
X96736011Y-86639511D03*
D12*
%TO.N,Board_11-/3v3_EN*%
X97117011Y-99276011D03*
%TO.N,Board_11-/STAT*%
X91529011Y-89370011D03*
D10*
%TO.N,Board_11-/VMAX*%
X96736011Y-95339011D03*
D12*
%TO.N,Board_11-GND*%
X94196011Y-93307011D03*
X91402011Y-93307011D03*
X92799011Y-94196011D03*
X92799011Y-92418011D03*
X94196011Y-94196011D03*
X91402011Y-92418011D03*
X94196011Y-92418011D03*
X91402011Y-94196011D03*
D10*
X89624011Y-88862011D03*
D11*
X88481011Y-101943011D03*
D12*
X95148511Y-92418011D03*
X95148511Y-93307011D03*
X95148511Y-94196011D03*
X90449511Y-94196011D03*
X90449511Y-93307011D03*
X90449511Y-92418011D03*
D10*
%TO.N,Board_11-Net-(C1-Pad1)*%
X91529011Y-102070011D03*
X93815011Y-99911011D03*
D11*
X88735011Y-89750999D03*
%TO.N,Board_11-Net-(D1-Pad1)*%
X90894011Y-101054011D03*
X89878011Y-97371011D03*
X97117011Y-93180011D03*
%TO.N,Board_11-Net-(D2-Pad1)*%
X88862011Y-93180011D03*
X89243011Y-101181011D03*
%TO.N,Board_11-Net-(R6-Pad1)*%
X96482011Y-87592011D03*
X101181011Y-87719011D03*
D10*
%TO.N,Board_12-/+BATT*%
X116294016Y-99530011D03*
D11*
X118199016Y-88290511D03*
D10*
%TO.N,Board_12-/+CHARGE*%
X118072016Y-102070011D03*
X111468016Y-102070021D03*
D11*
%TO.N,Board_12-/-BATT*%
X110515516Y-86322011D03*
X114516016Y-86639511D03*
D12*
%TO.N,Board_12-/3v3_EN*%
X114897016Y-99276011D03*
%TO.N,Board_12-/STAT*%
X109309016Y-89370011D03*
D10*
%TO.N,Board_12-/VMAX*%
X114516016Y-95339011D03*
D12*
%TO.N,Board_12-GND*%
X111976016Y-93307011D03*
X109182016Y-93307011D03*
X110579016Y-94196011D03*
X110579016Y-92418011D03*
X111976016Y-94196011D03*
X109182016Y-92418011D03*
X111976016Y-92418011D03*
X109182016Y-94196011D03*
D10*
X107404016Y-88862011D03*
D11*
X106261016Y-101943011D03*
D12*
X112928516Y-92418011D03*
X112928516Y-93307011D03*
X112928516Y-94196011D03*
X108229516Y-94196011D03*
X108229516Y-93307011D03*
X108229516Y-92418011D03*
D10*
%TO.N,Board_12-Net-(C1-Pad1)*%
X109309016Y-102070011D03*
X111595016Y-99911011D03*
D11*
X106515016Y-89750999D03*
%TO.N,Board_12-Net-(D1-Pad1)*%
X108674016Y-101054011D03*
X107658016Y-97371011D03*
X114897016Y-93180011D03*
%TO.N,Board_12-Net-(D2-Pad1)*%
X106642016Y-93180011D03*
X107023016Y-101181011D03*
%TO.N,Board_12-Net-(R6-Pad1)*%
X114262016Y-87592011D03*
X118961016Y-87719011D03*
D10*
%TO.N,Board_13-/+BATT*%
X62954001Y-117310016D03*
D11*
X64859001Y-106070516D03*
D10*
%TO.N,Board_13-/+CHARGE*%
X64732001Y-119850016D03*
X58128001Y-119850026D03*
D11*
%TO.N,Board_13-/-BATT*%
X57175501Y-104102016D03*
X61176001Y-104419516D03*
D12*
%TO.N,Board_13-/3v3_EN*%
X61557001Y-117056016D03*
%TO.N,Board_13-/STAT*%
X55969001Y-107150016D03*
D10*
%TO.N,Board_13-/VMAX*%
X61176001Y-113119016D03*
D12*
%TO.N,Board_13-GND*%
X58636001Y-111087016D03*
X55842001Y-111087016D03*
X57239001Y-111976016D03*
X57239001Y-110198016D03*
X58636001Y-111976016D03*
X55842001Y-110198016D03*
X58636001Y-110198016D03*
X55842001Y-111976016D03*
D10*
X54064001Y-106642016D03*
D11*
X52921001Y-119723016D03*
D12*
X59588501Y-110198016D03*
X59588501Y-111087016D03*
X59588501Y-111976016D03*
X54889501Y-111976016D03*
X54889501Y-111087016D03*
X54889501Y-110198016D03*
D10*
%TO.N,Board_13-Net-(C1-Pad1)*%
X55969001Y-119850016D03*
X58255001Y-117691016D03*
D11*
X53175001Y-107531004D03*
%TO.N,Board_13-Net-(D1-Pad1)*%
X55334001Y-118834016D03*
X54318001Y-115151016D03*
X61557001Y-110960016D03*
%TO.N,Board_13-Net-(D2-Pad1)*%
X53302001Y-110960016D03*
X53683001Y-118961016D03*
%TO.N,Board_13-Net-(R6-Pad1)*%
X60922001Y-105372016D03*
X65621001Y-105499016D03*
D10*
%TO.N,Board_14-/+BATT*%
X80734006Y-117310016D03*
D11*
X82639006Y-106070516D03*
D10*
%TO.N,Board_14-/+CHARGE*%
X82512006Y-119850016D03*
X75908006Y-119850026D03*
D11*
%TO.N,Board_14-/-BATT*%
X74955506Y-104102016D03*
X78956006Y-104419516D03*
D12*
%TO.N,Board_14-/3v3_EN*%
X79337006Y-117056016D03*
%TO.N,Board_14-/STAT*%
X73749006Y-107150016D03*
D10*
%TO.N,Board_14-/VMAX*%
X78956006Y-113119016D03*
D12*
%TO.N,Board_14-GND*%
X76416006Y-111087016D03*
X73622006Y-111087016D03*
X75019006Y-111976016D03*
X75019006Y-110198016D03*
X76416006Y-111976016D03*
X73622006Y-110198016D03*
X76416006Y-110198016D03*
X73622006Y-111976016D03*
D10*
X71844006Y-106642016D03*
D11*
X70701006Y-119723016D03*
D12*
X77368506Y-110198016D03*
X77368506Y-111087016D03*
X77368506Y-111976016D03*
X72669506Y-111976016D03*
X72669506Y-111087016D03*
X72669506Y-110198016D03*
D10*
%TO.N,Board_14-Net-(C1-Pad1)*%
X73749006Y-119850016D03*
X76035006Y-117691016D03*
D11*
X70955006Y-107531004D03*
%TO.N,Board_14-Net-(D1-Pad1)*%
X73114006Y-118834016D03*
X72098006Y-115151016D03*
X79337006Y-110960016D03*
%TO.N,Board_14-Net-(D2-Pad1)*%
X71082006Y-110960016D03*
X71463006Y-118961016D03*
%TO.N,Board_14-Net-(R6-Pad1)*%
X78702006Y-105372016D03*
X83401006Y-105499016D03*
D10*
%TO.N,Board_15-/+BATT*%
X98514011Y-117310016D03*
D11*
X100419011Y-106070516D03*
D10*
%TO.N,Board_15-/+CHARGE*%
X100292011Y-119850016D03*
X93688011Y-119850026D03*
D11*
%TO.N,Board_15-/-BATT*%
X92735511Y-104102016D03*
X96736011Y-104419516D03*
D12*
%TO.N,Board_15-/3v3_EN*%
X97117011Y-117056016D03*
%TO.N,Board_15-/STAT*%
X91529011Y-107150016D03*
D10*
%TO.N,Board_15-/VMAX*%
X96736011Y-113119016D03*
D12*
%TO.N,Board_15-GND*%
X94196011Y-111087016D03*
X91402011Y-111087016D03*
X92799011Y-111976016D03*
X92799011Y-110198016D03*
X94196011Y-111976016D03*
X91402011Y-110198016D03*
X94196011Y-110198016D03*
X91402011Y-111976016D03*
D10*
X89624011Y-106642016D03*
D11*
X88481011Y-119723016D03*
D12*
X95148511Y-110198016D03*
X95148511Y-111087016D03*
X95148511Y-111976016D03*
X90449511Y-111976016D03*
X90449511Y-111087016D03*
X90449511Y-110198016D03*
D10*
%TO.N,Board_15-Net-(C1-Pad1)*%
X91529011Y-119850016D03*
X93815011Y-117691016D03*
D11*
X88735011Y-107531004D03*
%TO.N,Board_15-Net-(D1-Pad1)*%
X90894011Y-118834016D03*
X89878011Y-115151016D03*
X97117011Y-110960016D03*
%TO.N,Board_15-Net-(D2-Pad1)*%
X88862011Y-110960016D03*
X89243011Y-118961016D03*
%TO.N,Board_15-Net-(R6-Pad1)*%
X96482011Y-105372016D03*
X101181011Y-105499016D03*
D10*
%TO.N,Board_16-/+BATT*%
X116294016Y-117310016D03*
D11*
X118199016Y-106070516D03*
D10*
%TO.N,Board_16-/+CHARGE*%
X118072016Y-119850016D03*
X111468016Y-119850026D03*
D11*
%TO.N,Board_16-/-BATT*%
X110515516Y-104102016D03*
X114516016Y-104419516D03*
D12*
%TO.N,Board_16-/3v3_EN*%
X114897016Y-117056016D03*
%TO.N,Board_16-/STAT*%
X109309016Y-107150016D03*
D10*
%TO.N,Board_16-/VMAX*%
X114516016Y-113119016D03*
D12*
%TO.N,Board_16-GND*%
X111976016Y-111087016D03*
X109182016Y-111087016D03*
X110579016Y-111976016D03*
X110579016Y-110198016D03*
X111976016Y-111976016D03*
X109182016Y-110198016D03*
X111976016Y-110198016D03*
X109182016Y-111976016D03*
D10*
X107404016Y-106642016D03*
D11*
X106261016Y-119723016D03*
D12*
X112928516Y-110198016D03*
X112928516Y-111087016D03*
X112928516Y-111976016D03*
X108229516Y-111976016D03*
X108229516Y-111087016D03*
X108229516Y-110198016D03*
D10*
%TO.N,Board_16-Net-(C1-Pad1)*%
X109309016Y-119850016D03*
X111595016Y-117691016D03*
D11*
X106515016Y-107531004D03*
%TO.N,Board_16-Net-(D1-Pad1)*%
X108674016Y-118834016D03*
X107658016Y-115151016D03*
X114897016Y-110960016D03*
%TO.N,Board_16-Net-(D2-Pad1)*%
X106642016Y-110960016D03*
X107023016Y-118961016D03*
%TO.N,Board_16-Net-(R6-Pad1)*%
X114262016Y-105372016D03*
X118961016Y-105499016D03*
%TD*%
D13*
%TO.N,Board_1-/+BATT*%
X62954001Y-58763001D02*
X62954001Y-63970001D01*
X65367001Y-56350001D02*
X62954001Y-58763001D01*
X66510001Y-56350001D02*
X65367001Y-56350001D01*
X66002001Y-56350001D02*
X66510001Y-56350001D01*
X64224001Y-56350001D02*
X66510001Y-56350001D01*
X62827001Y-54953001D02*
X64224001Y-56350001D01*
X54064001Y-54953001D02*
X62827001Y-54953001D01*
X52667001Y-56350001D02*
X54064001Y-54953001D01*
X51270001Y-56350001D02*
X52667001Y-56350001D01*
D14*
X62827001Y-54762501D02*
X62827001Y-54953001D01*
X64859001Y-52730501D02*
X62827001Y-54762501D01*
D13*
%TO.N,Board_1-/+CHARGE*%
X51270001Y-63970001D02*
X55587991Y-63970001D01*
X55587991Y-63970001D02*
X58128001Y-66510011D01*
D15*
%TO.N,Board_1-/3v3_EN*%
X51270001Y-58890001D02*
X51651001Y-58890001D01*
X51651001Y-58890001D02*
X52794001Y-60033001D01*
X52794001Y-60033001D02*
X52794001Y-61430001D01*
X52794001Y-61430001D02*
X54191001Y-62827001D01*
D16*
X60668001Y-62827001D02*
X61557001Y-63716001D01*
X54191001Y-62827001D02*
X60668001Y-62827001D01*
%TO.N,Board_1-Net-(D1-Pad1)*%
X57366001Y-61811001D02*
X61557001Y-57620001D01*
X54318001Y-61811001D02*
X57366001Y-61811001D01*
D13*
%TO.N,Board_2-/+BATT*%
X80734006Y-58763001D02*
X80734006Y-63970001D01*
X83147006Y-56350001D02*
X80734006Y-58763001D01*
X84290006Y-56350001D02*
X83147006Y-56350001D01*
X83782006Y-56350001D02*
X84290006Y-56350001D01*
X82004006Y-56350001D02*
X84290006Y-56350001D01*
X80607006Y-54953001D02*
X82004006Y-56350001D01*
X71844006Y-54953001D02*
X80607006Y-54953001D01*
X70447006Y-56350001D02*
X71844006Y-54953001D01*
X69050006Y-56350001D02*
X70447006Y-56350001D01*
D14*
X80607006Y-54762501D02*
X80607006Y-54953001D01*
X82639006Y-52730501D02*
X80607006Y-54762501D01*
D13*
%TO.N,Board_2-/+CHARGE*%
X69050006Y-63970001D02*
X73367996Y-63970001D01*
X73367996Y-63970001D02*
X75908006Y-66510011D01*
D15*
%TO.N,Board_2-/3v3_EN*%
X69050006Y-58890001D02*
X69431006Y-58890001D01*
X69431006Y-58890001D02*
X70574006Y-60033001D01*
X70574006Y-60033001D02*
X70574006Y-61430001D01*
X70574006Y-61430001D02*
X71971006Y-62827001D01*
D16*
X78448006Y-62827001D02*
X79337006Y-63716001D01*
X71971006Y-62827001D02*
X78448006Y-62827001D01*
%TO.N,Board_2-Net-(D1-Pad1)*%
X75146006Y-61811001D02*
X79337006Y-57620001D01*
X72098006Y-61811001D02*
X75146006Y-61811001D01*
D13*
%TO.N,Board_3-/+BATT*%
X98514011Y-58763001D02*
X98514011Y-63970001D01*
X100927011Y-56350001D02*
X98514011Y-58763001D01*
X102070011Y-56350001D02*
X100927011Y-56350001D01*
X101562011Y-56350001D02*
X102070011Y-56350001D01*
X99784011Y-56350001D02*
X102070011Y-56350001D01*
X98387011Y-54953001D02*
X99784011Y-56350001D01*
X89624011Y-54953001D02*
X98387011Y-54953001D01*
X88227011Y-56350001D02*
X89624011Y-54953001D01*
X86830011Y-56350001D02*
X88227011Y-56350001D01*
D14*
X98387011Y-54762501D02*
X98387011Y-54953001D01*
X100419011Y-52730501D02*
X98387011Y-54762501D01*
D13*
%TO.N,Board_3-/+CHARGE*%
X86830011Y-63970001D02*
X91148001Y-63970001D01*
X91148001Y-63970001D02*
X93688011Y-66510011D01*
D15*
%TO.N,Board_3-/3v3_EN*%
X86830011Y-58890001D02*
X87211011Y-58890001D01*
X87211011Y-58890001D02*
X88354011Y-60033001D01*
X88354011Y-60033001D02*
X88354011Y-61430001D01*
X88354011Y-61430001D02*
X89751011Y-62827001D01*
D16*
X96228011Y-62827001D02*
X97117011Y-63716001D01*
X89751011Y-62827001D02*
X96228011Y-62827001D01*
%TO.N,Board_3-Net-(D1-Pad1)*%
X92926011Y-61811001D02*
X97117011Y-57620001D01*
X89878011Y-61811001D02*
X92926011Y-61811001D01*
D13*
%TO.N,Board_4-/+BATT*%
X116294016Y-58763001D02*
X116294016Y-63970001D01*
X118707016Y-56350001D02*
X116294016Y-58763001D01*
X119850016Y-56350001D02*
X118707016Y-56350001D01*
X119342016Y-56350001D02*
X119850016Y-56350001D01*
X117564016Y-56350001D02*
X119850016Y-56350001D01*
X116167016Y-54953001D02*
X117564016Y-56350001D01*
X107404016Y-54953001D02*
X116167016Y-54953001D01*
X106007016Y-56350001D02*
X107404016Y-54953001D01*
X104610016Y-56350001D02*
X106007016Y-56350001D01*
D14*
X116167016Y-54762501D02*
X116167016Y-54953001D01*
X118199016Y-52730501D02*
X116167016Y-54762501D01*
D13*
%TO.N,Board_4-/+CHARGE*%
X104610016Y-63970001D02*
X108928006Y-63970001D01*
X108928006Y-63970001D02*
X111468016Y-66510011D01*
D15*
%TO.N,Board_4-/3v3_EN*%
X104610016Y-58890001D02*
X104991016Y-58890001D01*
X104991016Y-58890001D02*
X106134016Y-60033001D01*
X106134016Y-60033001D02*
X106134016Y-61430001D01*
X106134016Y-61430001D02*
X107531016Y-62827001D01*
D16*
X114008016Y-62827001D02*
X114897016Y-63716001D01*
X107531016Y-62827001D02*
X114008016Y-62827001D01*
%TO.N,Board_4-Net-(D1-Pad1)*%
X110706016Y-61811001D02*
X114897016Y-57620001D01*
X107658016Y-61811001D02*
X110706016Y-61811001D01*
D13*
%TO.N,Board_5-/+BATT*%
X62954001Y-76543006D02*
X62954001Y-81750006D01*
X65367001Y-74130006D02*
X62954001Y-76543006D01*
X66510001Y-74130006D02*
X65367001Y-74130006D01*
X66002001Y-74130006D02*
X66510001Y-74130006D01*
X64224001Y-74130006D02*
X66510001Y-74130006D01*
X62827001Y-72733006D02*
X64224001Y-74130006D01*
X54064001Y-72733006D02*
X62827001Y-72733006D01*
X52667001Y-74130006D02*
X54064001Y-72733006D01*
X51270001Y-74130006D02*
X52667001Y-74130006D01*
D14*
X62827001Y-72542506D02*
X62827001Y-72733006D01*
X64859001Y-70510506D02*
X62827001Y-72542506D01*
D13*
%TO.N,Board_5-/+CHARGE*%
X51270001Y-81750006D02*
X55587991Y-81750006D01*
X55587991Y-81750006D02*
X58128001Y-84290016D01*
D15*
%TO.N,Board_5-/3v3_EN*%
X51270001Y-76670006D02*
X51651001Y-76670006D01*
X51651001Y-76670006D02*
X52794001Y-77813006D01*
X52794001Y-77813006D02*
X52794001Y-79210006D01*
X52794001Y-79210006D02*
X54191001Y-80607006D01*
D16*
X60668001Y-80607006D02*
X61557001Y-81496006D01*
X54191001Y-80607006D02*
X60668001Y-80607006D01*
%TO.N,Board_5-Net-(D1-Pad1)*%
X57366001Y-79591006D02*
X61557001Y-75400006D01*
X54318001Y-79591006D02*
X57366001Y-79591006D01*
D13*
%TO.N,Board_6-/+BATT*%
X80734006Y-76543006D02*
X80734006Y-81750006D01*
X83147006Y-74130006D02*
X80734006Y-76543006D01*
X84290006Y-74130006D02*
X83147006Y-74130006D01*
X83782006Y-74130006D02*
X84290006Y-74130006D01*
X82004006Y-74130006D02*
X84290006Y-74130006D01*
X80607006Y-72733006D02*
X82004006Y-74130006D01*
X71844006Y-72733006D02*
X80607006Y-72733006D01*
X70447006Y-74130006D02*
X71844006Y-72733006D01*
X69050006Y-74130006D02*
X70447006Y-74130006D01*
D14*
X80607006Y-72542506D02*
X80607006Y-72733006D01*
X82639006Y-70510506D02*
X80607006Y-72542506D01*
D13*
%TO.N,Board_6-/+CHARGE*%
X69050006Y-81750006D02*
X73367996Y-81750006D01*
X73367996Y-81750006D02*
X75908006Y-84290016D01*
D15*
%TO.N,Board_6-/3v3_EN*%
X69050006Y-76670006D02*
X69431006Y-76670006D01*
X69431006Y-76670006D02*
X70574006Y-77813006D01*
X70574006Y-77813006D02*
X70574006Y-79210006D01*
X70574006Y-79210006D02*
X71971006Y-80607006D01*
D16*
X78448006Y-80607006D02*
X79337006Y-81496006D01*
X71971006Y-80607006D02*
X78448006Y-80607006D01*
%TO.N,Board_6-Net-(D1-Pad1)*%
X75146006Y-79591006D02*
X79337006Y-75400006D01*
X72098006Y-79591006D02*
X75146006Y-79591006D01*
D13*
%TO.N,Board_7-/+BATT*%
X98514011Y-76543006D02*
X98514011Y-81750006D01*
X100927011Y-74130006D02*
X98514011Y-76543006D01*
X102070011Y-74130006D02*
X100927011Y-74130006D01*
X101562011Y-74130006D02*
X102070011Y-74130006D01*
X99784011Y-74130006D02*
X102070011Y-74130006D01*
X98387011Y-72733006D02*
X99784011Y-74130006D01*
X89624011Y-72733006D02*
X98387011Y-72733006D01*
X88227011Y-74130006D02*
X89624011Y-72733006D01*
X86830011Y-74130006D02*
X88227011Y-74130006D01*
D14*
X98387011Y-72542506D02*
X98387011Y-72733006D01*
X100419011Y-70510506D02*
X98387011Y-72542506D01*
D13*
%TO.N,Board_7-/+CHARGE*%
X86830011Y-81750006D02*
X91148001Y-81750006D01*
X91148001Y-81750006D02*
X93688011Y-84290016D01*
D15*
%TO.N,Board_7-/3v3_EN*%
X86830011Y-76670006D02*
X87211011Y-76670006D01*
X87211011Y-76670006D02*
X88354011Y-77813006D01*
X88354011Y-77813006D02*
X88354011Y-79210006D01*
X88354011Y-79210006D02*
X89751011Y-80607006D01*
D16*
X96228011Y-80607006D02*
X97117011Y-81496006D01*
X89751011Y-80607006D02*
X96228011Y-80607006D01*
%TO.N,Board_7-Net-(D1-Pad1)*%
X92926011Y-79591006D02*
X97117011Y-75400006D01*
X89878011Y-79591006D02*
X92926011Y-79591006D01*
D13*
%TO.N,Board_8-/+BATT*%
X116294016Y-76543006D02*
X116294016Y-81750006D01*
X118707016Y-74130006D02*
X116294016Y-76543006D01*
X119850016Y-74130006D02*
X118707016Y-74130006D01*
X119342016Y-74130006D02*
X119850016Y-74130006D01*
X117564016Y-74130006D02*
X119850016Y-74130006D01*
X116167016Y-72733006D02*
X117564016Y-74130006D01*
X107404016Y-72733006D02*
X116167016Y-72733006D01*
X106007016Y-74130006D02*
X107404016Y-72733006D01*
X104610016Y-74130006D02*
X106007016Y-74130006D01*
D14*
X116167016Y-72542506D02*
X116167016Y-72733006D01*
X118199016Y-70510506D02*
X116167016Y-72542506D01*
D13*
%TO.N,Board_8-/+CHARGE*%
X104610016Y-81750006D02*
X108928006Y-81750006D01*
X108928006Y-81750006D02*
X111468016Y-84290016D01*
D15*
%TO.N,Board_8-/3v3_EN*%
X104610016Y-76670006D02*
X104991016Y-76670006D01*
X104991016Y-76670006D02*
X106134016Y-77813006D01*
X106134016Y-77813006D02*
X106134016Y-79210006D01*
X106134016Y-79210006D02*
X107531016Y-80607006D01*
D16*
X114008016Y-80607006D02*
X114897016Y-81496006D01*
X107531016Y-80607006D02*
X114008016Y-80607006D01*
%TO.N,Board_8-Net-(D1-Pad1)*%
X110706016Y-79591006D02*
X114897016Y-75400006D01*
X107658016Y-79591006D02*
X110706016Y-79591006D01*
D13*
%TO.N,Board_9-/+BATT*%
X62954001Y-94323011D02*
X62954001Y-99530011D01*
X65367001Y-91910011D02*
X62954001Y-94323011D01*
X66510001Y-91910011D02*
X65367001Y-91910011D01*
X66002001Y-91910011D02*
X66510001Y-91910011D01*
X64224001Y-91910011D02*
X66510001Y-91910011D01*
X62827001Y-90513011D02*
X64224001Y-91910011D01*
X54064001Y-90513011D02*
X62827001Y-90513011D01*
X52667001Y-91910011D02*
X54064001Y-90513011D01*
X51270001Y-91910011D02*
X52667001Y-91910011D01*
D14*
X62827001Y-90322511D02*
X62827001Y-90513011D01*
X64859001Y-88290511D02*
X62827001Y-90322511D01*
D13*
%TO.N,Board_9-/+CHARGE*%
X51270001Y-99530011D02*
X55587991Y-99530011D01*
X55587991Y-99530011D02*
X58128001Y-102070021D01*
D15*
%TO.N,Board_9-/3v3_EN*%
X51270001Y-94450011D02*
X51651001Y-94450011D01*
X51651001Y-94450011D02*
X52794001Y-95593011D01*
X52794001Y-95593011D02*
X52794001Y-96990011D01*
X52794001Y-96990011D02*
X54191001Y-98387011D01*
D16*
X60668001Y-98387011D02*
X61557001Y-99276011D01*
X54191001Y-98387011D02*
X60668001Y-98387011D01*
%TO.N,Board_9-Net-(D1-Pad1)*%
X57366001Y-97371011D02*
X61557001Y-93180011D01*
X54318001Y-97371011D02*
X57366001Y-97371011D01*
D13*
%TO.N,Board_10-/+BATT*%
X80734006Y-94323011D02*
X80734006Y-99530011D01*
X83147006Y-91910011D02*
X80734006Y-94323011D01*
X84290006Y-91910011D02*
X83147006Y-91910011D01*
X83782006Y-91910011D02*
X84290006Y-91910011D01*
X82004006Y-91910011D02*
X84290006Y-91910011D01*
X80607006Y-90513011D02*
X82004006Y-91910011D01*
X71844006Y-90513011D02*
X80607006Y-90513011D01*
X70447006Y-91910011D02*
X71844006Y-90513011D01*
X69050006Y-91910011D02*
X70447006Y-91910011D01*
D14*
X80607006Y-90322511D02*
X80607006Y-90513011D01*
X82639006Y-88290511D02*
X80607006Y-90322511D01*
D13*
%TO.N,Board_10-/+CHARGE*%
X69050006Y-99530011D02*
X73367996Y-99530011D01*
X73367996Y-99530011D02*
X75908006Y-102070021D01*
D15*
%TO.N,Board_10-/3v3_EN*%
X69050006Y-94450011D02*
X69431006Y-94450011D01*
X69431006Y-94450011D02*
X70574006Y-95593011D01*
X70574006Y-95593011D02*
X70574006Y-96990011D01*
X70574006Y-96990011D02*
X71971006Y-98387011D01*
D16*
X78448006Y-98387011D02*
X79337006Y-99276011D01*
X71971006Y-98387011D02*
X78448006Y-98387011D01*
%TO.N,Board_10-Net-(D1-Pad1)*%
X75146006Y-97371011D02*
X79337006Y-93180011D01*
X72098006Y-97371011D02*
X75146006Y-97371011D01*
D13*
%TO.N,Board_11-/+BATT*%
X98514011Y-94323011D02*
X98514011Y-99530011D01*
X100927011Y-91910011D02*
X98514011Y-94323011D01*
X102070011Y-91910011D02*
X100927011Y-91910011D01*
X101562011Y-91910011D02*
X102070011Y-91910011D01*
X99784011Y-91910011D02*
X102070011Y-91910011D01*
X98387011Y-90513011D02*
X99784011Y-91910011D01*
X89624011Y-90513011D02*
X98387011Y-90513011D01*
X88227011Y-91910011D02*
X89624011Y-90513011D01*
X86830011Y-91910011D02*
X88227011Y-91910011D01*
D14*
X98387011Y-90322511D02*
X98387011Y-90513011D01*
X100419011Y-88290511D02*
X98387011Y-90322511D01*
D13*
%TO.N,Board_11-/+CHARGE*%
X86830011Y-99530011D02*
X91148001Y-99530011D01*
X91148001Y-99530011D02*
X93688011Y-102070021D01*
D15*
%TO.N,Board_11-/3v3_EN*%
X86830011Y-94450011D02*
X87211011Y-94450011D01*
X87211011Y-94450011D02*
X88354011Y-95593011D01*
X88354011Y-95593011D02*
X88354011Y-96990011D01*
X88354011Y-96990011D02*
X89751011Y-98387011D01*
D16*
X96228011Y-98387011D02*
X97117011Y-99276011D01*
X89751011Y-98387011D02*
X96228011Y-98387011D01*
%TO.N,Board_11-Net-(D1-Pad1)*%
X92926011Y-97371011D02*
X97117011Y-93180011D01*
X89878011Y-97371011D02*
X92926011Y-97371011D01*
D13*
%TO.N,Board_12-/+BATT*%
X116294016Y-94323011D02*
X116294016Y-99530011D01*
X118707016Y-91910011D02*
X116294016Y-94323011D01*
X119850016Y-91910011D02*
X118707016Y-91910011D01*
X119342016Y-91910011D02*
X119850016Y-91910011D01*
X117564016Y-91910011D02*
X119850016Y-91910011D01*
X116167016Y-90513011D02*
X117564016Y-91910011D01*
X107404016Y-90513011D02*
X116167016Y-90513011D01*
X106007016Y-91910011D02*
X107404016Y-90513011D01*
X104610016Y-91910011D02*
X106007016Y-91910011D01*
D14*
X116167016Y-90322511D02*
X116167016Y-90513011D01*
X118199016Y-88290511D02*
X116167016Y-90322511D01*
D13*
%TO.N,Board_12-/+CHARGE*%
X104610016Y-99530011D02*
X108928006Y-99530011D01*
X108928006Y-99530011D02*
X111468016Y-102070021D01*
D15*
%TO.N,Board_12-/3v3_EN*%
X104610016Y-94450011D02*
X104991016Y-94450011D01*
X104991016Y-94450011D02*
X106134016Y-95593011D01*
X106134016Y-95593011D02*
X106134016Y-96990011D01*
X106134016Y-96990011D02*
X107531016Y-98387011D01*
D16*
X114008016Y-98387011D02*
X114897016Y-99276011D01*
X107531016Y-98387011D02*
X114008016Y-98387011D01*
%TO.N,Board_12-Net-(D1-Pad1)*%
X110706016Y-97371011D02*
X114897016Y-93180011D01*
X107658016Y-97371011D02*
X110706016Y-97371011D01*
D13*
%TO.N,Board_13-/+BATT*%
X62954001Y-112103016D02*
X62954001Y-117310016D01*
X65367001Y-109690016D02*
X62954001Y-112103016D01*
X66510001Y-109690016D02*
X65367001Y-109690016D01*
X66002001Y-109690016D02*
X66510001Y-109690016D01*
X64224001Y-109690016D02*
X66510001Y-109690016D01*
X62827001Y-108293016D02*
X64224001Y-109690016D01*
X54064001Y-108293016D02*
X62827001Y-108293016D01*
X52667001Y-109690016D02*
X54064001Y-108293016D01*
X51270001Y-109690016D02*
X52667001Y-109690016D01*
D14*
X62827001Y-108102516D02*
X62827001Y-108293016D01*
X64859001Y-106070516D02*
X62827001Y-108102516D01*
D13*
%TO.N,Board_13-/+CHARGE*%
X51270001Y-117310016D02*
X55587991Y-117310016D01*
X55587991Y-117310016D02*
X58128001Y-119850026D01*
D15*
%TO.N,Board_13-/3v3_EN*%
X51270001Y-112230016D02*
X51651001Y-112230016D01*
X51651001Y-112230016D02*
X52794001Y-113373016D01*
X52794001Y-113373016D02*
X52794001Y-114770016D01*
X52794001Y-114770016D02*
X54191001Y-116167016D01*
D16*
X60668001Y-116167016D02*
X61557001Y-117056016D01*
X54191001Y-116167016D02*
X60668001Y-116167016D01*
%TO.N,Board_13-Net-(D1-Pad1)*%
X57366001Y-115151016D02*
X61557001Y-110960016D01*
X54318001Y-115151016D02*
X57366001Y-115151016D01*
D13*
%TO.N,Board_14-/+BATT*%
X80734006Y-112103016D02*
X80734006Y-117310016D01*
X83147006Y-109690016D02*
X80734006Y-112103016D01*
X84290006Y-109690016D02*
X83147006Y-109690016D01*
X83782006Y-109690016D02*
X84290006Y-109690016D01*
X82004006Y-109690016D02*
X84290006Y-109690016D01*
X80607006Y-108293016D02*
X82004006Y-109690016D01*
X71844006Y-108293016D02*
X80607006Y-108293016D01*
X70447006Y-109690016D02*
X71844006Y-108293016D01*
X69050006Y-109690016D02*
X70447006Y-109690016D01*
D14*
X80607006Y-108102516D02*
X80607006Y-108293016D01*
X82639006Y-106070516D02*
X80607006Y-108102516D01*
D13*
%TO.N,Board_14-/+CHARGE*%
X69050006Y-117310016D02*
X73367996Y-117310016D01*
X73367996Y-117310016D02*
X75908006Y-119850026D01*
D15*
%TO.N,Board_14-/3v3_EN*%
X69050006Y-112230016D02*
X69431006Y-112230016D01*
X69431006Y-112230016D02*
X70574006Y-113373016D01*
X70574006Y-113373016D02*
X70574006Y-114770016D01*
X70574006Y-114770016D02*
X71971006Y-116167016D01*
D16*
X78448006Y-116167016D02*
X79337006Y-117056016D01*
X71971006Y-116167016D02*
X78448006Y-116167016D01*
%TO.N,Board_14-Net-(D1-Pad1)*%
X75146006Y-115151016D02*
X79337006Y-110960016D01*
X72098006Y-115151016D02*
X75146006Y-115151016D01*
D13*
%TO.N,Board_15-/+BATT*%
X98514011Y-112103016D02*
X98514011Y-117310016D01*
X100927011Y-109690016D02*
X98514011Y-112103016D01*
X102070011Y-109690016D02*
X100927011Y-109690016D01*
X101562011Y-109690016D02*
X102070011Y-109690016D01*
X99784011Y-109690016D02*
X102070011Y-109690016D01*
X98387011Y-108293016D02*
X99784011Y-109690016D01*
X89624011Y-108293016D02*
X98387011Y-108293016D01*
X88227011Y-109690016D02*
X89624011Y-108293016D01*
X86830011Y-109690016D02*
X88227011Y-109690016D01*
D14*
X98387011Y-108102516D02*
X98387011Y-108293016D01*
X100419011Y-106070516D02*
X98387011Y-108102516D01*
D13*
%TO.N,Board_15-/+CHARGE*%
X86830011Y-117310016D02*
X91148001Y-117310016D01*
X91148001Y-117310016D02*
X93688011Y-119850026D01*
D15*
%TO.N,Board_15-/3v3_EN*%
X86830011Y-112230016D02*
X87211011Y-112230016D01*
X87211011Y-112230016D02*
X88354011Y-113373016D01*
X88354011Y-113373016D02*
X88354011Y-114770016D01*
X88354011Y-114770016D02*
X89751011Y-116167016D01*
D16*
X96228011Y-116167016D02*
X97117011Y-117056016D01*
X89751011Y-116167016D02*
X96228011Y-116167016D01*
%TO.N,Board_15-Net-(D1-Pad1)*%
X92926011Y-115151016D02*
X97117011Y-110960016D01*
X89878011Y-115151016D02*
X92926011Y-115151016D01*
D13*
%TO.N,Board_16-/+BATT*%
X116294016Y-112103016D02*
X116294016Y-117310016D01*
X118707016Y-109690016D02*
X116294016Y-112103016D01*
X119850016Y-109690016D02*
X118707016Y-109690016D01*
X119342016Y-109690016D02*
X119850016Y-109690016D01*
X117564016Y-109690016D02*
X119850016Y-109690016D01*
X116167016Y-108293016D02*
X117564016Y-109690016D01*
X107404016Y-108293016D02*
X116167016Y-108293016D01*
X106007016Y-109690016D02*
X107404016Y-108293016D01*
X104610016Y-109690016D02*
X106007016Y-109690016D01*
D14*
X116167016Y-108102516D02*
X116167016Y-108293016D01*
X118199016Y-106070516D02*
X116167016Y-108102516D01*
D13*
%TO.N,Board_16-/+CHARGE*%
X104610016Y-117310016D02*
X108928006Y-117310016D01*
X108928006Y-117310016D02*
X111468016Y-119850026D01*
D15*
%TO.N,Board_16-/3v3_EN*%
X104610016Y-112230016D02*
X104991016Y-112230016D01*
X104991016Y-112230016D02*
X106134016Y-113373016D01*
X106134016Y-113373016D02*
X106134016Y-114770016D01*
X106134016Y-114770016D02*
X107531016Y-116167016D01*
D16*
X114008016Y-116167016D02*
X114897016Y-117056016D01*
X107531016Y-116167016D02*
X114008016Y-116167016D01*
%TO.N,Board_16-Net-(D1-Pad1)*%
X110706016Y-115151016D02*
X114897016Y-110960016D01*
X107658016Y-115151016D02*
X110706016Y-115151016D01*
%TD*%
M02*
