%TF.GenerationSoftware,KiCad,Pcbnew,5.1.8*%
%TF.CreationDate,2020-11-29T15:41:03+01:00*%
%TF.ProjectId,panel,70616e65-6c2e-46b6-9963-61645f706362,rev?*%
%TF.SameCoordinates,Original*%
%TF.FileFunction,OtherDrawing,Comment*%
%FSLAX46Y46*%
G04 Gerber Fmt 4.6, Leading zero omitted, Abs format (unit mm)*
G04 Created by KiCad (PCBNEW 5.1.8) date 2020-11-29 15:41:03*
%MOMM*%
%LPD*%
G01*
G04 APERTURE LIST*
%ADD10C,0.150000*%
G04 APERTURE END LIST*
D10*
X99047635Y-108658587D02*
X99047635Y-108087158D01*
X99047635Y-108372873D02*
X100047635Y-108372873D01*
X99904777Y-108277635D01*
X99809539Y-108182396D01*
X99761920Y-108087158D01*
X100047635Y-108991920D02*
X100047635Y-109658587D01*
X99047635Y-109230016D01*
X99142873Y-110039539D02*
X99095254Y-110087158D01*
X99047635Y-110039539D01*
X99095254Y-109991920D01*
X99142873Y-110039539D01*
X99047635Y-110039539D01*
X100047635Y-110420492D02*
X100047635Y-111087158D01*
X99047635Y-110658587D01*
X99619063Y-111610968D02*
X99666682Y-111515730D01*
X99714301Y-111468111D01*
X99809539Y-111420492D01*
X99857158Y-111420492D01*
X99952396Y-111468111D01*
X100000016Y-111515730D01*
X100047635Y-111610968D01*
X100047635Y-111801444D01*
X100000016Y-111896682D01*
X99952396Y-111944301D01*
X99857158Y-111991920D01*
X99809539Y-111991920D01*
X99714301Y-111944301D01*
X99666682Y-111896682D01*
X99619063Y-111801444D01*
X99619063Y-111610968D01*
X99571444Y-111515730D01*
X99523825Y-111468111D01*
X99428587Y-111420492D01*
X99238111Y-111420492D01*
X99142873Y-111468111D01*
X99095254Y-111515730D01*
X99047635Y-111610968D01*
X99047635Y-111801444D01*
X99095254Y-111896682D01*
X99142873Y-111944301D01*
X99238111Y-111991920D01*
X99428587Y-111991920D01*
X99523825Y-111944301D01*
X99571444Y-111896682D01*
X99619063Y-111801444D01*
X100047635Y-112610968D02*
X100047635Y-112706206D01*
X100000016Y-112801444D01*
X99952396Y-112849063D01*
X99857158Y-112896682D01*
X99666682Y-112944301D01*
X99428587Y-112944301D01*
X99238111Y-112896682D01*
X99142873Y-112849063D01*
X99095254Y-112801444D01*
X99047635Y-112706206D01*
X99047635Y-112610968D01*
X99095254Y-112515730D01*
X99142873Y-112468111D01*
X99238111Y-112420492D01*
X99428587Y-112372873D01*
X99666682Y-112372873D01*
X99857158Y-112420492D01*
X99952396Y-112468111D01*
X100000016Y-112515730D01*
X100047635Y-112610968D01*
X99047635Y-114134777D02*
X99714301Y-114134777D01*
X99619063Y-114134777D02*
X99666682Y-114182396D01*
X99714301Y-114277635D01*
X99714301Y-114420492D01*
X99666682Y-114515730D01*
X99571444Y-114563349D01*
X99047635Y-114563349D01*
X99571444Y-114563349D02*
X99666682Y-114610968D01*
X99714301Y-114706206D01*
X99714301Y-114849063D01*
X99666682Y-114944301D01*
X99571444Y-114991920D01*
X99047635Y-114991920D01*
X99047635Y-115468111D02*
X99714301Y-115468111D01*
X99619063Y-115468111D02*
X99666682Y-115515730D01*
X99714301Y-115610968D01*
X99714301Y-115753825D01*
X99666682Y-115849063D01*
X99571444Y-115896682D01*
X99047635Y-115896682D01*
X99571444Y-115896682D02*
X99666682Y-115944301D01*
X99714301Y-116039539D01*
X99714301Y-116182396D01*
X99666682Y-116277635D01*
X99571444Y-116325254D01*
X99047635Y-116325254D01*
X100800016Y-103340016D02*
X100800016Y-121120016D01*
X103340016Y-103340016D02*
X100213595Y-103340016D01*
X103340016Y-121120016D02*
X100213595Y-121120016D01*
X100800016Y-121120016D02*
X100213595Y-119993512D01*
X100800016Y-121120016D02*
X101386437Y-119993512D01*
X100800016Y-103340016D02*
X100213595Y-104466520D01*
X100800016Y-103340016D02*
X101386437Y-104466520D01*
X108658587Y-99952396D02*
X108087158Y-99952396D01*
X108372873Y-99952396D02*
X108372873Y-98952396D01*
X108277635Y-99095254D01*
X108182396Y-99190492D01*
X108087158Y-99238111D01*
X108991920Y-98952396D02*
X109658587Y-98952396D01*
X109230016Y-99952396D01*
X110039539Y-99857158D02*
X110087158Y-99904777D01*
X110039539Y-99952396D01*
X109991920Y-99904777D01*
X110039539Y-99857158D01*
X110039539Y-99952396D01*
X110420492Y-98952396D02*
X111087158Y-98952396D01*
X110658587Y-99952396D01*
X111610968Y-99380968D02*
X111515730Y-99333349D01*
X111468111Y-99285730D01*
X111420492Y-99190492D01*
X111420492Y-99142873D01*
X111468111Y-99047635D01*
X111515730Y-99000016D01*
X111610968Y-98952396D01*
X111801444Y-98952396D01*
X111896682Y-99000016D01*
X111944301Y-99047635D01*
X111991920Y-99142873D01*
X111991920Y-99190492D01*
X111944301Y-99285730D01*
X111896682Y-99333349D01*
X111801444Y-99380968D01*
X111610968Y-99380968D01*
X111515730Y-99428587D01*
X111468111Y-99476206D01*
X111420492Y-99571444D01*
X111420492Y-99761920D01*
X111468111Y-99857158D01*
X111515730Y-99904777D01*
X111610968Y-99952396D01*
X111801444Y-99952396D01*
X111896682Y-99904777D01*
X111944301Y-99857158D01*
X111991920Y-99761920D01*
X111991920Y-99571444D01*
X111944301Y-99476206D01*
X111896682Y-99428587D01*
X111801444Y-99380968D01*
X112610968Y-98952396D02*
X112706206Y-98952396D01*
X112801444Y-99000016D01*
X112849063Y-99047635D01*
X112896682Y-99142873D01*
X112944301Y-99333349D01*
X112944301Y-99571444D01*
X112896682Y-99761920D01*
X112849063Y-99857158D01*
X112801444Y-99904777D01*
X112706206Y-99952396D01*
X112610968Y-99952396D01*
X112515730Y-99904777D01*
X112468111Y-99857158D01*
X112420492Y-99761920D01*
X112372873Y-99571444D01*
X112372873Y-99333349D01*
X112420492Y-99142873D01*
X112468111Y-99047635D01*
X112515730Y-99000016D01*
X112610968Y-98952396D01*
X114134777Y-99952396D02*
X114134777Y-99285730D01*
X114134777Y-99380968D02*
X114182396Y-99333349D01*
X114277635Y-99285730D01*
X114420492Y-99285730D01*
X114515730Y-99333349D01*
X114563349Y-99428587D01*
X114563349Y-99952396D01*
X114563349Y-99428587D02*
X114610968Y-99333349D01*
X114706206Y-99285730D01*
X114849063Y-99285730D01*
X114944301Y-99333349D01*
X114991920Y-99428587D01*
X114991920Y-99952396D01*
X115468111Y-99952396D02*
X115468111Y-99285730D01*
X115468111Y-99380968D02*
X115515730Y-99333349D01*
X115610968Y-99285730D01*
X115753825Y-99285730D01*
X115849063Y-99333349D01*
X115896682Y-99428587D01*
X115896682Y-99952396D01*
X115896682Y-99428587D02*
X115944301Y-99333349D01*
X116039539Y-99285730D01*
X116182396Y-99285730D01*
X116277635Y-99333349D01*
X116325254Y-99428587D01*
X116325254Y-99952396D01*
X103340016Y-100800016D02*
X121120016Y-100800016D01*
X103340016Y-103340016D02*
X103340016Y-100213595D01*
X121120016Y-103340016D02*
X121120016Y-100213595D01*
X121120016Y-100800016D02*
X119993512Y-101386437D01*
X121120016Y-100800016D02*
X119993512Y-100213595D01*
X103340016Y-100800016D02*
X104466520Y-101386437D01*
X103340016Y-100800016D02*
X104466520Y-100213595D01*
X81267630Y-108658587D02*
X81267630Y-108087158D01*
X81267630Y-108372873D02*
X82267630Y-108372873D01*
X82124772Y-108277635D01*
X82029534Y-108182396D01*
X81981915Y-108087158D01*
X82267630Y-108991920D02*
X82267630Y-109658587D01*
X81267630Y-109230016D01*
X81362868Y-110039539D02*
X81315249Y-110087158D01*
X81267630Y-110039539D01*
X81315249Y-109991920D01*
X81362868Y-110039539D01*
X81267630Y-110039539D01*
X82267630Y-110420492D02*
X82267630Y-111087158D01*
X81267630Y-110658587D01*
X81839058Y-111610968D02*
X81886677Y-111515730D01*
X81934296Y-111468111D01*
X82029534Y-111420492D01*
X82077153Y-111420492D01*
X82172391Y-111468111D01*
X82220011Y-111515730D01*
X82267630Y-111610968D01*
X82267630Y-111801444D01*
X82220011Y-111896682D01*
X82172391Y-111944301D01*
X82077153Y-111991920D01*
X82029534Y-111991920D01*
X81934296Y-111944301D01*
X81886677Y-111896682D01*
X81839058Y-111801444D01*
X81839058Y-111610968D01*
X81791439Y-111515730D01*
X81743820Y-111468111D01*
X81648582Y-111420492D01*
X81458106Y-111420492D01*
X81362868Y-111468111D01*
X81315249Y-111515730D01*
X81267630Y-111610968D01*
X81267630Y-111801444D01*
X81315249Y-111896682D01*
X81362868Y-111944301D01*
X81458106Y-111991920D01*
X81648582Y-111991920D01*
X81743820Y-111944301D01*
X81791439Y-111896682D01*
X81839058Y-111801444D01*
X82267630Y-112610968D02*
X82267630Y-112706206D01*
X82220011Y-112801444D01*
X82172391Y-112849063D01*
X82077153Y-112896682D01*
X81886677Y-112944301D01*
X81648582Y-112944301D01*
X81458106Y-112896682D01*
X81362868Y-112849063D01*
X81315249Y-112801444D01*
X81267630Y-112706206D01*
X81267630Y-112610968D01*
X81315249Y-112515730D01*
X81362868Y-112468111D01*
X81458106Y-112420492D01*
X81648582Y-112372873D01*
X81886677Y-112372873D01*
X82077153Y-112420492D01*
X82172391Y-112468111D01*
X82220011Y-112515730D01*
X82267630Y-112610968D01*
X81267630Y-114134777D02*
X81934296Y-114134777D01*
X81839058Y-114134777D02*
X81886677Y-114182396D01*
X81934296Y-114277635D01*
X81934296Y-114420492D01*
X81886677Y-114515730D01*
X81791439Y-114563349D01*
X81267630Y-114563349D01*
X81791439Y-114563349D02*
X81886677Y-114610968D01*
X81934296Y-114706206D01*
X81934296Y-114849063D01*
X81886677Y-114944301D01*
X81791439Y-114991920D01*
X81267630Y-114991920D01*
X81267630Y-115468111D02*
X81934296Y-115468111D01*
X81839058Y-115468111D02*
X81886677Y-115515730D01*
X81934296Y-115610968D01*
X81934296Y-115753825D01*
X81886677Y-115849063D01*
X81791439Y-115896682D01*
X81267630Y-115896682D01*
X81791439Y-115896682D02*
X81886677Y-115944301D01*
X81934296Y-116039539D01*
X81934296Y-116182396D01*
X81886677Y-116277635D01*
X81791439Y-116325254D01*
X81267630Y-116325254D01*
X83020011Y-103340016D02*
X83020011Y-121120016D01*
X85560011Y-103340016D02*
X82433590Y-103340016D01*
X85560011Y-121120016D02*
X82433590Y-121120016D01*
X83020011Y-121120016D02*
X82433590Y-119993512D01*
X83020011Y-121120016D02*
X83606432Y-119993512D01*
X83020011Y-103340016D02*
X82433590Y-104466520D01*
X83020011Y-103340016D02*
X83606432Y-104466520D01*
X90878582Y-99952396D02*
X90307153Y-99952396D01*
X90592868Y-99952396D02*
X90592868Y-98952396D01*
X90497630Y-99095254D01*
X90402391Y-99190492D01*
X90307153Y-99238111D01*
X91211915Y-98952396D02*
X91878582Y-98952396D01*
X91450011Y-99952396D01*
X92259534Y-99857158D02*
X92307153Y-99904777D01*
X92259534Y-99952396D01*
X92211915Y-99904777D01*
X92259534Y-99857158D01*
X92259534Y-99952396D01*
X92640487Y-98952396D02*
X93307153Y-98952396D01*
X92878582Y-99952396D01*
X93830963Y-99380968D02*
X93735725Y-99333349D01*
X93688106Y-99285730D01*
X93640487Y-99190492D01*
X93640487Y-99142873D01*
X93688106Y-99047635D01*
X93735725Y-99000016D01*
X93830963Y-98952396D01*
X94021439Y-98952396D01*
X94116677Y-99000016D01*
X94164296Y-99047635D01*
X94211915Y-99142873D01*
X94211915Y-99190492D01*
X94164296Y-99285730D01*
X94116677Y-99333349D01*
X94021439Y-99380968D01*
X93830963Y-99380968D01*
X93735725Y-99428587D01*
X93688106Y-99476206D01*
X93640487Y-99571444D01*
X93640487Y-99761920D01*
X93688106Y-99857158D01*
X93735725Y-99904777D01*
X93830963Y-99952396D01*
X94021439Y-99952396D01*
X94116677Y-99904777D01*
X94164296Y-99857158D01*
X94211915Y-99761920D01*
X94211915Y-99571444D01*
X94164296Y-99476206D01*
X94116677Y-99428587D01*
X94021439Y-99380968D01*
X94830963Y-98952396D02*
X94926201Y-98952396D01*
X95021439Y-99000016D01*
X95069058Y-99047635D01*
X95116677Y-99142873D01*
X95164296Y-99333349D01*
X95164296Y-99571444D01*
X95116677Y-99761920D01*
X95069058Y-99857158D01*
X95021439Y-99904777D01*
X94926201Y-99952396D01*
X94830963Y-99952396D01*
X94735725Y-99904777D01*
X94688106Y-99857158D01*
X94640487Y-99761920D01*
X94592868Y-99571444D01*
X94592868Y-99333349D01*
X94640487Y-99142873D01*
X94688106Y-99047635D01*
X94735725Y-99000016D01*
X94830963Y-98952396D01*
X96354772Y-99952396D02*
X96354772Y-99285730D01*
X96354772Y-99380968D02*
X96402391Y-99333349D01*
X96497630Y-99285730D01*
X96640487Y-99285730D01*
X96735725Y-99333349D01*
X96783344Y-99428587D01*
X96783344Y-99952396D01*
X96783344Y-99428587D02*
X96830963Y-99333349D01*
X96926201Y-99285730D01*
X97069058Y-99285730D01*
X97164296Y-99333349D01*
X97211915Y-99428587D01*
X97211915Y-99952396D01*
X97688106Y-99952396D02*
X97688106Y-99285730D01*
X97688106Y-99380968D02*
X97735725Y-99333349D01*
X97830963Y-99285730D01*
X97973820Y-99285730D01*
X98069058Y-99333349D01*
X98116677Y-99428587D01*
X98116677Y-99952396D01*
X98116677Y-99428587D02*
X98164296Y-99333349D01*
X98259534Y-99285730D01*
X98402391Y-99285730D01*
X98497630Y-99333349D01*
X98545249Y-99428587D01*
X98545249Y-99952396D01*
X85560011Y-100800016D02*
X103340011Y-100800016D01*
X85560011Y-103340016D02*
X85560011Y-100213595D01*
X103340011Y-103340016D02*
X103340011Y-100213595D01*
X103340011Y-100800016D02*
X102213507Y-101386437D01*
X103340011Y-100800016D02*
X102213507Y-100213595D01*
X85560011Y-100800016D02*
X86686515Y-101386437D01*
X85560011Y-100800016D02*
X86686515Y-100213595D01*
X63487625Y-108658587D02*
X63487625Y-108087158D01*
X63487625Y-108372873D02*
X64487625Y-108372873D01*
X64344767Y-108277635D01*
X64249529Y-108182396D01*
X64201910Y-108087158D01*
X64487625Y-108991920D02*
X64487625Y-109658587D01*
X63487625Y-109230016D01*
X63582863Y-110039539D02*
X63535244Y-110087158D01*
X63487625Y-110039539D01*
X63535244Y-109991920D01*
X63582863Y-110039539D01*
X63487625Y-110039539D01*
X64487625Y-110420492D02*
X64487625Y-111087158D01*
X63487625Y-110658587D01*
X64059053Y-111610968D02*
X64106672Y-111515730D01*
X64154291Y-111468111D01*
X64249529Y-111420492D01*
X64297148Y-111420492D01*
X64392386Y-111468111D01*
X64440006Y-111515730D01*
X64487625Y-111610968D01*
X64487625Y-111801444D01*
X64440006Y-111896682D01*
X64392386Y-111944301D01*
X64297148Y-111991920D01*
X64249529Y-111991920D01*
X64154291Y-111944301D01*
X64106672Y-111896682D01*
X64059053Y-111801444D01*
X64059053Y-111610968D01*
X64011434Y-111515730D01*
X63963815Y-111468111D01*
X63868577Y-111420492D01*
X63678101Y-111420492D01*
X63582863Y-111468111D01*
X63535244Y-111515730D01*
X63487625Y-111610968D01*
X63487625Y-111801444D01*
X63535244Y-111896682D01*
X63582863Y-111944301D01*
X63678101Y-111991920D01*
X63868577Y-111991920D01*
X63963815Y-111944301D01*
X64011434Y-111896682D01*
X64059053Y-111801444D01*
X64487625Y-112610968D02*
X64487625Y-112706206D01*
X64440006Y-112801444D01*
X64392386Y-112849063D01*
X64297148Y-112896682D01*
X64106672Y-112944301D01*
X63868577Y-112944301D01*
X63678101Y-112896682D01*
X63582863Y-112849063D01*
X63535244Y-112801444D01*
X63487625Y-112706206D01*
X63487625Y-112610968D01*
X63535244Y-112515730D01*
X63582863Y-112468111D01*
X63678101Y-112420492D01*
X63868577Y-112372873D01*
X64106672Y-112372873D01*
X64297148Y-112420492D01*
X64392386Y-112468111D01*
X64440006Y-112515730D01*
X64487625Y-112610968D01*
X63487625Y-114134777D02*
X64154291Y-114134777D01*
X64059053Y-114134777D02*
X64106672Y-114182396D01*
X64154291Y-114277635D01*
X64154291Y-114420492D01*
X64106672Y-114515730D01*
X64011434Y-114563349D01*
X63487625Y-114563349D01*
X64011434Y-114563349D02*
X64106672Y-114610968D01*
X64154291Y-114706206D01*
X64154291Y-114849063D01*
X64106672Y-114944301D01*
X64011434Y-114991920D01*
X63487625Y-114991920D01*
X63487625Y-115468111D02*
X64154291Y-115468111D01*
X64059053Y-115468111D02*
X64106672Y-115515730D01*
X64154291Y-115610968D01*
X64154291Y-115753825D01*
X64106672Y-115849063D01*
X64011434Y-115896682D01*
X63487625Y-115896682D01*
X64011434Y-115896682D02*
X64106672Y-115944301D01*
X64154291Y-116039539D01*
X64154291Y-116182396D01*
X64106672Y-116277635D01*
X64011434Y-116325254D01*
X63487625Y-116325254D01*
X65240006Y-103340016D02*
X65240006Y-121120016D01*
X67780006Y-103340016D02*
X64653585Y-103340016D01*
X67780006Y-121120016D02*
X64653585Y-121120016D01*
X65240006Y-121120016D02*
X64653585Y-119993512D01*
X65240006Y-121120016D02*
X65826427Y-119993512D01*
X65240006Y-103340016D02*
X64653585Y-104466520D01*
X65240006Y-103340016D02*
X65826427Y-104466520D01*
X73098577Y-99952396D02*
X72527148Y-99952396D01*
X72812863Y-99952396D02*
X72812863Y-98952396D01*
X72717625Y-99095254D01*
X72622386Y-99190492D01*
X72527148Y-99238111D01*
X73431910Y-98952396D02*
X74098577Y-98952396D01*
X73670006Y-99952396D01*
X74479529Y-99857158D02*
X74527148Y-99904777D01*
X74479529Y-99952396D01*
X74431910Y-99904777D01*
X74479529Y-99857158D01*
X74479529Y-99952396D01*
X74860482Y-98952396D02*
X75527148Y-98952396D01*
X75098577Y-99952396D01*
X76050958Y-99380968D02*
X75955720Y-99333349D01*
X75908101Y-99285730D01*
X75860482Y-99190492D01*
X75860482Y-99142873D01*
X75908101Y-99047635D01*
X75955720Y-99000016D01*
X76050958Y-98952396D01*
X76241434Y-98952396D01*
X76336672Y-99000016D01*
X76384291Y-99047635D01*
X76431910Y-99142873D01*
X76431910Y-99190492D01*
X76384291Y-99285730D01*
X76336672Y-99333349D01*
X76241434Y-99380968D01*
X76050958Y-99380968D01*
X75955720Y-99428587D01*
X75908101Y-99476206D01*
X75860482Y-99571444D01*
X75860482Y-99761920D01*
X75908101Y-99857158D01*
X75955720Y-99904777D01*
X76050958Y-99952396D01*
X76241434Y-99952396D01*
X76336672Y-99904777D01*
X76384291Y-99857158D01*
X76431910Y-99761920D01*
X76431910Y-99571444D01*
X76384291Y-99476206D01*
X76336672Y-99428587D01*
X76241434Y-99380968D01*
X77050958Y-98952396D02*
X77146196Y-98952396D01*
X77241434Y-99000016D01*
X77289053Y-99047635D01*
X77336672Y-99142873D01*
X77384291Y-99333349D01*
X77384291Y-99571444D01*
X77336672Y-99761920D01*
X77289053Y-99857158D01*
X77241434Y-99904777D01*
X77146196Y-99952396D01*
X77050958Y-99952396D01*
X76955720Y-99904777D01*
X76908101Y-99857158D01*
X76860482Y-99761920D01*
X76812863Y-99571444D01*
X76812863Y-99333349D01*
X76860482Y-99142873D01*
X76908101Y-99047635D01*
X76955720Y-99000016D01*
X77050958Y-98952396D01*
X78574767Y-99952396D02*
X78574767Y-99285730D01*
X78574767Y-99380968D02*
X78622386Y-99333349D01*
X78717625Y-99285730D01*
X78860482Y-99285730D01*
X78955720Y-99333349D01*
X79003339Y-99428587D01*
X79003339Y-99952396D01*
X79003339Y-99428587D02*
X79050958Y-99333349D01*
X79146196Y-99285730D01*
X79289053Y-99285730D01*
X79384291Y-99333349D01*
X79431910Y-99428587D01*
X79431910Y-99952396D01*
X79908101Y-99952396D02*
X79908101Y-99285730D01*
X79908101Y-99380968D02*
X79955720Y-99333349D01*
X80050958Y-99285730D01*
X80193815Y-99285730D01*
X80289053Y-99333349D01*
X80336672Y-99428587D01*
X80336672Y-99952396D01*
X80336672Y-99428587D02*
X80384291Y-99333349D01*
X80479529Y-99285730D01*
X80622386Y-99285730D01*
X80717625Y-99333349D01*
X80765244Y-99428587D01*
X80765244Y-99952396D01*
X67780006Y-100800016D02*
X85560006Y-100800016D01*
X67780006Y-103340016D02*
X67780006Y-100213595D01*
X85560006Y-103340016D02*
X85560006Y-100213595D01*
X85560006Y-100800016D02*
X84433502Y-101386437D01*
X85560006Y-100800016D02*
X84433502Y-100213595D01*
X67780006Y-100800016D02*
X68906510Y-101386437D01*
X67780006Y-100800016D02*
X68906510Y-100213595D01*
X45707620Y-108658587D02*
X45707620Y-108087158D01*
X45707620Y-108372873D02*
X46707620Y-108372873D01*
X46564762Y-108277635D01*
X46469524Y-108182396D01*
X46421905Y-108087158D01*
X46707620Y-108991920D02*
X46707620Y-109658587D01*
X45707620Y-109230016D01*
X45802858Y-110039539D02*
X45755239Y-110087158D01*
X45707620Y-110039539D01*
X45755239Y-109991920D01*
X45802858Y-110039539D01*
X45707620Y-110039539D01*
X46707620Y-110420492D02*
X46707620Y-111087158D01*
X45707620Y-110658587D01*
X46279048Y-111610968D02*
X46326667Y-111515730D01*
X46374286Y-111468111D01*
X46469524Y-111420492D01*
X46517143Y-111420492D01*
X46612381Y-111468111D01*
X46660001Y-111515730D01*
X46707620Y-111610968D01*
X46707620Y-111801444D01*
X46660001Y-111896682D01*
X46612381Y-111944301D01*
X46517143Y-111991920D01*
X46469524Y-111991920D01*
X46374286Y-111944301D01*
X46326667Y-111896682D01*
X46279048Y-111801444D01*
X46279048Y-111610968D01*
X46231429Y-111515730D01*
X46183810Y-111468111D01*
X46088572Y-111420492D01*
X45898096Y-111420492D01*
X45802858Y-111468111D01*
X45755239Y-111515730D01*
X45707620Y-111610968D01*
X45707620Y-111801444D01*
X45755239Y-111896682D01*
X45802858Y-111944301D01*
X45898096Y-111991920D01*
X46088572Y-111991920D01*
X46183810Y-111944301D01*
X46231429Y-111896682D01*
X46279048Y-111801444D01*
X46707620Y-112610968D02*
X46707620Y-112706206D01*
X46660001Y-112801444D01*
X46612381Y-112849063D01*
X46517143Y-112896682D01*
X46326667Y-112944301D01*
X46088572Y-112944301D01*
X45898096Y-112896682D01*
X45802858Y-112849063D01*
X45755239Y-112801444D01*
X45707620Y-112706206D01*
X45707620Y-112610968D01*
X45755239Y-112515730D01*
X45802858Y-112468111D01*
X45898096Y-112420492D01*
X46088572Y-112372873D01*
X46326667Y-112372873D01*
X46517143Y-112420492D01*
X46612381Y-112468111D01*
X46660001Y-112515730D01*
X46707620Y-112610968D01*
X45707620Y-114134777D02*
X46374286Y-114134777D01*
X46279048Y-114134777D02*
X46326667Y-114182396D01*
X46374286Y-114277635D01*
X46374286Y-114420492D01*
X46326667Y-114515730D01*
X46231429Y-114563349D01*
X45707620Y-114563349D01*
X46231429Y-114563349D02*
X46326667Y-114610968D01*
X46374286Y-114706206D01*
X46374286Y-114849063D01*
X46326667Y-114944301D01*
X46231429Y-114991920D01*
X45707620Y-114991920D01*
X45707620Y-115468111D02*
X46374286Y-115468111D01*
X46279048Y-115468111D02*
X46326667Y-115515730D01*
X46374286Y-115610968D01*
X46374286Y-115753825D01*
X46326667Y-115849063D01*
X46231429Y-115896682D01*
X45707620Y-115896682D01*
X46231429Y-115896682D02*
X46326667Y-115944301D01*
X46374286Y-116039539D01*
X46374286Y-116182396D01*
X46326667Y-116277635D01*
X46231429Y-116325254D01*
X45707620Y-116325254D01*
X47460001Y-103340016D02*
X47460001Y-121120016D01*
X50000001Y-103340016D02*
X46873580Y-103340016D01*
X50000001Y-121120016D02*
X46873580Y-121120016D01*
X47460001Y-121120016D02*
X46873580Y-119993512D01*
X47460001Y-121120016D02*
X48046422Y-119993512D01*
X47460001Y-103340016D02*
X46873580Y-104466520D01*
X47460001Y-103340016D02*
X48046422Y-104466520D01*
X55318572Y-99952396D02*
X54747143Y-99952396D01*
X55032858Y-99952396D02*
X55032858Y-98952396D01*
X54937620Y-99095254D01*
X54842381Y-99190492D01*
X54747143Y-99238111D01*
X55651905Y-98952396D02*
X56318572Y-98952396D01*
X55890001Y-99952396D01*
X56699524Y-99857158D02*
X56747143Y-99904777D01*
X56699524Y-99952396D01*
X56651905Y-99904777D01*
X56699524Y-99857158D01*
X56699524Y-99952396D01*
X57080477Y-98952396D02*
X57747143Y-98952396D01*
X57318572Y-99952396D01*
X58270953Y-99380968D02*
X58175715Y-99333349D01*
X58128096Y-99285730D01*
X58080477Y-99190492D01*
X58080477Y-99142873D01*
X58128096Y-99047635D01*
X58175715Y-99000016D01*
X58270953Y-98952396D01*
X58461429Y-98952396D01*
X58556667Y-99000016D01*
X58604286Y-99047635D01*
X58651905Y-99142873D01*
X58651905Y-99190492D01*
X58604286Y-99285730D01*
X58556667Y-99333349D01*
X58461429Y-99380968D01*
X58270953Y-99380968D01*
X58175715Y-99428587D01*
X58128096Y-99476206D01*
X58080477Y-99571444D01*
X58080477Y-99761920D01*
X58128096Y-99857158D01*
X58175715Y-99904777D01*
X58270953Y-99952396D01*
X58461429Y-99952396D01*
X58556667Y-99904777D01*
X58604286Y-99857158D01*
X58651905Y-99761920D01*
X58651905Y-99571444D01*
X58604286Y-99476206D01*
X58556667Y-99428587D01*
X58461429Y-99380968D01*
X59270953Y-98952396D02*
X59366191Y-98952396D01*
X59461429Y-99000016D01*
X59509048Y-99047635D01*
X59556667Y-99142873D01*
X59604286Y-99333349D01*
X59604286Y-99571444D01*
X59556667Y-99761920D01*
X59509048Y-99857158D01*
X59461429Y-99904777D01*
X59366191Y-99952396D01*
X59270953Y-99952396D01*
X59175715Y-99904777D01*
X59128096Y-99857158D01*
X59080477Y-99761920D01*
X59032858Y-99571444D01*
X59032858Y-99333349D01*
X59080477Y-99142873D01*
X59128096Y-99047635D01*
X59175715Y-99000016D01*
X59270953Y-98952396D01*
X60794762Y-99952396D02*
X60794762Y-99285730D01*
X60794762Y-99380968D02*
X60842381Y-99333349D01*
X60937620Y-99285730D01*
X61080477Y-99285730D01*
X61175715Y-99333349D01*
X61223334Y-99428587D01*
X61223334Y-99952396D01*
X61223334Y-99428587D02*
X61270953Y-99333349D01*
X61366191Y-99285730D01*
X61509048Y-99285730D01*
X61604286Y-99333349D01*
X61651905Y-99428587D01*
X61651905Y-99952396D01*
X62128096Y-99952396D02*
X62128096Y-99285730D01*
X62128096Y-99380968D02*
X62175715Y-99333349D01*
X62270953Y-99285730D01*
X62413810Y-99285730D01*
X62509048Y-99333349D01*
X62556667Y-99428587D01*
X62556667Y-99952396D01*
X62556667Y-99428587D02*
X62604286Y-99333349D01*
X62699524Y-99285730D01*
X62842381Y-99285730D01*
X62937620Y-99333349D01*
X62985239Y-99428587D01*
X62985239Y-99952396D01*
X50000001Y-100800016D02*
X67780001Y-100800016D01*
X50000001Y-103340016D02*
X50000001Y-100213595D01*
X67780001Y-103340016D02*
X67780001Y-100213595D01*
X67780001Y-100800016D02*
X66653497Y-101386437D01*
X67780001Y-100800016D02*
X66653497Y-100213595D01*
X50000001Y-100800016D02*
X51126505Y-101386437D01*
X50000001Y-100800016D02*
X51126505Y-100213595D01*
X99047635Y-90878582D02*
X99047635Y-90307153D01*
X99047635Y-90592868D02*
X100047635Y-90592868D01*
X99904777Y-90497630D01*
X99809539Y-90402391D01*
X99761920Y-90307153D01*
X100047635Y-91211915D02*
X100047635Y-91878582D01*
X99047635Y-91450011D01*
X99142873Y-92259534D02*
X99095254Y-92307153D01*
X99047635Y-92259534D01*
X99095254Y-92211915D01*
X99142873Y-92259534D01*
X99047635Y-92259534D01*
X100047635Y-92640487D02*
X100047635Y-93307153D01*
X99047635Y-92878582D01*
X99619063Y-93830963D02*
X99666682Y-93735725D01*
X99714301Y-93688106D01*
X99809539Y-93640487D01*
X99857158Y-93640487D01*
X99952396Y-93688106D01*
X100000016Y-93735725D01*
X100047635Y-93830963D01*
X100047635Y-94021439D01*
X100000016Y-94116677D01*
X99952396Y-94164296D01*
X99857158Y-94211915D01*
X99809539Y-94211915D01*
X99714301Y-94164296D01*
X99666682Y-94116677D01*
X99619063Y-94021439D01*
X99619063Y-93830963D01*
X99571444Y-93735725D01*
X99523825Y-93688106D01*
X99428587Y-93640487D01*
X99238111Y-93640487D01*
X99142873Y-93688106D01*
X99095254Y-93735725D01*
X99047635Y-93830963D01*
X99047635Y-94021439D01*
X99095254Y-94116677D01*
X99142873Y-94164296D01*
X99238111Y-94211915D01*
X99428587Y-94211915D01*
X99523825Y-94164296D01*
X99571444Y-94116677D01*
X99619063Y-94021439D01*
X100047635Y-94830963D02*
X100047635Y-94926201D01*
X100000016Y-95021439D01*
X99952396Y-95069058D01*
X99857158Y-95116677D01*
X99666682Y-95164296D01*
X99428587Y-95164296D01*
X99238111Y-95116677D01*
X99142873Y-95069058D01*
X99095254Y-95021439D01*
X99047635Y-94926201D01*
X99047635Y-94830963D01*
X99095254Y-94735725D01*
X99142873Y-94688106D01*
X99238111Y-94640487D01*
X99428587Y-94592868D01*
X99666682Y-94592868D01*
X99857158Y-94640487D01*
X99952396Y-94688106D01*
X100000016Y-94735725D01*
X100047635Y-94830963D01*
X99047635Y-96354772D02*
X99714301Y-96354772D01*
X99619063Y-96354772D02*
X99666682Y-96402391D01*
X99714301Y-96497630D01*
X99714301Y-96640487D01*
X99666682Y-96735725D01*
X99571444Y-96783344D01*
X99047635Y-96783344D01*
X99571444Y-96783344D02*
X99666682Y-96830963D01*
X99714301Y-96926201D01*
X99714301Y-97069058D01*
X99666682Y-97164296D01*
X99571444Y-97211915D01*
X99047635Y-97211915D01*
X99047635Y-97688106D02*
X99714301Y-97688106D01*
X99619063Y-97688106D02*
X99666682Y-97735725D01*
X99714301Y-97830963D01*
X99714301Y-97973820D01*
X99666682Y-98069058D01*
X99571444Y-98116677D01*
X99047635Y-98116677D01*
X99571444Y-98116677D02*
X99666682Y-98164296D01*
X99714301Y-98259534D01*
X99714301Y-98402391D01*
X99666682Y-98497630D01*
X99571444Y-98545249D01*
X99047635Y-98545249D01*
X100800016Y-85560011D02*
X100800016Y-103340011D01*
X103340016Y-85560011D02*
X100213595Y-85560011D01*
X103340016Y-103340011D02*
X100213595Y-103340011D01*
X100800016Y-103340011D02*
X100213595Y-102213507D01*
X100800016Y-103340011D02*
X101386437Y-102213507D01*
X100800016Y-85560011D02*
X100213595Y-86686515D01*
X100800016Y-85560011D02*
X101386437Y-86686515D01*
X108658587Y-82172391D02*
X108087158Y-82172391D01*
X108372873Y-82172391D02*
X108372873Y-81172391D01*
X108277635Y-81315249D01*
X108182396Y-81410487D01*
X108087158Y-81458106D01*
X108991920Y-81172391D02*
X109658587Y-81172391D01*
X109230016Y-82172391D01*
X110039539Y-82077153D02*
X110087158Y-82124772D01*
X110039539Y-82172391D01*
X109991920Y-82124772D01*
X110039539Y-82077153D01*
X110039539Y-82172391D01*
X110420492Y-81172391D02*
X111087158Y-81172391D01*
X110658587Y-82172391D01*
X111610968Y-81600963D02*
X111515730Y-81553344D01*
X111468111Y-81505725D01*
X111420492Y-81410487D01*
X111420492Y-81362868D01*
X111468111Y-81267630D01*
X111515730Y-81220011D01*
X111610968Y-81172391D01*
X111801444Y-81172391D01*
X111896682Y-81220011D01*
X111944301Y-81267630D01*
X111991920Y-81362868D01*
X111991920Y-81410487D01*
X111944301Y-81505725D01*
X111896682Y-81553344D01*
X111801444Y-81600963D01*
X111610968Y-81600963D01*
X111515730Y-81648582D01*
X111468111Y-81696201D01*
X111420492Y-81791439D01*
X111420492Y-81981915D01*
X111468111Y-82077153D01*
X111515730Y-82124772D01*
X111610968Y-82172391D01*
X111801444Y-82172391D01*
X111896682Y-82124772D01*
X111944301Y-82077153D01*
X111991920Y-81981915D01*
X111991920Y-81791439D01*
X111944301Y-81696201D01*
X111896682Y-81648582D01*
X111801444Y-81600963D01*
X112610968Y-81172391D02*
X112706206Y-81172391D01*
X112801444Y-81220011D01*
X112849063Y-81267630D01*
X112896682Y-81362868D01*
X112944301Y-81553344D01*
X112944301Y-81791439D01*
X112896682Y-81981915D01*
X112849063Y-82077153D01*
X112801444Y-82124772D01*
X112706206Y-82172391D01*
X112610968Y-82172391D01*
X112515730Y-82124772D01*
X112468111Y-82077153D01*
X112420492Y-81981915D01*
X112372873Y-81791439D01*
X112372873Y-81553344D01*
X112420492Y-81362868D01*
X112468111Y-81267630D01*
X112515730Y-81220011D01*
X112610968Y-81172391D01*
X114134777Y-82172391D02*
X114134777Y-81505725D01*
X114134777Y-81600963D02*
X114182396Y-81553344D01*
X114277635Y-81505725D01*
X114420492Y-81505725D01*
X114515730Y-81553344D01*
X114563349Y-81648582D01*
X114563349Y-82172391D01*
X114563349Y-81648582D02*
X114610968Y-81553344D01*
X114706206Y-81505725D01*
X114849063Y-81505725D01*
X114944301Y-81553344D01*
X114991920Y-81648582D01*
X114991920Y-82172391D01*
X115468111Y-82172391D02*
X115468111Y-81505725D01*
X115468111Y-81600963D02*
X115515730Y-81553344D01*
X115610968Y-81505725D01*
X115753825Y-81505725D01*
X115849063Y-81553344D01*
X115896682Y-81648582D01*
X115896682Y-82172391D01*
X115896682Y-81648582D02*
X115944301Y-81553344D01*
X116039539Y-81505725D01*
X116182396Y-81505725D01*
X116277635Y-81553344D01*
X116325254Y-81648582D01*
X116325254Y-82172391D01*
X103340016Y-83020011D02*
X121120016Y-83020011D01*
X103340016Y-85560011D02*
X103340016Y-82433590D01*
X121120016Y-85560011D02*
X121120016Y-82433590D01*
X121120016Y-83020011D02*
X119993512Y-83606432D01*
X121120016Y-83020011D02*
X119993512Y-82433590D01*
X103340016Y-83020011D02*
X104466520Y-83606432D01*
X103340016Y-83020011D02*
X104466520Y-82433590D01*
X81267630Y-90878582D02*
X81267630Y-90307153D01*
X81267630Y-90592868D02*
X82267630Y-90592868D01*
X82124772Y-90497630D01*
X82029534Y-90402391D01*
X81981915Y-90307153D01*
X82267630Y-91211915D02*
X82267630Y-91878582D01*
X81267630Y-91450011D01*
X81362868Y-92259534D02*
X81315249Y-92307153D01*
X81267630Y-92259534D01*
X81315249Y-92211915D01*
X81362868Y-92259534D01*
X81267630Y-92259534D01*
X82267630Y-92640487D02*
X82267630Y-93307153D01*
X81267630Y-92878582D01*
X81839058Y-93830963D02*
X81886677Y-93735725D01*
X81934296Y-93688106D01*
X82029534Y-93640487D01*
X82077153Y-93640487D01*
X82172391Y-93688106D01*
X82220011Y-93735725D01*
X82267630Y-93830963D01*
X82267630Y-94021439D01*
X82220011Y-94116677D01*
X82172391Y-94164296D01*
X82077153Y-94211915D01*
X82029534Y-94211915D01*
X81934296Y-94164296D01*
X81886677Y-94116677D01*
X81839058Y-94021439D01*
X81839058Y-93830963D01*
X81791439Y-93735725D01*
X81743820Y-93688106D01*
X81648582Y-93640487D01*
X81458106Y-93640487D01*
X81362868Y-93688106D01*
X81315249Y-93735725D01*
X81267630Y-93830963D01*
X81267630Y-94021439D01*
X81315249Y-94116677D01*
X81362868Y-94164296D01*
X81458106Y-94211915D01*
X81648582Y-94211915D01*
X81743820Y-94164296D01*
X81791439Y-94116677D01*
X81839058Y-94021439D01*
X82267630Y-94830963D02*
X82267630Y-94926201D01*
X82220011Y-95021439D01*
X82172391Y-95069058D01*
X82077153Y-95116677D01*
X81886677Y-95164296D01*
X81648582Y-95164296D01*
X81458106Y-95116677D01*
X81362868Y-95069058D01*
X81315249Y-95021439D01*
X81267630Y-94926201D01*
X81267630Y-94830963D01*
X81315249Y-94735725D01*
X81362868Y-94688106D01*
X81458106Y-94640487D01*
X81648582Y-94592868D01*
X81886677Y-94592868D01*
X82077153Y-94640487D01*
X82172391Y-94688106D01*
X82220011Y-94735725D01*
X82267630Y-94830963D01*
X81267630Y-96354772D02*
X81934296Y-96354772D01*
X81839058Y-96354772D02*
X81886677Y-96402391D01*
X81934296Y-96497630D01*
X81934296Y-96640487D01*
X81886677Y-96735725D01*
X81791439Y-96783344D01*
X81267630Y-96783344D01*
X81791439Y-96783344D02*
X81886677Y-96830963D01*
X81934296Y-96926201D01*
X81934296Y-97069058D01*
X81886677Y-97164296D01*
X81791439Y-97211915D01*
X81267630Y-97211915D01*
X81267630Y-97688106D02*
X81934296Y-97688106D01*
X81839058Y-97688106D02*
X81886677Y-97735725D01*
X81934296Y-97830963D01*
X81934296Y-97973820D01*
X81886677Y-98069058D01*
X81791439Y-98116677D01*
X81267630Y-98116677D01*
X81791439Y-98116677D02*
X81886677Y-98164296D01*
X81934296Y-98259534D01*
X81934296Y-98402391D01*
X81886677Y-98497630D01*
X81791439Y-98545249D01*
X81267630Y-98545249D01*
X83020011Y-85560011D02*
X83020011Y-103340011D01*
X85560011Y-85560011D02*
X82433590Y-85560011D01*
X85560011Y-103340011D02*
X82433590Y-103340011D01*
X83020011Y-103340011D02*
X82433590Y-102213507D01*
X83020011Y-103340011D02*
X83606432Y-102213507D01*
X83020011Y-85560011D02*
X82433590Y-86686515D01*
X83020011Y-85560011D02*
X83606432Y-86686515D01*
X90878582Y-82172391D02*
X90307153Y-82172391D01*
X90592868Y-82172391D02*
X90592868Y-81172391D01*
X90497630Y-81315249D01*
X90402391Y-81410487D01*
X90307153Y-81458106D01*
X91211915Y-81172391D02*
X91878582Y-81172391D01*
X91450011Y-82172391D01*
X92259534Y-82077153D02*
X92307153Y-82124772D01*
X92259534Y-82172391D01*
X92211915Y-82124772D01*
X92259534Y-82077153D01*
X92259534Y-82172391D01*
X92640487Y-81172391D02*
X93307153Y-81172391D01*
X92878582Y-82172391D01*
X93830963Y-81600963D02*
X93735725Y-81553344D01*
X93688106Y-81505725D01*
X93640487Y-81410487D01*
X93640487Y-81362868D01*
X93688106Y-81267630D01*
X93735725Y-81220011D01*
X93830963Y-81172391D01*
X94021439Y-81172391D01*
X94116677Y-81220011D01*
X94164296Y-81267630D01*
X94211915Y-81362868D01*
X94211915Y-81410487D01*
X94164296Y-81505725D01*
X94116677Y-81553344D01*
X94021439Y-81600963D01*
X93830963Y-81600963D01*
X93735725Y-81648582D01*
X93688106Y-81696201D01*
X93640487Y-81791439D01*
X93640487Y-81981915D01*
X93688106Y-82077153D01*
X93735725Y-82124772D01*
X93830963Y-82172391D01*
X94021439Y-82172391D01*
X94116677Y-82124772D01*
X94164296Y-82077153D01*
X94211915Y-81981915D01*
X94211915Y-81791439D01*
X94164296Y-81696201D01*
X94116677Y-81648582D01*
X94021439Y-81600963D01*
X94830963Y-81172391D02*
X94926201Y-81172391D01*
X95021439Y-81220011D01*
X95069058Y-81267630D01*
X95116677Y-81362868D01*
X95164296Y-81553344D01*
X95164296Y-81791439D01*
X95116677Y-81981915D01*
X95069058Y-82077153D01*
X95021439Y-82124772D01*
X94926201Y-82172391D01*
X94830963Y-82172391D01*
X94735725Y-82124772D01*
X94688106Y-82077153D01*
X94640487Y-81981915D01*
X94592868Y-81791439D01*
X94592868Y-81553344D01*
X94640487Y-81362868D01*
X94688106Y-81267630D01*
X94735725Y-81220011D01*
X94830963Y-81172391D01*
X96354772Y-82172391D02*
X96354772Y-81505725D01*
X96354772Y-81600963D02*
X96402391Y-81553344D01*
X96497630Y-81505725D01*
X96640487Y-81505725D01*
X96735725Y-81553344D01*
X96783344Y-81648582D01*
X96783344Y-82172391D01*
X96783344Y-81648582D02*
X96830963Y-81553344D01*
X96926201Y-81505725D01*
X97069058Y-81505725D01*
X97164296Y-81553344D01*
X97211915Y-81648582D01*
X97211915Y-82172391D01*
X97688106Y-82172391D02*
X97688106Y-81505725D01*
X97688106Y-81600963D02*
X97735725Y-81553344D01*
X97830963Y-81505725D01*
X97973820Y-81505725D01*
X98069058Y-81553344D01*
X98116677Y-81648582D01*
X98116677Y-82172391D01*
X98116677Y-81648582D02*
X98164296Y-81553344D01*
X98259534Y-81505725D01*
X98402391Y-81505725D01*
X98497630Y-81553344D01*
X98545249Y-81648582D01*
X98545249Y-82172391D01*
X85560011Y-83020011D02*
X103340011Y-83020011D01*
X85560011Y-85560011D02*
X85560011Y-82433590D01*
X103340011Y-85560011D02*
X103340011Y-82433590D01*
X103340011Y-83020011D02*
X102213507Y-83606432D01*
X103340011Y-83020011D02*
X102213507Y-82433590D01*
X85560011Y-83020011D02*
X86686515Y-83606432D01*
X85560011Y-83020011D02*
X86686515Y-82433590D01*
X63487625Y-90878582D02*
X63487625Y-90307153D01*
X63487625Y-90592868D02*
X64487625Y-90592868D01*
X64344767Y-90497630D01*
X64249529Y-90402391D01*
X64201910Y-90307153D01*
X64487625Y-91211915D02*
X64487625Y-91878582D01*
X63487625Y-91450011D01*
X63582863Y-92259534D02*
X63535244Y-92307153D01*
X63487625Y-92259534D01*
X63535244Y-92211915D01*
X63582863Y-92259534D01*
X63487625Y-92259534D01*
X64487625Y-92640487D02*
X64487625Y-93307153D01*
X63487625Y-92878582D01*
X64059053Y-93830963D02*
X64106672Y-93735725D01*
X64154291Y-93688106D01*
X64249529Y-93640487D01*
X64297148Y-93640487D01*
X64392386Y-93688106D01*
X64440006Y-93735725D01*
X64487625Y-93830963D01*
X64487625Y-94021439D01*
X64440006Y-94116677D01*
X64392386Y-94164296D01*
X64297148Y-94211915D01*
X64249529Y-94211915D01*
X64154291Y-94164296D01*
X64106672Y-94116677D01*
X64059053Y-94021439D01*
X64059053Y-93830963D01*
X64011434Y-93735725D01*
X63963815Y-93688106D01*
X63868577Y-93640487D01*
X63678101Y-93640487D01*
X63582863Y-93688106D01*
X63535244Y-93735725D01*
X63487625Y-93830963D01*
X63487625Y-94021439D01*
X63535244Y-94116677D01*
X63582863Y-94164296D01*
X63678101Y-94211915D01*
X63868577Y-94211915D01*
X63963815Y-94164296D01*
X64011434Y-94116677D01*
X64059053Y-94021439D01*
X64487625Y-94830963D02*
X64487625Y-94926201D01*
X64440006Y-95021439D01*
X64392386Y-95069058D01*
X64297148Y-95116677D01*
X64106672Y-95164296D01*
X63868577Y-95164296D01*
X63678101Y-95116677D01*
X63582863Y-95069058D01*
X63535244Y-95021439D01*
X63487625Y-94926201D01*
X63487625Y-94830963D01*
X63535244Y-94735725D01*
X63582863Y-94688106D01*
X63678101Y-94640487D01*
X63868577Y-94592868D01*
X64106672Y-94592868D01*
X64297148Y-94640487D01*
X64392386Y-94688106D01*
X64440006Y-94735725D01*
X64487625Y-94830963D01*
X63487625Y-96354772D02*
X64154291Y-96354772D01*
X64059053Y-96354772D02*
X64106672Y-96402391D01*
X64154291Y-96497630D01*
X64154291Y-96640487D01*
X64106672Y-96735725D01*
X64011434Y-96783344D01*
X63487625Y-96783344D01*
X64011434Y-96783344D02*
X64106672Y-96830963D01*
X64154291Y-96926201D01*
X64154291Y-97069058D01*
X64106672Y-97164296D01*
X64011434Y-97211915D01*
X63487625Y-97211915D01*
X63487625Y-97688106D02*
X64154291Y-97688106D01*
X64059053Y-97688106D02*
X64106672Y-97735725D01*
X64154291Y-97830963D01*
X64154291Y-97973820D01*
X64106672Y-98069058D01*
X64011434Y-98116677D01*
X63487625Y-98116677D01*
X64011434Y-98116677D02*
X64106672Y-98164296D01*
X64154291Y-98259534D01*
X64154291Y-98402391D01*
X64106672Y-98497630D01*
X64011434Y-98545249D01*
X63487625Y-98545249D01*
X65240006Y-85560011D02*
X65240006Y-103340011D01*
X67780006Y-85560011D02*
X64653585Y-85560011D01*
X67780006Y-103340011D02*
X64653585Y-103340011D01*
X65240006Y-103340011D02*
X64653585Y-102213507D01*
X65240006Y-103340011D02*
X65826427Y-102213507D01*
X65240006Y-85560011D02*
X64653585Y-86686515D01*
X65240006Y-85560011D02*
X65826427Y-86686515D01*
X73098577Y-82172391D02*
X72527148Y-82172391D01*
X72812863Y-82172391D02*
X72812863Y-81172391D01*
X72717625Y-81315249D01*
X72622386Y-81410487D01*
X72527148Y-81458106D01*
X73431910Y-81172391D02*
X74098577Y-81172391D01*
X73670006Y-82172391D01*
X74479529Y-82077153D02*
X74527148Y-82124772D01*
X74479529Y-82172391D01*
X74431910Y-82124772D01*
X74479529Y-82077153D01*
X74479529Y-82172391D01*
X74860482Y-81172391D02*
X75527148Y-81172391D01*
X75098577Y-82172391D01*
X76050958Y-81600963D02*
X75955720Y-81553344D01*
X75908101Y-81505725D01*
X75860482Y-81410487D01*
X75860482Y-81362868D01*
X75908101Y-81267630D01*
X75955720Y-81220011D01*
X76050958Y-81172391D01*
X76241434Y-81172391D01*
X76336672Y-81220011D01*
X76384291Y-81267630D01*
X76431910Y-81362868D01*
X76431910Y-81410487D01*
X76384291Y-81505725D01*
X76336672Y-81553344D01*
X76241434Y-81600963D01*
X76050958Y-81600963D01*
X75955720Y-81648582D01*
X75908101Y-81696201D01*
X75860482Y-81791439D01*
X75860482Y-81981915D01*
X75908101Y-82077153D01*
X75955720Y-82124772D01*
X76050958Y-82172391D01*
X76241434Y-82172391D01*
X76336672Y-82124772D01*
X76384291Y-82077153D01*
X76431910Y-81981915D01*
X76431910Y-81791439D01*
X76384291Y-81696201D01*
X76336672Y-81648582D01*
X76241434Y-81600963D01*
X77050958Y-81172391D02*
X77146196Y-81172391D01*
X77241434Y-81220011D01*
X77289053Y-81267630D01*
X77336672Y-81362868D01*
X77384291Y-81553344D01*
X77384291Y-81791439D01*
X77336672Y-81981915D01*
X77289053Y-82077153D01*
X77241434Y-82124772D01*
X77146196Y-82172391D01*
X77050958Y-82172391D01*
X76955720Y-82124772D01*
X76908101Y-82077153D01*
X76860482Y-81981915D01*
X76812863Y-81791439D01*
X76812863Y-81553344D01*
X76860482Y-81362868D01*
X76908101Y-81267630D01*
X76955720Y-81220011D01*
X77050958Y-81172391D01*
X78574767Y-82172391D02*
X78574767Y-81505725D01*
X78574767Y-81600963D02*
X78622386Y-81553344D01*
X78717625Y-81505725D01*
X78860482Y-81505725D01*
X78955720Y-81553344D01*
X79003339Y-81648582D01*
X79003339Y-82172391D01*
X79003339Y-81648582D02*
X79050958Y-81553344D01*
X79146196Y-81505725D01*
X79289053Y-81505725D01*
X79384291Y-81553344D01*
X79431910Y-81648582D01*
X79431910Y-82172391D01*
X79908101Y-82172391D02*
X79908101Y-81505725D01*
X79908101Y-81600963D02*
X79955720Y-81553344D01*
X80050958Y-81505725D01*
X80193815Y-81505725D01*
X80289053Y-81553344D01*
X80336672Y-81648582D01*
X80336672Y-82172391D01*
X80336672Y-81648582D02*
X80384291Y-81553344D01*
X80479529Y-81505725D01*
X80622386Y-81505725D01*
X80717625Y-81553344D01*
X80765244Y-81648582D01*
X80765244Y-82172391D01*
X67780006Y-83020011D02*
X85560006Y-83020011D01*
X67780006Y-85560011D02*
X67780006Y-82433590D01*
X85560006Y-85560011D02*
X85560006Y-82433590D01*
X85560006Y-83020011D02*
X84433502Y-83606432D01*
X85560006Y-83020011D02*
X84433502Y-82433590D01*
X67780006Y-83020011D02*
X68906510Y-83606432D01*
X67780006Y-83020011D02*
X68906510Y-82433590D01*
X45707620Y-90878582D02*
X45707620Y-90307153D01*
X45707620Y-90592868D02*
X46707620Y-90592868D01*
X46564762Y-90497630D01*
X46469524Y-90402391D01*
X46421905Y-90307153D01*
X46707620Y-91211915D02*
X46707620Y-91878582D01*
X45707620Y-91450011D01*
X45802858Y-92259534D02*
X45755239Y-92307153D01*
X45707620Y-92259534D01*
X45755239Y-92211915D01*
X45802858Y-92259534D01*
X45707620Y-92259534D01*
X46707620Y-92640487D02*
X46707620Y-93307153D01*
X45707620Y-92878582D01*
X46279048Y-93830963D02*
X46326667Y-93735725D01*
X46374286Y-93688106D01*
X46469524Y-93640487D01*
X46517143Y-93640487D01*
X46612381Y-93688106D01*
X46660001Y-93735725D01*
X46707620Y-93830963D01*
X46707620Y-94021439D01*
X46660001Y-94116677D01*
X46612381Y-94164296D01*
X46517143Y-94211915D01*
X46469524Y-94211915D01*
X46374286Y-94164296D01*
X46326667Y-94116677D01*
X46279048Y-94021439D01*
X46279048Y-93830963D01*
X46231429Y-93735725D01*
X46183810Y-93688106D01*
X46088572Y-93640487D01*
X45898096Y-93640487D01*
X45802858Y-93688106D01*
X45755239Y-93735725D01*
X45707620Y-93830963D01*
X45707620Y-94021439D01*
X45755239Y-94116677D01*
X45802858Y-94164296D01*
X45898096Y-94211915D01*
X46088572Y-94211915D01*
X46183810Y-94164296D01*
X46231429Y-94116677D01*
X46279048Y-94021439D01*
X46707620Y-94830963D02*
X46707620Y-94926201D01*
X46660001Y-95021439D01*
X46612381Y-95069058D01*
X46517143Y-95116677D01*
X46326667Y-95164296D01*
X46088572Y-95164296D01*
X45898096Y-95116677D01*
X45802858Y-95069058D01*
X45755239Y-95021439D01*
X45707620Y-94926201D01*
X45707620Y-94830963D01*
X45755239Y-94735725D01*
X45802858Y-94688106D01*
X45898096Y-94640487D01*
X46088572Y-94592868D01*
X46326667Y-94592868D01*
X46517143Y-94640487D01*
X46612381Y-94688106D01*
X46660001Y-94735725D01*
X46707620Y-94830963D01*
X45707620Y-96354772D02*
X46374286Y-96354772D01*
X46279048Y-96354772D02*
X46326667Y-96402391D01*
X46374286Y-96497630D01*
X46374286Y-96640487D01*
X46326667Y-96735725D01*
X46231429Y-96783344D01*
X45707620Y-96783344D01*
X46231429Y-96783344D02*
X46326667Y-96830963D01*
X46374286Y-96926201D01*
X46374286Y-97069058D01*
X46326667Y-97164296D01*
X46231429Y-97211915D01*
X45707620Y-97211915D01*
X45707620Y-97688106D02*
X46374286Y-97688106D01*
X46279048Y-97688106D02*
X46326667Y-97735725D01*
X46374286Y-97830963D01*
X46374286Y-97973820D01*
X46326667Y-98069058D01*
X46231429Y-98116677D01*
X45707620Y-98116677D01*
X46231429Y-98116677D02*
X46326667Y-98164296D01*
X46374286Y-98259534D01*
X46374286Y-98402391D01*
X46326667Y-98497630D01*
X46231429Y-98545249D01*
X45707620Y-98545249D01*
X47460001Y-85560011D02*
X47460001Y-103340011D01*
X50000001Y-85560011D02*
X46873580Y-85560011D01*
X50000001Y-103340011D02*
X46873580Y-103340011D01*
X47460001Y-103340011D02*
X46873580Y-102213507D01*
X47460001Y-103340011D02*
X48046422Y-102213507D01*
X47460001Y-85560011D02*
X46873580Y-86686515D01*
X47460001Y-85560011D02*
X48046422Y-86686515D01*
X55318572Y-82172391D02*
X54747143Y-82172391D01*
X55032858Y-82172391D02*
X55032858Y-81172391D01*
X54937620Y-81315249D01*
X54842381Y-81410487D01*
X54747143Y-81458106D01*
X55651905Y-81172391D02*
X56318572Y-81172391D01*
X55890001Y-82172391D01*
X56699524Y-82077153D02*
X56747143Y-82124772D01*
X56699524Y-82172391D01*
X56651905Y-82124772D01*
X56699524Y-82077153D01*
X56699524Y-82172391D01*
X57080477Y-81172391D02*
X57747143Y-81172391D01*
X57318572Y-82172391D01*
X58270953Y-81600963D02*
X58175715Y-81553344D01*
X58128096Y-81505725D01*
X58080477Y-81410487D01*
X58080477Y-81362868D01*
X58128096Y-81267630D01*
X58175715Y-81220011D01*
X58270953Y-81172391D01*
X58461429Y-81172391D01*
X58556667Y-81220011D01*
X58604286Y-81267630D01*
X58651905Y-81362868D01*
X58651905Y-81410487D01*
X58604286Y-81505725D01*
X58556667Y-81553344D01*
X58461429Y-81600963D01*
X58270953Y-81600963D01*
X58175715Y-81648582D01*
X58128096Y-81696201D01*
X58080477Y-81791439D01*
X58080477Y-81981915D01*
X58128096Y-82077153D01*
X58175715Y-82124772D01*
X58270953Y-82172391D01*
X58461429Y-82172391D01*
X58556667Y-82124772D01*
X58604286Y-82077153D01*
X58651905Y-81981915D01*
X58651905Y-81791439D01*
X58604286Y-81696201D01*
X58556667Y-81648582D01*
X58461429Y-81600963D01*
X59270953Y-81172391D02*
X59366191Y-81172391D01*
X59461429Y-81220011D01*
X59509048Y-81267630D01*
X59556667Y-81362868D01*
X59604286Y-81553344D01*
X59604286Y-81791439D01*
X59556667Y-81981915D01*
X59509048Y-82077153D01*
X59461429Y-82124772D01*
X59366191Y-82172391D01*
X59270953Y-82172391D01*
X59175715Y-82124772D01*
X59128096Y-82077153D01*
X59080477Y-81981915D01*
X59032858Y-81791439D01*
X59032858Y-81553344D01*
X59080477Y-81362868D01*
X59128096Y-81267630D01*
X59175715Y-81220011D01*
X59270953Y-81172391D01*
X60794762Y-82172391D02*
X60794762Y-81505725D01*
X60794762Y-81600963D02*
X60842381Y-81553344D01*
X60937620Y-81505725D01*
X61080477Y-81505725D01*
X61175715Y-81553344D01*
X61223334Y-81648582D01*
X61223334Y-82172391D01*
X61223334Y-81648582D02*
X61270953Y-81553344D01*
X61366191Y-81505725D01*
X61509048Y-81505725D01*
X61604286Y-81553344D01*
X61651905Y-81648582D01*
X61651905Y-82172391D01*
X62128096Y-82172391D02*
X62128096Y-81505725D01*
X62128096Y-81600963D02*
X62175715Y-81553344D01*
X62270953Y-81505725D01*
X62413810Y-81505725D01*
X62509048Y-81553344D01*
X62556667Y-81648582D01*
X62556667Y-82172391D01*
X62556667Y-81648582D02*
X62604286Y-81553344D01*
X62699524Y-81505725D01*
X62842381Y-81505725D01*
X62937620Y-81553344D01*
X62985239Y-81648582D01*
X62985239Y-82172391D01*
X50000001Y-83020011D02*
X67780001Y-83020011D01*
X50000001Y-85560011D02*
X50000001Y-82433590D01*
X67780001Y-85560011D02*
X67780001Y-82433590D01*
X67780001Y-83020011D02*
X66653497Y-83606432D01*
X67780001Y-83020011D02*
X66653497Y-82433590D01*
X50000001Y-83020011D02*
X51126505Y-83606432D01*
X50000001Y-83020011D02*
X51126505Y-82433590D01*
X99047635Y-73098577D02*
X99047635Y-72527148D01*
X99047635Y-72812863D02*
X100047635Y-72812863D01*
X99904777Y-72717625D01*
X99809539Y-72622386D01*
X99761920Y-72527148D01*
X100047635Y-73431910D02*
X100047635Y-74098577D01*
X99047635Y-73670006D01*
X99142873Y-74479529D02*
X99095254Y-74527148D01*
X99047635Y-74479529D01*
X99095254Y-74431910D01*
X99142873Y-74479529D01*
X99047635Y-74479529D01*
X100047635Y-74860482D02*
X100047635Y-75527148D01*
X99047635Y-75098577D01*
X99619063Y-76050958D02*
X99666682Y-75955720D01*
X99714301Y-75908101D01*
X99809539Y-75860482D01*
X99857158Y-75860482D01*
X99952396Y-75908101D01*
X100000016Y-75955720D01*
X100047635Y-76050958D01*
X100047635Y-76241434D01*
X100000016Y-76336672D01*
X99952396Y-76384291D01*
X99857158Y-76431910D01*
X99809539Y-76431910D01*
X99714301Y-76384291D01*
X99666682Y-76336672D01*
X99619063Y-76241434D01*
X99619063Y-76050958D01*
X99571444Y-75955720D01*
X99523825Y-75908101D01*
X99428587Y-75860482D01*
X99238111Y-75860482D01*
X99142873Y-75908101D01*
X99095254Y-75955720D01*
X99047635Y-76050958D01*
X99047635Y-76241434D01*
X99095254Y-76336672D01*
X99142873Y-76384291D01*
X99238111Y-76431910D01*
X99428587Y-76431910D01*
X99523825Y-76384291D01*
X99571444Y-76336672D01*
X99619063Y-76241434D01*
X100047635Y-77050958D02*
X100047635Y-77146196D01*
X100000016Y-77241434D01*
X99952396Y-77289053D01*
X99857158Y-77336672D01*
X99666682Y-77384291D01*
X99428587Y-77384291D01*
X99238111Y-77336672D01*
X99142873Y-77289053D01*
X99095254Y-77241434D01*
X99047635Y-77146196D01*
X99047635Y-77050958D01*
X99095254Y-76955720D01*
X99142873Y-76908101D01*
X99238111Y-76860482D01*
X99428587Y-76812863D01*
X99666682Y-76812863D01*
X99857158Y-76860482D01*
X99952396Y-76908101D01*
X100000016Y-76955720D01*
X100047635Y-77050958D01*
X99047635Y-78574767D02*
X99714301Y-78574767D01*
X99619063Y-78574767D02*
X99666682Y-78622386D01*
X99714301Y-78717625D01*
X99714301Y-78860482D01*
X99666682Y-78955720D01*
X99571444Y-79003339D01*
X99047635Y-79003339D01*
X99571444Y-79003339D02*
X99666682Y-79050958D01*
X99714301Y-79146196D01*
X99714301Y-79289053D01*
X99666682Y-79384291D01*
X99571444Y-79431910D01*
X99047635Y-79431910D01*
X99047635Y-79908101D02*
X99714301Y-79908101D01*
X99619063Y-79908101D02*
X99666682Y-79955720D01*
X99714301Y-80050958D01*
X99714301Y-80193815D01*
X99666682Y-80289053D01*
X99571444Y-80336672D01*
X99047635Y-80336672D01*
X99571444Y-80336672D02*
X99666682Y-80384291D01*
X99714301Y-80479529D01*
X99714301Y-80622386D01*
X99666682Y-80717625D01*
X99571444Y-80765244D01*
X99047635Y-80765244D01*
X100800016Y-67780006D02*
X100800016Y-85560006D01*
X103340016Y-67780006D02*
X100213595Y-67780006D01*
X103340016Y-85560006D02*
X100213595Y-85560006D01*
X100800016Y-85560006D02*
X100213595Y-84433502D01*
X100800016Y-85560006D02*
X101386437Y-84433502D01*
X100800016Y-67780006D02*
X100213595Y-68906510D01*
X100800016Y-67780006D02*
X101386437Y-68906510D01*
X108658587Y-64392386D02*
X108087158Y-64392386D01*
X108372873Y-64392386D02*
X108372873Y-63392386D01*
X108277635Y-63535244D01*
X108182396Y-63630482D01*
X108087158Y-63678101D01*
X108991920Y-63392386D02*
X109658587Y-63392386D01*
X109230016Y-64392386D01*
X110039539Y-64297148D02*
X110087158Y-64344767D01*
X110039539Y-64392386D01*
X109991920Y-64344767D01*
X110039539Y-64297148D01*
X110039539Y-64392386D01*
X110420492Y-63392386D02*
X111087158Y-63392386D01*
X110658587Y-64392386D01*
X111610968Y-63820958D02*
X111515730Y-63773339D01*
X111468111Y-63725720D01*
X111420492Y-63630482D01*
X111420492Y-63582863D01*
X111468111Y-63487625D01*
X111515730Y-63440006D01*
X111610968Y-63392386D01*
X111801444Y-63392386D01*
X111896682Y-63440006D01*
X111944301Y-63487625D01*
X111991920Y-63582863D01*
X111991920Y-63630482D01*
X111944301Y-63725720D01*
X111896682Y-63773339D01*
X111801444Y-63820958D01*
X111610968Y-63820958D01*
X111515730Y-63868577D01*
X111468111Y-63916196D01*
X111420492Y-64011434D01*
X111420492Y-64201910D01*
X111468111Y-64297148D01*
X111515730Y-64344767D01*
X111610968Y-64392386D01*
X111801444Y-64392386D01*
X111896682Y-64344767D01*
X111944301Y-64297148D01*
X111991920Y-64201910D01*
X111991920Y-64011434D01*
X111944301Y-63916196D01*
X111896682Y-63868577D01*
X111801444Y-63820958D01*
X112610968Y-63392386D02*
X112706206Y-63392386D01*
X112801444Y-63440006D01*
X112849063Y-63487625D01*
X112896682Y-63582863D01*
X112944301Y-63773339D01*
X112944301Y-64011434D01*
X112896682Y-64201910D01*
X112849063Y-64297148D01*
X112801444Y-64344767D01*
X112706206Y-64392386D01*
X112610968Y-64392386D01*
X112515730Y-64344767D01*
X112468111Y-64297148D01*
X112420492Y-64201910D01*
X112372873Y-64011434D01*
X112372873Y-63773339D01*
X112420492Y-63582863D01*
X112468111Y-63487625D01*
X112515730Y-63440006D01*
X112610968Y-63392386D01*
X114134777Y-64392386D02*
X114134777Y-63725720D01*
X114134777Y-63820958D02*
X114182396Y-63773339D01*
X114277635Y-63725720D01*
X114420492Y-63725720D01*
X114515730Y-63773339D01*
X114563349Y-63868577D01*
X114563349Y-64392386D01*
X114563349Y-63868577D02*
X114610968Y-63773339D01*
X114706206Y-63725720D01*
X114849063Y-63725720D01*
X114944301Y-63773339D01*
X114991920Y-63868577D01*
X114991920Y-64392386D01*
X115468111Y-64392386D02*
X115468111Y-63725720D01*
X115468111Y-63820958D02*
X115515730Y-63773339D01*
X115610968Y-63725720D01*
X115753825Y-63725720D01*
X115849063Y-63773339D01*
X115896682Y-63868577D01*
X115896682Y-64392386D01*
X115896682Y-63868577D02*
X115944301Y-63773339D01*
X116039539Y-63725720D01*
X116182396Y-63725720D01*
X116277635Y-63773339D01*
X116325254Y-63868577D01*
X116325254Y-64392386D01*
X103340016Y-65240006D02*
X121120016Y-65240006D01*
X103340016Y-67780006D02*
X103340016Y-64653585D01*
X121120016Y-67780006D02*
X121120016Y-64653585D01*
X121120016Y-65240006D02*
X119993512Y-65826427D01*
X121120016Y-65240006D02*
X119993512Y-64653585D01*
X103340016Y-65240006D02*
X104466520Y-65826427D01*
X103340016Y-65240006D02*
X104466520Y-64653585D01*
X81267630Y-73098577D02*
X81267630Y-72527148D01*
X81267630Y-72812863D02*
X82267630Y-72812863D01*
X82124772Y-72717625D01*
X82029534Y-72622386D01*
X81981915Y-72527148D01*
X82267630Y-73431910D02*
X82267630Y-74098577D01*
X81267630Y-73670006D01*
X81362868Y-74479529D02*
X81315249Y-74527148D01*
X81267630Y-74479529D01*
X81315249Y-74431910D01*
X81362868Y-74479529D01*
X81267630Y-74479529D01*
X82267630Y-74860482D02*
X82267630Y-75527148D01*
X81267630Y-75098577D01*
X81839058Y-76050958D02*
X81886677Y-75955720D01*
X81934296Y-75908101D01*
X82029534Y-75860482D01*
X82077153Y-75860482D01*
X82172391Y-75908101D01*
X82220011Y-75955720D01*
X82267630Y-76050958D01*
X82267630Y-76241434D01*
X82220011Y-76336672D01*
X82172391Y-76384291D01*
X82077153Y-76431910D01*
X82029534Y-76431910D01*
X81934296Y-76384291D01*
X81886677Y-76336672D01*
X81839058Y-76241434D01*
X81839058Y-76050958D01*
X81791439Y-75955720D01*
X81743820Y-75908101D01*
X81648582Y-75860482D01*
X81458106Y-75860482D01*
X81362868Y-75908101D01*
X81315249Y-75955720D01*
X81267630Y-76050958D01*
X81267630Y-76241434D01*
X81315249Y-76336672D01*
X81362868Y-76384291D01*
X81458106Y-76431910D01*
X81648582Y-76431910D01*
X81743820Y-76384291D01*
X81791439Y-76336672D01*
X81839058Y-76241434D01*
X82267630Y-77050958D02*
X82267630Y-77146196D01*
X82220011Y-77241434D01*
X82172391Y-77289053D01*
X82077153Y-77336672D01*
X81886677Y-77384291D01*
X81648582Y-77384291D01*
X81458106Y-77336672D01*
X81362868Y-77289053D01*
X81315249Y-77241434D01*
X81267630Y-77146196D01*
X81267630Y-77050958D01*
X81315249Y-76955720D01*
X81362868Y-76908101D01*
X81458106Y-76860482D01*
X81648582Y-76812863D01*
X81886677Y-76812863D01*
X82077153Y-76860482D01*
X82172391Y-76908101D01*
X82220011Y-76955720D01*
X82267630Y-77050958D01*
X81267630Y-78574767D02*
X81934296Y-78574767D01*
X81839058Y-78574767D02*
X81886677Y-78622386D01*
X81934296Y-78717625D01*
X81934296Y-78860482D01*
X81886677Y-78955720D01*
X81791439Y-79003339D01*
X81267630Y-79003339D01*
X81791439Y-79003339D02*
X81886677Y-79050958D01*
X81934296Y-79146196D01*
X81934296Y-79289053D01*
X81886677Y-79384291D01*
X81791439Y-79431910D01*
X81267630Y-79431910D01*
X81267630Y-79908101D02*
X81934296Y-79908101D01*
X81839058Y-79908101D02*
X81886677Y-79955720D01*
X81934296Y-80050958D01*
X81934296Y-80193815D01*
X81886677Y-80289053D01*
X81791439Y-80336672D01*
X81267630Y-80336672D01*
X81791439Y-80336672D02*
X81886677Y-80384291D01*
X81934296Y-80479529D01*
X81934296Y-80622386D01*
X81886677Y-80717625D01*
X81791439Y-80765244D01*
X81267630Y-80765244D01*
X83020011Y-67780006D02*
X83020011Y-85560006D01*
X85560011Y-67780006D02*
X82433590Y-67780006D01*
X85560011Y-85560006D02*
X82433590Y-85560006D01*
X83020011Y-85560006D02*
X82433590Y-84433502D01*
X83020011Y-85560006D02*
X83606432Y-84433502D01*
X83020011Y-67780006D02*
X82433590Y-68906510D01*
X83020011Y-67780006D02*
X83606432Y-68906510D01*
X90878582Y-64392386D02*
X90307153Y-64392386D01*
X90592868Y-64392386D02*
X90592868Y-63392386D01*
X90497630Y-63535244D01*
X90402391Y-63630482D01*
X90307153Y-63678101D01*
X91211915Y-63392386D02*
X91878582Y-63392386D01*
X91450011Y-64392386D01*
X92259534Y-64297148D02*
X92307153Y-64344767D01*
X92259534Y-64392386D01*
X92211915Y-64344767D01*
X92259534Y-64297148D01*
X92259534Y-64392386D01*
X92640487Y-63392386D02*
X93307153Y-63392386D01*
X92878582Y-64392386D01*
X93830963Y-63820958D02*
X93735725Y-63773339D01*
X93688106Y-63725720D01*
X93640487Y-63630482D01*
X93640487Y-63582863D01*
X93688106Y-63487625D01*
X93735725Y-63440006D01*
X93830963Y-63392386D01*
X94021439Y-63392386D01*
X94116677Y-63440006D01*
X94164296Y-63487625D01*
X94211915Y-63582863D01*
X94211915Y-63630482D01*
X94164296Y-63725720D01*
X94116677Y-63773339D01*
X94021439Y-63820958D01*
X93830963Y-63820958D01*
X93735725Y-63868577D01*
X93688106Y-63916196D01*
X93640487Y-64011434D01*
X93640487Y-64201910D01*
X93688106Y-64297148D01*
X93735725Y-64344767D01*
X93830963Y-64392386D01*
X94021439Y-64392386D01*
X94116677Y-64344767D01*
X94164296Y-64297148D01*
X94211915Y-64201910D01*
X94211915Y-64011434D01*
X94164296Y-63916196D01*
X94116677Y-63868577D01*
X94021439Y-63820958D01*
X94830963Y-63392386D02*
X94926201Y-63392386D01*
X95021439Y-63440006D01*
X95069058Y-63487625D01*
X95116677Y-63582863D01*
X95164296Y-63773339D01*
X95164296Y-64011434D01*
X95116677Y-64201910D01*
X95069058Y-64297148D01*
X95021439Y-64344767D01*
X94926201Y-64392386D01*
X94830963Y-64392386D01*
X94735725Y-64344767D01*
X94688106Y-64297148D01*
X94640487Y-64201910D01*
X94592868Y-64011434D01*
X94592868Y-63773339D01*
X94640487Y-63582863D01*
X94688106Y-63487625D01*
X94735725Y-63440006D01*
X94830963Y-63392386D01*
X96354772Y-64392386D02*
X96354772Y-63725720D01*
X96354772Y-63820958D02*
X96402391Y-63773339D01*
X96497630Y-63725720D01*
X96640487Y-63725720D01*
X96735725Y-63773339D01*
X96783344Y-63868577D01*
X96783344Y-64392386D01*
X96783344Y-63868577D02*
X96830963Y-63773339D01*
X96926201Y-63725720D01*
X97069058Y-63725720D01*
X97164296Y-63773339D01*
X97211915Y-63868577D01*
X97211915Y-64392386D01*
X97688106Y-64392386D02*
X97688106Y-63725720D01*
X97688106Y-63820958D02*
X97735725Y-63773339D01*
X97830963Y-63725720D01*
X97973820Y-63725720D01*
X98069058Y-63773339D01*
X98116677Y-63868577D01*
X98116677Y-64392386D01*
X98116677Y-63868577D02*
X98164296Y-63773339D01*
X98259534Y-63725720D01*
X98402391Y-63725720D01*
X98497630Y-63773339D01*
X98545249Y-63868577D01*
X98545249Y-64392386D01*
X85560011Y-65240006D02*
X103340011Y-65240006D01*
X85560011Y-67780006D02*
X85560011Y-64653585D01*
X103340011Y-67780006D02*
X103340011Y-64653585D01*
X103340011Y-65240006D02*
X102213507Y-65826427D01*
X103340011Y-65240006D02*
X102213507Y-64653585D01*
X85560011Y-65240006D02*
X86686515Y-65826427D01*
X85560011Y-65240006D02*
X86686515Y-64653585D01*
X63487625Y-73098577D02*
X63487625Y-72527148D01*
X63487625Y-72812863D02*
X64487625Y-72812863D01*
X64344767Y-72717625D01*
X64249529Y-72622386D01*
X64201910Y-72527148D01*
X64487625Y-73431910D02*
X64487625Y-74098577D01*
X63487625Y-73670006D01*
X63582863Y-74479529D02*
X63535244Y-74527148D01*
X63487625Y-74479529D01*
X63535244Y-74431910D01*
X63582863Y-74479529D01*
X63487625Y-74479529D01*
X64487625Y-74860482D02*
X64487625Y-75527148D01*
X63487625Y-75098577D01*
X64059053Y-76050958D02*
X64106672Y-75955720D01*
X64154291Y-75908101D01*
X64249529Y-75860482D01*
X64297148Y-75860482D01*
X64392386Y-75908101D01*
X64440006Y-75955720D01*
X64487625Y-76050958D01*
X64487625Y-76241434D01*
X64440006Y-76336672D01*
X64392386Y-76384291D01*
X64297148Y-76431910D01*
X64249529Y-76431910D01*
X64154291Y-76384291D01*
X64106672Y-76336672D01*
X64059053Y-76241434D01*
X64059053Y-76050958D01*
X64011434Y-75955720D01*
X63963815Y-75908101D01*
X63868577Y-75860482D01*
X63678101Y-75860482D01*
X63582863Y-75908101D01*
X63535244Y-75955720D01*
X63487625Y-76050958D01*
X63487625Y-76241434D01*
X63535244Y-76336672D01*
X63582863Y-76384291D01*
X63678101Y-76431910D01*
X63868577Y-76431910D01*
X63963815Y-76384291D01*
X64011434Y-76336672D01*
X64059053Y-76241434D01*
X64487625Y-77050958D02*
X64487625Y-77146196D01*
X64440006Y-77241434D01*
X64392386Y-77289053D01*
X64297148Y-77336672D01*
X64106672Y-77384291D01*
X63868577Y-77384291D01*
X63678101Y-77336672D01*
X63582863Y-77289053D01*
X63535244Y-77241434D01*
X63487625Y-77146196D01*
X63487625Y-77050958D01*
X63535244Y-76955720D01*
X63582863Y-76908101D01*
X63678101Y-76860482D01*
X63868577Y-76812863D01*
X64106672Y-76812863D01*
X64297148Y-76860482D01*
X64392386Y-76908101D01*
X64440006Y-76955720D01*
X64487625Y-77050958D01*
X63487625Y-78574767D02*
X64154291Y-78574767D01*
X64059053Y-78574767D02*
X64106672Y-78622386D01*
X64154291Y-78717625D01*
X64154291Y-78860482D01*
X64106672Y-78955720D01*
X64011434Y-79003339D01*
X63487625Y-79003339D01*
X64011434Y-79003339D02*
X64106672Y-79050958D01*
X64154291Y-79146196D01*
X64154291Y-79289053D01*
X64106672Y-79384291D01*
X64011434Y-79431910D01*
X63487625Y-79431910D01*
X63487625Y-79908101D02*
X64154291Y-79908101D01*
X64059053Y-79908101D02*
X64106672Y-79955720D01*
X64154291Y-80050958D01*
X64154291Y-80193815D01*
X64106672Y-80289053D01*
X64011434Y-80336672D01*
X63487625Y-80336672D01*
X64011434Y-80336672D02*
X64106672Y-80384291D01*
X64154291Y-80479529D01*
X64154291Y-80622386D01*
X64106672Y-80717625D01*
X64011434Y-80765244D01*
X63487625Y-80765244D01*
X65240006Y-67780006D02*
X65240006Y-85560006D01*
X67780006Y-67780006D02*
X64653585Y-67780006D01*
X67780006Y-85560006D02*
X64653585Y-85560006D01*
X65240006Y-85560006D02*
X64653585Y-84433502D01*
X65240006Y-85560006D02*
X65826427Y-84433502D01*
X65240006Y-67780006D02*
X64653585Y-68906510D01*
X65240006Y-67780006D02*
X65826427Y-68906510D01*
X73098577Y-64392386D02*
X72527148Y-64392386D01*
X72812863Y-64392386D02*
X72812863Y-63392386D01*
X72717625Y-63535244D01*
X72622386Y-63630482D01*
X72527148Y-63678101D01*
X73431910Y-63392386D02*
X74098577Y-63392386D01*
X73670006Y-64392386D01*
X74479529Y-64297148D02*
X74527148Y-64344767D01*
X74479529Y-64392386D01*
X74431910Y-64344767D01*
X74479529Y-64297148D01*
X74479529Y-64392386D01*
X74860482Y-63392386D02*
X75527148Y-63392386D01*
X75098577Y-64392386D01*
X76050958Y-63820958D02*
X75955720Y-63773339D01*
X75908101Y-63725720D01*
X75860482Y-63630482D01*
X75860482Y-63582863D01*
X75908101Y-63487625D01*
X75955720Y-63440006D01*
X76050958Y-63392386D01*
X76241434Y-63392386D01*
X76336672Y-63440006D01*
X76384291Y-63487625D01*
X76431910Y-63582863D01*
X76431910Y-63630482D01*
X76384291Y-63725720D01*
X76336672Y-63773339D01*
X76241434Y-63820958D01*
X76050958Y-63820958D01*
X75955720Y-63868577D01*
X75908101Y-63916196D01*
X75860482Y-64011434D01*
X75860482Y-64201910D01*
X75908101Y-64297148D01*
X75955720Y-64344767D01*
X76050958Y-64392386D01*
X76241434Y-64392386D01*
X76336672Y-64344767D01*
X76384291Y-64297148D01*
X76431910Y-64201910D01*
X76431910Y-64011434D01*
X76384291Y-63916196D01*
X76336672Y-63868577D01*
X76241434Y-63820958D01*
X77050958Y-63392386D02*
X77146196Y-63392386D01*
X77241434Y-63440006D01*
X77289053Y-63487625D01*
X77336672Y-63582863D01*
X77384291Y-63773339D01*
X77384291Y-64011434D01*
X77336672Y-64201910D01*
X77289053Y-64297148D01*
X77241434Y-64344767D01*
X77146196Y-64392386D01*
X77050958Y-64392386D01*
X76955720Y-64344767D01*
X76908101Y-64297148D01*
X76860482Y-64201910D01*
X76812863Y-64011434D01*
X76812863Y-63773339D01*
X76860482Y-63582863D01*
X76908101Y-63487625D01*
X76955720Y-63440006D01*
X77050958Y-63392386D01*
X78574767Y-64392386D02*
X78574767Y-63725720D01*
X78574767Y-63820958D02*
X78622386Y-63773339D01*
X78717625Y-63725720D01*
X78860482Y-63725720D01*
X78955720Y-63773339D01*
X79003339Y-63868577D01*
X79003339Y-64392386D01*
X79003339Y-63868577D02*
X79050958Y-63773339D01*
X79146196Y-63725720D01*
X79289053Y-63725720D01*
X79384291Y-63773339D01*
X79431910Y-63868577D01*
X79431910Y-64392386D01*
X79908101Y-64392386D02*
X79908101Y-63725720D01*
X79908101Y-63820958D02*
X79955720Y-63773339D01*
X80050958Y-63725720D01*
X80193815Y-63725720D01*
X80289053Y-63773339D01*
X80336672Y-63868577D01*
X80336672Y-64392386D01*
X80336672Y-63868577D02*
X80384291Y-63773339D01*
X80479529Y-63725720D01*
X80622386Y-63725720D01*
X80717625Y-63773339D01*
X80765244Y-63868577D01*
X80765244Y-64392386D01*
X67780006Y-65240006D02*
X85560006Y-65240006D01*
X67780006Y-67780006D02*
X67780006Y-64653585D01*
X85560006Y-67780006D02*
X85560006Y-64653585D01*
X85560006Y-65240006D02*
X84433502Y-65826427D01*
X85560006Y-65240006D02*
X84433502Y-64653585D01*
X67780006Y-65240006D02*
X68906510Y-65826427D01*
X67780006Y-65240006D02*
X68906510Y-64653585D01*
X45707620Y-73098577D02*
X45707620Y-72527148D01*
X45707620Y-72812863D02*
X46707620Y-72812863D01*
X46564762Y-72717625D01*
X46469524Y-72622386D01*
X46421905Y-72527148D01*
X46707620Y-73431910D02*
X46707620Y-74098577D01*
X45707620Y-73670006D01*
X45802858Y-74479529D02*
X45755239Y-74527148D01*
X45707620Y-74479529D01*
X45755239Y-74431910D01*
X45802858Y-74479529D01*
X45707620Y-74479529D01*
X46707620Y-74860482D02*
X46707620Y-75527148D01*
X45707620Y-75098577D01*
X46279048Y-76050958D02*
X46326667Y-75955720D01*
X46374286Y-75908101D01*
X46469524Y-75860482D01*
X46517143Y-75860482D01*
X46612381Y-75908101D01*
X46660001Y-75955720D01*
X46707620Y-76050958D01*
X46707620Y-76241434D01*
X46660001Y-76336672D01*
X46612381Y-76384291D01*
X46517143Y-76431910D01*
X46469524Y-76431910D01*
X46374286Y-76384291D01*
X46326667Y-76336672D01*
X46279048Y-76241434D01*
X46279048Y-76050958D01*
X46231429Y-75955720D01*
X46183810Y-75908101D01*
X46088572Y-75860482D01*
X45898096Y-75860482D01*
X45802858Y-75908101D01*
X45755239Y-75955720D01*
X45707620Y-76050958D01*
X45707620Y-76241434D01*
X45755239Y-76336672D01*
X45802858Y-76384291D01*
X45898096Y-76431910D01*
X46088572Y-76431910D01*
X46183810Y-76384291D01*
X46231429Y-76336672D01*
X46279048Y-76241434D01*
X46707620Y-77050958D02*
X46707620Y-77146196D01*
X46660001Y-77241434D01*
X46612381Y-77289053D01*
X46517143Y-77336672D01*
X46326667Y-77384291D01*
X46088572Y-77384291D01*
X45898096Y-77336672D01*
X45802858Y-77289053D01*
X45755239Y-77241434D01*
X45707620Y-77146196D01*
X45707620Y-77050958D01*
X45755239Y-76955720D01*
X45802858Y-76908101D01*
X45898096Y-76860482D01*
X46088572Y-76812863D01*
X46326667Y-76812863D01*
X46517143Y-76860482D01*
X46612381Y-76908101D01*
X46660001Y-76955720D01*
X46707620Y-77050958D01*
X45707620Y-78574767D02*
X46374286Y-78574767D01*
X46279048Y-78574767D02*
X46326667Y-78622386D01*
X46374286Y-78717625D01*
X46374286Y-78860482D01*
X46326667Y-78955720D01*
X46231429Y-79003339D01*
X45707620Y-79003339D01*
X46231429Y-79003339D02*
X46326667Y-79050958D01*
X46374286Y-79146196D01*
X46374286Y-79289053D01*
X46326667Y-79384291D01*
X46231429Y-79431910D01*
X45707620Y-79431910D01*
X45707620Y-79908101D02*
X46374286Y-79908101D01*
X46279048Y-79908101D02*
X46326667Y-79955720D01*
X46374286Y-80050958D01*
X46374286Y-80193815D01*
X46326667Y-80289053D01*
X46231429Y-80336672D01*
X45707620Y-80336672D01*
X46231429Y-80336672D02*
X46326667Y-80384291D01*
X46374286Y-80479529D01*
X46374286Y-80622386D01*
X46326667Y-80717625D01*
X46231429Y-80765244D01*
X45707620Y-80765244D01*
X47460001Y-67780006D02*
X47460001Y-85560006D01*
X50000001Y-67780006D02*
X46873580Y-67780006D01*
X50000001Y-85560006D02*
X46873580Y-85560006D01*
X47460001Y-85560006D02*
X46873580Y-84433502D01*
X47460001Y-85560006D02*
X48046422Y-84433502D01*
X47460001Y-67780006D02*
X46873580Y-68906510D01*
X47460001Y-67780006D02*
X48046422Y-68906510D01*
X55318572Y-64392386D02*
X54747143Y-64392386D01*
X55032858Y-64392386D02*
X55032858Y-63392386D01*
X54937620Y-63535244D01*
X54842381Y-63630482D01*
X54747143Y-63678101D01*
X55651905Y-63392386D02*
X56318572Y-63392386D01*
X55890001Y-64392386D01*
X56699524Y-64297148D02*
X56747143Y-64344767D01*
X56699524Y-64392386D01*
X56651905Y-64344767D01*
X56699524Y-64297148D01*
X56699524Y-64392386D01*
X57080477Y-63392386D02*
X57747143Y-63392386D01*
X57318572Y-64392386D01*
X58270953Y-63820958D02*
X58175715Y-63773339D01*
X58128096Y-63725720D01*
X58080477Y-63630482D01*
X58080477Y-63582863D01*
X58128096Y-63487625D01*
X58175715Y-63440006D01*
X58270953Y-63392386D01*
X58461429Y-63392386D01*
X58556667Y-63440006D01*
X58604286Y-63487625D01*
X58651905Y-63582863D01*
X58651905Y-63630482D01*
X58604286Y-63725720D01*
X58556667Y-63773339D01*
X58461429Y-63820958D01*
X58270953Y-63820958D01*
X58175715Y-63868577D01*
X58128096Y-63916196D01*
X58080477Y-64011434D01*
X58080477Y-64201910D01*
X58128096Y-64297148D01*
X58175715Y-64344767D01*
X58270953Y-64392386D01*
X58461429Y-64392386D01*
X58556667Y-64344767D01*
X58604286Y-64297148D01*
X58651905Y-64201910D01*
X58651905Y-64011434D01*
X58604286Y-63916196D01*
X58556667Y-63868577D01*
X58461429Y-63820958D01*
X59270953Y-63392386D02*
X59366191Y-63392386D01*
X59461429Y-63440006D01*
X59509048Y-63487625D01*
X59556667Y-63582863D01*
X59604286Y-63773339D01*
X59604286Y-64011434D01*
X59556667Y-64201910D01*
X59509048Y-64297148D01*
X59461429Y-64344767D01*
X59366191Y-64392386D01*
X59270953Y-64392386D01*
X59175715Y-64344767D01*
X59128096Y-64297148D01*
X59080477Y-64201910D01*
X59032858Y-64011434D01*
X59032858Y-63773339D01*
X59080477Y-63582863D01*
X59128096Y-63487625D01*
X59175715Y-63440006D01*
X59270953Y-63392386D01*
X60794762Y-64392386D02*
X60794762Y-63725720D01*
X60794762Y-63820958D02*
X60842381Y-63773339D01*
X60937620Y-63725720D01*
X61080477Y-63725720D01*
X61175715Y-63773339D01*
X61223334Y-63868577D01*
X61223334Y-64392386D01*
X61223334Y-63868577D02*
X61270953Y-63773339D01*
X61366191Y-63725720D01*
X61509048Y-63725720D01*
X61604286Y-63773339D01*
X61651905Y-63868577D01*
X61651905Y-64392386D01*
X62128096Y-64392386D02*
X62128096Y-63725720D01*
X62128096Y-63820958D02*
X62175715Y-63773339D01*
X62270953Y-63725720D01*
X62413810Y-63725720D01*
X62509048Y-63773339D01*
X62556667Y-63868577D01*
X62556667Y-64392386D01*
X62556667Y-63868577D02*
X62604286Y-63773339D01*
X62699524Y-63725720D01*
X62842381Y-63725720D01*
X62937620Y-63773339D01*
X62985239Y-63868577D01*
X62985239Y-64392386D01*
X50000001Y-65240006D02*
X67780001Y-65240006D01*
X50000001Y-67780006D02*
X50000001Y-64653585D01*
X67780001Y-67780006D02*
X67780001Y-64653585D01*
X67780001Y-65240006D02*
X66653497Y-65826427D01*
X67780001Y-65240006D02*
X66653497Y-64653585D01*
X50000001Y-65240006D02*
X51126505Y-65826427D01*
X50000001Y-65240006D02*
X51126505Y-64653585D01*
X99047635Y-55318572D02*
X99047635Y-54747143D01*
X99047635Y-55032858D02*
X100047635Y-55032858D01*
X99904777Y-54937620D01*
X99809539Y-54842381D01*
X99761920Y-54747143D01*
X100047635Y-55651905D02*
X100047635Y-56318572D01*
X99047635Y-55890001D01*
X99142873Y-56699524D02*
X99095254Y-56747143D01*
X99047635Y-56699524D01*
X99095254Y-56651905D01*
X99142873Y-56699524D01*
X99047635Y-56699524D01*
X100047635Y-57080477D02*
X100047635Y-57747143D01*
X99047635Y-57318572D01*
X99619063Y-58270953D02*
X99666682Y-58175715D01*
X99714301Y-58128096D01*
X99809539Y-58080477D01*
X99857158Y-58080477D01*
X99952396Y-58128096D01*
X100000016Y-58175715D01*
X100047635Y-58270953D01*
X100047635Y-58461429D01*
X100000016Y-58556667D01*
X99952396Y-58604286D01*
X99857158Y-58651905D01*
X99809539Y-58651905D01*
X99714301Y-58604286D01*
X99666682Y-58556667D01*
X99619063Y-58461429D01*
X99619063Y-58270953D01*
X99571444Y-58175715D01*
X99523825Y-58128096D01*
X99428587Y-58080477D01*
X99238111Y-58080477D01*
X99142873Y-58128096D01*
X99095254Y-58175715D01*
X99047635Y-58270953D01*
X99047635Y-58461429D01*
X99095254Y-58556667D01*
X99142873Y-58604286D01*
X99238111Y-58651905D01*
X99428587Y-58651905D01*
X99523825Y-58604286D01*
X99571444Y-58556667D01*
X99619063Y-58461429D01*
X100047635Y-59270953D02*
X100047635Y-59366191D01*
X100000016Y-59461429D01*
X99952396Y-59509048D01*
X99857158Y-59556667D01*
X99666682Y-59604286D01*
X99428587Y-59604286D01*
X99238111Y-59556667D01*
X99142873Y-59509048D01*
X99095254Y-59461429D01*
X99047635Y-59366191D01*
X99047635Y-59270953D01*
X99095254Y-59175715D01*
X99142873Y-59128096D01*
X99238111Y-59080477D01*
X99428587Y-59032858D01*
X99666682Y-59032858D01*
X99857158Y-59080477D01*
X99952396Y-59128096D01*
X100000016Y-59175715D01*
X100047635Y-59270953D01*
X99047635Y-60794762D02*
X99714301Y-60794762D01*
X99619063Y-60794762D02*
X99666682Y-60842381D01*
X99714301Y-60937620D01*
X99714301Y-61080477D01*
X99666682Y-61175715D01*
X99571444Y-61223334D01*
X99047635Y-61223334D01*
X99571444Y-61223334D02*
X99666682Y-61270953D01*
X99714301Y-61366191D01*
X99714301Y-61509048D01*
X99666682Y-61604286D01*
X99571444Y-61651905D01*
X99047635Y-61651905D01*
X99047635Y-62128096D02*
X99714301Y-62128096D01*
X99619063Y-62128096D02*
X99666682Y-62175715D01*
X99714301Y-62270953D01*
X99714301Y-62413810D01*
X99666682Y-62509048D01*
X99571444Y-62556667D01*
X99047635Y-62556667D01*
X99571444Y-62556667D02*
X99666682Y-62604286D01*
X99714301Y-62699524D01*
X99714301Y-62842381D01*
X99666682Y-62937620D01*
X99571444Y-62985239D01*
X99047635Y-62985239D01*
X100800016Y-50000001D02*
X100800016Y-67780001D01*
X103340016Y-50000001D02*
X100213595Y-50000001D01*
X103340016Y-67780001D02*
X100213595Y-67780001D01*
X100800016Y-67780001D02*
X100213595Y-66653497D01*
X100800016Y-67780001D02*
X101386437Y-66653497D01*
X100800016Y-50000001D02*
X100213595Y-51126505D01*
X100800016Y-50000001D02*
X101386437Y-51126505D01*
X108658587Y-46612381D02*
X108087158Y-46612381D01*
X108372873Y-46612381D02*
X108372873Y-45612381D01*
X108277635Y-45755239D01*
X108182396Y-45850477D01*
X108087158Y-45898096D01*
X108991920Y-45612381D02*
X109658587Y-45612381D01*
X109230016Y-46612381D01*
X110039539Y-46517143D02*
X110087158Y-46564762D01*
X110039539Y-46612381D01*
X109991920Y-46564762D01*
X110039539Y-46517143D01*
X110039539Y-46612381D01*
X110420492Y-45612381D02*
X111087158Y-45612381D01*
X110658587Y-46612381D01*
X111610968Y-46040953D02*
X111515730Y-45993334D01*
X111468111Y-45945715D01*
X111420492Y-45850477D01*
X111420492Y-45802858D01*
X111468111Y-45707620D01*
X111515730Y-45660001D01*
X111610968Y-45612381D01*
X111801444Y-45612381D01*
X111896682Y-45660001D01*
X111944301Y-45707620D01*
X111991920Y-45802858D01*
X111991920Y-45850477D01*
X111944301Y-45945715D01*
X111896682Y-45993334D01*
X111801444Y-46040953D01*
X111610968Y-46040953D01*
X111515730Y-46088572D01*
X111468111Y-46136191D01*
X111420492Y-46231429D01*
X111420492Y-46421905D01*
X111468111Y-46517143D01*
X111515730Y-46564762D01*
X111610968Y-46612381D01*
X111801444Y-46612381D01*
X111896682Y-46564762D01*
X111944301Y-46517143D01*
X111991920Y-46421905D01*
X111991920Y-46231429D01*
X111944301Y-46136191D01*
X111896682Y-46088572D01*
X111801444Y-46040953D01*
X112610968Y-45612381D02*
X112706206Y-45612381D01*
X112801444Y-45660001D01*
X112849063Y-45707620D01*
X112896682Y-45802858D01*
X112944301Y-45993334D01*
X112944301Y-46231429D01*
X112896682Y-46421905D01*
X112849063Y-46517143D01*
X112801444Y-46564762D01*
X112706206Y-46612381D01*
X112610968Y-46612381D01*
X112515730Y-46564762D01*
X112468111Y-46517143D01*
X112420492Y-46421905D01*
X112372873Y-46231429D01*
X112372873Y-45993334D01*
X112420492Y-45802858D01*
X112468111Y-45707620D01*
X112515730Y-45660001D01*
X112610968Y-45612381D01*
X114134777Y-46612381D02*
X114134777Y-45945715D01*
X114134777Y-46040953D02*
X114182396Y-45993334D01*
X114277635Y-45945715D01*
X114420492Y-45945715D01*
X114515730Y-45993334D01*
X114563349Y-46088572D01*
X114563349Y-46612381D01*
X114563349Y-46088572D02*
X114610968Y-45993334D01*
X114706206Y-45945715D01*
X114849063Y-45945715D01*
X114944301Y-45993334D01*
X114991920Y-46088572D01*
X114991920Y-46612381D01*
X115468111Y-46612381D02*
X115468111Y-45945715D01*
X115468111Y-46040953D02*
X115515730Y-45993334D01*
X115610968Y-45945715D01*
X115753825Y-45945715D01*
X115849063Y-45993334D01*
X115896682Y-46088572D01*
X115896682Y-46612381D01*
X115896682Y-46088572D02*
X115944301Y-45993334D01*
X116039539Y-45945715D01*
X116182396Y-45945715D01*
X116277635Y-45993334D01*
X116325254Y-46088572D01*
X116325254Y-46612381D01*
X103340016Y-47460001D02*
X121120016Y-47460001D01*
X103340016Y-50000001D02*
X103340016Y-46873580D01*
X121120016Y-50000001D02*
X121120016Y-46873580D01*
X121120016Y-47460001D02*
X119993512Y-48046422D01*
X121120016Y-47460001D02*
X119993512Y-46873580D01*
X103340016Y-47460001D02*
X104466520Y-48046422D01*
X103340016Y-47460001D02*
X104466520Y-46873580D01*
X81267630Y-55318572D02*
X81267630Y-54747143D01*
X81267630Y-55032858D02*
X82267630Y-55032858D01*
X82124772Y-54937620D01*
X82029534Y-54842381D01*
X81981915Y-54747143D01*
X82267630Y-55651905D02*
X82267630Y-56318572D01*
X81267630Y-55890001D01*
X81362868Y-56699524D02*
X81315249Y-56747143D01*
X81267630Y-56699524D01*
X81315249Y-56651905D01*
X81362868Y-56699524D01*
X81267630Y-56699524D01*
X82267630Y-57080477D02*
X82267630Y-57747143D01*
X81267630Y-57318572D01*
X81839058Y-58270953D02*
X81886677Y-58175715D01*
X81934296Y-58128096D01*
X82029534Y-58080477D01*
X82077153Y-58080477D01*
X82172391Y-58128096D01*
X82220011Y-58175715D01*
X82267630Y-58270953D01*
X82267630Y-58461429D01*
X82220011Y-58556667D01*
X82172391Y-58604286D01*
X82077153Y-58651905D01*
X82029534Y-58651905D01*
X81934296Y-58604286D01*
X81886677Y-58556667D01*
X81839058Y-58461429D01*
X81839058Y-58270953D01*
X81791439Y-58175715D01*
X81743820Y-58128096D01*
X81648582Y-58080477D01*
X81458106Y-58080477D01*
X81362868Y-58128096D01*
X81315249Y-58175715D01*
X81267630Y-58270953D01*
X81267630Y-58461429D01*
X81315249Y-58556667D01*
X81362868Y-58604286D01*
X81458106Y-58651905D01*
X81648582Y-58651905D01*
X81743820Y-58604286D01*
X81791439Y-58556667D01*
X81839058Y-58461429D01*
X82267630Y-59270953D02*
X82267630Y-59366191D01*
X82220011Y-59461429D01*
X82172391Y-59509048D01*
X82077153Y-59556667D01*
X81886677Y-59604286D01*
X81648582Y-59604286D01*
X81458106Y-59556667D01*
X81362868Y-59509048D01*
X81315249Y-59461429D01*
X81267630Y-59366191D01*
X81267630Y-59270953D01*
X81315249Y-59175715D01*
X81362868Y-59128096D01*
X81458106Y-59080477D01*
X81648582Y-59032858D01*
X81886677Y-59032858D01*
X82077153Y-59080477D01*
X82172391Y-59128096D01*
X82220011Y-59175715D01*
X82267630Y-59270953D01*
X81267630Y-60794762D02*
X81934296Y-60794762D01*
X81839058Y-60794762D02*
X81886677Y-60842381D01*
X81934296Y-60937620D01*
X81934296Y-61080477D01*
X81886677Y-61175715D01*
X81791439Y-61223334D01*
X81267630Y-61223334D01*
X81791439Y-61223334D02*
X81886677Y-61270953D01*
X81934296Y-61366191D01*
X81934296Y-61509048D01*
X81886677Y-61604286D01*
X81791439Y-61651905D01*
X81267630Y-61651905D01*
X81267630Y-62128096D02*
X81934296Y-62128096D01*
X81839058Y-62128096D02*
X81886677Y-62175715D01*
X81934296Y-62270953D01*
X81934296Y-62413810D01*
X81886677Y-62509048D01*
X81791439Y-62556667D01*
X81267630Y-62556667D01*
X81791439Y-62556667D02*
X81886677Y-62604286D01*
X81934296Y-62699524D01*
X81934296Y-62842381D01*
X81886677Y-62937620D01*
X81791439Y-62985239D01*
X81267630Y-62985239D01*
X83020011Y-50000001D02*
X83020011Y-67780001D01*
X85560011Y-50000001D02*
X82433590Y-50000001D01*
X85560011Y-67780001D02*
X82433590Y-67780001D01*
X83020011Y-67780001D02*
X82433590Y-66653497D01*
X83020011Y-67780001D02*
X83606432Y-66653497D01*
X83020011Y-50000001D02*
X82433590Y-51126505D01*
X83020011Y-50000001D02*
X83606432Y-51126505D01*
X90878582Y-46612381D02*
X90307153Y-46612381D01*
X90592868Y-46612381D02*
X90592868Y-45612381D01*
X90497630Y-45755239D01*
X90402391Y-45850477D01*
X90307153Y-45898096D01*
X91211915Y-45612381D02*
X91878582Y-45612381D01*
X91450011Y-46612381D01*
X92259534Y-46517143D02*
X92307153Y-46564762D01*
X92259534Y-46612381D01*
X92211915Y-46564762D01*
X92259534Y-46517143D01*
X92259534Y-46612381D01*
X92640487Y-45612381D02*
X93307153Y-45612381D01*
X92878582Y-46612381D01*
X93830963Y-46040953D02*
X93735725Y-45993334D01*
X93688106Y-45945715D01*
X93640487Y-45850477D01*
X93640487Y-45802858D01*
X93688106Y-45707620D01*
X93735725Y-45660001D01*
X93830963Y-45612381D01*
X94021439Y-45612381D01*
X94116677Y-45660001D01*
X94164296Y-45707620D01*
X94211915Y-45802858D01*
X94211915Y-45850477D01*
X94164296Y-45945715D01*
X94116677Y-45993334D01*
X94021439Y-46040953D01*
X93830963Y-46040953D01*
X93735725Y-46088572D01*
X93688106Y-46136191D01*
X93640487Y-46231429D01*
X93640487Y-46421905D01*
X93688106Y-46517143D01*
X93735725Y-46564762D01*
X93830963Y-46612381D01*
X94021439Y-46612381D01*
X94116677Y-46564762D01*
X94164296Y-46517143D01*
X94211915Y-46421905D01*
X94211915Y-46231429D01*
X94164296Y-46136191D01*
X94116677Y-46088572D01*
X94021439Y-46040953D01*
X94830963Y-45612381D02*
X94926201Y-45612381D01*
X95021439Y-45660001D01*
X95069058Y-45707620D01*
X95116677Y-45802858D01*
X95164296Y-45993334D01*
X95164296Y-46231429D01*
X95116677Y-46421905D01*
X95069058Y-46517143D01*
X95021439Y-46564762D01*
X94926201Y-46612381D01*
X94830963Y-46612381D01*
X94735725Y-46564762D01*
X94688106Y-46517143D01*
X94640487Y-46421905D01*
X94592868Y-46231429D01*
X94592868Y-45993334D01*
X94640487Y-45802858D01*
X94688106Y-45707620D01*
X94735725Y-45660001D01*
X94830963Y-45612381D01*
X96354772Y-46612381D02*
X96354772Y-45945715D01*
X96354772Y-46040953D02*
X96402391Y-45993334D01*
X96497630Y-45945715D01*
X96640487Y-45945715D01*
X96735725Y-45993334D01*
X96783344Y-46088572D01*
X96783344Y-46612381D01*
X96783344Y-46088572D02*
X96830963Y-45993334D01*
X96926201Y-45945715D01*
X97069058Y-45945715D01*
X97164296Y-45993334D01*
X97211915Y-46088572D01*
X97211915Y-46612381D01*
X97688106Y-46612381D02*
X97688106Y-45945715D01*
X97688106Y-46040953D02*
X97735725Y-45993334D01*
X97830963Y-45945715D01*
X97973820Y-45945715D01*
X98069058Y-45993334D01*
X98116677Y-46088572D01*
X98116677Y-46612381D01*
X98116677Y-46088572D02*
X98164296Y-45993334D01*
X98259534Y-45945715D01*
X98402391Y-45945715D01*
X98497630Y-45993334D01*
X98545249Y-46088572D01*
X98545249Y-46612381D01*
X85560011Y-47460001D02*
X103340011Y-47460001D01*
X85560011Y-50000001D02*
X85560011Y-46873580D01*
X103340011Y-50000001D02*
X103340011Y-46873580D01*
X103340011Y-47460001D02*
X102213507Y-48046422D01*
X103340011Y-47460001D02*
X102213507Y-46873580D01*
X85560011Y-47460001D02*
X86686515Y-48046422D01*
X85560011Y-47460001D02*
X86686515Y-46873580D01*
X63487625Y-55318572D02*
X63487625Y-54747143D01*
X63487625Y-55032858D02*
X64487625Y-55032858D01*
X64344767Y-54937620D01*
X64249529Y-54842381D01*
X64201910Y-54747143D01*
X64487625Y-55651905D02*
X64487625Y-56318572D01*
X63487625Y-55890001D01*
X63582863Y-56699524D02*
X63535244Y-56747143D01*
X63487625Y-56699524D01*
X63535244Y-56651905D01*
X63582863Y-56699524D01*
X63487625Y-56699524D01*
X64487625Y-57080477D02*
X64487625Y-57747143D01*
X63487625Y-57318572D01*
X64059053Y-58270953D02*
X64106672Y-58175715D01*
X64154291Y-58128096D01*
X64249529Y-58080477D01*
X64297148Y-58080477D01*
X64392386Y-58128096D01*
X64440006Y-58175715D01*
X64487625Y-58270953D01*
X64487625Y-58461429D01*
X64440006Y-58556667D01*
X64392386Y-58604286D01*
X64297148Y-58651905D01*
X64249529Y-58651905D01*
X64154291Y-58604286D01*
X64106672Y-58556667D01*
X64059053Y-58461429D01*
X64059053Y-58270953D01*
X64011434Y-58175715D01*
X63963815Y-58128096D01*
X63868577Y-58080477D01*
X63678101Y-58080477D01*
X63582863Y-58128096D01*
X63535244Y-58175715D01*
X63487625Y-58270953D01*
X63487625Y-58461429D01*
X63535244Y-58556667D01*
X63582863Y-58604286D01*
X63678101Y-58651905D01*
X63868577Y-58651905D01*
X63963815Y-58604286D01*
X64011434Y-58556667D01*
X64059053Y-58461429D01*
X64487625Y-59270953D02*
X64487625Y-59366191D01*
X64440006Y-59461429D01*
X64392386Y-59509048D01*
X64297148Y-59556667D01*
X64106672Y-59604286D01*
X63868577Y-59604286D01*
X63678101Y-59556667D01*
X63582863Y-59509048D01*
X63535244Y-59461429D01*
X63487625Y-59366191D01*
X63487625Y-59270953D01*
X63535244Y-59175715D01*
X63582863Y-59128096D01*
X63678101Y-59080477D01*
X63868577Y-59032858D01*
X64106672Y-59032858D01*
X64297148Y-59080477D01*
X64392386Y-59128096D01*
X64440006Y-59175715D01*
X64487625Y-59270953D01*
X63487625Y-60794762D02*
X64154291Y-60794762D01*
X64059053Y-60794762D02*
X64106672Y-60842381D01*
X64154291Y-60937620D01*
X64154291Y-61080477D01*
X64106672Y-61175715D01*
X64011434Y-61223334D01*
X63487625Y-61223334D01*
X64011434Y-61223334D02*
X64106672Y-61270953D01*
X64154291Y-61366191D01*
X64154291Y-61509048D01*
X64106672Y-61604286D01*
X64011434Y-61651905D01*
X63487625Y-61651905D01*
X63487625Y-62128096D02*
X64154291Y-62128096D01*
X64059053Y-62128096D02*
X64106672Y-62175715D01*
X64154291Y-62270953D01*
X64154291Y-62413810D01*
X64106672Y-62509048D01*
X64011434Y-62556667D01*
X63487625Y-62556667D01*
X64011434Y-62556667D02*
X64106672Y-62604286D01*
X64154291Y-62699524D01*
X64154291Y-62842381D01*
X64106672Y-62937620D01*
X64011434Y-62985239D01*
X63487625Y-62985239D01*
X65240006Y-50000001D02*
X65240006Y-67780001D01*
X67780006Y-50000001D02*
X64653585Y-50000001D01*
X67780006Y-67780001D02*
X64653585Y-67780001D01*
X65240006Y-67780001D02*
X64653585Y-66653497D01*
X65240006Y-67780001D02*
X65826427Y-66653497D01*
X65240006Y-50000001D02*
X64653585Y-51126505D01*
X65240006Y-50000001D02*
X65826427Y-51126505D01*
X73098577Y-46612381D02*
X72527148Y-46612381D01*
X72812863Y-46612381D02*
X72812863Y-45612381D01*
X72717625Y-45755239D01*
X72622386Y-45850477D01*
X72527148Y-45898096D01*
X73431910Y-45612381D02*
X74098577Y-45612381D01*
X73670006Y-46612381D01*
X74479529Y-46517143D02*
X74527148Y-46564762D01*
X74479529Y-46612381D01*
X74431910Y-46564762D01*
X74479529Y-46517143D01*
X74479529Y-46612381D01*
X74860482Y-45612381D02*
X75527148Y-45612381D01*
X75098577Y-46612381D01*
X76050958Y-46040953D02*
X75955720Y-45993334D01*
X75908101Y-45945715D01*
X75860482Y-45850477D01*
X75860482Y-45802858D01*
X75908101Y-45707620D01*
X75955720Y-45660001D01*
X76050958Y-45612381D01*
X76241434Y-45612381D01*
X76336672Y-45660001D01*
X76384291Y-45707620D01*
X76431910Y-45802858D01*
X76431910Y-45850477D01*
X76384291Y-45945715D01*
X76336672Y-45993334D01*
X76241434Y-46040953D01*
X76050958Y-46040953D01*
X75955720Y-46088572D01*
X75908101Y-46136191D01*
X75860482Y-46231429D01*
X75860482Y-46421905D01*
X75908101Y-46517143D01*
X75955720Y-46564762D01*
X76050958Y-46612381D01*
X76241434Y-46612381D01*
X76336672Y-46564762D01*
X76384291Y-46517143D01*
X76431910Y-46421905D01*
X76431910Y-46231429D01*
X76384291Y-46136191D01*
X76336672Y-46088572D01*
X76241434Y-46040953D01*
X77050958Y-45612381D02*
X77146196Y-45612381D01*
X77241434Y-45660001D01*
X77289053Y-45707620D01*
X77336672Y-45802858D01*
X77384291Y-45993334D01*
X77384291Y-46231429D01*
X77336672Y-46421905D01*
X77289053Y-46517143D01*
X77241434Y-46564762D01*
X77146196Y-46612381D01*
X77050958Y-46612381D01*
X76955720Y-46564762D01*
X76908101Y-46517143D01*
X76860482Y-46421905D01*
X76812863Y-46231429D01*
X76812863Y-45993334D01*
X76860482Y-45802858D01*
X76908101Y-45707620D01*
X76955720Y-45660001D01*
X77050958Y-45612381D01*
X78574767Y-46612381D02*
X78574767Y-45945715D01*
X78574767Y-46040953D02*
X78622386Y-45993334D01*
X78717625Y-45945715D01*
X78860482Y-45945715D01*
X78955720Y-45993334D01*
X79003339Y-46088572D01*
X79003339Y-46612381D01*
X79003339Y-46088572D02*
X79050958Y-45993334D01*
X79146196Y-45945715D01*
X79289053Y-45945715D01*
X79384291Y-45993334D01*
X79431910Y-46088572D01*
X79431910Y-46612381D01*
X79908101Y-46612381D02*
X79908101Y-45945715D01*
X79908101Y-46040953D02*
X79955720Y-45993334D01*
X80050958Y-45945715D01*
X80193815Y-45945715D01*
X80289053Y-45993334D01*
X80336672Y-46088572D01*
X80336672Y-46612381D01*
X80336672Y-46088572D02*
X80384291Y-45993334D01*
X80479529Y-45945715D01*
X80622386Y-45945715D01*
X80717625Y-45993334D01*
X80765244Y-46088572D01*
X80765244Y-46612381D01*
X67780006Y-47460001D02*
X85560006Y-47460001D01*
X67780006Y-50000001D02*
X67780006Y-46873580D01*
X85560006Y-50000001D02*
X85560006Y-46873580D01*
X85560006Y-47460001D02*
X84433502Y-48046422D01*
X85560006Y-47460001D02*
X84433502Y-46873580D01*
X67780006Y-47460001D02*
X68906510Y-48046422D01*
X67780006Y-47460001D02*
X68906510Y-46873580D01*
X45707620Y-55318572D02*
X45707620Y-54747143D01*
X45707620Y-55032858D02*
X46707620Y-55032858D01*
X46564762Y-54937620D01*
X46469524Y-54842381D01*
X46421905Y-54747143D01*
X46707620Y-55651905D02*
X46707620Y-56318572D01*
X45707620Y-55890001D01*
X45802858Y-56699524D02*
X45755239Y-56747143D01*
X45707620Y-56699524D01*
X45755239Y-56651905D01*
X45802858Y-56699524D01*
X45707620Y-56699524D01*
X46707620Y-57080477D02*
X46707620Y-57747143D01*
X45707620Y-57318572D01*
X46279048Y-58270953D02*
X46326667Y-58175715D01*
X46374286Y-58128096D01*
X46469524Y-58080477D01*
X46517143Y-58080477D01*
X46612381Y-58128096D01*
X46660001Y-58175715D01*
X46707620Y-58270953D01*
X46707620Y-58461429D01*
X46660001Y-58556667D01*
X46612381Y-58604286D01*
X46517143Y-58651905D01*
X46469524Y-58651905D01*
X46374286Y-58604286D01*
X46326667Y-58556667D01*
X46279048Y-58461429D01*
X46279048Y-58270953D01*
X46231429Y-58175715D01*
X46183810Y-58128096D01*
X46088572Y-58080477D01*
X45898096Y-58080477D01*
X45802858Y-58128096D01*
X45755239Y-58175715D01*
X45707620Y-58270953D01*
X45707620Y-58461429D01*
X45755239Y-58556667D01*
X45802858Y-58604286D01*
X45898096Y-58651905D01*
X46088572Y-58651905D01*
X46183810Y-58604286D01*
X46231429Y-58556667D01*
X46279048Y-58461429D01*
X46707620Y-59270953D02*
X46707620Y-59366191D01*
X46660001Y-59461429D01*
X46612381Y-59509048D01*
X46517143Y-59556667D01*
X46326667Y-59604286D01*
X46088572Y-59604286D01*
X45898096Y-59556667D01*
X45802858Y-59509048D01*
X45755239Y-59461429D01*
X45707620Y-59366191D01*
X45707620Y-59270953D01*
X45755239Y-59175715D01*
X45802858Y-59128096D01*
X45898096Y-59080477D01*
X46088572Y-59032858D01*
X46326667Y-59032858D01*
X46517143Y-59080477D01*
X46612381Y-59128096D01*
X46660001Y-59175715D01*
X46707620Y-59270953D01*
X45707620Y-60794762D02*
X46374286Y-60794762D01*
X46279048Y-60794762D02*
X46326667Y-60842381D01*
X46374286Y-60937620D01*
X46374286Y-61080477D01*
X46326667Y-61175715D01*
X46231429Y-61223334D01*
X45707620Y-61223334D01*
X46231429Y-61223334D02*
X46326667Y-61270953D01*
X46374286Y-61366191D01*
X46374286Y-61509048D01*
X46326667Y-61604286D01*
X46231429Y-61651905D01*
X45707620Y-61651905D01*
X45707620Y-62128096D02*
X46374286Y-62128096D01*
X46279048Y-62128096D02*
X46326667Y-62175715D01*
X46374286Y-62270953D01*
X46374286Y-62413810D01*
X46326667Y-62509048D01*
X46231429Y-62556667D01*
X45707620Y-62556667D01*
X46231429Y-62556667D02*
X46326667Y-62604286D01*
X46374286Y-62699524D01*
X46374286Y-62842381D01*
X46326667Y-62937620D01*
X46231429Y-62985239D01*
X45707620Y-62985239D01*
X47460001Y-50000001D02*
X47460001Y-67780001D01*
X50000001Y-50000001D02*
X46873580Y-50000001D01*
X50000001Y-67780001D02*
X46873580Y-67780001D01*
X47460001Y-67780001D02*
X46873580Y-66653497D01*
X47460001Y-67780001D02*
X48046422Y-66653497D01*
X47460001Y-50000001D02*
X46873580Y-51126505D01*
X47460001Y-50000001D02*
X48046422Y-51126505D01*
X55318572Y-46612381D02*
X54747143Y-46612381D01*
X55032858Y-46612381D02*
X55032858Y-45612381D01*
X54937620Y-45755239D01*
X54842381Y-45850477D01*
X54747143Y-45898096D01*
X55651905Y-45612381D02*
X56318572Y-45612381D01*
X55890001Y-46612381D01*
X56699524Y-46517143D02*
X56747143Y-46564762D01*
X56699524Y-46612381D01*
X56651905Y-46564762D01*
X56699524Y-46517143D01*
X56699524Y-46612381D01*
X57080477Y-45612381D02*
X57747143Y-45612381D01*
X57318572Y-46612381D01*
X58270953Y-46040953D02*
X58175715Y-45993334D01*
X58128096Y-45945715D01*
X58080477Y-45850477D01*
X58080477Y-45802858D01*
X58128096Y-45707620D01*
X58175715Y-45660001D01*
X58270953Y-45612381D01*
X58461429Y-45612381D01*
X58556667Y-45660001D01*
X58604286Y-45707620D01*
X58651905Y-45802858D01*
X58651905Y-45850477D01*
X58604286Y-45945715D01*
X58556667Y-45993334D01*
X58461429Y-46040953D01*
X58270953Y-46040953D01*
X58175715Y-46088572D01*
X58128096Y-46136191D01*
X58080477Y-46231429D01*
X58080477Y-46421905D01*
X58128096Y-46517143D01*
X58175715Y-46564762D01*
X58270953Y-46612381D01*
X58461429Y-46612381D01*
X58556667Y-46564762D01*
X58604286Y-46517143D01*
X58651905Y-46421905D01*
X58651905Y-46231429D01*
X58604286Y-46136191D01*
X58556667Y-46088572D01*
X58461429Y-46040953D01*
X59270953Y-45612381D02*
X59366191Y-45612381D01*
X59461429Y-45660001D01*
X59509048Y-45707620D01*
X59556667Y-45802858D01*
X59604286Y-45993334D01*
X59604286Y-46231429D01*
X59556667Y-46421905D01*
X59509048Y-46517143D01*
X59461429Y-46564762D01*
X59366191Y-46612381D01*
X59270953Y-46612381D01*
X59175715Y-46564762D01*
X59128096Y-46517143D01*
X59080477Y-46421905D01*
X59032858Y-46231429D01*
X59032858Y-45993334D01*
X59080477Y-45802858D01*
X59128096Y-45707620D01*
X59175715Y-45660001D01*
X59270953Y-45612381D01*
X60794762Y-46612381D02*
X60794762Y-45945715D01*
X60794762Y-46040953D02*
X60842381Y-45993334D01*
X60937620Y-45945715D01*
X61080477Y-45945715D01*
X61175715Y-45993334D01*
X61223334Y-46088572D01*
X61223334Y-46612381D01*
X61223334Y-46088572D02*
X61270953Y-45993334D01*
X61366191Y-45945715D01*
X61509048Y-45945715D01*
X61604286Y-45993334D01*
X61651905Y-46088572D01*
X61651905Y-46612381D01*
X62128096Y-46612381D02*
X62128096Y-45945715D01*
X62128096Y-46040953D02*
X62175715Y-45993334D01*
X62270953Y-45945715D01*
X62413810Y-45945715D01*
X62509048Y-45993334D01*
X62556667Y-46088572D01*
X62556667Y-46612381D01*
X62556667Y-46088572D02*
X62604286Y-45993334D01*
X62699524Y-45945715D01*
X62842381Y-45945715D01*
X62937620Y-45993334D01*
X62985239Y-46088572D01*
X62985239Y-46612381D01*
X50000001Y-47460001D02*
X67780001Y-47460001D01*
X50000001Y-50000001D02*
X50000001Y-46873580D01*
X67780001Y-50000001D02*
X67780001Y-46873580D01*
X67780001Y-47460001D02*
X66653497Y-48046422D01*
X67780001Y-47460001D02*
X66653497Y-46873580D01*
X50000001Y-47460001D02*
X51126505Y-48046422D01*
X50000001Y-47460001D02*
X51126505Y-46873580D01*
M02*
